<?xml version="1.0" encoding="UTF-8" standalone="no"?><svg xmlns="http://www.w3.org/2000/svg" xmlns:xlink="http://www.w3.org/1999/xlink" contentScriptType="application/ecmascript" contentStyleType="text/css" height="453px" preserveAspectRatio="none" style="width:998px;height:453px;background:#FFFFFF;" version="1.1" viewBox="0 0 998 453" width="998px" zoomAndPan="magnify"><defs/><g><text fill="#000000" font-family="Verdana" font-size="18" lengthAdjust="spacing" textLength="341" x="328.25" y="28.708">RDCU. pour créer un nouveau Cours</text><line style="stroke:#A80036;stroke-width:1.0;stroke-dasharray:5.0,5.0;" x1="308" x2="308" y1="71.25" y2="446.2422"/><line style="stroke:#A80036;stroke-width:1.0;stroke-dasharray:5.0,5.0;" x1="529.5" x2="529.5" y1="71.25" y2="446.2422"/><line style="stroke:#A80036;stroke-width:1.0;stroke-dasharray:5.0,5.0;" x1="735.5" x2="735.5" y1="71.25" y2="446.2422"/><line style="stroke:#A80036;stroke-width:1.0;stroke-dasharray:5.0,5.0;" x1="932.5" x2="932.5" y1="289.8789" y2="446.2422"/><rect fill="#FEFECE" height="30.2969" style="stroke:#A80036;stroke-width:1.5;" width="180" x="218" y="39.9531"/><text fill="#000000" font-family="Verdana" font-size="14" lengthAdjust="spacing" textLength="166" x="225" y="59.9482">:EnseignantControlleur</text><rect fill="#FEFECE" height="30.2969" style="stroke:#A80036;stroke-width:1.5;" width="139" x="460.5" y="39.9531"/><text fill="#000000" font-family="Verdana" font-size="14" lengthAdjust="spacing" textLength="125" x="467.5" y="59.9482">&lt;&lt;Actor&gt;&gt; : Sgb</text><rect fill="#FEFECE" height="30.2969" style="stroke:#A80036;stroke-width:1.5;" width="253" x="609.5" y="39.9531"/><text fill="#000000" font-family="Verdana" font-size="14" lengthAdjust="spacing" textLength="239" x="616.5" y="59.9482">OperationCours : OperationCours</text><polygon fill="#A80036" points="296,108.9492,306,112.9492,296,116.9492" style="stroke:#A80036;stroke-width:1.0;"/><line style="stroke:#A80036;stroke-width:1.0;" x1="0" x2="302" y1="112.9492" y2="112.9492"/><text fill="#000000" font-family="Verdana" font-size="13" lengthAdjust="spacing" textLength="222" x="7" y="107.8833">cours = recupererCoursSgb(token)</text><path d="M313,86.25 L313,126.25 L572,126.25 L572,96.25 L562,86.25 L313,86.25 " fill="#FBFB77" style="stroke:#A80036;stroke-width:1.0;"/><path d="M562,86.25 L562,96.25 L572,96.25 L562,86.25 " fill="#FBFB77" style="stroke:#A80036;stroke-width:1.0;"/><text fill="#000000" font-family="Verdana" font-size="13" lengthAdjust="spacing" textLength="105" x="319" y="103.3169">Selon Contôleur,</text><text fill="#000000" font-family="Verdana" font-size="13" lengthAdjust="spacing" textLength="238" x="319" y="118.4497">reçoit la première opération système</text><polygon fill="#A80036" points="518,166.7813,528,170.7813,518,174.7813" style="stroke:#A80036;stroke-width:1.0;"/><line style="stroke:#A80036;stroke-width:1.0;" x1="308" x2="524" y1="170.7813" y2="170.7813"/><text fill="#000000" font-family="Verdana" font-size="13" lengthAdjust="spacing" textLength="198" x="315" y="165.7153">cours = recupererCours(token)</text><path d="M5,136.5156 L5,191.5156 L303,191.5156 L303,146.5156 L293,136.5156 L5,136.5156 " fill="#FBFB77" style="stroke:#A80036;stroke-width:1.0;"/><path d="M293,136.5156 L293,146.5156 L303,146.5156 L293,136.5156 " fill="#FBFB77" style="stroke:#A80036;stroke-width:1.0;"/><text fill="#000000" font-family="Verdana" font-size="13" lengthAdjust="spacing" textLength="277" x="11" y="153.5825">Selon expert, l'information Sgb est l'expert,</text><text fill="#000000" font-family="Verdana" font-size="13" lengthAdjust="spacing" textLength="238" x="11" y="168.7153">car il contient toutes les informations</text><text fill="#000000" font-family="Verdana" font-size="13" lengthAdjust="spacing" textLength="128" x="11" y="183.8481">utiles pour les cours</text><polygon fill="#A80036" points="296,224.6133,306,228.6133,296,232.6133" style="stroke:#A80036;stroke-width:1.0;"/><line style="stroke:#A80036;stroke-width:1.0;" x1="0" x2="302" y1="228.6133" y2="228.6133"/><text fill="#000000" font-family="Verdana" font-size="13" lengthAdjust="spacing" textLength="189" x="7" y="223.5474">ajouterCours(numeroGroupe)</text><path d="M313,201.9141 L313,241.9141 L578,241.9141 L578,211.9141 L568,201.9141 L313,201.9141 " fill="#FBFB77" style="stroke:#A80036;stroke-width:1.0;"/><path d="M568,201.9141 L568,211.9141 L578,211.9141 L568,201.9141 " fill="#FBFB77" style="stroke:#A80036;stroke-width:1.0;"/><text fill="#000000" font-family="Verdana" font-size="13" lengthAdjust="spacing" textLength="105" x="319" y="218.981">Selon Contôleur,</text><text fill="#000000" font-family="Verdana" font-size="13" lengthAdjust="spacing" textLength="244" x="319" y="234.1138">reçoit la deuxième opération système</text><polygon fill="#A80036" points="860.5,264.3125,870.5,268.3125,860.5,272.3125" style="stroke:#A80036;stroke-width:1.0;"/><line style="stroke:#A80036;stroke-width:1.0;" x1="308" x2="866.5" y1="268.3125" y2="268.3125"/><text fill="#000000" font-family="Verdana" font-size="13" lengthAdjust="spacing" textLength="76" x="315" y="263.2466">c = create()</text><rect fill="#FEFECE" height="30.2969" style="stroke:#A80036;stroke-width:1.5;" width="120" x="872.5" y="259.2305"/><text fill="#000000" font-family="Verdana" font-size="14" lengthAdjust="spacing" textLength="106" x="879.5" y="279.2256">c:GroupeCours</text><path d="M136,252.1797 L136,307.1797 L303,307.1797 L303,262.1797 L293,252.1797 L136,252.1797 " fill="#FBFB77" style="stroke:#A80036;stroke-width:1.0;"/><path d="M293,252.1797 L293,262.1797 L303,262.1797 L293,252.1797 " fill="#FBFB77" style="stroke:#A80036;stroke-width:1.0;"/><text fill="#000000" font-family="Verdana" font-size="13" lengthAdjust="spacing" textLength="94" x="142" y="269.2466">selon Créateur</text><text fill="#000000" font-family="Verdana" font-size="13" lengthAdjust="spacing" textLength="146" x="142" y="284.3794">(EnseignantControlleur</text><text fill="#000000" font-family="Verdana" font-size="13" lengthAdjust="spacing" textLength="128" x="142" y="299.5122">utilise groupeCours)</text><polygon fill="#A80036" points="724,329.7109,734,333.7109,724,337.7109" style="stroke:#A80036;stroke-width:1.0;"/><line style="stroke:#A80036;stroke-width:1.0;" x1="308" x2="730" y1="333.7109" y2="333.7109"/><text fill="#000000" font-family="Verdana" font-size="13" lengthAdjust="spacing" textLength="214" x="315" y="328.645">ajouterCours(tokenEnseignant, c)</text><polygon fill="#A80036" points="296,376.9766,306,380.9766,296,384.9766" style="stroke:#A80036;stroke-width:1.0;"/><line style="stroke:#A80036;stroke-width:1.0;" x1="0" x2="302" y1="380.9766" y2="380.9766"/><text fill="#000000" font-family="Verdana" font-size="13" lengthAdjust="spacing" textLength="261" x="7" y="375.9106">information = recupererCoursSga(token)</text><path d="M313,346.7109 L313,401.7109 L613,401.7109 L613,356.7109 L603,346.7109 L313,346.7109 " fill="#FBFB77" style="stroke:#A80036;stroke-width:1.0;"/><path d="M603,346.7109 L603,356.7109 L613,356.7109 L603,346.7109 " fill="#FBFB77" style="stroke:#A80036;stroke-width:1.0;"/><text fill="#000000" font-family="Verdana" font-size="13" lengthAdjust="spacing" textLength="254" x="319" y="363.7778">EnseignantControlleur est l'objet racine.</text><text fill="#000000" font-family="Verdana" font-size="13" lengthAdjust="spacing" textLength="203" x="319" y="378.9106">Contrôleur ne s'applique pas ici,</text><text fill="#000000" font-family="Verdana" font-size="13" lengthAdjust="spacing" textLength="279" x="319" y="394.0435">car il ne s'agit pas d'une opération système</text><polygon fill="#A80036" points="724,424.2422,734,428.2422,724,432.2422" style="stroke:#A80036;stroke-width:1.0;"/><line style="stroke:#A80036;stroke-width:1.0;" x1="308" x2="730" y1="428.2422" y2="428.2422"/><text fill="#000000" font-family="Verdana" font-size="13" lengthAdjust="spacing" textLength="232" x="315" y="423.1763">information = recupereCours(token)</text><!--MD5=[6d6c3faa2ae50fddb6f2d3ef324c7ecc]
@startuml
skinparam style strictuml
skinparam defaultfontname Verdana
title RDCU. pour créer un nouveau Cours
participant ":EnseignantControlleur" as sga
participant "<<Actor>> : Sgb" as sgb
participant "OperationCours : OperationCours" as map
participant "c:GroupeCours" as cours

->sga : cours = recupererCoursSgb(token)
note left : Selon Contôleur,\nreçoit la première opération système
sga->sgb: cours = recupererCours(token)
note left : Selon expert, l'information Sgb est l'expert,\ncar il contient toutes les informations\nutiles pour les cours
-> sga : ajouterCours(numeroGroupe)
 note left : Selon Contôleur,\nreçoit la deuxième opération système
  create cours
  sga->cours : c = create()
  note left : selon Créateur\n(EnseignantControlleur\nutilise groupeCours)
  sga->map : ajouterCours(tokenEnseignant, c)
  -> sga : information = recupererCoursSga(token)
  note left : EnseignantControlleur est l'objet racine.\nContrôleur ne s'applique pas ici,\ncar il ne s'agit pas d'une opération système
  sga -> map : information = recupereCours(token)
@enduml

PlantUML version 1.2021.9beta2(Unknown compile time)
(GPL source distribution)
Java Runtime: Java(TM) SE Runtime Environment
JVM: Java HotSpot(TM) 64-Bit Server VM
Default Encoding: UTF-8
Language: en
Country: US
--></g></svg>