<?xml version="1.0" encoding="UTF-8" standalone="no"?><svg xmlns="http://www.w3.org/2000/svg" xmlns:xlink="http://www.w3.org/1999/xlink" contentScriptType="application/ecmascript" contentStyleType="text/css" height="415px" preserveAspectRatio="none" style="width:555px;height:415px;background:#FFFFFF;" version="1.1" viewBox="0 0 555 415" width="555px" zoomAndPan="magnify"><defs><filter height="300%" id="f13wecjdqct7wy" width="300%" x="-1" y="-1"><feGaussianBlur result="blurOut" stdDeviation="2.0"/><feColorMatrix in="blurOut" result="blurOut2" type="matrix" values="0 0 0 0 0 0 0 0 0 0 0 0 0 0 0 0 0 0 .4 0"/><feOffset dx="4.0" dy="4.0" in="blurOut2" result="blurOut3"/><feBlend in="SourceGraphic" in2="blurOut3" mode="normal"/></filter></defs><g><text fill="#000000" font-family="sans-serif" font-size="18" lengthAdjust="spacing" textLength="195" x="178.25" y="28.708">DSS ajouter question</text><rect fill="#FFFFFF" filter="url(#f13wecjdqct7wy)" height="105.6641" style="stroke:#000000;stroke-width:2.0;" width="531.5" x="10" y="256.7813"/><line style="stroke:#A80036;stroke-width:1.0;stroke-dasharray:5.0,5.0;" x1="65" x2="65" y1="123.25" y2="408.5781"/><line style="stroke:#A80036;stroke-width:1.0;stroke-dasharray:5.0,5.0;" x1="488.5" x2="488.5" y1="123.25" y2="408.5781"/><text fill="#000000" font-family="sans-serif" font-size="14" lengthAdjust="spacing" textLength="85" x="20" y="119.9482">:Enseignant</text><ellipse cx="65.5" cy="49.9531" fill="#FEFECE" filter="url(#f13wecjdqct7wy)" rx="8" ry="8" style="stroke:#A80036;stroke-width:2.0;"/><path d="M65.5,57.9531 L65.5,84.9531 M52.5,65.9531 L78.5,65.9531 M65.5,84.9531 L52.5,99.9531 M65.5,84.9531 L78.5,99.9531 " fill="none" filter="url(#f13wecjdqct7wy)" style="stroke:#A80036;stroke-width:2.0;"/><rect fill="#FEFECE" filter="url(#f13wecjdqct7wy)" height="30.2969" style="stroke:#A80036;stroke-width:1.5;" width="82" x="445.5" y="87.9531"/><text fill="#000000" font-family="sans-serif" font-size="14" lengthAdjust="spacing" textLength="68" x="452.5" y="107.9482">:Systeme</text><polygon fill="#A80036" points="476.5,150.3828,486.5,154.3828,476.5,158.3828,480.5,154.3828" style="stroke:#A80036;stroke-width:1.0;"/><line style="stroke:#A80036;stroke-width:1.0;" x1="65.5" x2="482.5" y1="154.3828" y2="154.3828"/><text fill="#000000" font-family="sans-serif" font-size="13" lengthAdjust="spacing" textLength="250" x="72.5" y="149.3169">recupererTousCoursSga(token : String)</text><polygon fill="#A80036" points="76.5,179.5156,66.5,183.5156,76.5,187.5156,72.5,183.5156" style="stroke:#A80036;stroke-width:1.0;"/><line style="stroke:#A80036;stroke-width:1.0;stroke-dasharray:2.0,2.0;" x1="70.5" x2="487.5" y1="183.5156" y2="183.5156"/><text fill="#000000" font-family="sans-serif" font-size="13" lengthAdjust="spacing" textLength="186" x="82.5" y="178.4497">liste de cours de l'enseignant</text><polygon fill="#A80036" points="476.5,208.6484,486.5,212.6484,476.5,216.6484,480.5,212.6484" style="stroke:#A80036;stroke-width:1.0;"/><line style="stroke:#A80036;stroke-width:1.0;" x1="65.5" x2="482.5" y1="212.6484" y2="212.6484"/><text fill="#000000" font-family="sans-serif" font-size="13" lengthAdjust="spacing" textLength="399" x="72.5" y="207.5825">recupererUnCoursSgaQuestion(token : String, idCours : String)</text><polygon fill="#A80036" points="76.5,237.7813,66.5,241.7813,76.5,245.7813,72.5,241.7813" style="stroke:#A80036;stroke-width:1.0;"/><line style="stroke:#A80036;stroke-width:1.0;stroke-dasharray:2.0,2.0;" x1="70.5" x2="487.5" y1="241.7813" y2="241.7813"/><text fill="#000000" font-family="sans-serif" font-size="13" lengthAdjust="spacing" textLength="188" x="82.5" y="236.7153">questions associées au cours</text><path d="M10,256.7813 L88,256.7813 L88,263.7813 L78,273.7813 L10,273.7813 L10,256.7813 " fill="#EEEEEE" style="stroke:#000000;stroke-width:1.0;"/><rect fill="none" height="105.6641" style="stroke:#000000;stroke-width:2.0;" width="531.5" x="10" y="256.7813"/><text fill="#000000" font-family="sans-serif" font-size="13" font-weight="bold" lengthAdjust="spacing" textLength="33" x="25" y="269.8481">loop</text><text fill="#000000" font-family="sans-serif" font-size="11" font-weight="bold" lengthAdjust="spacing" textLength="136" x="103" y="268.9917">[!terminerQuestion]</text><polygon fill="#A80036" points="476.5,321.3125,486.5,325.3125,476.5,329.3125,480.5,325.3125" style="stroke:#A80036;stroke-width:1.0;"/><line style="stroke:#A80036;stroke-width:1.0;" x1="65.5" x2="482.5" y1="325.3125" y2="325.3125"/><text fill="#000000" font-family="sans-serif" font-size="13" lengthAdjust="spacing" textLength="276" x="72.5" y="289.981">ajouterQuestion(tags : String, nom : String,</text><text fill="#000000" font-family="sans-serif" font-size="13" lengthAdjust="spacing" textLength="269" x="72.5" y="305.1138">texteQuestion : String, reponse : boolean,</text><text fill="#000000" font-family="sans-serif" font-size="13" lengthAdjust="spacing" textLength="393" x="72.5" y="320.2466">texteBonneReponse : String, texteMauvaiseReponse : String)</text><polygon fill="#A80036" points="76.5,350.4453,66.5,354.4453,76.5,358.4453,72.5,354.4453" style="stroke:#A80036;stroke-width:1.0;"/><line style="stroke:#A80036;stroke-width:1.0;stroke-dasharray:2.0,2.0;" x1="70.5" x2="487.5" y1="354.4453" y2="354.4453"/><text fill="#000000" font-family="sans-serif" font-size="13" lengthAdjust="spacing" textLength="187" x="82.5" y="349.3794">liste de questions mise à jour</text><polygon fill="#A80036" points="476.5,386.5781,486.5,390.5781,476.5,394.5781,480.5,390.5781" style="stroke:#A80036;stroke-width:1.0;"/><line style="stroke:#A80036;stroke-width:1.0;" x1="65.5" x2="482.5" y1="390.5781" y2="390.5781"/><text fill="#000000" font-family="sans-serif" font-size="13" lengthAdjust="spacing" textLength="168" x="72.5" y="385.5122">terminerAjouterQuestion()</text><!--MD5=[cc843710ec7501f22b0b50c45ba0552f]
@startuml
title DSS ajouter question
hide footbox
actor ":Enseignant" as professeur
participant ":Systeme" as systeme

professeur ->  systeme : recupererTousCoursSga(token : String)
professeur <- - systeme : liste de cours de l'enseignant
professeur -> systeme : recupererUnCoursSgaQuestion(token : String, idCours : String)
professeur <- - systeme : questions associées au cours

loop !terminerQuestion
professeur -> systeme : ajouterQuestion(tags : String, nom : String, \ntexteQuestion : String, reponse : boolean,\ntexteBonneReponse : String, texteMauvaiseReponse : String)
systeme - -> professeur : liste de questions mise à jour
end
professeur -> systeme : terminerAjouterQuestion()
@enduml

PlantUML version 1.2021.7(Sun May 23 12:40:07 UTC 2021)
(GPL source distribution)
Java Runtime: Java(TM) SE Runtime Environment
JVM: Java HotSpot(TM) 64-Bit Server VM
Default Encoding: UTF-8
Language: en
Country: US
--></g></svg>