<?xml version="1.0" encoding="UTF-8" standalone="no"?><svg xmlns="http://www.w3.org/2000/svg" xmlns:xlink="http://www.w3.org/1999/xlink" contentScriptType="application/ecmascript" contentStyleType="text/css" height="556px" preserveAspectRatio="none" style="width:1454px;height:556px;background:#FFFFFF;" version="1.1" viewBox="0 0 1454 556" width="1454px" zoomAndPan="magnify"><defs/><g><text fill="#000000" font-family="Verdana" font-size="18" lengthAdjust="spacing" textLength="252" x="600.75" y="28.708">RDCU. ajouterEspaceCours</text><line style="stroke:#A80036;stroke-width:1.0;stroke-dasharray:5.0,5.0;" x1="391.5" x2="391.5" y1="71.25" y2="549.0391"/><line style="stroke:#A80036;stroke-width:1.0;stroke-dasharray:5.0,5.0;" x1="769.5" x2="769.5" y1="71.25" y2="549.0391"/><line style="stroke:#A80036;stroke-width:1.0;stroke-dasharray:5.0,5.0;" x1="969" x2="969" y1="393.1094" y2="549.0391"/><line style="stroke:#A80036;stroke-width:1.0;stroke-dasharray:5.0,5.0;" x1="1142" x2="1142" y1="71.25" y2="549.0391"/><line style="stroke:#A80036;stroke-width:1.0;stroke-dasharray:5.0,5.0;" x1="1424.5" x2="1424.5" y1="71.25" y2="549.0391"/><rect fill="#FEFECE" height="30.2969" style="stroke:#A80036;stroke-width:1.5;" width="151" x="316.5" y="39.9531"/><text fill="#000000" font-family="Verdana" font-size="14" lengthAdjust="spacing" textLength="137" x="323.5" y="59.9482">:GestionnaireCours</text><rect fill="#FEFECE" height="30.2969" style="stroke:#A80036;stroke-width:1.5;" width="91" x="724.5" y="39.9531"/><text fill="#000000" font-family="Verdana" font-size="14" lengthAdjust="spacing" textLength="77" x="731.5" y="59.9482">:Université</text><rect fill="#FEFECE" height="30.2969" style="stroke:#A80036;stroke-width:1.5;" width="102" x="1091" y="39.9531"/><text fill="#000000" font-family="Verdana" font-size="14" lengthAdjust="spacing" textLength="88" x="1098" y="59.9482">:SGBService</text><rect fill="#FEFECE" height="30.2969" style="stroke:#A80036;stroke-width:1.5;" width="47" x="1401.5" y="39.9531"/><text fill="#000000" font-family="Verdana" font-size="14" lengthAdjust="spacing" textLength="33" x="1408.5" y="59.9482">:Sgb</text><polygon fill="#A80036" points="380,116.5156,390,120.5156,380,124.5156" style="stroke:#A80036;stroke-width:1.0;"/><line style="stroke:#A80036;stroke-width:1.0;" x1="0" x2="386" y1="120.5156" y2="120.5156"/><text fill="#000000" font-family="Verdana" font-size="13" lengthAdjust="spacing" textLength="368" x="7" y="115.4497">information = ajouterEspaceCours(token, idEspaceCours)</text><path d="M397,86.25 L397,141.25 L598,141.25 L598,96.25 L588,86.25 L397,86.25 " fill="#FBFB77" style="stroke:#A80036;stroke-width:1.0;"/><path d="M588,86.25 L588,96.25 L598,96.25 L588,86.25 " fill="#FBFB77" style="stroke:#A80036;stroke-width:1.0;"/><text fill="#000000" font-family="Verdana" font-size="13" lengthAdjust="spacing" textLength="105" x="403" y="103.3169">Selon Contôleur,</text><text fill="#000000" font-family="Verdana" font-size="13" lengthAdjust="spacing" textLength="116" x="403" y="118.4497">garde même pour</text><text fill="#000000" font-family="Verdana" font-size="13" lengthAdjust="spacing" textLength="180" x="403" y="133.5825">toutes opérations systèmes</text><polygon fill="#A80036" points="758,181.9141,768,185.9141,758,189.9141" style="stroke:#A80036;stroke-width:1.0;"/><line style="stroke:#A80036;stroke-width:1.0;" x1="392" x2="764" y1="185.9141" y2="185.9141"/><text fill="#000000" font-family="Verdana" font-size="13" lengthAdjust="spacing" textLength="276" x="399" y="180.8481">ajouterEspaceCours(token, idEspaceCours)</text><path d="M93,151.6484 L93,206.6484 L387,206.6484 L387,161.6484 L377,151.6484 L93,151.6484 " fill="#FBFB77" style="stroke:#A80036;stroke-width:1.0;"/><path d="M377,151.6484 L377,161.6484 L387,161.6484 L377,151.6484 " fill="#FBFB77" style="stroke:#A80036;stroke-width:1.0;"/><text fill="#000000" font-family="Verdana" font-size="13" lengthAdjust="spacing" textLength="231" x="99" y="168.7153">Selon expert, universite doit stocker</text><text fill="#000000" font-family="Verdana" font-size="13" lengthAdjust="spacing" textLength="273" x="99" y="183.8481">toutes les EspaceCours pour qu'elle puisse</text><text fill="#000000" font-family="Verdana" font-size="13" lengthAdjust="spacing" textLength="261" x="99" y="198.981">devenir expert pour les prochains appels</text><polygon fill="#A80036" points="1130,254.8789,1140,258.8789,1130,262.8789" style="stroke:#A80036;stroke-width:1.0;"/><line style="stroke:#A80036;stroke-width:1.0;" x1="770" x2="1136" y1="258.8789" y2="258.8789"/><text fill="#000000" font-family="Verdana" font-size="13" lengthAdjust="spacing" textLength="348" x="777" y="253.813">etudiants = recupererEtudiants(token, idEspaceCours)</text><path d="M522,217.0469 L522,287.0469 L765,287.0469 L765,227.0469 L755,217.0469 L522,217.0469 " fill="#FBFB77" style="stroke:#A80036;stroke-width:1.0;"/><path d="M755,217.0469 L755,227.0469 L765,227.0469 L755,217.0469 " fill="#FBFB77" style="stroke:#A80036;stroke-width:1.0;"/><text fill="#000000" font-family="Verdana" font-size="13" lengthAdjust="spacing" textLength="222" x="528" y="234.1138">Selon indirection, évite le couplage</text><text fill="#000000" font-family="Verdana" font-size="13" lengthAdjust="spacing" textLength="202" x="528" y="249.2466">entre universite et le SGB. Tous</text><text fill="#000000" font-family="Verdana" font-size="13" lengthAdjust="spacing" textLength="183" x="528" y="264.3794">les appels vers SGB sont fait</text><text fill="#000000" font-family="Verdana" font-size="13" lengthAdjust="spacing" textLength="98" x="528" y="279.5122">par SGBService</text><polygon fill="#A80036" points="1413,327.8438,1423,331.8438,1413,335.8438" style="stroke:#A80036;stroke-width:1.0;"/><line style="stroke:#A80036;stroke-width:1.0;" x1="1142" x2="1419" y1="331.8438" y2="331.8438"/><text fill="#000000" font-family="Verdana" font-size="13" lengthAdjust="spacing" textLength="259" x="1149" y="326.7778">etudiants = fetch(token, idEspaceCours)</text><path d="M839,297.5781 L839,352.5781 L1137,352.5781 L1137,307.5781 L1127,297.5781 L839,297.5781 " fill="#FBFB77" style="stroke:#A80036;stroke-width:1.0;"/><path d="M1127,297.5781 L1127,307.5781 L1137,307.5781 L1127,297.5781 " fill="#FBFB77" style="stroke:#A80036;stroke-width:1.0;"/><text fill="#000000" font-family="Verdana" font-size="13" lengthAdjust="spacing" textLength="277" x="845" y="314.645">Selon expert, l'information Sgb est l'expert,</text><text fill="#000000" font-family="Verdana" font-size="13" lengthAdjust="spacing" textLength="238" x="845" y="329.7778">car il contient toutes les informations</text><text fill="#000000" font-family="Verdana" font-size="13" lengthAdjust="spacing" textLength="185" x="845" y="344.9106">utiles pour les espaces cours</text><polygon fill="#A80036" points="898,375.1094,908,379.1094,898,383.1094" style="stroke:#A80036;stroke-width:1.0;"/><line style="stroke:#A80036;stroke-width:1.0;stroke-dasharray:2.0,2.0;" x1="770" x2="904" y1="379.1094" y2="379.1094"/><text fill="#000000" font-family="Verdana" font-size="13" lengthAdjust="spacing" textLength="51" x="777" y="374.0435">create()</text><rect fill="#FEFECE" height="30.2969" style="stroke:#A80036;stroke-width:1.5;" width="118" x="910" y="362.4609"/><text fill="#000000" font-family="Verdana" font-size="14" lengthAdjust="spacing" textLength="104" x="917" y="382.4561">c:EspaceCours</text><path d="M551,362.9766 L551,402.9766 L765,402.9766 L765,372.9766 L755,362.9766 L551,362.9766 " fill="#FBFB77" style="stroke:#A80036;stroke-width:1.0;"/><path d="M755,362.9766 L755,372.9766 L765,372.9766 L755,362.9766 " fill="#FBFB77" style="stroke:#A80036;stroke-width:1.0;"/><text fill="#000000" font-family="Verdana" font-size="13" lengthAdjust="spacing" textLength="165" x="557" y="380.0435">Selon créateur, Université</text><text fill="#000000" font-family="Verdana" font-size="13" lengthAdjust="spacing" textLength="193" x="557" y="395.1763">agrège plusieurs EspaceCours</text><polygon fill="#A80036" points="957,443.5078,967,447.5078,957,451.5078" style="stroke:#A80036;stroke-width:1.0;"/><line style="stroke:#A80036;stroke-width:1.0;" x1="770" x2="963" y1="447.5078" y2="447.5078"/><text fill="#000000" font-family="Verdana" font-size="13" lengthAdjust="spacing" textLength="175" x="777" y="442.4419">ajouterEtudiants(etudiants)</text><path d="M974,413.2422 L974,468.2422 L1256,468.2422 L1256,423.2422 L1246,413.2422 L974,413.2422 " fill="#FBFB77" style="stroke:#A80036;stroke-width:1.0;"/><path d="M1246,413.2422 L1246,423.2422 L1256,423.2422 L1246,413.2422 " fill="#FBFB77" style="stroke:#A80036;stroke-width:1.0;"/><text fill="#000000" font-family="Verdana" font-size="13" lengthAdjust="spacing" textLength="251" x="980" y="430.3091">Selon expert, EspaceCours doit stocker</text><text fill="#000000" font-family="Verdana" font-size="13" lengthAdjust="spacing" textLength="221" x="980" y="445.4419">tous les étudiants pour qu'il puisse</text><text fill="#000000" font-family="Verdana" font-size="13" lengthAdjust="spacing" textLength="261" x="980" y="460.5747">devenir expert pour les prochains appels</text><polygon fill="#A80036" points="758,508.9063,768,512.9063,758,516.9063" style="stroke:#A80036;stroke-width:1.0;"/><line style="stroke:#A80036;stroke-width:1.0;" x1="392" x2="764" y1="512.9063" y2="512.9063"/><text fill="#000000" font-family="Verdana" font-size="13" lengthAdjust="spacing" textLength="354" x="399" y="507.8403">information = recupererEspaceCours(tokenEnseignant)</text><path d="M163,478.6406 L163,533.6406 L387,533.6406 L387,488.6406 L377,478.6406 L163,478.6406 " fill="#FBFB77" style="stroke:#A80036;stroke-width:1.0;"/><path d="M377,478.6406 L377,488.6406 L387,488.6406 L377,478.6406 " fill="#FBFB77" style="stroke:#A80036;stroke-width:1.0;"/><text fill="#000000" font-family="Verdana" font-size="13" lengthAdjust="spacing" textLength="203" x="169" y="495.7075">Selon expert, Université a toute</text><text fill="#000000" font-family="Verdana" font-size="13" lengthAdjust="spacing" textLength="161" x="169" y="510.8403">les informations requises</text><text fill="#000000" font-family="Verdana" font-size="13" lengthAdjust="spacing" textLength="154" x="169" y="525.9731">pour récupérer un cours</text><!--MD5=[e3d39adeeaa45ef8c0c9b8210738b422]
@startuml
skinparam style strictuml
skinparam defaultfontname Verdana
title RDCU. ajouterEspaceCours
participant ":GestionnaireCours" as controlleur
participant ":Université" as sga
participant "c:EspaceCours" as cours
participant ":SGBService" as service
participant ":Sgb" as sgb

-> controlleur : information = ajouterEspaceCours(token, idEspaceCours)
note right : Selon Contôleur,\ngarde même pour\ntoutes opérations systèmes
  controlleur->sga : ajouterEspaceCours(token, idEspaceCours)
  note left : Selon expert, universite doit stocker\ntoutes les EspaceCours pour qu'elle puisse\ndevenir expert pour les prochains appels
  sga ->  service : etudiants = recupererEtudiants(token, idEspaceCours)
  note left : Selon indirection, évite le couplage\nentre universite et le SGB. Tous\nles appels vers SGB sont fait\npar SGBService
  service -> sgb : etudiants = fetch(token, idEspaceCours)
  note left : Selon expert, l'information Sgb est l'expert,\ncar il contient toutes les informations\nutiles pour les espaces cours
  sga- ->cours** : create()
  note left : Selon créateur, Université\nagrège plusieurs EspaceCours
  sga -> cours : ajouterEtudiants(etudiants)
  note right : Selon expert, EspaceCours doit stocker\ntous les étudiants pour qu'il puisse\ndevenir expert pour les prochains appels
  controlleur -> sga : information = recupererEspaceCours(tokenEnseignant)
  note left : Selon expert, Université a toute\nles informations requises\npour récupérer un cours
@enduml

PlantUML version 1.2021.8beta3(Unknown compile time)
(GPL source distribution)
Java Runtime: Java(TM) SE Runtime Environment
JVM: Java HotSpot(TM) 64-Bit Server VM
Default Encoding: UTF-8
Language: en
Country: US
--></g></svg>