<?xml version="1.0" encoding="UTF-8" standalone="no"?><svg xmlns="http://www.w3.org/2000/svg" xmlns:xlink="http://www.w3.org/1999/xlink" contentScriptType="application/ecmascript" contentStyleType="text/css" height="591px" preserveAspectRatio="none" style="width:1343px;height:591px;background:#FFFFFF;" version="1.1" viewBox="0 0 1343 591" width="1343px" zoomAndPan="magnify"><defs/><g><text fill="#000000" font-family="Verdana" font-size="18" lengthAdjust="spacing" textLength="252" x="545.25" y="28.708">RDCU. ajouterEspaceCours</text><line style="stroke:#A80036;stroke-width:1.0;stroke-dasharray:5.0,5.0;" x1="331.5" x2="331.5" y1="71.25" y2="584.1719"/><line style="stroke:#A80036;stroke-width:1.0;stroke-dasharray:5.0,5.0;" x1="658.5" x2="658.5" y1="71.25" y2="584.1719"/><line style="stroke:#A80036;stroke-width:1.0;stroke-dasharray:5.0,5.0;" x1="858" x2="858" y1="377.9766" y2="584.1719"/><line style="stroke:#A80036;stroke-width:1.0;stroke-dasharray:5.0,5.0;" x1="1031" x2="1031" y1="71.25" y2="584.1719"/><line style="stroke:#A80036;stroke-width:1.0;stroke-dasharray:5.0,5.0;" x1="1313.5" x2="1313.5" y1="71.25" y2="584.1719"/><rect fill="#FEFECE" height="30.2969" style="stroke:#A80036;stroke-width:1.5;" width="151" x="256.5" y="39.9531"/><text fill="#000000" font-family="Verdana" font-size="14" lengthAdjust="spacing" textLength="137" x="263.5" y="59.9482">:GestionnaireCours</text><rect fill="#FEFECE" height="30.2969" style="stroke:#A80036;stroke-width:1.5;" width="91" x="613.5" y="39.9531"/><text fill="#000000" font-family="Verdana" font-size="14" lengthAdjust="spacing" textLength="77" x="620.5" y="59.9482">:Université</text><rect fill="#FEFECE" height="30.2969" style="stroke:#A80036;stroke-width:1.5;" width="102" x="980" y="39.9531"/><text fill="#000000" font-family="Verdana" font-size="14" lengthAdjust="spacing" textLength="88" x="987" y="59.9482">:SGBService</text><rect fill="#FEFECE" height="30.2969" style="stroke:#A80036;stroke-width:1.5;" width="47" x="1290.5" y="39.9531"/><text fill="#000000" font-family="Verdana" font-size="14" lengthAdjust="spacing" textLength="33" x="1297.5" y="59.9482">:Sgb</text><polygon fill="#A80036" points="320,108.9492,330,112.9492,320,116.9492" style="stroke:#A80036;stroke-width:1.0;"/><line style="stroke:#A80036;stroke-width:1.0;" x1="0" x2="326" y1="112.9492" y2="112.9492"/><text fill="#000000" font-family="Verdana" font-size="13" lengthAdjust="spacing" textLength="276" x="7" y="107.8833">ajouterEspaceCours(token, idEspaceCours)</text><path d="M337,86.25 L337,126.25 L525,126.25 L525,96.25 L515,86.25 L337,86.25 " fill="#FBFB77" style="stroke:#A80036;stroke-width:1.0;"/><path d="M515,86.25 L515,96.25 L525,96.25 L515,86.25 " fill="#FBFB77" style="stroke:#A80036;stroke-width:1.0;"/><text fill="#000000" font-family="Verdana" font-size="13" lengthAdjust="spacing" textLength="105" x="343" y="103.3169">Selon Contôleur,</text><text fill="#000000" font-family="Verdana" font-size="13" lengthAdjust="spacing" textLength="167" x="343" y="118.4497">reçoit l'opération système</text><polygon fill="#A80036" points="647,166.7813,657,170.7813,647,174.7813" style="stroke:#A80036;stroke-width:1.0;"/><line style="stroke:#A80036;stroke-width:1.0;" x1="332" x2="653" y1="170.7813" y2="170.7813"/><text fill="#000000" font-family="Verdana" font-size="13" lengthAdjust="spacing" textLength="276" x="339" y="165.7153">ajouterEspaceCours(token, idEspaceCours)</text><path d="M33,136.5156 L33,191.5156 L327,191.5156 L327,146.5156 L317,136.5156 L33,136.5156 " fill="#FBFB77" style="stroke:#A80036;stroke-width:1.0;"/><path d="M317,136.5156 L317,146.5156 L327,146.5156 L317,136.5156 " fill="#FBFB77" style="stroke:#A80036;stroke-width:1.0;"/><text fill="#000000" font-family="Verdana" font-size="13" lengthAdjust="spacing" textLength="231" x="39" y="153.5825">Selon expert, universite doit stocker</text><text fill="#000000" font-family="Verdana" font-size="13" lengthAdjust="spacing" textLength="273" x="39" y="168.7153">toutes les EspaceCours pour qu'elle puisse</text><text fill="#000000" font-family="Verdana" font-size="13" lengthAdjust="spacing" textLength="261" x="39" y="183.8481">devenir expert pour les prochains appels</text><polygon fill="#A80036" points="1019,239.7461,1029,243.7461,1019,247.7461" style="stroke:#A80036;stroke-width:1.0;"/><line style="stroke:#A80036;stroke-width:1.0;" x1="659" x2="1025" y1="243.7461" y2="243.7461"/><text fill="#000000" font-family="Verdana" font-size="13" lengthAdjust="spacing" textLength="348" x="666" y="238.6802">etudiants = recupererEtudiants(token, idEspaceCours)</text><path d="M411,201.9141 L411,271.9141 L654,271.9141 L654,211.9141 L644,201.9141 L411,201.9141 " fill="#FBFB77" style="stroke:#A80036;stroke-width:1.0;"/><path d="M644,201.9141 L644,211.9141 L654,211.9141 L644,201.9141 " fill="#FBFB77" style="stroke:#A80036;stroke-width:1.0;"/><text fill="#000000" font-family="Verdana" font-size="13" lengthAdjust="spacing" textLength="222" x="417" y="218.981">Selon indirection, évite le couplage</text><text fill="#000000" font-family="Verdana" font-size="13" lengthAdjust="spacing" textLength="202" x="417" y="234.1138">entre universite et le SGB. Tous</text><text fill="#000000" font-family="Verdana" font-size="13" lengthAdjust="spacing" textLength="183" x="417" y="249.2466">les appels vers SGB sont fait</text><text fill="#000000" font-family="Verdana" font-size="13" lengthAdjust="spacing" textLength="98" x="417" y="264.3794">par SGBService</text><polygon fill="#A80036" points="1302,312.7109,1312,316.7109,1302,320.7109" style="stroke:#A80036;stroke-width:1.0;"/><line style="stroke:#A80036;stroke-width:1.0;" x1="1031" x2="1308" y1="316.7109" y2="316.7109"/><text fill="#000000" font-family="Verdana" font-size="13" lengthAdjust="spacing" textLength="259" x="1038" y="311.645">etudiants = fetch(token, idEspaceCours)</text><path d="M728,282.4453 L728,337.4453 L1026,337.4453 L1026,292.4453 L1016,282.4453 L728,282.4453 " fill="#FBFB77" style="stroke:#A80036;stroke-width:1.0;"/><path d="M1016,282.4453 L1016,292.4453 L1026,292.4453 L1016,282.4453 " fill="#FBFB77" style="stroke:#A80036;stroke-width:1.0;"/><text fill="#000000" font-family="Verdana" font-size="13" lengthAdjust="spacing" textLength="277" x="734" y="299.5122">Selon expert, l'information Sgb est l'expert,</text><text fill="#000000" font-family="Verdana" font-size="13" lengthAdjust="spacing" textLength="238" x="734" y="314.645">car il contient toutes les informations</text><text fill="#000000" font-family="Verdana" font-size="13" lengthAdjust="spacing" textLength="185" x="734" y="329.7778">utiles pour les espaces cours</text><polygon fill="#A80036" points="787,359.9766,797,363.9766,787,367.9766" style="stroke:#A80036;stroke-width:1.0;"/><line style="stroke:#A80036;stroke-width:1.0;stroke-dasharray:2.0,2.0;" x1="659" x2="793" y1="363.9766" y2="363.9766"/><text fill="#000000" font-family="Verdana" font-size="13" lengthAdjust="spacing" textLength="51" x="666" y="358.9106">create()</text><rect fill="#FEFECE" height="30.2969" style="stroke:#A80036;stroke-width:1.5;" width="118" x="799" y="347.3281"/><text fill="#000000" font-family="Verdana" font-size="14" lengthAdjust="spacing" textLength="104" x="806" y="367.3232">c:EspaceCours</text><path d="M440,347.8438 L440,387.8438 L654,387.8438 L654,357.8438 L644,347.8438 L440,347.8438 " fill="#FBFB77" style="stroke:#A80036;stroke-width:1.0;"/><path d="M644,347.8438 L644,357.8438 L654,357.8438 L644,347.8438 " fill="#FBFB77" style="stroke:#A80036;stroke-width:1.0;"/><text fill="#000000" font-family="Verdana" font-size="13" lengthAdjust="spacing" textLength="165" x="446" y="364.9106">Selon créateur, Université</text><text fill="#000000" font-family="Verdana" font-size="13" lengthAdjust="spacing" textLength="193" x="446" y="380.0435">agrège plusieurs EspaceCours</text><polygon fill="#A80036" points="846,428.375,856,432.375,846,436.375" style="stroke:#A80036;stroke-width:1.0;"/><line style="stroke:#A80036;stroke-width:1.0;" x1="659" x2="852" y1="432.375" y2="432.375"/><text fill="#000000" font-family="Verdana" font-size="13" lengthAdjust="spacing" textLength="175" x="666" y="427.3091">ajouterEtudiants(etudiants)</text><path d="M863,398.1094 L863,453.1094 L1145,453.1094 L1145,408.1094 L1135,398.1094 L863,398.1094 " fill="#FBFB77" style="stroke:#A80036;stroke-width:1.0;"/><path d="M1135,398.1094 L1135,408.1094 L1145,408.1094 L1135,398.1094 " fill="#FBFB77" style="stroke:#A80036;stroke-width:1.0;"/><text fill="#000000" font-family="Verdana" font-size="13" lengthAdjust="spacing" textLength="251" x="869" y="415.1763">Selon expert, EspaceCours doit stocker</text><text fill="#000000" font-family="Verdana" font-size="13" lengthAdjust="spacing" textLength="221" x="869" y="430.3091">tous les étudiants pour qu'il puisse</text><text fill="#000000" font-family="Verdana" font-size="13" lengthAdjust="spacing" textLength="261" x="869" y="445.4419">devenir expert pour les prochains appels</text><polygon fill="#A80036" points="320,486.207,330,490.207,320,494.207" style="stroke:#A80036;stroke-width:1.0;"/><line style="stroke:#A80036;stroke-width:1.0;" x1="0" x2="326" y1="490.207" y2="490.207"/><text fill="#000000" font-family="Verdana" font-size="13" lengthAdjust="spacing" textLength="308" x="7" y="485.1411">information = recupererCours(tokenEnseignant)</text><path d="M337,463.5078 L337,503.5078 L635,503.5078 L635,473.5078 L625,463.5078 L337,463.5078 " fill="#FBFB77" style="stroke:#A80036;stroke-width:1.0;"/><path d="M625,463.5078 L625,473.5078 L635,473.5078 L625,463.5078 " fill="#FBFB77" style="stroke:#A80036;stroke-width:1.0;"/><text fill="#000000" font-family="Verdana" font-size="13" lengthAdjust="spacing" textLength="260" x="343" y="480.5747">Selon indirection, évite le couplage entre</text><text fill="#000000" font-family="Verdana" font-size="13" lengthAdjust="spacing" textLength="277" x="343" y="495.7075">le routeurqui fait l'appel initial et Université.</text><polygon fill="#A80036" points="647,544.0391,657,548.0391,647,552.0391" style="stroke:#A80036;stroke-width:1.0;"/><line style="stroke:#A80036;stroke-width:1.0;" x1="332" x2="653" y1="548.0391" y2="548.0391"/><text fill="#000000" font-family="Verdana" font-size="13" lengthAdjust="spacing" textLength="303" x="339" y="542.9731">information = recupereCours(tokenEnseignant)</text><path d="M103,513.7734 L103,568.7734 L327,568.7734 L327,523.7734 L317,513.7734 L103,513.7734 " fill="#FBFB77" style="stroke:#A80036;stroke-width:1.0;"/><path d="M317,513.7734 L317,523.7734 L327,523.7734 L317,513.7734 " fill="#FBFB77" style="stroke:#A80036;stroke-width:1.0;"/><text fill="#000000" font-family="Verdana" font-size="13" lengthAdjust="spacing" textLength="203" x="109" y="530.8403">Selon expert, Université a toute</text><text fill="#000000" font-family="Verdana" font-size="13" lengthAdjust="spacing" textLength="161" x="109" y="545.9731">les informations requises</text><text fill="#000000" font-family="Verdana" font-size="13" lengthAdjust="spacing" textLength="154" x="109" y="561.106">pour récupérer un cours</text><!--MD5=[01d89d7d79cc9bdee7c127d35de0a832]
@startuml
skinparam style strictuml
skinparam defaultfontname Verdana
title RDCU. ajouterEspaceCours
participant ":GestionnaireCours" as controlleur
participant ":Université" as sga
participant "c:EspaceCours" as cours
participant ":SGBService" as service
participant ":Sgb" as sgb

-> controlleur : ajouterEspaceCours(token, idEspaceCours)
note right : Selon Contôleur,\nreçoit l'opération système
  controlleur->sga : ajouterEspaceCours(token, idEspaceCours)
  note left : Selon expert, universite doit stocker\ntoutes les EspaceCours pour qu'elle puisse\ndevenir expert pour les prochains appels
  sga ->  service : etudiants = recupererEtudiants(token, idEspaceCours)
  note left : Selon indirection, évite le couplage\nentre universite et le SGB. Tous\nles appels vers SGB sont fait\npar SGBService
  service -> sgb : etudiants = fetch(token, idEspaceCours)
  note left : Selon expert, l'information Sgb est l'expert,\ncar il contient toutes les informations\nutiles pour les espaces cours
  sga- ->cours** : create()
  note left : Selon créateur, Université\nagrège plusieurs EspaceCours
  sga -> cours : ajouterEtudiants(etudiants)
  note right : Selon expert, EspaceCours doit stocker\ntous les étudiants pour qu'il puisse\ndevenir expert pour les prochains appels
  -> controlleur : information = recupererCours(tokenEnseignant)
  note right : Selon indirection, évite le couplage entre\nle routeurqui fait l'appel initial et Université.
  controlleur -> sga : information = recupereCours(tokenEnseignant)
  note left : Selon expert, Université a toute\nles informations requises\npour récupérer un cours
@enduml

PlantUML version 1.2021.7(Sun May 23 12:40:07 UTC 2021)
(GPL source distribution)
Java Runtime: Java(TM) SE Runtime Environment
JVM: Java HotSpot(TM) 64-Bit Server VM
Default Encoding: UTF-8
Language: en
Country: US
--></g></svg>