<?xml version="1.0" encoding="UTF-8" standalone="no"?><svg xmlns="http://www.w3.org/2000/svg" xmlns:xlink="http://www.w3.org/1999/xlink" contentScriptType="application/ecmascript" contentStyleType="text/css" height="334px" preserveAspectRatio="none" style="width:1504px;height:334px;background:#FFFFFF;" version="1.1" viewBox="0 0 1504 334" width="1504px" zoomAndPan="magnify"><defs/><g><text fill="#000000" font-family="Verdana" font-size="18" lengthAdjust="spacing" textLength="288" x="607.75" y="28.708">RDCU supprimerQuestionnaire</text><line style="stroke:#A80036;stroke-width:1.0;stroke-dasharray:5.0,5.0;" x1="389.5" x2="389.5" y1="71.25" y2="327.4453"/><line style="stroke:#A80036;stroke-width:1.0;stroke-dasharray:5.0,5.0;" x1="781" x2="781" y1="71.25" y2="327.4453"/><line style="stroke:#A80036;stroke-width:1.0;stroke-dasharray:5.0,5.0;" x1="980" x2="980" y1="71.25" y2="327.4453"/><line style="stroke:#A80036;stroke-width:1.0;stroke-dasharray:5.0,5.0;" x1="1377.5" x2="1377.5" y1="71.25" y2="327.4453"/><rect fill="#FEFECE" height="30.2969" style="stroke:#A80036;stroke-width:1.5;" width="215" x="282.5" y="39.9531"/><text fill="#000000" font-family="Verdana" font-size="14" lengthAdjust="spacing" textLength="201" x="289.5" y="59.9482">: GestionnaireQuestionnaire</text><rect fill="#FEFECE" height="30.2969" style="stroke:#A80036;stroke-width:1.5;" width="170" x="696" y="39.9531"/><text fill="#000000" font-family="Verdana" font-size="14" lengthAdjust="spacing" textLength="156" x="703" y="59.9482">universite : Universite</text><rect fill="#FEFECE" height="30.2969" style="stroke:#A80036;stroke-width:1.5;" width="209" x="876" y="39.9531"/><text fill="#000000" font-family="Verdana" font-size="14" lengthAdjust="spacing" textLength="195" x="883" y="59.9482">espaceCours : EspaceCours</text><rect fill="#FEFECE" height="30.2969" style="stroke:#A80036;stroke-width:1.5;" width="242" x="1256.5" y="39.9531"/><text fill="#000000" font-family="Verdana" font-size="14" lengthAdjust="spacing" textLength="228" x="1263.5" y="59.9482">questionnaires : Questionnaire[]</text><polygon fill="#A80036" points="378,108.9492,388,112.9492,378,116.9492" style="stroke:#A80036;stroke-width:1.0;"/><line style="stroke:#A80036;stroke-width:1.0;" x1="0" x2="384" y1="112.9492" y2="112.9492"/><text fill="#000000" font-family="Verdana" font-size="13" lengthAdjust="spacing" textLength="366" x="7" y="107.8833">supprimerQuestionnaire(idEspaceCours, idQuestionnaire)</text><path d="M395,86.25 L395,126.25 L553,126.25 L553,96.25 L543,86.25 L395,86.25 " fill="#FBFB77" style="stroke:#A80036;stroke-width:1.0;"/><path d="M543,86.25 L543,96.25 L553,96.25 L543,86.25 " fill="#FBFB77" style="stroke:#A80036;stroke-width:1.0;"/><text fill="#000000" font-family="Verdana" font-size="13" lengthAdjust="spacing" textLength="108" x="401" y="103.3169">Selon contr么leur,</text><text fill="#000000" font-family="Verdana" font-size="13" lengthAdjust="spacing" textLength="137" x="401" y="118.4497">contr么leur de session</text><polygon fill="#A80036" points="769,159.2148,779,163.2148,769,167.2148" style="stroke:#A80036;stroke-width:1.0;"/><line style="stroke:#A80036;stroke-width:1.0;" x1="390" x2="775" y1="163.2148" y2="163.2148"/><text fill="#000000" font-family="Verdana" font-size="13" lengthAdjust="spacing" textLength="367" x="397" y="158.1489">espaceCours = recupererUnEspaceCours(idEspaceCours)</text><path d="M84,136.5156 L84,176.5156 L385,176.5156 L385,146.5156 L375,136.5156 L84,136.5156 " fill="#FBFB77" style="stroke:#A80036;stroke-width:1.0;"/><path d="M375,136.5156 L375,146.5156 L385,146.5156 L375,136.5156 " fill="#FBFB77" style="stroke:#A80036;stroke-width:1.0;"/><text fill="#000000" font-family="Verdana" font-size="13" lengthAdjust="spacing" textLength="231" x="90" y="153.5825">Selon expert, universite a toutes les</text><text fill="#000000" font-family="Verdana" font-size="13" lengthAdjust="spacing" textLength="280" x="90" y="168.7153">informations pour recupererUnEspaceCours</text><polygon fill="#A80036" points="968.5,201.9141,978.5,205.9141,968.5,209.9141" style="stroke:#A80036;stroke-width:1.0;"/><line style="stroke:#A80036;stroke-width:1.0;" x1="390" x2="974.5" y1="205.9141" y2="205.9141"/><text fill="#000000" font-family="Verdana" font-size="13" lengthAdjust="spacing" textLength="264" x="397" y="200.8481">supprimerQuestionnaire(IdQuestionnaire)</text><path d="M283,186.7813 L283,211.7813 L385,211.7813 L385,196.7813 L375,186.7813 L283,186.7813 " fill="#FBFB77" style="stroke:#A80036;stroke-width:1.0;"/><path d="M375,186.7813 L375,196.7813 L385,196.7813 L375,186.7813 " fill="#FBFB77" style="stroke:#A80036;stroke-width:1.0;"/><text fill="#000000" font-family="Verdana" font-size="13" lengthAdjust="spacing" textLength="81" x="289" y="203.8481">Selon expert</text><line style="stroke:#A80036;stroke-width:1.0;" x1="980.5" x2="1022.5" y1="242.1133" y2="242.1133"/><line style="stroke:#A80036;stroke-width:1.0;" x1="1022.5" x2="1022.5" y1="242.1133" y2="255.1133"/><line style="stroke:#A80036;stroke-width:1.0;" x1="981.5" x2="1022.5" y1="255.1133" y2="255.1133"/><polygon fill="#A80036" points="991.5,251.1133,981.5,255.1133,991.5,259.1133" style="stroke:#A80036;stroke-width:1.0;"/><text fill="#000000" font-family="Verdana" font-size="13" lengthAdjust="spacing" textLength="383" x="987.5" y="237.0474">questionnaire = recupererUnQuestionnaire(IdQuestionnaire)</text><path d="M782,221.9141 L782,261.9141 L975,261.9141 L975,231.9141 L965,221.9141 L782,221.9141 " fill="#FBFB77" style="stroke:#A80036;stroke-width:1.0;"/><path d="M965,221.9141 L965,231.9141 L975,231.9141 L965,221.9141 " fill="#FBFB77" style="stroke:#A80036;stroke-width:1.0;"/><text fill="#000000" font-family="Verdana" font-size="13" lengthAdjust="spacing" textLength="172" x="788" y="238.981">Selon expert, espaceCours</text><text fill="#000000" font-family="Verdana" font-size="13" lengthAdjust="spacing" textLength="172" x="788" y="254.1138">contient les questionnaires</text><polygon fill="#A80036" points="1365.5,294.8789,1375.5,298.8789,1365.5,302.8789" style="stroke:#A80036;stroke-width:1.0;"/><line style="stroke:#A80036;stroke-width:1.0;" x1="980.5" x2="1371.5" y1="298.8789" y2="298.8789"/><text fill="#000000" font-family="Verdana" font-size="13" lengthAdjust="spacing" textLength="133" x="987.5" y="293.813">splice(questionnaire)</text><path d="M671,272.1797 L671,312.1797 L975,312.1797 L975,282.1797 L965,272.1797 L671,272.1797 " fill="#FBFB77" style="stroke:#A80036;stroke-width:1.0;"/><path d="M965,272.1797 L965,282.1797 L975,282.1797 L965,272.1797 " fill="#FBFB77" style="stroke:#A80036;stroke-width:1.0;"/><text fill="#000000" font-family="Verdana" font-size="13" lengthAdjust="spacing" textLength="264" x="677" y="289.2466">Selon expert, questionnaires est l'attribut</text><text fill="#000000" font-family="Verdana" font-size="13" lengthAdjust="spacing" textLength="283" x="677" y="304.3794">d'espaceCours qui stocke les questionnaires</text><!--MD5=[200c94614be1dc8a3c3ea395d9b382d5]
@startuml
skinparam style strictuml
skinparam defaultfontname Verdana
title RDCU supprimerQuestionnaire
participant ": GestionnaireQuestionnaire" as gestionnaireQuestion
participant "universite : Universite" as universite
participant "espaceCours : EspaceCours" as cours
participant "questionnaires : Questionnaire[]" as questionnaires

-> gestionnaireQuestion : supprimerQuestionnaire(idEspaceCours, idQuestionnaire)
note left : Selon contr么leur,\ncontr么leur de session
gestionnaireQuestion -> universite : espaceCours = recupererUnEspaceCours(idEspaceCours)
note left : Selon expert, universite a toutes les\ninformations pour recupererUnEspaceCours
gestionnaireQuestion -> cours : supprimerQuestionnaire(IdQuestionnaire)
note left : Selon expert
cours -> cours : questionnaire = recupererUnQuestionnaire(IdQuestionnaire)
note left : Selon expert, espaceCours\ncontient les questionnaires
cours -> questionnaires : splice(questionnaire)
note left : Selon expert, questionnaires est l'attribut\nd'espaceCours qui stocke les questionnaires
@enduml

PlantUML version 1.2021.9beta2(Unknown compile time)
(GPL source distribution)
Java Runtime: Java(TM) SE Runtime Environment
JVM: Java HotSpot(TM) 64-Bit Server VM
Default Encoding: UTF-8
Language: en
Country: US
--></g></svg>