<?xml version="1.0" encoding="UTF-8" standalone="no"?><svg xmlns="http://www.w3.org/2000/svg" xmlns:xlink="http://www.w3.org/1999/xlink" contentScriptType="application/ecmascript" contentStyleType="text/css" height="557px" preserveAspectRatio="none" style="width:1697px;height:557px;background:#FFFFFF;" version="1.1" viewBox="0 0 1697 557" width="1697px" zoomAndPan="magnify"><defs/><g><text fill="#000000" font-family="Verdana" font-size="18" lengthAdjust="spacing" textLength="262" x="719.5" y="28.708">RDCU pour remettreRemise</text><rect fill="#FFFFFF" height="244.0625" style="stroke:#000000;stroke-width:2.0;" width="891" x="800" y="289.3125"/><line style="stroke:#A80036;stroke-width:1.0;stroke-dasharray:5.0,5.0;" x1="293" x2="293" y1="71.25" y2="550.375"/><line style="stroke:#A80036;stroke-width:1.0;stroke-dasharray:5.0,5.0;" x1="683.5" x2="683.5" y1="71.25" y2="550.375"/><line style="stroke:#A80036;stroke-width:1.0;stroke-dasharray:5.0,5.0;" x1="843.5" x2="843.5" y1="71.25" y2="550.375"/><line style="stroke:#A80036;stroke-width:1.0;stroke-dasharray:5.0,5.0;" x1="1017.5" x2="1017.5" y1="71.25" y2="550.375"/><line style="stroke:#A80036;stroke-width:1.0;stroke-dasharray:5.0,5.0;" x1="1306" x2="1306" y1="71.25" y2="550.375"/><line style="stroke:#A80036;stroke-width:1.0;stroke-dasharray:5.0,5.0;" x1="1486" x2="1486" y1="71.25" y2="550.375"/><rect fill="#FEFECE" height="30.2969" style="stroke:#A80036;stroke-width:1.5;" width="158" x="214" y="39.9531"/><text fill="#000000" font-family="Verdana" font-size="14" lengthAdjust="spacing" textLength="144" x="221" y="59.9482">:GestionnaireDevoir</text><rect fill="#FEFECE" height="30.2969" style="stroke:#A80036;stroke-width:1.5;" width="91" x="638.5" y="39.9531"/><text fill="#000000" font-family="Verdana" font-size="14" lengthAdjust="spacing" textLength="77" x="645.5" y="59.9482">:Universite</text><rect fill="#FEFECE" height="30.2969" style="stroke:#A80036;stroke-width:1.5;" width="209" x="739.5" y="39.9531"/><text fill="#000000" font-family="Verdana" font-size="14" lengthAdjust="spacing" textLength="195" x="746.5" y="59.9482">espaceCours : EspaceCours</text><rect fill="#FEFECE" height="30.2969" style="stroke:#A80036;stroke-width:1.5;" width="119" x="958.5" y="39.9531"/><text fill="#000000" font-family="Verdana" font-size="14" lengthAdjust="spacing" textLength="105" x="965.5" y="59.9482">devoir : Devoir</text><rect fill="#FEFECE" height="30.2969" style="stroke:#A80036;stroke-width:1.5;" width="146" x="1233" y="39.9531"/><text fill="#000000" font-family="Verdana" font-size="14" lengthAdjust="spacing" textLength="132" x="1240" y="59.9482">remises : Remise[]</text><rect fill="#FEFECE" height="30.2969" style="stroke:#A80036;stroke-width:1.5;" width="195" x="1389" y="39.9531"/><text fill="#000000" font-family="Verdana" font-size="14" lengthAdjust="spacing" textLength="181" x="1396" y="59.9482">remiseCourante : Remise</text><polygon fill="#A80036" points="281,116.5156,291,120.5156,281,124.5156" style="stroke:#A80036;stroke-width:1.0;"/><line style="stroke:#A80036;stroke-width:1.0;" x1="0" x2="287" y1="120.5156" y2="120.5156"/><text fill="#000000" font-family="Verdana" font-size="13" lengthAdjust="spacing" textLength="269" x="7" y="100.3169">remettreRemise(idEspaceCours, idDevoir,</text><text fill="#000000" font-family="Verdana" font-size="13" lengthAdjust="spacing" textLength="147" x="7" y="115.4497">idEtudiant, pathFichier)</text><path d="M298,86.25 L298,126.25 L451,126.25 L451,96.25 L441,86.25 L298,86.25 " fill="#FBFB77" style="stroke:#A80036;stroke-width:1.0;"/><path d="M441,86.25 L441,96.25 L451,96.25 L441,86.25 " fill="#FBFB77" style="stroke:#A80036;stroke-width:1.0;"/><text fill="#000000" font-family="Verdana" font-size="13" lengthAdjust="spacing" textLength="108" x="304" y="103.3169">Selon contr么leur,</text><text fill="#000000" font-family="Verdana" font-size="13" lengthAdjust="spacing" textLength="132" x="304" y="118.4497">cont么leur de session</text><polygon fill="#A80036" points="672,159.2148,682,163.2148,672,167.2148" style="stroke:#A80036;stroke-width:1.0;"/><line style="stroke:#A80036;stroke-width:1.0;" x1="293" x2="678" y1="163.2148" y2="163.2148"/><text fill="#000000" font-family="Verdana" font-size="13" lengthAdjust="spacing" textLength="367" x="300" y="158.1489">espaceCours = recupererUnEspaceCours(idEspaceCours)</text><path d="M106,136.5156 L106,176.5156 L288,176.5156 L288,146.5156 L278,136.5156 L106,136.5156 " fill="#FBFB77" style="stroke:#A80036;stroke-width:1.0;"/><path d="M278,136.5156 L278,146.5156 L288,146.5156 L278,136.5156 " fill="#FBFB77" style="stroke:#A80036;stroke-width:1.0;"/><text fill="#000000" font-family="Verdana" font-size="13" lengthAdjust="spacing" textLength="152" x="112" y="153.5825">Selon expert, universite</text><text fill="#000000" font-family="Verdana" font-size="13" lengthAdjust="spacing" textLength="161" x="112" y="168.7153">contient les espaceCours</text><polygon fill="#A80036" points="832,209.4805,842,213.4805,832,217.4805" style="stroke:#A80036;stroke-width:1.0;"/><line style="stroke:#A80036;stroke-width:1.0;" x1="293" x2="838" y1="213.4805" y2="213.4805"/><text fill="#000000" font-family="Verdana" font-size="13" lengthAdjust="spacing" textLength="242" x="300" y="208.4146">devoir = recupererUnDevoir(idDevoir)</text><path d="M95,186.7813 L95,226.7813 L288,226.7813 L288,196.7813 L278,186.7813 L95,186.7813 " fill="#FBFB77" style="stroke:#A80036;stroke-width:1.0;"/><path d="M278,186.7813 L278,196.7813 L288,196.7813 L278,186.7813 " fill="#FBFB77" style="stroke:#A80036;stroke-width:1.0;"/><text fill="#000000" font-family="Verdana" font-size="13" lengthAdjust="spacing" textLength="172" x="101" y="203.8481">Selon expert, espaceCours</text><text fill="#000000" font-family="Verdana" font-size="13" lengthAdjust="spacing" textLength="125" x="101" y="218.981">contient les devoirs</text><polygon fill="#A80036" points="1006,259.7461,1016,263.7461,1006,267.7461" style="stroke:#A80036;stroke-width:1.0;"/><line style="stroke:#A80036;stroke-width:1.0;" x1="293" x2="1012" y1="263.7461" y2="263.7461"/><text fill="#000000" font-family="Verdana" font-size="13" lengthAdjust="spacing" textLength="257" x="300" y="258.6802">remettreRemise(idEtudiant, pathFichier)</text><path d="M82,237.0469 L82,277.0469 L288,277.0469 L288,247.0469 L278,237.0469 L82,237.0469 " fill="#FBFB77" style="stroke:#A80036;stroke-width:1.0;"/><path d="M278,237.0469 L278,247.0469 L288,247.0469 L278,237.0469 " fill="#FBFB77" style="stroke:#A80036;stroke-width:1.0;"/><text fill="#000000" font-family="Verdana" font-size="13" lengthAdjust="spacing" textLength="185" x="88" y="254.1138">Selon expert, devoir contient</text><text fill="#000000" font-family="Verdana" font-size="13" lengthAdjust="spacing" textLength="122" x="88" y="269.2466">toutes ses remises</text><path d="M800,289.3125 L866,289.3125 L866,296.3125 L856,306.3125 L800,306.3125 L800,289.3125 " fill="#EEEEEE" style="stroke:#000000;stroke-width:1.0;"/><rect fill="none" height="244.0625" style="stroke:#000000;stroke-width:2.0;" width="891" x="800" y="289.3125"/><text fill="#000000" font-family="Verdana" font-size="13" font-weight="bold" lengthAdjust="spacing" textLength="21" x="815" y="302.3794">alt</text><text fill="#000000" font-family="Verdana" font-size="11" font-weight="bold" lengthAdjust="spacing" textLength="304" x="881" y="301.5229">[currentDate.isBetween(dateDebut, dateFin)]</text><polygon fill="#A80036" points="1294,326.5781,1304,330.5781,1294,334.5781" style="stroke:#A80036;stroke-width:1.0;"/><line style="stroke:#A80036;stroke-width:1.0;" x1="1018" x2="1300" y1="330.5781" y2="330.5781"/><text fill="#000000" font-family="Verdana" font-size="13" lengthAdjust="spacing" textLength="264" x="1025" y="325.5122">remiseCourante = getRemise(idEtudiant)</text><path d="M911,311.4453 L911,336.4453 L1013,336.4453 L1013,321.4453 L1003,311.4453 L911,311.4453 " fill="#FBFB77" style="stroke:#A80036;stroke-width:1.0;"/><path d="M1003,311.4453 L1003,321.4453 L1013,321.4453 L1003,311.4453 " fill="#FBFB77" style="stroke:#A80036;stroke-width:1.0;"/><text fill="#000000" font-family="Verdana" font-size="13" lengthAdjust="spacing" textLength="81" x="917" y="328.5122">Selon expert</text><polygon fill="#A80036" points="1474.5,376.8438,1484.5,380.8438,1474.5,384.8438" style="stroke:#A80036;stroke-width:1.0;"/><line style="stroke:#A80036;stroke-width:1.0;" x1="1018" x2="1480.5" y1="380.8438" y2="380.8438"/><text fill="#000000" font-family="Verdana" font-size="13" lengthAdjust="spacing" textLength="185" x="1025" y="375.7778">remettreRemise(pathFichier)</text><path d="M810,346.5781 L810,401.5781 L1013,401.5781 L1013,356.5781 L1003,346.5781 L810,346.5781 " fill="#FBFB77" style="stroke:#A80036;stroke-width:1.0;"/><path d="M1003,346.5781 L1003,356.5781 L1013,356.5781 L1003,346.5781 " fill="#FBFB77" style="stroke:#A80036;stroke-width:1.0;"/><text fill="#000000" font-family="Verdana" font-size="13" lengthAdjust="spacing" textLength="182" x="816" y="363.645">Selon expert, il faut modifier</text><text fill="#000000" font-family="Verdana" font-size="13" lengthAdjust="spacing" textLength="172" x="816" y="378.7778">les attributs de remise afin</text><text fill="#000000" font-family="Verdana" font-size="13" lengthAdjust="spacing" textLength="160" x="816" y="393.9106">qu'il en devienne l'expert</text><line style="stroke:#A80036;stroke-width:1.0;" x1="1486.5" x2="1528.5" y1="428.1094" y2="428.1094"/><line style="stroke:#A80036;stroke-width:1.0;" x1="1528.5" x2="1528.5" y1="428.1094" y2="441.1094"/><line style="stroke:#A80036;stroke-width:1.0;" x1="1487.5" x2="1528.5" y1="441.1094" y2="441.1094"/><polygon fill="#A80036" points="1497.5,437.1094,1487.5,441.1094,1497.5,445.1094" style="stroke:#A80036;stroke-width:1.0;"/><text fill="#000000" font-family="Verdana" font-size="13" lengthAdjust="spacing" textLength="170" x="1493.5" y="423.0435">setPathFichier(pathFichier)</text><path d="M1379,415.4766 L1379,440.4766 L1481,440.4766 L1481,425.4766 L1471,415.4766 L1379,415.4766 " fill="#FBFB77" style="stroke:#A80036;stroke-width:1.0;"/><path d="M1471,415.4766 L1471,425.4766 L1481,425.4766 L1471,415.4766 " fill="#FBFB77" style="stroke:#A80036;stroke-width:1.0;"/><text fill="#000000" font-family="Verdana" font-size="13" lengthAdjust="spacing" textLength="81" x="1385" y="432.5435">Selon expert</text><line style="stroke:#A80036;stroke-width:1.0;" x1="1486.5" x2="1528.5" y1="470.2422" y2="470.2422"/><line style="stroke:#A80036;stroke-width:1.0;" x1="1528.5" x2="1528.5" y1="470.2422" y2="483.2422"/><line style="stroke:#A80036;stroke-width:1.0;" x1="1487.5" x2="1528.5" y1="483.2422" y2="483.2422"/><polygon fill="#A80036" points="1497.5,479.2422,1487.5,483.2422,1497.5,487.2422" style="stroke:#A80036;stroke-width:1.0;"/><text fill="#000000" font-family="Verdana" font-size="13" lengthAdjust="spacing" textLength="186" x="1493.5" y="465.1763">setDateRemise(currentDate)</text><path d="M1379,457.6094 L1379,482.6094 L1481,482.6094 L1481,467.6094 L1471,457.6094 L1379,457.6094 " fill="#FBFB77" style="stroke:#A80036;stroke-width:1.0;"/><path d="M1471,457.6094 L1471,467.6094 L1481,467.6094 L1471,457.6094 " fill="#FBFB77" style="stroke:#A80036;stroke-width:1.0;"/><text fill="#000000" font-family="Verdana" font-size="13" lengthAdjust="spacing" textLength="81" x="1385" y="474.6763">Selon expert</text><line style="stroke:#A80036;stroke-width:1.0;" x1="1486.5" x2="1528.5" y1="512.375" y2="512.375"/><line style="stroke:#A80036;stroke-width:1.0;" x1="1528.5" x2="1528.5" y1="512.375" y2="525.375"/><line style="stroke:#A80036;stroke-width:1.0;" x1="1487.5" x2="1528.5" y1="525.375" y2="525.375"/><polygon fill="#A80036" points="1497.5,521.375,1487.5,525.375,1497.5,529.375" style="stroke:#A80036;stroke-width:1.0;"/><text fill="#000000" font-family="Verdana" font-size="13" lengthAdjust="spacing" textLength="106" x="1493.5" y="507.3091">setEtat("Remis")</text><path d="M1379,499.7422 L1379,524.7422 L1481,524.7422 L1481,509.7422 L1471,499.7422 L1379,499.7422 " fill="#FBFB77" style="stroke:#A80036;stroke-width:1.0;"/><path d="M1471,499.7422 L1471,509.7422 L1481,509.7422 L1471,499.7422 " fill="#FBFB77" style="stroke:#A80036;stroke-width:1.0;"/><text fill="#000000" font-family="Verdana" font-size="13" lengthAdjust="spacing" textLength="81" x="1385" y="516.8091">Selon expert</text><!--MD5=[e305e94bf9293275233ac037624bbf35]
@startuml
skinparam style strictuml
skinparam defaultfontname Verdana
title RDCU pour remettreRemise
participant ":GestionnaireDevoir" as gestionnaireDevoir
participant ":Universite" as universite
participant "espaceCours : EspaceCours" as cours
participant "devoir : Devoir" as devoir
participant "remises : Remise[]" as remises
participant "remiseCourante : Remise" as remise

-> gestionnaireDevoir : remettreRemise(idEspaceCours, idDevoir,\nidEtudiant, pathFichier)
note left : Selon contr么leur,\ncont么leur de session
gestionnaireDevoir -> universite : espaceCours = recupererUnEspaceCours(idEspaceCours)
note left : Selon expert, universite\ncontient les espaceCours
gestionnaireDevoir -> cours : devoir = recupererUnDevoir(idDevoir)
note left : Selon expert, espaceCours\ncontient les devoirs
gestionnaireDevoir -> devoir : remettreRemise(idEtudiant, pathFichier)
note left : Selon expert, devoir contient\ntoutes ses remises
alt currentDate.isBetween(dateDebut, dateFin)
devoir -> remises : remiseCourante = getRemise(idEtudiant)
note left : Selon expert
devoir -> remise : remettreRemise(pathFichier)
note left : Selon expert, il faut modifier\nles attributs de remise afin\nqu'il en devienne l'expert
remise -> remise : setPathFichier(pathFichier)
note left : Selon expert
remise -> remise : setDateRemise(currentDate)
note left : Selon expert
remise -> remise : setEtat("Remis")
note left : Selon expert
end
@enduml

PlantUML version 1.2021.9beta2(Unknown compile time)
(GPL source distribution)
Java Runtime: Java(TM) SE Runtime Environment
JVM: Java HotSpot(TM) 64-Bit Server VM
Default Encoding: UTF-8
Language: en
Country: US
--></g></svg>