<?xml version="1.0" encoding="UTF-8" standalone="no"?><svg xmlns="http://www.w3.org/2000/svg" xmlns:xlink="http://www.w3.org/1999/xlink" contentScriptType="application/ecmascript" contentStyleType="text/css" height="565px" preserveAspectRatio="none" style="width:602px;height:565px;background:#FFFFFF;" version="1.1" viewBox="0 0 602 565" width="602px" zoomAndPan="magnify"><defs><filter height="300%" id="f4xwlk2ny0yyw" width="300%" x="-1" y="-1"><feGaussianBlur result="blurOut" stdDeviation="2.0"/><feColorMatrix in="blurOut" result="blurOut2" type="matrix" values="0 0 0 0 0 0 0 0 0 0 0 0 0 0 0 0 0 0 .4 0"/><feOffset dx="4.0" dy="4.0" in="blurOut2" result="blurOut3"/><feBlend in="SourceGraphic" in2="blurOut3" mode="normal"/></filter></defs><g><text fill="#000000" font-family="sans-serif" font-size="18" lengthAdjust="spacing" textLength="232" x="183" y="28.708">DSS Passerquestionnaire</text><rect fill="#FFFFFF" filter="url(#f4xwlk2ny0yyw)" height="342.9922" style="stroke:#000000;stroke-width:2.0;" width="578" x="10" y="169.3828"/><rect fill="#FFFFFF" filter="url(#f4xwlk2ny0yyw)" height="90.5313" style="stroke:#000000;stroke-width:2.0;" width="558" x="20" y="296.0469"/><line style="stroke:#A80036;stroke-width:1.0;stroke-dasharray:5.0,5.0;" x1="66" x2="66" y1="123.25" y2="558.5078"/><line style="stroke:#A80036;stroke-width:1.0;stroke-dasharray:5.0,5.0;" x1="525" x2="525" y1="123.25" y2="558.5078"/><text fill="#000000" font-family="sans-serif" font-size="14" lengthAdjust="spacing" textLength="66" x="30" y="119.9482">:Etudiant</text><ellipse cx="66" cy="49.9531" fill="#FEFECE" filter="url(#f4xwlk2ny0yyw)" rx="8" ry="8" style="stroke:#A80036;stroke-width:2.0;"/><path d="M66,57.9531 L66,84.9531 M53,65.9531 L79,65.9531 M66,84.9531 L53,99.9531 M66,84.9531 L79,99.9531 " fill="none" filter="url(#f4xwlk2ny0yyw)" style="stroke:#A80036;stroke-width:2.0;"/><rect fill="#FEFECE" filter="url(#f4xwlk2ny0yyw)" height="30.2969" style="stroke:#A80036;stroke-width:1.5;" width="82" x="482" y="87.9531"/><text fill="#000000" font-family="sans-serif" font-size="14" lengthAdjust="spacing" textLength="68" x="489" y="107.9482">:Systeme</text><polygon fill="#A80036" points="513,150.3828,523,154.3828,513,158.3828,517,154.3828" style="stroke:#A80036;stroke-width:1.0;"/><line style="stroke:#A80036;stroke-width:1.0;" x1="66" x2="519" y1="154.3828" y2="154.3828"/><text fill="#000000" font-family="sans-serif" font-size="13" lengthAdjust="spacing" textLength="435" x="73" y="149.3169">recupererTousQuestionnairesEspaceCours(idEspaceCours: number)</text><path d="M10,169.3828 L88,169.3828 L88,176.3828 L78,186.3828 L10,186.3828 L10,169.3828 " fill="#EEEEEE" style="stroke:#000000;stroke-width:1.0;"/><rect fill="none" height="342.9922" style="stroke:#000000;stroke-width:2.0;" width="578" x="10" y="169.3828"/><text fill="#000000" font-family="sans-serif" font-size="13" font-weight="bold" lengthAdjust="spacing" textLength="33" x="25" y="182.4497">loop</text><text fill="#000000" font-family="sans-serif" font-size="11" font-weight="bold" lengthAdjust="spacing" textLength="215" x="103" y="181.5933">[!terminerPasserQuestionnaire]</text><polygon fill="#A80036" points="77,203.6484,67,207.6484,77,211.6484,73,207.6484" style="stroke:#A80036;stroke-width:1.0;"/><line style="stroke:#A80036;stroke-width:1.0;stroke-dasharray:2.0,2.0;" x1="71" x2="524" y1="207.6484" y2="207.6484"/><text fill="#000000" font-family="sans-serif" font-size="13" lengthAdjust="spacing" textLength="342" x="83" y="202.5825">Questionnaires déjà complétés avec les notes reçues</text><polygon fill="#A80036" points="77,232.7813,67,236.7813,77,240.7813,73,236.7813" style="stroke:#A80036;stroke-width:1.0;"/><line style="stroke:#A80036;stroke-width:1.0;stroke-dasharray:2.0,2.0;" x1="71" x2="524" y1="236.7813" y2="236.7813"/><text fill="#000000" font-family="sans-serif" font-size="13" lengthAdjust="spacing" textLength="177" x="83" y="231.7153">Questionnaires à compléter</text><polygon fill="#A80036" points="513,277.0469,523,281.0469,513,285.0469,517,281.0469" style="stroke:#A80036;stroke-width:1.0;"/><line style="stroke:#A80036;stroke-width:1.0;" x1="66" x2="519" y1="281.0469" y2="281.0469"/><text fill="#000000" font-family="sans-serif" font-size="13" lengthAdjust="spacing" textLength="377" x="73" y="260.8481">recupererQuestionsQuestionnaire(idEspaceCours: number,</text><text fill="#000000" font-family="sans-serif" font-size="13" lengthAdjust="spacing" textLength="164" x="73" y="275.981">idQuestionnaire: number)</text><path d="M20,296.0469 L98,296.0469 L98,303.0469 L88,313.0469 L20,313.0469 L20,296.0469 " fill="#EEEEEE" style="stroke:#000000;stroke-width:1.0;"/><rect fill="none" height="90.5313" style="stroke:#000000;stroke-width:2.0;" width="558" x="20" y="296.0469"/><text fill="#000000" font-family="sans-serif" font-size="13" font-weight="bold" lengthAdjust="spacing" textLength="33" x="35" y="309.1138">loop</text><text fill="#000000" font-family="sans-serif" font-size="11" font-weight="bold" lengthAdjust="spacing" textLength="248" x="113" y="308.2573">[!terminerAjouterReponseTentative]</text><polygon fill="#A80036" points="77,330.3125,67,334.3125,77,338.3125,73,334.3125" style="stroke:#A80036;stroke-width:1.0;"/><line style="stroke:#A80036;stroke-width:1.0;stroke-dasharray:2.0,2.0;" x1="71" x2="524" y1="334.3125" y2="334.3125"/><text fill="#000000" font-family="sans-serif" font-size="13" lengthAdjust="spacing" textLength="131" x="83" y="329.2466">affiche une question</text><polygon fill="#A80036" points="513,374.5781,523,378.5781,513,382.5781,517,378.5781" style="stroke:#A80036;stroke-width:1.0;"/><line style="stroke:#A80036;stroke-width:1.0;" x1="66" x2="519" y1="378.5781" y2="378.5781"/><text fill="#000000" font-family="sans-serif" font-size="13" lengthAdjust="spacing" textLength="328" x="73" y="358.3794">ajouterReponseTentative(idEspaceCours : number,</text><text fill="#000000" font-family="sans-serif" font-size="13" lengthAdjust="spacing" textLength="278" x="73" y="373.5122">idQuestionnaire : number, reponse : String)</text><polygon fill="#A80036" points="513,425.8438,523,429.8438,513,433.8438,517,429.8438" style="stroke:#A80036;stroke-width:1.0;"/><line style="stroke:#A80036;stroke-width:1.0;" x1="66" x2="519" y1="429.8438" y2="429.8438"/><text fill="#000000" font-family="sans-serif" font-size="13" lengthAdjust="spacing" textLength="384" x="73" y="409.645">terminerAjouterReponseTentative(idEspaceCours : number,</text><text fill="#000000" font-family="sans-serif" font-size="13" lengthAdjust="spacing" textLength="168" x="73" y="424.7778">idQuestionnaire : number)</text><polygon fill="#A80036" points="77,500.375,67,504.375,77,508.375,73,504.375" style="stroke:#A80036;stroke-width:1.0;"/><line style="stroke:#A80036;stroke-width:1.0;stroke-dasharray:2.0,2.0;" x1="71" x2="524" y1="504.375" y2="504.375"/><text fill="#000000" font-family="sans-serif" font-size="13" lengthAdjust="spacing" textLength="235" x="83" y="453.9106">note obtenue et texte de rétroaction</text><text fill="#000000" font-family="sans-serif" font-size="13" lengthAdjust="spacing" textLength="226" x="83" y="469.0435">(bonne ou mauvaise réponse) pour</text><text fill="#000000" font-family="sans-serif" font-size="13" lengthAdjust="spacing" textLength="200" x="83" y="484.1763">chaque question ainsi que note</text><text fill="#000000" font-family="sans-serif" font-size="13" lengthAdjust="spacing" textLength="170" x="83" y="499.3091">résultante en pourcentage</text><polygon fill="#A80036" points="513,536.5078,523,540.5078,513,544.5078,517,540.5078" style="stroke:#A80036;stroke-width:1.0;"/><line style="stroke:#A80036;stroke-width:1.0;" x1="66" x2="519" y1="540.5078" y2="540.5078"/><text fill="#000000" font-family="sans-serif" font-size="13" lengthAdjust="spacing" textLength="197" x="73" y="535.4419">terminerPasserQuestionnaire()</text><!--MD5=[8ec4de9177d17591f6e094b972834371]
@startuml
title DSS Passerquestionnaire
hide footbox
actor ":Etudiant" as etudiant
participant ":Systeme" as systeme

etudiant ->  systeme : recupererTousQuestionnairesEspaceCours(idEspaceCours: number)
loop !terminerPasserQuestionnaire
systeme - -> etudiant : Questionnaires déjà complétés avec les notes reçues
systeme - -> etudiant : Questionnaires à compléter
etudiant -> systeme : recupererQuestionsQuestionnaire(idEspaceCours: number,\nidQuestionnaire: number)
loop !terminerAjouterReponseTentative
systeme - -> etudiant : affiche une question
etudiant -> systeme : ajouterReponseTentative(idEspaceCours : number,\nidQuestionnaire : number, reponse : String)
end
etudiant -> systeme : terminerAjouterReponseTentative(idEspaceCours : number,\nidQuestionnaire : number)
systeme - -> etudiant : note obtenue et texte de rétroaction\n(bonne ou mauvaise réponse) pour\nchaque question ainsi que note\nrésultante en pourcentage
end
etudiant -> systeme : terminerPasserQuestionnaire()
@enduml

PlantUML version 1.2021.9beta2(Unknown compile time)
(GPL source distribution)
Java Runtime: Java(TM) SE Runtime Environment
JVM: Java HotSpot(TM) 64-Bit Server VM
Default Encoding: UTF-8
Language: en
Country: US
--></g></svg>