<?xml version="1.0" encoding="UTF-8" standalone="no"?><svg xmlns="http://www.w3.org/2000/svg" xmlns:xlink="http://www.w3.org/1999/xlink" contentScriptType="application/ecmascript" contentStyleType="text/css" height="369px" preserveAspectRatio="none" style="width:1747px;height:369px;background:#FFFFFF;" version="1.1" viewBox="0 0 1747 369" width="1747px" zoomAndPan="magnify"><defs/><g><text fill="#000000" font-family="Verdana" font-size="18" lengthAdjust="spacing" textLength="290" x="728.25" y="28.708">RDCU pour creerQuestionnaire</text><line style="stroke:#A80036;stroke-width:1.0;stroke-dasharray:5.0,5.0;" x1="310.5" x2="310.5" y1="71.25" y2="362.5781"/><line style="stroke:#A80036;stroke-width:1.0;stroke-dasharray:5.0,5.0;" x1="702" x2="702" y1="71.25" y2="362.5781"/><line style="stroke:#A80036;stroke-width:1.0;stroke-dasharray:5.0,5.0;" x1="901" x2="901" y1="71.25" y2="362.5781"/><line style="stroke:#A80036;stroke-width:1.0;stroke-dasharray:5.0,5.0;" x1="1361.5" x2="1361.5" y1="267.1797" y2="362.5781"/><line style="stroke:#A80036;stroke-width:1.0;stroke-dasharray:5.0,5.0;" x1="1620.5" x2="1620.5" y1="71.25" y2="362.5781"/><rect fill="#FEFECE" height="30.2969" style="stroke:#A80036;stroke-width:1.5;" width="215" x="203.5" y="39.9531"/><text fill="#000000" font-family="Verdana" font-size="14" lengthAdjust="spacing" textLength="201" x="210.5" y="59.9482">: GestionnaireQuestionnaire</text><rect fill="#FEFECE" height="30.2969" style="stroke:#A80036;stroke-width:1.5;" width="170" x="617" y="39.9531"/><text fill="#000000" font-family="Verdana" font-size="14" lengthAdjust="spacing" textLength="156" x="624" y="59.9482">universite : Universite</text><rect fill="#FEFECE" height="30.2969" style="stroke:#A80036;stroke-width:1.5;" width="209" x="797" y="39.9531"/><text fill="#000000" font-family="Verdana" font-size="14" lengthAdjust="spacing" textLength="195" x="804" y="59.9482">espaceCours : EspaceCours</text><rect fill="#FEFECE" height="30.2969" style="stroke:#A80036;stroke-width:1.5;" width="242" x="1499.5" y="39.9531"/><text fill="#000000" font-family="Verdana" font-size="14" lengthAdjust="spacing" textLength="228" x="1506.5" y="59.9482">questionnaires : Questionnaire[]</text><polygon fill="#A80036" points="299,108.9492,309,112.9492,299,116.9492" style="stroke:#A80036;stroke-width:1.0;"/><line style="stroke:#A80036;stroke-width:1.0;" x1="0" x2="305" y1="112.9492" y2="112.9492"/><text fill="#000000" font-family="Verdana" font-size="13" lengthAdjust="spacing" textLength="272" x="7" y="107.8833">tags = creerQuestionnaire(idEspaceCours)</text><path d="M316,86.25 L316,126.25 L474,126.25 L474,96.25 L464,86.25 L316,86.25 " fill="#FBFB77" style="stroke:#A80036;stroke-width:1.0;"/><path d="M464,86.25 L464,96.25 L474,96.25 L464,86.25 " fill="#FBFB77" style="stroke:#A80036;stroke-width:1.0;"/><text fill="#000000" font-family="Verdana" font-size="13" lengthAdjust="spacing" textLength="108" x="322" y="103.3169">Selon controleur,</text><text fill="#000000" font-family="Verdana" font-size="13" lengthAdjust="spacing" textLength="137" x="322" y="118.4497">contrôleur de session</text><polygon fill="#A80036" points="690,159.2148,700,163.2148,690,167.2148" style="stroke:#A80036;stroke-width:1.0;"/><line style="stroke:#A80036;stroke-width:1.0;" x1="311" x2="696" y1="163.2148" y2="163.2148"/><text fill="#000000" font-family="Verdana" font-size="13" lengthAdjust="spacing" textLength="367" x="318" y="158.1489">espaceCours = recupererUnEspaceCours(idEspaceCours)</text><path d="M5,136.5156 L5,176.5156 L306,176.5156 L306,146.5156 L296,136.5156 L5,136.5156 " fill="#FBFB77" style="stroke:#A80036;stroke-width:1.0;"/><path d="M296,136.5156 L296,146.5156 L306,146.5156 L296,136.5156 " fill="#FBFB77" style="stroke:#A80036;stroke-width:1.0;"/><text fill="#000000" font-family="Verdana" font-size="13" lengthAdjust="spacing" textLength="231" x="11" y="153.5825">Selon expert, universite a toutes les</text><text fill="#000000" font-family="Verdana" font-size="13" lengthAdjust="spacing" textLength="280" x="11" y="168.7153">informations pour recupererUnEspaceCours</text><polygon fill="#A80036" points="889.5,209.4805,899.5,213.4805,889.5,217.4805" style="stroke:#A80036;stroke-width:1.0;"/><line style="stroke:#A80036;stroke-width:1.0;" x1="311" x2="895.5" y1="213.4805" y2="213.4805"/><text fill="#000000" font-family="Verdana" font-size="13" lengthAdjust="spacing" textLength="338" x="318" y="208.4146">creerQuestionnaire(idEspaceCours, description, etat)</text><path d="M57,186.7813 L57,226.7813 L306,226.7813 L306,196.7813 L296,186.7813 L57,186.7813 " fill="#FBFB77" style="stroke:#A80036;stroke-width:1.0;"/><path d="M296,186.7813 L296,196.7813 L306,196.7813 L296,186.7813 " fill="#FBFB77" style="stroke:#A80036;stroke-width:1.0;"/><text fill="#000000" font-family="Verdana" font-size="13" lengthAdjust="spacing" textLength="228" x="63" y="203.8481">Selon expert, espaceCours contient</text><text fill="#000000" font-family="Verdana" font-size="13" lengthAdjust="spacing" textLength="152" x="63" y="218.981">tous ces questionnaires</text><polygon fill="#A80036" points="1221.5,249.1797,1231.5,253.1797,1221.5,257.1797" style="stroke:#A80036;stroke-width:1.0;"/><line style="stroke:#A80036;stroke-width:1.0;stroke-dasharray:2.0,2.0;" x1="901.5" x2="1227.5" y1="253.1797" y2="253.1797"/><text fill="#000000" font-family="Verdana" font-size="13" lengthAdjust="spacing" textLength="308" x="908.5" y="248.1138">newQuestionnaire = create(id, description, etat)</text><rect fill="#FEFECE" height="30.2969" style="stroke:#A80036;stroke-width:1.5;" width="256" x="1233.5" y="236.5313"/><text fill="#000000" font-family="Verdana" font-size="14" lengthAdjust="spacing" textLength="242" x="1240.5" y="256.5264">newQuestionnaire : Questionnaire</text><path d="M691,237.0469 L691,277.0469 L896,277.0469 L896,247.0469 L886,237.0469 L691,237.0469 " fill="#FBFB77" style="stroke:#A80036;stroke-width:1.0;"/><path d="M886,237.0469 L886,247.0469 L896,247.0469 L886,237.0469 " fill="#FBFB77" style="stroke:#A80036;stroke-width:1.0;"/><text fill="#000000" font-family="Verdana" font-size="13" lengthAdjust="spacing" textLength="184" x="697" y="254.1138">Selon createur, EspaceCours</text><text fill="#000000" font-family="Verdana" font-size="13" lengthAdjust="spacing" textLength="145" x="697" y="269.2466">contient Questionnaire</text><polygon fill="#A80036" points="1608.5,302.4453,1618.5,306.4453,1608.5,310.4453" style="stroke:#A80036;stroke-width:1.0;"/><line style="stroke:#A80036;stroke-width:1.0;" x1="901.5" x2="1614.5" y1="306.4453" y2="306.4453"/><text fill="#000000" font-family="Verdana" font-size="13" lengthAdjust="spacing" textLength="157" x="908.5" y="301.3794">push(newQuestionnaire)</text><path d="M794,287.3125 L794,312.3125 L896,312.3125 L896,297.3125 L886,287.3125 L794,287.3125 " fill="#FBFB77" style="stroke:#A80036;stroke-width:1.0;"/><path d="M886,287.3125 L886,297.3125 L896,297.3125 L886,287.3125 " fill="#FBFB77" style="stroke:#A80036;stroke-width:1.0;"/><text fill="#000000" font-family="Verdana" font-size="13" lengthAdjust="spacing" textLength="81" x="800" y="304.3794">Selon expert</text><polygon fill="#A80036" points="889.5,337.5781,899.5,341.5781,889.5,345.5781" style="stroke:#A80036;stroke-width:1.0;"/><line style="stroke:#A80036;stroke-width:1.0;" x1="311" x2="895.5" y1="341.5781" y2="341.5781"/><text fill="#000000" font-family="Verdana" font-size="13" lengthAdjust="spacing" textLength="206" x="318" y="336.5122">tags = recupererTagQuestions()</text><path d="M204,322.4453 L204,347.4453 L306,347.4453 L306,332.4453 L296,322.4453 L204,322.4453 " fill="#FBFB77" style="stroke:#A80036;stroke-width:1.0;"/><path d="M296,322.4453 L296,332.4453 L306,332.4453 L296,322.4453 " fill="#FBFB77" style="stroke:#A80036;stroke-width:1.0;"/><text fill="#000000" font-family="Verdana" font-size="13" lengthAdjust="spacing" textLength="81" x="210" y="339.5122">Selon expert</text><!--MD5=[0b2563145bd2a7d5015cfdac1080d817]
@startuml
skinparam style strictuml
skinparam defaultfontname Verdana
title RDCU pour creerQuestionnaire
participant ": GestionnaireQuestionnaire" as gestionnaireQuestion
participant "universite : Universite" as universite
participant "espaceCours : EspaceCours" as cours
participant "newQuestionnaire : Questionnaire" as questionnaire
participant "questionnaires : Questionnaire[]" as questionnaires
-> gestionnaireQuestion : tags = creerQuestionnaire(idEspaceCours)
note left : Selon controleur,\ncontrôleur de session
gestionnaireQuestion -> universite : espaceCours = recupererUnEspaceCours(idEspaceCours)
note left : Selon expert, universite a toutes les\ninformations pour recupererUnEspaceCours
gestionnaireQuestion -> cours : creerQuestionnaire(idEspaceCours, description, etat)
note left : Selon expert, espaceCours contient\ntous ces questionnaires
cours - -> questionnaire** : newQuestionnaire = create(id, description, etat)
note left : Selon createur, EspaceCours\ncontient Questionnaire
cours -> questionnaires : push(newQuestionnaire)
note left : Selon expert
gestionnaireQuestion -> cours : tags = recupererTagQuestions()
note left : Selon expert
@enduml

PlantUML version 1.2021.9beta2(Unknown compile time)
(GPL source distribution)
Java Runtime: Java(TM) SE Runtime Environment
JVM: Java HotSpot(TM) 64-Bit Server VM
Default Encoding: UTF-8
Language: en
Country: US
--></g></svg>