<?xml version="1.0" encoding="UTF-8" standalone="no"?><svg xmlns="http://www.w3.org/2000/svg" xmlns:xlink="http://www.w3.org/1999/xlink" contentScriptType="application/ecmascript" contentStyleType="text/css" height="249px" preserveAspectRatio="none" style="width:1128px;height:249px;background:#FFFFFF;" version="1.1" viewBox="0 0 1128 249" width="1128px" zoomAndPan="magnify"><defs/><g><text fill="#000000" font-family="Verdana" font-size="18" lengthAdjust="spacing" textLength="386" x="370.5" y="28.708">RDCU pour recupererToutQuestionnaires</text><line style="stroke:#A80036;stroke-width:1.0;stroke-dasharray:5.0,5.0;" x1="426.5" x2="426.5" y1="71.25" y2="242.0469"/><line style="stroke:#A80036;stroke-width:1.0;stroke-dasharray:5.0,5.0;" x1="818" x2="818" y1="71.25" y2="242.0469"/><line style="stroke:#A80036;stroke-width:1.0;stroke-dasharray:5.0,5.0;" x1="1017" x2="1017" y1="71.25" y2="242.0469"/><rect fill="#FEFECE" height="30.2969" style="stroke:#A80036;stroke-width:1.5;" width="215" x="319.5" y="39.9531"/><text fill="#000000" font-family="Verdana" font-size="14" lengthAdjust="spacing" textLength="201" x="326.5" y="59.9482">: GestionnaireQuestionnaire</text><rect fill="#FEFECE" height="30.2969" style="stroke:#A80036;stroke-width:1.5;" width="170" x="733" y="39.9531"/><text fill="#000000" font-family="Verdana" font-size="14" lengthAdjust="spacing" textLength="156" x="740" y="59.9482">universite : Universite</text><rect fill="#FEFECE" height="30.2969" style="stroke:#A80036;stroke-width:1.5;" width="209" x="913" y="39.9531"/><text fill="#000000" font-family="Verdana" font-size="14" lengthAdjust="spacing" textLength="195" x="920" y="59.9482">espaceCours : EspaceCours</text><polygon fill="#A80036" points="415,108.9492,425,112.9492,415,116.9492" style="stroke:#A80036;stroke-width:1.0;"/><line style="stroke:#A80036;stroke-width:1.0;" x1="0" x2="421" y1="112.9492" y2="112.9492"/><text fill="#000000" font-family="Verdana" font-size="13" lengthAdjust="spacing" textLength="403" x="7" y="107.8833">questionnaires = recupererToutQuestionnaires(idEspaceCours)</text><path d="M432,86.25 L432,126.25 L590,126.25 L590,96.25 L580,86.25 L432,86.25 " fill="#FBFB77" style="stroke:#A80036;stroke-width:1.0;"/><path d="M580,86.25 L580,96.25 L590,96.25 L580,86.25 " fill="#FBFB77" style="stroke:#A80036;stroke-width:1.0;"/><text fill="#000000" font-family="Verdana" font-size="13" lengthAdjust="spacing" textLength="108" x="438" y="103.3169">Selon controleur,</text><text fill="#000000" font-family="Verdana" font-size="13" lengthAdjust="spacing" textLength="137" x="438" y="118.4497">contrôleur de session</text><polygon fill="#A80036" points="806,159.2148,816,163.2148,806,167.2148" style="stroke:#A80036;stroke-width:1.0;"/><line style="stroke:#A80036;stroke-width:1.0;" x1="427" x2="812" y1="163.2148" y2="163.2148"/><text fill="#000000" font-family="Verdana" font-size="13" lengthAdjust="spacing" textLength="367" x="434" y="158.1489">espaceCours = recupererUnEspaceCours(idEspaceCours)</text><path d="M121,136.5156 L121,176.5156 L422,176.5156 L422,146.5156 L412,136.5156 L121,136.5156 " fill="#FBFB77" style="stroke:#A80036;stroke-width:1.0;"/><path d="M412,136.5156 L412,146.5156 L422,146.5156 L412,136.5156 " fill="#FBFB77" style="stroke:#A80036;stroke-width:1.0;"/><text fill="#000000" font-family="Verdana" font-size="13" lengthAdjust="spacing" textLength="231" x="127" y="153.5825">Selon expert, universite a toutes les</text><text fill="#000000" font-family="Verdana" font-size="13" lengthAdjust="spacing" textLength="280" x="127" y="168.7153">informations pour recupererUnEspaceCours</text><polygon fill="#A80036" points="1005.5,209.4805,1015.5,213.4805,1005.5,217.4805" style="stroke:#A80036;stroke-width:1.0;"/><line style="stroke:#A80036;stroke-width:1.0;" x1="427" x2="1011.5" y1="213.4805" y2="213.4805"/><text fill="#000000" font-family="Verdana" font-size="13" lengthAdjust="spacing" textLength="309" x="434" y="208.4146">questionnaires = recupererToutQuestionnaires()</text><path d="M173,186.7813 L173,226.7813 L422,226.7813 L422,196.7813 L412,186.7813 L173,186.7813 " fill="#FBFB77" style="stroke:#A80036;stroke-width:1.0;"/><path d="M412,186.7813 L412,196.7813 L422,196.7813 L412,186.7813 " fill="#FBFB77" style="stroke:#A80036;stroke-width:1.0;"/><text fill="#000000" font-family="Verdana" font-size="13" lengthAdjust="spacing" textLength="228" x="179" y="203.8481">Selon expert, espaceCours contient</text><text fill="#000000" font-family="Verdana" font-size="13" lengthAdjust="spacing" textLength="152" x="179" y="218.981">tous ces questionnaires</text><!--MD5=[a464d5579e1f062b607b5fb634562542]
@startuml
skinparam style strictuml
skinparam defaultfontname Verdana
title RDCU pour recupererToutQuestionnaires
participant ": GestionnaireQuestionnaire" as gestionnaireQuestion
participant "universite : Universite" as universite
participant "espaceCours : EspaceCours" as cours
-> gestionnaireQuestion : questionnaires = recupererToutQuestionnaires(idEspaceCours)
note left : Selon controleur,\ncontrôleur de session
gestionnaireQuestion -> universite : espaceCours = recupererUnEspaceCours(idEspaceCours)
note left : Selon expert, universite a toutes les\ninformations pour recupererUnEspaceCours
gestionnaireQuestion -> cours : questionnaires = recupererToutQuestionnaires()
note left : Selon expert, espaceCours contient\ntous ces questionnaires
@enduml

PlantUML version 1.2021.9beta2(Unknown compile time)
(GPL source distribution)
Java Runtime: Java(TM) SE Runtime Environment
JVM: Java HotSpot(TM) 64-Bit Server VM
Default Encoding: UTF-8
Language: en
Country: US
--></g></svg>