<?xml version="1.0" encoding="UTF-8" standalone="no"?><svg xmlns="http://www.w3.org/2000/svg" xmlns:xlink="http://www.w3.org/1999/xlink" contentScriptType="application/ecmascript" contentStyleType="text/css" height="512px" preserveAspectRatio="none" style="width:1824px;height:512px;background:#FFFFFF;" version="1.1" viewBox="0 0 1824 512" width="1824px" zoomAndPan="magnify"><defs/><g><text fill="#000000" font-family="Verdana" font-size="18" lengthAdjust="spacing" textLength="350" x="739" y="28.708">RDCU pour recupererQuestionParTag</text><rect fill="#FFFFFF" height="199.0625" style="stroke:#000000;stroke-width:2.0;" width="1007" x="811" y="289.3125"/><rect fill="#FFFFFF" height="52.2656" style="stroke:#000000;stroke-width:2.0;" width="881" x="927" y="429.1094"/><line style="stroke:#A80036;stroke-width:1.0;stroke-dasharray:5.0,5.0;" x1="453.5" x2="453.5" y1="71.25" y2="505.375"/><line style="stroke:#A80036;stroke-width:1.0;stroke-dasharray:5.0,5.0;" x1="845" x2="845" y1="71.25" y2="505.375"/><line style="stroke:#A80036;stroke-width:1.0;stroke-dasharray:5.0,5.0;" x1="1044" x2="1044" y1="71.25" y2="505.375"/><line style="stroke:#A80036;stroke-width:1.0;stroke-dasharray:5.0,5.0;" x1="1244" x2="1244" y1="71.25" y2="505.375"/><line style="stroke:#A80036;stroke-width:1.0;stroke-dasharray:5.0,5.0;" x1="1448" x2="1448" y1="71.25" y2="505.375"/><line style="stroke:#A80036;stroke-width:1.0;stroke-dasharray:5.0,5.0;" x1="1683" x2="1683" y1="267.1797" y2="505.375"/><rect fill="#FEFECE" height="30.2969" style="stroke:#A80036;stroke-width:1.5;" width="215" x="346.5" y="39.9531"/><text fill="#000000" font-family="Verdana" font-size="14" lengthAdjust="spacing" textLength="201" x="353.5" y="59.9482">: GestionnaireQuestionnaire</text><rect fill="#FEFECE" height="30.2969" style="stroke:#A80036;stroke-width:1.5;" width="170" x="760" y="39.9531"/><text fill="#000000" font-family="Verdana" font-size="14" lengthAdjust="spacing" textLength="156" x="767" y="59.9482">universite : Universite</text><rect fill="#FEFECE" height="30.2969" style="stroke:#A80036;stroke-width:1.5;" width="209" x="940" y="39.9531"/><text fill="#000000" font-family="Verdana" font-size="14" lengthAdjust="spacing" textLength="195" x="947" y="59.9482">espaceCours : EspaceCours</text><rect fill="#FEFECE" height="30.2969" style="stroke:#A80036;stroke-width:1.5;" width="170" x="1159" y="39.9531"/><text fill="#000000" font-family="Verdana" font-size="14" lengthAdjust="spacing" textLength="156" x="1166" y="59.9482">questions : Question[]</text><rect fill="#FEFECE" height="30.2969" style="stroke:#A80036;stroke-width:1.5;" width="219" x="1339" y="39.9531"/><text fill="#000000" font-family="Verdana" font-size="14" lengthAdjust="spacing" textLength="205" x="1346" y="59.9482">questionCourante : Question</text><polygon fill="#A80036" points="442,108.9492,452,112.9492,442,116.9492" style="stroke:#A80036;stroke-width:1.0;"/><line style="stroke:#A80036;stroke-width:1.0;" x1="0" x2="448" y1="112.9492" y2="112.9492"/><text fill="#000000" font-family="Verdana" font-size="13" lengthAdjust="spacing" textLength="430" x="7" y="107.8833">questionsResultat = recupererQuestionParTag(idEspaceCours, tag)</text><path d="M459,86.25 L459,126.25 L617,126.25 L617,96.25 L607,86.25 L459,86.25 " fill="#FBFB77" style="stroke:#A80036;stroke-width:1.0;"/><path d="M607,86.25 L607,96.25 L617,96.25 L607,86.25 " fill="#FBFB77" style="stroke:#A80036;stroke-width:1.0;"/><text fill="#000000" font-family="Verdana" font-size="13" lengthAdjust="spacing" textLength="108" x="465" y="103.3169">Selon contrôleur,</text><text fill="#000000" font-family="Verdana" font-size="13" lengthAdjust="spacing" textLength="137" x="465" y="118.4497">contrôleur de session</text><polygon fill="#A80036" points="833,159.2148,843,163.2148,833,167.2148" style="stroke:#A80036;stroke-width:1.0;"/><line style="stroke:#A80036;stroke-width:1.0;" x1="454" x2="839" y1="163.2148" y2="163.2148"/><text fill="#000000" font-family="Verdana" font-size="13" lengthAdjust="spacing" textLength="367" x="461" y="158.1489">espaceCours = recupererUnEspaceCours(idEspaceCours)</text><path d="M148,136.5156 L148,176.5156 L449,176.5156 L449,146.5156 L439,136.5156 L148,136.5156 " fill="#FBFB77" style="stroke:#A80036;stroke-width:1.0;"/><path d="M439,136.5156 L439,146.5156 L449,146.5156 L439,136.5156 " fill="#FBFB77" style="stroke:#A80036;stroke-width:1.0;"/><text fill="#000000" font-family="Verdana" font-size="13" lengthAdjust="spacing" textLength="231" x="154" y="153.5825">Selon expert, universite a toutes les</text><text fill="#000000" font-family="Verdana" font-size="13" lengthAdjust="spacing" textLength="280" x="154" y="168.7153">informations pour recupererUnEspaceCours</text><polygon fill="#A80036" points="1032.5,209.4805,1042.5,213.4805,1032.5,217.4805" style="stroke:#A80036;stroke-width:1.0;"/><line style="stroke:#A80036;stroke-width:1.0;" x1="454" x2="1038.5" y1="213.4805" y2="213.4805"/><text fill="#000000" font-family="Verdana" font-size="13" lengthAdjust="spacing" textLength="328" x="461" y="208.4146">questionsResultat = recupererQuestionParTag(tag)</text><path d="M200,186.7813 L200,226.7813 L449,226.7813 L449,196.7813 L439,186.7813 L200,186.7813 " fill="#FBFB77" style="stroke:#A80036;stroke-width:1.0;"/><path d="M439,186.7813 L439,196.7813 L449,196.7813 L439,186.7813 " fill="#FBFB77" style="stroke:#A80036;stroke-width:1.0;"/><text fill="#000000" font-family="Verdana" font-size="13" lengthAdjust="spacing" textLength="228" x="206" y="203.8481">Selon expert, espaceCours contient</text><text fill="#000000" font-family="Verdana" font-size="13" lengthAdjust="spacing" textLength="152" x="206" y="218.981">tous ces questionnaires</text><polygon fill="#A80036" points="1556,249.1797,1566,253.1797,1556,257.1797" style="stroke:#A80036;stroke-width:1.0;"/><line style="stroke:#A80036;stroke-width:1.0;" x1="1044.5" x2="1562" y1="253.1797" y2="253.1797"/><text fill="#000000" font-family="Verdana" font-size="13" lengthAdjust="spacing" textLength="51" x="1051.5" y="248.1138">create()</text><rect fill="#FEFECE" height="30.2969" style="stroke:#A80036;stroke-width:1.5;" width="230" x="1568" y="236.5313"/><text fill="#000000" font-family="Verdana" font-size="14" lengthAdjust="spacing" textLength="216" x="1575" y="256.5264">questionsResultat : Question[]</text><path d="M793,237.0469 L793,277.0469 L1039,277.0469 L1039,247.0469 L1029,237.0469 L793,237.0469 " fill="#FBFB77" style="stroke:#A80036;stroke-width:1.0;"/><path d="M1029,237.0469 L1029,247.0469 L1039,247.0469 L1029,237.0469 " fill="#FBFB77" style="stroke:#A80036;stroke-width:1.0;"/><text fill="#000000" font-family="Verdana" font-size="13" lengthAdjust="spacing" textLength="225" x="799" y="254.1138">Selon créateur, EspaceCours utilise</text><text fill="#000000" font-family="Verdana" font-size="13" lengthAdjust="spacing" textLength="195" x="799" y="269.2466">étroitement questionsResultat</text><path d="M811,289.3125 L889,289.3125 L889,296.3125 L879,306.3125 L811,306.3125 L811,289.3125 " fill="#EEEEEE" style="stroke:#000000;stroke-width:1.0;"/><rect fill="none" height="199.0625" style="stroke:#000000;stroke-width:2.0;" width="1007" x="811" y="289.3125"/><text fill="#000000" font-family="Verdana" font-size="13" font-weight="bold" lengthAdjust="spacing" textLength="33" x="826" y="302.3794">loop</text><text fill="#000000" font-family="Verdana" font-size="11" font-weight="bold" lengthAdjust="spacing" textLength="123" x="904" y="301.5229">[questions.length]</text><polygon fill="#A80036" points="1232,341.7109,1242,345.7109,1232,349.7109" style="stroke:#A80036;stroke-width:1.0;"/><line style="stroke:#A80036;stroke-width:1.0;" x1="1044.5" x2="1238" y1="345.7109" y2="345.7109"/><text fill="#000000" font-family="Verdana" font-size="13" lengthAdjust="spacing" textLength="166" x="1051.5" y="340.645">questionCourante = get(i)</text><path d="M821,311.4453 L821,366.4453 L1039,366.4453 L1039,321.4453 L1029,311.4453 L821,311.4453 " fill="#FBFB77" style="stroke:#A80036;stroke-width:1.0;"/><path d="M1029,311.4453 L1029,321.4453 L1039,321.4453 L1029,311.4453 " fill="#FBFB77" style="stroke:#A80036;stroke-width:1.0;"/><text fill="#000000" font-family="Verdana" font-size="13" lengthAdjust="spacing" textLength="175" x="827" y="328.5122">Selon expert, questions est</text><text fill="#000000" font-family="Verdana" font-size="13" lengthAdjust="spacing" textLength="160" x="827" y="343.645">l'attribut de EspaceCours</text><text fill="#000000" font-family="Verdana" font-size="13" lengthAdjust="spacing" textLength="197" x="827" y="358.7778">où sont stockées les questions</text><polygon fill="#A80036" points="1436.5,399.543,1446.5,403.543,1436.5,407.543" style="stroke:#A80036;stroke-width:1.0;"/><line style="stroke:#A80036;stroke-width:1.0;" x1="1044.5" x2="1442.5" y1="403.543" y2="403.543"/><text fill="#000000" font-family="Verdana" font-size="13" lengthAdjust="spacing" textLength="145" x="1051.5" y="398.4771">tagCourant = getTag()</text><path d="M864,376.8438 L864,416.8438 L1039,416.8438 L1039,386.8438 L1029,376.8438 L864,376.8438 " fill="#FBFB77" style="stroke:#A80036;stroke-width:1.0;"/><path d="M1029,376.8438 L1029,386.8438 L1039,386.8438 L1029,376.8438 " fill="#FBFB77" style="stroke:#A80036;stroke-width:1.0;"/><text fill="#000000" font-family="Verdana" font-size="13" lengthAdjust="spacing" textLength="154" x="870" y="393.9106">Selon expert, tag est un</text><text fill="#000000" font-family="Verdana" font-size="13" lengthAdjust="spacing" textLength="128" x="870" y="409.0435">attribut de Question</text><path d="M927,429.1094 L993,429.1094 L993,436.1094 L983,446.1094 L927,446.1094 L927,429.1094 " fill="#EEEEEE" style="stroke:#000000;stroke-width:1.0;"/><rect fill="none" height="52.2656" style="stroke:#000000;stroke-width:2.0;" width="881" x="927" y="429.1094"/><text fill="#000000" font-family="Verdana" font-size="13" font-weight="bold" lengthAdjust="spacing" textLength="21" x="942" y="442.1763">alt</text><text fill="#000000" font-family="Verdana" font-size="11" font-weight="bold" lengthAdjust="spacing" textLength="128" x="1008" y="441.3198">[tagCourant = tag]</text><polygon fill="#A80036" points="1671,466.375,1681,470.375,1671,474.375" style="stroke:#A80036;stroke-width:1.0;"/><line style="stroke:#A80036;stroke-width:1.0;" x1="1044.5" x2="1677" y1="470.375" y2="470.375"/><text fill="#000000" font-family="Verdana" font-size="13" lengthAdjust="spacing" textLength="155" x="1051.5" y="465.3091">push(questionCourante)</text><path d="M937,451.2422 L937,476.2422 L1039,476.2422 L1039,461.2422 L1029,451.2422 L937,451.2422 " fill="#FBFB77" style="stroke:#A80036;stroke-width:1.0;"/><path d="M1029,451.2422 L1029,461.2422 L1039,461.2422 L1029,451.2422 " fill="#FBFB77" style="stroke:#A80036;stroke-width:1.0;"/><text fill="#000000" font-family="Verdana" font-size="13" lengthAdjust="spacing" textLength="81" x="943" y="468.3091">Selon expert</text><!--MD5=[5f7d00c5fa6e3357135a554206b96e67]
@startuml
skinparam style strictuml
skinparam defaultfontname Verdana
title RDCU pour recupererQuestionParTag
participant ": GestionnaireQuestionnaire" as gestionnaireQuestion
participant "universite : Universite" as universite
participant "espaceCours : EspaceCours" as cours
participant "questions : Question[]" as questions
participant "questionCourante : Question" as question
participant "questionsResultat : Question[]" as resultat

-> gestionnaireQuestion : questionsResultat = recupererQuestionParTag(idEspaceCours, tag)
note left : Selon contrôleur,\ncontrôleur de session
gestionnaireQuestion -> universite : espaceCours = recupererUnEspaceCours(idEspaceCours)
note left : Selon expert, universite a toutes les\ninformations pour recupererUnEspaceCours
gestionnaireQuestion -> cours : questionsResultat = recupererQuestionParTag(tag)
note left : Selon expert, espaceCours contient\ntous ces questionnaires
cours -> resultat** : create()
note left : Selon créateur, EspaceCours utilise\nétroitement questionsResultat
loop questions.length
cours -> questions : questionCourante = get(i)
note left : Selon expert, questions est\nl'attribut de EspaceCours\noù sont stockées les questions
cours -> question : tagCourant = getTag()
note left : Selon expert, tag est un\nattribut de Question
alt tagCourant = tag
cours -> resultat : push(questionCourante)
note left : Selon expert
end
end
@enduml

PlantUML version 1.2021.9beta2(Unknown compile time)
(GPL source distribution)
Java Runtime: Java(TM) SE Runtime Environment
JVM: Java HotSpot(TM) 64-Bit Server VM
Default Encoding: UTF-8
Language: en
Country: US
--></g></svg>