<?xml version="1.0" encoding="UTF-8" standalone="no"?><svg xmlns="http://www.w3.org/2000/svg" xmlns:xlink="http://www.w3.org/1999/xlink" contentScriptType="application/ecmascript" contentStyleType="text/css" height="314px" preserveAspectRatio="none" style="width:1489px;height:314px;background:#FFFFFF;" version="1.1" viewBox="0 0 1489 314" width="1489px" zoomAndPan="magnify"><defs/><g><text fill="#000000" font-family="Verdana" font-size="18" lengthAdjust="spacing" textLength="360" x="564.25" y="28.708">RDCU pour recupererUnQuestionnaire</text><line style="stroke:#A80036;stroke-width:1.0;stroke-dasharray:5.0,5.0;" x1="508.5" x2="508.5" y1="71.25" y2="307.4453"/><line style="stroke:#A80036;stroke-width:1.0;stroke-dasharray:5.0,5.0;" x1="900" x2="900" y1="71.25" y2="307.4453"/><line style="stroke:#A80036;stroke-width:1.0;stroke-dasharray:5.0,5.0;" x1="1099" x2="1099" y1="71.25" y2="307.4453"/><line style="stroke:#A80036;stroke-width:1.0;stroke-dasharray:5.0,5.0;" x1="1362.5" x2="1362.5" y1="71.25" y2="307.4453"/><rect fill="#FEFECE" height="30.2969" style="stroke:#A80036;stroke-width:1.5;" width="215" x="401.5" y="39.9531"/><text fill="#000000" font-family="Verdana" font-size="14" lengthAdjust="spacing" textLength="201" x="408.5" y="59.9482">: GestionnaireQuestionnaire</text><rect fill="#FEFECE" height="30.2969" style="stroke:#A80036;stroke-width:1.5;" width="170" x="815" y="39.9531"/><text fill="#000000" font-family="Verdana" font-size="14" lengthAdjust="spacing" textLength="156" x="822" y="59.9482">universite : Universite</text><rect fill="#FEFECE" height="30.2969" style="stroke:#A80036;stroke-width:1.5;" width="209" x="995" y="39.9531"/><text fill="#000000" font-family="Verdana" font-size="14" lengthAdjust="spacing" textLength="195" x="1002" y="59.9482">espaceCours : EspaceCours</text><rect fill="#FEFECE" height="30.2969" style="stroke:#A80036;stroke-width:1.5;" width="242" x="1241.5" y="39.9531"/><text fill="#000000" font-family="Verdana" font-size="14" lengthAdjust="spacing" textLength="228" x="1248.5" y="59.9482">questionnaires : Questionnaire[]</text><polygon fill="#A80036" points="497,108.9492,507,112.9492,497,116.9492" style="stroke:#A80036;stroke-width:1.0;"/><line style="stroke:#A80036;stroke-width:1.0;" x1="0" x2="503" y1="112.9492" y2="112.9492"/><text fill="#000000" font-family="Verdana" font-size="13" lengthAdjust="spacing" textLength="485" x="7" y="107.8833">questionnaire = recupererUnQuestionnaire(idEspaceCours, idQuestionnaire)</text><path d="M514,86.25 L514,126.25 L672,126.25 L672,96.25 L662,86.25 L514,86.25 " fill="#FBFB77" style="stroke:#A80036;stroke-width:1.0;"/><path d="M662,86.25 L662,96.25 L672,96.25 L662,86.25 " fill="#FBFB77" style="stroke:#A80036;stroke-width:1.0;"/><text fill="#000000" font-family="Verdana" font-size="13" lengthAdjust="spacing" textLength="108" x="520" y="103.3169">Selon controleur,</text><text fill="#000000" font-family="Verdana" font-size="13" lengthAdjust="spacing" textLength="137" x="520" y="118.4497">contrôleur de session</text><polygon fill="#A80036" points="888,159.2148,898,163.2148,888,167.2148" style="stroke:#A80036;stroke-width:1.0;"/><line style="stroke:#A80036;stroke-width:1.0;" x1="509" x2="894" y1="163.2148" y2="163.2148"/><text fill="#000000" font-family="Verdana" font-size="13" lengthAdjust="spacing" textLength="367" x="516" y="158.1489">espaceCours = recupererUnEspaceCours(idEspaceCours)</text><path d="M203,136.5156 L203,176.5156 L504,176.5156 L504,146.5156 L494,136.5156 L203,136.5156 " fill="#FBFB77" style="stroke:#A80036;stroke-width:1.0;"/><path d="M494,136.5156 L494,146.5156 L504,146.5156 L494,136.5156 " fill="#FBFB77" style="stroke:#A80036;stroke-width:1.0;"/><text fill="#000000" font-family="Verdana" font-size="13" lengthAdjust="spacing" textLength="231" x="209" y="153.5825">Selon expert, universite a toutes les</text><text fill="#000000" font-family="Verdana" font-size="13" lengthAdjust="spacing" textLength="280" x="209" y="168.7153">informations pour recupererUnEspaceCours</text><polygon fill="#A80036" points="1087.5,201.9141,1097.5,205.9141,1087.5,209.9141" style="stroke:#A80036;stroke-width:1.0;"/><line style="stroke:#A80036;stroke-width:1.0;" x1="509" x2="1093.5" y1="205.9141" y2="205.9141"/><text fill="#000000" font-family="Verdana" font-size="13" lengthAdjust="spacing" textLength="383" x="516" y="200.8481">questionnaire = recupererUnQuestionnaire(idQuestionnaire)</text><path d="M402,186.7813 L402,211.7813 L504,211.7813 L504,196.7813 L494,186.7813 L402,186.7813 " fill="#FBFB77" style="stroke:#A80036;stroke-width:1.0;"/><path d="M494,186.7813 L494,196.7813 L504,196.7813 L494,186.7813 " fill="#FBFB77" style="stroke:#A80036;stroke-width:1.0;"/><text fill="#000000" font-family="Verdana" font-size="13" lengthAdjust="spacing" textLength="81" x="408" y="203.8481">Selon expert</text><polygon fill="#A80036" points="1350.5,259.7461,1360.5,263.7461,1350.5,267.7461" style="stroke:#A80036;stroke-width:1.0;"/><line style="stroke:#A80036;stroke-width:1.0;" x1="1099.5" x2="1356.5" y1="263.7461" y2="263.7461"/><text fill="#000000" font-family="Verdana" font-size="13" lengthAdjust="spacing" textLength="239" x="1106.5" y="258.6802">questionnaire = find(idQuestionnaire)</text><path d="M866,221.9141 L866,291.9141 L1094,291.9141 L1094,231.9141 L1084,221.9141 L866,221.9141 " fill="#FBFB77" style="stroke:#A80036;stroke-width:1.0;"/><path d="M1084,221.9141 L1084,231.9141 L1094,231.9141 L1084,221.9141 " fill="#FBFB77" style="stroke:#A80036;stroke-width:1.0;"/><text fill="#000000" font-family="Verdana" font-size="13" lengthAdjust="spacing" textLength="207" x="872" y="238.981">Selon expert, questionnaires est</text><text fill="#000000" font-family="Verdana" font-size="13" lengthAdjust="spacing" textLength="160" x="872" y="254.1138">l'attribut de EspaceCours</text><text fill="#000000" font-family="Verdana" font-size="13" lengthAdjust="spacing" textLength="131" x="872" y="269.2466">où sont stockées les</text><text fill="#000000" font-family="Verdana" font-size="13" lengthAdjust="spacing" textLength="94" x="872" y="284.3794">questionnaires</text><!--MD5=[713dbcea38bfd2f6cf59a52c45564fea]
@startuml
skinparam style strictuml
skinparam defaultfontname Verdana
title RDCU pour recupererUnQuestionnaire
participant ": GestionnaireQuestionnaire" as gestionnaireQuestion
participant "universite : Universite" as universite
participant "espaceCours : EspaceCours" as cours
participant "questionnaires : Questionnaire[]" as questionnaires

-> gestionnaireQuestion : questionnaire = recupererUnQuestionnaire(idEspaceCours, idQuestionnaire)
note left : Selon controleur,\ncontrôleur de session
gestionnaireQuestion -> universite : espaceCours = recupererUnEspaceCours(idEspaceCours)
note left : Selon expert, universite a toutes les\ninformations pour recupererUnEspaceCours
gestionnaireQuestion -> cours : questionnaire = recupererUnQuestionnaire(idQuestionnaire)
note left : Selon expert
cours -> questionnaires : questionnaire = find(idQuestionnaire)
note left : Selon expert, questionnaires est\nl'attribut de EspaceCours\noù sont stockées les\nquestionnaires
@enduml

PlantUML version 1.2021.9beta2(Unknown compile time)
(GPL source distribution)
Java Runtime: Java(TM) SE Runtime Environment
JVM: Java HotSpot(TM) 64-Bit Server VM
Default Encoding: UTF-8
Language: en
Country: US
--></g></svg>