<?xml version="1.0" encoding="UTF-8" standalone="no"?><svg xmlns="http://www.w3.org/2000/svg" xmlns:xlink="http://www.w3.org/1999/xlink" contentScriptType="application/ecmascript" contentStyleType="text/css" height="299px" preserveAspectRatio="none" style="width:1208px;height:299px;background:#FFFFFF;" version="1.1" viewBox="0 0 1208 299" width="1208px" zoomAndPan="magnify"><defs/><g><text fill="#000000" font-family="Verdana" font-size="18" lengthAdjust="spacing" textLength="290" x="458.75" y="28.708">RDCU pour recupererUnDevoir</text><line style="stroke:#A80036;stroke-width:1.0;stroke-dasharray:5.0,5.0;" x1="365" x2="365" y1="71.25" y2="292.3125"/><line style="stroke:#A80036;stroke-width:1.0;stroke-dasharray:5.0,5.0;" x1="784.5" x2="784.5" y1="71.25" y2="292.3125"/><line style="stroke:#A80036;stroke-width:1.0;stroke-dasharray:5.0,5.0;" x1="944.5" x2="944.5" y1="71.25" y2="292.3125"/><line style="stroke:#A80036;stroke-width:1.0;stroke-dasharray:5.0,5.0;" x1="1130.5" x2="1130.5" y1="71.25" y2="292.3125"/><rect fill="#FEFECE" height="30.2969" style="stroke:#A80036;stroke-width:1.5;" width="158" x="286" y="39.9531"/><text fill="#000000" font-family="Verdana" font-size="14" lengthAdjust="spacing" textLength="144" x="293" y="59.9482">:GestionnaireDevoir</text><rect fill="#FEFECE" height="30.2969" style="stroke:#A80036;stroke-width:1.5;" width="91" x="739.5" y="39.9531"/><text fill="#000000" font-family="Verdana" font-size="14" lengthAdjust="spacing" textLength="77" x="746.5" y="59.9482">:Universite</text><rect fill="#FEFECE" height="30.2969" style="stroke:#A80036;stroke-width:1.5;" width="209" x="840.5" y="39.9531"/><text fill="#000000" font-family="Verdana" font-size="14" lengthAdjust="spacing" textLength="195" x="847.5" y="59.9482">espaceCours : EspaceCours</text><rect fill="#FEFECE" height="30.2969" style="stroke:#A80036;stroke-width:1.5;" width="143" x="1059.5" y="39.9531"/><text fill="#000000" font-family="Verdana" font-size="14" lengthAdjust="spacing" textLength="129" x="1066.5" y="59.9482">devoirs : Devoirs[]</text><polygon fill="#A80036" points="353,116.5156,363,120.5156,353,124.5156" style="stroke:#A80036;stroke-width:1.0;"/><line style="stroke:#A80036;stroke-width:1.0;" x1="0" x2="359" y1="120.5156" y2="120.5156"/><text fill="#000000" font-family="Verdana" font-size="13" lengthAdjust="spacing" textLength="341" x="7" y="100.3169">devoir = recupererUnDevoir(idEspaceCours: number,</text><text fill="#000000" font-family="Verdana" font-size="13" lengthAdjust="spacing" textLength="117" x="7" y="115.4497">IdDevoir: number)</text><path d="M370,86.25 L370,126.25 L558,126.25 L558,96.25 L548,86.25 L370,86.25 " fill="#FBFB77" style="stroke:#A80036;stroke-width:1.0;"/><path d="M548,86.25 L548,96.25 L558,96.25 L548,86.25 " fill="#FBFB77" style="stroke:#A80036;stroke-width:1.0;"/><text fill="#000000" font-family="Verdana" font-size="13" lengthAdjust="spacing" textLength="105" x="376" y="103.3169">Selon Contôleur,</text><text fill="#000000" font-family="Verdana" font-size="13" lengthAdjust="spacing" textLength="167" x="376" y="118.4497">reçoit l'opération système</text><polygon fill="#A80036" points="773,159.2148,783,163.2148,773,167.2148" style="stroke:#A80036;stroke-width:1.0;"/><line style="stroke:#A80036;stroke-width:1.0;" x1="365" x2="779" y1="163.2148" y2="163.2148"/><text fill="#000000" font-family="Verdana" font-size="13" lengthAdjust="spacing" textLength="396" x="372" y="158.1489">espaceCours = recupererUnEspaceCours(idEspaceCours : int)</text><path d="M178,136.5156 L178,176.5156 L360,176.5156 L360,146.5156 L350,136.5156 L178,136.5156 " fill="#FBFB77" style="stroke:#A80036;stroke-width:1.0;"/><path d="M350,136.5156 L350,146.5156 L360,146.5156 L350,136.5156 " fill="#FBFB77" style="stroke:#A80036;stroke-width:1.0;"/><text fill="#000000" font-family="Verdana" font-size="13" lengthAdjust="spacing" textLength="152" x="184" y="153.5825">Selon expert, universite</text><text fill="#000000" font-family="Verdana" font-size="13" lengthAdjust="spacing" textLength="161" x="184" y="168.7153">contient les espaceCours</text><polygon fill="#A80036" points="933,209.4805,943,213.4805,933,217.4805" style="stroke:#A80036;stroke-width:1.0;"/><line style="stroke:#A80036;stroke-width:1.0;" x1="365" x2="939" y1="213.4805" y2="213.4805"/><text fill="#000000" font-family="Verdana" font-size="13" lengthAdjust="spacing" textLength="242" x="372" y="208.4146">devoir = recupererUnDevoir(IdDevoir)</text><path d="M167,186.7813 L167,226.7813 L360,226.7813 L360,196.7813 L350,186.7813 L167,186.7813 " fill="#FBFB77" style="stroke:#A80036;stroke-width:1.0;"/><path d="M350,186.7813 L350,196.7813 L360,196.7813 L350,186.7813 " fill="#FBFB77" style="stroke:#A80036;stroke-width:1.0;"/><text fill="#000000" font-family="Verdana" font-size="13" lengthAdjust="spacing" textLength="172" x="173" y="203.8481">Selon expert, espaceCours</text><text fill="#000000" font-family="Verdana" font-size="13" lengthAdjust="spacing" textLength="125" x="173" y="218.981">contient les devoirs</text><polygon fill="#A80036" points="1119,259.7461,1129,263.7461,1119,267.7461" style="stroke:#A80036;stroke-width:1.0;"/><line style="stroke:#A80036;stroke-width:1.0;" x1="945" x2="1125" y1="263.7461" y2="263.7461"/><text fill="#000000" font-family="Verdana" font-size="13" lengthAdjust="spacing" textLength="145" x="952" y="258.6802">devoir = find(idDevoir)</text><path d="M683,237.0469 L683,277.0469 L940,277.0469 L940,247.0469 L930,237.0469 L683,237.0469 " fill="#FBFB77" style="stroke:#A80036;stroke-width:1.0;"/><path d="M930,237.0469 L930,247.0469 L940,247.0469 L930,237.0469 " fill="#FBFB77" style="stroke:#A80036;stroke-width:1.0;"/><text fill="#000000" font-family="Verdana" font-size="13" lengthAdjust="spacing" textLength="217" x="689" y="254.1138">Selon expert, devoirs est l'attribut</text><text fill="#000000" font-family="Verdana" font-size="13" lengthAdjust="spacing" textLength="236" x="689" y="269.2466">d'espaceCours qui stocke les devoirs</text><!--MD5=[de870632a2c0dca85e6e4da1b0102e38]
@startuml
skinparam style strictuml
skinparam defaultfontname Verdana
title RDCU pour recupererUnDevoir
participant ":GestionnaireDevoir" as gestionnaireDevoir
participant ":Universite" as universite
participant "espaceCours : EspaceCours" as cours
participant "devoirs : Devoirs[]" as devoirs

-> gestionnaireDevoir : devoir = recupererUnDevoir(idEspaceCours: number,\nIdDevoir: number)
note left : Selon Contôleur,\nreçoit l'opération système
gestionnaireDevoir -> universite : espaceCours = recupererUnEspaceCours(idEspaceCours : int)
note left : Selon expert, universite\ncontient les espaceCours
gestionnaireDevoir -> cours : devoir = recupererUnDevoir(IdDevoir)
note left : Selon expert, espaceCours\ncontient les devoirs
cours -> devoirs : devoir = find(idDevoir)
note left : Selon expert, devoirs est l'attribut\nd'espaceCours qui stocke les devoirs
@enduml

PlantUML version 1.2021.9beta2(Unknown compile time)
(GPL source distribution)
Java Runtime: Java(TM) SE Runtime Environment
JVM: Java HotSpot(TM) 64-Bit Server VM
Default Encoding: UTF-8
Language: en
Country: US
--></g></svg>