<?xml version="1.0" encoding="UTF-8" standalone="no"?><svg xmlns="http://www.w3.org/2000/svg" xmlns:xlink="http://www.w3.org/1999/xlink" contentScriptType="application/ecmascript" contentStyleType="text/css" height="338px" preserveAspectRatio="none" style="width:1247px;height:338px;background:#FFFFFF;" version="1.1" viewBox="0 0 1247 338" width="1247px" zoomAndPan="magnify"><defs/><g><text fill="#000000" font-family="Verdana" font-size="18" lengthAdjust="spacing" textLength="267" x="489.5" y="28.708">RDCU modifierQuestionnaire</text><line style="stroke:#A80036;stroke-width:1.0;stroke-dasharray:5.0,5.0;" x1="310.5" x2="310.5" y1="71.25" y2="331.7109"/><line style="stroke:#A80036;stroke-width:1.0;stroke-dasharray:5.0,5.0;" x1="702" x2="702" y1="71.25" y2="331.7109"/><line style="stroke:#A80036;stroke-width:1.0;stroke-dasharray:5.0,5.0;" x1="901" x2="901" y1="71.25" y2="331.7109"/><line style="stroke:#A80036;stroke-width:1.0;stroke-dasharray:5.0,5.0;" x1="1128" x2="1128" y1="71.25" y2="331.7109"/><rect fill="#FEFECE" height="30.2969" style="stroke:#A80036;stroke-width:1.5;" width="215" x="203.5" y="39.9531"/><text fill="#000000" font-family="Verdana" font-size="14" lengthAdjust="spacing" textLength="201" x="210.5" y="59.9482">: GestionnaireQuestionnaire</text><rect fill="#FEFECE" height="30.2969" style="stroke:#A80036;stroke-width:1.5;" width="170" x="617" y="39.9531"/><text fill="#000000" font-family="Verdana" font-size="14" lengthAdjust="spacing" textLength="156" x="624" y="59.9482">universite : Universite</text><rect fill="#FEFECE" height="30.2969" style="stroke:#A80036;stroke-width:1.5;" width="209" x="797" y="39.9531"/><text fill="#000000" font-family="Verdana" font-size="14" lengthAdjust="spacing" textLength="195" x="804" y="59.9482">espaceCours : EspaceCours</text><rect fill="#FEFECE" height="30.2969" style="stroke:#A80036;stroke-width:1.5;" width="225" x="1016" y="39.9531"/><text fill="#000000" font-family="Verdana" font-size="14" lengthAdjust="spacing" textLength="211" x="1023" y="59.9482">questionnaire : Questionnaire</text><polygon fill="#A80036" points="299,158.9141,309,162.9141,299,166.9141" style="stroke:#A80036;stroke-width:1.0;"/><line style="stroke:#A80036;stroke-width:1.0;" x1="0" x2="305" y1="162.9141" y2="162.9141"/><text fill="#000000" font-family="Verdana" font-size="13" lengthAdjust="spacing" textLength="142" x="7" y="97.3169">modifierQuestionnaire</text><text fill="#000000" font-family="Verdana" font-size="13" lengthAdjust="spacing" textLength="103" x="7" y="112.4497">(idEspaceCours,</text><text fill="#000000" font-family="Verdana" font-size="13" lengthAdjust="spacing" textLength="104" x="7" y="127.5825">idQuestionnaire,</text><text fill="#000000" font-family="Verdana" font-size="13" lengthAdjust="spacing" textLength="74" x="7" y="142.7153">description,</text><text fill="#000000" font-family="Verdana" font-size="13" lengthAdjust="spacing" textLength="31" x="7" y="157.8481">etat)</text><path d="M316,105.9492 L316,145.9492 L474,145.9492 L474,115.9492 L464,105.9492 L316,105.9492 " fill="#FBFB77" style="stroke:#A80036;stroke-width:1.0;"/><path d="M464,105.9492 L464,115.9492 L474,115.9492 L464,105.9492 " fill="#FBFB77" style="stroke:#A80036;stroke-width:1.0;"/><text fill="#000000" font-family="Verdana" font-size="13" lengthAdjust="spacing" textLength="108" x="322" y="123.0161">Selon contr么leur,</text><text fill="#000000" font-family="Verdana" font-size="13" lengthAdjust="spacing" textLength="137" x="322" y="138.1489">contr么leur de session</text><polygon fill="#A80036" points="690,198.6133,700,202.6133,690,206.6133" style="stroke:#A80036;stroke-width:1.0;"/><line style="stroke:#A80036;stroke-width:1.0;" x1="311" x2="696" y1="202.6133" y2="202.6133"/><text fill="#000000" font-family="Verdana" font-size="13" lengthAdjust="spacing" textLength="367" x="318" y="197.5474">espaceCours = recupererUnEspaceCours(idEspaceCours)</text><path d="M5,175.9141 L5,215.9141 L306,215.9141 L306,185.9141 L296,175.9141 L5,175.9141 " fill="#FBFB77" style="stroke:#A80036;stroke-width:1.0;"/><path d="M296,175.9141 L296,185.9141 L306,185.9141 L296,175.9141 " fill="#FBFB77" style="stroke:#A80036;stroke-width:1.0;"/><text fill="#000000" font-family="Verdana" font-size="13" lengthAdjust="spacing" textLength="231" x="11" y="192.981">Selon expert, universite a toutes les</text><text fill="#000000" font-family="Verdana" font-size="13" lengthAdjust="spacing" textLength="280" x="11" y="208.1138">informations pour recupererUnEspaceCours</text><polygon fill="#A80036" points="889.5,241.3125,899.5,245.3125,889.5,249.3125" style="stroke:#A80036;stroke-width:1.0;"/><line style="stroke:#A80036;stroke-width:1.0;" x1="311" x2="895.5" y1="245.3125" y2="245.3125"/><text fill="#000000" font-family="Verdana" font-size="13" lengthAdjust="spacing" textLength="383" x="318" y="240.2466">questionnaire = recupererUnQuestionnaire(idQuestionnaire)</text><path d="M204,226.1797 L204,251.1797 L306,251.1797 L306,236.1797 L296,226.1797 L204,226.1797 " fill="#FBFB77" style="stroke:#A80036;stroke-width:1.0;"/><path d="M296,226.1797 L296,236.1797 L306,236.1797 L296,226.1797 " fill="#FBFB77" style="stroke:#A80036;stroke-width:1.0;"/><text fill="#000000" font-family="Verdana" font-size="13" lengthAdjust="spacing" textLength="81" x="210" y="243.2466">Selon expert</text><polygon fill="#A80036" points="1116.5,291.5781,1126.5,295.5781,1116.5,299.5781" style="stroke:#A80036;stroke-width:1.0;"/><line style="stroke:#A80036;stroke-width:1.0;" x1="311" x2="1122.5" y1="295.5781" y2="295.5781"/><text fill="#000000" font-family="Verdana" font-size="13" lengthAdjust="spacing" textLength="167" x="318" y="290.5122">modifier(description, etat)</text><path d="M125,261.3125 L125,316.3125 L306,316.3125 L306,271.3125 L296,261.3125 L125,261.3125 " fill="#FBFB77" style="stroke:#A80036;stroke-width:1.0;"/><path d="M296,261.3125 L296,271.3125 L306,271.3125 L296,261.3125 " fill="#FBFB77" style="stroke:#A80036;stroke-width:1.0;"/><text fill="#000000" font-family="Verdana" font-size="13" lengthAdjust="spacing" textLength="159" x="131" y="278.3794">Selon expert, description</text><text fill="#000000" font-family="Verdana" font-size="13" lengthAdjust="spacing" textLength="160" x="131" y="293.5122">et etat sont des attributs</text><text fill="#000000" font-family="Verdana" font-size="13" lengthAdjust="spacing" textLength="109" x="131" y="308.645">de Questionnaire</text><!--MD5=[c0f1b333df681886638bc8c691d93397]
@startuml
skinparam style strictuml
skinparam defaultfontname Verdana
title RDCU modifierQuestionnaire
participant ": GestionnaireQuestionnaire" as gestionnaireQuestion
participant "universite : Universite" as universite
participant "espaceCours : EspaceCours" as cours
participant "questionnaire : Questionnaire" as questionnaire
-> gestionnaireQuestion : modifierQuestionnaire\n(idEspaceCours,\nidQuestionnaire,\ndescription,\netat)
note left : Selon contr么leur,\ncontr么leur de session
gestionnaireQuestion -> universite : espaceCours = recupererUnEspaceCours(idEspaceCours)
note left : Selon expert, universite a toutes les\ninformations pour recupererUnEspaceCours
gestionnaireQuestion -> cours : questionnaire = recupererUnQuestionnaire(idQuestionnaire)
note left : Selon expert
gestionnaireQuestion -> questionnaire : modifier(description, etat)
note left : Selon expert, description\net etat sont des attributs\nde Questionnaire
@enduml

PlantUML version 1.2021.9beta2(Unknown compile time)
(GPL source distribution)
Java Runtime: Java(TM) SE Runtime Environment
JVM: Java HotSpot(TM) 64-Bit Server VM
Default Encoding: UTF-8
Language: en
Country: US
--></g></svg>