<?xml version="1.0" encoding="UTF-8" standalone="no"?><svg xmlns="http://www.w3.org/2000/svg" xmlns:xlink="http://www.w3.org/1999/xlink" contentScriptType="application/ecmascript" contentStyleType="text/css" height="269px" preserveAspectRatio="none" style="width:1290px;height:269px;background:#FFFFFF;" version="1.1" viewBox="0 0 1290 269" width="1290px" zoomAndPan="magnify"><defs/><g><text fill="#000000" font-family="Verdana" font-size="18" lengthAdjust="spacing" textLength="377" x="456" y="28.708">RDCU recupererQuestionsQuestionnaire</text><line style="stroke:#A80036;stroke-width:1.0;stroke-dasharray:5.0,5.0;" x1="353.5" x2="353.5" y1="71.25" y2="262.0469"/><line style="stroke:#A80036;stroke-width:1.0;stroke-dasharray:5.0,5.0;" x1="745" x2="745" y1="71.25" y2="262.0469"/><line style="stroke:#A80036;stroke-width:1.0;stroke-dasharray:5.0,5.0;" x1="944" x2="944" y1="71.25" y2="262.0469"/><line style="stroke:#A80036;stroke-width:1.0;stroke-dasharray:5.0,5.0;" x1="1171" x2="1171" y1="71.25" y2="262.0469"/><rect fill="#FEFECE" height="30.2969" style="stroke:#A80036;stroke-width:1.5;" width="215" x="246.5" y="39.9531"/><text fill="#000000" font-family="Verdana" font-size="14" lengthAdjust="spacing" textLength="201" x="253.5" y="59.9482">: GestionnaireQuestionnaire</text><rect fill="#FEFECE" height="30.2969" style="stroke:#A80036;stroke-width:1.5;" width="170" x="660" y="39.9531"/><text fill="#000000" font-family="Verdana" font-size="14" lengthAdjust="spacing" textLength="156" x="667" y="59.9482">universite : Universite</text><rect fill="#FEFECE" height="30.2969" style="stroke:#A80036;stroke-width:1.5;" width="209" x="840" y="39.9531"/><text fill="#000000" font-family="Verdana" font-size="14" lengthAdjust="spacing" textLength="195" x="847" y="59.9482">espaceCours : EspaceCours</text><rect fill="#FEFECE" height="30.2969" style="stroke:#A80036;stroke-width:1.5;" width="225" x="1059" y="39.9531"/><text fill="#000000" font-family="Verdana" font-size="14" lengthAdjust="spacing" textLength="211" x="1066" y="59.9482">questionnaire : Questionnaire</text><polygon fill="#A80036" points="342,116.5156,352,120.5156,342,124.5156" style="stroke:#A80036;stroke-width:1.0;"/><line style="stroke:#A80036;stroke-width:1.0;" x1="0" x2="348" y1="120.5156" y2="120.5156"/><text fill="#000000" font-family="Verdana" font-size="13" lengthAdjust="spacing" textLength="295" x="7" y="100.3169">questions = recupererQuestionsQuestionnaire</text><text fill="#000000" font-family="Verdana" font-size="13" lengthAdjust="spacing" textLength="330" x="7" y="115.4497">(idEspaceCours: number, idQuestionnaire: number)</text><path d="M359,86.25 L359,126.25 L517,126.25 L517,96.25 L507,86.25 L359,86.25 " fill="#FBFB77" style="stroke:#A80036;stroke-width:1.0;"/><path d="M507,86.25 L507,96.25 L517,96.25 L507,86.25 " fill="#FBFB77" style="stroke:#A80036;stroke-width:1.0;"/><text fill="#000000" font-family="Verdana" font-size="13" lengthAdjust="spacing" textLength="108" x="365" y="103.3169">Selon contr么leur,</text><text fill="#000000" font-family="Verdana" font-size="13" lengthAdjust="spacing" textLength="137" x="365" y="118.4497">contr么leur de session</text><polygon fill="#A80036" points="733,159.2148,743,163.2148,733,167.2148" style="stroke:#A80036;stroke-width:1.0;"/><line style="stroke:#A80036;stroke-width:1.0;" x1="354" x2="739" y1="163.2148" y2="163.2148"/><text fill="#000000" font-family="Verdana" font-size="13" lengthAdjust="spacing" textLength="367" x="361" y="158.1489">espaceCours = recupererUnEspaceCours(idEspaceCours)</text><path d="M48,136.5156 L48,176.5156 L349,176.5156 L349,146.5156 L339,136.5156 L48,136.5156 " fill="#FBFB77" style="stroke:#A80036;stroke-width:1.0;"/><path d="M339,136.5156 L339,146.5156 L349,146.5156 L339,136.5156 " fill="#FBFB77" style="stroke:#A80036;stroke-width:1.0;"/><text fill="#000000" font-family="Verdana" font-size="13" lengthAdjust="spacing" textLength="231" x="54" y="153.5825">Selon expert, universite a toutes les</text><text fill="#000000" font-family="Verdana" font-size="13" lengthAdjust="spacing" textLength="280" x="54" y="168.7153">informations pour recupererUnEspaceCours</text><polygon fill="#A80036" points="932.5,201.9141,942.5,205.9141,932.5,209.9141" style="stroke:#A80036;stroke-width:1.0;"/><line style="stroke:#A80036;stroke-width:1.0;" x1="354" x2="938.5" y1="205.9141" y2="205.9141"/><text fill="#000000" font-family="Verdana" font-size="13" lengthAdjust="spacing" textLength="383" x="361" y="200.8481">questionnaire = recupererUnQuestionnaire(idQuestionnaire)</text><path d="M247,186.7813 L247,211.7813 L349,211.7813 L349,196.7813 L339,186.7813 L247,186.7813 " fill="#FBFB77" style="stroke:#A80036;stroke-width:1.0;"/><path d="M339,186.7813 L339,196.7813 L349,196.7813 L339,186.7813 " fill="#FBFB77" style="stroke:#A80036;stroke-width:1.0;"/><text fill="#000000" font-family="Verdana" font-size="13" lengthAdjust="spacing" textLength="81" x="253" y="203.8481">Selon expert</text><polygon fill="#A80036" points="1159.5,237.0469,1169.5,241.0469,1159.5,245.0469" style="stroke:#A80036;stroke-width:1.0;"/><line style="stroke:#A80036;stroke-width:1.0;" x1="354" x2="1165.5" y1="241.0469" y2="241.0469"/><text fill="#000000" font-family="Verdana" font-size="13" lengthAdjust="spacing" textLength="175" x="361" y="235.981">questions = getQuestions()</text><path d="M247,221.9141 L247,246.9141 L349,246.9141 L349,231.9141 L339,221.9141 L247,221.9141 " fill="#FBFB77" style="stroke:#A80036;stroke-width:1.0;"/><path d="M339,221.9141 L339,231.9141 L349,231.9141 L339,221.9141 " fill="#FBFB77" style="stroke:#A80036;stroke-width:1.0;"/><text fill="#000000" font-family="Verdana" font-size="13" lengthAdjust="spacing" textLength="81" x="253" y="238.981">Selon expert</text><!--MD5=[2d4c067052f5dde0a2df9baae825505f]
@startuml
skinparam style strictuml
skinparam defaultfontname Verdana
title RDCU recupererQuestionsQuestionnaire
participant ": GestionnaireQuestionnaire" as gestionnaireQuestion
participant "universite : Universite" as universite
participant "espaceCours : EspaceCours" as cours
participant "questionnaire : Questionnaire" as questionnaire
-> gestionnaireQuestion : questions = recupererQuestionsQuestionnaire\n(idEspaceCours: number, idQuestionnaire: number)
note left : Selon contr么leur,\ncontr么leur de session
gestionnaireQuestion -> universite : espaceCours = recupererUnEspaceCours(idEspaceCours)
note left : Selon expert, universite a toutes les\ninformations pour recupererUnEspaceCours
gestionnaireQuestion -> cours : questionnaire = recupererUnQuestionnaire(idQuestionnaire)
note left : Selon expert
gestionnaireQuestion -> questionnaire : questions = getQuestions()
note left : Selon expert
@enduml

PlantUML version 1.2021.9beta2(Unknown compile time)
(GPL source distribution)
Java Runtime: Java(TM) SE Runtime Environment
JVM: Java HotSpot(TM) 64-Bit Server VM
Default Encoding: UTF-8
Language: en
Country: US
--></g></svg>