<?xml version="1.0" encoding="UTF-8" standalone="no"?><svg xmlns="http://www.w3.org/2000/svg" xmlns:xlink="http://www.w3.org/1999/xlink" contentScriptType="application/ecmascript" contentStyleType="text/css" height="249px" preserveAspectRatio="none" style="width:1129px;height:249px;background:#FFFFFF;" version="1.1" viewBox="0 0 1129 249" width="1129px" zoomAndPan="magnify"><defs/><g><text fill="#000000" font-family="Verdana" font-size="18" lengthAdjust="spacing" textLength="543" x="292.5" y="28.708">RDCU pour récupérer une question créée d'un enseignant</text><line style="stroke:#A80036;stroke-width:1.0;stroke-dasharray:5.0,5.0;" x1="427.5" x2="427.5" y1="71.25" y2="242.0469"/><line style="stroke:#A80036;stroke-width:1.0;stroke-dasharray:5.0,5.0;" x1="819" x2="819" y1="71.25" y2="242.0469"/><line style="stroke:#A80036;stroke-width:1.0;stroke-dasharray:5.0,5.0;" x1="1018" x2="1018" y1="71.25" y2="242.0469"/><rect fill="#FEFECE" height="30.2969" style="stroke:#A80036;stroke-width:1.5;" width="251" x="302.5" y="39.9531"/><text fill="#000000" font-family="Verdana" font-size="14" lengthAdjust="spacing" textLength="237" x="309.5" y="59.9482">operationCours : OperationCours</text><rect fill="#FEFECE" height="30.2969" style="stroke:#A80036;stroke-width:1.5;" width="170" x="734" y="39.9531"/><text fill="#000000" font-family="Verdana" font-size="14" lengthAdjust="spacing" textLength="156" x="741" y="59.9482">universite : Universite</text><rect fill="#FEFECE" height="30.2969" style="stroke:#A80036;stroke-width:1.5;" width="209" x="914" y="39.9531"/><text fill="#000000" font-family="Verdana" font-size="14" lengthAdjust="spacing" textLength="195" x="921" y="59.9482">espaceCours : EspaceCours</text><polygon fill="#A80036" points="416,108.9492,426,112.9492,416,116.9492" style="stroke:#A80036;stroke-width:1.0;"/><line style="stroke:#A80036;stroke-width:1.0;" x1="0" x2="422" y1="112.9492" y2="112.9492"/><text fill="#000000" font-family="Verdana" font-size="13" lengthAdjust="spacing" textLength="404" x="7" y="107.8833">questions = recupererUneQuestion(idEspaceCours, idQuestion)</text><path d="M433,86.25 L433,126.25 L621,126.25 L621,96.25 L611,86.25 L433,86.25 " fill="#FBFB77" style="stroke:#A80036;stroke-width:1.0;"/><path d="M611,86.25 L611,96.25 L621,96.25 L611,86.25 " fill="#FBFB77" style="stroke:#A80036;stroke-width:1.0;"/><text fill="#000000" font-family="Verdana" font-size="13" lengthAdjust="spacing" textLength="105" x="439" y="103.3169">Selon Contôleur,</text><text fill="#000000" font-family="Verdana" font-size="13" lengthAdjust="spacing" textLength="167" x="439" y="118.4497">reçoit l'opération système</text><polygon fill="#A80036" points="807,159.2148,817,163.2148,807,167.2148" style="stroke:#A80036;stroke-width:1.0;"/><line style="stroke:#A80036;stroke-width:1.0;" x1="428" x2="813" y1="163.2148" y2="163.2148"/><text fill="#000000" font-family="Verdana" font-size="13" lengthAdjust="spacing" textLength="367" x="435" y="158.1489">espaceCours = recupererUnEspaceCours(idEspaceCours)</text><path d="M122,136.5156 L122,176.5156 L423,176.5156 L423,146.5156 L413,136.5156 L122,136.5156 " fill="#FBFB77" style="stroke:#A80036;stroke-width:1.0;"/><path d="M413,136.5156 L413,146.5156 L423,146.5156 L413,136.5156 " fill="#FBFB77" style="stroke:#A80036;stroke-width:1.0;"/><text fill="#000000" font-family="Verdana" font-size="13" lengthAdjust="spacing" textLength="231" x="128" y="153.5825">Selon expert, universite a toutes les</text><text fill="#000000" font-family="Verdana" font-size="13" lengthAdjust="spacing" textLength="280" x="128" y="168.7153">informations pour recupererUnEspaceCours</text><polygon fill="#A80036" points="1006.5,209.4805,1016.5,213.4805,1006.5,217.4805" style="stroke:#A80036;stroke-width:1.0;"/><line style="stroke:#A80036;stroke-width:1.0;" x1="428" x2="1012.5" y1="213.4805" y2="213.4805"/><text fill="#000000" font-family="Verdana" font-size="13" lengthAdjust="spacing" textLength="302" x="435" y="208.4146">questions = recupererUneQuestion(IdQuestion)</text><path d="M140,186.7813 L140,226.7813 L423,226.7813 L423,196.7813 L413,186.7813 L140,186.7813 " fill="#FBFB77" style="stroke:#A80036;stroke-width:1.0;"/><path d="M413,186.7813 L413,196.7813 L423,196.7813 L413,186.7813 " fill="#FBFB77" style="stroke:#A80036;stroke-width:1.0;"/><text fill="#000000" font-family="Verdana" font-size="13" lengthAdjust="spacing" textLength="251" x="146" y="203.8481">Selon expert, espaceCours a toutes les</text><text fill="#000000" font-family="Verdana" font-size="13" lengthAdjust="spacing" textLength="262" x="146" y="218.981">informations pour recupererUneQuestion</text><!--MD5=[413277cfde818e107ddca8946604263c]
@startuml
skinparam style strictuml
skinparam defaultfontname Verdana
title RDCU pour récupérer une question créée d'un enseignant
participant "operationCours : OperationCours" as opCours
participant "universite : Universite" as universite
participant "espaceCours : EspaceCours" as cours

->opCours : questions = recupererUneQuestion(idEspaceCours, idQuestion)
note left : Selon Contôleur,\nreçoit l'opération système
opCours -> universite : espaceCours = recupererUnEspaceCours(idEspaceCours)
note left : Selon expert, universite a toutes les\ninformations pour recupererUnEspaceCours
opCours -> cours : questions = recupererUneQuestion(IdQuestion)
note left : Selon expert, espaceCours a toutes les\ninformations pour recupererUneQuestion
@enduml

PlantUML version 1.2021.9beta2(Unknown compile time)
(GPL source distribution)
Java Runtime: Java(TM) SE Runtime Environment
JVM: Java HotSpot(TM) 64-Bit Server VM
Default Encoding: UTF-8
Language: en
Country: US
--></g></svg>