<?xml version="1.0" encoding="UTF-8" standalone="no"?><svg xmlns="http://www.w3.org/2000/svg" xmlns:xlink="http://www.w3.org/1999/xlink" contentScriptType="application/ecmascript" contentStyleType="text/css" height="295px" preserveAspectRatio="none" style="width:1083px;height:295px;background:#FFFFFF;" version="1.1" viewBox="0 0 1083 295" width="1083px" zoomAndPan="magnify"><defs/><g><text fill="#000000" font-family="Verdana" font-size="18" lengthAdjust="spacing" textLength="620" x="233.5" y="28.708">RDCU pour récupérer toutes les questions créées d'un enseignant</text><rect fill="#FFFFFF" height="82.5313" style="stroke:#000000;stroke-width:2.0;" width="1067" x="10" y="188.7813"/><line style="stroke:#A80036;stroke-width:1.0;stroke-dasharray:5.0,5.0;" x1="387.5" x2="387.5" y1="71.25" y2="288.3125"/><line style="stroke:#A80036;stroke-width:1.0;stroke-dasharray:5.0,5.0;" x1="742" x2="742" y1="71.25" y2="288.3125"/><line style="stroke:#A80036;stroke-width:1.0;stroke-dasharray:5.0,5.0;" x1="952" x2="952" y1="71.25" y2="288.3125"/><rect fill="#FEFECE" height="30.2969" style="stroke:#A80036;stroke-width:1.5;" width="251" x="262.5" y="39.9531"/><text fill="#000000" font-family="Verdana" font-size="14" lengthAdjust="spacing" textLength="237" x="269.5" y="59.9482">operationCours : OperationCours</text><rect fill="#FEFECE" height="30.2969" style="stroke:#A80036;stroke-width:1.5;" width="170" x="657" y="39.9531"/><text fill="#000000" font-family="Verdana" font-size="14" lengthAdjust="spacing" textLength="156" x="664" y="59.9482">universite : Universite</text><rect fill="#FEFECE" height="30.2969" style="stroke:#A80036;stroke-width:1.5;" width="230" x="837" y="39.9531"/><text fill="#000000" font-family="Verdana" font-size="14" lengthAdjust="spacing" textLength="216" x="844" y="59.9482">espacesCours[i] : EspaceCours</text><polygon fill="#A80036" points="376,108.9492,386,112.9492,376,116.9492" style="stroke:#A80036;stroke-width:1.0;"/><line style="stroke:#A80036;stroke-width:1.0;" x1="0" x2="382" y1="112.9492" y2="112.9492"/><text fill="#000000" font-family="Verdana" font-size="13" lengthAdjust="spacing" textLength="296" x="7" y="107.8833">questions = recupererToutesQuestions(token)</text><path d="M393,86.25 L393,126.25 L652,126.25 L652,96.25 L642,86.25 L393,86.25 " fill="#FBFB77" style="stroke:#A80036;stroke-width:1.0;"/><path d="M642,86.25 L642,96.25 L652,96.25 L642,86.25 " fill="#FBFB77" style="stroke:#A80036;stroke-width:1.0;"/><text fill="#000000" font-family="Verdana" font-size="13" lengthAdjust="spacing" textLength="105" x="399" y="103.3169">Selon Contôleur,</text><text fill="#000000" font-family="Verdana" font-size="13" lengthAdjust="spacing" textLength="238" x="399" y="118.4497">reçoit la première opération système</text><polygon fill="#A80036" points="730,159.2148,740,163.2148,730,167.2148" style="stroke:#A80036;stroke-width:1.0;"/><line style="stroke:#A80036;stroke-width:1.0;" x1="388" x2="736" y1="163.2148" y2="163.2148"/><text fill="#000000" font-family="Verdana" font-size="13" lengthAdjust="spacing" textLength="330" x="395" y="158.1489">espacesCours = recupererTousEspaceCours(token)</text><path d="M68,136.5156 L68,176.5156 L383,176.5156 L383,146.5156 L373,136.5156 L68,136.5156 " fill="#FBFB77" style="stroke:#A80036;stroke-width:1.0;"/><path d="M373,136.5156 L373,146.5156 L383,146.5156 L373,136.5156 " fill="#FBFB77" style="stroke:#A80036;stroke-width:1.0;"/><text fill="#000000" font-family="Verdana" font-size="13" lengthAdjust="spacing" textLength="231" x="74" y="153.5825">Selon expert, universite a toutes les</text><text fill="#000000" font-family="Verdana" font-size="13" lengthAdjust="spacing" textLength="294" x="74" y="168.7153">informations pour recupererTousEspaceCours</text><path d="M10,188.7813 L88,188.7813 L88,195.7813 L78,205.7813 L10,205.7813 L10,188.7813 " fill="#EEEEEE" style="stroke:#000000;stroke-width:1.0;"/><rect fill="none" height="82.5313" style="stroke:#000000;stroke-width:2.0;" width="1067" x="10" y="188.7813"/><text fill="#000000" font-family="Verdana" font-size="13" font-weight="bold" lengthAdjust="spacing" textLength="33" x="25" y="201.8481">loop</text><text fill="#000000" font-family="Verdana" font-size="11" font-weight="bold" lengthAdjust="spacing" textLength="149" x="103" y="200.9917">[espacesCours.length]</text><polygon fill="#A80036" points="940,241.1797,950,245.1797,940,249.1797" style="stroke:#A80036;stroke-width:1.0;"/><line style="stroke:#A80036;stroke-width:1.0;" x1="388" x2="946" y1="245.1797" y2="245.1797"/><text fill="#000000" font-family="Verdana" font-size="13" lengthAdjust="spacing" textLength="270" x="395" y="240.1138">questions += recupererToutesQuestions()</text><path d="M20,210.9141 L20,265.9141 L383,265.9141 L383,220.9141 L373,210.9141 L20,210.9141 " fill="#FBFB77" style="stroke:#A80036;stroke-width:1.0;"/><path d="M373,210.9141 L373,220.9141 L383,220.9141 L373,210.9141 " fill="#FBFB77" style="stroke:#A80036;stroke-width:1.0;"/><text fill="#000000" font-family="Verdana" font-size="13" lengthAdjust="spacing" textLength="302" x="26" y="227.981">Selon expert, chaque espaceCours a toutes les</text><text fill="#000000" font-family="Verdana" font-size="13" lengthAdjust="spacing" textLength="114" x="26" y="243.1138">informations pour</text><text fill="#000000" font-family="Verdana" font-size="13" lengthAdjust="spacing" textLength="342" x="26" y="258.2466">recupererToutesQuestions de l'espaceCours en cours</text><!--MD5=[e40f867e9eda2a22a8805382db8c2560]
@startuml
skinparam style strictuml
skinparam defaultfontname Verdana
title RDCU pour récupérer toutes les questions créées d'un enseignant
participant "operationCours : OperationCours" as opCours
participant "universite : Universite" as universite
participant "espacesCours[i] : EspaceCours" as cours

->opCours : questions = recupererToutesQuestions(token)
note left : Selon Contôleur,\nreçoit la première opération système
opCours -> universite : espacesCours = recupererTousEspaceCours(token)
note left : Selon expert, universite a toutes les\ninformations pour recupererTousEspaceCours
loop espacesCours.length
opCours -> cours : questions += recupererToutesQuestions()
note left : Selon expert, chaque espaceCours a toutes les\ninformations pour\nrecupererToutesQuestions de l'espaceCours en cours
end
@enduml

PlantUML version 1.2021.7(Sun May 23 12:40:07 UTC 2021)
(GPL source distribution)
Java Runtime: Java(TM) SE Runtime Environment
JVM: Java HotSpot(TM) 64-Bit Server VM
Default Encoding: UTF-8
Language: en
Country: US
--></g></svg>