<?xml version="1.0" encoding="UTF-8" standalone="no"?><svg xmlns="http://www.w3.org/2000/svg" xmlns:xlink="http://www.w3.org/1999/xlink" contentScriptType="application/ecmascript" contentStyleType="text/css" height="522px" preserveAspectRatio="none" style="width:1750px;height:522px;background:#FFFFFF;" version="1.1" viewBox="0 0 1750 522" width="1750px" zoomAndPan="magnify"><defs/><g><text fill="#000000" font-family="Verdana" font-size="18" lengthAdjust="spacing" textLength="619" x="567.75" y="28.708">RDCU pour récupérer tous les espaceCours créés d'un enseignant</text><rect fill="#FFFFFF" height="214.1953" style="stroke:#000000;stroke-width:2.0;" width="1258.5" x="486" y="284.4453"/><rect fill="#FFFFFF" height="52.2656" style="stroke:#000000;stroke-width:2.0;" width="1082.5" x="652" y="439.375"/><line style="stroke:#A80036;stroke-width:1.0;stroke-dasharray:5.0,5.0;" x1="353.5" x2="353.5" y1="71.25" y2="515.6406"/><line style="stroke:#A80036;stroke-width:1.0;stroke-dasharray:5.0,5.0;" x1="768.5" x2="768.5" y1="71.25" y2="515.6406"/><line style="stroke:#A80036;stroke-width:1.0;stroke-dasharray:5.0,5.0;" x1="1040.5" x2="1040.5" y1="71.25" y2="515.6406"/><line style="stroke:#A80036;stroke-width:1.0;stroke-dasharray:5.0,5.0;" x1="1293.5" x2="1293.5" y1="71.25" y2="515.6406"/><line style="stroke:#A80036;stroke-width:1.0;stroke-dasharray:5.0,5.0;" x1="1580.5" x2="1580.5" y1="247.1797" y2="515.6406"/><rect fill="#FEFECE" height="30.2969" style="stroke:#A80036;stroke-width:1.5;" width="151" x="278.5" y="39.9531"/><text fill="#000000" font-family="Verdana" font-size="14" lengthAdjust="spacing" textLength="137" x="285.5" y="59.9482">:GestionnaireCours</text><rect fill="#FEFECE" height="30.2969" style="stroke:#A80036;stroke-width:1.5;" width="95" x="721.5" y="39.9531"/><text fill="#000000" font-family="Verdana" font-size="14" lengthAdjust="spacing" textLength="81" x="728.5" y="59.9482">: Universite</text><rect fill="#FEFECE" height="30.2969" style="stroke:#A80036;stroke-width:1.5;" width="219" x="931.5" y="39.9531"/><text fill="#000000" font-family="Verdana" font-size="14" lengthAdjust="spacing" textLength="205" x="938.5" y="59.9482">espaceCours : EspaceCours[]</text><rect fill="#FEFECE" height="30.2969" style="stroke:#A80036;stroke-width:1.5;" width="266" x="1160.5" y="39.9531"/><text fill="#000000" font-family="Verdana" font-size="14" lengthAdjust="spacing" textLength="252" x="1167.5" y="59.9482">espaceCoursCourant : EspaceCours</text><polygon fill="#A80036" points="342,108.9492,352,112.9492,342,116.9492" style="stroke:#A80036;stroke-width:1.0;"/><line style="stroke:#A80036;stroke-width:1.0;" x1="0" x2="348" y1="112.9492" y2="112.9492"/><text fill="#000000" font-family="Verdana" font-size="13" lengthAdjust="spacing" textLength="330" x="7" y="107.8833">espacesCours = recupererTousEspaceCours(token)</text><path d="M359,86.25 L359,126.25 L547,126.25 L547,96.25 L537,86.25 L359,86.25 " fill="#FBFB77" style="stroke:#A80036;stroke-width:1.0;"/><path d="M537,86.25 L537,96.25 L547,96.25 L537,86.25 " fill="#FBFB77" style="stroke:#A80036;stroke-width:1.0;"/><text fill="#000000" font-family="Verdana" font-size="13" lengthAdjust="spacing" textLength="105" x="365" y="103.3169">Selon Contôleur,</text><text fill="#000000" font-family="Verdana" font-size="13" lengthAdjust="spacing" textLength="167" x="365" y="118.4497">reçoit l'opération système</text><polygon fill="#A80036" points="757,166.7813,767,170.7813,757,174.7813" style="stroke:#A80036;stroke-width:1.0;"/><line style="stroke:#A80036;stroke-width:1.0;" x1="354" x2="763" y1="170.7813" y2="170.7813"/><text fill="#000000" font-family="Verdana" font-size="13" lengthAdjust="spacing" textLength="391" x="361" y="165.7153">espacesCoursResultant = recupererTousEspaceCours(token)</text><path d="M58,136.5156 L58,191.5156 L349,191.5156 L349,146.5156 L339,136.5156 L58,136.5156 " fill="#FBFB77" style="stroke:#A80036;stroke-width:1.0;"/><path d="M339,136.5156 L339,146.5156 L349,146.5156 L339,136.5156 " fill="#FBFB77" style="stroke:#A80036;stroke-width:1.0;"/><text fill="#000000" font-family="Verdana" font-size="13" lengthAdjust="spacing" textLength="203" x="64" y="153.5825">Selon expert, Universite a toute</text><text fill="#000000" font-family="Verdana" font-size="13" lengthAdjust="spacing" textLength="161" x="64" y="168.7153">les informations requises</text><text fill="#000000" font-family="Verdana" font-size="13" lengthAdjust="spacing" textLength="270" x="64" y="183.8481">pour exécuter recupererTousEspaceCours</text><polygon fill="#A80036" points="1424.5,214.0469,1434.5,218.0469,1424.5,222.0469" style="stroke:#A80036;stroke-width:1.0;"/><line style="stroke:#A80036;stroke-width:1.0;stroke-dasharray:2.0,2.0;" x1="769" x2="1430.5" y1="218.0469" y2="218.0469"/><text fill="#000000" font-family="Verdana" font-size="13" lengthAdjust="spacing" textLength="51" x="776" y="212.981">create()</text><rect fill="#FEFECE" height="30.2969" style="stroke:#A80036;stroke-width:1.5;" width="288" x="1436.5" y="216.5313"/><text fill="#000000" font-family="Verdana" font-size="14" lengthAdjust="spacing" textLength="274" x="1443.5" y="236.5264">espaceCoursResultant : EspaceCours[]</text><path d="M512,201.9141 L512,271.9141 L764,271.9141 L764,211.9141 L754,201.9141 L512,201.9141 " fill="#FBFB77" style="stroke:#A80036;stroke-width:1.0;"/><path d="M754,201.9141 L754,211.9141 L764,211.9141 L754,201.9141 " fill="#FBFB77" style="stroke:#A80036;stroke-width:1.0;"/><text fill="#000000" font-family="Verdana" font-size="13" lengthAdjust="spacing" textLength="205" x="518" y="218.981">Selon créateur, universite utilise</text><text fill="#000000" font-family="Verdana" font-size="13" lengthAdjust="spacing" textLength="228" x="518" y="234.1138">étroitement espaceCoursResultant.</text><text fill="#000000" font-family="Verdana" font-size="13" lengthAdjust="spacing" textLength="231" x="518" y="249.2466">Utilisé pour stocker les espaceCours</text><text fill="#000000" font-family="Verdana" font-size="13" lengthAdjust="spacing" textLength="76" x="518" y="264.3794">à retourner.</text><path d="M486,284.4453 L564,284.4453 L564,291.4453 L554,301.4453 L486,301.4453 L486,284.4453 " fill="#EEEEEE" style="stroke:#000000;stroke-width:1.0;"/><rect fill="none" height="214.1953" style="stroke:#000000;stroke-width:2.0;" width="1258.5" x="486" y="284.4453"/><text fill="#000000" font-family="Verdana" font-size="13" font-weight="bold" lengthAdjust="spacing" textLength="33" x="501" y="297.5122">loop</text><text fill="#000000" font-family="Verdana" font-size="11" font-weight="bold" lengthAdjust="spacing" textLength="142" x="579" y="296.6558">[espaceCours.length]</text><polygon fill="#A80036" points="1029,351.9766,1039,355.9766,1029,359.9766" style="stroke:#A80036;stroke-width:1.0;"/><line style="stroke:#A80036;stroke-width:1.0;" x1="769" x2="1035" y1="355.9766" y2="355.9766"/><text fill="#000000" font-family="Verdana" font-size="13" lengthAdjust="spacing" textLength="248" x="776" y="350.9106">espaceCoursCourant = espaceCours[i]</text><path d="M496,306.5781 L496,391.5781 L764,391.5781 L764,316.5781 L754,306.5781 L496,306.5781 " fill="#FBFB77" style="stroke:#A80036;stroke-width:1.0;"/><path d="M754,306.5781 L754,316.5781 L764,316.5781 L754,306.5781 " fill="#FBFB77" style="stroke:#A80036;stroke-width:1.0;"/><text fill="#000000" font-family="Verdana" font-size="13" lengthAdjust="spacing" textLength="228" x="502" y="323.645">EspaceCours correspond à l'attribut</text><text fill="#000000" font-family="Verdana" font-size="13" lengthAdjust="spacing" textLength="198" x="502" y="338.7778">d'universite qui enregistre tous</text><text fill="#000000" font-family="Verdana" font-size="13" lengthAdjust="spacing" textLength="247" x="502" y="353.9106">les espaceCours. EspaceCoursCourant</text><text fill="#000000" font-family="Verdana" font-size="13" lengthAdjust="spacing" textLength="224" x="502" y="369.0435">correspond à l'espaceCours qui est</text><text fill="#000000" font-family="Verdana" font-size="13" lengthAdjust="spacing" textLength="144" x="502" y="384.1763">en train d'être analysé</text><polygon fill="#A80036" points="1281.5,417.375,1291.5,421.375,1281.5,425.375" style="stroke:#A80036;stroke-width:1.0;"/><line style="stroke:#A80036;stroke-width:1.0;" x1="769" x2="1287.5" y1="421.375" y2="421.375"/><text fill="#000000" font-family="Verdana" font-size="13" lengthAdjust="spacing" textLength="142" x="776" y="416.3091">id = getIdEnseignant()</text><path d="M662,402.2422 L662,427.2422 L764,427.2422 L764,412.2422 L754,402.2422 L662,402.2422 " fill="#FBFB77" style="stroke:#A80036;stroke-width:1.0;"/><path d="M754,402.2422 L754,412.2422 L764,412.2422 L754,402.2422 " fill="#FBFB77" style="stroke:#A80036;stroke-width:1.0;"/><text fill="#000000" font-family="Verdana" font-size="13" lengthAdjust="spacing" textLength="81" x="668" y="419.3091">Selon expert</text><path d="M652,439.375 L718,439.375 L718,446.375 L708,456.375 L652,456.375 L652,439.375 " fill="#EEEEEE" style="stroke:#000000;stroke-width:1.0;"/><rect fill="none" height="52.2656" style="stroke:#000000;stroke-width:2.0;" width="1082.5" x="652" y="439.375"/><text fill="#000000" font-family="Verdana" font-size="13" font-weight="bold" lengthAdjust="spacing" textLength="21" x="667" y="452.4419">alt</text><text fill="#000000" font-family="Verdana" font-size="11" font-weight="bold" lengthAdjust="spacing" textLength="87" x="733" y="451.5854">[id == token]</text><polygon fill="#A80036" points="1568.5,476.6406,1578.5,480.6406,1568.5,484.6406" style="stroke:#A80036;stroke-width:1.0;"/><line style="stroke:#A80036;stroke-width:1.0;" x1="769" x2="1574.5" y1="480.6406" y2="480.6406"/><text fill="#000000" font-family="Verdana" font-size="13" lengthAdjust="spacing" textLength="175" x="776" y="475.5747">push(espaceCoursCourant)</text><path d="M662,461.5078 L662,486.5078 L764,486.5078 L764,471.5078 L754,461.5078 L662,461.5078 " fill="#FBFB77" style="stroke:#A80036;stroke-width:1.0;"/><path d="M754,461.5078 L754,471.5078 L764,471.5078 L754,461.5078 " fill="#FBFB77" style="stroke:#A80036;stroke-width:1.0;"/><text fill="#000000" font-family="Verdana" font-size="13" lengthAdjust="spacing" textLength="81" x="668" y="478.5747">Selon expert</text><!--MD5=[41d8863b11202928d1795aae1358fd07]
@startuml
skinparam style strictuml
skinparam defaultfontname Verdana
title RDCU pour récupérer tous les espaceCours créés d'un enseignant
participant ":GestionnaireCours" as controleur
participant ": Universite" as mapCours
participant "espaceCours : EspaceCours[]" as cours 
participant "espaceCoursCourant : EspaceCours" as courant 
participant "espaceCoursResultant : EspaceCours[]" as resultat

->controleur : espacesCours = recupererTousEspaceCours(token)
note right : Selon Contôleur,\nreçoit l'opération système
controleur -> mapCours : espacesCoursResultant = recupererTousEspaceCours(token)
note left : Selon expert, Universite a toute\nles informations requises\npour exécuter recupererTousEspaceCours
mapCours - -> resultat** : create()
note left : Selon créateur, universite utilise\nétroitement espaceCoursResultant.\nUtilisé pour stocker les espaceCours\nà retourner.
loop espaceCours.length
mapCours -> cours : espaceCoursCourant = espaceCours[i]
note left : EspaceCours correspond à l'attribut\nd'universite qui enregistre tous\nles espaceCours. EspaceCoursCourant\ncorrespond à l'espaceCours qui est\nen train d'être analysé
mapCours -> courant : id = getIdEnseignant()
note left : Selon expert
alt id == token
mapCours -> resultat : push(espaceCoursCourant)
note left : Selon expert
end
end
@enduml

PlantUML version 1.2021.9beta2(Unknown compile time)
(GPL source distribution)
Java Runtime: Java(TM) SE Runtime Environment
JVM: Java HotSpot(TM) 64-Bit Server VM
Default Encoding: UTF-8
Language: en
Country: US
--></g></svg>