<?xml version="1.0" encoding="UTF-8" standalone="no"?><svg xmlns="http://www.w3.org/2000/svg" xmlns:xlink="http://www.w3.org/1999/xlink" contentScriptType="application/ecmascript" contentStyleType="text/css" height="520px" preserveAspectRatio="none" style="width:568px;height:520px;background:#FFFFFF;" version="1.1" viewBox="0 0 568 520" width="568px" zoomAndPan="magnify"><defs><filter height="300%" id="f1lzhpg6mgl35d" width="300%" x="-1" y="-1"><feGaussianBlur result="blurOut" stdDeviation="2.0"/><feColorMatrix in="blurOut" result="blurOut2" type="matrix" values="0 0 0 0 0 0 0 0 0 0 0 0 0 0 0 0 0 0 .4 0"/><feOffset dx="4.0" dy="4.0" in="blurOut2" result="blurOut3"/><feBlend in="SourceGraphic" in2="blurOut3" mode="normal"/></filter></defs><g><text fill="#000000" font-family="sans-serif" font-size="18" lengthAdjust="spacing" textLength="197" x="183.75" y="28.708">DSS recupererDevoir</text><rect fill="#FFFFFF" filter="url(#f1lzhpg6mgl35d)" height="282.4609" style="stroke:#000000;stroke-width:2.0;" width="544.5" x="10" y="213.6484"/><rect fill="#FFFFFF" filter="url(#f1lzhpg6mgl35d)" height="163.9297" style="stroke:#000000;stroke-width:2.0;" width="524.5" x="20" y="296.0469"/><line style="stroke:#A80036;stroke-width:1.0;stroke-dasharray:5.0,5.0;" x1="75" x2="75" y1="123.25" y2="513.1094"/><line style="stroke:#A80036;stroke-width:1.0;stroke-dasharray:5.0,5.0;" x1="491.5" x2="491.5" y1="123.25" y2="513.1094"/><text fill="#000000" font-family="sans-serif" font-size="14" lengthAdjust="spacing" textLength="85" x="30" y="119.9482">:Enseignant</text><ellipse cx="75.5" cy="49.9531" fill="#FEFECE" filter="url(#f1lzhpg6mgl35d)" rx="8" ry="8" style="stroke:#A80036;stroke-width:2.0;"/><path d="M75.5,57.9531 L75.5,84.9531 M62.5,65.9531 L88.5,65.9531 M75.5,84.9531 L62.5,99.9531 M75.5,84.9531 L88.5,99.9531 " fill="none" filter="url(#f1lzhpg6mgl35d)" style="stroke:#A80036;stroke-width:2.0;"/><rect fill="#FEFECE" filter="url(#f1lzhpg6mgl35d)" height="30.2969" style="stroke:#A80036;stroke-width:1.5;" width="82" x="448.5" y="87.9531"/><text fill="#000000" font-family="sans-serif" font-size="14" lengthAdjust="spacing" textLength="68" x="455.5" y="107.9482">:Systeme</text><polygon fill="#A80036" points="479.5,150.3828,489.5,154.3828,479.5,158.3828,483.5,154.3828" style="stroke:#A80036;stroke-width:1.0;"/><line style="stroke:#A80036;stroke-width:1.0;" x1="75.5" x2="485.5" y1="154.3828" y2="154.3828"/><text fill="#000000" font-family="sans-serif" font-size="13" lengthAdjust="spacing" textLength="272" x="82.5" y="149.3169">recupererTousEspaceCours(token : String)</text><polygon fill="#A80036" points="86.5,194.6484,76.5,198.6484,86.5,202.6484,82.5,198.6484" style="stroke:#A80036;stroke-width:1.0;"/><line style="stroke:#A80036;stroke-width:1.0;stroke-dasharray:2.0,2.0;" x1="80.5" x2="490.5" y1="198.6484" y2="198.6484"/><text fill="#000000" font-family="sans-serif" font-size="13" lengthAdjust="spacing" textLength="241" x="92.5" y="178.4497">liste des espaceCours de l'enseignant</text><text fill="#000000" font-family="sans-serif" font-size="13" lengthAdjust="spacing" textLength="274" x="92.5" y="193.5825">et le nombre de devoirs associés à chacun</text><path d="M10,213.6484 L88,213.6484 L88,220.6484 L78,230.6484 L10,230.6484 L10,213.6484 " fill="#EEEEEE" style="stroke:#000000;stroke-width:1.0;"/><rect fill="none" height="282.4609" style="stroke:#000000;stroke-width:2.0;" width="544.5" x="10" y="213.6484"/><text fill="#000000" font-family="sans-serif" font-size="13" font-weight="bold" lengthAdjust="spacing" textLength="33" x="25" y="226.7153">loop</text><text fill="#000000" font-family="sans-serif" font-size="11" font-weight="bold" lengthAdjust="spacing" textLength="270" x="103" y="225.8589">[!termineRecupererDevoirsEspaceCours]</text><polygon fill="#A80036" points="479.5,247.9141,489.5,251.9141,479.5,255.9141,483.5,251.9141" style="stroke:#A80036;stroke-width:1.0;"/><line style="stroke:#A80036;stroke-width:1.0;" x1="75.5" x2="485.5" y1="251.9141" y2="251.9141"/><text fill="#000000" font-family="sans-serif" font-size="13" lengthAdjust="spacing" textLength="392" x="82.5" y="246.8481">recupererTousDevoirsEspaceCours(idEspaceCours : number)</text><polygon fill="#A80036" points="86.5,277.0469,76.5,281.0469,86.5,285.0469,82.5,281.0469" style="stroke:#A80036;stroke-width:1.0;"/><line style="stroke:#A80036;stroke-width:1.0;stroke-dasharray:2.0,2.0;" x1="80.5" x2="490.5" y1="281.0469" y2="281.0469"/><text fill="#000000" font-family="sans-serif" font-size="13" lengthAdjust="spacing" textLength="212" x="92.5" y="275.981">devoir associées à l'espaceCours</text><path d="M20,296.0469 L98,296.0469 L98,303.0469 L88,313.0469 L20,313.0469 L20,296.0469 " fill="#EEEEEE" style="stroke:#000000;stroke-width:1.0;"/><rect fill="none" height="163.9297" style="stroke:#000000;stroke-width:2.0;" width="524.5" x="20" y="296.0469"/><text fill="#000000" font-family="sans-serif" font-size="13" font-weight="bold" lengthAdjust="spacing" textLength="33" x="35" y="309.1138">loop</text><text fill="#000000" font-family="sans-serif" font-size="11" font-weight="bold" lengthAdjust="spacing" textLength="196" x="113" y="308.2573">[!termineRecupererUnDevoir]</text><polygon fill="#A80036" points="479.5,345.4453,489.5,349.4453,479.5,353.4453,483.5,349.4453" style="stroke:#A80036;stroke-width:1.0;"/><line style="stroke:#A80036;stroke-width:1.0;" x1="75.5" x2="485.5" y1="349.4453" y2="349.4453"/><text fill="#000000" font-family="sans-serif" font-size="13" lengthAdjust="spacing" textLength="283" x="82.5" y="329.2466">recupererUnDevoir(idEspaceCours: number,</text><text fill="#000000" font-family="sans-serif" font-size="13" lengthAdjust="spacing" textLength="117" x="82.5" y="344.3794">IdDevoir: number)</text><polygon fill="#A80036" points="86.5,374.5781,76.5,378.5781,86.5,382.5781,82.5,378.5781" style="stroke:#A80036;stroke-width:1.0;"/><line style="stroke:#A80036;stroke-width:1.0;stroke-dasharray:2.0,2.0;" x1="80.5" x2="490.5" y1="378.5781" y2="378.5781"/><text fill="#000000" font-family="sans-serif" font-size="13" lengthAdjust="spacing" textLength="99" x="92.5" y="373.5122">détail du devoir</text><polygon fill="#A80036" points="86.5,418.8438,76.5,422.8438,86.5,426.8438,82.5,422.8438" style="stroke:#A80036;stroke-width:1.0;"/><line style="stroke:#A80036;stroke-width:1.0;stroke-dasharray:2.0,2.0;" x1="80.5" x2="490.5" y1="422.8438" y2="422.8438"/><text fill="#000000" font-family="sans-serif" font-size="13" lengthAdjust="spacing" textLength="303" x="92.5" y="402.645">liste des étudiants ayant fait le devoir ainsi que</text><text fill="#000000" font-family="sans-serif" font-size="13" lengthAdjust="spacing" textLength="174" x="92.5" y="417.7778">la note leur étant associée.</text><polygon fill="#A80036" points="479.5,447.9766,489.5,451.9766,479.5,455.9766,483.5,451.9766" style="stroke:#A80036;stroke-width:1.0;"/><line style="stroke:#A80036;stroke-width:1.0;" x1="75.5" x2="485.5" y1="451.9766" y2="451.9766"/><text fill="#000000" font-family="sans-serif" font-size="13" lengthAdjust="spacing" textLength="190" x="82.5" y="446.9106">terminerRecupererUnDevoir()</text><polygon fill="#A80036" points="479.5,484.1094,489.5,488.1094,479.5,492.1094,483.5,488.1094" style="stroke:#A80036;stroke-width:1.0;"/><line style="stroke:#A80036;stroke-width:1.0;" x1="75.5" x2="485.5" y1="488.1094" y2="488.1094"/><text fill="#000000" font-family="sans-serif" font-size="13" lengthAdjust="spacing" textLength="263" x="82.5" y="483.0435">terminerRecupererDevoirsEspaceCours()</text><!--MD5=[d40fd74f4e843ee4d36b2650dd4475c5]
@startuml
title DSS recupererDevoir
hide footbox
actor ":Enseignant" as professeur
participant ":Systeme" as systeme

professeur ->  systeme : recupererTousEspaceCours(token : String)
professeur <- - systeme : liste des espaceCours de l'enseignant\net le nombre de devoirs associés à chacun
loop !termineRecupererDevoirsEspaceCours
professeur -> systeme : recupererTousDevoirsEspaceCours(idEspaceCours : number)
professeur <- - systeme : devoir associées à l'espaceCours
loop !termineRecupererUnDevoir
professeur -> systeme : recupererUnDevoir(idEspaceCours: number,\nIdDevoir: number)
professeur <- - systeme : détail du devoir
professeur <- - systeme : liste des étudiants ayant fait le devoir ainsi que\nla note leur étant associée.
professeur -> systeme : terminerRecupererUnDevoir()
end
professeur -> systeme : terminerRecupererDevoirsEspaceCours()
end
@enduml

PlantUML version 1.2021.9beta2(Unknown compile time)
(GPL source distribution)
Java Runtime: Java(TM) SE Runtime Environment
JVM: Java HotSpot(TM) 64-Bit Server VM
Default Encoding: UTF-8
Language: en
Country: US
--></g></svg>