<?xml version="1.0" encoding="UTF-8" standalone="no"?><svg xmlns="http://www.w3.org/2000/svg" xmlns:xlink="http://www.w3.org/1999/xlink" contentScriptType="application/ecmascript" contentStyleType="text/css" height="1520px" preserveAspectRatio="none" style="width:940px;height:1520px;background:#FFFFFF;" version="1.1" viewBox="0 0 940 1520" width="940px" zoomAndPan="magnify"><defs><filter height="300%" id="f15rd5fnex9cbv" width="300%" x="-1" y="-1"><feGaussianBlur result="blurOut" stdDeviation="2.0"/><feColorMatrix in="blurOut" result="blurOut2" type="matrix" values="0 0 0 0 0 0 0 0 0 0 0 0 0 0 0 0 0 0 .4 0"/><feOffset dx="4.0" dy="4.0" in="blurOut2" result="blurOut3"/><feBlend in="SourceGraphic" in2="blurOut3" mode="normal"/></filter><filter height="1" id="b15rd5fnex9cbv0" width="1" x="0" y="0"><feFlood flood-color="#0000FF" result="flood"/><feComposite in="SourceGraphic" in2="flood" operator="over"/></filter><filter height="1" id="b15rd5fnex9cbv1" width="1" x="0" y="0"><feFlood flood-color="#FFFF00" result="flood"/><feComposite in="SourceGraphic" in2="flood" operator="over"/></filter><filter height="1" id="b15rd5fnex9cbv2" width="1" x="0" y="0"><feFlood flood-color="#FF0000" result="flood"/><feComposite in="SourceGraphic" in2="flood" operator="over"/></filter></defs><g><text fill="#000000" font-family="Verdana" font-size="18" lengthAdjust="spacing" textLength="179" x="374.1943" y="16.708">Modèle du domaine</text><!--MD5=[a7e36d4aa44b43fc8fb02c9c2fa0b819]
cluster SGB--><polygon fill="#FFFFFF" filter="url(#f15rd5fnex9cbv)" points="60.3883,26.9531,99.3883,26.9531,106.3883,49.25,489.3885,49.25,489.3885,724.9531,60.3883,724.9531,60.3883,26.9531" style="stroke:#000000;stroke-width:1.5;"/><line style="stroke:#000000;stroke-width:1.5;" x1="60.3883" x2="106.3883" y1="49.25" y2="49.25"/><text fill="#000000" font-family="Verdana" font-size="14" font-weight="bold" lengthAdjust="spacing" textLength="33" x="64.3883" y="41.9482">SGB</text><!--MD5=[b72d85ecf124ab8e7e9b42ea86690e20]
cluster SGA--><polygon fill="#FFFFFF" filter="url(#f15rd5fnex9cbv)" points="513.3885,483.9531,552.3885,483.9531,559.3885,506.25,851.3885,506.25,851.3885,1410.9531,513.3885,1410.9531,513.3885,483.9531" style="stroke:#000000;stroke-width:1.5;"/><line style="stroke:#000000;stroke-width:1.5;" x1="513.3885" x2="559.3885" y1="506.25" y2="506.25"/><text fill="#000000" font-family="Verdana" font-size="14" font-weight="bold" lengthAdjust="spacing" textLength="33" x="517.3885" y="498.9482">SGA</text><!--MD5=[10a08b655f733f3f3e8b0ffe69f4343a]
class Université--><rect codeLine="9" fill="#FEFECE" filter="url(#f15rd5fnex9cbv)" height="48" id="Université" rx="10" ry="10" style="stroke:#A80036;stroke-width:1.5;" width="93" x="204.8885" y="61.9531"/><ellipse cx="219.8885" cy="77.9531" fill="#FF0000" rx="11" ry="11" style="stroke:#A80036;stroke-width:1.0;"/><path d="M218.4041,81.25 C219.9041,79.9688 220.8885,79.1094 221.3416,78.6875 C223.0291,77.1563 223.4354,76.5156 223.4354,75.4063 C223.4354,73.5156 221.8885,72.1094 219.826,72.1094 C218.8104,72.1094 217.8416,72.4531 217.1698,73.0625 C216.5916,73.5938 216.1541,74.4219 216.1541,74.9688 C216.1541,75.4063 216.5448,75.7813 216.9979,75.7813 C217.3573,75.7813 217.6698,75.5781 217.7635,75.2813 C217.951,74.7344 217.9666,74.7031 218.1385,74.5 C218.5135,74.0625 219.1073,73.8125 219.7791,73.8125 C220.8885,73.8125 221.7323,74.4688 221.7323,75.3438 C221.7323,75.9219 221.451,76.2969 219.7479,77.8438 C218.9823,78.5313 218.6698,78.8125 215.8104,81.1719 L215.8104,82.9531 L223.5291,82.9531 L223.5291,81.4531 C223.5291,81.0469 223.4979,80.8906 223.4041,80.75 C223.2479,80.4844 222.9666,80.3281 222.6698,80.3281 C222.1541,80.3281 221.8729,80.6406 221.826,81.25 L218.4041,81.25 Z " fill="#000000"/><text fill="#000000" font-family="Verdana" font-size="12" lengthAdjust="spacing" textLength="61" x="233.8885" y="82.1074">Université</text><line style="stroke:#A80036;stroke-width:1.5;" x1="205.8885" x2="296.8885" y1="93.9531" y2="93.9531"/><line style="stroke:#A80036;stroke-width:1.5;" x1="205.8885" x2="296.8885" y1="101.9531" y2="101.9531"/><!--MD5=[63c8a86559697f2113f14d70f80cad38]
class CatalogueCours--><rect codeLine="11" fill="#FEFECE" filter="url(#f15rd5fnex9cbv)" height="48" id="CatalogueCours" rx="10" ry="10" style="stroke:#A80036;stroke-width:1.5;" width="127" x="82.8883" y="186.9531"/><ellipse cx="97.8883" cy="202.9531" fill="#FF0000" rx="11" ry="11" style="stroke:#A80036;stroke-width:1.0;"/><path d="M96.4039,206.25 C97.9039,204.9688 98.8883,204.1094 99.3414,203.6875 C101.0289,202.1563 101.4352,201.5156 101.4352,200.4063 C101.4352,198.5156 99.8883,197.1094 97.8258,197.1094 C96.8102,197.1094 95.8414,197.4531 95.1696,198.0625 C94.5914,198.5938 94.1539,199.4219 94.1539,199.9688 C94.1539,200.4063 94.5446,200.7813 94.9977,200.7813 C95.3571,200.7813 95.6696,200.5781 95.7633,200.2813 C95.9508,199.7344 95.9664,199.7031 96.1383,199.5 C96.5133,199.0625 97.1071,198.8125 97.7789,198.8125 C98.8883,198.8125 99.7321,199.4688 99.7321,200.3438 C99.7321,200.9219 99.4508,201.2969 97.7477,202.8438 C96.9821,203.5313 96.6696,203.8125 93.8102,206.1719 L93.8102,207.9531 L101.5289,207.9531 L101.5289,206.4531 C101.5289,206.0469 101.4977,205.8906 101.4039,205.75 C101.2477,205.4844 100.9664,205.3281 100.6696,205.3281 C100.1539,205.3281 99.8727,205.6406 99.8258,206.25 L96.4039,206.25 Z " fill="#000000"/><text fill="#000000" font-family="Verdana" font-size="12" lengthAdjust="spacing" textLength="95" x="111.8883" y="207.1074">CatalogueCours</text><line style="stroke:#A80036;stroke-width:1.5;" x1="83.8883" x2="208.8883" y1="218.9531" y2="218.9531"/><line style="stroke:#A80036;stroke-width:1.5;" x1="83.8883" x2="208.8883" y1="226.9531" y2="226.9531"/><!--MD5=[0ea76b077f2fe2b0557d144a0cdb3724]
class Enseignant--><rect codeLine="13" fill="#FEFECE" filter="url(#f15rd5fnex9cbv)" height="86.4141" id="Enseignant" rx="10" ry="10" style="stroke:#A80036;stroke-width:1.5;" width="100" x="201.3885" y="271.4531"/><ellipse cx="217.7385" cy="287.4531" fill="#FFFF00" rx="11" ry="11" style="stroke:#A80036;stroke-width:1.0;"/><path d="M218.6916,281.6094 L215.0823,282.5469 C214.4104,282.7188 214.176,282.9219 214.176,283.4063 C214.176,283.9063 214.5198,284.2969 214.9729,284.2969 C215.1291,284.2969 215.1916,284.2813 215.5041,284.1875 L216.9885,283.7969 L216.9885,290.75 L215.2698,290.75 C214.8323,290.75 214.7073,290.7656 214.551,290.875 C214.301,291.0313 214.1448,291.3125 214.1448,291.6094 C214.1448,291.8594 214.2854,292.125 214.5041,292.2813 C214.6448,292.4063 214.8791,292.4531 215.2698,292.4531 L220.4104,292.4531 C220.7385,292.4531 221.0041,292.4063 221.1135,292.3281 C221.3791,292.1719 221.5198,291.8906 221.5198,291.6094 C221.5198,291.3281 221.3948,291.0781 221.176,290.9063 C221.0041,290.7813 220.8635,290.75 220.4104,290.75 L218.6916,290.75 L218.6916,281.6094 Z " fill="#000000"/><text fill="#000000" font-family="Verdana" font-size="12" lengthAdjust="spacing" textLength="65" x="232.0385" y="291.6074">Enseignant</text><line style="stroke:#A80036;stroke-width:1.5;" x1="202.3885" x2="300.3885" y1="303.4531" y2="303.4531"/><text fill="#000000" font-family="Verdana" font-size="11" lengthAdjust="spacing" textLength="88" x="207.3885" y="317.6636">prenom : String</text><text fill="#000000" font-family="Verdana" font-size="11" lengthAdjust="spacing" textLength="69" x="207.3885" y="330.4683">nom : String</text><text fill="#000000" font-family="Verdana" font-size="11" lengthAdjust="spacing" textLength="86" x="207.3885" y="343.2729">courriel : String</text><line style="stroke:#A80036;stroke-width:1.5;" x1="202.3885" x2="300.3885" y1="349.8672" y2="349.8672"/><!--MD5=[f84e857de5a9ca5678aed72e3e98d0a5]
class Etudiant--><rect codeLine="19" fill="#FEFECE" filter="url(#f15rd5fnex9cbv)" height="99.2188" id="Etudiant" rx="10" ry="10" style="stroke:#A80036;stroke-width:1.5;" width="146" x="306.3885" y="264.9531"/><ellipse cx="351.6385" cy="280.9531" fill="#FFFF00" rx="11" ry="11" style="stroke:#A80036;stroke-width:1.0;"/><path d="M352.5916,275.1094 L348.9823,276.0469 C348.3104,276.2188 348.076,276.4219 348.076,276.9063 C348.076,277.4063 348.4198,277.7969 348.8729,277.7969 C349.0291,277.7969 349.0916,277.7813 349.4041,277.6875 L350.8885,277.2969 L350.8885,284.25 L349.1698,284.25 C348.7323,284.25 348.6073,284.2656 348.451,284.375 C348.201,284.5313 348.0448,284.8125 348.0448,285.1094 C348.0448,285.3594 348.1854,285.625 348.4041,285.7813 C348.5448,285.9063 348.7791,285.9531 349.1698,285.9531 L354.3104,285.9531 C354.6385,285.9531 354.9041,285.9063 355.0135,285.8281 C355.2791,285.6719 355.4198,285.3906 355.4198,285.1094 C355.4198,284.8281 355.2948,284.5781 355.076,284.4063 C354.9041,284.2813 354.7635,284.25 354.3104,284.25 L352.5916,284.25 L352.5916,275.1094 Z " fill="#000000"/><text fill="#000000" font-family="Verdana" font-size="12" lengthAdjust="spacing" textLength="47" x="372.1385" y="285.1074">Etudiant</text><line style="stroke:#A80036;stroke-width:1.5;" x1="307.3885" x2="451.3885" y1="296.9531" y2="296.9531"/><text fill="#000000" font-family="Verdana" font-size="11" lengthAdjust="spacing" textLength="69" x="312.3885" y="311.1636">nom : String</text><text fill="#000000" font-family="Verdana" font-size="11" lengthAdjust="spacing" textLength="134" x="312.3885" y="323.9683">codePermanent : String</text><text fill="#000000" font-family="Verdana" font-size="11" lengthAdjust="spacing" textLength="88" x="312.3885" y="336.7729">prenom : String</text><text fill="#000000" font-family="Verdana" font-size="11" lengthAdjust="spacing" textLength="86" x="312.3885" y="349.5776">courriel : String</text><line style="stroke:#A80036;stroke-width:1.5;" x1="307.3885" x2="451.3885" y1="356.1719" y2="356.1719"/><!--MD5=[f6edf60997924e693a9a5571eb281b8c]
class Cours--><rect codeLine="26" fill="#FEFECE" filter="url(#f15rd5fnex9cbv)" height="73.6094" id="Cours" rx="10" ry="10" style="stroke:#A80036;stroke-width:1.5;" width="83" x="76.8883" y="393.9531"/><ellipse cx="99.0883" cy="409.9531" fill="#0000FF" rx="11" ry="11" style="stroke:#A80036;stroke-width:1.0;"/><path d="M100.0414,404.1094 L96.4321,405.0469 C95.7602,405.2188 95.5258,405.4219 95.5258,405.9063 C95.5258,406.4063 95.8696,406.7969 96.3227,406.7969 C96.4789,406.7969 96.5414,406.7813 96.8539,406.6875 L98.3383,406.2969 L98.3383,413.25 L96.6196,413.25 C96.1821,413.25 96.0571,413.2656 95.9008,413.375 C95.6508,413.5313 95.4946,413.8125 95.4946,414.1094 C95.4946,414.3594 95.6352,414.625 95.8539,414.7813 C95.9946,414.9063 96.2289,414.9531 96.6196,414.9531 L101.7602,414.9531 C102.0883,414.9531 102.3539,414.9063 102.4633,414.8281 C102.7289,414.6719 102.8696,414.3906 102.8696,414.1094 C102.8696,413.8281 102.7446,413.5781 102.5258,413.4063 C102.3539,413.2813 102.2133,413.25 101.7602,413.25 L100.0414,413.25 L100.0414,404.1094 Z " fill="#000000"/><text fill="#000000" font-family="Verdana" font-size="12" lengthAdjust="spacing" textLength="35" x="114.6883" y="414.1074">Cours</text><line style="stroke:#A80036;stroke-width:1.5;" x1="77.8883" x2="158.8883" y1="425.9531" y2="425.9531"/><text fill="#000000" font-family="Verdana" font-size="11" lengthAdjust="spacing" textLength="71" x="82.8883" y="440.1636">id : numbers</text><text fill="#000000" font-family="Verdana" font-size="11" lengthAdjust="spacing" textLength="69" x="82.8883" y="452.9683">nom : String</text><line style="stroke:#A80036;stroke-width:1.5;" x1="77.8883" x2="158.8883" y1="459.5625" y2="459.5625"/><!--MD5=[b32d763bfdb05d07119f0e8fadbdfdc1]
class GroupeCours--><rect codeLine="31" fill="#FEFECE" filter="url(#f15rd5fnex9cbv)" height="73.6094" id="GroupeCours" rx="10" ry="10" style="stroke:#A80036;stroke-width:1.5;" width="201" x="167.8885" y="634.9531"/><ellipse cx="224.1385" cy="650.9531" fill="#FFFF00" rx="11" ry="11" style="stroke:#A80036;stroke-width:1.0;"/><path d="M225.0916,645.1094 L221.4823,646.0469 C220.8104,646.2188 220.576,646.4219 220.576,646.9063 C220.576,647.4063 220.9198,647.7969 221.3729,647.7969 C221.5291,647.7969 221.5916,647.7813 221.9041,647.6875 L223.3885,647.2969 L223.3885,654.25 L221.6698,654.25 C221.2323,654.25 221.1073,654.2656 220.951,654.375 C220.701,654.5313 220.5448,654.8125 220.5448,655.1094 C220.5448,655.3594 220.6854,655.625 220.9041,655.7813 C221.0448,655.9063 221.2791,655.9531 221.6698,655.9531 L226.8104,655.9531 C227.1385,655.9531 227.4041,655.9063 227.5135,655.8281 C227.7791,655.6719 227.9198,655.3906 227.9198,655.1094 C227.9198,654.8281 227.7948,654.5781 227.576,654.4063 C227.4041,654.2813 227.2635,654.25 226.8104,654.25 L225.0916,654.25 L225.0916,645.1094 Z " fill="#000000"/><text fill="#000000" font-family="Verdana" font-size="12" lengthAdjust="spacing" textLength="80" x="244.6385" y="655.1074">GroupeCours</text><line style="stroke:#A80036;stroke-width:1.5;" x1="168.8885" x2="367.8885" y1="666.9531" y2="666.9531"/><text fill="#000000" font-family="Verdana" font-size="11" lengthAdjust="spacing" textLength="65" x="173.8885" y="681.1636">id : number</text><text fill="#000000" font-family="Verdana" font-size="11" lengthAdjust="spacing" textLength="189" x="173.8885" y="693.9683">limiteNombreInscription : number</text><line style="stroke:#A80036;stroke-width:1.5;" x1="168.8885" x2="367.8885" y1="700.5625" y2="700.5625"/><!--MD5=[54a5e0e6ed87cf29c8834e8f40ab0f5d]
class Devoir--><rect codeLine="38" fill="#FEFECE" filter="url(#f15rd5fnex9cbv)" height="137.6328" id="Devoir" rx="10" ry="10" style="stroke:#A80036;stroke-width:1.5;" width="154" x="548.3885" y="1093.9531"/><ellipse cx="601.1385" cy="1109.9531" fill="#FF0000" rx="11" ry="11" style="stroke:#A80036;stroke-width:1.0;"/><path d="M599.6541,1113.25 C601.1541,1111.9688 602.1385,1111.1094 602.5916,1110.6875 C604.2791,1109.1563 604.6854,1108.5156 604.6854,1107.4063 C604.6854,1105.5156 603.1385,1104.1094 601.076,1104.1094 C600.0604,1104.1094 599.0916,1104.4531 598.4198,1105.0625 C597.8416,1105.5938 597.4041,1106.4219 597.4041,1106.9688 C597.4041,1107.4063 597.7948,1107.7813 598.2479,1107.7813 C598.6073,1107.7813 598.9198,1107.5781 599.0135,1107.2813 C599.201,1106.7344 599.2166,1106.7031 599.3885,1106.5 C599.7635,1106.0625 600.3573,1105.8125 601.0291,1105.8125 C602.1385,1105.8125 602.9823,1106.4688 602.9823,1107.3438 C602.9823,1107.9219 602.701,1108.2969 600.9979,1109.8438 C600.2323,1110.5313 599.9198,1110.8125 597.0604,1113.1719 L597.0604,1114.9531 L604.7791,1114.9531 L604.7791,1113.4531 C604.7791,1113.0469 604.7479,1112.8906 604.6541,1112.75 C604.4979,1112.4844 604.2166,1112.3281 603.9198,1112.3281 C603.4041,1112.3281 603.1229,1112.6406 603.076,1113.25 L599.6541,1113.25 Z " fill="#000000"/><text fill="#000000" font-family="Verdana" font-size="12" lengthAdjust="spacing" textLength="40" x="621.6385" y="1114.1074">Devoir</text><line style="stroke:#A80036;stroke-width:1.5;" x1="549.3885" x2="701.3885" y1="1125.9531" y2="1125.9531"/><text fill="#000000" font-family="Verdana" font-size="11" lengthAdjust="spacing" textLength="61" x="554.3885" y="1140.1636">id: number</text><text fill="#000000" font-family="Verdana" font-size="11" lengthAdjust="spacing" textLength="65" x="554.3885" y="1152.9683">nom: String</text><text fill="#000000" font-family="Verdana" font-size="11" lengthAdjust="spacing" textLength="106" x="554.3885" y="1165.7729">description : String</text><text fill="#000000" font-family="Verdana" font-size="11" lengthAdjust="spacing" textLength="142" x="554.3885" y="1178.5776">note maximale : number</text><text fill="#000000" font-family="Verdana" font-size="11" lengthAdjust="spacing" textLength="126" x="554.3885" y="1191.3823">date de début : String</text><text fill="#000000" font-family="Verdana" font-size="11" lengthAdjust="spacing" textLength="107" x="554.3885" y="1204.187">date de fin : String</text><text fill="#000000" font-family="Verdana" font-size="11" lengthAdjust="spacing" textLength="94" x="554.3885" y="1216.9917">visible : boolean</text><line style="stroke:#A80036;stroke-width:1.5;" x1="549.3885" x2="701.3885" y1="1223.5859" y2="1223.5859"/><!--MD5=[1d9b9fea38fde0ee3d12b7f249f77478]
class Remise--><rect codeLine="48" fill="#FEFECE" filter="url(#f15rd5fnex9cbv)" height="86.4141" id="Remise" rx="10" ry="10" style="stroke:#A80036;stroke-width:1.5;" width="125" x="703.8885" y="1308.9531"/><ellipse cx="740.9385" cy="1324.9531" fill="#FF0000" rx="11" ry="11" style="stroke:#A80036;stroke-width:1.0;"/><path d="M739.4541,1328.25 C740.9541,1326.9688 741.9385,1326.1094 742.3916,1325.6875 C744.0791,1324.1563 744.4854,1323.5156 744.4854,1322.4063 C744.4854,1320.5156 742.9385,1319.1094 740.876,1319.1094 C739.8604,1319.1094 738.8916,1319.4531 738.2198,1320.0625 C737.6416,1320.5938 737.2041,1321.4219 737.2041,1321.9688 C737.2041,1322.4063 737.5948,1322.7813 738.0479,1322.7813 C738.4073,1322.7813 738.7198,1322.5781 738.8135,1322.2813 C739.001,1321.7344 739.0166,1321.7031 739.1885,1321.5 C739.5635,1321.0625 740.1573,1320.8125 740.8291,1320.8125 C741.9385,1320.8125 742.7823,1321.4688 742.7823,1322.3438 C742.7823,1322.9219 742.501,1323.2969 740.7979,1324.8438 C740.0323,1325.5313 739.7198,1325.8125 736.8604,1328.1719 L736.8604,1329.9531 L744.5791,1329.9531 L744.5791,1328.4531 C744.5791,1328.0469 744.5479,1327.8906 744.4541,1327.75 C744.2979,1327.4844 744.0166,1327.3281 743.7198,1327.3281 C743.2041,1327.3281 742.9229,1327.6406 742.876,1328.25 L739.4541,1328.25 Z " fill="#000000"/><text fill="#000000" font-family="Verdana" font-size="12" lengthAdjust="spacing" textLength="44" x="759.8385" y="1329.1074">Remise</text><line style="stroke:#A80036;stroke-width:1.5;" x1="704.8885" x2="827.8885" y1="1340.9531" y2="1340.9531"/><text fill="#000000" font-family="Verdana" font-size="11" lengthAdjust="spacing" textLength="65" x="709.8885" y="1355.1636">id : number</text><text fill="#000000" font-family="Verdana" font-size="11" lengthAdjust="spacing" textLength="67" x="709.8885" y="1367.9683">etat : String</text><text fill="#000000" font-family="Verdana" font-size="11" lengthAdjust="spacing" textLength="113" x="709.8885" y="1380.7729">dateRemise : String</text><line style="stroke:#A80036;stroke-width:1.5;" x1="704.8885" x2="827.8885" y1="1387.3672" y2="1387.3672"/><!--MD5=[fc7123defb831ecdd44b2d9bcef6cceb]
class Question--><rect codeLine="54" fill="#FEFECE" filter="url(#f15rd5fnex9cbv)" height="137.6328" id="Question" rx="10" ry="10" style="stroke:#A80036;stroke-width:1.5;" width="191" x="529.8885" y="740.9531"/><ellipse cx="594.1385" cy="756.9531" fill="#FFFF00" rx="11" ry="11" style="stroke:#A80036;stroke-width:1.0;"/><path d="M595.0916,751.1094 L591.4823,752.0469 C590.8104,752.2188 590.576,752.4219 590.576,752.9063 C590.576,753.4063 590.9198,753.7969 591.3729,753.7969 C591.5291,753.7969 591.5916,753.7813 591.9041,753.6875 L593.3885,753.2969 L593.3885,760.25 L591.6698,760.25 C591.2323,760.25 591.1073,760.2656 590.951,760.375 C590.701,760.5313 590.5448,760.8125 590.5448,761.1094 C590.5448,761.3594 590.6854,761.625 590.9041,761.7813 C591.0448,761.9063 591.2791,761.9531 591.6698,761.9531 L596.8104,761.9531 C597.1385,761.9531 597.4041,761.9063 597.5135,761.8281 C597.7791,761.6719 597.9198,761.3906 597.9198,761.1094 C597.9198,760.8281 597.7948,760.5781 597.576,760.4063 C597.4041,760.2813 597.2635,760.25 596.8104,760.25 L595.0916,760.25 L595.0916,751.1094 Z " fill="#000000"/><text fill="#000000" font-family="Verdana" font-size="12" lengthAdjust="spacing" textLength="54" x="614.6385" y="761.1074">Question</text><line style="stroke:#A80036;stroke-width:1.5;" x1="530.8885" x2="719.8885" y1="772.9531" y2="772.9531"/><text fill="#000000" font-family="Verdana" font-size="11" lengthAdjust="spacing" textLength="65" x="535.8885" y="787.1636">id : number</text><text fill="#000000" font-family="Verdana" font-size="11" lengthAdjust="spacing" textLength="69" x="535.8885" y="799.9683">nom : String</text><text fill="#000000" font-family="Verdana" font-size="11" lengthAdjust="spacing" textLength="68" x="535.8885" y="812.7729">tags : String</text><text fill="#000000" font-family="Verdana" font-size="11" lengthAdjust="spacing" textLength="126" x="535.8885" y="825.5776">texteQuestion : String</text><text fill="#000000" font-family="Verdana" font-size="11" lengthAdjust="spacing" textLength="104" x="535.8885" y="838.3823">reponse : boolean</text><text fill="#000000" font-family="Verdana" font-size="11" lengthAdjust="spacing" textLength="162" x="535.8885" y="851.187">texteBonneReponse : String</text><text fill="#000000" font-family="Verdana" font-size="11" lengthAdjust="spacing" textLength="179" x="535.8885" y="863.9917">texteMauvaiseReponse : String</text><line style="stroke:#A80036;stroke-width:1.5;" x1="530.8885" x2="719.8885" y1="870.5859" y2="870.5859"/><!--MD5=[5a3b85c54cc1c79904e0b827443986bf]
class Questionnaire--><rect codeLine="64" fill="#FEFECE" filter="url(#f15rd5fnex9cbv)" height="86.4141" id="Questionnaire" rx="10" ry="10" style="stroke:#A80036;stroke-width:1.5;" width="116" x="666.3885" y="518.9531"/><ellipse cx="681.3885" cy="534.9531" fill="#FF0000" rx="11" ry="11" style="stroke:#A80036;stroke-width:1.0;"/><path d="M679.9041,538.25 C681.4041,536.9688 682.3885,536.1094 682.8416,535.6875 C684.5291,534.1563 684.9354,533.5156 684.9354,532.4063 C684.9354,530.5156 683.3885,529.1094 681.326,529.1094 C680.3104,529.1094 679.3416,529.4531 678.6698,530.0625 C678.0916,530.5938 677.6541,531.4219 677.6541,531.9688 C677.6541,532.4063 678.0448,532.7813 678.4979,532.7813 C678.8573,532.7813 679.1698,532.5781 679.2635,532.2813 C679.451,531.7344 679.4666,531.7031 679.6385,531.5 C680.0135,531.0625 680.6073,530.8125 681.2791,530.8125 C682.3885,530.8125 683.2323,531.4688 683.2323,532.3438 C683.2323,532.9219 682.951,533.2969 681.2479,534.8438 C680.4823,535.5313 680.1698,535.8125 677.3104,538.1719 L677.3104,539.9531 L685.0291,539.9531 L685.0291,538.4531 C685.0291,538.0469 684.9979,537.8906 684.9041,537.75 C684.7479,537.4844 684.4666,537.3281 684.1698,537.3281 C683.6541,537.3281 683.3729,537.6406 683.326,538.25 L679.9041,538.25 Z " fill="#000000"/><text fill="#000000" font-family="Verdana" font-size="12" lengthAdjust="spacing" textLength="84" x="695.3885" y="539.1074">Questionnaire</text><line style="stroke:#A80036;stroke-width:1.5;" x1="667.3885" x2="781.3885" y1="550.9531" y2="550.9531"/><text fill="#000000" font-family="Verdana" font-size="11" lengthAdjust="spacing" textLength="61" x="672.3885" y="565.1636">id: number</text><text fill="#000000" font-family="Verdana" font-size="11" lengthAdjust="spacing" textLength="102" x="672.3885" y="577.9683">description: String</text><text fill="#000000" font-family="Verdana" font-size="11" lengthAdjust="spacing" textLength="80" x="672.3885" y="590.7729">état : boolean</text><line style="stroke:#A80036;stroke-width:1.5;" x1="667.3885" x2="781.3885" y1="597.3672" y2="597.3672"/><!--MD5=[dabef5714f41dd45c84d2acd22a3f642]
class EspaceCours--><rect codeLine="70" fill="#FEFECE" filter="url(#f15rd5fnex9cbv)" height="60.8047" id="EspaceCours" rx="10" ry="10" style="stroke:#A80036;stroke-width:1.5;" width="192" x="529.3885" y="955.9531"/><ellipse cx="581.6385" cy="971.9531" fill="#FF0000" rx="11" ry="11" style="stroke:#A80036;stroke-width:1.0;"/><path d="M580.1541,975.25 C581.6541,973.9688 582.6385,973.1094 583.0916,972.6875 C584.7791,971.1563 585.1854,970.5156 585.1854,969.4063 C585.1854,967.5156 583.6385,966.1094 581.576,966.1094 C580.5604,966.1094 579.5916,966.4531 578.9198,967.0625 C578.3416,967.5938 577.9041,968.4219 577.9041,968.9688 C577.9041,969.4063 578.2948,969.7813 578.7479,969.7813 C579.1073,969.7813 579.4198,969.5781 579.5135,969.2813 C579.701,968.7344 579.7166,968.7031 579.8885,968.5 C580.2635,968.0625 580.8573,967.8125 581.5291,967.8125 C582.6385,967.8125 583.4823,968.4688 583.4823,969.3438 C583.4823,969.9219 583.201,970.2969 581.4979,971.8438 C580.7323,972.5313 580.4198,972.8125 577.5604,975.1719 L577.5604,976.9531 L585.2791,976.9531 L585.2791,975.4531 C585.2791,975.0469 585.2479,974.8906 585.1541,974.75 C584.9979,974.4844 584.7166,974.3281 584.4198,974.3281 C583.9041,974.3281 583.6229,974.6406 583.576,975.25 L580.1541,975.25 Z " fill="#000000"/><text fill="#000000" font-family="Verdana" font-size="12" lengthAdjust="spacing" textLength="79" x="602.1385" y="976.1074">EspaceCours</text><line style="stroke:#A80036;stroke-width:1.5;" x1="530.3885" x2="720.3885" y1="987.9531" y2="987.9531"/><text fill="#000000" font-family="Verdana" font-size="11" lengthAdjust="spacing" textLength="180" x="535.3885" y="1002.1636">idEspaceGroupeCours : number</text><line style="stroke:#A80036;stroke-width:1.5;" x1="530.3885" x2="720.3885" y1="1008.7578" y2="1008.7578"/><!--MD5=[843a46382d283828a7d1783d3460c7c7]
link Université to CatalogueCours--><path codeLine="75" d="M204.7725,105.5631 C189.1855,113.9231 173.0775,125.2631 162.3885,139.9531 C152.4845,153.5631 148.5765,172.2831 147.0945,186.9431 " fill="none" id="Université-CatalogueCours" style="stroke:#A80036;stroke-width:1.0;"/><polygon fill="#000000" points="164.4973,152.5989,172.1253,146.9187,167.3298,143.5199,164.4973,152.5989" style="stroke:#000000;stroke-width:1.0;"/><text fill="#000000" font-family="Verdana" font-size="13" lengthAdjust="spacing" textLength="31" x="176.3885" y="153.02">offre</text><text fill="#000000" font-family="Verdana" font-size="13" lengthAdjust="spacing" textLength="8" x="189.0219" y="104.4945">1</text><text fill="#000000" font-family="Verdana" font-size="13" lengthAdjust="spacing" textLength="8" x="138.2505" y="175.9526">1</text><!--MD5=[caa7d714cd4e4959b4291618de060d69]
link CatalogueCours to Cours--><path codeLine="76" d="M123.2425,235.0031 C116.0869,243.6631 109.1117,254.0531 105.3883,264.9531 C90.8497,307.5031 98.9452,359.6931 107.4345,393.8331 " fill="none" id="CatalogueCours-Cours" style="stroke:#A80036;stroke-width:1.0;"/><polygon fill="#000000" points="109.8931,319.4949,113.7134,310.7854,107.8644,310.2033,109.8931,319.4949" style="stroke:#000000;stroke-width:1.0;"/><text fill="#000000" font-family="Verdana" font-size="13" lengthAdjust="spacing" textLength="63" x="119.3883" y="319.02">repertorie</text><text fill="#000000" font-family="Verdana" font-size="13" lengthAdjust="spacing" textLength="8" x="108.2858" y="255.1717">1</text><text fill="#000000" font-family="Verdana" font-size="13" lengthAdjust="spacing" textLength="7" x="97.8599" y="382.9987">*</text><!--MD5=[359da426c3c95d8048c951014945ceb0]
link Devoir to Remise--><path codeLine="77" d="M659.4645,1232.0851 C668.6375,1248.0551 679.1605,1264.5881 690.3885,1278.9531 C698.4475,1289.2631 707.9845,1299.4701 717.5315,1308.8141 " fill="none" id="Devoir-Remise" style="stroke:#A80036;stroke-width:1.0;"/><polygon fill="#000000" points="698.4058,1274.5065,695.291,1265.5205,690.604,1269.0675,698.4058,1274.5065" style="stroke:#000000;stroke-width:1.0;"/><text fill="#000000" font-family="Verdana" font-size="13" lengthAdjust="spacing" textLength="52" x="704.3885" y="1275.02">contient</text><text fill="#000000" font-family="Verdana" font-size="13" lengthAdjust="spacing" textLength="8" x="654.4251" y="1251.7201">1</text><text fill="#000000" font-family="Verdana" font-size="13" lengthAdjust="spacing" textLength="7" x="702.1871" y="1297.788">*</text><!--MD5=[b8f15a7fbf1e0ac66b43fe2a255415c0]
link EspaceCours to Devoir--><path codeLine="78" d="M625.3885,1017.0551 C625.3885,1038.0581 625.3885,1067.1281 625.3885,1093.7211 " fill="none" id="EspaceCours-Devoir" style="stroke:#A80036;stroke-width:1.0;"/><polygon fill="#000000" points="630.3885,1060.5195,633.3274,1051.4744,627.4496,1051.4744,630.3885,1060.5195" style="stroke:#000000;stroke-width:1.0;"/><text fill="#000000" font-family="Verdana" font-size="13" lengthAdjust="spacing" textLength="52" x="639.3885" y="1060.02">contient</text><text fill="#000000" font-family="Verdana" font-size="13" lengthAdjust="spacing" textLength="8" x="616.5635" y="1037.0144">1</text><text fill="#000000" font-family="Verdana" font-size="13" lengthAdjust="spacing" textLength="7" x="618.0276" y="1082.9008">*</text><!--MD5=[e696a511ab66ff85cf29965a3cb732fe]
link Université to Enseignant--><path codeLine="79" d="M251.3885,110.3431 C251.3885,148.3131 251.3885,223.9231 251.3885,271.4131 " fill="none" id="Université-Enseignant" style="stroke:#A80036;stroke-width:1.0;"/><polygon fill="#000000" points="256.3885,153.5195,259.3274,144.4744,253.4496,144.4744,256.3885,153.5195" style="stroke:#000000;stroke-width:1.0;"/><text fill="#000000" font-family="Verdana" font-size="13" lengthAdjust="spacing" textLength="51" x="265.3885" y="153.02">emploie</text><text fill="#000000" font-family="Verdana" font-size="13" lengthAdjust="spacing" textLength="8" x="242.4135" y="130.1994">1</text><text fill="#000000" font-family="Verdana" font-size="13" lengthAdjust="spacing" textLength="7" x="243.8307" y="260.4028">*</text><!--MD5=[d99a8c8e2f040432a664dac4ac75f7f7]
link Questionnaire to Question--><path codeLine="80" d="M700.1085,605.0151 C694.9405,614.6991 689.7365,625.0631 685.3885,634.9531 C670.4045,669.0311 656.6335,708.1271 646.0725,740.6171 " fill="none" id="Questionnaire-Question" style="stroke:#A80036;stroke-width:1.0;"/><polygon fill="#000000" points="688.5376,676.6643,694.6161,669.3497,689.1558,667.1739,688.5376,676.6643" style="stroke:#000000;stroke-width:1.0;"/><text fill="#000000" font-family="Verdana" font-size="13" lengthAdjust="spacing" textLength="52" x="699.3885" y="676.52">contient</text><text fill="#000000" font-family="Verdana" font-size="13" lengthAdjust="spacing" textLength="8" x="687.4246" y="625.4331">1</text><text fill="#000000" font-family="Verdana" font-size="13" lengthAdjust="spacing" textLength="23" x="624.0196" y="729.7861">1..*</text><!--MD5=[325701bbe546bfc91cac5365729ea61d]
link Questionnaire to Remise--><path codeLine="81" d="M758.3975,605.2721 C783.6155,639.5661 815.8665,690.3451 829.3885,740.9531 C845.2205,800.2081 842.6935,819.0801 829.3885,878.9531 C821.1935,915.8311 802.8365,919.3761 793.3885,955.9531 C761.0255,1081.2371 761.6585,1235.8581 764.2605,1308.9241 " fill="none" id="Questionnaire-Remise" style="stroke:#A80036;stroke-width:1.0;"/><polygon fill="#000000" points="798.4302,991.5194,801.2936,982.4501,795.416,982.4991,798.4302,991.5194" style="stroke:#000000;stroke-width:1.0;"/><text fill="#000000" font-family="Verdana" font-size="13" lengthAdjust="spacing" textLength="54" x="807.3885" y="991.02">possède</text><text fill="#000000" font-family="Verdana" font-size="13" lengthAdjust="spacing" textLength="8" x="755.1802" y="625.4159">1</text><text fill="#000000" font-family="Verdana" font-size="13" lengthAdjust="spacing" textLength="7" x="756.3635" y="1297.9155">*</text><!--MD5=[5217f6319e60196188b9b46941152dbc]
link Université to Etudiant--><path codeLine="82" d="M293.4915,110.0931 C305.1845,118.2331 316.9685,128.2931 325.3885,139.9531 C352.1705,177.0331 365.9375,227.7731 372.8415,264.8031 " fill="none" id="Université-Etudiant" style="stroke:#A80036;stroke-width:1.0;"/><polygon fill="#000000" points="338.1067,144.0706,339.6195,153.46,344.8496,150.7776,338.1067,144.0706" style="stroke:#000000;stroke-width:1.0;"/><text fill="#000000" font-family="Verdana" font-size="13" lengthAdjust="spacing" textLength="76" x="349.3885" y="153.02">est-inscrit-à</text><text fill="#000000" font-family="Verdana" font-size="13" lengthAdjust="spacing" textLength="8" x="294.7791" y="129.8885">1</text><text fill="#000000" font-family="Verdana" font-size="13" lengthAdjust="spacing" textLength="7" x="364.4286" y="253.8273">*</text><!--MD5=[31ca12531000ae5fbc8b65f0576c1ae5]
link Question to EspaceCours--><path codeLine="83" d="M625.3885,879.1691 C625.3885,905.7431 625.3885,934.7931 625.3885,955.7971 " fill="none" id="Question-EspaceCours" style="stroke:#A80036;stroke-width:1.0;"/><polygon fill="#000000" points="630.3885,912.5195,627.4496,921.5646,633.3274,921.5646,630.3885,912.5195" style="stroke:#000000;stroke-width:1.0;"/><text fill="#000000" font-family="Verdana" font-size="13" lengthAdjust="spacing" textLength="52" x="639.3885" y="922.02">contient</text><text fill="#000000" font-family="Verdana" font-size="13" lengthAdjust="spacing" textLength="7" x="618.0549" y="898.5718">*</text><text fill="#000000" font-family="Verdana" font-size="13" lengthAdjust="spacing" textLength="8" x="616.5635" y="945.0282">1</text><!--MD5=[9658aa9b13a75953075a809ba662f093]
link Questionnaire to EspaceCours--><path codeLine="84" d="M746.5645,604.9841 C750.6305,614.5821 754.2585,624.9171 756.3885,634.9531 C765.4305,677.5601 761.3605,689.6821 756.3885,732.9531 C748.7835,799.1431 744.1855,815.9941 722.3885,878.9531 C714.8425,900.7481 714.6925,907.8601 700.3885,925.9531 C691.7295,936.9051 680.6785,947.0761 669.7365,955.7991 " fill="none" id="Questionnaire-EspaceCours" style="stroke:#A80036;stroke-width:1.0;"/><polygon fill="#000000" points="762.4581,805.1353,757.6523,813.3422,763.394,814.5997,762.4581,805.1353" style="stroke:#000000;stroke-width:1.0;"/><text fill="#000000" font-family="Verdana" font-size="13" lengthAdjust="spacing" textLength="52" x="770.3885" y="814.52">contient</text><text fill="#000000" font-family="Verdana" font-size="13" lengthAdjust="spacing" textLength="7" x="742.6577" y="625.3969">*</text><text fill="#000000" font-family="Verdana" font-size="13" lengthAdjust="spacing" textLength="8" x="670.0583" y="945.0306">1</text><!--MD5=[4a1dec41fc93cd3e03671729410bb2fc]
link Etudiant to GroupeCours--><path codeLine="85" d="M365.4385,363.9731 C356.7175,393.9931 345.1375,433.2811 334.3885,467.9531 C316.2255,526.5351 293.9625,594.2141 280.4915,634.7451 " fill="none" id="Etudiant-GroupeCours" style="stroke:#A80036;stroke-width:1.0;"/><polygon fill="#000000" points="359.8918,435.7903,365.4035,428.0397,359.7952,426.2802,359.8918,435.7903" style="stroke:#000000;stroke-width:1.0;"/><text fill="#000000" font-family="Verdana" font-size="13" lengthAdjust="spacing" textLength="85" x="370.3885" y="435.52">S'inscrit-dans</text><text fill="#000000" font-family="Verdana" font-size="13" lengthAdjust="spacing" textLength="8" x="354.8021" y="384.4085">1</text><text fill="#000000" font-family="Verdana" font-size="13" lengthAdjust="spacing" textLength="23" x="284.6958" y="623.895">1..*</text><!--MD5=[1b4ecfae8f4f6f2eba21162271229cb8]
link Enseignant to GroupeCours--><path codeLine="86" d="M252.8765,357.5331 C254.0005,388.1631 255.6435,430.6341 257.3885,467.9531 C260.1165,526.3021 263.9145,594.0501 266.2595,634.6581 " fill="none" id="Enseignant-GroupeCours" style="stroke:#A80036;stroke-width:1.0;"/><polygon fill="#000000" points="262.6297,436.0137,265.1289,426.8374,259.2579,427.1209,262.6297,436.0137" style="stroke:#000000;stroke-width:1.0;"/><text fill="#000000" font-family="Verdana" font-size="13" lengthAdjust="spacing" textLength="58" x="271.3885" y="435.52">Enseigne</text><text fill="#000000" font-family="Verdana" font-size="13" lengthAdjust="spacing" textLength="8" x="244.4604" y="377.954">1</text><text fill="#000000" font-family="Verdana" font-size="13" lengthAdjust="spacing" textLength="7" x="258.2568" y="623.7925">*</text><!--MD5=[dd19a10ffb7e2e1829c46178384b5825]
link Cours to GroupeCours--><path codeLine="87" d="M121.5195,468.2991 C126.3215,505.7171 138.3705,564.1601 168.3885,604.9531 C176.7715,616.3461 187.7575,626.3431 199.3705,634.8821 " fill="none" id="Cours-GroupeCours" style="stroke:#A80036;stroke-width:1.0;"/><polygon fill="#000000" points="175.5054,566.5493,174.3384,557.1106,169.0133,559.5992,175.5054,566.5493" style="stroke:#000000;stroke-width:1.0;"/><text fill="#000000" font-family="Verdana" font-size="13" lengthAdjust="spacing" textLength="38" x="182.3885" y="566.52">décris</text><text fill="#000000" font-family="Verdana" font-size="13" lengthAdjust="spacing" textLength="8" x="113.3816" y="487.5551">1</text><text fill="#000000" font-family="Verdana" font-size="13" lengthAdjust="spacing" textLength="23" x="161.525" y="623.7795">1..*</text><!--MD5=[a7baa54bc84030c0156c8e0cfba0978d]
link GroupeCours to EspaceCours--><path codeLine="88" d="M262.2105,709.1301 C256.6835,754.2001 254.6865,831.0951 294.3885,878.9531 C351.5285,947.8301 453.4925,972.6491 529.2025,981.3401 " fill="none" id="GroupeCours-EspaceCours" style="stroke:#A80036;stroke-width:1.0;"/><polygon fill="#000000" points="295.8873,806.45,300.1228,814.9653,304.3191,810.8495,295.8873,806.45" style="stroke:#000000;stroke-width:1.0;"/><text fill="#000000" font-family="Verdana" font-size="13" lengthAdjust="spacing" textLength="203" x="308.3885" y="814.52">Est-un-support-des-activités-du</text><text fill="#000000" font-family="Verdana" font-size="13" lengthAdjust="spacing" textLength="8" x="252.5248" y="728.64">1</text><text fill="#000000" font-family="Verdana" font-size="13" lengthAdjust="spacing" textLength="24" x="497.2576" y="977.4928">1..0</text><!--MD5=[af2d7541308f58d5363465f4e73c7e54]
link Etudiant to Remise--><path codeLine="89" d="M452.5865,318.0531 C593.4375,327.3931 888.3885,369.7631 888.3885,560.9531 C888.3885,560.9531 888.3885,560.9531 888.3885,1163.9531 C888.3885,1220.7421 848.4345,1273.7741 814.2555,1308.7521 " fill="none" id="Etudiant-Remise" style="stroke:#A80036;stroke-width:1.0;"/><polygon fill="#000000" points="895.1031,922.2163,894.762,912.7119,889.2406,914.7276,895.1031,922.2163" style="stroke:#000000;stroke-width:1.0;"/><text fill="#000000" font-family="Verdana" font-size="13" lengthAdjust="spacing" textLength="30" x="902.3885" y="922.02">Crée</text><text fill="#000000" font-family="Verdana" font-size="13" lengthAdjust="spacing" textLength="8" x="460.5475" y="314.7134">1</text><text fill="#000000" font-family="Verdana" font-size="13" lengthAdjust="spacing" textLength="7" x="814.0492" y="1298.0339">*</text><!--MD5=[86d4d92ffa2b487721c11ee456a89a6b]
link Enseignant to Question--><path codeLine="90" d="M294.4415,357.5431 C297.9965,359.9331 301.6605,362.1131 305.3885,363.9531 C369.8545,395.8231 409.0905,347.9731 464.3885,393.9531 C570.0155,481.7731 606.5795,647.7121 619.0635,740.9511 " fill="none" id="Enseignant-Question" style="stroke:#A80036;stroke-width:1.0;"/><polygon fill="#000000" points="597.6194,565.8355,594.0176,557.0333,589.5317,560.8314,597.6194,565.8355" style="stroke:#000000;stroke-width:1.0;"/><text fill="#000000" font-family="Verdana" font-size="13" lengthAdjust="spacing" textLength="30" x="603.3885" y="566.52">Crée</text><text fill="#000000" font-family="Verdana" font-size="13" lengthAdjust="spacing" textLength="8" x="294.2335" y="384.4082">1</text><text fill="#000000" font-family="Verdana" font-size="13" lengthAdjust="spacing" textLength="7" x="610.9889" y="729.678">*</text><!--MD5=[3537acb344145d0ef730434aa393bdc5]
link Enseignant to Questionnaire--><path codeLine="91" d="M293.9705,357.6431 C297.6605,360.0431 301.4815,362.1931 305.3885,363.9531 C411.8555,411.8931 461.9575,341.7231 566.3885,393.9531 C622.7895,422.1631 669.7565,479.1641 697.4495,518.6731 " fill="none" id="Enseignant-Questionnaire" style="stroke:#A80036;stroke-width:1.0;"/><polygon fill="#000000" points="664.0323,432.8729,656.721,426.7906,654.5422,432.2497,664.0323,432.8729" style="stroke:#000000;stroke-width:1.0;"/><text fill="#000000" font-family="Verdana" font-size="13" lengthAdjust="spacing" textLength="30" x="668.3885" y="435.52">Crée</text><text fill="#000000" font-family="Verdana" font-size="13" lengthAdjust="spacing" textLength="8" x="290.4147" y="379.4655">1</text><text fill="#000000" font-family="Verdana" font-size="13" lengthAdjust="spacing" textLength="7" x="685.7885" y="507.9428">*</text><!--MD5=[e48116efd1f0894966f6b68e8e493370]
link Enseignant to Devoir--><path codeLine="92" d="M202.8245,357.5731 C199.0745,359.9231 195.2445,362.0831 191.3885,363.9531 C137.2575,390.2131 101.6919,351.1731 59.3883,393.9531 C6,447.9401 23.3883,485.0261 23.3883,560.9531 C23.3883,560.9531 23.3883,560.9531 23.3883,987.4531 C23.3883,1095.5211 385.7855,1140.9411 548.2265,1155.8711 " fill="none" id="Enseignant-Devoir" style="stroke:#A80036;stroke-width:1.0;"/><polygon fill="#000000" points="30.3738,814.6084,29.4793,805.14,24.0848,807.4741,30.3738,814.6084" style="stroke:#000000;stroke-width:1.0;"/><text fill="#000000" font-family="Verdana" font-size="13" lengthAdjust="spacing" textLength="30" x="37.3883" y="814.52">Crée</text><text fill="#000000" font-family="Verdana" font-size="13" lengthAdjust="spacing" textLength="8" x="186.1186" y="378.0007">1</text><text fill="#000000" font-family="Verdana" font-size="13" lengthAdjust="spacing" textLength="7" x="533.2863" y="1151.5272">*</text><rect fill="#DDDDDD" height="79.1875" rx="5" ry="5" style="stroke:#000000;stroke-width:1.0;" width="325" x="300.6943" y="1424.9531"/><text fill="#000000" font-family="Verdana" font-size="14" font-weight="bold" lengthAdjust="spacing" textLength="0" x="311.6943" y="1444.9482"/><text fill="#000000" font-family="Verdana" font-size="14" font-weight="bold" lengthAdjust="spacing" textLength="39" x="334.6943" y="1444.9482">Type</text><text fill="#000000" filter="url(#b15rd5fnex9cbv0)" font-family="Verdana" font-size="14" lengthAdjust="spacing" textLength="23" x="306.6943" y="1461.2451">_1_</text><text fill="#000000" font-family="Verdana" font-size="14" lengthAdjust="spacing" textLength="282" x="333.6943" y="1461.2451">Classe non modifiée première itération</text><text fill="#000000" filter="url(#b15rd5fnex9cbv1)" font-family="Verdana" font-size="14" lengthAdjust="spacing" textLength="23" x="306.6943" y="1477.542">_1_</text><text fill="#000000" font-family="Verdana" font-size="14" lengthAdjust="spacing" textLength="251" x="333.6943" y="1477.542">Classe modifiée première itération</text><text fill="#000000" filter="url(#b15rd5fnex9cbv2)" font-family="Verdana" font-size="14" lengthAdjust="spacing" textLength="22" x="306.6943" y="1493.8389">_2_</text><text fill="#000000" font-family="Verdana" font-size="14" lengthAdjust="spacing" textLength="249" x="333.6943" y="1493.8389">Nouvelle classe deuxième itération</text><line style="stroke:#000000;stroke-width:1.0;" x1="306.6943" x2="619.6943" y1="1431.9531" y2="1431.9531"/><line style="stroke:#000000;stroke-width:1.0;" x1="306.6943" x2="619.6943" y1="1448.25" y2="1448.25"/><line style="stroke:#000000;stroke-width:1.0;" x1="306.6943" x2="619.6943" y1="1464.5469" y2="1464.5469"/><line style="stroke:#000000;stroke-width:1.0;" x1="306.6943" x2="619.6943" y1="1480.8438" y2="1480.8438"/><line style="stroke:#000000;stroke-width:1.0;" x1="306.6943" x2="619.6943" y1="1497.1406" y2="1497.1406"/><line style="stroke:#000000;stroke-width:1.0;" x1="306.6943" x2="306.6943" y1="1431.9531" y2="1497.1406"/><line style="stroke:#000000;stroke-width:1.0;" x1="329.6943" x2="329.6943" y1="1431.9531" y2="1497.1406"/><line style="stroke:#000000;stroke-width:1.0;" x1="619.6943" x2="619.6943" y1="1431.9531" y2="1497.1406"/><!--MD5=[0f10fe59753c19f6858bff3be24b2784]
@startuml
skinparam defaultfontname Verdana
skinparam RoundCorner 20
' skinparam linetype ortho

title Modèle du domaine


package SGB{
    class Université << (2,red) >>{}

    class CatalogueCours << (2,red)>>{}

    class Enseignant << 1,yellow) >>{
    prenom : String
    nom : String
    courriel : String
    }

    class Etudiant << 1,yellow) >>{
    nom : String
    codePermanent : String
    prenom : String
    courriel : String
    }

    class Cours << (1,blue) >>{
    id : numbers
    nom : String
    }

    class GroupeCours << 1,yellow) >>{
        id : number
        limiteNombreInscription : number
    }
}

package SGA{
    class Devoir << (2,red) >>{
        id: number
        nom: String
        description : String
        note maximale : number
        date de début : String
        date de fin : String
        visible : boolean
    }

    class Remise << (2,red) >>{
        id : number
        etat : String
        dateRemise : String
    }

    class Question << 1,yellow) >>{
        id : number
        nom : String
        tags : String
        texteQuestion : String
        reponse : boolean
        texteBonneReponse : String
        texteMauvaiseReponse : String
    }

    class Questionnaire << (2,red) >>{
        id: number
        description: String
        état : boolean
    }

    class EspaceCours << (2,red) >>{
        idEspaceGroupeCours : number
    }
}

Université "1" - - "1"CatalogueCours : offre >
CatalogueCours "1"- - "*"Cours : repertorie >
Devoir "1"- -"*" Remise : contient >
EspaceCours "1"- -"*" Devoir: contient >
Université "1"- -"*" Enseignant : emploie >
Questionnaire "1"- -"1..*" Question : contient >
Questionnaire"1"- -"*" Remise : possède >
Université "1"- -"*" Etudiant : est-inscrit-à <
Question "*"- -"1" EspaceCours : contient <
Questionnaire "*"- -"1" EspaceCours : contient <
Etudiant "1" - - "1..*"GroupeCours : S'inscrit-dans >
Enseignant "1" - - "*"GroupeCours : Enseigne >
Cours "1" - - "1..*" GroupeCours : décris >
GroupeCours "1"- - "1..0"EspaceCours : Est-un-support-des-activités-du <
Etudiant "1" - - "*" Remise : Crée >
Enseignant "1" - - "*" Question : Crée >
Enseignant "1" - - "*" Questionnaire : Crée >
Enseignant "1" - - "*" Devoir : Crée >

legend
|= |= Type |
|<back:blue>_1_</back>| Classe non modifiée première itération |
|<back:yellow>_1_</back>| Classe modifiée première itération |
|<back:red>_2_</back>| Nouvelle classe deuxième itération |
endlegend
@enduml

@startuml
skinparam defaultfontname Verdana
skinparam RoundCorner 20

title Modèle du domaine


package SGB{
    class Université << (2,red) >>{}

    class CatalogueCours << (2,red)>>{}

    class Enseignant << 1,yellow) >>{
    prenom : String
    nom : String
    courriel : String
    }

    class Etudiant << 1,yellow) >>{
    nom : String
    codePermanent : String
    prenom : String
    courriel : String
    }

    class Cours << (1,blue) >>{
    id : numbers
    nom : String
    }

    class GroupeCours << 1,yellow) >>{
        id : number
        limiteNombreInscription : number
    }
}

package SGA{
    class Devoir << (2,red) >>{
        id: number
        nom: String
        description : String
        note maximale : number
        date de début : String
        date de fin : String
        visible : boolean
    }

    class Remise << (2,red) >>{
        id : number
        etat : String
        dateRemise : String
    }

    class Question << 1,yellow) >>{
        id : number
        nom : String
        tags : String
        texteQuestion : String
        reponse : boolean
        texteBonneReponse : String
        texteMauvaiseReponse : String
    }

    class Questionnaire << (2,red) >>{
        id: number
        description: String
        état : boolean
    }

    class EspaceCours << (2,red) >>{
        idEspaceGroupeCours : number
    }
}

Université "1" - - "1"CatalogueCours : offre >
CatalogueCours "1"- - "*"Cours : repertorie >
Devoir "1"- -"*" Remise : contient >
EspaceCours "1"- -"*" Devoir: contient >
Université "1"- -"*" Enseignant : emploie >
Questionnaire "1"- -"1..*" Question : contient >
Questionnaire"1"- -"*" Remise : possède >
Université "1"- -"*" Etudiant : est-inscrit-à <
Question "*"- -"1" EspaceCours : contient <
Questionnaire "*"- -"1" EspaceCours : contient <
Etudiant "1" - - "1..*"GroupeCours : S'inscrit-dans >
Enseignant "1" - - "*"GroupeCours : Enseigne >
Cours "1" - - "1..*" GroupeCours : décris >
GroupeCours "1"- - "1..0"EspaceCours : Est-un-support-des-activités-du <
Etudiant "1" - - "*" Remise : Crée >
Enseignant "1" - - "*" Question : Crée >
Enseignant "1" - - "*" Questionnaire : Crée >
Enseignant "1" - - "*" Devoir : Crée >

legend
|= |= Type |
|<back:blue>_1_</back>| Classe non modifiée première itération |
|<back:yellow>_1_</back>| Classe modifiée première itération |
|<back:red>_2_</back>| Nouvelle classe deuxième itération |
endlegend
@enduml

PlantUML version 1.2021.9beta2(Unknown compile time)
(GPL source distribution)
Java Runtime: Java(TM) SE Runtime Environment
JVM: Java HotSpot(TM) 64-Bit Server VM
Default Encoding: UTF-8
Language: en
Country: US
--></g></svg>