<?xml version="1.0" encoding="UTF-8" standalone="no"?><svg xmlns="http://www.w3.org/2000/svg" xmlns:xlink="http://www.w3.org/1999/xlink" contentScriptType="application/ecmascript" contentStyleType="text/css" height="1670px" preserveAspectRatio="none" style="width:1838px;height:1670px;background:#FFFFFF;" version="1.1" viewBox="0 0 1838 1670" width="1838px" zoomAndPan="magnify"><defs><filter height="300%" id="f13cqkm2ve4g01" width="300%" x="-1" y="-1"><feGaussianBlur result="blurOut" stdDeviation="2.0"/><feColorMatrix in="blurOut" result="blurOut2" type="matrix" values="0 0 0 0 0 0 0 0 0 0 0 0 0 0 0 0 0 0 .4 0"/><feOffset dx="4.0" dy="4.0" in="blurOut2" result="blurOut3"/><feBlend in="SourceGraphic" in2="blurOut3" mode="normal"/></filter><filter height="1" id="b13cqkm2ve4g010" width="1" x="0" y="0"><feFlood flood-color="#0000FF" result="flood"/><feComposite in="SourceGraphic" in2="flood" operator="over"/></filter><filter height="1" id="b13cqkm2ve4g011" width="1" x="0" y="0"><feFlood flood-color="#FFFF00" result="flood"/><feComposite in="SourceGraphic" in2="flood" operator="over"/></filter><filter height="1" id="b13cqkm2ve4g012" width="1" x="0" y="0"><feFlood flood-color="#FF0000" result="flood"/><feComposite in="SourceGraphic" in2="flood" operator="over"/></filter></defs><g><text fill="#000000" font-family="Verdana" font-size="18" lengthAdjust="spacing" textLength="179" x="823.1923" y="16.708">Modèle du domaine</text><!--MD5=[a7e36d4aa44b43fc8fb02c9c2fa0b819]
cluster SGB--><polygon fill="#FFFFFF" filter="url(#f13cqkm2ve4g01)" points="60.3883,26.9531,99.3883,26.9531,106.3883,49.25,489.3885,49.25,489.3885,724.9531,60.3883,724.9531,60.3883,26.9531" style="stroke:#000000;stroke-width:1.5;"/><line style="stroke:#000000;stroke-width:1.5;" x1="60.3883" x2="106.3883" y1="49.25" y2="49.25"/><text fill="#000000" font-family="Verdana" font-size="14" font-weight="bold" lengthAdjust="spacing" textLength="33" x="64.3883" y="41.9482">SGB</text><!--MD5=[b72d85ecf124ab8e7e9b42ea86690e20]
cluster SGA--><polygon fill="#FFFFFF" filter="url(#f13cqkm2ve4g01)" points="513.3885,483.9531,552.3885,483.9531,559.3885,506.25,1779.3845,506.25,1779.3845,1560.9531,513.3885,1560.9531,513.3885,483.9531" style="stroke:#000000;stroke-width:1.5;"/><line style="stroke:#000000;stroke-width:1.5;" x1="513.3885" x2="559.3885" y1="506.25" y2="506.25"/><text fill="#000000" font-family="Verdana" font-size="14" font-weight="bold" lengthAdjust="spacing" textLength="33" x="517.3885" y="498.9482">SGA</text><!--MD5=[10a08b655f733f3f3e8b0ffe69f4343a]
class Université--><rect codeLine="9" fill="#FEFECE" filter="url(#f13cqkm2ve4g01)" height="48" id="Université" rx="10" ry="10" style="stroke:#A80036;stroke-width:1.5;" width="93" x="204.8885" y="61.9531"/><ellipse cx="219.8885" cy="77.9531" fill="#FF0000" rx="11" ry="11" style="stroke:#A80036;stroke-width:1.0;"/><path d="M218.4041,81.25 C219.9041,79.9688 220.8885,79.1094 221.3416,78.6875 C223.0291,77.1563 223.4354,76.5156 223.4354,75.4063 C223.4354,73.5156 221.8885,72.1094 219.826,72.1094 C218.8104,72.1094 217.8416,72.4531 217.1698,73.0625 C216.5916,73.5938 216.1541,74.4219 216.1541,74.9688 C216.1541,75.4063 216.5448,75.7813 216.9979,75.7813 C217.3573,75.7813 217.6698,75.5781 217.7635,75.2813 C217.951,74.7344 217.9666,74.7031 218.1385,74.5 C218.5135,74.0625 219.1073,73.8125 219.7791,73.8125 C220.8885,73.8125 221.7323,74.4688 221.7323,75.3438 C221.7323,75.9219 221.451,76.2969 219.7479,77.8438 C218.9823,78.5313 218.6698,78.8125 215.8104,81.1719 L215.8104,82.9531 L223.5291,82.9531 L223.5291,81.4531 C223.5291,81.0469 223.4979,80.8906 223.4041,80.75 C223.2479,80.4844 222.9666,80.3281 222.6698,80.3281 C222.1541,80.3281 221.8729,80.6406 221.826,81.25 L218.4041,81.25 Z " fill="#000000"/><text fill="#000000" font-family="Verdana" font-size="12" lengthAdjust="spacing" textLength="61" x="233.8885" y="82.1074">Université</text><line style="stroke:#A80036;stroke-width:1.5;" x1="205.8885" x2="296.8885" y1="93.9531" y2="93.9531"/><line style="stroke:#A80036;stroke-width:1.5;" x1="205.8885" x2="296.8885" y1="101.9531" y2="101.9531"/><!--MD5=[63c8a86559697f2113f14d70f80cad38]
class CatalogueCours--><rect codeLine="11" fill="#FEFECE" filter="url(#f13cqkm2ve4g01)" height="48" id="CatalogueCours" rx="10" ry="10" style="stroke:#A80036;stroke-width:1.5;" width="127" x="82.8883" y="186.9531"/><ellipse cx="97.8883" cy="202.9531" fill="#FF0000" rx="11" ry="11" style="stroke:#A80036;stroke-width:1.0;"/><path d="M96.4039,206.25 C97.9039,204.9688 98.8883,204.1094 99.3414,203.6875 C101.0289,202.1563 101.4352,201.5156 101.4352,200.4063 C101.4352,198.5156 99.8883,197.1094 97.8258,197.1094 C96.8102,197.1094 95.8414,197.4531 95.1696,198.0625 C94.5914,198.5938 94.1539,199.4219 94.1539,199.9688 C94.1539,200.4063 94.5446,200.7813 94.9977,200.7813 C95.3571,200.7813 95.6696,200.5781 95.7633,200.2813 C95.9508,199.7344 95.9664,199.7031 96.1383,199.5 C96.5133,199.0625 97.1071,198.8125 97.7789,198.8125 C98.8883,198.8125 99.7321,199.4688 99.7321,200.3438 C99.7321,200.9219 99.4508,201.2969 97.7477,202.8438 C96.9821,203.5313 96.6696,203.8125 93.8102,206.1719 L93.8102,207.9531 L101.5289,207.9531 L101.5289,206.4531 C101.5289,206.0469 101.4977,205.8906 101.4039,205.75 C101.2477,205.4844 100.9664,205.3281 100.6696,205.3281 C100.1539,205.3281 99.8727,205.6406 99.8258,206.25 L96.4039,206.25 Z " fill="#000000"/><text fill="#000000" font-family="Verdana" font-size="12" lengthAdjust="spacing" textLength="95" x="111.8883" y="207.1074">CatalogueCours</text><line style="stroke:#A80036;stroke-width:1.5;" x1="83.8883" x2="208.8883" y1="218.9531" y2="218.9531"/><line style="stroke:#A80036;stroke-width:1.5;" x1="83.8883" x2="208.8883" y1="226.9531" y2="226.9531"/><!--MD5=[0ea76b077f2fe2b0557d144a0cdb3724]
class Enseignant--><rect codeLine="13" fill="#FEFECE" filter="url(#f13cqkm2ve4g01)" height="86.4141" id="Enseignant" rx="10" ry="10" style="stroke:#A80036;stroke-width:1.5;" width="100" x="201.3885" y="271.4531"/><ellipse cx="217.7385" cy="287.4531" fill="#FFFF00" rx="11" ry="11" style="stroke:#A80036;stroke-width:1.0;"/><path d="M218.6916,281.6094 L215.0823,282.5469 C214.4104,282.7188 214.176,282.9219 214.176,283.4063 C214.176,283.9063 214.5198,284.2969 214.9729,284.2969 C215.1291,284.2969 215.1916,284.2813 215.5041,284.1875 L216.9885,283.7969 L216.9885,290.75 L215.2698,290.75 C214.8323,290.75 214.7073,290.7656 214.551,290.875 C214.301,291.0313 214.1448,291.3125 214.1448,291.6094 C214.1448,291.8594 214.2854,292.125 214.5041,292.2813 C214.6448,292.4063 214.8791,292.4531 215.2698,292.4531 L220.4104,292.4531 C220.7385,292.4531 221.0041,292.4063 221.1135,292.3281 C221.3791,292.1719 221.5198,291.8906 221.5198,291.6094 C221.5198,291.3281 221.3948,291.0781 221.176,290.9063 C221.0041,290.7813 220.8635,290.75 220.4104,290.75 L218.6916,290.75 L218.6916,281.6094 Z " fill="#000000"/><text fill="#000000" font-family="Verdana" font-size="12" lengthAdjust="spacing" textLength="65" x="232.0385" y="291.6074">Enseignant</text><line style="stroke:#A80036;stroke-width:1.5;" x1="202.3885" x2="300.3885" y1="303.4531" y2="303.4531"/><text fill="#000000" font-family="Verdana" font-size="11" lengthAdjust="spacing" textLength="88" x="207.3885" y="317.6636">prenom : String</text><text fill="#000000" font-family="Verdana" font-size="11" lengthAdjust="spacing" textLength="69" x="207.3885" y="330.4683">nom : String</text><text fill="#000000" font-family="Verdana" font-size="11" lengthAdjust="spacing" textLength="86" x="207.3885" y="343.2729">courriel : String</text><line style="stroke:#A80036;stroke-width:1.5;" x1="202.3885" x2="300.3885" y1="349.8672" y2="349.8672"/><!--MD5=[f84e857de5a9ca5678aed72e3e98d0a5]
class Etudiant--><rect codeLine="19" fill="#FEFECE" filter="url(#f13cqkm2ve4g01)" height="99.2188" id="Etudiant" rx="10" ry="10" style="stroke:#A80036;stroke-width:1.5;" width="146" x="306.3885" y="264.9531"/><ellipse cx="351.6385" cy="280.9531" fill="#FFFF00" rx="11" ry="11" style="stroke:#A80036;stroke-width:1.0;"/><path d="M352.5916,275.1094 L348.9823,276.0469 C348.3104,276.2188 348.076,276.4219 348.076,276.9063 C348.076,277.4063 348.4198,277.7969 348.8729,277.7969 C349.0291,277.7969 349.0916,277.7813 349.4041,277.6875 L350.8885,277.2969 L350.8885,284.25 L349.1698,284.25 C348.7323,284.25 348.6073,284.2656 348.451,284.375 C348.201,284.5313 348.0448,284.8125 348.0448,285.1094 C348.0448,285.3594 348.1854,285.625 348.4041,285.7813 C348.5448,285.9063 348.7791,285.9531 349.1698,285.9531 L354.3104,285.9531 C354.6385,285.9531 354.9041,285.9063 355.0135,285.8281 C355.2791,285.6719 355.4198,285.3906 355.4198,285.1094 C355.4198,284.8281 355.2948,284.5781 355.076,284.4063 C354.9041,284.2813 354.7635,284.25 354.3104,284.25 L352.5916,284.25 L352.5916,275.1094 Z " fill="#000000"/><text fill="#000000" font-family="Verdana" font-size="12" lengthAdjust="spacing" textLength="47" x="372.1385" y="285.1074">Etudiant</text><line style="stroke:#A80036;stroke-width:1.5;" x1="307.3885" x2="451.3885" y1="296.9531" y2="296.9531"/><text fill="#000000" font-family="Verdana" font-size="11" lengthAdjust="spacing" textLength="69" x="312.3885" y="311.1636">nom : String</text><text fill="#000000" font-family="Verdana" font-size="11" lengthAdjust="spacing" textLength="134" x="312.3885" y="323.9683">codePermanent : String</text><text fill="#000000" font-family="Verdana" font-size="11" lengthAdjust="spacing" textLength="88" x="312.3885" y="336.7729">prenom : String</text><text fill="#000000" font-family="Verdana" font-size="11" lengthAdjust="spacing" textLength="86" x="312.3885" y="349.5776">courriel : String</text><line style="stroke:#A80036;stroke-width:1.5;" x1="307.3885" x2="451.3885" y1="356.1719" y2="356.1719"/><!--MD5=[f6edf60997924e693a9a5571eb281b8c]
class Cours--><rect codeLine="26" fill="#FEFECE" filter="url(#f13cqkm2ve4g01)" height="73.6094" id="Cours" rx="10" ry="10" style="stroke:#A80036;stroke-width:1.5;" width="83" x="76.8883" y="393.9531"/><ellipse cx="99.0883" cy="409.9531" fill="#0000FF" rx="11" ry="11" style="stroke:#A80036;stroke-width:1.0;"/><path d="M100.0414,404.1094 L96.4321,405.0469 C95.7602,405.2188 95.5258,405.4219 95.5258,405.9063 C95.5258,406.4063 95.8696,406.7969 96.3227,406.7969 C96.4789,406.7969 96.5414,406.7813 96.8539,406.6875 L98.3383,406.2969 L98.3383,413.25 L96.6196,413.25 C96.1821,413.25 96.0571,413.2656 95.9008,413.375 C95.6508,413.5313 95.4946,413.8125 95.4946,414.1094 C95.4946,414.3594 95.6352,414.625 95.8539,414.7813 C95.9946,414.9063 96.2289,414.9531 96.6196,414.9531 L101.7602,414.9531 C102.0883,414.9531 102.3539,414.9063 102.4633,414.8281 C102.7289,414.6719 102.8696,414.3906 102.8696,414.1094 C102.8696,413.8281 102.7446,413.5781 102.5258,413.4063 C102.3539,413.2813 102.2133,413.25 101.7602,413.25 L100.0414,413.25 L100.0414,404.1094 Z " fill="#000000"/><text fill="#000000" font-family="Verdana" font-size="12" lengthAdjust="spacing" textLength="35" x="114.6883" y="414.1074">Cours</text><line style="stroke:#A80036;stroke-width:1.5;" x1="77.8883" x2="158.8883" y1="425.9531" y2="425.9531"/><text fill="#000000" font-family="Verdana" font-size="11" lengthAdjust="spacing" textLength="71" x="82.8883" y="440.1636">id : numbers</text><text fill="#000000" font-family="Verdana" font-size="11" lengthAdjust="spacing" textLength="69" x="82.8883" y="452.9683">nom : String</text><line style="stroke:#A80036;stroke-width:1.5;" x1="77.8883" x2="158.8883" y1="459.5625" y2="459.5625"/><!--MD5=[b32d763bfdb05d07119f0e8fadbdfdc1]
class GroupeCours--><rect codeLine="31" fill="#FEFECE" filter="url(#f13cqkm2ve4g01)" height="73.6094" id="GroupeCours" rx="10" ry="10" style="stroke:#A80036;stroke-width:1.5;" width="201" x="142.8885" y="634.9531"/><ellipse cx="199.1385" cy="650.9531" fill="#FFFF00" rx="11" ry="11" style="stroke:#A80036;stroke-width:1.0;"/><path d="M200.0916,645.1094 L196.4823,646.0469 C195.8104,646.2188 195.576,646.4219 195.576,646.9063 C195.576,647.4063 195.9198,647.7969 196.3729,647.7969 C196.5291,647.7969 196.5916,647.7813 196.9041,647.6875 L198.3885,647.2969 L198.3885,654.25 L196.6698,654.25 C196.2323,654.25 196.1073,654.2656 195.951,654.375 C195.701,654.5313 195.5448,654.8125 195.5448,655.1094 C195.5448,655.3594 195.6854,655.625 195.9041,655.7813 C196.0448,655.9063 196.2791,655.9531 196.6698,655.9531 L201.8104,655.9531 C202.1385,655.9531 202.4041,655.9063 202.5135,655.8281 C202.7791,655.6719 202.9198,655.3906 202.9198,655.1094 C202.9198,654.8281 202.7948,654.5781 202.576,654.4063 C202.4041,654.2813 202.2635,654.25 201.8104,654.25 L200.0916,654.25 L200.0916,645.1094 Z " fill="#000000"/><text fill="#000000" font-family="Verdana" font-size="12" lengthAdjust="spacing" textLength="80" x="219.6385" y="655.1074">GroupeCours</text><line style="stroke:#A80036;stroke-width:1.5;" x1="143.8885" x2="342.8885" y1="666.9531" y2="666.9531"/><text fill="#000000" font-family="Verdana" font-size="11" lengthAdjust="spacing" textLength="65" x="148.8885" y="681.1636">id : number</text><text fill="#000000" font-family="Verdana" font-size="11" lengthAdjust="spacing" textLength="189" x="148.8885" y="693.9683">limiteNombreInscription : number</text><line style="stroke:#A80036;stroke-width:1.5;" x1="143.8885" x2="342.8885" y1="700.5625" y2="700.5625"/><!--MD5=[54a5e0e6ed87cf29c8834e8f40ab0f5d]
class Devoir--><rect codeLine="38" fill="#FEFECE" filter="url(#f13cqkm2ve4g01)" height="137.6328" id="Devoir" rx="10" ry="10" style="stroke:#A80036;stroke-width:1.5;" width="154" x="548.3885" y="1243.9531"/><ellipse cx="601.1385" cy="1259.9531" fill="#FF0000" rx="11" ry="11" style="stroke:#A80036;stroke-width:1.0;"/><path d="M599.6541,1263.25 C601.1541,1261.9688 602.1385,1261.1094 602.5916,1260.6875 C604.2791,1259.1563 604.6854,1258.5156 604.6854,1257.4063 C604.6854,1255.5156 603.1385,1254.1094 601.076,1254.1094 C600.0604,1254.1094 599.0916,1254.4531 598.4198,1255.0625 C597.8416,1255.5938 597.4041,1256.4219 597.4041,1256.9688 C597.4041,1257.4063 597.7948,1257.7813 598.2479,1257.7813 C598.6073,1257.7813 598.9198,1257.5781 599.0135,1257.2813 C599.201,1256.7344 599.2166,1256.7031 599.3885,1256.5 C599.7635,1256.0625 600.3573,1255.8125 601.0291,1255.8125 C602.1385,1255.8125 602.9823,1256.4688 602.9823,1257.3438 C602.9823,1257.9219 602.701,1258.2969 600.9979,1259.8438 C600.2323,1260.5313 599.9198,1260.8125 597.0604,1263.1719 L597.0604,1264.9531 L604.7791,1264.9531 L604.7791,1263.4531 C604.7791,1263.0469 604.7479,1262.8906 604.6541,1262.75 C604.4979,1262.4844 604.2166,1262.3281 603.9198,1262.3281 C603.4041,1262.3281 603.1229,1262.6406 603.076,1263.25 L599.6541,1263.25 Z " fill="#000000"/><text fill="#000000" font-family="Verdana" font-size="12" lengthAdjust="spacing" textLength="40" x="621.6385" y="1264.1074">Devoir</text><line style="stroke:#A80036;stroke-width:1.5;" x1="549.3885" x2="701.3885" y1="1275.9531" y2="1275.9531"/><text fill="#000000" font-family="Verdana" font-size="11" lengthAdjust="spacing" textLength="61" x="554.3885" y="1290.1636">id: number</text><text fill="#000000" font-family="Verdana" font-size="11" lengthAdjust="spacing" textLength="65" x="554.3885" y="1302.9683">nom: String</text><text fill="#000000" font-family="Verdana" font-size="11" lengthAdjust="spacing" textLength="106" x="554.3885" y="1315.7729">description : String</text><text fill="#000000" font-family="Verdana" font-size="11" lengthAdjust="spacing" textLength="142" x="554.3885" y="1328.5776">note maximale : number</text><text fill="#000000" font-family="Verdana" font-size="11" lengthAdjust="spacing" textLength="126" x="554.3885" y="1341.3823">date de début : String</text><text fill="#000000" font-family="Verdana" font-size="11" lengthAdjust="spacing" textLength="107" x="554.3885" y="1354.187">date de fin : String</text><text fill="#000000" font-family="Verdana" font-size="11" lengthAdjust="spacing" textLength="94" x="554.3885" y="1366.9917">visible : boolean</text><line style="stroke:#A80036;stroke-width:1.5;" x1="549.3885" x2="701.3885" y1="1373.5859" y2="1373.5859"/><!--MD5=[1d9b9fea38fde0ee3d12b7f249f77478]
class Remise--><rect codeLine="48" fill="#FEFECE" filter="url(#f13cqkm2ve4g01)" height="86.4141" id="Remise" rx="10" ry="10" style="stroke:#A80036;stroke-width:1.5;" width="125" x="1368.8845" y="1458.9531"/><ellipse cx="1405.9345" cy="1474.9531" fill="#FF0000" rx="11" ry="11" style="stroke:#A80036;stroke-width:1.0;"/><path d="M1404.4501,1478.25 C1405.9501,1476.9688 1406.9345,1476.1094 1407.3876,1475.6875 C1409.0751,1474.1563 1409.4814,1473.5156 1409.4814,1472.4063 C1409.4814,1470.5156 1407.9345,1469.1094 1405.872,1469.1094 C1404.8564,1469.1094 1403.8876,1469.4531 1403.2158,1470.0625 C1402.6376,1470.5938 1402.2001,1471.4219 1402.2001,1471.9688 C1402.2001,1472.4063 1402.5908,1472.7813 1403.0439,1472.7813 C1403.4033,1472.7813 1403.7158,1472.5781 1403.8095,1472.2813 C1403.997,1471.7344 1404.0126,1471.7031 1404.1845,1471.5 C1404.5595,1471.0625 1405.1533,1470.8125 1405.8251,1470.8125 C1406.9345,1470.8125 1407.7783,1471.4688 1407.7783,1472.3438 C1407.7783,1472.9219 1407.497,1473.2969 1405.7939,1474.8438 C1405.0283,1475.5313 1404.7158,1475.8125 1401.8564,1478.1719 L1401.8564,1479.9531 L1409.5751,1479.9531 L1409.5751,1478.4531 C1409.5751,1478.0469 1409.5439,1477.8906 1409.4501,1477.75 C1409.2939,1477.4844 1409.0126,1477.3281 1408.7158,1477.3281 C1408.2001,1477.3281 1407.9189,1477.6406 1407.872,1478.25 L1404.4501,1478.25 Z " fill="#000000"/><text fill="#000000" font-family="Verdana" font-size="12" lengthAdjust="spacing" textLength="44" x="1424.8345" y="1479.1074">Remise</text><line style="stroke:#A80036;stroke-width:1.5;" x1="1369.8845" x2="1492.8845" y1="1490.9531" y2="1490.9531"/><text fill="#000000" font-family="Verdana" font-size="11" lengthAdjust="spacing" textLength="65" x="1374.8845" y="1505.1636">id : number</text><text fill="#000000" font-family="Verdana" font-size="11" lengthAdjust="spacing" textLength="67" x="1374.8845" y="1517.9683">etat : String</text><text fill="#000000" font-family="Verdana" font-size="11" lengthAdjust="spacing" textLength="113" x="1374.8845" y="1530.7729">dateRemise : String</text><line style="stroke:#A80036;stroke-width:1.5;" x1="1369.8845" x2="1492.8845" y1="1537.3672" y2="1537.3672"/><!--MD5=[fc7123defb831ecdd44b2d9bcef6cceb]
class Question--><rect codeLine="55" fill="#FEFECE" filter="url(#f13cqkm2ve4g01)" height="124.8281" id="Question" rx="10" ry="10" style="stroke:#A80036;stroke-width:1.5;" width="191" x="895.8885" y="903.9531"/><ellipse cx="960.1385" cy="919.9531" fill="#FFFF00" rx="11" ry="11" style="stroke:#A80036;stroke-width:1.0;"/><path d="M961.0916,914.1094 L957.4823,915.0469 C956.8104,915.2188 956.576,915.4219 956.576,915.9063 C956.576,916.4063 956.9198,916.7969 957.3729,916.7969 C957.5291,916.7969 957.5916,916.7813 957.9041,916.6875 L959.3885,916.2969 L959.3885,923.25 L957.6698,923.25 C957.2323,923.25 957.1073,923.2656 956.951,923.375 C956.701,923.5313 956.5448,923.8125 956.5448,924.1094 C956.5448,924.3594 956.6854,924.625 956.9041,924.7813 C957.0448,924.9063 957.2791,924.9531 957.6698,924.9531 L962.8104,924.9531 C963.1385,924.9531 963.4041,924.9063 963.5135,924.8281 C963.7791,924.6719 963.9198,924.3906 963.9198,924.1094 C963.9198,923.8281 963.7948,923.5781 963.576,923.4063 C963.4041,923.2813 963.2635,923.25 962.8104,923.25 L961.0916,923.25 L961.0916,914.1094 Z " fill="#000000"/><text fill="#000000" font-family="Verdana" font-size="12" lengthAdjust="spacing" textLength="54" x="980.6385" y="924.1074">Question</text><line style="stroke:#A80036;stroke-width:1.5;" x1="896.8885" x2="1085.8885" y1="935.9531" y2="935.9531"/><text fill="#000000" font-family="Verdana" font-size="11" lengthAdjust="spacing" textLength="65" x="901.8885" y="950.1636">id : number</text><text fill="#000000" font-family="Verdana" font-size="11" lengthAdjust="spacing" textLength="69" x="901.8885" y="962.9683">nom : String</text><text fill="#000000" font-family="Verdana" font-size="11" lengthAdjust="spacing" textLength="68" x="901.8885" y="975.7729">tags : String</text><text fill="#000000" font-family="Verdana" font-size="11" lengthAdjust="spacing" textLength="126" x="901.8885" y="988.5776">texteQuestion : String</text><text fill="#000000" font-family="Verdana" font-size="11" lengthAdjust="spacing" textLength="162" x="901.8885" y="1001.3823">texteBonneReponse : String</text><text fill="#000000" font-family="Verdana" font-size="11" lengthAdjust="spacing" textLength="179" x="901.8885" y="1014.187">texteMauvaiseReponse : String</text><line style="stroke:#A80036;stroke-width:1.5;" x1="896.8885" x2="1085.8885" y1="1020.7813" y2="1020.7813"/><!--MD5=[5a3b85c54cc1c79904e0b827443986bf]
class Questionnaire--><rect codeLine="64" fill="#FEFECE" filter="url(#f13cqkm2ve4g01)" height="86.4141" id="Questionnaire" rx="10" ry="10" style="stroke:#A80036;stroke-width:1.5;" width="116" x="634.3885" y="518.9531"/><ellipse cx="649.3885" cy="534.9531" fill="#FF0000" rx="11" ry="11" style="stroke:#A80036;stroke-width:1.0;"/><path d="M647.9041,538.25 C649.4041,536.9688 650.3885,536.1094 650.8416,535.6875 C652.5291,534.1563 652.9354,533.5156 652.9354,532.4063 C652.9354,530.5156 651.3885,529.1094 649.326,529.1094 C648.3104,529.1094 647.3416,529.4531 646.6698,530.0625 C646.0916,530.5938 645.6541,531.4219 645.6541,531.9688 C645.6541,532.4063 646.0448,532.7813 646.4979,532.7813 C646.8573,532.7813 647.1698,532.5781 647.2635,532.2813 C647.451,531.7344 647.4666,531.7031 647.6385,531.5 C648.0135,531.0625 648.6073,530.8125 649.2791,530.8125 C650.3885,530.8125 651.2323,531.4688 651.2323,532.3438 C651.2323,532.9219 650.951,533.2969 649.2479,534.8438 C648.4823,535.5313 648.1698,535.8125 645.3104,538.1719 L645.3104,539.9531 L653.0291,539.9531 L653.0291,538.4531 C653.0291,538.0469 652.9979,537.8906 652.9041,537.75 C652.7479,537.4844 652.4666,537.3281 652.1698,537.3281 C651.6541,537.3281 651.3729,537.6406 651.326,538.25 L647.9041,538.25 Z " fill="#000000"/><text fill="#000000" font-family="Verdana" font-size="12" lengthAdjust="spacing" textLength="84" x="663.3885" y="539.1074">Questionnaire</text><line style="stroke:#A80036;stroke-width:1.5;" x1="635.3885" x2="749.3885" y1="550.9531" y2="550.9531"/><text fill="#000000" font-family="Verdana" font-size="11" lengthAdjust="spacing" textLength="61" x="640.3885" y="565.1636">id: number</text><text fill="#000000" font-family="Verdana" font-size="11" lengthAdjust="spacing" textLength="102" x="640.3885" y="577.9683">description: String</text><text fill="#000000" font-family="Verdana" font-size="11" lengthAdjust="spacing" textLength="80" x="640.3885" y="590.7729">état : boolean</text><line style="stroke:#A80036;stroke-width:1.5;" x1="635.3885" x2="749.3885" y1="597.3672" y2="597.3672"/><!--MD5=[05ea6acd66af444e8e74b94591dc9ae3]
class Tentative--><rect codeLine="70" fill="#FEFECE" filter="url(#f13cqkm2ve4g01)" height="86.4141" id="Tentative" rx="10" ry="10" style="stroke:#A80036;stroke-width:1.5;" width="93" x="823.8885" y="740.9531"/><ellipse cx="841.5885" cy="756.9531" fill="#008000" rx="11" ry="11" style="stroke:#A80036;stroke-width:1.0;"/><path d="M841.776,755.9375 C841.276,755.9375 840.901,756.2969 840.901,756.7969 C840.901,757.25 841.2135,757.5469 841.776,757.5781 C842.5104,757.6094 842.7291,757.6406 843.0885,757.7969 C843.8854,758.125 844.3854,758.7188 844.3854,759.3438 C844.3854,759.7344 844.1979,760.1563 843.901,760.4375 C843.4479,760.8438 842.8229,761.0156 841.651,761.0156 C840.5573,761.0156 840.0416,760.9063 839.6041,760.6094 C839.3385,760.4531 839.2604,760.4063 839.0573,760.4063 C838.5885,760.4063 838.2135,760.7813 838.2135,761.2656 C838.2135,762.125 839.6041,762.7031 841.6979,762.7031 C843.1823,762.7031 844.0729,762.4688 844.8229,761.9063 C845.6041,761.2969 846.0885,760.3438 846.0885,759.3594 C846.0885,758.2656 845.4479,757.4219 844.1666,756.7969 C845.2604,756.125 845.7135,755.5 845.7135,754.5625 C845.7135,753.875 845.401,753.125 844.8541,752.5938 C844.2135,751.9375 843.3229,751.6094 842.1979,751.6094 C840.3854,751.6094 838.6979,752.5156 838.6979,753.5 C838.6979,753.9531 839.0729,754.3438 839.5416,754.3438 C839.776,754.3438 839.9948,754.2344 840.151,754.0938 C840.6979,753.5 841.1666,753.3125 842.1041,753.3125 C843.276,753.3125 844.0104,753.7969 844.0104,754.5938 C844.0104,755.3125 843.2916,755.9375 842.4635,755.9375 L841.776,755.9375 Z " fill="#000000"/><text fill="#000000" font-family="Verdana" font-size="12" lengthAdjust="spacing" textLength="55" x="856.1885" y="761.1074">Tentative</text><line style="stroke:#A80036;stroke-width:1.5;" x1="824.8885" x2="915.8885" y1="772.9531" y2="772.9531"/><text fill="#000000" font-family="Verdana" font-size="11" lengthAdjust="spacing" textLength="65" x="829.8885" y="787.1636">id : number</text><text fill="#000000" font-family="Verdana" font-size="11" lengthAdjust="spacing" textLength="81" x="829.8885" y="799.9683">note : number</text><text fill="#000000" font-family="Verdana" font-size="11" lengthAdjust="spacing" textLength="72" x="829.8885" y="812.7729">statut : Sring</text><line style="stroke:#A80036;stroke-width:1.5;" x1="824.8885" x2="915.8885" y1="819.3672" y2="819.3672"/><!--MD5=[8e66f9cf9bec2764c885278c9827de79]
class QuestionChoixMultiple--><rect codeLine="76" fill="#FEFECE" filter="url(#f13cqkm2ve4g01)" height="60.8047" id="QuestionChoixMultiple" rx="10" ry="10" style="stroke:#A80036;stroke-width:1.5;" width="165" x="726.8885" y="1105.9531"/><ellipse cx="741.8885" cy="1121.9531" fill="#008000" rx="11" ry="11" style="stroke:#A80036;stroke-width:1.0;"/><path d="M742.076,1120.9375 C741.576,1120.9375 741.201,1121.2969 741.201,1121.7969 C741.201,1122.25 741.5135,1122.5469 742.076,1122.5781 C742.8104,1122.6094 743.0291,1122.6406 743.3885,1122.7969 C744.1854,1123.125 744.6854,1123.7188 744.6854,1124.3438 C744.6854,1124.7344 744.4979,1125.1563 744.201,1125.4375 C743.7479,1125.8438 743.1229,1126.0156 741.951,1126.0156 C740.8573,1126.0156 740.3416,1125.9063 739.9041,1125.6094 C739.6385,1125.4531 739.5604,1125.4063 739.3573,1125.4063 C738.8885,1125.4063 738.5135,1125.7813 738.5135,1126.2656 C738.5135,1127.125 739.9041,1127.7031 741.9979,1127.7031 C743.4823,1127.7031 744.3729,1127.4688 745.1229,1126.9063 C745.9041,1126.2969 746.3885,1125.3438 746.3885,1124.3594 C746.3885,1123.2656 745.7479,1122.4219 744.4666,1121.7969 C745.5604,1121.125 746.0135,1120.5 746.0135,1119.5625 C746.0135,1118.875 745.701,1118.125 745.1541,1117.5938 C744.5135,1116.9375 743.6229,1116.6094 742.4979,1116.6094 C740.6854,1116.6094 738.9979,1117.5156 738.9979,1118.5 C738.9979,1118.9531 739.3729,1119.3438 739.8416,1119.3438 C740.076,1119.3438 740.2948,1119.2344 740.451,1119.0938 C740.9979,1118.5 741.4666,1118.3125 742.4041,1118.3125 C743.576,1118.3125 744.3104,1118.7969 744.3104,1119.5938 C744.3104,1120.3125 743.5916,1120.9375 742.7635,1120.9375 L742.076,1120.9375 Z " fill="#000000"/><text fill="#000000" font-family="Verdana" font-size="12" lengthAdjust="spacing" textLength="133" x="755.8885" y="1126.1074">QuestionChoixMultiple</text><line style="stroke:#A80036;stroke-width:1.5;" x1="727.8885" x2="890.8885" y1="1137.9531" y2="1137.9531"/><text fill="#000000" font-family="Verdana" font-size="11" lengthAdjust="spacing" textLength="91" x="732.8885" y="1152.1636">reponse : String</text><line style="stroke:#A80036;stroke-width:1.5;" x1="727.8885" x2="890.8885" y1="1158.7578" y2="1158.7578"/><!--MD5=[b2bb3f9574ade9b11e8d20c9a708efc6]
class QuestionVraiFaux--><rect codeLine="80" fill="#FEFECE" filter="url(#f13cqkm2ve4g01)" height="60.8047" id="QuestionVraiFaux" rx="10" ry="10" style="stroke:#A80036;stroke-width:1.5;" width="137" x="1130.8845" y="1105.9531"/><ellipse cx="1145.8845" cy="1121.9531" fill="#008000" rx="11" ry="11" style="stroke:#A80036;stroke-width:1.0;"/><path d="M1146.072,1120.9375 C1145.572,1120.9375 1145.197,1121.2969 1145.197,1121.7969 C1145.197,1122.25 1145.5095,1122.5469 1146.072,1122.5781 C1146.8064,1122.6094 1147.0251,1122.6406 1147.3845,1122.7969 C1148.1814,1123.125 1148.6814,1123.7188 1148.6814,1124.3438 C1148.6814,1124.7344 1148.4939,1125.1563 1148.197,1125.4375 C1147.7439,1125.8438 1147.1189,1126.0156 1145.947,1126.0156 C1144.8533,1126.0156 1144.3376,1125.9063 1143.9001,1125.6094 C1143.6345,1125.4531 1143.5564,1125.4063 1143.3533,1125.4063 C1142.8845,1125.4063 1142.5095,1125.7813 1142.5095,1126.2656 C1142.5095,1127.125 1143.9001,1127.7031 1145.9939,1127.7031 C1147.4783,1127.7031 1148.3689,1127.4688 1149.1189,1126.9063 C1149.9001,1126.2969 1150.3845,1125.3438 1150.3845,1124.3594 C1150.3845,1123.2656 1149.7439,1122.4219 1148.4626,1121.7969 C1149.5564,1121.125 1150.0095,1120.5 1150.0095,1119.5625 C1150.0095,1118.875 1149.697,1118.125 1149.1501,1117.5938 C1148.5095,1116.9375 1147.6189,1116.6094 1146.4939,1116.6094 C1144.6814,1116.6094 1142.9939,1117.5156 1142.9939,1118.5 C1142.9939,1118.9531 1143.3689,1119.3438 1143.8376,1119.3438 C1144.072,1119.3438 1144.2908,1119.2344 1144.447,1119.0938 C1144.9939,1118.5 1145.4626,1118.3125 1146.4001,1118.3125 C1147.572,1118.3125 1148.3064,1118.7969 1148.3064,1119.5938 C1148.3064,1120.3125 1147.5876,1120.9375 1146.7595,1120.9375 L1146.072,1120.9375 Z " fill="#000000"/><text fill="#000000" font-family="Verdana" font-size="12" lengthAdjust="spacing" textLength="105" x="1159.8845" y="1126.1074">QuestionVraiFaux</text><line style="stroke:#A80036;stroke-width:1.5;" x1="1131.8845" x2="1266.8845" y1="1137.9531" y2="1137.9531"/><text fill="#000000" font-family="Verdana" font-size="11" lengthAdjust="spacing" textLength="104" x="1136.8845" y="1152.1636">reponse : boolean</text><line style="stroke:#A80036;stroke-width:1.5;" x1="1131.8845" x2="1266.8845" y1="1158.7578" y2="1158.7578"/><!--MD5=[5d1b0da2dad6243cf19418393fb81f01]
class QuestionMiseEnCorrespondance--><rect codeLine="84" fill="#FEFECE" filter="url(#f13cqkm2ve4g01)" height="60.8047" id="QuestionMiseEnCorrespondance" rx="10" ry="10" style="stroke:#A80036;stroke-width:1.5;" width="229" x="896.8885" y="1105.9531"/><ellipse cx="911.8885" cy="1121.9531" fill="#008000" rx="11" ry="11" style="stroke:#A80036;stroke-width:1.0;"/><path d="M912.076,1120.9375 C911.576,1120.9375 911.201,1121.2969 911.201,1121.7969 C911.201,1122.25 911.5135,1122.5469 912.076,1122.5781 C912.8104,1122.6094 913.0291,1122.6406 913.3885,1122.7969 C914.1854,1123.125 914.6854,1123.7188 914.6854,1124.3438 C914.6854,1124.7344 914.4979,1125.1563 914.201,1125.4375 C913.7479,1125.8438 913.1229,1126.0156 911.951,1126.0156 C910.8573,1126.0156 910.3416,1125.9063 909.9041,1125.6094 C909.6385,1125.4531 909.5604,1125.4063 909.3573,1125.4063 C908.8885,1125.4063 908.5135,1125.7813 908.5135,1126.2656 C908.5135,1127.125 909.9041,1127.7031 911.9979,1127.7031 C913.4823,1127.7031 914.3729,1127.4688 915.1229,1126.9063 C915.9041,1126.2969 916.3885,1125.3438 916.3885,1124.3594 C916.3885,1123.2656 915.7479,1122.4219 914.4666,1121.7969 C915.5604,1121.125 916.0135,1120.5 916.0135,1119.5625 C916.0135,1118.875 915.701,1118.125 915.1541,1117.5938 C914.5135,1116.9375 913.6229,1116.6094 912.4979,1116.6094 C910.6854,1116.6094 908.9979,1117.5156 908.9979,1118.5 C908.9979,1118.9531 909.3729,1119.3438 909.8416,1119.3438 C910.076,1119.3438 910.2948,1119.2344 910.451,1119.0938 C910.9979,1118.5 911.4666,1118.3125 912.4041,1118.3125 C913.576,1118.3125 914.3104,1118.7969 914.3104,1119.5938 C914.3104,1120.3125 913.5916,1120.9375 912.7635,1120.9375 L912.076,1120.9375 Z " fill="#000000"/><text fill="#000000" font-family="Verdana" font-size="12" lengthAdjust="spacing" textLength="197" x="925.8885" y="1126.1074">QuestionMiseEnCorrespondance</text><line style="stroke:#A80036;stroke-width:1.5;" x1="897.8885" x2="1124.8885" y1="1137.9531" y2="1137.9531"/><text fill="#000000" font-family="Verdana" font-size="11" lengthAdjust="spacing" textLength="91" x="902.8885" y="1152.1636">reponse : String</text><line style="stroke:#A80036;stroke-width:1.5;" x1="897.8885" x2="1124.8885" y1="1158.7578" y2="1158.7578"/><!--MD5=[9f6daee1ba4f63f49f4f9abfbd574fe3]
class QuestionReponseCourte--><rect codeLine="88" fill="#FEFECE" filter="url(#f13cqkm2ve4g01)" height="60.8047" id="QuestionReponseCourte" rx="10" ry="10" style="stroke:#A80036;stroke-width:1.5;" width="179" x="1272.8845" y="1105.9531"/><ellipse cx="1287.8845" cy="1121.9531" fill="#008000" rx="11" ry="11" style="stroke:#A80036;stroke-width:1.0;"/><path d="M1288.072,1120.9375 C1287.572,1120.9375 1287.197,1121.2969 1287.197,1121.7969 C1287.197,1122.25 1287.5095,1122.5469 1288.072,1122.5781 C1288.8064,1122.6094 1289.0251,1122.6406 1289.3845,1122.7969 C1290.1814,1123.125 1290.6814,1123.7188 1290.6814,1124.3438 C1290.6814,1124.7344 1290.4939,1125.1563 1290.197,1125.4375 C1289.7439,1125.8438 1289.1189,1126.0156 1287.947,1126.0156 C1286.8533,1126.0156 1286.3376,1125.9063 1285.9001,1125.6094 C1285.6345,1125.4531 1285.5564,1125.4063 1285.3533,1125.4063 C1284.8845,1125.4063 1284.5095,1125.7813 1284.5095,1126.2656 C1284.5095,1127.125 1285.9001,1127.7031 1287.9939,1127.7031 C1289.4783,1127.7031 1290.3689,1127.4688 1291.1189,1126.9063 C1291.9001,1126.2969 1292.3845,1125.3438 1292.3845,1124.3594 C1292.3845,1123.2656 1291.7439,1122.4219 1290.4626,1121.7969 C1291.5564,1121.125 1292.0095,1120.5 1292.0095,1119.5625 C1292.0095,1118.875 1291.697,1118.125 1291.1501,1117.5938 C1290.5095,1116.9375 1289.6189,1116.6094 1288.4939,1116.6094 C1286.6814,1116.6094 1284.9939,1117.5156 1284.9939,1118.5 C1284.9939,1118.9531 1285.3689,1119.3438 1285.8376,1119.3438 C1286.072,1119.3438 1286.2908,1119.2344 1286.447,1119.0938 C1286.9939,1118.5 1287.4626,1118.3125 1288.4001,1118.3125 C1289.572,1118.3125 1290.3064,1118.7969 1290.3064,1119.5938 C1290.3064,1120.3125 1289.5876,1120.9375 1288.7595,1120.9375 L1288.072,1120.9375 Z " fill="#000000"/><text fill="#000000" font-family="Verdana" font-size="12" lengthAdjust="spacing" textLength="147" x="1301.8845" y="1126.1074">QuestionReponseCourte</text><line style="stroke:#A80036;stroke-width:1.5;" x1="1273.8845" x2="1450.8845" y1="1137.9531" y2="1137.9531"/><text fill="#000000" font-family="Verdana" font-size="11" lengthAdjust="spacing" textLength="91" x="1278.8845" y="1152.1636">reponse : String</text><line style="stroke:#A80036;stroke-width:1.5;" x1="1273.8845" x2="1450.8845" y1="1158.7578" y2="1158.7578"/><!--MD5=[36cd517ead6aafdf09a21b1dc53b6288]
class QuestionNumerique--><rect codeLine="92" fill="#FEFECE" filter="url(#f13cqkm2ve4g01)" height="60.8047" id="QuestionNumerique" rx="10" ry="10" style="stroke:#A80036;stroke-width:1.5;" width="151" x="1456.8845" y="1105.9531"/><ellipse cx="1471.8845" cy="1121.9531" fill="#008000" rx="11" ry="11" style="stroke:#A80036;stroke-width:1.0;"/><path d="M1472.072,1120.9375 C1471.572,1120.9375 1471.197,1121.2969 1471.197,1121.7969 C1471.197,1122.25 1471.5095,1122.5469 1472.072,1122.5781 C1472.8064,1122.6094 1473.0251,1122.6406 1473.3845,1122.7969 C1474.1814,1123.125 1474.6814,1123.7188 1474.6814,1124.3438 C1474.6814,1124.7344 1474.4939,1125.1563 1474.197,1125.4375 C1473.7439,1125.8438 1473.1189,1126.0156 1471.947,1126.0156 C1470.8533,1126.0156 1470.3376,1125.9063 1469.9001,1125.6094 C1469.6345,1125.4531 1469.5564,1125.4063 1469.3533,1125.4063 C1468.8845,1125.4063 1468.5095,1125.7813 1468.5095,1126.2656 C1468.5095,1127.125 1469.9001,1127.7031 1471.9939,1127.7031 C1473.4783,1127.7031 1474.3689,1127.4688 1475.1189,1126.9063 C1475.9001,1126.2969 1476.3845,1125.3438 1476.3845,1124.3594 C1476.3845,1123.2656 1475.7439,1122.4219 1474.4626,1121.7969 C1475.5564,1121.125 1476.0095,1120.5 1476.0095,1119.5625 C1476.0095,1118.875 1475.697,1118.125 1475.1501,1117.5938 C1474.5095,1116.9375 1473.6189,1116.6094 1472.4939,1116.6094 C1470.6814,1116.6094 1468.9939,1117.5156 1468.9939,1118.5 C1468.9939,1118.9531 1469.3689,1119.3438 1469.8376,1119.3438 C1470.072,1119.3438 1470.2908,1119.2344 1470.447,1119.0938 C1470.9939,1118.5 1471.4626,1118.3125 1472.4001,1118.3125 C1473.572,1118.3125 1474.3064,1118.7969 1474.3064,1119.5938 C1474.3064,1120.3125 1473.5876,1120.9375 1472.7595,1120.9375 L1472.072,1120.9375 Z " fill="#000000"/><text fill="#000000" font-family="Verdana" font-size="12" lengthAdjust="spacing" textLength="119" x="1485.8845" y="1126.1074">QuestionNumerique</text><line style="stroke:#A80036;stroke-width:1.5;" x1="1457.8845" x2="1606.8845" y1="1137.9531" y2="1137.9531"/><text fill="#000000" font-family="Verdana" font-size="11" lengthAdjust="spacing" textLength="102" x="1462.8845" y="1152.1636">reponse : number</text><line style="stroke:#A80036;stroke-width:1.5;" x1="1457.8845" x2="1606.8845" y1="1158.7578" y2="1158.7578"/><!--MD5=[732b27b484320c71c45aabfa6c045458]
class QuestionChoixEssai--><rect codeLine="96" fill="#FEFECE" filter="url(#f13cqkm2ve4g01)" height="60.8047" id="QuestionChoixEssai" rx="10" ry="10" style="stroke:#A80036;stroke-width:1.5;" width="150" x="1613.3845" y="1105.9531"/><ellipse cx="1628.3845" cy="1121.9531" fill="#008000" rx="11" ry="11" style="stroke:#A80036;stroke-width:1.0;"/><path d="M1628.572,1120.9375 C1628.072,1120.9375 1627.697,1121.2969 1627.697,1121.7969 C1627.697,1122.25 1628.0095,1122.5469 1628.572,1122.5781 C1629.3064,1122.6094 1629.5251,1122.6406 1629.8845,1122.7969 C1630.6814,1123.125 1631.1814,1123.7188 1631.1814,1124.3438 C1631.1814,1124.7344 1630.9939,1125.1563 1630.697,1125.4375 C1630.2439,1125.8438 1629.6189,1126.0156 1628.447,1126.0156 C1627.3533,1126.0156 1626.8376,1125.9063 1626.4001,1125.6094 C1626.1345,1125.4531 1626.0564,1125.4063 1625.8533,1125.4063 C1625.3845,1125.4063 1625.0095,1125.7813 1625.0095,1126.2656 C1625.0095,1127.125 1626.4001,1127.7031 1628.4939,1127.7031 C1629.9783,1127.7031 1630.8689,1127.4688 1631.6189,1126.9063 C1632.4001,1126.2969 1632.8845,1125.3438 1632.8845,1124.3594 C1632.8845,1123.2656 1632.2439,1122.4219 1630.9626,1121.7969 C1632.0564,1121.125 1632.5095,1120.5 1632.5095,1119.5625 C1632.5095,1118.875 1632.197,1118.125 1631.6501,1117.5938 C1631.0095,1116.9375 1630.1189,1116.6094 1628.9939,1116.6094 C1627.1814,1116.6094 1625.4939,1117.5156 1625.4939,1118.5 C1625.4939,1118.9531 1625.8689,1119.3438 1626.3376,1119.3438 C1626.572,1119.3438 1626.7908,1119.2344 1626.947,1119.0938 C1627.4939,1118.5 1627.9626,1118.3125 1628.9001,1118.3125 C1630.072,1118.3125 1630.8064,1118.7969 1630.8064,1119.5938 C1630.8064,1120.3125 1630.0876,1120.9375 1629.2595,1120.9375 L1628.572,1120.9375 Z " fill="#000000"/><text fill="#000000" font-family="Verdana" font-size="12" lengthAdjust="spacing" textLength="118" x="1642.3845" y="1126.1074">QuestionChoixEssai</text><line style="stroke:#A80036;stroke-width:1.5;" x1="1614.3845" x2="1762.3845" y1="1137.9531" y2="1137.9531"/><text fill="#000000" font-family="Verdana" font-size="11" lengthAdjust="spacing" textLength="91" x="1619.3845" y="1152.1636">reponse : String</text><line style="stroke:#A80036;stroke-width:1.5;" x1="1614.3845" x2="1762.3845" y1="1158.7578" y2="1158.7578"/><!--MD5=[dabef5714f41dd45c84d2acd22a3f642]
class EspaceCours--><rect codeLine="99" fill="#FEFECE" filter="url(#f13cqkm2ve4g01)" height="60.8047" id="EspaceCours" rx="10" ry="10" style="stroke:#A80036;stroke-width:1.5;" width="192" x="529.3885" y="1105.9531"/><ellipse cx="581.6385" cy="1121.9531" fill="#FF0000" rx="11" ry="11" style="stroke:#A80036;stroke-width:1.0;"/><path d="M580.1541,1125.25 C581.6541,1123.9688 582.6385,1123.1094 583.0916,1122.6875 C584.7791,1121.1563 585.1854,1120.5156 585.1854,1119.4063 C585.1854,1117.5156 583.6385,1116.1094 581.576,1116.1094 C580.5604,1116.1094 579.5916,1116.4531 578.9198,1117.0625 C578.3416,1117.5938 577.9041,1118.4219 577.9041,1118.9688 C577.9041,1119.4063 578.2948,1119.7813 578.7479,1119.7813 C579.1073,1119.7813 579.4198,1119.5781 579.5135,1119.2813 C579.701,1118.7344 579.7166,1118.7031 579.8885,1118.5 C580.2635,1118.0625 580.8573,1117.8125 581.5291,1117.8125 C582.6385,1117.8125 583.4823,1118.4688 583.4823,1119.3438 C583.4823,1119.9219 583.201,1120.2969 581.4979,1121.8438 C580.7323,1122.5313 580.4198,1122.8125 577.5604,1125.1719 L577.5604,1126.9531 L585.2791,1126.9531 L585.2791,1125.4531 C585.2791,1125.0469 585.2479,1124.8906 585.1541,1124.75 C584.9979,1124.4844 584.7166,1124.3281 584.4198,1124.3281 C583.9041,1124.3281 583.6229,1124.6406 583.576,1125.25 L580.1541,1125.25 Z " fill="#000000"/><text fill="#000000" font-family="Verdana" font-size="12" lengthAdjust="spacing" textLength="79" x="602.1385" y="1126.1074">EspaceCours</text><line style="stroke:#A80036;stroke-width:1.5;" x1="530.3885" x2="720.3885" y1="1137.9531" y2="1137.9531"/><text fill="#000000" font-family="Verdana" font-size="11" lengthAdjust="spacing" textLength="180" x="535.3885" y="1152.1636">idEspaceGroupeCours : number</text><line style="stroke:#A80036;stroke-width:1.5;" x1="530.3885" x2="720.3885" y1="1158.7578" y2="1158.7578"/><!--MD5=[28171b3b1b7d9308f9ccc121ee214a29]
reverse link Question to QuestionChoixMultiple--><path d="M909.7655,1042.7971 C885.5715,1065.1301 860.4845,1088.2871 841.4425,1105.8651 " fill="none" id="Question-backto-QuestionChoixMultiple" style="stroke:#A80036;stroke-width:1.0;"/><polygon fill="none" points="905.2075,1037.4781,924.6515,1029.0561,914.7035,1047.7651,905.2075,1037.4781" style="stroke:#A80036;stroke-width:1.0;"/><!--MD5=[39e1b470d490cb232e6764910af5df78]
reverse link Question to QuestionVraiFaux--><path d="M1083.4945,1041.8501 C1111.5045,1064.4731 1140.6845,1088.0391 1162.7545,1105.8651 " fill="none" id="Question-backto-QuestionVraiFaux" style="stroke:#A80036;stroke-width:1.0;"/><polygon fill="none" points="1078.8145,1047.0681,1067.6545,1029.0561,1087.6145,1036.1771,1078.8145,1047.0681" style="stroke:#A80036;stroke-width:1.0;"/><!--MD5=[5ed60b9accfe0031a43a048e74585de9]
reverse link Question to QuestionMiseEnCorrespondance--><path d="M1001.1125,1049.1351 C1003.5305,1069.4501 1005.9705,1089.9461 1007.8655,1105.8651 " fill="none" id="Question-backto-QuestionMiseEnCorrespondance" style="stroke:#A80036;stroke-width:1.0;"/><polygon fill="none" points="994.1355,1049.7431,998.7225,1029.0561,1008.0375,1048.0881,994.1355,1049.7431" style="stroke:#A80036;stroke-width:1.0;"/><!--MD5=[3926187fd92bf53ae5c32c3c76f22fce]
reverse link Question to QuestionReponseCourte--><path d="M1105.5545,1019.1491 C1168.3845,1047.6001 1244.0945,1081.8851 1296.9745,1105.8301 " fill="none" id="Question-backto-QuestionReponseCourte" style="stroke:#A80036;stroke-width:1.0;"/><polygon fill="none" points="1102.2645,1025.3441,1086.9345,1010.7171,1108.0345,1012.5911,1102.2645,1025.3441" style="stroke:#A80036;stroke-width:1.0;"/><!--MD5=[ac269cb4f82ce33ddd978edd6c1fad8a]
reverse link Question to QuestionNumerique--><path d="M1106.4645,999.6601 C1200.3345,1026.4821 1336.1245,1066.5311 1453.3845,1105.9531 C1454.4945,1106.3261 1455.6145,1106.7051 1456.7445,1107.0881 " fill="none" id="Question-backto-QuestionNumerique" style="stroke:#A80036;stroke-width:1.0;"/><polygon fill="none" points="1104.4045,1006.3521,1087.0845,994.1421,1108.2445,992.8881,1104.4045,1006.3521" style="stroke:#A80036;stroke-width:1.0;"/><!--MD5=[bf56e5fb68b6ca9e72c7510b7f5f2e3a]
reverse link Question to QuestionChoixEssai--><path d="M1106.6645,988.3841 C1231.7045,1012.2221 1436.6145,1054.5981 1609.3845,1105.9531 C1610.6545,1106.3281 1611.9245,1106.7141 1613.2045,1107.1081 " fill="none" id="Question-backto-QuestionChoixEssai" style="stroke:#A80036;stroke-width:1.0;"/><polygon fill="none" points="1105.2645,995.2441,1086.9145,984.6471,1107.8745,981.4881,1105.2645,995.2441" style="stroke:#A80036;stroke-width:1.0;"/><!--MD5=[843a46382d283828a7d1783d3460c7c7]
link Université to CatalogueCours--><path codeLine="104" d="M204.7725,105.5631 C189.1855,113.9231 173.0775,125.2631 162.3885,139.9531 C152.4845,153.5631 148.5765,172.2831 147.0945,186.9431 " fill="none" id="Université-CatalogueCours" style="stroke:#A80036;stroke-width:1.0;"/><polygon fill="#000000" points="164.4973,152.5989,172.1253,146.9187,167.3298,143.5199,164.4973,152.5989" style="stroke:#000000;stroke-width:1.0;"/><text fill="#000000" font-family="Verdana" font-size="13" lengthAdjust="spacing" textLength="31" x="176.3885" y="153.02">offre</text><text fill="#000000" font-family="Verdana" font-size="13" lengthAdjust="spacing" textLength="8" x="189.0219" y="104.4945">1</text><text fill="#000000" font-family="Verdana" font-size="13" lengthAdjust="spacing" textLength="8" x="138.2505" y="175.9526">1</text><!--MD5=[caa7d714cd4e4959b4291618de060d69]
link CatalogueCours to Cours--><path codeLine="105" d="M123.2425,235.0031 C116.0869,243.6631 109.1117,254.0531 105.3883,264.9531 C90.8497,307.5031 98.9452,359.6931 107.4345,393.8331 " fill="none" id="CatalogueCours-Cours" style="stroke:#A80036;stroke-width:1.0;"/><polygon fill="#000000" points="109.8931,319.4949,113.7134,310.7854,107.8644,310.2033,109.8931,319.4949" style="stroke:#000000;stroke-width:1.0;"/><text fill="#000000" font-family="Verdana" font-size="13" lengthAdjust="spacing" textLength="63" x="119.3883" y="319.02">repertorie</text><text fill="#000000" font-family="Verdana" font-size="13" lengthAdjust="spacing" textLength="8" x="108.2858" y="255.1717">1</text><text fill="#000000" font-family="Verdana" font-size="13" lengthAdjust="spacing" textLength="7" x="97.8599" y="382.9987">*</text><!--MD5=[359da426c3c95d8048c951014945ceb0]
link Devoir to Remise--><path codeLine="106" d="M702.6715,1331.8831 C861.7545,1368.7921 1223.0945,1452.6261 1368.7745,1486.4257 " fill="none" id="Devoir-Remise" style="stroke:#A80036;stroke-width:1.0;"/><polygon fill="#000000" points="1110.2551,1421.6496,1102.1083,1416.7424,1100.7799,1422.4682,1110.2551,1421.6496" style="stroke:#000000;stroke-width:1.0;"/><text fill="#000000" font-family="Verdana" font-size="13" lengthAdjust="spacing" textLength="52" x="1114.3845" y="1425.02">contient</text><text fill="#000000" font-family="Verdana" font-size="13" lengthAdjust="spacing" textLength="8" x="710.4188" y="1330.0633">1</text><text fill="#000000" font-family="Verdana" font-size="13" lengthAdjust="spacing" textLength="7" x="1353.7173" y="1480.6695">*</text><!--MD5=[b8f15a7fbf1e0ac66b43fe2a255415c0]
link EspaceCours to Devoir--><path codeLine="107" d="M625.3885,1167.0551 C625.3885,1188.0581 625.3885,1217.1281 625.3885,1243.7211 " fill="none" id="EspaceCours-Devoir" style="stroke:#A80036;stroke-width:1.0;"/><polygon fill="#000000" points="630.3885,1210.5195,633.3274,1201.4744,627.4496,1201.4744,630.3885,1210.5195" style="stroke:#000000;stroke-width:1.0;"/><text fill="#000000" font-family="Verdana" font-size="13" lengthAdjust="spacing" textLength="52" x="639.3885" y="1210.02">contient</text><text fill="#000000" font-family="Verdana" font-size="13" lengthAdjust="spacing" textLength="8" x="616.5635" y="1187.0144">1</text><text fill="#000000" font-family="Verdana" font-size="13" lengthAdjust="spacing" textLength="7" x="618.0276" y="1232.9008">*</text><!--MD5=[e696a511ab66ff85cf29965a3cb732fe]
link Université to Enseignant--><path codeLine="108" d="M251.3885,110.3431 C251.3885,148.3131 251.3885,223.9231 251.3885,271.4131 " fill="none" id="Université-Enseignant" style="stroke:#A80036;stroke-width:1.0;"/><polygon fill="#000000" points="256.3885,153.5195,259.3274,144.4744,253.4496,144.4744,256.3885,153.5195" style="stroke:#000000;stroke-width:1.0;"/><text fill="#000000" font-family="Verdana" font-size="13" lengthAdjust="spacing" textLength="51" x="265.3885" y="153.02">emploie</text><text fill="#000000" font-family="Verdana" font-size="13" lengthAdjust="spacing" textLength="8" x="242.4135" y="130.1994">1</text><text fill="#000000" font-family="Verdana" font-size="13" lengthAdjust="spacing" textLength="7" x="243.8307" y="260.4028">*</text><!--MD5=[d99a8c8e2f040432a664dac4ac75f7f7]
link Questionnaire to Question--><path codeLine="109" d="M750.4015,568.8331 C797.5855,576.5231 862.9195,594.2441 904.3885,634.9531 C976.7905,706.0301 991.2855,829.6161 992.9295,903.8491 " fill="none" id="Questionnaire-Question" style="stroke:#A80036;stroke-width:1.0;"/><polygon fill="#000000" points="994.3205,788.0696,991.3971,779.0195,986.6359,782.4663,994.3205,788.0696" style="stroke:#000000;stroke-width:1.0;"/><text fill="#000000" font-family="Verdana" font-size="13" lengthAdjust="spacing" textLength="52" x="1000.3885" y="788.52">contient</text><text fill="#000000" font-family="Verdana" font-size="13" lengthAdjust="spacing" textLength="8" x="758.3469" y="565.8026">1</text><text fill="#000000" font-family="Verdana" font-size="13" lengthAdjust="spacing" textLength="23" x="968.778" y="892.8279">1..*</text><!--MD5=[5217f6319e60196188b9b46941152dbc]
link Université to Etudiant--><path codeLine="110" d="M293.4915,110.0931 C305.1845,118.2331 316.9685,128.2931 325.3885,139.9531 C352.1705,177.0331 365.9375,227.7731 372.8415,264.8031 " fill="none" id="Université-Etudiant" style="stroke:#A80036;stroke-width:1.0;"/><polygon fill="#000000" points="338.1067,144.0706,339.6195,153.46,344.8496,150.7776,338.1067,144.0706" style="stroke:#000000;stroke-width:1.0;"/><text fill="#000000" font-family="Verdana" font-size="13" lengthAdjust="spacing" textLength="76" x="349.3885" y="153.02">est-inscrit-à</text><text fill="#000000" font-family="Verdana" font-size="13" lengthAdjust="spacing" textLength="8" x="294.7791" y="129.8885">1</text><text fill="#000000" font-family="Verdana" font-size="13" lengthAdjust="spacing" textLength="7" x="364.4286" y="253.8273">*</text><!--MD5=[31ca12531000ae5fbc8b65f0576c1ae5]
link Question to EspaceCours--><path codeLine="111" d="M895.7045,1011.3741 C830.7865,1041.1721 746.7225,1079.7591 689.6985,1105.9341 " fill="none" id="Question-EspaceCours" style="stroke:#A80036;stroke-width:1.0;"/><polygon fill="#000000" points="796.9326,1065.4337,787.4862,1066.536,789.9382,1071.878,796.9326,1065.4337" style="stroke:#000000;stroke-width:1.0;"/><text fill="#000000" font-family="Verdana" font-size="13" lengthAdjust="spacing" textLength="52" x="801.3885" y="1072.02">contient</text><text fill="#000000" font-family="Verdana" font-size="13" lengthAdjust="spacing" textLength="7" x="880.8008" y="1011.4351">*</text><text fill="#000000" font-family="Verdana" font-size="13" lengthAdjust="spacing" textLength="8" x="694.8913" y="1094.7203">1</text><!--MD5=[9658aa9b13a75953075a809ba662f093]
link Questionnaire to EspaceCours--><path codeLine="112" d="M687.4615,605.0501 C674.5425,715.4421 639.9225,1011.2641 628.8465,1105.9011 " fill="none" id="Questionnaire-EspaceCours" style="stroke:#A80036;stroke-width:1.0;"/><polygon fill="#000000" points="662.9697,860.5534,658.9993,869.1956,664.8373,869.8788,662.9697,860.5534" style="stroke:#000000;stroke-width:1.0;"/><text fill="#000000" font-family="Verdana" font-size="13" lengthAdjust="spacing" textLength="52" x="671.3885" y="870.02">contient</text><text fill="#000000" font-family="Verdana" font-size="13" lengthAdjust="spacing" textLength="7" x="679.0658" y="625.4739">*</text><text fill="#000000" font-family="Verdana" font-size="13" lengthAdjust="spacing" textLength="8" x="620.7279" y="1094.68">1</text><!--MD5=[4a1dec41fc93cd3e03671729410bb2fc]
link Etudiant to GroupeCours--><path codeLine="113" d="M365.5245,363.9631 C356.5535,394.1531 344.1915,433.6231 331.3885,467.9531 C309.2395,527.3331 279.0855,594.5021 260.4455,634.7481 " fill="none" id="Etudiant-GroupeCours" style="stroke:#A80036;stroke-width:1.0;"/><polygon fill="#000000" points="359.5797,435.6809,365.5918,428.3116,360.112,426.1852,359.5797,435.6809" style="stroke:#000000;stroke-width:1.0;"/><text fill="#000000" font-family="Verdana" font-size="13" lengthAdjust="spacing" textLength="85" x="370.3885" y="435.52">S'inscrit-dans</text><text fill="#000000" font-family="Verdana" font-size="13" lengthAdjust="spacing" textLength="8" x="354.9007" y="384.3971">1</text><text fill="#000000" font-family="Verdana" font-size="13" lengthAdjust="spacing" textLength="23" x="265.5322" y="623.8986">1..*</text><!--MD5=[1b4ecfae8f4f6f2eba21162271229cb8]
link Enseignant to GroupeCours--><path codeLine="114" d="M250.4395,357.6331 C248.8545,428.0731 245.6945,568.4531 244.2035,634.7211 " fill="none" id="Enseignant-GroupeCours" style="stroke:#A80036;stroke-width:1.0;"/><polygon fill="#000000" points="255.276,436.0183,258.4177,427.0416,252.5413,426.9093,255.276,436.0183" style="stroke:#000000;stroke-width:1.0;"/><text fill="#000000" font-family="Verdana" font-size="13" lengthAdjust="spacing" textLength="58" x="264.3885" y="435.52">Enseigne</text><text fill="#000000" font-family="Verdana" font-size="13" lengthAdjust="spacing" textLength="8" x="241.6198" y="378.0706">1</text><text fill="#000000" font-family="Verdana" font-size="13" lengthAdjust="spacing" textLength="7" x="236.7252" y="623.8668">*</text><!--MD5=[dd19a10ffb7e2e1829c46178384b5825]
link Cours to GroupeCours--><path codeLine="115" d="M122.7965,468.1831 C128.6025,504.9831 141.4275,562.4431 168.3885,604.9531 C175.2635,615.7921 184.4305,625.8791 193.9895,634.7441 " fill="none" id="Cours-GroupeCours" style="stroke:#A80036;stroke-width:1.0;"/><polygon fill="#000000" points="175.3537,566.6172,174.5011,557.1449,169.0962,559.4551,175.3537,566.6172" style="stroke:#000000;stroke-width:1.0;"/><text fill="#000000" font-family="Verdana" font-size="13" lengthAdjust="spacing" textLength="38" x="182.3885" y="566.52">décris</text><text fill="#000000" font-family="Verdana" font-size="13" lengthAdjust="spacing" textLength="8" x="114.8639" y="487.7018">1</text><text fill="#000000" font-family="Verdana" font-size="13" lengthAdjust="spacing" textLength="23" x="160.1419" y="623.8938">1..*</text><!--MD5=[a7baa54bc84030c0156c8e0cfba0978d]
link GroupeCours to EspaceCours--><path codeLine="116" d="M243.0895,709.1351 C244.3425,751.6691 251.5895,822.9191 283.3885,873.9531 C352.0655,984.1741 485.0605,1065.2381 563.4305,1105.9501 " fill="none" id="GroupeCours-EspaceCours" style="stroke:#A80036;stroke-width:1.0;"/><polygon fill="#000000" points="285.2478,861.629,288.6426,870.5131,293.2162,866.8209,285.2478,861.629" style="stroke:#000000;stroke-width:1.0;"/><text fill="#000000" font-family="Verdana" font-size="13" lengthAdjust="spacing" textLength="203" x="297.3885" y="870.02">Est-un-support-des-activités-du</text><text fill="#000000" font-family="Verdana" font-size="13" lengthAdjust="spacing" textLength="8" x="234.3775" y="728.6458">1</text><text fill="#000000" font-family="Verdana" font-size="13" lengthAdjust="spacing" textLength="24" x="523.2522" y="1094.7398">1..0</text><!--MD5=[af2d7541308f58d5363465f4e73c7e54]
link Etudiant to Remise--><path codeLine="117" d="M452.5625,320.3831 C741.3705,340.8131 1786.3845,424.1831 1786.3845,560.9531 C1786.3845,560.9531 1786.3845,560.9531 1786.3845,1313.9531 C1786.3845,1444.5651 1595.9545,1484.1656 1494.0345,1496.0064 " fill="none" id="Etudiant-Remise" style="stroke:#A80036;stroke-width:1.0;"/><polygon fill="#000000" points="1794.7,970.2621,1790.902,961.5429,1786.5023,965.4405,1794.7,970.2621" style="stroke:#000000;stroke-width:1.0;"/><text fill="#000000" font-family="Verdana" font-size="13" lengthAdjust="spacing" textLength="30" x="1800.3845" y="971.02">Crée</text><text fill="#000000" font-family="Verdana" font-size="13" lengthAdjust="spacing" textLength="8" x="460.5211" y="317.2837">1</text><text fill="#000000" font-family="Verdana" font-size="13" lengthAdjust="spacing" textLength="7" x="1501.6831" y="1491.5023">*</text><!--MD5=[86d4d92ffa2b487721c11ee456a89a6b]
link Enseignant to Question--><path codeLine="118" d="M294.4415,357.5431 C297.9965,359.9331 301.6605,362.1131 305.3885,363.9531 C369.8545,395.8231 409.1415,347.9131 464.3885,393.9531 C640.0315,540.3131 479.3505,721.1171 649.3885,873.9531 C716.9275,934.6601 820.4265,955.7721 895.8805,962.7711 " fill="none" id="Enseignant-Question" style="stroke:#A80036;stroke-width:1.0;"/><polygon fill="#000000" points="576.9129,675.5661,572.6218,667.0787,568.4525,671.2219,576.9129,675.5661" style="stroke:#000000;stroke-width:1.0;"/><text fill="#000000" font-family="Verdana" font-size="13" lengthAdjust="spacing" textLength="30" x="582.3885" y="676.52">Crée</text><text fill="#000000" font-family="Verdana" font-size="13" lengthAdjust="spacing" textLength="8" x="294.2335" y="384.4082">1</text><text fill="#000000" font-family="Verdana" font-size="13" lengthAdjust="spacing" textLength="7" x="880.9908" y="958.9591">*</text><!--MD5=[3537acb344145d0ef730434aa393bdc5]
link Enseignant to Questionnaire--><path codeLine="119" d="M293.9825,357.6231 C297.6695,360.0231 301.4875,362.1831 305.3885,363.9531 C406.4875,409.8431 455.8755,340.8731 553.3885,393.9531 C605.7355,422.4531 646.4145,479.3831 669.8885,518.8031 " fill="none" id="Enseignant-Questionnaire" style="stroke:#A80036;stroke-width:1.0;"/><polygon fill="#000000" points="641.9839,432.9899,634.8289,426.7243,632.5126,432.1265,641.9839,432.9899" style="stroke:#000000;stroke-width:1.0;"/><text fill="#000000" font-family="Verdana" font-size="13" lengthAdjust="spacing" textLength="30" x="646.3885" y="435.52">Crée</text><text fill="#000000" font-family="Verdana" font-size="13" lengthAdjust="spacing" textLength="8" x="290.429" y="379.4417">1</text><text fill="#000000" font-family="Verdana" font-size="13" lengthAdjust="spacing" textLength="7" x="658.7448" y="507.7753">*</text><!--MD5=[e48116efd1f0894966f6b68e8e493370]
link Enseignant to Devoir--><path codeLine="120" d="M202.8245,357.5731 C199.0745,359.9231 195.2445,362.0831 191.3885,363.9531 C137.2575,390.2131 101.6919,351.1731 59.3883,393.9531 C6,447.9431 23.3883,485.0231 23.3883,560.9531 C23.3883,560.9531 23.3883,560.9531 23.3883,1137.4531 C23.3883,1245.5211 385.7855,1290.9411 548.2265,1305.8711 " fill="none" id="Enseignant-Devoir" style="stroke:#A80036;stroke-width:1.0;"/><polygon fill="#000000" points="30.0995,870.2176,29.7654,860.7129,24.2425,862.7245,30.0995,870.2176" style="stroke:#000000;stroke-width:1.0;"/><text fill="#000000" font-family="Verdana" font-size="13" lengthAdjust="spacing" textLength="30" x="37.3883" y="870.02">Crée</text><text fill="#000000" font-family="Verdana" font-size="13" lengthAdjust="spacing" textLength="8" x="186.1186" y="378.0007">1</text><text fill="#000000" font-family="Verdana" font-size="13" lengthAdjust="spacing" textLength="7" x="533.2863" y="1301.5272">*</text><!--MD5=[d740dbab77b09603ca57f1edb56f4f3e]
link Tentative to Question--><path codeLine="121" d="M886.8025,827.0171 C893.5245,842.3051 901.9505,859.3921 911.3885,873.9531 C917.9305,884.0461 925.5245,894.1811 933.3795,903.8381 " fill="none" id="Tentative-Question" style="stroke:#A80036;stroke-width:1.0;"/><polygon fill="#000000" points="918.9808,869.7951,916.8044,860.5369,911.7782,863.5843,918.9808,869.7951" style="stroke:#000000;stroke-width:1.0;"/><text fill="#000000" font-family="Verdana" font-size="13" lengthAdjust="spacing" textLength="54" x="925.3885" y="870.02">Contient</text><text fill="#000000" font-family="Verdana" font-size="13" lengthAdjust="spacing" textLength="8" x="880.8586" y="847.4354">1</text><text fill="#000000" font-family="Verdana" font-size="13" lengthAdjust="spacing" textLength="7" x="919.2675" y="892.8156">*</text><!--MD5=[7d5893d7306d46fdb942c2da6bc8309b]
link Questionnaire to Tentative--><path codeLine="122" d="M726.4975,605.1111 C758.0945,644.1631 804.8345,701.9311 836.3945,740.9381 " fill="none" id="Questionnaire-Tentative" style="stroke:#A80036;stroke-width:1.0;"/><polygon fill="#000000" points="835.5335,675.9066,832.1289,667.0263,827.5594,670.7234,835.5335,675.9066" style="stroke:#000000;stroke-width:1.0;"/><text fill="#000000" font-family="Verdana" font-size="13" lengthAdjust="spacing" textLength="54" x="841.3885" y="676.52">Contient</text><text fill="#000000" font-family="Verdana" font-size="13" lengthAdjust="spacing" textLength="8" x="723.4843" y="625.545">1</text><text fill="#000000" font-family="Verdana" font-size="13" lengthAdjust="spacing" textLength="7" x="823.4189" y="729.9318">*</text><rect fill="#DDDDDD" height="79.1875" rx="5" ry="5" style="stroke:#000000;stroke-width:1.0;" width="325" x="749.6923" y="1574.9531"/><text fill="#000000" font-family="Verdana" font-size="14" font-weight="bold" lengthAdjust="spacing" textLength="0" x="760.6923" y="1594.9482"/><text fill="#000000" font-family="Verdana" font-size="14" font-weight="bold" lengthAdjust="spacing" textLength="39" x="783.6923" y="1594.9482">Type</text><text fill="#000000" filter="url(#b13cqkm2ve4g010)" font-family="Verdana" font-size="14" lengthAdjust="spacing" textLength="23" x="755.6923" y="1611.2451">_1_</text><text fill="#000000" font-family="Verdana" font-size="14" lengthAdjust="spacing" textLength="282" x="782.6923" y="1611.2451">Classe non modifiée première itération</text><text fill="#000000" filter="url(#b13cqkm2ve4g011)" font-family="Verdana" font-size="14" lengthAdjust="spacing" textLength="23" x="755.6923" y="1627.542">_1_</text><text fill="#000000" font-family="Verdana" font-size="14" lengthAdjust="spacing" textLength="251" x="782.6923" y="1627.542">Classe modifiée première itération</text><text fill="#000000" filter="url(#b13cqkm2ve4g012)" font-family="Verdana" font-size="14" lengthAdjust="spacing" textLength="22" x="755.6923" y="1643.8389">_2_</text><text fill="#000000" font-family="Verdana" font-size="14" lengthAdjust="spacing" textLength="249" x="782.6923" y="1643.8389">Nouvelle classe deuxième itération</text><line style="stroke:#000000;stroke-width:1.0;" x1="755.6923" x2="1068.6923" y1="1581.9531" y2="1581.9531"/><line style="stroke:#000000;stroke-width:1.0;" x1="755.6923" x2="1068.6923" y1="1598.25" y2="1598.25"/><line style="stroke:#000000;stroke-width:1.0;" x1="755.6923" x2="1068.6923" y1="1614.5469" y2="1614.5469"/><line style="stroke:#000000;stroke-width:1.0;" x1="755.6923" x2="1068.6923" y1="1630.8438" y2="1630.8438"/><line style="stroke:#000000;stroke-width:1.0;" x1="755.6923" x2="1068.6923" y1="1647.1406" y2="1647.1406"/><line style="stroke:#000000;stroke-width:1.0;" x1="755.6923" x2="755.6923" y1="1581.9531" y2="1647.1406"/><line style="stroke:#000000;stroke-width:1.0;" x1="778.6923" x2="778.6923" y1="1581.9531" y2="1647.1406"/><line style="stroke:#000000;stroke-width:1.0;" x1="1068.6923" x2="1068.6923" y1="1581.9531" y2="1647.1406"/><!--MD5=[0d57e9b4575f5a245ea858b0a8d71283]
@startuml
skinparam defaultfontname Verdana
skinparam RoundCorner 20
' skinparam linetype ortho

title Modèle du domaine


package SGB{
    class Université << (2,red) >>{}

    class CatalogueCours << (2,red)>>{}

    class Enseignant << 1,yellow) >>{
    prenom : String
    nom : String
    courriel : String
    }

    class Etudiant << 1,yellow) >>{
    nom : String
    codePermanent : String
    prenom : String
    courriel : String
    }

    class Cours << (1,blue) >>{
    id : numbers
    nom : String
    }

    class GroupeCours << 1,yellow) >>{
        id : number
        limiteNombreInscription : number
    }
}

package SGA{
    class Devoir << (2,red) >>{
        id: number
        nom: String
        description : String
        note maximale : number
        date de début : String
        date de fin : String
        visible : boolean
    }

    class Remise << (2,red) >>{
        id : number
        etat : String
        dateRemise : String

    }

    class Question << 1,yellow) >>{
        id : number
        nom : String
        tags : String
        texteQuestion : String
        texteBonneReponse : String
        texteMauvaiseReponse : String
    }

    class Questionnaire << (2,red) >>{
        id: number
        description: String
        état : boolean
    }

    class Tentative <<(3, green) >>{
        id : number
        note : number
        statut : Sring
    }

    class QuestionChoixMultiple <<(3, green) >> extends Question {
        reponse : String
    }

    class QuestionVraiFaux<<(3, green) >> extends Question {
        reponse : boolean
    }

    class QuestionMiseEnCorrespondance<<(3, green) >> extends Question {
        reponse : String
    }

    class QuestionReponseCourte<<(3, green) >> extends Question {
        reponse : String
    }

    class QuestionNumerique<<(3, green) >> extends Question {
        reponse : number
    }

    class QuestionChoixEssai<<(3, green) >> extends Question {
        reponse : String
    }
    class EspaceCours << (2,red) >>{
        idEspaceGroupeCours : number
    }
}

Université "1" - - "1"CatalogueCours : offre >
CatalogueCours "1"- - "*"Cours : repertorie >
Devoir "1"- -"*" Remise : contient >
EspaceCours "1"- -"*" Devoir: contient >
Université "1"- -"*" Enseignant : emploie >
Questionnaire "1"- -"1..*" Question : contient >
Université "1"- -"*" Etudiant : est-inscrit-à <
Question "*"- -"1" EspaceCours : contient <
Questionnaire "*"- -"1" EspaceCours : contient <
Etudiant "1" - - "1..*"GroupeCours : S'inscrit-dans >
Enseignant "1" - - "*"GroupeCours : Enseigne >
Cours "1" - - "1..*" GroupeCours : décris >
GroupeCours "1"- - "1..0"EspaceCours : Est-un-support-des-activités-du <
Etudiant "1" - - "*" Remise : Crée >
Enseignant "1" - - "*" Question : Crée >
Enseignant "1" - - "*" Questionnaire : Crée >
Enseignant "1" - - "*" Devoir : Crée >
Tentative "1" - - "*" Question : Contient > 
Questionnaire"1" - - "*"Tentative : Contient >

legend
|= |= Type |
|<back:blue>_1_</back>| Classe non modifiée première itération |
|<back:yellow>_1_</back>| Classe modifiée première itération |
|<back:red>_2_</back>| Nouvelle classe deuxième itération |
endlegend
@enduml

@startuml
skinparam defaultfontname Verdana
skinparam RoundCorner 20

title Modèle du domaine


package SGB{
    class Université << (2,red) >>{}

    class CatalogueCours << (2,red)>>{}

    class Enseignant << 1,yellow) >>{
    prenom : String
    nom : String
    courriel : String
    }

    class Etudiant << 1,yellow) >>{
    nom : String
    codePermanent : String
    prenom : String
    courriel : String
    }

    class Cours << (1,blue) >>{
    id : numbers
    nom : String
    }

    class GroupeCours << 1,yellow) >>{
        id : number
        limiteNombreInscription : number
    }
}

package SGA{
    class Devoir << (2,red) >>{
        id: number
        nom: String
        description : String
        note maximale : number
        date de début : String
        date de fin : String
        visible : boolean
    }

    class Remise << (2,red) >>{
        id : number
        etat : String
        dateRemise : String

    }

    class Question << 1,yellow) >>{
        id : number
        nom : String
        tags : String
        texteQuestion : String
        texteBonneReponse : String
        texteMauvaiseReponse : String
    }

    class Questionnaire << (2,red) >>{
        id: number
        description: String
        état : boolean
    }

    class Tentative <<(3, green) >>{
        id : number
        note : number
        statut : Sring
    }

    class QuestionChoixMultiple <<(3, green) >> extends Question {
        reponse : String
    }

    class QuestionVraiFaux<<(3, green) >> extends Question {
        reponse : boolean
    }

    class QuestionMiseEnCorrespondance<<(3, green) >> extends Question {
        reponse : String
    }

    class QuestionReponseCourte<<(3, green) >> extends Question {
        reponse : String
    }

    class QuestionNumerique<<(3, green) >> extends Question {
        reponse : number
    }

    class QuestionChoixEssai<<(3, green) >> extends Question {
        reponse : String
    }
    class EspaceCours << (2,red) >>{
        idEspaceGroupeCours : number
    }
}

Université "1" - - "1"CatalogueCours : offre >
CatalogueCours "1"- - "*"Cours : repertorie >
Devoir "1"- -"*" Remise : contient >
EspaceCours "1"- -"*" Devoir: contient >
Université "1"- -"*" Enseignant : emploie >
Questionnaire "1"- -"1..*" Question : contient >
Université "1"- -"*" Etudiant : est-inscrit-à <
Question "*"- -"1" EspaceCours : contient <
Questionnaire "*"- -"1" EspaceCours : contient <
Etudiant "1" - - "1..*"GroupeCours : S'inscrit-dans >
Enseignant "1" - - "*"GroupeCours : Enseigne >
Cours "1" - - "1..*" GroupeCours : décris >
GroupeCours "1"- - "1..0"EspaceCours : Est-un-support-des-activités-du <
Etudiant "1" - - "*" Remise : Crée >
Enseignant "1" - - "*" Question : Crée >
Enseignant "1" - - "*" Questionnaire : Crée >
Enseignant "1" - - "*" Devoir : Crée >
Tentative "1" - - "*" Question : Contient > 
Questionnaire"1" - - "*"Tentative : Contient >

legend
|= |= Type |
|<back:blue>_1_</back>| Classe non modifiée première itération |
|<back:yellow>_1_</back>| Classe modifiée première itération |
|<back:red>_2_</back>| Nouvelle classe deuxième itération |
endlegend
@enduml

PlantUML version 1.2021.9beta2(Unknown compile time)
(GPL source distribution)
Java Runtime: Java(TM) SE Runtime Environment
JVM: Java HotSpot(TM) 64-Bit Server VM
Default Encoding: UTF-8
Language: en
Country: US
--></g></svg>