<?xml version="1.0" encoding="UTF-8" standalone="no"?><svg xmlns="http://www.w3.org/2000/svg" xmlns:xlink="http://www.w3.org/1999/xlink" contentScriptType="application/ecmascript" contentStyleType="text/css" height="1548px" preserveAspectRatio="none" style="width:1947px;height:1548px;background:#FFFFFF;" version="1.1" viewBox="0 0 1947 1548" width="1947px" zoomAndPan="magnify"><defs><filter height="300%" id="f1fsz49e9ol4y1" width="300%" x="-1" y="-1"><feGaussianBlur result="blurOut" stdDeviation="2.0"/><feColorMatrix in="blurOut" result="blurOut2" type="matrix" values="0 0 0 0 0 0 0 0 0 0 0 0 0 0 0 0 0 0 .4 0"/><feOffset dx="4.0" dy="4.0" in="blurOut2" result="blurOut3"/><feBlend in="SourceGraphic" in2="blurOut3" mode="normal"/></filter><filter height="1" id="b1fsz49e9ol4y10" width="1" x="0" y="0"><feFlood flood-color="#0000FF" result="flood"/><feComposite in="SourceGraphic" in2="flood" operator="over"/></filter><filter height="1" id="b1fsz49e9ol4y11" width="1" x="0" y="0"><feFlood flood-color="#FFFF00" result="flood"/><feComposite in="SourceGraphic" in2="flood" operator="over"/></filter><filter height="1" id="b1fsz49e9ol4y12" width="1" x="0" y="0"><feFlood flood-color="#FF0000" result="flood"/><feComposite in="SourceGraphic" in2="flood" operator="over"/></filter><filter height="1" id="b1fsz49e9ol4y13" width="1" x="0" y="0"><feFlood flood-color="#FFA500" result="flood"/><feComposite in="SourceGraphic" in2="flood" operator="over"/></filter></defs><g><text fill="#000000" font-family="Verdana" font-size="18" lengthAdjust="spacing" textLength="179" x="877.5" y="16.708">Modèle du domaine</text><!--MD5=[a7e36d4aa44b43fc8fb02c9c2fa0b819]
cluster SGB--><polygon fill="#FFFFFF" filter="url(#f1fsz49e9ol4y1)" points="1341,26.9531,1380,26.9531,1387,49.25,1770,49.25,1770,724.9531,1341,724.9531,1341,26.9531" style="stroke:#000000;stroke-width:1.5;"/><line style="stroke:#000000;stroke-width:1.5;" x1="1341" x2="1387" y1="49.25" y2="49.25"/><text fill="#000000" font-family="Verdana" font-size="14" font-weight="bold" lengthAdjust="spacing" textLength="33" x="1345" y="41.9482">SGB</text><!--MD5=[b72d85ecf124ab8e7e9b42ea86690e20]
cluster SGA--><polygon fill="#FFFFFF" filter="url(#f1fsz49e9ol4y1)" points="16,483.9531,55,483.9531,62,506.25,1317,506.25,1317,1422.9531,16,1422.9531,16,483.9531" style="stroke:#000000;stroke-width:1.5;"/><line style="stroke:#000000;stroke-width:1.5;" x1="16" x2="62" y1="506.25" y2="506.25"/><text fill="#000000" font-family="Verdana" font-size="14" font-weight="bold" lengthAdjust="spacing" textLength="33" x="20" y="498.9482">SGA</text><!--MD5=[10a08b655f733f3f3e8b0ffe69f4343a]
class Université--><rect codeLine="9" fill="#FEFECE" filter="url(#f1fsz49e9ol4y1)" height="48" id="Université" rx="10" ry="10" style="stroke:#A80036;stroke-width:1.5;" width="93" x="1488.5" y="61.9531"/><ellipse cx="1503.5" cy="77.9531" fill="#FF0000" rx="11" ry="11" style="stroke:#A80036;stroke-width:1.0;"/><path d="M1502.0156,81.25 C1503.5156,79.9688 1504.5,79.1094 1504.9531,78.6875 C1506.6406,77.1563 1507.0469,76.5156 1507.0469,75.4063 C1507.0469,73.5156 1505.5,72.1094 1503.4375,72.1094 C1502.4219,72.1094 1501.4531,72.4531 1500.7813,73.0625 C1500.2031,73.5938 1499.7656,74.4219 1499.7656,74.9688 C1499.7656,75.4063 1500.1563,75.7813 1500.6094,75.7813 C1500.9688,75.7813 1501.2813,75.5781 1501.375,75.2813 C1501.5625,74.7344 1501.5781,74.7031 1501.75,74.5 C1502.125,74.0625 1502.7188,73.8125 1503.3906,73.8125 C1504.5,73.8125 1505.3438,74.4688 1505.3438,75.3438 C1505.3438,75.9219 1505.0625,76.2969 1503.3594,77.8438 C1502.5938,78.5313 1502.2813,78.8125 1499.4219,81.1719 L1499.4219,82.9531 L1507.1406,82.9531 L1507.1406,81.4531 C1507.1406,81.0469 1507.1094,80.8906 1507.0156,80.75 C1506.8594,80.4844 1506.5781,80.3281 1506.2813,80.3281 C1505.7656,80.3281 1505.4844,80.6406 1505.4375,81.25 L1502.0156,81.25 Z " fill="#000000"/><text fill="#000000" font-family="Verdana" font-size="12" lengthAdjust="spacing" textLength="61" x="1517.5" y="82.1074">Université</text><line style="stroke:#A80036;stroke-width:1.5;" x1="1489.5" x2="1580.5" y1="93.9531" y2="93.9531"/><line style="stroke:#A80036;stroke-width:1.5;" x1="1489.5" x2="1580.5" y1="101.9531" y2="101.9531"/><!--MD5=[63c8a86559697f2113f14d70f80cad38]
class CatalogueCours--><rect codeLine="11" fill="#FEFECE" filter="url(#f1fsz49e9ol4y1)" height="48" id="CatalogueCours" rx="10" ry="10" style="stroke:#A80036;stroke-width:1.5;" width="127" x="1605.5" y="186.9531"/><ellipse cx="1620.5" cy="202.9531" fill="#FF0000" rx="11" ry="11" style="stroke:#A80036;stroke-width:1.0;"/><path d="M1619.0156,206.25 C1620.5156,204.9688 1621.5,204.1094 1621.9531,203.6875 C1623.6406,202.1563 1624.0469,201.5156 1624.0469,200.4063 C1624.0469,198.5156 1622.5,197.1094 1620.4375,197.1094 C1619.4219,197.1094 1618.4531,197.4531 1617.7813,198.0625 C1617.2031,198.5938 1616.7656,199.4219 1616.7656,199.9688 C1616.7656,200.4063 1617.1563,200.7813 1617.6094,200.7813 C1617.9688,200.7813 1618.2813,200.5781 1618.375,200.2813 C1618.5625,199.7344 1618.5781,199.7031 1618.75,199.5 C1619.125,199.0625 1619.7188,198.8125 1620.3906,198.8125 C1621.5,198.8125 1622.3438,199.4688 1622.3438,200.3438 C1622.3438,200.9219 1622.0625,201.2969 1620.3594,202.8438 C1619.5938,203.5313 1619.2813,203.8125 1616.4219,206.1719 L1616.4219,207.9531 L1624.1406,207.9531 L1624.1406,206.4531 C1624.1406,206.0469 1624.1094,205.8906 1624.0156,205.75 C1623.8594,205.4844 1623.5781,205.3281 1623.2813,205.3281 C1622.7656,205.3281 1622.4844,205.6406 1622.4375,206.25 L1619.0156,206.25 Z " fill="#000000"/><text fill="#000000" font-family="Verdana" font-size="12" lengthAdjust="spacing" textLength="95" x="1634.5" y="207.1074">CatalogueCours</text><line style="stroke:#A80036;stroke-width:1.5;" x1="1606.5" x2="1731.5" y1="218.9531" y2="218.9531"/><line style="stroke:#A80036;stroke-width:1.5;" x1="1606.5" x2="1731.5" y1="226.9531" y2="226.9531"/><!--MD5=[0ea76b077f2fe2b0557d144a0cdb3724]
class Enseignant--><rect codeLine="13" fill="#FEFECE" filter="url(#f1fsz49e9ol4y1)" height="86.4141" id="Enseignant" rx="10" ry="10" style="stroke:#A80036;stroke-width:1.5;" width="100" x="1357" y="271.4531"/><ellipse cx="1373.35" cy="287.4531" fill="#FFFF00" rx="11" ry="11" style="stroke:#A80036;stroke-width:1.0;"/><path d="M1374.3031,281.6094 L1370.6938,282.5469 C1370.0219,282.7188 1369.7875,282.9219 1369.7875,283.4063 C1369.7875,283.9063 1370.1313,284.2969 1370.5844,284.2969 C1370.7406,284.2969 1370.8031,284.2813 1371.1156,284.1875 L1372.6,283.7969 L1372.6,290.75 L1370.8813,290.75 C1370.4438,290.75 1370.3188,290.7656 1370.1625,290.875 C1369.9125,291.0313 1369.7563,291.3125 1369.7563,291.6094 C1369.7563,291.8594 1369.8969,292.125 1370.1156,292.2813 C1370.2563,292.4063 1370.4906,292.4531 1370.8813,292.4531 L1376.0219,292.4531 C1376.35,292.4531 1376.6156,292.4063 1376.725,292.3281 C1376.9906,292.1719 1377.1313,291.8906 1377.1313,291.6094 C1377.1313,291.3281 1377.0063,291.0781 1376.7875,290.9063 C1376.6156,290.7813 1376.475,290.75 1376.0219,290.75 L1374.3031,290.75 L1374.3031,281.6094 Z " fill="#000000"/><text fill="#000000" font-family="Verdana" font-size="12" lengthAdjust="spacing" textLength="65" x="1387.65" y="291.6074">Enseignant</text><line style="stroke:#A80036;stroke-width:1.5;" x1="1358" x2="1456" y1="303.4531" y2="303.4531"/><text fill="#000000" font-family="Verdana" font-size="11" lengthAdjust="spacing" textLength="88" x="1363" y="317.6636">prenom : String</text><text fill="#000000" font-family="Verdana" font-size="11" lengthAdjust="spacing" textLength="69" x="1363" y="330.4683">nom : String</text><text fill="#000000" font-family="Verdana" font-size="11" lengthAdjust="spacing" textLength="86" x="1363" y="343.2729">courriel : String</text><line style="stroke:#A80036;stroke-width:1.5;" x1="1358" x2="1456" y1="349.8672" y2="349.8672"/><!--MD5=[f84e857de5a9ca5678aed72e3e98d0a5]
class Etudiant--><rect codeLine="19" fill="#FEFECE" filter="url(#f1fsz49e9ol4y1)" height="99.2188" id="Etudiant" rx="10" ry="10" style="stroke:#A80036;stroke-width:1.5;" width="146" x="1462" y="264.9531"/><ellipse cx="1507.25" cy="280.9531" fill="#FFFF00" rx="11" ry="11" style="stroke:#A80036;stroke-width:1.0;"/><path d="M1508.2031,275.1094 L1504.5938,276.0469 C1503.9219,276.2188 1503.6875,276.4219 1503.6875,276.9063 C1503.6875,277.4063 1504.0313,277.7969 1504.4844,277.7969 C1504.6406,277.7969 1504.7031,277.7813 1505.0156,277.6875 L1506.5,277.2969 L1506.5,284.25 L1504.7813,284.25 C1504.3438,284.25 1504.2188,284.2656 1504.0625,284.375 C1503.8125,284.5313 1503.6563,284.8125 1503.6563,285.1094 C1503.6563,285.3594 1503.7969,285.625 1504.0156,285.7813 C1504.1563,285.9063 1504.3906,285.9531 1504.7813,285.9531 L1509.9219,285.9531 C1510.25,285.9531 1510.5156,285.9063 1510.625,285.8281 C1510.8906,285.6719 1511.0313,285.3906 1511.0313,285.1094 C1511.0313,284.8281 1510.9063,284.5781 1510.6875,284.4063 C1510.5156,284.2813 1510.375,284.25 1509.9219,284.25 L1508.2031,284.25 L1508.2031,275.1094 Z " fill="#000000"/><text fill="#000000" font-family="Verdana" font-size="12" lengthAdjust="spacing" textLength="47" x="1527.75" y="285.1074">Etudiant</text><line style="stroke:#A80036;stroke-width:1.5;" x1="1463" x2="1607" y1="296.9531" y2="296.9531"/><text fill="#000000" font-family="Verdana" font-size="11" lengthAdjust="spacing" textLength="69" x="1468" y="311.1636">nom : String</text><text fill="#000000" font-family="Verdana" font-size="11" lengthAdjust="spacing" textLength="134" x="1468" y="323.9683">codePermanent : String</text><text fill="#000000" font-family="Verdana" font-size="11" lengthAdjust="spacing" textLength="88" x="1468" y="336.7729">prenom : String</text><text fill="#000000" font-family="Verdana" font-size="11" lengthAdjust="spacing" textLength="86" x="1468" y="349.5776">courriel : String</text><line style="stroke:#A80036;stroke-width:1.5;" x1="1463" x2="1607" y1="356.1719" y2="356.1719"/><!--MD5=[f6edf60997924e693a9a5571eb281b8c]
class Cours--><rect codeLine="26" fill="#FEFECE" filter="url(#f1fsz49e9ol4y1)" height="73.6094" id="Cours" rx="10" ry="10" style="stroke:#A80036;stroke-width:1.5;" width="83" x="1670.5" y="393.9531"/><ellipse cx="1692.7" cy="409.9531" fill="#0000FF" rx="11" ry="11" style="stroke:#A80036;stroke-width:1.0;"/><path d="M1693.6531,404.1094 L1690.0438,405.0469 C1689.3719,405.2188 1689.1375,405.4219 1689.1375,405.9063 C1689.1375,406.4063 1689.4813,406.7969 1689.9344,406.7969 C1690.0906,406.7969 1690.1531,406.7813 1690.4656,406.6875 L1691.95,406.2969 L1691.95,413.25 L1690.2313,413.25 C1689.7938,413.25 1689.6688,413.2656 1689.5125,413.375 C1689.2625,413.5313 1689.1063,413.8125 1689.1063,414.1094 C1689.1063,414.3594 1689.2469,414.625 1689.4656,414.7813 C1689.6063,414.9063 1689.8406,414.9531 1690.2313,414.9531 L1695.3719,414.9531 C1695.7,414.9531 1695.9656,414.9063 1696.075,414.8281 C1696.3406,414.6719 1696.4813,414.3906 1696.4813,414.1094 C1696.4813,413.8281 1696.3563,413.5781 1696.1375,413.4063 C1695.9656,413.2813 1695.825,413.25 1695.3719,413.25 L1693.6531,413.25 L1693.6531,404.1094 Z " fill="#000000"/><text fill="#000000" font-family="Verdana" font-size="12" lengthAdjust="spacing" textLength="35" x="1708.3" y="414.1074">Cours</text><line style="stroke:#A80036;stroke-width:1.5;" x1="1671.5" x2="1752.5" y1="425.9531" y2="425.9531"/><text fill="#000000" font-family="Verdana" font-size="11" lengthAdjust="spacing" textLength="71" x="1676.5" y="440.1636">id : numbers</text><text fill="#000000" font-family="Verdana" font-size="11" lengthAdjust="spacing" textLength="69" x="1676.5" y="452.9683">nom : String</text><line style="stroke:#A80036;stroke-width:1.5;" x1="1671.5" x2="1752.5" y1="459.5625" y2="459.5625"/><!--MD5=[b32d763bfdb05d07119f0e8fadbdfdc1]
class GroupeCours--><rect codeLine="31" fill="#FEFECE" filter="url(#f1fsz49e9ol4y1)" height="73.6094" id="GroupeCours" rx="10" ry="10" style="stroke:#A80036;stroke-width:1.5;" width="201" x="1396.5" y="634.9531"/><ellipse cx="1452.75" cy="650.9531" fill="#FFFF00" rx="11" ry="11" style="stroke:#A80036;stroke-width:1.0;"/><path d="M1453.7031,645.1094 L1450.0938,646.0469 C1449.4219,646.2188 1449.1875,646.4219 1449.1875,646.9063 C1449.1875,647.4063 1449.5313,647.7969 1449.9844,647.7969 C1450.1406,647.7969 1450.2031,647.7813 1450.5156,647.6875 L1452,647.2969 L1452,654.25 L1450.2813,654.25 C1449.8438,654.25 1449.7188,654.2656 1449.5625,654.375 C1449.3125,654.5313 1449.1563,654.8125 1449.1563,655.1094 C1449.1563,655.3594 1449.2969,655.625 1449.5156,655.7813 C1449.6563,655.9063 1449.8906,655.9531 1450.2813,655.9531 L1455.4219,655.9531 C1455.75,655.9531 1456.0156,655.9063 1456.125,655.8281 C1456.3906,655.6719 1456.5313,655.3906 1456.5313,655.1094 C1456.5313,654.8281 1456.4063,654.5781 1456.1875,654.4063 C1456.0156,654.2813 1455.875,654.25 1455.4219,654.25 L1453.7031,654.25 L1453.7031,645.1094 Z " fill="#000000"/><text fill="#000000" font-family="Verdana" font-size="12" lengthAdjust="spacing" textLength="80" x="1473.25" y="655.1074">GroupeCours</text><line style="stroke:#A80036;stroke-width:1.5;" x1="1397.5" x2="1596.5" y1="666.9531" y2="666.9531"/><text fill="#000000" font-family="Verdana" font-size="11" lengthAdjust="spacing" textLength="65" x="1402.5" y="681.1636">id : number</text><text fill="#000000" font-family="Verdana" font-size="11" lengthAdjust="spacing" textLength="189" x="1402.5" y="693.9683">limiteNombreInscription : number</text><line style="stroke:#A80036;stroke-width:1.5;" x1="1397.5" x2="1596.5" y1="700.5625" y2="700.5625"/><!--MD5=[54a5e0e6ed87cf29c8834e8f40ab0f5d]
class Devoir--><rect codeLine="38" fill="#FEFECE" filter="url(#f1fsz49e9ol4y1)" height="137.6328" id="Devoir" rx="10" ry="10" style="stroke:#A80036;stroke-width:1.5;" width="154" x="1147" y="1105.9531"/><ellipse cx="1199.75" cy="1121.9531" fill="#FF0000" rx="11" ry="11" style="stroke:#A80036;stroke-width:1.0;"/><path d="M1198.2656,1125.25 C1199.7656,1123.9688 1200.75,1123.1094 1201.2031,1122.6875 C1202.8906,1121.1563 1203.2969,1120.5156 1203.2969,1119.4063 C1203.2969,1117.5156 1201.75,1116.1094 1199.6875,1116.1094 C1198.6719,1116.1094 1197.7031,1116.4531 1197.0313,1117.0625 C1196.4531,1117.5938 1196.0156,1118.4219 1196.0156,1118.9688 C1196.0156,1119.4063 1196.4063,1119.7813 1196.8594,1119.7813 C1197.2188,1119.7813 1197.5313,1119.5781 1197.625,1119.2813 C1197.8125,1118.7344 1197.8281,1118.7031 1198,1118.5 C1198.375,1118.0625 1198.9688,1117.8125 1199.6406,1117.8125 C1200.75,1117.8125 1201.5938,1118.4688 1201.5938,1119.3438 C1201.5938,1119.9219 1201.3125,1120.2969 1199.6094,1121.8438 C1198.8438,1122.5313 1198.5313,1122.8125 1195.6719,1125.1719 L1195.6719,1126.9531 L1203.3906,1126.9531 L1203.3906,1125.4531 C1203.3906,1125.0469 1203.3594,1124.8906 1203.2656,1124.75 C1203.1094,1124.4844 1202.8281,1124.3281 1202.5313,1124.3281 C1202.0156,1124.3281 1201.7344,1124.6406 1201.6875,1125.25 L1198.2656,1125.25 Z " fill="#000000"/><text fill="#000000" font-family="Verdana" font-size="12" lengthAdjust="spacing" textLength="40" x="1220.25" y="1126.1074">Devoir</text><line style="stroke:#A80036;stroke-width:1.5;" x1="1148" x2="1300" y1="1137.9531" y2="1137.9531"/><text fill="#000000" font-family="Verdana" font-size="11" lengthAdjust="spacing" textLength="61" x="1153" y="1152.1636">id: number</text><text fill="#000000" font-family="Verdana" font-size="11" lengthAdjust="spacing" textLength="65" x="1153" y="1164.9683">nom: String</text><text fill="#000000" font-family="Verdana" font-size="11" lengthAdjust="spacing" textLength="106" x="1153" y="1177.7729">description : String</text><text fill="#000000" font-family="Verdana" font-size="11" lengthAdjust="spacing" textLength="142" x="1153" y="1190.5776">note maximale : number</text><text fill="#000000" font-family="Verdana" font-size="11" lengthAdjust="spacing" textLength="126" x="1153" y="1203.3823">date de début : String</text><text fill="#000000" font-family="Verdana" font-size="11" lengthAdjust="spacing" textLength="107" x="1153" y="1216.187">date de fin : String</text><text fill="#000000" font-family="Verdana" font-size="11" lengthAdjust="spacing" textLength="94" x="1153" y="1228.9917">visible : boolean</text><line style="stroke:#A80036;stroke-width:1.5;" x1="1148" x2="1300" y1="1235.5859" y2="1235.5859"/><!--MD5=[1d9b9fea38fde0ee3d12b7f249f77478]
class Remise--><rect codeLine="48" fill="#FEFECE" filter="url(#f1fsz49e9ol4y1)" height="86.4141" id="Remise" rx="10" ry="10" style="stroke:#A80036;stroke-width:1.5;" width="125" x="1171.5" y="1320.9531"/><ellipse cx="1208.55" cy="1336.9531" fill="#FF0000" rx="11" ry="11" style="stroke:#A80036;stroke-width:1.0;"/><path d="M1207.0656,1340.25 C1208.5656,1338.9688 1209.55,1338.1094 1210.0031,1337.6875 C1211.6906,1336.1563 1212.0969,1335.5156 1212.0969,1334.4063 C1212.0969,1332.5156 1210.55,1331.1094 1208.4875,1331.1094 C1207.4719,1331.1094 1206.5031,1331.4531 1205.8313,1332.0625 C1205.2531,1332.5938 1204.8156,1333.4219 1204.8156,1333.9688 C1204.8156,1334.4063 1205.2063,1334.7813 1205.6594,1334.7813 C1206.0188,1334.7813 1206.3313,1334.5781 1206.425,1334.2813 C1206.6125,1333.7344 1206.6281,1333.7031 1206.8,1333.5 C1207.175,1333.0625 1207.7688,1332.8125 1208.4406,1332.8125 C1209.55,1332.8125 1210.3938,1333.4688 1210.3938,1334.3438 C1210.3938,1334.9219 1210.1125,1335.2969 1208.4094,1336.8438 C1207.6438,1337.5313 1207.3313,1337.8125 1204.4719,1340.1719 L1204.4719,1341.9531 L1212.1906,1341.9531 L1212.1906,1340.4531 C1212.1906,1340.0469 1212.1594,1339.8906 1212.0656,1339.75 C1211.9094,1339.4844 1211.6281,1339.3281 1211.3313,1339.3281 C1210.8156,1339.3281 1210.5344,1339.6406 1210.4875,1340.25 L1207.0656,1340.25 Z " fill="#000000"/><text fill="#000000" font-family="Verdana" font-size="12" lengthAdjust="spacing" textLength="44" x="1227.45" y="1341.1074">Remise</text><line style="stroke:#A80036;stroke-width:1.5;" x1="1172.5" x2="1295.5" y1="1352.9531" y2="1352.9531"/><text fill="#000000" font-family="Verdana" font-size="11" lengthAdjust="spacing" textLength="65" x="1177.5" y="1367.1636">id : number</text><text fill="#000000" font-family="Verdana" font-size="11" lengthAdjust="spacing" textLength="67" x="1177.5" y="1379.9683">etat : String</text><text fill="#000000" font-family="Verdana" font-size="11" lengthAdjust="spacing" textLength="113" x="1177.5" y="1392.7729">dateRemise : String</text><line style="stroke:#A80036;stroke-width:1.5;" x1="1172.5" x2="1295.5" y1="1399.3672" y2="1399.3672"/><!--MD5=[fc7123defb831ecdd44b2d9bcef6cceb]
class Question--><rect codeLine="55" fill="#FEFECE" filter="url(#f1fsz49e9ol4y1)" height="124.8281" id="Question" rx="10" ry="10" style="stroke:#A80036;stroke-width:1.5;" width="191" x="752.5" y="740.9531"/><ellipse cx="816.75" cy="756.9531" fill="#FFFF00" rx="11" ry="11" style="stroke:#A80036;stroke-width:1.0;"/><path d="M817.7031,751.1094 L814.0938,752.0469 C813.4219,752.2188 813.1875,752.4219 813.1875,752.9063 C813.1875,753.4063 813.5313,753.7969 813.9844,753.7969 C814.1406,753.7969 814.2031,753.7813 814.5156,753.6875 L816,753.2969 L816,760.25 L814.2813,760.25 C813.8438,760.25 813.7188,760.2656 813.5625,760.375 C813.3125,760.5313 813.1563,760.8125 813.1563,761.1094 C813.1563,761.3594 813.2969,761.625 813.5156,761.7813 C813.6563,761.9063 813.8906,761.9531 814.2813,761.9531 L819.4219,761.9531 C819.75,761.9531 820.0156,761.9063 820.125,761.8281 C820.3906,761.6719 820.5313,761.3906 820.5313,761.1094 C820.5313,760.8281 820.4063,760.5781 820.1875,760.4063 C820.0156,760.2813 819.875,760.25 819.4219,760.25 L817.7031,760.25 L817.7031,751.1094 Z " fill="#000000"/><text fill="#000000" font-family="Verdana" font-size="12" lengthAdjust="spacing" textLength="54" x="837.25" y="761.1074">Question</text><line style="stroke:#A80036;stroke-width:1.5;" x1="753.5" x2="942.5" y1="772.9531" y2="772.9531"/><text fill="#000000" font-family="Verdana" font-size="11" lengthAdjust="spacing" textLength="65" x="758.5" y="787.1636">id : number</text><text fill="#000000" font-family="Verdana" font-size="11" lengthAdjust="spacing" textLength="69" x="758.5" y="799.9683">nom : String</text><text fill="#000000" font-family="Verdana" font-size="11" lengthAdjust="spacing" textLength="68" x="758.5" y="812.7729">tags : String</text><text fill="#000000" font-family="Verdana" font-size="11" lengthAdjust="spacing" textLength="126" x="758.5" y="825.5776">texteQuestion : String</text><text fill="#000000" font-family="Verdana" font-size="11" lengthAdjust="spacing" textLength="162" x="758.5" y="838.3823">texteBonneReponse : String</text><text fill="#000000" font-family="Verdana" font-size="11" lengthAdjust="spacing" textLength="179" x="758.5" y="851.187">texteMauvaiseReponse : String</text><line style="stroke:#A80036;stroke-width:1.5;" x1="753.5" x2="942.5" y1="857.7813" y2="857.7813"/><!--MD5=[5a3b85c54cc1c79904e0b827443986bf]
class Questionnaire--><rect codeLine="64" fill="#FEFECE" filter="url(#f1fsz49e9ol4y1)" height="86.4141" id="Questionnaire" rx="10" ry="10" style="stroke:#A80036;stroke-width:1.5;" width="116" x="1047" y="518.9531"/><ellipse cx="1062" cy="534.9531" fill="#FF0000" rx="11" ry="11" style="stroke:#A80036;stroke-width:1.0;"/><path d="M1060.5156,538.25 C1062.0156,536.9688 1063,536.1094 1063.4531,535.6875 C1065.1406,534.1563 1065.5469,533.5156 1065.5469,532.4063 C1065.5469,530.5156 1064,529.1094 1061.9375,529.1094 C1060.9219,529.1094 1059.9531,529.4531 1059.2813,530.0625 C1058.7031,530.5938 1058.2656,531.4219 1058.2656,531.9688 C1058.2656,532.4063 1058.6563,532.7813 1059.1094,532.7813 C1059.4688,532.7813 1059.7813,532.5781 1059.875,532.2813 C1060.0625,531.7344 1060.0781,531.7031 1060.25,531.5 C1060.625,531.0625 1061.2188,530.8125 1061.8906,530.8125 C1063,530.8125 1063.8438,531.4688 1063.8438,532.3438 C1063.8438,532.9219 1063.5625,533.2969 1061.8594,534.8438 C1061.0938,535.5313 1060.7813,535.8125 1057.9219,538.1719 L1057.9219,539.9531 L1065.6406,539.9531 L1065.6406,538.4531 C1065.6406,538.0469 1065.6094,537.8906 1065.5156,537.75 C1065.3594,537.4844 1065.0781,537.3281 1064.7813,537.3281 C1064.2656,537.3281 1063.9844,537.6406 1063.9375,538.25 L1060.5156,538.25 Z " fill="#000000"/><text fill="#000000" font-family="Verdana" font-size="12" lengthAdjust="spacing" textLength="84" x="1076" y="539.1074">Questionnaire</text><line style="stroke:#A80036;stroke-width:1.5;" x1="1048" x2="1162" y1="550.9531" y2="550.9531"/><text fill="#000000" font-family="Verdana" font-size="11" lengthAdjust="spacing" textLength="61" x="1053" y="565.1636">id: number</text><text fill="#000000" font-family="Verdana" font-size="11" lengthAdjust="spacing" textLength="102" x="1053" y="577.9683">description: String</text><text fill="#000000" font-family="Verdana" font-size="11" lengthAdjust="spacing" textLength="80" x="1053" y="590.7729">état : boolean</text><line style="stroke:#A80036;stroke-width:1.5;" x1="1048" x2="1162" y1="597.3672" y2="597.3672"/><!--MD5=[05ea6acd66af444e8e74b94591dc9ae3]
class Tentative--><rect codeLine="70" fill="#FEFECE" filter="url(#f1fsz49e9ol4y1)" height="86.4141" id="Tentative" rx="10" ry="10" style="stroke:#A80036;stroke-width:1.5;" width="93" x="1045.5" y="760.4531"/><ellipse cx="1063.2" cy="776.4531" fill="#FFA500" rx="11" ry="11" style="stroke:#A80036;stroke-width:1.0;"/><path d="M1063.3875,775.4375 C1062.8875,775.4375 1062.5125,775.7969 1062.5125,776.2969 C1062.5125,776.75 1062.825,777.0469 1063.3875,777.0781 C1064.1219,777.1094 1064.3406,777.1406 1064.7,777.2969 C1065.4969,777.625 1065.9969,778.2188 1065.9969,778.8438 C1065.9969,779.2344 1065.8094,779.6563 1065.5125,779.9375 C1065.0594,780.3438 1064.4344,780.5156 1063.2625,780.5156 C1062.1688,780.5156 1061.6531,780.4063 1061.2156,780.1094 C1060.95,779.9531 1060.8719,779.9063 1060.6688,779.9063 C1060.2,779.9063 1059.825,780.2813 1059.825,780.7656 C1059.825,781.625 1061.2156,782.2031 1063.3094,782.2031 C1064.7938,782.2031 1065.6844,781.9688 1066.4344,781.4063 C1067.2156,780.7969 1067.7,779.8438 1067.7,778.8594 C1067.7,777.7656 1067.0594,776.9219 1065.7781,776.2969 C1066.8719,775.625 1067.325,775 1067.325,774.0625 C1067.325,773.375 1067.0125,772.625 1066.4656,772.0938 C1065.825,771.4375 1064.9344,771.1094 1063.8094,771.1094 C1061.9969,771.1094 1060.3094,772.0156 1060.3094,773 C1060.3094,773.4531 1060.6844,773.8438 1061.1531,773.8438 C1061.3875,773.8438 1061.6063,773.7344 1061.7625,773.5938 C1062.3094,773 1062.7781,772.8125 1063.7156,772.8125 C1064.8875,772.8125 1065.6219,773.2969 1065.6219,774.0938 C1065.6219,774.8125 1064.9031,775.4375 1064.075,775.4375 L1063.3875,775.4375 Z " fill="#000000"/><text fill="#000000" font-family="Verdana" font-size="12" lengthAdjust="spacing" textLength="55" x="1077.8" y="780.6074">Tentative</text><line style="stroke:#A80036;stroke-width:1.5;" x1="1046.5" x2="1137.5" y1="792.4531" y2="792.4531"/><text fill="#000000" font-family="Verdana" font-size="11" lengthAdjust="spacing" textLength="65" x="1051.5" y="806.6636">id : number</text><text fill="#000000" font-family="Verdana" font-size="11" lengthAdjust="spacing" textLength="81" x="1051.5" y="819.4683">note : number</text><text fill="#000000" font-family="Verdana" font-size="11" lengthAdjust="spacing" textLength="72" x="1051.5" y="832.2729">statut : Sring</text><line style="stroke:#A80036;stroke-width:1.5;" x1="1046.5" x2="1137.5" y1="838.8672" y2="838.8672"/><!--MD5=[8e66f9cf9bec2764c885278c9827de79]
class QuestionChoixMultiple--><rect codeLine="76" fill="#FEFECE" filter="url(#f1fsz49e9ol4y1)" height="60.8047" id="QuestionChoixMultiple" rx="10" ry="10" style="stroke:#A80036;stroke-width:1.5;" width="165" x="372.5" y="955.4531"/><ellipse cx="387.5" cy="971.4531" fill="#FFA500" rx="11" ry="11" style="stroke:#A80036;stroke-width:1.0;"/><path d="M387.6875,970.4375 C387.1875,970.4375 386.8125,970.7969 386.8125,971.2969 C386.8125,971.75 387.125,972.0469 387.6875,972.0781 C388.4219,972.1094 388.6406,972.1406 389,972.2969 C389.7969,972.625 390.2969,973.2188 390.2969,973.8438 C390.2969,974.2344 390.1094,974.6563 389.8125,974.9375 C389.3594,975.3438 388.7344,975.5156 387.5625,975.5156 C386.4688,975.5156 385.9531,975.4063 385.5156,975.1094 C385.25,974.9531 385.1719,974.9063 384.9688,974.9063 C384.5,974.9063 384.125,975.2813 384.125,975.7656 C384.125,976.625 385.5156,977.2031 387.6094,977.2031 C389.0938,977.2031 389.9844,976.9688 390.7344,976.4063 C391.5156,975.7969 392,974.8438 392,973.8594 C392,972.7656 391.3594,971.9219 390.0781,971.2969 C391.1719,970.625 391.625,970 391.625,969.0625 C391.625,968.375 391.3125,967.625 390.7656,967.0938 C390.125,966.4375 389.2344,966.1094 388.1094,966.1094 C386.2969,966.1094 384.6094,967.0156 384.6094,968 C384.6094,968.4531 384.9844,968.8438 385.4531,968.8438 C385.6875,968.8438 385.9063,968.7344 386.0625,968.5938 C386.6094,968 387.0781,967.8125 388.0156,967.8125 C389.1875,967.8125 389.9219,968.2969 389.9219,969.0938 C389.9219,969.8125 389.2031,970.4375 388.375,970.4375 L387.6875,970.4375 Z " fill="#000000"/><text fill="#000000" font-family="Verdana" font-size="12" lengthAdjust="spacing" textLength="133" x="401.5" y="975.6074">QuestionChoixMultiple</text><line style="stroke:#A80036;stroke-width:1.5;" x1="373.5" x2="536.5" y1="987.4531" y2="987.4531"/><text fill="#000000" font-family="Verdana" font-size="11" lengthAdjust="spacing" textLength="91" x="378.5" y="1001.6636">reponse : String</text><line style="stroke:#A80036;stroke-width:1.5;" x1="373.5" x2="536.5" y1="1008.2578" y2="1008.2578"/><!--MD5=[b2bb3f9574ade9b11e8d20c9a708efc6]
class QuestionVraiFaux--><rect codeLine="80" fill="#FEFECE" filter="url(#f1fsz49e9ol4y1)" height="60.8047" id="QuestionVraiFaux" rx="10" ry="10" style="stroke:#A80036;stroke-width:1.5;" width="137" x="966.5" y="955.4531"/><ellipse cx="981.5" cy="971.4531" fill="#FFA500" rx="11" ry="11" style="stroke:#A80036;stroke-width:1.0;"/><path d="M981.6875,970.4375 C981.1875,970.4375 980.8125,970.7969 980.8125,971.2969 C980.8125,971.75 981.125,972.0469 981.6875,972.0781 C982.4219,972.1094 982.6406,972.1406 983,972.2969 C983.7969,972.625 984.2969,973.2188 984.2969,973.8438 C984.2969,974.2344 984.1094,974.6563 983.8125,974.9375 C983.3594,975.3438 982.7344,975.5156 981.5625,975.5156 C980.4688,975.5156 979.9531,975.4063 979.5156,975.1094 C979.25,974.9531 979.1719,974.9063 978.9688,974.9063 C978.5,974.9063 978.125,975.2813 978.125,975.7656 C978.125,976.625 979.5156,977.2031 981.6094,977.2031 C983.0938,977.2031 983.9844,976.9688 984.7344,976.4063 C985.5156,975.7969 986,974.8438 986,973.8594 C986,972.7656 985.3594,971.9219 984.0781,971.2969 C985.1719,970.625 985.625,970 985.625,969.0625 C985.625,968.375 985.3125,967.625 984.7656,967.0938 C984.125,966.4375 983.2344,966.1094 982.1094,966.1094 C980.2969,966.1094 978.6094,967.0156 978.6094,968 C978.6094,968.4531 978.9844,968.8438 979.4531,968.8438 C979.6875,968.8438 979.9063,968.7344 980.0625,968.5938 C980.6094,968 981.0781,967.8125 982.0156,967.8125 C983.1875,967.8125 983.9219,968.2969 983.9219,969.0938 C983.9219,969.8125 983.2031,970.4375 982.375,970.4375 L981.6875,970.4375 Z " fill="#000000"/><text fill="#000000" font-family="Verdana" font-size="12" lengthAdjust="spacing" textLength="105" x="995.5" y="975.6074">QuestionVraiFaux</text><line style="stroke:#A80036;stroke-width:1.5;" x1="967.5" x2="1102.5" y1="987.4531" y2="987.4531"/><text fill="#000000" font-family="Verdana" font-size="11" lengthAdjust="spacing" textLength="104" x="972.5" y="1001.6636">reponse : boolean</text><line style="stroke:#A80036;stroke-width:1.5;" x1="967.5" x2="1102.5" y1="1008.2578" y2="1008.2578"/><!--MD5=[5d1b0da2dad6243cf19418393fb81f01]
class QuestionMiseEnCorrespondance--><rect codeLine="84" fill="#FEFECE" filter="url(#f1fsz49e9ol4y1)" height="60.8047" id="QuestionMiseEnCorrespondance" rx="10" ry="10" style="stroke:#A80036;stroke-width:1.5;" width="229" x="732.5" y="955.4531"/><ellipse cx="747.5" cy="971.4531" fill="#FFA500" rx="11" ry="11" style="stroke:#A80036;stroke-width:1.0;"/><path d="M747.6875,970.4375 C747.1875,970.4375 746.8125,970.7969 746.8125,971.2969 C746.8125,971.75 747.125,972.0469 747.6875,972.0781 C748.4219,972.1094 748.6406,972.1406 749,972.2969 C749.7969,972.625 750.2969,973.2188 750.2969,973.8438 C750.2969,974.2344 750.1094,974.6563 749.8125,974.9375 C749.3594,975.3438 748.7344,975.5156 747.5625,975.5156 C746.4688,975.5156 745.9531,975.4063 745.5156,975.1094 C745.25,974.9531 745.1719,974.9063 744.9688,974.9063 C744.5,974.9063 744.125,975.2813 744.125,975.7656 C744.125,976.625 745.5156,977.2031 747.6094,977.2031 C749.0938,977.2031 749.9844,976.9688 750.7344,976.4063 C751.5156,975.7969 752,974.8438 752,973.8594 C752,972.7656 751.3594,971.9219 750.0781,971.2969 C751.1719,970.625 751.625,970 751.625,969.0625 C751.625,968.375 751.3125,967.625 750.7656,967.0938 C750.125,966.4375 749.2344,966.1094 748.1094,966.1094 C746.2969,966.1094 744.6094,967.0156 744.6094,968 C744.6094,968.4531 744.9844,968.8438 745.4531,968.8438 C745.6875,968.8438 745.9063,968.7344 746.0625,968.5938 C746.6094,968 747.0781,967.8125 748.0156,967.8125 C749.1875,967.8125 749.9219,968.2969 749.9219,969.0938 C749.9219,969.8125 749.2031,970.4375 748.375,970.4375 L747.6875,970.4375 Z " fill="#000000"/><text fill="#000000" font-family="Verdana" font-size="12" lengthAdjust="spacing" textLength="197" x="761.5" y="975.6074">QuestionMiseEnCorrespondance</text><line style="stroke:#A80036;stroke-width:1.5;" x1="733.5" x2="960.5" y1="987.4531" y2="987.4531"/><text fill="#000000" font-family="Verdana" font-size="11" lengthAdjust="spacing" textLength="91" x="738.5" y="1001.6636">reponse : String</text><line style="stroke:#A80036;stroke-width:1.5;" x1="733.5" x2="960.5" y1="1008.2578" y2="1008.2578"/><!--MD5=[9f6daee1ba4f63f49f4f9abfbd574fe3]
class QuestionReponseCourte--><rect codeLine="88" fill="#FEFECE" filter="url(#f1fsz49e9ol4y1)" height="60.8047" id="QuestionReponseCourte" rx="10" ry="10" style="stroke:#A80036;stroke-width:1.5;" width="179" x="32.5" y="955.4531"/><ellipse cx="47.5" cy="971.4531" fill="#FFA500" rx="11" ry="11" style="stroke:#A80036;stroke-width:1.0;"/><path d="M47.6875,970.4375 C47.1875,970.4375 46.8125,970.7969 46.8125,971.2969 C46.8125,971.75 47.125,972.0469 47.6875,972.0781 C48.4219,972.1094 48.6406,972.1406 49,972.2969 C49.7969,972.625 50.2969,973.2188 50.2969,973.8438 C50.2969,974.2344 50.1094,974.6563 49.8125,974.9375 C49.3594,975.3438 48.7344,975.5156 47.5625,975.5156 C46.4688,975.5156 45.9531,975.4063 45.5156,975.1094 C45.25,974.9531 45.1719,974.9063 44.9688,974.9063 C44.5,974.9063 44.125,975.2813 44.125,975.7656 C44.125,976.625 45.5156,977.2031 47.6094,977.2031 C49.0938,977.2031 49.9844,976.9688 50.7344,976.4063 C51.5156,975.7969 52,974.8438 52,973.8594 C52,972.7656 51.3594,971.9219 50.0781,971.2969 C51.1719,970.625 51.625,970 51.625,969.0625 C51.625,968.375 51.3125,967.625 50.7656,967.0938 C50.125,966.4375 49.2344,966.1094 48.1094,966.1094 C46.2969,966.1094 44.6094,967.0156 44.6094,968 C44.6094,968.4531 44.9844,968.8438 45.4531,968.8438 C45.6875,968.8438 45.9063,968.7344 46.0625,968.5938 C46.6094,968 47.0781,967.8125 48.0156,967.8125 C49.1875,967.8125 49.9219,968.2969 49.9219,969.0938 C49.9219,969.8125 49.2031,970.4375 48.375,970.4375 L47.6875,970.4375 Z " fill="#000000"/><text fill="#000000" font-family="Verdana" font-size="12" lengthAdjust="spacing" textLength="147" x="61.5" y="975.6074">QuestionReponseCourte</text><line style="stroke:#A80036;stroke-width:1.5;" x1="33.5" x2="210.5" y1="987.4531" y2="987.4531"/><text fill="#000000" font-family="Verdana" font-size="11" lengthAdjust="spacing" textLength="91" x="38.5" y="1001.6636">reponse : String</text><line style="stroke:#A80036;stroke-width:1.5;" x1="33.5" x2="210.5" y1="1008.2578" y2="1008.2578"/><!--MD5=[36cd517ead6aafdf09a21b1dc53b6288]
class QuestionNumerique--><rect codeLine="92" fill="#FEFECE" filter="url(#f1fsz49e9ol4y1)" height="60.8047" id="QuestionNumerique" rx="10" ry="10" style="stroke:#A80036;stroke-width:1.5;" width="151" x="216.5" y="955.4531"/><ellipse cx="231.5" cy="971.4531" fill="#FFA500" rx="11" ry="11" style="stroke:#A80036;stroke-width:1.0;"/><path d="M231.6875,970.4375 C231.1875,970.4375 230.8125,970.7969 230.8125,971.2969 C230.8125,971.75 231.125,972.0469 231.6875,972.0781 C232.4219,972.1094 232.6406,972.1406 233,972.2969 C233.7969,972.625 234.2969,973.2188 234.2969,973.8438 C234.2969,974.2344 234.1094,974.6563 233.8125,974.9375 C233.3594,975.3438 232.7344,975.5156 231.5625,975.5156 C230.4688,975.5156 229.9531,975.4063 229.5156,975.1094 C229.25,974.9531 229.1719,974.9063 228.9688,974.9063 C228.5,974.9063 228.125,975.2813 228.125,975.7656 C228.125,976.625 229.5156,977.2031 231.6094,977.2031 C233.0938,977.2031 233.9844,976.9688 234.7344,976.4063 C235.5156,975.7969 236,974.8438 236,973.8594 C236,972.7656 235.3594,971.9219 234.0781,971.2969 C235.1719,970.625 235.625,970 235.625,969.0625 C235.625,968.375 235.3125,967.625 234.7656,967.0938 C234.125,966.4375 233.2344,966.1094 232.1094,966.1094 C230.2969,966.1094 228.6094,967.0156 228.6094,968 C228.6094,968.4531 228.9844,968.8438 229.4531,968.8438 C229.6875,968.8438 229.9063,968.7344 230.0625,968.5938 C230.6094,968 231.0781,967.8125 232.0156,967.8125 C233.1875,967.8125 233.9219,968.2969 233.9219,969.0938 C233.9219,969.8125 233.2031,970.4375 232.375,970.4375 L231.6875,970.4375 Z " fill="#000000"/><text fill="#000000" font-family="Verdana" font-size="12" lengthAdjust="spacing" textLength="119" x="245.5" y="975.6074">QuestionNumerique</text><line style="stroke:#A80036;stroke-width:1.5;" x1="217.5" x2="366.5" y1="987.4531" y2="987.4531"/><text fill="#000000" font-family="Verdana" font-size="11" lengthAdjust="spacing" textLength="102" x="222.5" y="1001.6636">reponse : number</text><line style="stroke:#A80036;stroke-width:1.5;" x1="217.5" x2="366.5" y1="1008.2578" y2="1008.2578"/><!--MD5=[dabef5714f41dd45c84d2acd22a3f642]
class EspaceCours--><rect codeLine="96" fill="#FEFECE" filter="url(#f1fsz49e9ol4y1)" height="60.8047" id="EspaceCours" rx="10" ry="10" style="stroke:#A80036;stroke-width:1.5;" width="192" x="1109" y="955.4531"/><ellipse cx="1161.25" cy="971.4531" fill="#FF0000" rx="11" ry="11" style="stroke:#A80036;stroke-width:1.0;"/><path d="M1159.7656,974.75 C1161.2656,973.4688 1162.25,972.6094 1162.7031,972.1875 C1164.3906,970.6563 1164.7969,970.0156 1164.7969,968.9063 C1164.7969,967.0156 1163.25,965.6094 1161.1875,965.6094 C1160.1719,965.6094 1159.2031,965.9531 1158.5313,966.5625 C1157.9531,967.0938 1157.5156,967.9219 1157.5156,968.4688 C1157.5156,968.9063 1157.9063,969.2813 1158.3594,969.2813 C1158.7188,969.2813 1159.0313,969.0781 1159.125,968.7813 C1159.3125,968.2344 1159.3281,968.2031 1159.5,968 C1159.875,967.5625 1160.4688,967.3125 1161.1406,967.3125 C1162.25,967.3125 1163.0938,967.9688 1163.0938,968.8438 C1163.0938,969.4219 1162.8125,969.7969 1161.1094,971.3438 C1160.3438,972.0313 1160.0313,972.3125 1157.1719,974.6719 L1157.1719,976.4531 L1164.8906,976.4531 L1164.8906,974.9531 C1164.8906,974.5469 1164.8594,974.3906 1164.7656,974.25 C1164.6094,973.9844 1164.3281,973.8281 1164.0313,973.8281 C1163.5156,973.8281 1163.2344,974.1406 1163.1875,974.75 L1159.7656,974.75 Z " fill="#000000"/><text fill="#000000" font-family="Verdana" font-size="12" lengthAdjust="spacing" textLength="79" x="1181.75" y="975.6074">EspaceCours</text><line style="stroke:#A80036;stroke-width:1.5;" x1="1110" x2="1300" y1="987.4531" y2="987.4531"/><text fill="#000000" font-family="Verdana" font-size="11" lengthAdjust="spacing" textLength="180" x="1115" y="1001.6636">idEspaceGroupeCours : number</text><line style="stroke:#A80036;stroke-width:1.5;" x1="1110" x2="1300" y1="1008.2578" y2="1008.2578"/><!--MD5=[02ab5647fff677f5656099d2abdba0fd]
class Reponse--><rect codeLine="99" fill="#FEFECE" filter="url(#f1fsz49e9ol4y1)" height="86.4141" id="Reponse" rx="10" ry="10" style="stroke:#A80036;stroke-width:1.5;" width="184" x="543" y="942.9531"/><ellipse cx="604.25" cy="958.9531" fill="#FFA500" rx="11" ry="11" style="stroke:#A80036;stroke-width:1.0;"/><path d="M604.4375,957.9375 C603.9375,957.9375 603.5625,958.2969 603.5625,958.7969 C603.5625,959.25 603.875,959.5469 604.4375,959.5781 C605.1719,959.6094 605.3906,959.6406 605.75,959.7969 C606.5469,960.125 607.0469,960.7188 607.0469,961.3438 C607.0469,961.7344 606.8594,962.1563 606.5625,962.4375 C606.1094,962.8438 605.4844,963.0156 604.3125,963.0156 C603.2188,963.0156 602.7031,962.9063 602.2656,962.6094 C602,962.4531 601.9219,962.4063 601.7188,962.4063 C601.25,962.4063 600.875,962.7813 600.875,963.2656 C600.875,964.125 602.2656,964.7031 604.3594,964.7031 C605.8438,964.7031 606.7344,964.4688 607.4844,963.9063 C608.2656,963.2969 608.75,962.3438 608.75,961.3594 C608.75,960.2656 608.1094,959.4219 606.8281,958.7969 C607.9219,958.125 608.375,957.5 608.375,956.5625 C608.375,955.875 608.0625,955.125 607.5156,954.5938 C606.875,953.9375 605.9844,953.6094 604.8594,953.6094 C603.0469,953.6094 601.3594,954.5156 601.3594,955.5 C601.3594,955.9531 601.7344,956.3438 602.2031,956.3438 C602.4375,956.3438 602.6563,956.2344 602.8125,956.0938 C603.3594,955.5 603.8281,955.3125 604.7656,955.3125 C605.9375,955.3125 606.6719,955.7969 606.6719,956.5938 C606.6719,957.3125 605.9531,957.9375 605.125,957.9375 L604.4375,957.9375 Z " fill="#000000"/><text fill="#000000" font-family="Verdana" font-size="12" lengthAdjust="spacing" textLength="53" x="624.75" y="963.1074">Reponse</text><line style="stroke:#A80036;stroke-width:1.5;" x1="544" x2="726" y1="974.9531" y2="974.9531"/><text fill="#000000" font-family="Verdana" font-size="11" lengthAdjust="spacing" textLength="91" x="549" y="989.1636">reponse : String</text><text fill="#000000" font-family="Verdana" font-size="11" lengthAdjust="spacing" textLength="159" x="549" y="1001.9683">bonnneReponseText: String</text><text fill="#000000" font-family="Verdana" font-size="11" lengthAdjust="spacing" textLength="172" x="549" y="1014.7729">mauvaiseReponseText: String</text><line style="stroke:#A80036;stroke-width:1.5;" x1="544" x2="726" y1="1021.3672" y2="1021.3672"/><!--MD5=[b3ea62ffa1b75f2a143e29b844801a60]
class ReponseChoixMultiple--><rect codeLine="105" fill="#FEFECE" filter="url(#f1fsz49e9ol4y1)" height="48" id="ReponseChoixMultiple" rx="10" ry="10" style="stroke:#A80036;stroke-width:1.5;" width="164" x="466" y="1150.9531"/><ellipse cx="481" cy="1166.9531" fill="#FFA500" rx="11" ry="11" style="stroke:#A80036;stroke-width:1.0;"/><path d="M481.1875,1165.9375 C480.6875,1165.9375 480.3125,1166.2969 480.3125,1166.7969 C480.3125,1167.25 480.625,1167.5469 481.1875,1167.5781 C481.9219,1167.6094 482.1406,1167.6406 482.5,1167.7969 C483.2969,1168.125 483.7969,1168.7188 483.7969,1169.3438 C483.7969,1169.7344 483.6094,1170.1563 483.3125,1170.4375 C482.8594,1170.8438 482.2344,1171.0156 481.0625,1171.0156 C479.9688,1171.0156 479.4531,1170.9063 479.0156,1170.6094 C478.75,1170.4531 478.6719,1170.4063 478.4688,1170.4063 C478,1170.4063 477.625,1170.7813 477.625,1171.2656 C477.625,1172.125 479.0156,1172.7031 481.1094,1172.7031 C482.5938,1172.7031 483.4844,1172.4688 484.2344,1171.9063 C485.0156,1171.2969 485.5,1170.3438 485.5,1169.3594 C485.5,1168.2656 484.8594,1167.4219 483.5781,1166.7969 C484.6719,1166.125 485.125,1165.5 485.125,1164.5625 C485.125,1163.875 484.8125,1163.125 484.2656,1162.5938 C483.625,1161.9375 482.7344,1161.6094 481.6094,1161.6094 C479.7969,1161.6094 478.1094,1162.5156 478.1094,1163.5 C478.1094,1163.9531 478.4844,1164.3438 478.9531,1164.3438 C479.1875,1164.3438 479.4063,1164.2344 479.5625,1164.0938 C480.1094,1163.5 480.5781,1163.3125 481.5156,1163.3125 C482.6875,1163.3125 483.4219,1163.7969 483.4219,1164.5938 C483.4219,1165.3125 482.7031,1165.9375 481.875,1165.9375 L481.1875,1165.9375 Z " fill="#000000"/><text fill="#000000" font-family="Verdana" font-size="12" lengthAdjust="spacing" textLength="132" x="495" y="1171.1074">ReponseChoixMultiple</text><line style="stroke:#A80036;stroke-width:1.5;" x1="467" x2="629" y1="1182.9531" y2="1182.9531"/><line style="stroke:#A80036;stroke-width:1.5;" x1="467" x2="629" y1="1190.9531" y2="1190.9531"/><!--MD5=[88bd4f97fe63daa679b3a6b061418170]
class ReponseNumerique--><rect codeLine="108" fill="#FEFECE" filter="url(#f1fsz49e9ol4y1)" height="60.8047" id="ReponseNumerique" rx="10" ry="10" style="stroke:#A80036;stroke-width:1.5;" width="150" x="292" y="1144.4531"/><ellipse cx="307" cy="1160.4531" fill="#FFA500" rx="11" ry="11" style="stroke:#A80036;stroke-width:1.0;"/><path d="M307.1875,1159.4375 C306.6875,1159.4375 306.3125,1159.7969 306.3125,1160.2969 C306.3125,1160.75 306.625,1161.0469 307.1875,1161.0781 C307.9219,1161.1094 308.1406,1161.1406 308.5,1161.2969 C309.2969,1161.625 309.7969,1162.2188 309.7969,1162.8438 C309.7969,1163.2344 309.6094,1163.6563 309.3125,1163.9375 C308.8594,1164.3438 308.2344,1164.5156 307.0625,1164.5156 C305.9688,1164.5156 305.4531,1164.4063 305.0156,1164.1094 C304.75,1163.9531 304.6719,1163.9063 304.4688,1163.9063 C304,1163.9063 303.625,1164.2813 303.625,1164.7656 C303.625,1165.625 305.0156,1166.2031 307.1094,1166.2031 C308.5938,1166.2031 309.4844,1165.9688 310.2344,1165.4063 C311.0156,1164.7969 311.5,1163.8438 311.5,1162.8594 C311.5,1161.7656 310.8594,1160.9219 309.5781,1160.2969 C310.6719,1159.625 311.125,1159 311.125,1158.0625 C311.125,1157.375 310.8125,1156.625 310.2656,1156.0938 C309.625,1155.4375 308.7344,1155.1094 307.6094,1155.1094 C305.7969,1155.1094 304.1094,1156.0156 304.1094,1157 C304.1094,1157.4531 304.4844,1157.8438 304.9531,1157.8438 C305.1875,1157.8438 305.4063,1157.7344 305.5625,1157.5938 C306.1094,1157 306.5781,1156.8125 307.5156,1156.8125 C308.6875,1156.8125 309.4219,1157.2969 309.4219,1158.0938 C309.4219,1158.8125 308.7031,1159.4375 307.875,1159.4375 L307.1875,1159.4375 Z " fill="#000000"/><text fill="#000000" font-family="Verdana" font-size="12" lengthAdjust="spacing" textLength="118" x="321" y="1164.6074">ReponseNumerique</text><line style="stroke:#A80036;stroke-width:1.5;" x1="293" x2="441" y1="1176.4531" y2="1176.4531"/><text fill="#000000" font-family="Verdana" font-size="11" lengthAdjust="spacing" textLength="119" x="298" y="1190.6636">ponderation: number</text><line style="stroke:#A80036;stroke-width:1.5;" x1="293" x2="441" y1="1197.2578" y2="1197.2578"/><!--MD5=[04aba922b4f3912479ad85b95eac4a8d]
class ReponseVraiFaux--><rect codeLine="111" fill="#FEFECE" filter="url(#f1fsz49e9ol4y1)" height="48" id="ReponseVraiFaux" rx="10" ry="10" style="stroke:#A80036;stroke-width:1.5;" width="136" x="936" y="1150.9531"/><ellipse cx="951" cy="1166.9531" fill="#FFA500" rx="11" ry="11" style="stroke:#A80036;stroke-width:1.0;"/><path d="M951.1875,1165.9375 C950.6875,1165.9375 950.3125,1166.2969 950.3125,1166.7969 C950.3125,1167.25 950.625,1167.5469 951.1875,1167.5781 C951.9219,1167.6094 952.1406,1167.6406 952.5,1167.7969 C953.2969,1168.125 953.7969,1168.7188 953.7969,1169.3438 C953.7969,1169.7344 953.6094,1170.1563 953.3125,1170.4375 C952.8594,1170.8438 952.2344,1171.0156 951.0625,1171.0156 C949.9688,1171.0156 949.4531,1170.9063 949.0156,1170.6094 C948.75,1170.4531 948.6719,1170.4063 948.4688,1170.4063 C948,1170.4063 947.625,1170.7813 947.625,1171.2656 C947.625,1172.125 949.0156,1172.7031 951.1094,1172.7031 C952.5938,1172.7031 953.4844,1172.4688 954.2344,1171.9063 C955.0156,1171.2969 955.5,1170.3438 955.5,1169.3594 C955.5,1168.2656 954.8594,1167.4219 953.5781,1166.7969 C954.6719,1166.125 955.125,1165.5 955.125,1164.5625 C955.125,1163.875 954.8125,1163.125 954.2656,1162.5938 C953.625,1161.9375 952.7344,1161.6094 951.6094,1161.6094 C949.7969,1161.6094 948.1094,1162.5156 948.1094,1163.5 C948.1094,1163.9531 948.4844,1164.3438 948.9531,1164.3438 C949.1875,1164.3438 949.4063,1164.2344 949.5625,1164.0938 C950.1094,1163.5 950.5781,1163.3125 951.5156,1163.3125 C952.6875,1163.3125 953.4219,1163.7969 953.4219,1164.5938 C953.4219,1165.3125 952.7031,1165.9375 951.875,1165.9375 L951.1875,1165.9375 Z " fill="#000000"/><text fill="#000000" font-family="Verdana" font-size="12" lengthAdjust="spacing" textLength="104" x="965" y="1171.1074">ReponseVraiFaux</text><line style="stroke:#A80036;stroke-width:1.5;" x1="937" x2="1071" y1="1182.9531" y2="1182.9531"/><line style="stroke:#A80036;stroke-width:1.5;" x1="937" x2="1071" y1="1190.9531" y2="1190.9531"/><!--MD5=[014dccdca2b0e00f6e2651c3cd82fcf5]
class ReponseMiseEnCorrespondance--><rect codeLine="114" fill="#FEFECE" filter="url(#f1fsz49e9ol4y1)" height="48" id="ReponseMiseEnCorrespondance" rx="10" ry="10" style="stroke:#A80036;stroke-width:1.5;" width="228" x="678" y="1150.9531"/><ellipse cx="693" cy="1166.9531" fill="#FFA500" rx="11" ry="11" style="stroke:#A80036;stroke-width:1.0;"/><path d="M693.1875,1165.9375 C692.6875,1165.9375 692.3125,1166.2969 692.3125,1166.7969 C692.3125,1167.25 692.625,1167.5469 693.1875,1167.5781 C693.9219,1167.6094 694.1406,1167.6406 694.5,1167.7969 C695.2969,1168.125 695.7969,1168.7188 695.7969,1169.3438 C695.7969,1169.7344 695.6094,1170.1563 695.3125,1170.4375 C694.8594,1170.8438 694.2344,1171.0156 693.0625,1171.0156 C691.9688,1171.0156 691.4531,1170.9063 691.0156,1170.6094 C690.75,1170.4531 690.6719,1170.4063 690.4688,1170.4063 C690,1170.4063 689.625,1170.7813 689.625,1171.2656 C689.625,1172.125 691.0156,1172.7031 693.1094,1172.7031 C694.5938,1172.7031 695.4844,1172.4688 696.2344,1171.9063 C697.0156,1171.2969 697.5,1170.3438 697.5,1169.3594 C697.5,1168.2656 696.8594,1167.4219 695.5781,1166.7969 C696.6719,1166.125 697.125,1165.5 697.125,1164.5625 C697.125,1163.875 696.8125,1163.125 696.2656,1162.5938 C695.625,1161.9375 694.7344,1161.6094 693.6094,1161.6094 C691.7969,1161.6094 690.1094,1162.5156 690.1094,1163.5 C690.1094,1163.9531 690.4844,1164.3438 690.9531,1164.3438 C691.1875,1164.3438 691.4063,1164.2344 691.5625,1164.0938 C692.1094,1163.5 692.5781,1163.3125 693.5156,1163.3125 C694.6875,1163.3125 695.4219,1163.7969 695.4219,1164.5938 C695.4219,1165.3125 694.7031,1165.9375 693.875,1165.9375 L693.1875,1165.9375 Z " fill="#000000"/><text fill="#000000" font-family="Verdana" font-size="12" lengthAdjust="spacing" textLength="196" x="707" y="1171.1074">ReponseMiseEnCorrespondance</text><line style="stroke:#A80036;stroke-width:1.5;" x1="679" x2="905" y1="1182.9531" y2="1182.9531"/><line style="stroke:#A80036;stroke-width:1.5;" x1="679" x2="905" y1="1190.9531" y2="1190.9531"/><!--MD5=[3d69c865e746d5af36c80145dee00a3e]
class ReponseReponseCourte--><rect codeLine="117" fill="#FEFECE" filter="url(#f1fsz49e9ol4y1)" height="48" id="ReponseReponseCourte" rx="10" ry="10" style="stroke:#A80036;stroke-width:1.5;" width="178" x="70" y="1150.9531"/><ellipse cx="85" cy="1166.9531" fill="#FFA500" rx="11" ry="11" style="stroke:#A80036;stroke-width:1.0;"/><path d="M85.1875,1165.9375 C84.6875,1165.9375 84.3125,1166.2969 84.3125,1166.7969 C84.3125,1167.25 84.625,1167.5469 85.1875,1167.5781 C85.9219,1167.6094 86.1406,1167.6406 86.5,1167.7969 C87.2969,1168.125 87.7969,1168.7188 87.7969,1169.3438 C87.7969,1169.7344 87.6094,1170.1563 87.3125,1170.4375 C86.8594,1170.8438 86.2344,1171.0156 85.0625,1171.0156 C83.9688,1171.0156 83.4531,1170.9063 83.0156,1170.6094 C82.75,1170.4531 82.6719,1170.4063 82.4688,1170.4063 C82,1170.4063 81.625,1170.7813 81.625,1171.2656 C81.625,1172.125 83.0156,1172.7031 85.1094,1172.7031 C86.5938,1172.7031 87.4844,1172.4688 88.2344,1171.9063 C89.0156,1171.2969 89.5,1170.3438 89.5,1169.3594 C89.5,1168.2656 88.8594,1167.4219 87.5781,1166.7969 C88.6719,1166.125 89.125,1165.5 89.125,1164.5625 C89.125,1163.875 88.8125,1163.125 88.2656,1162.5938 C87.625,1161.9375 86.7344,1161.6094 85.6094,1161.6094 C83.7969,1161.6094 82.1094,1162.5156 82.1094,1163.5 C82.1094,1163.9531 82.4844,1164.3438 82.9531,1164.3438 C83.1875,1164.3438 83.4063,1164.2344 83.5625,1164.0938 C84.1094,1163.5 84.5781,1163.3125 85.5156,1163.3125 C86.6875,1163.3125 87.4219,1163.7969 87.4219,1164.5938 C87.4219,1165.3125 86.7031,1165.9375 85.875,1165.9375 L85.1875,1165.9375 Z " fill="#000000"/><text fill="#000000" font-family="Verdana" font-size="12" lengthAdjust="spacing" textLength="146" x="99" y="1171.1074">ReponseReponseCourte</text><line style="stroke:#A80036;stroke-width:1.5;" x1="71" x2="247" y1="1182.9531" y2="1182.9531"/><line style="stroke:#A80036;stroke-width:1.5;" x1="71" x2="247" y1="1190.9531" y2="1190.9531"/><!--MD5=[28171b3b1b7d9308f9ccc121ee214a29]
reverse link Question to QuestionChoixMultiple--><path d="M733.918,854.9261 C675.95,880.8241 604.517,913.1241 541,942.9531 C532.578,946.9081 523.725,951.1431 515.033,955.3451 " fill="none" id="Question-backto-QuestionChoixMultiple" style="stroke:#A80036;stroke-width:1.0;"/><polygon fill="none" points="731.122,848.5081,752.239,846.7541,736.826,861.2941,731.122,848.5081" style="stroke:#A80036;stroke-width:1.0;"/><!--MD5=[39e1b470d490cb232e6764910af5df78]
reverse link Question to QuestionVraiFaux--><path d="M887.729,883.0231 C894.981,893.7411 903.105,904.0881 912,912.9531 C913.544,914.4921 950.701,936.1781 983.772,955.3501 " fill="none" id="Question-backto-QuestionVraiFaux" style="stroke:#A80036;stroke-width:1.0;"/><polygon fill="none" points="881.769,886.6951,877.065,866.0341,893.627,879.2521,881.769,886.6951" style="stroke:#A80036;stroke-width:1.0;"/><!--MD5=[5ed60b9accfe0031a43a048e74585de9]
reverse link Question to QuestionMiseEnCorrespondance--><path d="M847.547,886.2871 C847.411,910.7851 847.271,936.1161 847.166,954.9781 " fill="none" id="Question-backto-QuestionMiseEnCorrespondance" style="stroke:#A80036;stroke-width:1.0;"/><polygon fill="none" points="840.548,886.0271,847.659,866.0661,854.548,886.1051,840.548,886.0271" style="stroke:#A80036;stroke-width:1.0;"/><!--MD5=[3926187fd92bf53ae5c32c3c76f22fce]
reverse link Question to QuestionReponseCourte--><path d="M732.365,822.2821 C603.96,843.7921 391.509,884.4991 215,942.9531 C204.321,946.4901 193.217,950.8561 182.557,955.4231 " fill="none" id="Question-backto-QuestionReponseCourte" style="stroke:#A80036;stroke-width:1.0;"/><polygon fill="none" points="731.359,815.3531,752.233,818.9951,733.644,829.1661,731.359,815.3531" style="stroke:#A80036;stroke-width:1.0;"/><!--MD5=[ac269cb4f82ce33ddd978edd6c1fad8a]
reverse link Question to QuestionNumerique--><path d="M732.789,830.8141 C634.759,854.9101 491.162,894.1751 371,942.9531 C362.077,946.5751 352.842,950.9071 343.97,955.3911 " fill="none" id="Question-backto-QuestionNumerique" style="stroke:#A80036;stroke-width:1.0;"/><polygon fill="none" points="731.291,823.9751,752.379,826.0521,734.598,837.5781,731.291,823.9751" style="stroke:#A80036;stroke-width:1.0;"/><!--MD5=[03feef78d76696c3cda020ae2d0ce31d]
reverse link Reponse to ReponseChoixMultiple--><path d="M606.811,1047.5431 C590.428,1082.7581 570.723,1125.1121 558.79,1150.7611 " fill="none" id="Reponse-backto-ReponseChoixMultiple" style="stroke:#A80036;stroke-width:1.0;"/><polygon fill="none" points="600.475,1044.5671,615.258,1029.3861,613.169,1050.4731,600.475,1044.5671" style="stroke:#A80036;stroke-width:1.0;"/><!--MD5=[eed205ae4eaf819a3d542ccf7d2f9ba3]
reverse link Reponse to ReponseNumerique--><path d="M595.632,1046.0661 C584.986,1061.7171 575.862,1074.6741 574,1075.9531 C526.549,1108.5441 499.426,1080.0851 448,1105.9531 C428.809,1115.6061 410.24,1130.6401 395.734,1144.1191 " fill="none" id="Reponse-backto-ReponseNumerique" style="stroke:#A80036;stroke-width:1.0;"/><polygon fill="none" points="590.051,1041.8231,607.038,1029.1581,601.657,1049.6531,590.051,1041.8231" style="stroke:#A80036;stroke-width:1.0;"/><!--MD5=[c608d8fbd609839e60fa9c71693cf227]
reverse link Reponse to ReponseVraiFaux--><path d="M729.591,1038.2291 C756.407,1051.5921 785.947,1065.2331 814,1075.9531 C860.936,1093.8881 878.513,1082.5961 923,1105.9531 C945.109,1117.5611 966.587,1136.0271 981.866,1150.7881 " fill="none" id="Reponse-backto-ReponseVraiFaux" style="stroke:#A80036;stroke-width:1.0;"/><polygon fill="none" points="726.184,1044.3501,711.513,1029.0611,732.516,1031.8641,726.184,1044.3501" style="stroke:#A80036;stroke-width:1.0;"/><!--MD5=[c854924dfc8f296bf6acd8f613933c6c]
reverse link Reponse to ReponseMiseEnCorrespondance--><path d="M683.836,1045.1201 C713.789,1080.7971 750.498,1124.5211 772.528,1150.7611 " fill="none" id="Reponse-backto-ReponseMiseEnCorrespondance" style="stroke:#A80036;stroke-width:1.0;"/><polygon fill="none" points="678.125,1049.2051,670.626,1029.3861,688.847,1040.2031,678.125,1049.2051" style="stroke:#A80036;stroke-width:1.0;"/><!--MD5=[8e7dbe2dbee4a2ff85b5aa8ebba7a0b4]
reverse link Reponse to ReponseReponseCourte--><path d="M523.947,1034.5491 C470.976,1054.0971 451.367,1058.9321 392,1075.9531 C339.983,1090.8661 324.019,1085.3061 274,1105.9531 C245.056,1117.9011 214.659,1136.1571 192.39,1150.7471 " fill="none" id="Reponse-backto-ReponseReponseCourte" style="stroke:#A80036;stroke-width:1.0;"/><polygon fill="none" points="521.666,1027.9291,542.851,1027.4851,526.566,1041.0431,521.666,1027.9291" style="stroke:#A80036;stroke-width:1.0;"/><!--MD5=[843a46382d283828a7d1783d3460c7c7]
link Université to CatalogueCours--><path codeLine="122" d="M1581.89,107.0431 C1598.12,115.5431 1615.58,126.6131 1629,139.9531 C1642.4,153.2731 1652.79,172.0131 1659.62,186.7531 " fill="none" id="Université-CatalogueCours" style="stroke:#A80036;stroke-width:1.0;"/><polygon fill="#000000" points="1651.4908,152.0992,1647.28,143.5716,1643.0718,147.6753,1651.4908,152.0992" style="stroke:#000000;stroke-width:1.0;"/><text fill="#000000" font-family="Verdana" font-size="13" lengthAdjust="spacing" textLength="31" x="1657" y="153.02">offre</text><text fill="#000000" font-family="Verdana" font-size="13" lengthAdjust="spacing" textLength="8" x="1589.3645" y="106.1158">1</text><text fill="#000000" font-family="Verdana" font-size="13" lengthAdjust="spacing" textLength="8" x="1648.1914" y="175.7139">1</text><!--MD5=[caa7d714cd4e4959b4291618de060d69]
link CatalogueCours to Cours--><path codeLine="123" d="M1673.6,235.2831 C1681.1,273.2831 1696,348.8331 1704.87,393.8131 " fill="none" id="CatalogueCours-Cours" style="stroke:#A80036;stroke-width:1.0;"/><polygon fill="#000000" points="1703.9676,319.425,1705.1006,309.9822,1699.3338,311.1197,1703.9676,319.425" style="stroke:#000000;stroke-width:1.0;"/><text fill="#000000" font-family="Verdana" font-size="13" lengthAdjust="spacing" textLength="63" x="1712" y="319.02">repertorie</text><text fill="#000000" font-family="Verdana" font-size="13" lengthAdjust="spacing" textLength="8" x="1665.7463" y="255.1248">1</text><text fill="#000000" font-family="Verdana" font-size="13" lengthAdjust="spacing" textLength="7" x="1695.9765" y="382.9751">*</text><!--MD5=[359da426c3c95d8048c951014945ceb0]
link Devoir to Remise--><path codeLine="124" d="M1227.64,1243.9931 C1229.01,1269.6831 1230.53,1298.1481 1231.75,1320.7921 " fill="none" id="Devoir-Remise" style="stroke:#A80036;stroke-width:1.0;"/><polygon fill="#000000" points="1235.2672,1287.5124,1237.7186,1278.3232,1231.8491,1278.6373,1235.2672,1287.5124" style="stroke:#000000;stroke-width:1.0;"/><text fill="#000000" font-family="Verdana" font-size="13" lengthAdjust="spacing" textLength="52" x="1244" y="1287.02">contient</text><text fill="#000000" font-family="Verdana" font-size="13" lengthAdjust="spacing" textLength="8" x="1219.6046" y="1263.619">1</text><text fill="#000000" font-family="Verdana" font-size="13" lengthAdjust="spacing" textLength="7" x="1223.8336" y="1309.7625">*</text><!--MD5=[b8f15a7fbf1e0ac66b43fe2a255415c0]
link EspaceCours to Devoir--><path codeLine="125" d="M1208.01,1016.5841 C1210.44,1040.4771 1213.95,1075.0281 1217.06,1105.6731 " fill="none" id="EspaceCours-Devoir" style="stroke:#A80036;stroke-width:1.0;"/><polygon fill="#000000" points="1219.5053,1072.4939,1221.5151,1063.1981,1215.6673,1063.7922,1219.5053,1072.4939" style="stroke:#000000;stroke-width:1.0;"/><text fill="#000000" font-family="Verdana" font-size="13" lengthAdjust="spacing" textLength="52" x="1228" y="1072.02">contient</text><text fill="#000000" font-family="Verdana" font-size="13" lengthAdjust="spacing" textLength="8" x="1199.8058" y="1036.5494">1</text><text fill="#000000" font-family="Verdana" font-size="13" lengthAdjust="spacing" textLength="7" x="1208.9834" y="1094.8479">*</text><!--MD5=[e696a511ab66ff85cf29965a3cb732fe]
link Université to Enseignant--><path codeLine="126" d="M1489.02,110.0031 C1476.81,118.0231 1464.63,128.0531 1456,139.9531 C1427.7,178.9731 1415.71,233.8331 1410.66,271.3531 " fill="none" id="Université-Enseignant" style="stroke:#A80036;stroke-width:1.0;"/><polygon fill="#000000" points="1458.8157,153.0172,1465.4108,146.1648,1460.1235,143.597,1458.8157,153.0172" style="stroke:#000000;stroke-width:1.0;"/><text fill="#000000" font-family="Verdana" font-size="13" lengthAdjust="spacing" textLength="51" x="1470" y="153.02">emploie</text><text fill="#000000" font-family="Verdana" font-size="13" lengthAdjust="spacing" textLength="8" x="1472.4297" y="127.5041">1</text><text fill="#000000" font-family="Verdana" font-size="13" lengthAdjust="spacing" textLength="7" x="1403.6855" y="260.3332">*</text><!--MD5=[d99a8c8e2f040432a664dac4ac75f7f7]
link Questionnaire to Question--><path codeLine="127" d="M1054.82,605.1021 C1043.58,614.7821 1031.79,625.1211 1021,634.9531 C983.454,669.1631 942.578,708.6301 909.991,740.6581 " fill="none" id="Questionnaire-Question" style="stroke:#A80036;stroke-width:1.0;"/><polygon fill="#000000" points="1022.3495,675.4363,1030.9616,671.401,1026.945,667.1096,1022.3495,675.4363" style="stroke:#000000;stroke-width:1.0;"/><text fill="#000000" font-family="Verdana" font-size="13" lengthAdjust="spacing" textLength="52" x="1035" y="676.52">contient</text><text fill="#000000" font-family="Verdana" font-size="13" lengthAdjust="spacing" textLength="8" x="1037.8464" y="625.5345">1</text><text fill="#000000" font-family="Verdana" font-size="13" lengthAdjust="spacing" textLength="23" x="892.5135" y="730.0532">1..*</text><!--MD5=[5217f6319e60196188b9b46941152dbc]
link Université to Etudiant--><path codeLine="128" d="M1532.34,110.1431 C1531.4,119.4031 1530.46,130.1631 1530,139.9531 C1528.02,182.0931 1529.7,230.0331 1531.63,264.8231 " fill="none" id="Université-Etudiant" style="stroke:#A80036;stroke-width:1.0;"/><polygon fill="#000000" points="1535.023,143.5196,1532.0425,152.5511,1537.9203,152.5781,1535.023,143.5196" style="stroke:#000000;stroke-width:1.0;"/><text fill="#000000" font-family="Verdana" font-size="13" lengthAdjust="spacing" textLength="76" x="1544" y="153.02">est-inscrit-à</text><text fill="#000000" font-family="Verdana" font-size="13" lengthAdjust="spacing" textLength="8" x="1522.7166" y="129.9506">1</text><text fill="#000000" font-family="Verdana" font-size="13" lengthAdjust="spacing" textLength="7" x="1523.6639" y="253.8501">*</text><!--MD5=[31ca12531000ae5fbc8b65f0576c1ae5]
link Question to EspaceCours--><path codeLine="129" d="M912.479,866.2191 C933.34,883.4671 957.457,900.7951 982,912.9531 C1032.42,937.9301 1051.56,925.3361 1105,942.9531 C1116.09,946.6081 1127.67,950.9561 1138.86,955.4471 " fill="none" id="Question-EspaceCours" style="stroke:#A80036;stroke-width:1.0;"/><polygon fill="#000000" points="982.3483,902.6861,989.6856,908.737,991.841,903.2686,982.3483,902.6861" style="stroke:#000000;stroke-width:1.0;"/><text fill="#000000" font-family="Verdana" font-size="13" lengthAdjust="spacing" textLength="52" x="996" y="909.02">contient</text><text fill="#000000" font-family="Verdana" font-size="13" lengthAdjust="spacing" textLength="7" x="912.1486" y="885.988">*</text><text fill="#000000" font-family="Verdana" font-size="13" lengthAdjust="spacing" textLength="8" x="1115.5169" y="944.2361">1</text><!--MD5=[9658aa9b13a75953075a809ba662f093]
link Questionnaire to EspaceCours--><path codeLine="130" d="M1163.15,583.0401 C1186.73,594.3831 1211.53,611.1681 1225,634.9531 C1255.74,689.2401 1224.42,881.0211 1210.72,955.2791 " fill="none" id="Questionnaire-EspaceCours" style="stroke:#A80036;stroke-width:1.0;"/><polygon fill="#000000" points="1242.3662,798.5599,1240.5976,807.9045,1246.428,807.1594,1242.3662,798.5599" style="stroke:#000000;stroke-width:1.0;"/><text fill="#000000" font-family="Verdana" font-size="13" lengthAdjust="spacing" textLength="52" x="1252" y="808.02">contient</text><text fill="#000000" font-family="Verdana" font-size="13" lengthAdjust="spacing" textLength="7" x="1171.0489" y="581.8298">*</text><text fill="#000000" font-family="Verdana" font-size="13" lengthAdjust="spacing" textLength="8" x="1203.0748" y="944.5065">1</text><!--MD5=[4a1dec41fc93cd3e03671729410bb2fc]
link Etudiant to GroupeCours--><path codeLine="131" d="M1529.8,364.1431 C1522.06,436.4931 1507.71,570.7571 1500.85,634.9511 " fill="none" id="Etudiant-GroupeCours" style="stroke:#A80036;stroke-width:1.0;"/><polygon fill="#000000" points="1531.4685,435.9912,1535.3523,427.3098,1529.5077,426.685,1531.4685,435.9912" style="stroke:#000000;stroke-width:1.0;"/><text fill="#000000" font-family="Verdana" font-size="13" lengthAdjust="spacing" textLength="85" x="1541" y="435.52">S'inscrit-dans</text><text fill="#000000" font-family="Verdana" font-size="13" lengthAdjust="spacing" textLength="8" x="1520.5063" y="384.2463">1</text><text fill="#000000" font-family="Verdana" font-size="13" lengthAdjust="spacing" textLength="23" x="1503.6802" y="623.8612">1..*</text><!--MD5=[1b4ecfae8f4f6f2eba21162271229cb8]
link Enseignant to GroupeCours--><path codeLine="132" d="M1415.02,357.7131 C1421.06,388.4231 1429.84,430.9231 1439,467.9531 C1453.57,526.8381 1473.54,594.4291 1485.84,634.8591 " fill="none" id="Enseignant-GroupeCours" style="stroke:#A80036;stroke-width:1.0;"/><polygon fill="#000000" points="1445.2379,435.8639,1445.846,426.3728,1440.1511,427.828,1445.2379,435.8639" style="stroke:#000000;stroke-width:1.0;"/><text fill="#000000" font-family="Verdana" font-size="13" lengthAdjust="spacing" textLength="58" x="1453" y="435.52">Enseigne</text><text fill="#000000" font-family="Verdana" font-size="13" lengthAdjust="spacing" textLength="8" x="1407.6607" y="377.8475">1</text><text fill="#000000" font-family="Verdana" font-size="13" lengthAdjust="spacing" textLength="7" x="1476.1371" y="623.7523">*</text><!--MD5=[dd19a10ffb7e2e1829c46178384b5825]
link Cours to GroupeCours--><path codeLine="133" d="M1679.58,467.9921 C1639.11,512.9821 1570.28,589.4941 1529.68,634.6201 " fill="none" id="Cours-GroupeCours" style="stroke:#A80036;stroke-width:1.0;"/><polygon fill="#000000" points="1671.656,565.7367,1679.8903,560.9778,1675.5205,557.0467,1671.656,565.7367" style="stroke:#000000;stroke-width:1.0;"/><text fill="#000000" font-family="Verdana" font-size="13" lengthAdjust="spacing" textLength="38" x="1684" y="566.52">décris</text><text fill="#000000" font-family="Verdana" font-size="13" lengthAdjust="spacing" textLength="8" x="1665.3203" y="487.7591">1</text><text fill="#000000" font-family="Verdana" font-size="13" lengthAdjust="spacing" textLength="23" x="1537.2734" y="624.0263">1..*</text><!--MD5=[a7baa54bc84030c0156c8e0cfba0978d]
link GroupeCours to EspaceCours--><path codeLine="134" d="M1463.22,709.0481 C1404.97,771.2861 1286.71,897.6411 1232.85,955.1941 " fill="none" id="GroupeCours-EspaceCours" style="stroke:#A80036;stroke-width:1.0;"/><polygon fill="#000000" points="1437.4166,799.8689,1429.0901,804.4647,1433.3817,808.4811,1437.4166,799.8689" style="stroke:#000000;stroke-width:1.0;"/><text fill="#000000" font-family="Verdana" font-size="13" lengthAdjust="spacing" textLength="203" x="1443" y="808.02">Est-un-support-des-activités-du</text><text fill="#000000" font-family="Verdana" font-size="13" lengthAdjust="spacing" textLength="8" x="1448.9627" y="728.5444">1</text><text fill="#000000" font-family="Verdana" font-size="13" lengthAdjust="spacing" textLength="24" x="1212.1191" y="944.4039">1..0</text><!--MD5=[af2d7541308f58d5363465f4e73c7e54]
link Etudiant to Remise--><path codeLine="135" d="M1608,343.3531 C1628.53,350.6331 1650.98,358.0731 1672,363.9531 C1734.96,381.5731 1764.64,353.5031 1816,393.9531 C1880.5,444.7581 1895,478.8451 1895,560.9531 C1895,560.9531 1895,560.9531 1895,1175.9531 C1895,1299.5371 1461.78,1345.5818 1296.78,1358.6368 " fill="none" id="Etudiant-Remise" style="stroke:#A80036;stroke-width:1.0;"/><polygon fill="#000000" points="1898.5346,909.3,1903.9954,901.5134,1898.3756,899.7907,1898.5346,909.3" style="stroke:#000000;stroke-width:1.0;"/><text fill="#000000" font-family="Verdana" font-size="13" lengthAdjust="spacing" textLength="30" x="1909" y="909.02">Crée</text><text fill="#000000" font-family="Verdana" font-size="13" lengthAdjust="spacing" textLength="8" x="1615.9406" y="342.6225">1</text><text fill="#000000" font-family="Verdana" font-size="13" lengthAdjust="spacing" textLength="7" x="1304.4436" y="1354.2056">*</text><!--MD5=[86d4d92ffa2b487721c11ee456a89a6b]
link Enseignant to Question--><path codeLine="136" d="M1356.95,320.4731 C1269.04,331.9431 1086.51,368.0331 984,475.9531 C912.635,551.0821 876.261,669.0341 859.756,740.7081 " fill="none" id="Enseignant-Question" style="stroke:#A80036;stroke-width:1.0;"/><polygon fill="#000000" points="985.1813,565.2471,993.9865,561.6529,990.1922,557.1638,985.1813,565.2471" style="stroke:#000000;stroke-width:1.0;"/><text fill="#000000" font-family="Verdana" font-size="13" lengthAdjust="spacing" textLength="30" x="998" y="566.52">Crée</text><text fill="#000000" font-family="Verdana" font-size="13" lengthAdjust="spacing" textLength="8" x="1341.0114" y="317.302">1</text><text fill="#000000" font-family="Verdana" font-size="13" lengthAdjust="spacing" textLength="7" x="853.7106" y="729.6706">*</text><!--MD5=[3537acb344145d0ef730434aa393bdc5]
link Enseignant to Questionnaire--><path codeLine="137" d="M1356.97,327.0331 C1315.47,338.5931 1256.72,359.6431 1215,393.9531 C1173.71,427.9131 1142.29,481.4481 1123.81,518.7181 " fill="none" id="Enseignant-Questionnaire" style="stroke:#A80036;stroke-width:1.0;"/><polygon fill="#000000" points="1216.1377,434.1948,1224.9911,430.7209,1221.2583,426.1805,1216.1377,434.1948" style="stroke:#000000;stroke-width:1.0;"/><text fill="#000000" font-family="Verdana" font-size="13" lengthAdjust="spacing" textLength="30" x="1229" y="435.52">Crée</text><text fill="#000000" font-family="Verdana" font-size="13" lengthAdjust="spacing" textLength="8" x="1341.0343" y="342.0286">1</text><text fill="#000000" font-family="Verdana" font-size="13" lengthAdjust="spacing" textLength="7" x="1119.1543" y="507.9947">*</text><!--MD5=[e48116efd1f0894966f6b68e8e493370]
link Enseignant to Devoir--><path codeLine="138" d="M1449.22,357.5131 C1453.02,359.9831 1456.96,362.1831 1461,363.9531 C1524.36,391.8031 1719.31,347.9331 1771,393.9531 C1827.71,444.4441 1807,485.0261 1807,560.9531 C1807,560.9531 1807,560.9531 1807,986.9531 C1807,1091.9851 1459.57,1146.2951 1301.12,1165.6011 " fill="none" id="Enseignant-Devoir" style="stroke:#A80036;stroke-width:1.0;"/><polygon fill="#000000" points="1811.0987,808.4376,1815.62,800.0705,1809.8384,799.0109,1811.0987,808.4376" style="stroke:#000000;stroke-width:1.0;"/><text fill="#000000" font-family="Verdana" font-size="13" lengthAdjust="spacing" textLength="30" x="1821" y="808.02">Crée</text><text fill="#000000" font-family="Verdana" font-size="13" lengthAdjust="spacing" textLength="8" x="1446.1159" y="378.9425">1</text><text fill="#000000" font-family="Verdana" font-size="13" lengthAdjust="spacing" textLength="7" x="1309.056" y="1161.0338">*</text><!--MD5=[7d5893d7306d46fdb942c2da6bc8309b]
link Questionnaire to Tentative--><path codeLine="139" d="M1102.71,605.2191 C1100.34,648.8631 1096.66,716.5711 1094.29,760.2071 " fill="none" id="Questionnaire-Tentative" style="stroke:#A80036;stroke-width:1.0;"/><polygon fill="#000000" points="1106.2712,667.0269,1102.846,675.8992,1108.7152,676.2181,1106.2712,667.0269" style="stroke:#000000;stroke-width:1.0;"/><text fill="#000000" font-family="Verdana" font-size="13" lengthAdjust="spacing" textLength="102" x="1115" y="676.52">est effuctué sur</text><text fill="#000000" font-family="Verdana" font-size="13" lengthAdjust="spacing" textLength="8" x="1093.7075" y="625.3544">1</text><text fill="#000000" font-family="Verdana" font-size="13" lengthAdjust="spacing" textLength="8" x="1086.0282" y="749.482">1</text><!--MD5=[b79b9e2666d6d8ca68922909666ec959]
link Etudiant to Tentative--><path codeLine="140" d="M1462,362.2331 C1438.21,377.6631 1417.25,391.5431 1415,393.9531 C1297.41,520.1641 1349.8,612.8291 1226,732.9531 C1201.27,756.9511 1166.59,774.6331 1138.7,786.1561 " fill="none" id="Etudiant-Tentative" style="stroke:#A80036;stroke-width:1.0;"/><polygon fill="#000000" points="1358.9679,565.9953,1366.7899,560.5853,1362.1161,557.0209,1358.9679,565.9953" style="stroke:#000000;stroke-width:1.0;"/><text fill="#000000" font-family="Verdana" font-size="13" lengthAdjust="spacing" textLength="82" x="1371" y="566.52">effectue une</text><text fill="#000000" font-family="Verdana" font-size="13" lengthAdjust="spacing" textLength="8" x="1449.8393" y="384.0831">1</text><text fill="#000000" font-family="Verdana" font-size="13" lengthAdjust="spacing" textLength="8" x="1146.4634" y="779.4044">1</text><!--MD5=[60fe4a3b19ee02c5edf733fa5e60211a]
link Tentative to Reponse--><path codeLine="141" d="M1087.74,846.6601 C1083.08,869.9211 1073.33,897.1971 1053,912.9531 C996.197,956.9761 800.584,924.9881 731,942.9531 C729.679,943.2941 728.353,943.6511 727.023,944.0231 " fill="none" id="Tentative-Reponse" style="stroke:#A80036;stroke-width:1.0;"/><polygon fill="#000000" points="1068.1728,905.8225,1077.6712,906.3028,1076.1395,900.628,1068.1728,905.8225" style="stroke:#000000;stroke-width:1.0;"/><text fill="#000000" font-family="Verdana" font-size="13" lengthAdjust="spacing" textLength="52" x="1082" y="909.02">contient</text><text fill="#000000" font-family="Verdana" font-size="13" lengthAdjust="spacing" textLength="8" x="1078.4236" y="866.786">1</text><text fill="#000000" font-family="Verdana" font-size="13" lengthAdjust="spacing" textLength="7" x="734.9335" y="936.985">*</text><!--MD5=[178b5d66bf7b357f75b53861e6100dae]
link QuestionVraiFaux to ReponseVraiFaux--><path codeLine="142" d="M1030.09,1016.5841 C1023.91,1053.8651 1013.43,1117.0961 1007.81,1150.9461 " fill="none" id="QuestionVraiFaux-ReponseVraiFaux" style="stroke:#A80036;stroke-width:1.0;"/><polygon fill="#000000" points="1027.1821,1072.4522,1031.5611,1064.0097,1025.7624,1063.0482,1027.1821,1072.4522" style="stroke:#000000;stroke-width:1.0;"/><text fill="#000000" font-family="Verdana" font-size="13" lengthAdjust="spacing" textLength="52" x="1037" y="1072.02">contient</text><text fill="#000000" font-family="Verdana" font-size="13" lengthAdjust="spacing" textLength="8" x="1020.2523" y="1036.5494">1</text><text fill="#000000" font-family="Verdana" font-size="13" lengthAdjust="spacing" textLength="7" x="1000.8894" y="1139.9564">*</text><!--MD5=[e992c135f19bf6a68bf3ca57d565824f]
link QuestionReponseCourte to ReponseReponseCourte--><path codeLine="143" d="M127.863,1016.5841 C135.239,1053.8651 147.75,1117.0961 154.448,1150.9461 " fill="none" id="QuestionReponseCourte-ReponseReponseCourte" style="stroke:#A80036;stroke-width:1.0;"/><polygon fill="#000000" points="145.9705,1072.4244,147.0979,1062.9809,141.3318,1064.1218,145.9705,1072.4244" style="stroke:#000000;stroke-width:1.0;"/><text fill="#000000" font-family="Verdana" font-size="13" lengthAdjust="spacing" textLength="52" x="154" y="1072.02">contient</text><text fill="#000000" font-family="Verdana" font-size="13" lengthAdjust="spacing" textLength="8" x="120.2472" y="1036.5494">1</text><text fill="#000000" font-family="Verdana" font-size="13" lengthAdjust="spacing" textLength="7" x="145.3847" y="1139.9564">*</text><!--MD5=[deb9aa80afdc6d5a6172db5920c4b0e1]
link QuestionNumerique to ReponseNumerique--><path codeLine="144" d="M303.884,1016.5841 C317.886,1051.4961 341.016,1109.1661 355.048,1144.1521 " fill="none" id="QuestionNumerique-ReponseNumerique" style="stroke:#A80036;stroke-width:1.0;"/><polygon fill="#000000" points="334.8612,1072.1602,334.2219,1062.6711,328.7665,1064.8592,334.8612,1072.1602" style="stroke:#000000;stroke-width:1.0;"/><text fill="#000000" font-family="Verdana" font-size="13" lengthAdjust="spacing" textLength="52" x="342" y="1072.02">contient</text><text fill="#000000" font-family="Verdana" font-size="13" lengthAdjust="spacing" textLength="8" x="297.5101" y="1036.5494">1</text><text fill="#000000" font-family="Verdana" font-size="13" lengthAdjust="spacing" textLength="7" x="344.861" y="1133.3533">*</text><!--MD5=[94a97ef70619898f73ede40b65d3e392]
link QuestionChoixMultiple to ReponseChoixMultiple--><path codeLine="145" d="M469.736,1016.5841 C488.277,1053.8651 519.723,1117.0961 536.558,1150.9461 " fill="none" id="QuestionChoixMultiple-ReponseChoixMultiple" style="stroke:#A80036;stroke-width:1.0;"/><polygon fill="#000000" points="506.2265,1071.9964,504.8302,1062.5889,499.5673,1065.2063,506.2265,1071.9964" style="stroke:#000000;stroke-width:1.0;"/><text fill="#000000" font-family="Verdana" font-size="13" lengthAdjust="spacing" textLength="52" x="513" y="1072.02">contient</text><text fill="#000000" font-family="Verdana" font-size="13" lengthAdjust="spacing" textLength="8" x="463.9503" y="1036.5494">1</text><text fill="#000000" font-family="Verdana" font-size="13" lengthAdjust="spacing" textLength="7" x="525.7291" y="1139.9564">*</text><!--MD5=[aa46149d1ad8527a12f0000e36d39fc3]
link QuestionMiseEnCorrespondance to ReponseMiseEnCorrespondance--><path codeLine="146" d="M838.285,1016.5841 C827.32,1053.8651 808.723,1117.0961 798.767,1150.9461 " fill="none" id="QuestionMiseEnCorrespondance-ReponseMiseEnCorrespondance" style="stroke:#A80036;stroke-width:1.0;"/><polygon fill="#000000" points="828.5892,1072.3164,833.9609,1064.4681,828.3219,1062.8096,828.5892,1072.3164" style="stroke:#000000;stroke-width:1.0;"/><text fill="#000000" font-family="Verdana" font-size="13" lengthAdjust="spacing" textLength="52" x="839" y="1072.02">contient</text><text fill="#000000" font-family="Verdana" font-size="13" lengthAdjust="spacing" textLength="8" x="827.6625" y="1036.5494">1</text><text fill="#000000" font-family="Verdana" font-size="13" lengthAdjust="spacing" textLength="7" x="792.6042" y="1139.9564">*</text><rect fill="#DDDDDD" height="95.4844" rx="5" ry="5" style="stroke:#000000;stroke-width:1.0;" width="329" x="802" y="1436.9531"/><text fill="#000000" font-family="Verdana" font-size="14" font-weight="bold" lengthAdjust="spacing" textLength="0" x="813" y="1456.9482"/><text fill="#000000" font-family="Verdana" font-size="14" font-weight="bold" lengthAdjust="spacing" textLength="39" x="840" y="1456.9482">Type</text><text fill="#000000" filter="url(#b1fsz49e9ol4y10)" font-family="Verdana" font-size="14" lengthAdjust="spacing" textLength="23" x="808" y="1473.2451">_1_</text><text fill="#000000" font-family="Verdana" font-size="14" lengthAdjust="spacing" textLength="282" x="839" y="1473.2451">Classe non modifiée première itération</text><text fill="#000000" filter="url(#b1fsz49e9ol4y11)" font-family="Verdana" font-size="14" lengthAdjust="spacing" textLength="23" x="808" y="1489.542">_1_</text><text fill="#000000" font-family="Verdana" font-size="14" lengthAdjust="spacing" textLength="251" x="839" y="1489.542">Classe modifiée première itération</text><text fill="#000000" filter="url(#b1fsz49e9ol4y12)" font-family="Verdana" font-size="14" lengthAdjust="spacing" textLength="22" x="808" y="1505.8389">_2_</text><text fill="#000000" font-family="Verdana" font-size="14" lengthAdjust="spacing" textLength="249" x="839" y="1505.8389">Nouvelle classe deuxième itération</text><text fill="#000000" filter="url(#b1fsz49e9ol4y13)" font-family="Verdana" font-size="14" lengthAdjust="spacing" textLength="23" x="808" y="1522.1357">_3_</text><text fill="#000000" font-family="Verdana" font-size="14" lengthAdjust="spacing" textLength="0" x="835" y="1522.1357"/><text fill="#000000" font-family="Verdana" font-size="14" lengthAdjust="spacing" textLength="248" x="839" y="1522.1357">Nouvelle classe troisième itération</text><line style="stroke:#000000;stroke-width:1.0;" x1="808" x2="1125" y1="1443.9531" y2="1443.9531"/><line style="stroke:#000000;stroke-width:1.0;" x1="808" x2="1125" y1="1460.25" y2="1460.25"/><line style="stroke:#000000;stroke-width:1.0;" x1="808" x2="1125" y1="1476.5469" y2="1476.5469"/><line style="stroke:#000000;stroke-width:1.0;" x1="808" x2="1125" y1="1492.8438" y2="1492.8438"/><line style="stroke:#000000;stroke-width:1.0;" x1="808" x2="1125" y1="1509.1406" y2="1509.1406"/><line style="stroke:#000000;stroke-width:1.0;" x1="808" x2="1125" y1="1525.4375" y2="1525.4375"/><line style="stroke:#000000;stroke-width:1.0;" x1="808" x2="808" y1="1443.9531" y2="1525.4375"/><line style="stroke:#000000;stroke-width:1.0;" x1="835" x2="835" y1="1443.9531" y2="1525.4375"/><line style="stroke:#000000;stroke-width:1.0;" x1="1125" x2="1125" y1="1443.9531" y2="1525.4375"/><!--MD5=[0fb13a1a31d5b05746ecd8bf108d8224]
@startuml
skinparam defaultfontname Verdana
skinparam RoundCorner 20
' skinparam linetype ortho

title Modèle du domaine


package SGB{
    class Université << (2,red) >>{}

    class CatalogueCours << (2,red)>>{}

    class Enseignant << 1,yellow) >>{
    prenom : String
    nom : String
    courriel : String
    }

    class Etudiant << 1,yellow) >>{
    nom : String
    codePermanent : String
    prenom : String
    courriel : String
    }

    class Cours << (1,blue) >>{
    id : numbers
    nom : String
    }

    class GroupeCours << 1,yellow) >>{
        id : number
        limiteNombreInscription : number
    }
}

package SGA{
    class Devoir << (2,red) >>{
        id: number
        nom: String
        description : String
        note maximale : number
        date de début : String
        date de fin : String
        visible : boolean
    }

    class Remise << (2,red) >>{
        id : number
        etat : String
        dateRemise : String

    }

    class Question << 1,yellow) >>{
        id : number
        nom : String
        tags : String
        texteQuestion : String
        texteBonneReponse : String
        texteMauvaiseReponse : String
    }

    class Questionnaire << (2,red) >>{
        id: number
        description: String
        état : boolean
    }

    class Tentative <<(3, orange) >>{
        id : number
        note : number
        statut : Sring
    }

    class QuestionChoixMultiple <<(3, orange) >> extends Question {
        reponse : String
    }

    class QuestionVraiFaux<<(3, orange) >> extends Question {
        reponse : boolean
    }

    class QuestionMiseEnCorrespondance<<(3, orange) >> extends Question {
        reponse : String
    }

    class QuestionReponseCourte<<(3, orange) >> extends Question {
        reponse : String
    }

    class QuestionNumerique<<(3, orange) >> extends Question {
        reponse : number
    }

    class EspaceCours << (2,red) >>{
        idEspaceGroupeCours : number
    }
    class Reponse << (3,orange) >>{
        reponse : String
        bonnneReponseText: String
        mauvaiseReponseText: String
    }

    class ReponseChoixMultiple << (3,orange) >> extends Reponse {

    }
    class ReponseNumerique << (3,orange) >> extends Reponse {
        ponderation: number
    }
    class ReponseVraiFaux << (3,orange) >> extends Reponse {

    }
    class ReponseMiseEnCorrespondance << (3,orange) >> extends Reponse {

    }
    class ReponseReponseCourte << (3,orange) >> extends Reponse {

    }
}

Université "1" - - "1"CatalogueCours : offre >
CatalogueCours "1"- - "*"Cours : repertorie >
Devoir "1"- -"*" Remise : contient >
EspaceCours "1"- -"*" Devoir: contient >
Université "1"- -"*" Enseignant : emploie >
Questionnaire "1"- -"1..*" Question : contient >
Université "1"- -"*" Etudiant : est-inscrit-à <
Question "*"- -"1" EspaceCours : contient <
Questionnaire "*"- -"1" EspaceCours : contient <
Etudiant "1" - - "1..*"GroupeCours : S'inscrit-dans >
Enseignant "1" - - "*"GroupeCours : Enseigne >
Cours "1" - - "1..*" GroupeCours : décris >
GroupeCours "1"- - "1..0"EspaceCours : Est-un-support-des-activités-du <
Etudiant "1" - - "*" Remise : Crée >
Enseignant "1" - - "*" Question : Crée >
Enseignant "1" - - "*" Questionnaire : Crée >
Enseignant "1" - - "*" Devoir : Crée >
Questionnaire"1" - - "1"Tentative : est effuctué sur <
Etudiant "1" - - "1" Tentative : effectue une >
Tentative "1" - - "*" Reponse : contient >
QuestionVraiFaux "1" - - "*" ReponseVraiFaux : contient >
QuestionReponseCourte "1" - - "*" ReponseReponseCourte : contient >
QuestionNumerique "1" - - "*" ReponseNumerique : contient >
QuestionChoixMultiple "1" - - "*" ReponseChoixMultiple : contient >
QuestionMiseEnCorrespondance "1" - - "*" ReponseMiseEnCorrespondance : contient >



legend
|= |= Type |
|<back:blue>_1_</back>| Classe non modifiée première itération |
|<back:yellow>_1_</back>| Classe modifiée première itération |
|<back:red>_2_</back>| Nouvelle classe deuxième itération |
|<back:orange>_3_</back> | Nouvelle classe troisième itération |
endlegend
@enduml

@startuml
skinparam defaultfontname Verdana
skinparam RoundCorner 20

title Modèle du domaine


package SGB{
    class Université << (2,red) >>{}

    class CatalogueCours << (2,red)>>{}

    class Enseignant << 1,yellow) >>{
    prenom : String
    nom : String
    courriel : String
    }

    class Etudiant << 1,yellow) >>{
    nom : String
    codePermanent : String
    prenom : String
    courriel : String
    }

    class Cours << (1,blue) >>{
    id : numbers
    nom : String
    }

    class GroupeCours << 1,yellow) >>{
        id : number
        limiteNombreInscription : number
    }
}

package SGA{
    class Devoir << (2,red) >>{
        id: number
        nom: String
        description : String
        note maximale : number
        date de début : String
        date de fin : String
        visible : boolean
    }

    class Remise << (2,red) >>{
        id : number
        etat : String
        dateRemise : String

    }

    class Question << 1,yellow) >>{
        id : number
        nom : String
        tags : String
        texteQuestion : String
        texteBonneReponse : String
        texteMauvaiseReponse : String
    }

    class Questionnaire << (2,red) >>{
        id: number
        description: String
        état : boolean
    }

    class Tentative <<(3, orange) >>{
        id : number
        note : number
        statut : Sring
    }

    class QuestionChoixMultiple <<(3, orange) >> extends Question {
        reponse : String
    }

    class QuestionVraiFaux<<(3, orange) >> extends Question {
        reponse : boolean
    }

    class QuestionMiseEnCorrespondance<<(3, orange) >> extends Question {
        reponse : String
    }

    class QuestionReponseCourte<<(3, orange) >> extends Question {
        reponse : String
    }

    class QuestionNumerique<<(3, orange) >> extends Question {
        reponse : number
    }

    class EspaceCours << (2,red) >>{
        idEspaceGroupeCours : number
    }
    class Reponse << (3,orange) >>{
        reponse : String
        bonnneReponseText: String
        mauvaiseReponseText: String
    }

    class ReponseChoixMultiple << (3,orange) >> extends Reponse {

    }
    class ReponseNumerique << (3,orange) >> extends Reponse {
        ponderation: number
    }
    class ReponseVraiFaux << (3,orange) >> extends Reponse {

    }
    class ReponseMiseEnCorrespondance << (3,orange) >> extends Reponse {

    }
    class ReponseReponseCourte << (3,orange) >> extends Reponse {

    }
}

Université "1" - - "1"CatalogueCours : offre >
CatalogueCours "1"- - "*"Cours : repertorie >
Devoir "1"- -"*" Remise : contient >
EspaceCours "1"- -"*" Devoir: contient >
Université "1"- -"*" Enseignant : emploie >
Questionnaire "1"- -"1..*" Question : contient >
Université "1"- -"*" Etudiant : est-inscrit-à <
Question "*"- -"1" EspaceCours : contient <
Questionnaire "*"- -"1" EspaceCours : contient <
Etudiant "1" - - "1..*"GroupeCours : S'inscrit-dans >
Enseignant "1" - - "*"GroupeCours : Enseigne >
Cours "1" - - "1..*" GroupeCours : décris >
GroupeCours "1"- - "1..0"EspaceCours : Est-un-support-des-activités-du <
Etudiant "1" - - "*" Remise : Crée >
Enseignant "1" - - "*" Question : Crée >
Enseignant "1" - - "*" Questionnaire : Crée >
Enseignant "1" - - "*" Devoir : Crée >
Questionnaire"1" - - "1"Tentative : est effuctué sur <
Etudiant "1" - - "1" Tentative : effectue une >
Tentative "1" - - "*" Reponse : contient >
QuestionVraiFaux "1" - - "*" ReponseVraiFaux : contient >
QuestionReponseCourte "1" - - "*" ReponseReponseCourte : contient >
QuestionNumerique "1" - - "*" ReponseNumerique : contient >
QuestionChoixMultiple "1" - - "*" ReponseChoixMultiple : contient >
QuestionMiseEnCorrespondance "1" - - "*" ReponseMiseEnCorrespondance : contient >



legend
|= |= Type |
|<back:blue>_1_</back>| Classe non modifiée première itération |
|<back:yellow>_1_</back>| Classe modifiée première itération |
|<back:red>_2_</back>| Nouvelle classe deuxième itération |
|<back:orange>_3_</back> | Nouvelle classe troisième itération |
endlegend
@enduml

PlantUML version 1.2021.9beta2(Unknown compile time)
(GPL source distribution)
Java Runtime: Java(TM) SE Runtime Environment
JVM: Java HotSpot(TM) 64-Bit Server VM
Default Encoding: UTF-8
Language: en
Country: US
--></g></svg>