<?xml version="1.0" encoding="UTF-8" standalone="no"?><svg xmlns="http://www.w3.org/2000/svg" xmlns:xlink="http://www.w3.org/1999/xlink" contentScriptType="application/ecmascript" contentStyleType="text/css" height="1661px" preserveAspectRatio="none" style="width:1812px;height:1661px;background:#FFFFFF;" version="1.1" viewBox="0 0 1812 1661" width="1812px" zoomAndPan="magnify"><defs><filter height="300%" id="fuo9drnwvcqpf" width="300%" x="-1" y="-1"><feGaussianBlur result="blurOut" stdDeviation="2.0"/><feColorMatrix in="blurOut" result="blurOut2" type="matrix" values="0 0 0 0 0 0 0 0 0 0 0 0 0 0 0 0 0 0 .4 0"/><feOffset dx="4.0" dy="4.0" in="blurOut2" result="blurOut3"/><feBlend in="SourceGraphic" in2="blurOut3" mode="normal"/></filter><filter height="1" id="buo9drnwvcqpf0" width="1" x="0" y="0"><feFlood flood-color="#0000FF" result="flood"/><feComposite in="SourceGraphic" in2="flood" operator="over"/></filter><filter height="1" id="buo9drnwvcqpf1" width="1" x="0" y="0"><feFlood flood-color="#FFFF00" result="flood"/><feComposite in="SourceGraphic" in2="flood" operator="over"/></filter><filter height="1" id="buo9drnwvcqpf2" width="1" x="0" y="0"><feFlood flood-color="#FF0000" result="flood"/><feComposite in="SourceGraphic" in2="flood" operator="over"/></filter><filter height="1" id="buo9drnwvcqpf3" width="1" x="0" y="0"><feFlood flood-color="#FFA500" result="flood"/><feComposite in="SourceGraphic" in2="flood" operator="over"/></filter></defs><g><text fill="#000000" font-family="Verdana" font-size="18" lengthAdjust="spacing" textLength="179" x="810" y="16.708">Modèle du domaine</text><!--MD5=[a7e36d4aa44b43fc8fb02c9c2fa0b819]
cluster SGB--><polygon fill="#FFFFFF" filter="url(#fuo9drnwvcqpf)" points="1206,26.9531,1245,26.9531,1252,49.25,1635,49.25,1635,724.9531,1206,724.9531,1206,26.9531" style="stroke:#000000;stroke-width:1.5;"/><line style="stroke:#000000;stroke-width:1.5;" x1="1206" x2="1252" y1="49.25" y2="49.25"/><text fill="#000000" font-family="Verdana" font-size="14" font-weight="bold" lengthAdjust="spacing" textLength="33" x="1210" y="41.9482">SGB</text><!--MD5=[b72d85ecf124ab8e7e9b42ea86690e20]
cluster SGA--><polygon fill="#FFFFFF" filter="url(#fuo9drnwvcqpf)" points="16,483.9531,55,483.9531,62,506.25,1182,506.25,1182,1535.9531,16,1535.9531,16,483.9531" style="stroke:#000000;stroke-width:1.5;"/><line style="stroke:#000000;stroke-width:1.5;" x1="16" x2="62" y1="506.25" y2="506.25"/><text fill="#000000" font-family="Verdana" font-size="14" font-weight="bold" lengthAdjust="spacing" textLength="33" x="20" y="498.9482">SGA</text><!--MD5=[10a08b655f733f3f3e8b0ffe69f4343a]
class Université--><rect codeLine="9" fill="#FEFECE" filter="url(#fuo9drnwvcqpf)" height="48" id="Université" rx="10" ry="10" style="stroke:#A80036;stroke-width:1.5;" width="93" x="1331.5" y="61.9531"/><ellipse cx="1346.5" cy="77.9531" fill="#FF0000" rx="11" ry="11" style="stroke:#A80036;stroke-width:1.0;"/><path d="M1345.0156,81.25 C1346.5156,79.9688 1347.5,79.1094 1347.9531,78.6875 C1349.6406,77.1563 1350.0469,76.5156 1350.0469,75.4063 C1350.0469,73.5156 1348.5,72.1094 1346.4375,72.1094 C1345.4219,72.1094 1344.4531,72.4531 1343.7813,73.0625 C1343.2031,73.5938 1342.7656,74.4219 1342.7656,74.9688 C1342.7656,75.4063 1343.1563,75.7813 1343.6094,75.7813 C1343.9688,75.7813 1344.2813,75.5781 1344.375,75.2813 C1344.5625,74.7344 1344.5781,74.7031 1344.75,74.5 C1345.125,74.0625 1345.7188,73.8125 1346.3906,73.8125 C1347.5,73.8125 1348.3438,74.4688 1348.3438,75.3438 C1348.3438,75.9219 1348.0625,76.2969 1346.3594,77.8438 C1345.5938,78.5313 1345.2813,78.8125 1342.4219,81.1719 L1342.4219,82.9531 L1350.1406,82.9531 L1350.1406,81.4531 C1350.1406,81.0469 1350.1094,80.8906 1350.0156,80.75 C1349.8594,80.4844 1349.5781,80.3281 1349.2813,80.3281 C1348.7656,80.3281 1348.4844,80.6406 1348.4375,81.25 L1345.0156,81.25 Z " fill="#000000"/><text fill="#000000" font-family="Verdana" font-size="12" lengthAdjust="spacing" textLength="61" x="1360.5" y="82.1074">Université</text><line style="stroke:#A80036;stroke-width:1.5;" x1="1332.5" x2="1423.5" y1="93.9531" y2="93.9531"/><line style="stroke:#A80036;stroke-width:1.5;" x1="1332.5" x2="1423.5" y1="101.9531" y2="101.9531"/><!--MD5=[63c8a86559697f2113f14d70f80cad38]
class CatalogueCours--><rect codeLine="11" fill="#FEFECE" filter="url(#fuo9drnwvcqpf)" height="48" id="CatalogueCours" rx="10" ry="10" style="stroke:#A80036;stroke-width:1.5;" width="127" x="1311.5" y="186.9531"/><ellipse cx="1326.5" cy="202.9531" fill="#FF0000" rx="11" ry="11" style="stroke:#A80036;stroke-width:1.0;"/><path d="M1325.0156,206.25 C1326.5156,204.9688 1327.5,204.1094 1327.9531,203.6875 C1329.6406,202.1563 1330.0469,201.5156 1330.0469,200.4063 C1330.0469,198.5156 1328.5,197.1094 1326.4375,197.1094 C1325.4219,197.1094 1324.4531,197.4531 1323.7813,198.0625 C1323.2031,198.5938 1322.7656,199.4219 1322.7656,199.9688 C1322.7656,200.4063 1323.1563,200.7813 1323.6094,200.7813 C1323.9688,200.7813 1324.2813,200.5781 1324.375,200.2813 C1324.5625,199.7344 1324.5781,199.7031 1324.75,199.5 C1325.125,199.0625 1325.7188,198.8125 1326.3906,198.8125 C1327.5,198.8125 1328.3438,199.4688 1328.3438,200.3438 C1328.3438,200.9219 1328.0625,201.2969 1326.3594,202.8438 C1325.5938,203.5313 1325.2813,203.8125 1322.4219,206.1719 L1322.4219,207.9531 L1330.1406,207.9531 L1330.1406,206.4531 C1330.1406,206.0469 1330.1094,205.8906 1330.0156,205.75 C1329.8594,205.4844 1329.5781,205.3281 1329.2813,205.3281 C1328.7656,205.3281 1328.4844,205.6406 1328.4375,206.25 L1325.0156,206.25 Z " fill="#000000"/><text fill="#000000" font-family="Verdana" font-size="12" lengthAdjust="spacing" textLength="95" x="1340.5" y="207.1074">CatalogueCours</text><line style="stroke:#A80036;stroke-width:1.5;" x1="1312.5" x2="1437.5" y1="218.9531" y2="218.9531"/><line style="stroke:#A80036;stroke-width:1.5;" x1="1312.5" x2="1437.5" y1="226.9531" y2="226.9531"/><!--MD5=[0ea76b077f2fe2b0557d144a0cdb3724]
class Enseignant--><rect codeLine="13" fill="#FEFECE" filter="url(#fuo9drnwvcqpf)" height="86.4141" id="Enseignant" rx="10" ry="10" style="stroke:#A80036;stroke-width:1.5;" width="100" x="1222" y="271.4531"/><ellipse cx="1238.35" cy="287.4531" fill="#FFFF00" rx="11" ry="11" style="stroke:#A80036;stroke-width:1.0;"/><path d="M1239.3031,281.6094 L1235.6938,282.5469 C1235.0219,282.7188 1234.7875,282.9219 1234.7875,283.4063 C1234.7875,283.9063 1235.1313,284.2969 1235.5844,284.2969 C1235.7406,284.2969 1235.8031,284.2813 1236.1156,284.1875 L1237.6,283.7969 L1237.6,290.75 L1235.8813,290.75 C1235.4438,290.75 1235.3188,290.7656 1235.1625,290.875 C1234.9125,291.0313 1234.7563,291.3125 1234.7563,291.6094 C1234.7563,291.8594 1234.8969,292.125 1235.1156,292.2813 C1235.2563,292.4063 1235.4906,292.4531 1235.8813,292.4531 L1241.0219,292.4531 C1241.35,292.4531 1241.6156,292.4063 1241.725,292.3281 C1241.9906,292.1719 1242.1313,291.8906 1242.1313,291.6094 C1242.1313,291.3281 1242.0063,291.0781 1241.7875,290.9063 C1241.6156,290.7813 1241.475,290.75 1241.0219,290.75 L1239.3031,290.75 L1239.3031,281.6094 Z " fill="#000000"/><text fill="#000000" font-family="Verdana" font-size="12" lengthAdjust="spacing" textLength="65" x="1252.65" y="291.6074">Enseignant</text><line style="stroke:#A80036;stroke-width:1.5;" x1="1223" x2="1321" y1="303.4531" y2="303.4531"/><text fill="#000000" font-family="Verdana" font-size="11" lengthAdjust="spacing" textLength="88" x="1228" y="317.6636">prenom : String</text><text fill="#000000" font-family="Verdana" font-size="11" lengthAdjust="spacing" textLength="69" x="1228" y="330.4683">nom : String</text><text fill="#000000" font-family="Verdana" font-size="11" lengthAdjust="spacing" textLength="86" x="1228" y="343.2729">courriel : String</text><line style="stroke:#A80036;stroke-width:1.5;" x1="1223" x2="1321" y1="349.8672" y2="349.8672"/><!--MD5=[f84e857de5a9ca5678aed72e3e98d0a5]
class Etudiant--><rect codeLine="19" fill="#FEFECE" filter="url(#fuo9drnwvcqpf)" height="99.2188" id="Etudiant" rx="10" ry="10" style="stroke:#A80036;stroke-width:1.5;" width="146" x="1452" y="264.9531"/><ellipse cx="1497.25" cy="280.9531" fill="#FFFF00" rx="11" ry="11" style="stroke:#A80036;stroke-width:1.0;"/><path d="M1498.2031,275.1094 L1494.5938,276.0469 C1493.9219,276.2188 1493.6875,276.4219 1493.6875,276.9063 C1493.6875,277.4063 1494.0313,277.7969 1494.4844,277.7969 C1494.6406,277.7969 1494.7031,277.7813 1495.0156,277.6875 L1496.5,277.2969 L1496.5,284.25 L1494.7813,284.25 C1494.3438,284.25 1494.2188,284.2656 1494.0625,284.375 C1493.8125,284.5313 1493.6563,284.8125 1493.6563,285.1094 C1493.6563,285.3594 1493.7969,285.625 1494.0156,285.7813 C1494.1563,285.9063 1494.3906,285.9531 1494.7813,285.9531 L1499.9219,285.9531 C1500.25,285.9531 1500.5156,285.9063 1500.625,285.8281 C1500.8906,285.6719 1501.0313,285.3906 1501.0313,285.1094 C1501.0313,284.8281 1500.9063,284.5781 1500.6875,284.4063 C1500.5156,284.2813 1500.375,284.25 1499.9219,284.25 L1498.2031,284.25 L1498.2031,275.1094 Z " fill="#000000"/><text fill="#000000" font-family="Verdana" font-size="12" lengthAdjust="spacing" textLength="47" x="1517.75" y="285.1074">Etudiant</text><line style="stroke:#A80036;stroke-width:1.5;" x1="1453" x2="1597" y1="296.9531" y2="296.9531"/><text fill="#000000" font-family="Verdana" font-size="11" lengthAdjust="spacing" textLength="69" x="1458" y="311.1636">nom : String</text><text fill="#000000" font-family="Verdana" font-size="11" lengthAdjust="spacing" textLength="134" x="1458" y="323.9683">codePermanent : String</text><text fill="#000000" font-family="Verdana" font-size="11" lengthAdjust="spacing" textLength="88" x="1458" y="336.7729">prenom : String</text><text fill="#000000" font-family="Verdana" font-size="11" lengthAdjust="spacing" textLength="86" x="1458" y="349.5776">courriel : String</text><line style="stroke:#A80036;stroke-width:1.5;" x1="1453" x2="1597" y1="356.1719" y2="356.1719"/><!--MD5=[f6edf60997924e693a9a5571eb281b8c]
class Cours--><rect codeLine="26" fill="#FEFECE" filter="url(#fuo9drnwvcqpf)" height="73.6094" id="Cours" rx="10" ry="10" style="stroke:#A80036;stroke-width:1.5;" width="83" x="1365.5" y="393.9531"/><ellipse cx="1387.7" cy="409.9531" fill="#0000FF" rx="11" ry="11" style="stroke:#A80036;stroke-width:1.0;"/><path d="M1388.6531,404.1094 L1385.0438,405.0469 C1384.3719,405.2188 1384.1375,405.4219 1384.1375,405.9063 C1384.1375,406.4063 1384.4813,406.7969 1384.9344,406.7969 C1385.0906,406.7969 1385.1531,406.7813 1385.4656,406.6875 L1386.95,406.2969 L1386.95,413.25 L1385.2313,413.25 C1384.7938,413.25 1384.6688,413.2656 1384.5125,413.375 C1384.2625,413.5313 1384.1063,413.8125 1384.1063,414.1094 C1384.1063,414.3594 1384.2469,414.625 1384.4656,414.7813 C1384.6063,414.9063 1384.8406,414.9531 1385.2313,414.9531 L1390.3719,414.9531 C1390.7,414.9531 1390.9656,414.9063 1391.075,414.8281 C1391.3406,414.6719 1391.4813,414.3906 1391.4813,414.1094 C1391.4813,413.8281 1391.3563,413.5781 1391.1375,413.4063 C1390.9656,413.2813 1390.825,413.25 1390.3719,413.25 L1388.6531,413.25 L1388.6531,404.1094 Z " fill="#000000"/><text fill="#000000" font-family="Verdana" font-size="12" lengthAdjust="spacing" textLength="35" x="1403.3" y="414.1074">Cours</text><line style="stroke:#A80036;stroke-width:1.5;" x1="1366.5" x2="1447.5" y1="425.9531" y2="425.9531"/><text fill="#000000" font-family="Verdana" font-size="11" lengthAdjust="spacing" textLength="71" x="1371.5" y="440.1636">id : numbers</text><text fill="#000000" font-family="Verdana" font-size="11" lengthAdjust="spacing" textLength="69" x="1371.5" y="452.9683">nom : String</text><line style="stroke:#A80036;stroke-width:1.5;" x1="1366.5" x2="1447.5" y1="459.5625" y2="459.5625"/><!--MD5=[b32d763bfdb05d07119f0e8fadbdfdc1]
class GroupeCours--><rect codeLine="31" fill="#FEFECE" filter="url(#fuo9drnwvcqpf)" height="73.6094" id="GroupeCours" rx="10" ry="10" style="stroke:#A80036;stroke-width:1.5;" width="201" x="1243.5" y="634.9531"/><ellipse cx="1299.75" cy="650.9531" fill="#FFFF00" rx="11" ry="11" style="stroke:#A80036;stroke-width:1.0;"/><path d="M1300.7031,645.1094 L1297.0938,646.0469 C1296.4219,646.2188 1296.1875,646.4219 1296.1875,646.9063 C1296.1875,647.4063 1296.5313,647.7969 1296.9844,647.7969 C1297.1406,647.7969 1297.2031,647.7813 1297.5156,647.6875 L1299,647.2969 L1299,654.25 L1297.2813,654.25 C1296.8438,654.25 1296.7188,654.2656 1296.5625,654.375 C1296.3125,654.5313 1296.1563,654.8125 1296.1563,655.1094 C1296.1563,655.3594 1296.2969,655.625 1296.5156,655.7813 C1296.6563,655.9063 1296.8906,655.9531 1297.2813,655.9531 L1302.4219,655.9531 C1302.75,655.9531 1303.0156,655.9063 1303.125,655.8281 C1303.3906,655.6719 1303.5313,655.3906 1303.5313,655.1094 C1303.5313,654.8281 1303.4063,654.5781 1303.1875,654.4063 C1303.0156,654.2813 1302.875,654.25 1302.4219,654.25 L1300.7031,654.25 L1300.7031,645.1094 Z " fill="#000000"/><text fill="#000000" font-family="Verdana" font-size="12" lengthAdjust="spacing" textLength="80" x="1320.25" y="655.1074">GroupeCours</text><line style="stroke:#A80036;stroke-width:1.5;" x1="1244.5" x2="1443.5" y1="666.9531" y2="666.9531"/><text fill="#000000" font-family="Verdana" font-size="11" lengthAdjust="spacing" textLength="65" x="1249.5" y="681.1636">id : number</text><text fill="#000000" font-family="Verdana" font-size="11" lengthAdjust="spacing" textLength="189" x="1249.5" y="693.9683">limiteNombreInscription : number</text><line style="stroke:#A80036;stroke-width:1.5;" x1="1244.5" x2="1443.5" y1="700.5625" y2="700.5625"/><!--MD5=[54a5e0e6ed87cf29c8834e8f40ab0f5d]
class Devoir--><rect codeLine="38" fill="#FEFECE" filter="url(#fuo9drnwvcqpf)" height="137.6328" id="Devoir" rx="10" ry="10" style="stroke:#A80036;stroke-width:1.5;" width="154" x="1012" y="1218.9531"/><ellipse cx="1064.75" cy="1234.9531" fill="#FF0000" rx="11" ry="11" style="stroke:#A80036;stroke-width:1.0;"/><path d="M1063.2656,1238.25 C1064.7656,1236.9688 1065.75,1236.1094 1066.2031,1235.6875 C1067.8906,1234.1563 1068.2969,1233.5156 1068.2969,1232.4063 C1068.2969,1230.5156 1066.75,1229.1094 1064.6875,1229.1094 C1063.6719,1229.1094 1062.7031,1229.4531 1062.0313,1230.0625 C1061.4531,1230.5938 1061.0156,1231.4219 1061.0156,1231.9688 C1061.0156,1232.4063 1061.4063,1232.7813 1061.8594,1232.7813 C1062.2188,1232.7813 1062.5313,1232.5781 1062.625,1232.2813 C1062.8125,1231.7344 1062.8281,1231.7031 1063,1231.5 C1063.375,1231.0625 1063.9688,1230.8125 1064.6406,1230.8125 C1065.75,1230.8125 1066.5938,1231.4688 1066.5938,1232.3438 C1066.5938,1232.9219 1066.3125,1233.2969 1064.6094,1234.8438 C1063.8438,1235.5313 1063.5313,1235.8125 1060.6719,1238.1719 L1060.6719,1239.9531 L1068.3906,1239.9531 L1068.3906,1238.4531 C1068.3906,1238.0469 1068.3594,1237.8906 1068.2656,1237.75 C1068.1094,1237.4844 1067.8281,1237.3281 1067.5313,1237.3281 C1067.0156,1237.3281 1066.7344,1237.6406 1066.6875,1238.25 L1063.2656,1238.25 Z " fill="#000000"/><text fill="#000000" font-family="Verdana" font-size="12" lengthAdjust="spacing" textLength="40" x="1085.25" y="1239.1074">Devoir</text><line style="stroke:#A80036;stroke-width:1.5;" x1="1013" x2="1165" y1="1250.9531" y2="1250.9531"/><text fill="#000000" font-family="Verdana" font-size="11" lengthAdjust="spacing" textLength="61" x="1018" y="1265.1636">id: number</text><text fill="#000000" font-family="Verdana" font-size="11" lengthAdjust="spacing" textLength="65" x="1018" y="1277.9683">nom: String</text><text fill="#000000" font-family="Verdana" font-size="11" lengthAdjust="spacing" textLength="106" x="1018" y="1290.7729">description : String</text><text fill="#000000" font-family="Verdana" font-size="11" lengthAdjust="spacing" textLength="142" x="1018" y="1303.5776">note maximale : number</text><text fill="#000000" font-family="Verdana" font-size="11" lengthAdjust="spacing" textLength="126" x="1018" y="1316.3823">date de début : String</text><text fill="#000000" font-family="Verdana" font-size="11" lengthAdjust="spacing" textLength="107" x="1018" y="1329.187">date de fin : String</text><text fill="#000000" font-family="Verdana" font-size="11" lengthAdjust="spacing" textLength="94" x="1018" y="1341.9917">visible : boolean</text><line style="stroke:#A80036;stroke-width:1.5;" x1="1013" x2="1165" y1="1348.5859" y2="1348.5859"/><!--MD5=[1d9b9fea38fde0ee3d12b7f249f77478]
class Remise--><rect codeLine="48" fill="#FEFECE" filter="url(#fuo9drnwvcqpf)" height="86.4141" id="Remise" rx="10" ry="10" style="stroke:#A80036;stroke-width:1.5;" width="125" x="1036.5" y="1433.9531"/><ellipse cx="1073.55" cy="1449.9531" fill="#FF0000" rx="11" ry="11" style="stroke:#A80036;stroke-width:1.0;"/><path d="M1072.0656,1453.25 C1073.5656,1451.9688 1074.55,1451.1094 1075.0031,1450.6875 C1076.6906,1449.1563 1077.0969,1448.5156 1077.0969,1447.4063 C1077.0969,1445.5156 1075.55,1444.1094 1073.4875,1444.1094 C1072.4719,1444.1094 1071.5031,1444.4531 1070.8313,1445.0625 C1070.2531,1445.5938 1069.8156,1446.4219 1069.8156,1446.9688 C1069.8156,1447.4063 1070.2063,1447.7813 1070.6594,1447.7813 C1071.0188,1447.7813 1071.3313,1447.5781 1071.425,1447.2813 C1071.6125,1446.7344 1071.6281,1446.7031 1071.8,1446.5 C1072.175,1446.0625 1072.7688,1445.8125 1073.4406,1445.8125 C1074.55,1445.8125 1075.3938,1446.4688 1075.3938,1447.3438 C1075.3938,1447.9219 1075.1125,1448.2969 1073.4094,1449.8438 C1072.6438,1450.5313 1072.3313,1450.8125 1069.4719,1453.1719 L1069.4719,1454.9531 L1077.1906,1454.9531 L1077.1906,1453.4531 C1077.1906,1453.0469 1077.1594,1452.8906 1077.0656,1452.75 C1076.9094,1452.4844 1076.6281,1452.3281 1076.3313,1452.3281 C1075.8156,1452.3281 1075.5344,1452.6406 1075.4875,1453.25 L1072.0656,1453.25 Z " fill="#000000"/><text fill="#000000" font-family="Verdana" font-size="12" lengthAdjust="spacing" textLength="44" x="1092.45" y="1454.1074">Remise</text><line style="stroke:#A80036;stroke-width:1.5;" x1="1037.5" x2="1160.5" y1="1465.9531" y2="1465.9531"/><text fill="#000000" font-family="Verdana" font-size="11" lengthAdjust="spacing" textLength="65" x="1042.5" y="1480.1636">id : number</text><text fill="#000000" font-family="Verdana" font-size="11" lengthAdjust="spacing" textLength="67" x="1042.5" y="1492.9683">etat : String</text><text fill="#000000" font-family="Verdana" font-size="11" lengthAdjust="spacing" textLength="113" x="1042.5" y="1505.7729">dateRemise : String</text><line style="stroke:#A80036;stroke-width:1.5;" x1="1037.5" x2="1160.5" y1="1512.3672" y2="1512.3672"/><!--MD5=[fc7123defb831ecdd44b2d9bcef6cceb]
class Question--><rect codeLine="55" fill="#FEFECE" filter="url(#fuo9drnwvcqpf)" height="124.8281" id="Question" rx="10" ry="10" style="stroke:#A80036;stroke-width:1.5;" width="191" x="804.5" y="740.9531"/><ellipse cx="868.75" cy="756.9531" fill="#FFFF00" rx="11" ry="11" style="stroke:#A80036;stroke-width:1.0;"/><path d="M869.7031,751.1094 L866.0938,752.0469 C865.4219,752.2188 865.1875,752.4219 865.1875,752.9063 C865.1875,753.4063 865.5313,753.7969 865.9844,753.7969 C866.1406,753.7969 866.2031,753.7813 866.5156,753.6875 L868,753.2969 L868,760.25 L866.2813,760.25 C865.8438,760.25 865.7188,760.2656 865.5625,760.375 C865.3125,760.5313 865.1563,760.8125 865.1563,761.1094 C865.1563,761.3594 865.2969,761.625 865.5156,761.7813 C865.6563,761.9063 865.8906,761.9531 866.2813,761.9531 L871.4219,761.9531 C871.75,761.9531 872.0156,761.9063 872.125,761.8281 C872.3906,761.6719 872.5313,761.3906 872.5313,761.1094 C872.5313,760.8281 872.4063,760.5781 872.1875,760.4063 C872.0156,760.2813 871.875,760.25 871.4219,760.25 L869.7031,760.25 L869.7031,751.1094 Z " fill="#000000"/><text fill="#000000" font-family="Verdana" font-size="12" lengthAdjust="spacing" textLength="54" x="889.25" y="761.1074">Question</text><line style="stroke:#A80036;stroke-width:1.5;" x1="805.5" x2="994.5" y1="772.9531" y2="772.9531"/><text fill="#000000" font-family="Verdana" font-size="11" lengthAdjust="spacing" textLength="65" x="810.5" y="787.1636">id : number</text><text fill="#000000" font-family="Verdana" font-size="11" lengthAdjust="spacing" textLength="69" x="810.5" y="799.9683">nom : String</text><text fill="#000000" font-family="Verdana" font-size="11" lengthAdjust="spacing" textLength="68" x="810.5" y="812.7729">tags : String</text><text fill="#000000" font-family="Verdana" font-size="11" lengthAdjust="spacing" textLength="126" x="810.5" y="825.5776">texteQuestion : String</text><text fill="#000000" font-family="Verdana" font-size="11" lengthAdjust="spacing" textLength="162" x="810.5" y="838.3823">texteBonneReponse : String</text><text fill="#000000" font-family="Verdana" font-size="11" lengthAdjust="spacing" textLength="179" x="810.5" y="851.187">texteMauvaiseReponse : String</text><line style="stroke:#A80036;stroke-width:1.5;" x1="805.5" x2="994.5" y1="857.7813" y2="857.7813"/><!--MD5=[5a3b85c54cc1c79904e0b827443986bf]
class Questionnaire--><rect codeLine="64" fill="#FEFECE" filter="url(#fuo9drnwvcqpf)" height="86.4141" id="Questionnaire" rx="10" ry="10" style="stroke:#A80036;stroke-width:1.5;" width="116" x="925" y="518.9531"/><ellipse cx="940" cy="534.9531" fill="#FF0000" rx="11" ry="11" style="stroke:#A80036;stroke-width:1.0;"/><path d="M938.5156,538.25 C940.0156,536.9688 941,536.1094 941.4531,535.6875 C943.1406,534.1563 943.5469,533.5156 943.5469,532.4063 C943.5469,530.5156 942,529.1094 939.9375,529.1094 C938.9219,529.1094 937.9531,529.4531 937.2813,530.0625 C936.7031,530.5938 936.2656,531.4219 936.2656,531.9688 C936.2656,532.4063 936.6563,532.7813 937.1094,532.7813 C937.4688,532.7813 937.7813,532.5781 937.875,532.2813 C938.0625,531.7344 938.0781,531.7031 938.25,531.5 C938.625,531.0625 939.2188,530.8125 939.8906,530.8125 C941,530.8125 941.8438,531.4688 941.8438,532.3438 C941.8438,532.9219 941.5625,533.2969 939.8594,534.8438 C939.0938,535.5313 938.7813,535.8125 935.9219,538.1719 L935.9219,539.9531 L943.6406,539.9531 L943.6406,538.4531 C943.6406,538.0469 943.6094,537.8906 943.5156,537.75 C943.3594,537.4844 943.0781,537.3281 942.7813,537.3281 C942.2656,537.3281 941.9844,537.6406 941.9375,538.25 L938.5156,538.25 Z " fill="#000000"/><text fill="#000000" font-family="Verdana" font-size="12" lengthAdjust="spacing" textLength="84" x="954" y="539.1074">Questionnaire</text><line style="stroke:#A80036;stroke-width:1.5;" x1="926" x2="1040" y1="550.9531" y2="550.9531"/><text fill="#000000" font-family="Verdana" font-size="11" lengthAdjust="spacing" textLength="61" x="931" y="565.1636">id: number</text><text fill="#000000" font-family="Verdana" font-size="11" lengthAdjust="spacing" textLength="102" x="931" y="577.9683">description: String</text><text fill="#000000" font-family="Verdana" font-size="11" lengthAdjust="spacing" textLength="80" x="931" y="590.7729">état : boolean</text><line style="stroke:#A80036;stroke-width:1.5;" x1="926" x2="1040" y1="597.3672" y2="597.3672"/><!--MD5=[05ea6acd66af444e8e74b94591dc9ae3]
class Tentative--><rect codeLine="70" fill="#FEFECE" filter="url(#fuo9drnwvcqpf)" height="86.4141" id="Tentative" rx="10" ry="10" style="stroke:#A80036;stroke-width:1.5;" width="93" x="633.5" y="895.9531"/><ellipse cx="651.2" cy="911.9531" fill="#FFA500" rx="11" ry="11" style="stroke:#A80036;stroke-width:1.0;"/><path d="M651.3875,910.9375 C650.8875,910.9375 650.5125,911.2969 650.5125,911.7969 C650.5125,912.25 650.825,912.5469 651.3875,912.5781 C652.1219,912.6094 652.3406,912.6406 652.7,912.7969 C653.4969,913.125 653.9969,913.7188 653.9969,914.3438 C653.9969,914.7344 653.8094,915.1563 653.5125,915.4375 C653.0594,915.8438 652.4344,916.0156 651.2625,916.0156 C650.1688,916.0156 649.6531,915.9063 649.2156,915.6094 C648.95,915.4531 648.8719,915.4063 648.6688,915.4063 C648.2,915.4063 647.825,915.7813 647.825,916.2656 C647.825,917.125 649.2156,917.7031 651.3094,917.7031 C652.7938,917.7031 653.6844,917.4688 654.4344,916.9063 C655.2156,916.2969 655.7,915.3438 655.7,914.3594 C655.7,913.2656 655.0594,912.4219 653.7781,911.7969 C654.8719,911.125 655.325,910.5 655.325,909.5625 C655.325,908.875 655.0125,908.125 654.4656,907.5938 C653.825,906.9375 652.9344,906.6094 651.8094,906.6094 C649.9969,906.6094 648.3094,907.5156 648.3094,908.5 C648.3094,908.9531 648.6844,909.3438 649.1531,909.3438 C649.3875,909.3438 649.6063,909.2344 649.7625,909.0938 C650.3094,908.5 650.7781,908.3125 651.7156,908.3125 C652.8875,908.3125 653.6219,908.7969 653.6219,909.5938 C653.6219,910.3125 652.9031,910.9375 652.075,910.9375 L651.3875,910.9375 Z " fill="#000000"/><text fill="#000000" font-family="Verdana" font-size="12" lengthAdjust="spacing" textLength="55" x="665.8" y="916.1074">Tentative</text><line style="stroke:#A80036;stroke-width:1.5;" x1="634.5" x2="725.5" y1="927.9531" y2="927.9531"/><text fill="#000000" font-family="Verdana" font-size="11" lengthAdjust="spacing" textLength="65" x="639.5" y="942.1636">id : number</text><text fill="#000000" font-family="Verdana" font-size="11" lengthAdjust="spacing" textLength="81" x="639.5" y="954.9683">note : number</text><text fill="#000000" font-family="Verdana" font-size="11" lengthAdjust="spacing" textLength="72" x="639.5" y="967.7729">statut : Sring</text><line style="stroke:#A80036;stroke-width:1.5;" x1="634.5" x2="725.5" y1="974.3672" y2="974.3672"/><!--MD5=[8e66f9cf9bec2764c885278c9827de79]
class QuestionChoixMultiple--><rect codeLine="76" fill="#FEFECE" filter="url(#fuo9drnwvcqpf)" height="60.8047" id="QuestionChoixMultiple" rx="10" ry="10" style="stroke:#A80036;stroke-width:1.5;" width="165" x="188.5" y="1024.4531"/><ellipse cx="203.5" cy="1040.4531" fill="#FFA500" rx="11" ry="11" style="stroke:#A80036;stroke-width:1.0;"/><path d="M203.6875,1039.4375 C203.1875,1039.4375 202.8125,1039.7969 202.8125,1040.2969 C202.8125,1040.75 203.125,1041.0469 203.6875,1041.0781 C204.4219,1041.1094 204.6406,1041.1406 205,1041.2969 C205.7969,1041.625 206.2969,1042.2188 206.2969,1042.8438 C206.2969,1043.2344 206.1094,1043.6563 205.8125,1043.9375 C205.3594,1044.3438 204.7344,1044.5156 203.5625,1044.5156 C202.4688,1044.5156 201.9531,1044.4063 201.5156,1044.1094 C201.25,1043.9531 201.1719,1043.9063 200.9688,1043.9063 C200.5,1043.9063 200.125,1044.2813 200.125,1044.7656 C200.125,1045.625 201.5156,1046.2031 203.6094,1046.2031 C205.0938,1046.2031 205.9844,1045.9688 206.7344,1045.4063 C207.5156,1044.7969 208,1043.8438 208,1042.8594 C208,1041.7656 207.3594,1040.9219 206.0781,1040.2969 C207.1719,1039.625 207.625,1039 207.625,1038.0625 C207.625,1037.375 207.3125,1036.625 206.7656,1036.0938 C206.125,1035.4375 205.2344,1035.1094 204.1094,1035.1094 C202.2969,1035.1094 200.6094,1036.0156 200.6094,1037 C200.6094,1037.4531 200.9844,1037.8438 201.4531,1037.8438 C201.6875,1037.8438 201.9063,1037.7344 202.0625,1037.5938 C202.6094,1037 203.0781,1036.8125 204.0156,1036.8125 C205.1875,1036.8125 205.9219,1037.2969 205.9219,1038.0938 C205.9219,1038.8125 205.2031,1039.4375 204.375,1039.4375 L203.6875,1039.4375 Z " fill="#000000"/><text fill="#000000" font-family="Verdana" font-size="12" lengthAdjust="spacing" textLength="133" x="217.5" y="1044.6074">QuestionChoixMultiple</text><line style="stroke:#A80036;stroke-width:1.5;" x1="189.5" x2="352.5" y1="1056.4531" y2="1056.4531"/><text fill="#000000" font-family="Verdana" font-size="11" lengthAdjust="spacing" textLength="91" x="194.5" y="1070.6636">reponse : String</text><line style="stroke:#A80036;stroke-width:1.5;" x1="189.5" x2="352.5" y1="1077.2578" y2="1077.2578"/><!--MD5=[b2bb3f9574ade9b11e8d20c9a708efc6]
class QuestionVraiFaux--><rect codeLine="80" fill="#FEFECE" filter="url(#fuo9drnwvcqpf)" height="60.8047" id="QuestionVraiFaux" rx="10" ry="10" style="stroke:#A80036;stroke-width:1.5;" width="137" x="871.5" y="1127.9531"/><ellipse cx="886.5" cy="1143.9531" fill="#FFA500" rx="11" ry="11" style="stroke:#A80036;stroke-width:1.0;"/><path d="M886.6875,1142.9375 C886.1875,1142.9375 885.8125,1143.2969 885.8125,1143.7969 C885.8125,1144.25 886.125,1144.5469 886.6875,1144.5781 C887.4219,1144.6094 887.6406,1144.6406 888,1144.7969 C888.7969,1145.125 889.2969,1145.7188 889.2969,1146.3438 C889.2969,1146.7344 889.1094,1147.1563 888.8125,1147.4375 C888.3594,1147.8438 887.7344,1148.0156 886.5625,1148.0156 C885.4688,1148.0156 884.9531,1147.9063 884.5156,1147.6094 C884.25,1147.4531 884.1719,1147.4063 883.9688,1147.4063 C883.5,1147.4063 883.125,1147.7813 883.125,1148.2656 C883.125,1149.125 884.5156,1149.7031 886.6094,1149.7031 C888.0938,1149.7031 888.9844,1149.4688 889.7344,1148.9063 C890.5156,1148.2969 891,1147.3438 891,1146.3594 C891,1145.2656 890.3594,1144.4219 889.0781,1143.7969 C890.1719,1143.125 890.625,1142.5 890.625,1141.5625 C890.625,1140.875 890.3125,1140.125 889.7656,1139.5938 C889.125,1138.9375 888.2344,1138.6094 887.1094,1138.6094 C885.2969,1138.6094 883.6094,1139.5156 883.6094,1140.5 C883.6094,1140.9531 883.9844,1141.3438 884.4531,1141.3438 C884.6875,1141.3438 884.9063,1141.2344 885.0625,1141.0938 C885.6094,1140.5 886.0781,1140.3125 887.0156,1140.3125 C888.1875,1140.3125 888.9219,1140.7969 888.9219,1141.5938 C888.9219,1142.3125 888.2031,1142.9375 887.375,1142.9375 L886.6875,1142.9375 Z " fill="#000000"/><text fill="#000000" font-family="Verdana" font-size="12" lengthAdjust="spacing" textLength="105" x="900.5" y="1148.1074">QuestionVraiFaux</text><line style="stroke:#A80036;stroke-width:1.5;" x1="872.5" x2="1007.5" y1="1159.9531" y2="1159.9531"/><text fill="#000000" font-family="Verdana" font-size="11" lengthAdjust="spacing" textLength="104" x="877.5" y="1174.1636">reponse : boolean</text><line style="stroke:#A80036;stroke-width:1.5;" x1="872.5" x2="1007.5" y1="1180.7578" y2="1180.7578"/><!--MD5=[5d1b0da2dad6243cf19418393fb81f01]
class QuestionMiseEnCorrespondance--><rect codeLine="84" fill="#FEFECE" filter="url(#fuo9drnwvcqpf)" height="60.8047" id="QuestionMiseEnCorrespondance" rx="10" ry="10" style="stroke:#A80036;stroke-width:1.5;" width="229" x="732.5" y="1024.4531"/><ellipse cx="747.5" cy="1040.4531" fill="#FFA500" rx="11" ry="11" style="stroke:#A80036;stroke-width:1.0;"/><path d="M747.6875,1039.4375 C747.1875,1039.4375 746.8125,1039.7969 746.8125,1040.2969 C746.8125,1040.75 747.125,1041.0469 747.6875,1041.0781 C748.4219,1041.1094 748.6406,1041.1406 749,1041.2969 C749.7969,1041.625 750.2969,1042.2188 750.2969,1042.8438 C750.2969,1043.2344 750.1094,1043.6563 749.8125,1043.9375 C749.3594,1044.3438 748.7344,1044.5156 747.5625,1044.5156 C746.4688,1044.5156 745.9531,1044.4063 745.5156,1044.1094 C745.25,1043.9531 745.1719,1043.9063 744.9688,1043.9063 C744.5,1043.9063 744.125,1044.2813 744.125,1044.7656 C744.125,1045.625 745.5156,1046.2031 747.6094,1046.2031 C749.0938,1046.2031 749.9844,1045.9688 750.7344,1045.4063 C751.5156,1044.7969 752,1043.8438 752,1042.8594 C752,1041.7656 751.3594,1040.9219 750.0781,1040.2969 C751.1719,1039.625 751.625,1039 751.625,1038.0625 C751.625,1037.375 751.3125,1036.625 750.7656,1036.0938 C750.125,1035.4375 749.2344,1035.1094 748.1094,1035.1094 C746.2969,1035.1094 744.6094,1036.0156 744.6094,1037 C744.6094,1037.4531 744.9844,1037.8438 745.4531,1037.8438 C745.6875,1037.8438 745.9063,1037.7344 746.0625,1037.5938 C746.6094,1037 747.0781,1036.8125 748.0156,1036.8125 C749.1875,1036.8125 749.9219,1037.2969 749.9219,1038.0938 C749.9219,1038.8125 749.2031,1039.4375 748.375,1039.4375 L747.6875,1039.4375 Z " fill="#000000"/><text fill="#000000" font-family="Verdana" font-size="12" lengthAdjust="spacing" textLength="197" x="761.5" y="1044.6074">QuestionMiseEnCorrespondance</text><line style="stroke:#A80036;stroke-width:1.5;" x1="733.5" x2="960.5" y1="1056.4531" y2="1056.4531"/><text fill="#000000" font-family="Verdana" font-size="11" lengthAdjust="spacing" textLength="91" x="738.5" y="1070.6636">reponse : String</text><line style="stroke:#A80036;stroke-width:1.5;" x1="733.5" x2="960.5" y1="1077.2578" y2="1077.2578"/><!--MD5=[9f6daee1ba4f63f49f4f9abfbd574fe3]
class QuestionReponseCourte--><rect codeLine="88" fill="#FEFECE" filter="url(#fuo9drnwvcqpf)" height="60.8047" id="QuestionReponseCourte" rx="10" ry="10" style="stroke:#A80036;stroke-width:1.5;" width="179" x="548.5" y="1024.4531"/><ellipse cx="563.5" cy="1040.4531" fill="#FFA500" rx="11" ry="11" style="stroke:#A80036;stroke-width:1.0;"/><path d="M563.6875,1039.4375 C563.1875,1039.4375 562.8125,1039.7969 562.8125,1040.2969 C562.8125,1040.75 563.125,1041.0469 563.6875,1041.0781 C564.4219,1041.1094 564.6406,1041.1406 565,1041.2969 C565.7969,1041.625 566.2969,1042.2188 566.2969,1042.8438 C566.2969,1043.2344 566.1094,1043.6563 565.8125,1043.9375 C565.3594,1044.3438 564.7344,1044.5156 563.5625,1044.5156 C562.4688,1044.5156 561.9531,1044.4063 561.5156,1044.1094 C561.25,1043.9531 561.1719,1043.9063 560.9688,1043.9063 C560.5,1043.9063 560.125,1044.2813 560.125,1044.7656 C560.125,1045.625 561.5156,1046.2031 563.6094,1046.2031 C565.0938,1046.2031 565.9844,1045.9688 566.7344,1045.4063 C567.5156,1044.7969 568,1043.8438 568,1042.8594 C568,1041.7656 567.3594,1040.9219 566.0781,1040.2969 C567.1719,1039.625 567.625,1039 567.625,1038.0625 C567.625,1037.375 567.3125,1036.625 566.7656,1036.0938 C566.125,1035.4375 565.2344,1035.1094 564.1094,1035.1094 C562.2969,1035.1094 560.6094,1036.0156 560.6094,1037 C560.6094,1037.4531 560.9844,1037.8438 561.4531,1037.8438 C561.6875,1037.8438 561.9063,1037.7344 562.0625,1037.5938 C562.6094,1037 563.0781,1036.8125 564.0156,1036.8125 C565.1875,1036.8125 565.9219,1037.2969 565.9219,1038.0938 C565.9219,1038.8125 565.2031,1039.4375 564.375,1039.4375 L563.6875,1039.4375 Z " fill="#000000"/><text fill="#000000" font-family="Verdana" font-size="12" lengthAdjust="spacing" textLength="147" x="577.5" y="1044.6074">QuestionReponseCourte</text><line style="stroke:#A80036;stroke-width:1.5;" x1="549.5" x2="726.5" y1="1056.4531" y2="1056.4531"/><text fill="#000000" font-family="Verdana" font-size="11" lengthAdjust="spacing" textLength="91" x="554.5" y="1070.6636">reponse : String</text><line style="stroke:#A80036;stroke-width:1.5;" x1="549.5" x2="726.5" y1="1077.2578" y2="1077.2578"/><!--MD5=[36cd517ead6aafdf09a21b1dc53b6288]
class QuestionNumerique--><rect codeLine="92" fill="#FEFECE" filter="url(#fuo9drnwvcqpf)" height="60.8047" id="QuestionNumerique" rx="10" ry="10" style="stroke:#A80036;stroke-width:1.5;" width="151" x="32.5" y="1024.4531"/><ellipse cx="47.5" cy="1040.4531" fill="#FFA500" rx="11" ry="11" style="stroke:#A80036;stroke-width:1.0;"/><path d="M47.6875,1039.4375 C47.1875,1039.4375 46.8125,1039.7969 46.8125,1040.2969 C46.8125,1040.75 47.125,1041.0469 47.6875,1041.0781 C48.4219,1041.1094 48.6406,1041.1406 49,1041.2969 C49.7969,1041.625 50.2969,1042.2188 50.2969,1042.8438 C50.2969,1043.2344 50.1094,1043.6563 49.8125,1043.9375 C49.3594,1044.3438 48.7344,1044.5156 47.5625,1044.5156 C46.4688,1044.5156 45.9531,1044.4063 45.5156,1044.1094 C45.25,1043.9531 45.1719,1043.9063 44.9688,1043.9063 C44.5,1043.9063 44.125,1044.2813 44.125,1044.7656 C44.125,1045.625 45.5156,1046.2031 47.6094,1046.2031 C49.0938,1046.2031 49.9844,1045.9688 50.7344,1045.4063 C51.5156,1044.7969 52,1043.8438 52,1042.8594 C52,1041.7656 51.3594,1040.9219 50.0781,1040.2969 C51.1719,1039.625 51.625,1039 51.625,1038.0625 C51.625,1037.375 51.3125,1036.625 50.7656,1036.0938 C50.125,1035.4375 49.2344,1035.1094 48.1094,1035.1094 C46.2969,1035.1094 44.6094,1036.0156 44.6094,1037 C44.6094,1037.4531 44.9844,1037.8438 45.4531,1037.8438 C45.6875,1037.8438 45.9063,1037.7344 46.0625,1037.5938 C46.6094,1037 47.0781,1036.8125 48.0156,1036.8125 C49.1875,1036.8125 49.9219,1037.2969 49.9219,1038.0938 C49.9219,1038.8125 49.2031,1039.4375 48.375,1039.4375 L47.6875,1039.4375 Z " fill="#000000"/><text fill="#000000" font-family="Verdana" font-size="12" lengthAdjust="spacing" textLength="119" x="61.5" y="1044.6074">QuestionNumerique</text><line style="stroke:#A80036;stroke-width:1.5;" x1="33.5" x2="182.5" y1="1056.4531" y2="1056.4531"/><text fill="#000000" font-family="Verdana" font-size="11" lengthAdjust="spacing" textLength="102" x="38.5" y="1070.6636">reponse : number</text><line style="stroke:#A80036;stroke-width:1.5;" x1="33.5" x2="182.5" y1="1077.2578" y2="1077.2578"/><!--MD5=[dabef5714f41dd45c84d2acd22a3f642]
class EspaceCours--><rect codeLine="96" fill="#FEFECE" filter="url(#fuo9drnwvcqpf)" height="60.8047" id="EspaceCours" rx="10" ry="10" style="stroke:#A80036;stroke-width:1.5;" width="192" x="974" y="1024.4531"/><ellipse cx="1026.25" cy="1040.4531" fill="#FF0000" rx="11" ry="11" style="stroke:#A80036;stroke-width:1.0;"/><path d="M1024.7656,1043.75 C1026.2656,1042.4688 1027.25,1041.6094 1027.7031,1041.1875 C1029.3906,1039.6563 1029.7969,1039.0156 1029.7969,1037.9063 C1029.7969,1036.0156 1028.25,1034.6094 1026.1875,1034.6094 C1025.1719,1034.6094 1024.2031,1034.9531 1023.5313,1035.5625 C1022.9531,1036.0938 1022.5156,1036.9219 1022.5156,1037.4688 C1022.5156,1037.9063 1022.9063,1038.2813 1023.3594,1038.2813 C1023.7188,1038.2813 1024.0313,1038.0781 1024.125,1037.7813 C1024.3125,1037.2344 1024.3281,1037.2031 1024.5,1037 C1024.875,1036.5625 1025.4688,1036.3125 1026.1406,1036.3125 C1027.25,1036.3125 1028.0938,1036.9688 1028.0938,1037.8438 C1028.0938,1038.4219 1027.8125,1038.7969 1026.1094,1040.3438 C1025.3438,1041.0313 1025.0313,1041.3125 1022.1719,1043.6719 L1022.1719,1045.4531 L1029.8906,1045.4531 L1029.8906,1043.9531 C1029.8906,1043.5469 1029.8594,1043.3906 1029.7656,1043.25 C1029.6094,1042.9844 1029.3281,1042.8281 1029.0313,1042.8281 C1028.5156,1042.8281 1028.2344,1043.1406 1028.1875,1043.75 L1024.7656,1043.75 Z " fill="#000000"/><text fill="#000000" font-family="Verdana" font-size="12" lengthAdjust="spacing" textLength="79" x="1046.75" y="1044.6074">EspaceCours</text><line style="stroke:#A80036;stroke-width:1.5;" x1="975" x2="1165" y1="1056.4531" y2="1056.4531"/><text fill="#000000" font-family="Verdana" font-size="11" lengthAdjust="spacing" textLength="180" x="980" y="1070.6636">idEspaceGroupeCours : number</text><line style="stroke:#A80036;stroke-width:1.5;" x1="975" x2="1165" y1="1077.2578" y2="1077.2578"/><!--MD5=[02ab5647fff677f5656099d2abdba0fd]
class Reponse--><rect codeLine="99" fill="#FEFECE" filter="url(#fuo9drnwvcqpf)" height="86.4141" id="Reponse" rx="10" ry="10" style="stroke:#A80036;stroke-width:1.5;" width="184" x="359" y="1011.9531"/><ellipse cx="420.25" cy="1027.9531" fill="#FFA500" rx="11" ry="11" style="stroke:#A80036;stroke-width:1.0;"/><path d="M420.4375,1026.9375 C419.9375,1026.9375 419.5625,1027.2969 419.5625,1027.7969 C419.5625,1028.25 419.875,1028.5469 420.4375,1028.5781 C421.1719,1028.6094 421.3906,1028.6406 421.75,1028.7969 C422.5469,1029.125 423.0469,1029.7188 423.0469,1030.3438 C423.0469,1030.7344 422.8594,1031.1563 422.5625,1031.4375 C422.1094,1031.8438 421.4844,1032.0156 420.3125,1032.0156 C419.2188,1032.0156 418.7031,1031.9063 418.2656,1031.6094 C418,1031.4531 417.9219,1031.4063 417.7188,1031.4063 C417.25,1031.4063 416.875,1031.7813 416.875,1032.2656 C416.875,1033.125 418.2656,1033.7031 420.3594,1033.7031 C421.8438,1033.7031 422.7344,1033.4688 423.4844,1032.9063 C424.2656,1032.2969 424.75,1031.3438 424.75,1030.3594 C424.75,1029.2656 424.1094,1028.4219 422.8281,1027.7969 C423.9219,1027.125 424.375,1026.5 424.375,1025.5625 C424.375,1024.875 424.0625,1024.125 423.5156,1023.5938 C422.875,1022.9375 421.9844,1022.6094 420.8594,1022.6094 C419.0469,1022.6094 417.3594,1023.5156 417.3594,1024.5 C417.3594,1024.9531 417.7344,1025.3438 418.2031,1025.3438 C418.4375,1025.3438 418.6563,1025.2344 418.8125,1025.0938 C419.3594,1024.5 419.8281,1024.3125 420.7656,1024.3125 C421.9375,1024.3125 422.6719,1024.7969 422.6719,1025.5938 C422.6719,1026.3125 421.9531,1026.9375 421.125,1026.9375 L420.4375,1026.9375 Z " fill="#000000"/><text fill="#000000" font-family="Verdana" font-size="12" lengthAdjust="spacing" textLength="53" x="440.75" y="1032.1074">Reponse</text><line style="stroke:#A80036;stroke-width:1.5;" x1="360" x2="542" y1="1043.9531" y2="1043.9531"/><text fill="#000000" font-family="Verdana" font-size="11" lengthAdjust="spacing" textLength="91" x="365" y="1058.1636">reponse : String</text><text fill="#000000" font-family="Verdana" font-size="11" lengthAdjust="spacing" textLength="159" x="365" y="1070.9683">bonnneReponseText: String</text><text fill="#000000" font-family="Verdana" font-size="11" lengthAdjust="spacing" textLength="172" x="365" y="1083.7729">mauvaiseReponseText: String</text><line style="stroke:#A80036;stroke-width:1.5;" x1="360" x2="542" y1="1090.3672" y2="1090.3672"/><!--MD5=[b3ea62ffa1b75f2a143e29b844801a60]
class ReponseChoixMultiple--><rect codeLine="105" fill="#FEFECE" filter="url(#fuo9drnwvcqpf)" height="48" id="ReponseChoixMultiple" rx="10" ry="10" style="stroke:#A80036;stroke-width:1.5;" width="164" x="261" y="1263.9531"/><ellipse cx="276" cy="1279.9531" fill="#FFA500" rx="11" ry="11" style="stroke:#A80036;stroke-width:1.0;"/><path d="M276.1875,1278.9375 C275.6875,1278.9375 275.3125,1279.2969 275.3125,1279.7969 C275.3125,1280.25 275.625,1280.5469 276.1875,1280.5781 C276.9219,1280.6094 277.1406,1280.6406 277.5,1280.7969 C278.2969,1281.125 278.7969,1281.7188 278.7969,1282.3438 C278.7969,1282.7344 278.6094,1283.1563 278.3125,1283.4375 C277.8594,1283.8438 277.2344,1284.0156 276.0625,1284.0156 C274.9688,1284.0156 274.4531,1283.9063 274.0156,1283.6094 C273.75,1283.4531 273.6719,1283.4063 273.4688,1283.4063 C273,1283.4063 272.625,1283.7813 272.625,1284.2656 C272.625,1285.125 274.0156,1285.7031 276.1094,1285.7031 C277.5938,1285.7031 278.4844,1285.4688 279.2344,1284.9063 C280.0156,1284.2969 280.5,1283.3438 280.5,1282.3594 C280.5,1281.2656 279.8594,1280.4219 278.5781,1279.7969 C279.6719,1279.125 280.125,1278.5 280.125,1277.5625 C280.125,1276.875 279.8125,1276.125 279.2656,1275.5938 C278.625,1274.9375 277.7344,1274.6094 276.6094,1274.6094 C274.7969,1274.6094 273.1094,1275.5156 273.1094,1276.5 C273.1094,1276.9531 273.4844,1277.3438 273.9531,1277.3438 C274.1875,1277.3438 274.4063,1277.2344 274.5625,1277.0938 C275.1094,1276.5 275.5781,1276.3125 276.5156,1276.3125 C277.6875,1276.3125 278.4219,1276.7969 278.4219,1277.5938 C278.4219,1278.3125 277.7031,1278.9375 276.875,1278.9375 L276.1875,1278.9375 Z " fill="#000000"/><text fill="#000000" font-family="Verdana" font-size="12" lengthAdjust="spacing" textLength="132" x="290" y="1284.1074">ReponseChoixMultiple</text><line style="stroke:#A80036;stroke-width:1.5;" x1="262" x2="424" y1="1295.9531" y2="1295.9531"/><line style="stroke:#A80036;stroke-width:1.5;" x1="262" x2="424" y1="1303.9531" y2="1303.9531"/><!--MD5=[88bd4f97fe63daa679b3a6b061418170]
class ReponseNumerique--><rect codeLine="108" fill="#FEFECE" filter="url(#fuo9drnwvcqpf)" height="60.8047" id="ReponseNumerique" rx="10" ry="10" style="stroke:#A80036;stroke-width:1.5;" width="150" x="79" y="1257.4531"/><ellipse cx="94" cy="1273.4531" fill="#FFA500" rx="11" ry="11" style="stroke:#A80036;stroke-width:1.0;"/><path d="M94.1875,1272.4375 C93.6875,1272.4375 93.3125,1272.7969 93.3125,1273.2969 C93.3125,1273.75 93.625,1274.0469 94.1875,1274.0781 C94.9219,1274.1094 95.1406,1274.1406 95.5,1274.2969 C96.2969,1274.625 96.7969,1275.2188 96.7969,1275.8438 C96.7969,1276.2344 96.6094,1276.6563 96.3125,1276.9375 C95.8594,1277.3438 95.2344,1277.5156 94.0625,1277.5156 C92.9688,1277.5156 92.4531,1277.4063 92.0156,1277.1094 C91.75,1276.9531 91.6719,1276.9063 91.4688,1276.9063 C91,1276.9063 90.625,1277.2813 90.625,1277.7656 C90.625,1278.625 92.0156,1279.2031 94.1094,1279.2031 C95.5938,1279.2031 96.4844,1278.9688 97.2344,1278.4063 C98.0156,1277.7969 98.5,1276.8438 98.5,1275.8594 C98.5,1274.7656 97.8594,1273.9219 96.5781,1273.2969 C97.6719,1272.625 98.125,1272 98.125,1271.0625 C98.125,1270.375 97.8125,1269.625 97.2656,1269.0938 C96.625,1268.4375 95.7344,1268.1094 94.6094,1268.1094 C92.7969,1268.1094 91.1094,1269.0156 91.1094,1270 C91.1094,1270.4531 91.4844,1270.8438 91.9531,1270.8438 C92.1875,1270.8438 92.4063,1270.7344 92.5625,1270.5938 C93.1094,1270 93.5781,1269.8125 94.5156,1269.8125 C95.6875,1269.8125 96.4219,1270.2969 96.4219,1271.0938 C96.4219,1271.8125 95.7031,1272.4375 94.875,1272.4375 L94.1875,1272.4375 Z " fill="#000000"/><text fill="#000000" font-family="Verdana" font-size="12" lengthAdjust="spacing" textLength="118" x="108" y="1277.6074">ReponseNumerique</text><line style="stroke:#A80036;stroke-width:1.5;" x1="80" x2="228" y1="1289.4531" y2="1289.4531"/><text fill="#000000" font-family="Verdana" font-size="11" lengthAdjust="spacing" textLength="119" x="85" y="1303.6636">ponderation: number</text><line style="stroke:#A80036;stroke-width:1.5;" x1="80" x2="228" y1="1310.2578" y2="1310.2578"/><!--MD5=[04aba922b4f3912479ad85b95eac4a8d]
class ReponseVraiFaux--><rect codeLine="111" fill="#FEFECE" filter="url(#fuo9drnwvcqpf)" height="48" id="ReponseVraiFaux" rx="10" ry="10" style="stroke:#A80036;stroke-width:1.5;" width="136" x="869" y="1263.9531"/><ellipse cx="884" cy="1279.9531" fill="#FFA500" rx="11" ry="11" style="stroke:#A80036;stroke-width:1.0;"/><path d="M884.1875,1278.9375 C883.6875,1278.9375 883.3125,1279.2969 883.3125,1279.7969 C883.3125,1280.25 883.625,1280.5469 884.1875,1280.5781 C884.9219,1280.6094 885.1406,1280.6406 885.5,1280.7969 C886.2969,1281.125 886.7969,1281.7188 886.7969,1282.3438 C886.7969,1282.7344 886.6094,1283.1563 886.3125,1283.4375 C885.8594,1283.8438 885.2344,1284.0156 884.0625,1284.0156 C882.9688,1284.0156 882.4531,1283.9063 882.0156,1283.6094 C881.75,1283.4531 881.6719,1283.4063 881.4688,1283.4063 C881,1283.4063 880.625,1283.7813 880.625,1284.2656 C880.625,1285.125 882.0156,1285.7031 884.1094,1285.7031 C885.5938,1285.7031 886.4844,1285.4688 887.2344,1284.9063 C888.0156,1284.2969 888.5,1283.3438 888.5,1282.3594 C888.5,1281.2656 887.8594,1280.4219 886.5781,1279.7969 C887.6719,1279.125 888.125,1278.5 888.125,1277.5625 C888.125,1276.875 887.8125,1276.125 887.2656,1275.5938 C886.625,1274.9375 885.7344,1274.6094 884.6094,1274.6094 C882.7969,1274.6094 881.1094,1275.5156 881.1094,1276.5 C881.1094,1276.9531 881.4844,1277.3438 881.9531,1277.3438 C882.1875,1277.3438 882.4063,1277.2344 882.5625,1277.0938 C883.1094,1276.5 883.5781,1276.3125 884.5156,1276.3125 C885.6875,1276.3125 886.4219,1276.7969 886.4219,1277.5938 C886.4219,1278.3125 885.7031,1278.9375 884.875,1278.9375 L884.1875,1278.9375 Z " fill="#000000"/><text fill="#000000" font-family="Verdana" font-size="12" lengthAdjust="spacing" textLength="104" x="898" y="1284.1074">ReponseVraiFaux</text><line style="stroke:#A80036;stroke-width:1.5;" x1="870" x2="1004" y1="1295.9531" y2="1295.9531"/><line style="stroke:#A80036;stroke-width:1.5;" x1="870" x2="1004" y1="1303.9531" y2="1303.9531"/><!--MD5=[014dccdca2b0e00f6e2651c3cd82fcf5]
class ReponseMiseEnCorrespondance--><rect codeLine="114" fill="#FEFECE" filter="url(#fuo9drnwvcqpf)" height="48" id="ReponseMiseEnCorrespondance" rx="10" ry="10" style="stroke:#A80036;stroke-width:1.5;" width="228" x="633" y="1263.9531"/><ellipse cx="648" cy="1279.9531" fill="#FFA500" rx="11" ry="11" style="stroke:#A80036;stroke-width:1.0;"/><path d="M648.1875,1278.9375 C647.6875,1278.9375 647.3125,1279.2969 647.3125,1279.7969 C647.3125,1280.25 647.625,1280.5469 648.1875,1280.5781 C648.9219,1280.6094 649.1406,1280.6406 649.5,1280.7969 C650.2969,1281.125 650.7969,1281.7188 650.7969,1282.3438 C650.7969,1282.7344 650.6094,1283.1563 650.3125,1283.4375 C649.8594,1283.8438 649.2344,1284.0156 648.0625,1284.0156 C646.9688,1284.0156 646.4531,1283.9063 646.0156,1283.6094 C645.75,1283.4531 645.6719,1283.4063 645.4688,1283.4063 C645,1283.4063 644.625,1283.7813 644.625,1284.2656 C644.625,1285.125 646.0156,1285.7031 648.1094,1285.7031 C649.5938,1285.7031 650.4844,1285.4688 651.2344,1284.9063 C652.0156,1284.2969 652.5,1283.3438 652.5,1282.3594 C652.5,1281.2656 651.8594,1280.4219 650.5781,1279.7969 C651.6719,1279.125 652.125,1278.5 652.125,1277.5625 C652.125,1276.875 651.8125,1276.125 651.2656,1275.5938 C650.625,1274.9375 649.7344,1274.6094 648.6094,1274.6094 C646.7969,1274.6094 645.1094,1275.5156 645.1094,1276.5 C645.1094,1276.9531 645.4844,1277.3438 645.9531,1277.3438 C646.1875,1277.3438 646.4063,1277.2344 646.5625,1277.0938 C647.1094,1276.5 647.5781,1276.3125 648.5156,1276.3125 C649.6875,1276.3125 650.4219,1276.7969 650.4219,1277.5938 C650.4219,1278.3125 649.7031,1278.9375 648.875,1278.9375 L648.1875,1278.9375 Z " fill="#000000"/><text fill="#000000" font-family="Verdana" font-size="12" lengthAdjust="spacing" textLength="196" x="662" y="1284.1074">ReponseMiseEnCorrespondance</text><line style="stroke:#A80036;stroke-width:1.5;" x1="634" x2="860" y1="1295.9531" y2="1295.9531"/><line style="stroke:#A80036;stroke-width:1.5;" x1="634" x2="860" y1="1303.9531" y2="1303.9531"/><!--MD5=[3d69c865e746d5af36c80145dee00a3e]
class ReponseReponseCourte--><rect codeLine="117" fill="#FEFECE" filter="url(#fuo9drnwvcqpf)" height="48" id="ReponseReponseCourte" rx="10" ry="10" style="stroke:#A80036;stroke-width:1.5;" width="178" x="443" y="1263.9531"/><ellipse cx="458" cy="1279.9531" fill="#FFA500" rx="11" ry="11" style="stroke:#A80036;stroke-width:1.0;"/><path d="M458.1875,1278.9375 C457.6875,1278.9375 457.3125,1279.2969 457.3125,1279.7969 C457.3125,1280.25 457.625,1280.5469 458.1875,1280.5781 C458.9219,1280.6094 459.1406,1280.6406 459.5,1280.7969 C460.2969,1281.125 460.7969,1281.7188 460.7969,1282.3438 C460.7969,1282.7344 460.6094,1283.1563 460.3125,1283.4375 C459.8594,1283.8438 459.2344,1284.0156 458.0625,1284.0156 C456.9688,1284.0156 456.4531,1283.9063 456.0156,1283.6094 C455.75,1283.4531 455.6719,1283.4063 455.4688,1283.4063 C455,1283.4063 454.625,1283.7813 454.625,1284.2656 C454.625,1285.125 456.0156,1285.7031 458.1094,1285.7031 C459.5938,1285.7031 460.4844,1285.4688 461.2344,1284.9063 C462.0156,1284.2969 462.5,1283.3438 462.5,1282.3594 C462.5,1281.2656 461.8594,1280.4219 460.5781,1279.7969 C461.6719,1279.125 462.125,1278.5 462.125,1277.5625 C462.125,1276.875 461.8125,1276.125 461.2656,1275.5938 C460.625,1274.9375 459.7344,1274.6094 458.6094,1274.6094 C456.7969,1274.6094 455.1094,1275.5156 455.1094,1276.5 C455.1094,1276.9531 455.4844,1277.3438 455.9531,1277.3438 C456.1875,1277.3438 456.4063,1277.2344 456.5625,1277.0938 C457.1094,1276.5 457.5781,1276.3125 458.5156,1276.3125 C459.6875,1276.3125 460.4219,1276.7969 460.4219,1277.5938 C460.4219,1278.3125 459.7031,1278.9375 458.875,1278.9375 L458.1875,1278.9375 Z " fill="#000000"/><text fill="#000000" font-family="Verdana" font-size="12" lengthAdjust="spacing" textLength="146" x="472" y="1284.1074">ReponseReponseCourte</text><line style="stroke:#A80036;stroke-width:1.5;" x1="444" x2="620" y1="1295.9531" y2="1295.9531"/><line style="stroke:#A80036;stroke-width:1.5;" x1="444" x2="620" y1="1303.9531" y2="1303.9531"/><!--MD5=[28171b3b1b7d9308f9ccc121ee214a29]
reverse link Question to QuestionChoixMultiple--><path d="M815.403,881.6761 C811.7,886.3511 808.202,891.1211 805,895.9531 C782.384,930.0791 804.879,957.5601 772,981.9531 C697.741,1037.0441 446.278,987.8941 357,1011.9531 C345.769,1014.9791 334.251,1019.4911 323.441,1024.4491 " fill="none" id="Question-backto-QuestionChoixMultiple" style="stroke:#A80036;stroke-width:1.0;"/><polygon fill="none" points="810.33,876.8391,828.657,866.2041,820.962,885.9471,810.33,876.8391" style="stroke:#A80036;stroke-width:1.0;"/><!--MD5=[39e1b470d490cb232e6764910af5df78]
reverse link Question to QuestionVraiFaux--><path d="M915.367,885.7931 C922.532,916.5661 932.325,951.4961 945,981.9531 C950.974,996.3091 958.849,996.9681 963,1011.9531 C973.203,1048.7881 970.009,1060.3791 963,1097.9531 C961.132,1107.9691 957.636,1118.4701 953.923,1127.8151 " fill="none" id="Question-backto-QuestionVraiFaux" style="stroke:#A80036;stroke-width:1.0;"/><polygon fill="none" points="908.531,887.3011,911.034,866.2601,922.199,884.2691,908.531,887.3011" style="stroke:#A80036;stroke-width:1.0;"/><!--MD5=[5ed60b9accfe0031a43a048e74585de9]
reverse link Question to QuestionMiseEnCorrespondance--><path d="M882.722,885.7901 C872.638,933.2621 860.518,990.3161 853.304,1024.2771 " fill="none" id="Question-backto-QuestionMiseEnCorrespondance" style="stroke:#A80036;stroke-width:1.0;"/><polygon fill="none" points="875.896,884.2361,886.899,866.1271,889.59,887.1451,875.896,884.2361" style="stroke:#A80036;stroke-width:1.0;"/><!--MD5=[3926187fd92bf53ae5c32c3c76f22fce]
reverse link Question to QuestionReponseCourte--><path d="M860.581,884.4371 C838.004,929.7041 813.311,978.0791 809,981.9531 C781.375,1006.7811 765.272,997.6371 731,1011.9531 C721.6,1015.8791 711.731,1020.1611 702.078,1024.4401 " fill="none" id="Question-backto-QuestionReponseCourte" style="stroke:#A80036;stroke-width:1.0;"/><polygon fill="none" points="854.398,881.1491,869.57,866.3571,866.934,887.3821,854.398,881.1491" style="stroke:#A80036;stroke-width:1.0;"/><!--MD5=[ac269cb4f82ce33ddd978edd6c1fad8a]
reverse link Question to QuestionNumerique--><path d="M788.219,876.4261 C779.132,883.7001 771.931,890.4281 768,895.9531 C744.995,928.2871 774.95,957.1171 744,981.9531 C695.661,1020.7431 246.713,995.3481 187,1011.9531 C176.524,1014.8661 165.871,1019.3261 155.92,1024.2701 " fill="none" id="Question-backto-QuestionNumerique" style="stroke:#A80036;stroke-width:1.0;"/><polygon fill="none" points="784.252,870.6511,804.442,864.2171,792.671,881.8371,784.252,870.6511" style="stroke:#A80036;stroke-width:1.0;"/><!--MD5=[03feef78d76696c3cda020ae2d0ce31d]
reverse link Reponse to ReponseChoixMultiple--><path d="M422.797,1116.2751 C400.23,1164.5441 369.805,1229.6191 353.83,1263.7891 " fill="none" id="Reponse-backto-ReponseChoixMultiple" style="stroke:#A80036;stroke-width:1.0;"/><polygon fill="none" points="416.505,1113.2061,431.317,1098.0531,429.187,1119.1361,416.505,1113.2061" style="stroke:#A80036;stroke-width:1.0;"/><!--MD5=[eed205ae4eaf819a3d542ccf7d2f9ba3]
reverse link Reponse to ReponseNumerique--><path d="M395.102,1113.3841 C390.904,1118.2241 386.82,1123.1171 383,1127.9531 C362.903,1153.3921 368.986,1169.5681 343,1188.9531 C305.807,1216.6981 284.329,1197.8581 243,1218.9531 C222.909,1229.2081 202.752,1244.1311 186.714,1257.3861 " fill="none" id="Reponse-backto-ReponseNumerique" style="stroke:#A80036;stroke-width:1.0;"/><polygon fill="none" points="390.141,1108.4331,408.72,1098.2441,400.55,1117.7961,390.141,1108.4331" style="stroke:#A80036;stroke-width:1.0;"/><!--MD5=[c608d8fbd609839e60fa9c71693cf227]
reverse link Reponse to ReponseVraiFaux--><path d="M563.125,1100.7051 C635.216,1110.5471 772.899,1097.7571 819,1127.9531 C845.147,1145.0791 836.048,1163.3661 854,1188.9531 C872.953,1215.9661 897.732,1244.4991 915.267,1263.7671 " fill="none" id="Reponse-backto-ReponseVraiFaux" style="stroke:#A80036;stroke-width:1.0;"/><polygon fill="none" points="561.355,1107.4931,543.032,1096.8511,563.992,1093.7441,561.355,1107.4931" style="stroke:#A80036;stroke-width:1.0;"/><!--MD5=[c854924dfc8f296bf6acd8f613933c6c]
reverse link Reponse to ReponseMiseEnCorrespondance--><path d="M562.511,1102.8171 C591.5,1110.6181 607.482,1107.3431 635,1127.9531 C684.051,1164.6911 719.847,1229.2581 736.527,1263.7271 " fill="none" id="Reponse-backto-ReponseMiseEnCorrespondance" style="stroke:#A80036;stroke-width:1.0;"/><polygon fill="none" points="559.973,1109.3511,543.162,1096.4511,564.348,1096.0521,559.973,1109.3511" style="stroke:#A80036;stroke-width:1.0;"/><!--MD5=[8e7dbe2dbee4a2ff85b5aa8ebba7a0b4]
reverse link Reponse to ReponseReponseCourte--><path d="M472.49,1117.2391 C489.38,1165.4071 511.975,1229.8461 523.877,1263.7891 " fill="none" id="Reponse-backto-ReponseReponseCourte" style="stroke:#A80036;stroke-width:1.0;"/><polygon fill="none" points="465.775,1119.2431,465.762,1098.0531,478.986,1114.6101,465.775,1119.2431" style="stroke:#A80036;stroke-width:1.0;"/><!--MD5=[843a46382d283828a7d1783d3460c7c7]
link Université to CatalogueCours--><path codeLine="122" d="M1377.44,110.0931 C1376.9,132.0831 1376.1,164.9631 1375.56,186.9231 " fill="none" id="Université-CatalogueCours" style="stroke:#A80036;stroke-width:1.0;"/><polygon fill="#000000" points="1381.8777,153.518,1385.037,144.5475,1379.1609,144.4038,1381.8777,153.518" style="stroke:#000000;stroke-width:1.0;"/><text fill="#000000" font-family="Verdana" font-size="13" lengthAdjust="spacing" textLength="31" x="1391" y="153.02">offre</text><text fill="#000000" font-family="Verdana" font-size="13" lengthAdjust="spacing" textLength="8" x="1368.3285" y="129.8885">1</text><text fill="#000000" font-family="Verdana" font-size="13" lengthAdjust="spacing" textLength="8" x="1366.6785" y="175.9275">1</text><!--MD5=[caa7d714cd4e4959b4291618de060d69]
link CatalogueCours to Cours--><path codeLine="123" d="M1364.8,234.9631 C1361.27,244.1131 1357.76,254.8431 1356,264.9531 C1348.46,308.3031 1341.79,322.3131 1356,363.9531 C1359.6,374.5031 1365.65,384.6831 1372.35,393.7531 " fill="none" id="CatalogueCours-Cours" style="stroke:#A80036;stroke-width:1.0;"/><polygon fill="#000000" points="1361.2375,319.5139,1363.7435,310.3394,1357.8723,310.6186,1361.2375,319.5139" style="stroke:#000000;stroke-width:1.0;"/><text fill="#000000" font-family="Verdana" font-size="13" lengthAdjust="spacing" textLength="63" x="1370" y="319.02">repertorie</text><text fill="#000000" font-family="Verdana" font-size="13" lengthAdjust="spacing" textLength="8" x="1353.1612" y="255.1215">1</text><text fill="#000000" font-family="Verdana" font-size="13" lengthAdjust="spacing" textLength="7" x="1358.5545" y="382.9045">*</text><!--MD5=[359da426c3c95d8048c951014945ceb0]
link Devoir to Remise--><path codeLine="124" d="M1092.64,1356.9931 C1094.01,1382.6831 1095.53,1411.1481 1096.75,1433.7921 " fill="none" id="Devoir-Remise" style="stroke:#A80036;stroke-width:1.0;"/><polygon fill="#000000" points="1100.2672,1400.5124,1102.7186,1391.3232,1096.8491,1391.6373,1100.2672,1400.5124" style="stroke:#000000;stroke-width:1.0;"/><text fill="#000000" font-family="Verdana" font-size="13" lengthAdjust="spacing" textLength="52" x="1109" y="1400.02">contient</text><text fill="#000000" font-family="Verdana" font-size="13" lengthAdjust="spacing" textLength="8" x="1084.6046" y="1376.619">1</text><text fill="#000000" font-family="Verdana" font-size="13" lengthAdjust="spacing" textLength="7" x="1088.8336" y="1422.7625">*</text><!--MD5=[b8f15a7fbf1e0ac66b43fe2a255415c0]
link EspaceCours to Devoir--><path codeLine="125" d="M1072.45,1085.6791 C1075.19,1119.0671 1079.74,1174.3631 1083.37,1218.5561 " fill="none" id="EspaceCours-Devoir" style="stroke:#A80036;stroke-width:1.0;"/><polygon fill="#000000" points="1086.4095,1163.5027,1088.5977,1154.2473,1082.7396,1154.7288,1086.4095,1163.5027" style="stroke:#000000;stroke-width:1.0;"/><text fill="#000000" font-family="Verdana" font-size="13" lengthAdjust="spacing" textLength="52" x="1095" y="1163.02">contient</text><text fill="#000000" font-family="Verdana" font-size="13" lengthAdjust="spacing" textLength="8" x="1064.1448" y="1105.3041">1</text><text fill="#000000" font-family="Verdana" font-size="13" lengthAdjust="spacing" textLength="7" x="1075.4285" y="1207.7188">*</text><!--MD5=[e696a511ab66ff85cf29965a3cb732fe]
link Université to Enseignant--><path codeLine="126" d="M1333.7,109.9631 C1322.09,117.9831 1310.69,128.0231 1303,139.9531 C1277.56,179.4331 1271.48,233.9531 1270.69,271.2731 " fill="none" id="Université-Enseignant" style="stroke:#A80036;stroke-width:1.0;"/><polygon fill="#000000" points="1306.1808,153.1768,1312.2093,145.821,1306.7343,143.6824,1306.1808,153.1768" style="stroke:#000000;stroke-width:1.0;"/><text fill="#000000" font-family="Verdana" font-size="13" lengthAdjust="spacing" textLength="51" x="1317" y="153.02">emploie</text><text fill="#000000" font-family="Verdana" font-size="13" lengthAdjust="spacing" textLength="8" x="1315.7381" y="128.5427">1</text><text fill="#000000" font-family="Verdana" font-size="13" lengthAdjust="spacing" textLength="7" x="1262.9234" y="260.2405">*</text><!--MD5=[d99a8c8e2f040432a664dac4ac75f7f7]
link Questionnaire to Question--><path codeLine="127" d="M968.352,605.2191 C955.322,642.8201 936.101,698.2821 921.358,740.8241 " fill="none" id="Questionnaire-Question" style="stroke:#A80036;stroke-width:1.0;"/><polygon fill="#000000" points="960.3628,676.7439,966.1014,669.1598,960.5476,667.2351,960.3628,676.7439" style="stroke:#000000;stroke-width:1.0;"/><text fill="#000000" font-family="Verdana" font-size="13" lengthAdjust="spacing" textLength="52" x="971" y="676.52">contient</text><text fill="#000000" font-family="Verdana" font-size="13" lengthAdjust="spacing" textLength="8" x="957.38" y="625.3544">1</text><text fill="#000000" font-family="Verdana" font-size="13" lengthAdjust="spacing" textLength="23" x="899.4978" y="729.8">1..*</text><!--MD5=[5217f6319e60196188b9b46941152dbc]
link Université to Etudiant--><path codeLine="128" d="M1404.12,110.1331 C1413.23,118.9431 1423.14,129.4231 1431,139.9531 C1460.29,179.2231 1486.19,228.7531 1503.35,264.8331 " fill="none" id="Université-Etudiant" style="stroke:#A80036;stroke-width:1.0;"/><polygon fill="#000000" points="1445.3004,144.3109,1447.7102,153.5111,1452.6577,150.3376,1445.3004,144.3109" style="stroke:#000000;stroke-width:1.0;"/><text fill="#000000" font-family="Verdana" font-size="13" lengthAdjust="spacing" textLength="76" x="1457" y="153.02">est-inscrit-à</text><text fill="#000000" font-family="Verdana" font-size="13" lengthAdjust="spacing" textLength="8" x="1401.5118" y="129.9382">1</text><text fill="#000000" font-family="Verdana" font-size="13" lengthAdjust="spacing" textLength="7" x="1492.8133" y="253.8615">*</text><!--MD5=[31ca12531000ae5fbc8b65f0576c1ae5]
link Question to EspaceCours--><path codeLine="129" d="M934.859,866.3211 C955.238,901.1281 982.168,944.9031 1009,981.9531 C1019.47,996.4161 1032.09,1011.6161 1043.12,1024.3031 " fill="none" id="Question-EspaceCours" style="stroke:#A80036;stroke-width:1.0;"/><polygon fill="#000000" points="1011.1736,934.895,1013.8623,944.0176,1018.7109,940.695,1011.1736,934.895" style="stroke:#000000;stroke-width:1.0;"/><text fill="#000000" font-family="Verdana" font-size="13" lengthAdjust="spacing" textLength="52" x="1023" y="943.52">contient</text><text fill="#000000" font-family="Verdana" font-size="13" lengthAdjust="spacing" textLength="7" x="931.0929" y="885.6604">*</text><text fill="#000000" font-family="Verdana" font-size="13" lengthAdjust="spacing" textLength="8" x="1028.751" y="1013.5354">1</text><!--MD5=[9658aa9b13a75953075a809ba662f093]
link Questionnaire to EspaceCours--><path codeLine="130" d="M1015.89,605.0761 C1022.02,614.5011 1027.81,624.7431 1032,634.9531 C1076.81,744.0541 1069.29,778.4951 1080,895.9531 C1083.47,934.0171 1082.64,943.8221 1080,981.9531 C1079.03,995.9281 1077.03,1011.3201 1075.06,1024.2731 " fill="none" id="Questionnaire-EspaceCours" style="stroke:#A80036;stroke-width:1.0;"/><polygon fill="#000000" points="1082.3012,798.5686,1080.6553,807.9357,1086.4754,807.1142,1082.3012,798.5686" style="stroke:#000000;stroke-width:1.0;"/><text fill="#000000" font-family="Verdana" font-size="13" lengthAdjust="spacing" textLength="52" x="1092" y="808.02">contient</text><text fill="#000000" font-family="Verdana" font-size="13" lengthAdjust="spacing" textLength="7" x="1013.7577" y="625.5042">*</text><text fill="#000000" font-family="Verdana" font-size="13" lengthAdjust="spacing" textLength="8" x="1067.2786" y="1013.4992">1</text><!--MD5=[4a1dec41fc93cd3e03671729410bb2fc]
link Etudiant to GroupeCours--><path codeLine="131" d="M1524.7,364.0731 C1521.98,425.8131 1509.18,532.9431 1456,604.9531 C1447.42,616.5721 1436.13,626.5071 1424.02,634.8731 " fill="none" id="Etudiant-GroupeCours" style="stroke:#A80036;stroke-width:1.0;"/><polygon fill="#000000" points="1525.2576,435.7061,1531.1643,428.2522,1525.6549,426.2038,1525.2576,435.7061" style="stroke:#000000;stroke-width:1.0;"/><text fill="#000000" font-family="Verdana" font-size="13" lengthAdjust="spacing" textLength="85" x="1536" y="435.52">S'inscrit-dans</text><text fill="#000000" font-family="Verdana" font-size="13" lengthAdjust="spacing" textLength="8" x="1516.0953" y="384.1665">1</text><text fill="#000000" font-family="Verdana" font-size="13" lengthAdjust="spacing" textLength="23" x="1413.6534" y="623.7688">1..*</text><!--MD5=[1b4ecfae8f4f6f2eba21162271229cb8]
link Enseignant to GroupeCours--><path codeLine="132" d="M1269.38,357.5331 C1268.29,388.3431 1268.53,431.0431 1275,467.9531 C1285.58,528.2631 1311.05,594.8861 1327.91,634.8061 " fill="none" id="Enseignant-GroupeCours" style="stroke:#A80036;stroke-width:1.0;"/><polygon fill="#000000" points="1281.0327,435.9117,1282.0401,426.4547,1276.289,427.6687,1281.0327,435.9117" style="stroke:#000000;stroke-width:1.0;"/><text fill="#000000" font-family="Verdana" font-size="13" lengthAdjust="spacing" textLength="58" x="1289" y="435.52">Enseigne</text><text fill="#000000" font-family="Verdana" font-size="13" lengthAdjust="spacing" textLength="8" x="1260.2836" y="377.954">1</text><text fill="#000000" font-family="Verdana" font-size="13" lengthAdjust="spacing" textLength="7" x="1317.4205" y="623.9669">*</text><!--MD5=[dd19a10ffb7e2e1829c46178384b5825]
link Cours to GroupeCours--><path codeLine="133" d="M1397.5,467.9931 C1385.64,512.9831 1365.47,589.4941 1353.58,634.6201 " fill="none" id="Cours-GroupeCours" style="stroke:#A80036;stroke-width:1.0;"/><polygon fill="#000000" points="1398.7256,566.8544,1403.8729,558.8571,1398.1891,557.359,1398.7256,566.8544" style="stroke:#000000;stroke-width:1.0;"/><text fill="#000000" font-family="Verdana" font-size="13" lengthAdjust="spacing" textLength="38" x="1409" y="566.52">décris</text><text fill="#000000" font-family="Verdana" font-size="13" lengthAdjust="spacing" textLength="8" x="1387.1797" y="487.7603">1</text><text fill="#000000" font-family="Verdana" font-size="13" lengthAdjust="spacing" textLength="23" x="1330.25" y="624.0263">1..*</text><!--MD5=[a7baa54bc84030c0156c8e0cfba0978d]
link GroupeCours to EspaceCours--><path codeLine="134" d="M1317.98,709.1401 C1264.01,784.1831 1140.81,955.4861 1091.24,1024.4161 " fill="none" id="GroupeCours-EspaceCours" style="stroke:#A80036;stroke-width:1.0;"/><polygon fill="#000000" points="1302.9193,799.4603,1295.2522,805.0876,1300.0242,808.5195,1302.9193,799.4603" style="stroke:#000000;stroke-width:1.0;"/><text fill="#000000" font-family="Verdana" font-size="13" lengthAdjust="spacing" textLength="203" x="1309" y="808.02">Est-un-support-des-activités-du</text><text fill="#000000" font-family="Verdana" font-size="13" lengthAdjust="spacing" textLength="8" x="1305.0079" y="728.6517">1</text><text fill="#000000" font-family="Verdana" font-size="13" lengthAdjust="spacing" textLength="24" x="1098.5113" y="1013.1983">1..0</text><!--MD5=[af2d7541308f58d5363465f4e73c7e54]
link Etudiant to Remise--><path codeLine="135" d="M1598.04,341.7931 C1625.34,354.3731 1655.02,371.6231 1677,393.9531 C1735.15,453.0131 1760,478.0731 1760,560.9531 C1760,560.9531 1760,560.9531 1760,1288.9531 C1760,1412.5371 1326.78,1458.5818 1161.78,1471.6368 " fill="none" id="Etudiant-Remise" style="stroke:#A80036;stroke-width:1.0;"/><polygon fill="#000000" points="1763.199,943.6839,1769.1987,936.3046,1763.7154,934.1874,1763.199,943.6839" style="stroke:#000000;stroke-width:1.0;"/><text fill="#000000" font-family="Verdana" font-size="13" lengthAdjust="spacing" textLength="30" x="1774" y="943.52">Crée</text><text fill="#000000" font-family="Verdana" font-size="13" lengthAdjust="spacing" textLength="8" x="1605.9847" y="340.9016">1</text><text fill="#000000" font-family="Verdana" font-size="13" lengthAdjust="spacing" textLength="7" x="1169.4436" y="1467.2056">*</text><!--MD5=[86d4d92ffa2b487721c11ee456a89a6b]
link Enseignant to Question--><path codeLine="136" d="M1257.02,357.5731 C1226.2,439.1431 1148.65,620.5561 1032,732.9531 C1021.28,743.2861 1008.71,752.4841 995.671,760.5341 " fill="none" id="Enseignant-Question" style="stroke:#A80036;stroke-width:1.0;"/><polygon fill="#000000" points="1207.2793,566.2145,1214.6668,560.2249,1209.7354,557.0265,1207.2793,566.2145" style="stroke:#000000;stroke-width:1.0;"/><text fill="#000000" font-family="Verdana" font-size="13" lengthAdjust="spacing" textLength="30" x="1219" y="566.52">Crée</text><text fill="#000000" font-family="Verdana" font-size="13" lengthAdjust="spacing" textLength="8" x="1245.8764" y="378.0007">1</text><text fill="#000000" font-family="Verdana" font-size="13" lengthAdjust="spacing" textLength="7" x="1003.5737" y="753.5954">*</text><!--MD5=[3537acb344145d0ef730434aa393bdc5]
link Enseignant to Questionnaire--><path codeLine="137" d="M1221.87,317.7431 C1166.43,323.0231 1078.19,340.0031 1027,393.9531 C995.115,427.5531 985.69,481.4231 983.229,518.8631 " fill="none" id="Enseignant-Questionnaire" style="stroke:#A80036;stroke-width:1.0;"/><polygon fill="#000000" points="1028.1767,434.2417,1036.9871,430.66,1033.1992,426.1655,1028.1767,434.2417" style="stroke:#000000;stroke-width:1.0;"/><text fill="#000000" font-family="Verdana" font-size="13" lengthAdjust="spacing" textLength="30" x="1041" y="435.52">Crée</text><text fill="#000000" font-family="Verdana" font-size="13" lengthAdjust="spacing" textLength="8" x="1205.9197" y="314.171">1</text><text fill="#000000" font-family="Verdana" font-size="13" lengthAdjust="spacing" textLength="7" x="975.7077" y="507.8448">*</text><!--MD5=[e48116efd1f0894966f6b68e8e493370]
link Enseignant to Devoir--><path codeLine="138" d="M1322.39,355.5031 C1328.11,358.7831 1334.03,361.6931 1340,363.9531 C1400.61,386.8531 1581.03,351.5431 1630,393.9531 C1687.85,444.0531 1672,484.4231 1672,560.9531 C1672,560.9531 1672,560.9531 1672,1055.9531 C1672,1163.5311 1324.57,1242.6771 1166.12,1273.1781 " fill="none" id="Enseignant-Devoir" style="stroke:#A80036;stroke-width:1.0;"/><polygon fill="#000000" points="1676.1606,808.4486,1680.5763,800.0252,1674.7818,799.0385,1676.1606,808.4486" style="stroke:#000000;stroke-width:1.0;"/><text fill="#000000" font-family="Verdana" font-size="13" lengthAdjust="spacing" textLength="30" x="1686" y="808.02">Crée</text><text fill="#000000" font-family="Verdana" font-size="13" lengthAdjust="spacing" textLength="8" x="1330.0386" y="357.2682">1</text><text fill="#000000" font-family="Verdana" font-size="13" lengthAdjust="spacing" textLength="7" x="1174.056" y="1268.0769">*</text><!--MD5=[7d5893d7306d46fdb942c2da6bc8309b]
link Questionnaire to Tentative--><path codeLine="139" d="M924.638,582.0101 C872.032,599.6581 801.504,624.6761 792,634.9531 C719.424,713.4381 768.632,768.3651 725,865.9531 C720.548,875.9111 714.909,886.1281 709.143,895.6231 " fill="none" id="Questionnaire-Tentative" style="stroke:#A80036;stroke-width:1.0;"/><polygon fill="#000000" points="799.8316,667.8986,792.287,673.689,797.1314,677.0178,799.8316,667.8986" style="stroke:#000000;stroke-width:1.0;"/><text fill="#000000" font-family="Verdana" font-size="13" lengthAdjust="spacing" textLength="110" x="806" y="676.52">est effuctuée sur</text><text fill="#000000" font-family="Verdana" font-size="13" lengthAdjust="spacing" textLength="8" x="909.0376" y="580.5903">1</text><text fill="#000000" font-family="Verdana" font-size="13" lengthAdjust="spacing" textLength="8" x="704.993" y="884.8851">1</text><!--MD5=[b79b9e2666d6d8ca68922909666ec959]
link Etudiant to Tentative--><path codeLine="140" d="M1451.92,360.0231 C1448.61,361.4431 1445.3,362.7631 1442,363.9531 C1365.31,391.6531 1339.45,371.7231 1261,393.9531 C1177.39,417.6531 1164.99,449.7831 1080,467.9531 C1053.69,473.5731 861.239,462.4031 838,475.9531 C690.454,562.0121 677.29,798.8231 678.372,895.7531 " fill="none" id="Etudiant-Tentative" style="stroke:#A80036;stroke-width:1.0;"/><polygon fill="#000000" points="838.8895,564.8663,847.9987,562.1325,844.6522,557.3004,838.8895,564.8663" style="stroke:#000000;stroke-width:1.0;"/><text fill="#000000" font-family="Verdana" font-size="13" lengthAdjust="spacing" textLength="54" x="852" y="566.52">effectue</text><text fill="#000000" font-family="Verdana" font-size="13" lengthAdjust="spacing" textLength="8" x="1435.9711" y="361.0116">1</text><text fill="#000000" font-family="Verdana" font-size="13" lengthAdjust="spacing" textLength="8" x="669.5102" y="885.035">1</text><!--MD5=[60fe4a3b19ee02c5edf733fa5e60211a]
link Tentative to Reponse--><path codeLine="141" d="M633.382,963.1601 C605.266,977.1571 568.603,995.4081 535.528,1011.8731 " fill="none" id="Tentative-Reponse" style="stroke:#A80036;stroke-width:1.0;"/><polygon fill="#000000" points="519.839,980.3858,529.2459,978.9858,526.6265,973.7239,519.839,980.3858" style="stroke:#000000;stroke-width:1.0;"/><text fill="#000000" font-family="Verdana" font-size="13" lengthAdjust="spacing" textLength="52" x="533.315" y="982.658">contient</text><text fill="#000000" font-family="Verdana" font-size="13" lengthAdjust="spacing" textLength="8" x="617.6311" y="962.7637">1</text><text fill="#000000" font-family="Verdana" font-size="13" lengthAdjust="spacing" textLength="7" x="541.4418" y="1000.8564">*</text><!--MD5=[178b5d66bf7b357f75b53861e6100dae]
link QuestionVraiFaux to ReponseVraiFaux--><path codeLine="142" d="M939.304,1189.0251 C938.768,1211.8291 938.036,1242.9191 937.542,1263.9011 " fill="none" id="QuestionVraiFaux-ReponseVraiFaux" style="stroke:#A80036;stroke-width:1.0;"/><polygon fill="#000000" points="920.2894,1223.7111,923.4403,1214.7377,917.5641,1214.5994,920.2894,1223.7111" style="stroke:#000000;stroke-width:1.0;"/><text fill="#000000" font-family="Verdana" font-size="13" lengthAdjust="spacing" textLength="8" x="929.407" y="1223.213">a</text><text fill="#000000" font-family="Verdana" font-size="13" lengthAdjust="spacing" textLength="8" x="930.3354" y="1208.9782">1</text><text fill="#000000" font-family="Verdana" font-size="13" lengthAdjust="spacing" textLength="7" x="929.784" y="1252.8998">*</text><!--MD5=[e992c135f19bf6a68bf3ca57d565824f]
link QuestionReponseCourte to ReponseReponseCourte--><path codeLine="143" d="M624.359,1085.6791 C602.944,1132.3501 561.886,1221.8241 542.556,1263.9491 " fill="none" id="QuestionReponseCourte-ReponseReponseCourte" style="stroke:#A80036;stroke-width:1.0;"/><polygon fill="#000000" points="606.9147,1163.0639,613.3582,1156.0687,608.0159,1153.6173,606.9147,1163.0639" style="stroke:#000000;stroke-width:1.0;"/><text fill="#000000" font-family="Verdana" font-size="13" lengthAdjust="spacing" textLength="8" x="618" y="1163.02">a</text><text fill="#000000" font-family="Verdana" font-size="13" lengthAdjust="spacing" textLength="8" x="612.8859" y="1105.3041">1</text><text fill="#000000" font-family="Verdana" font-size="13" lengthAdjust="spacing" textLength="7" x="537.3641" y="1252.9601">*</text><!--MD5=[deb9aa80afdc6d5a6172db5920c4b0e1]
link QuestionNumerique to ReponseNumerique--><path codeLine="144" d="M113.92,1085.6791 C122.752,1130.0341 139.284,1213.0521 148.103,1257.3411 " fill="none" id="QuestionNumerique-ReponseNumerique" style="stroke:#A80036;stroke-width:1.0;"/><polygon fill="#000000" points="139.9765,1163.4233,141.0923,1153.9784,135.3277,1155.1263,139.9765,1163.4233" style="stroke:#000000;stroke-width:1.0;"/><text fill="#000000" font-family="Verdana" font-size="13" lengthAdjust="spacing" textLength="8" x="148" y="1163.02">a</text><text fill="#000000" font-family="Verdana" font-size="13" lengthAdjust="spacing" textLength="8" x="106.298" y="1105.3041">1</text><text fill="#000000" font-family="Verdana" font-size="13" lengthAdjust="spacing" textLength="7" x="139.1649" y="1246.5813">*</text><!--MD5=[94a97ef70619898f73ede40b65d3e392]
link QuestionChoixMultiple to ReponseChoixMultiple--><path codeLine="145" d="M280.265,1085.6791 C294.812,1132.3501 322.7,1221.8241 335.83,1263.9491 " fill="none" id="QuestionChoixMultiple-ReponseChoixMultiple" style="stroke:#A80036;stroke-width:1.0;"/><polygon fill="#000000" points="318.4879,1163.293,318.6021,1153.7832,312.9905,1155.5322,318.4879,1163.293" style="stroke:#000000;stroke-width:1.0;"/><text fill="#000000" font-family="Verdana" font-size="13" lengthAdjust="spacing" textLength="8" x="326" y="1163.02">a</text><text fill="#000000" font-family="Verdana" font-size="13" lengthAdjust="spacing" textLength="8" x="273.3015" y="1105.3041">1</text><text fill="#000000" font-family="Verdana" font-size="13" lengthAdjust="spacing" textLength="7" x="326.0958" y="1252.9601">*</text><!--MD5=[aa46149d1ad8527a12f0000e36d39fc3]
link QuestionMiseEnCorrespondance to ReponseMiseEnCorrespondance--><path codeLine="146" d="M834.131,1085.6791 C813.928,1132.3501 775.194,1221.8241 756.959,1263.9491 " fill="none" id="QuestionMiseEnCorrespondance-ReponseMiseEnCorrespondance" style="stroke:#A80036;stroke-width:1.0;"/><polygon fill="#000000" points="818.0137,1163.108,824.304,1155.9749,818.9099,1153.6398,818.0137,1163.108" style="stroke:#000000;stroke-width:1.0;"/><text fill="#000000" font-family="Verdana" font-size="13" lengthAdjust="spacing" textLength="8" x="829" y="1163.02">a</text><text fill="#000000" font-family="Verdana" font-size="13" lengthAdjust="spacing" textLength="8" x="822.8099" y="1105.3041">1</text><text fill="#000000" font-family="Verdana" font-size="13" lengthAdjust="spacing" textLength="7" x="751.6141" y="1252.9601">*</text><rect fill="#DDDDDD" height="95.4844" rx="5" ry="5" style="stroke:#000000;stroke-width:1.0;" width="329" x="734.5" y="1549.9531"/><text fill="#000000" font-family="Verdana" font-size="14" font-weight="bold" lengthAdjust="spacing" textLength="0" x="745.5" y="1569.9482"/><text fill="#000000" font-family="Verdana" font-size="14" font-weight="bold" lengthAdjust="spacing" textLength="39" x="772.5" y="1569.9482">Type</text><text fill="#000000" filter="url(#buo9drnwvcqpf0)" font-family="Verdana" font-size="14" lengthAdjust="spacing" textLength="23" x="740.5" y="1586.2451">_1_</text><text fill="#000000" font-family="Verdana" font-size="14" lengthAdjust="spacing" textLength="282" x="771.5" y="1586.2451">Classe non modifiée première itération</text><text fill="#000000" filter="url(#buo9drnwvcqpf1)" font-family="Verdana" font-size="14" lengthAdjust="spacing" textLength="23" x="740.5" y="1602.542">_1_</text><text fill="#000000" font-family="Verdana" font-size="14" lengthAdjust="spacing" textLength="251" x="771.5" y="1602.542">Classe modifiée première itération</text><text fill="#000000" filter="url(#buo9drnwvcqpf2)" font-family="Verdana" font-size="14" lengthAdjust="spacing" textLength="22" x="740.5" y="1618.8389">_2_</text><text fill="#000000" font-family="Verdana" font-size="14" lengthAdjust="spacing" textLength="249" x="771.5" y="1618.8389">Nouvelle classe deuxième itération</text><text fill="#000000" filter="url(#buo9drnwvcqpf3)" font-family="Verdana" font-size="14" lengthAdjust="spacing" textLength="23" x="740.5" y="1635.1357">_3_</text><text fill="#000000" font-family="Verdana" font-size="14" lengthAdjust="spacing" textLength="0" x="767.5" y="1635.1357"/><text fill="#000000" font-family="Verdana" font-size="14" lengthAdjust="spacing" textLength="248" x="771.5" y="1635.1357">Nouvelle classe troisième itération</text><line style="stroke:#000000;stroke-width:1.0;" x1="740.5" x2="1057.5" y1="1556.9531" y2="1556.9531"/><line style="stroke:#000000;stroke-width:1.0;" x1="740.5" x2="1057.5" y1="1573.25" y2="1573.25"/><line style="stroke:#000000;stroke-width:1.0;" x1="740.5" x2="1057.5" y1="1589.5469" y2="1589.5469"/><line style="stroke:#000000;stroke-width:1.0;" x1="740.5" x2="1057.5" y1="1605.8438" y2="1605.8438"/><line style="stroke:#000000;stroke-width:1.0;" x1="740.5" x2="1057.5" y1="1622.1406" y2="1622.1406"/><line style="stroke:#000000;stroke-width:1.0;" x1="740.5" x2="1057.5" y1="1638.4375" y2="1638.4375"/><line style="stroke:#000000;stroke-width:1.0;" x1="740.5" x2="740.5" y1="1556.9531" y2="1638.4375"/><line style="stroke:#000000;stroke-width:1.0;" x1="767.5" x2="767.5" y1="1556.9531" y2="1638.4375"/><line style="stroke:#000000;stroke-width:1.0;" x1="1057.5" x2="1057.5" y1="1556.9531" y2="1638.4375"/><!--MD5=[e73c3689c5ae5f0b65a55e4c230be801]
@startuml
skinparam defaultfontname Verdana
skinparam RoundCorner 20
' skinparam linetype ortho

title Modèle du domaine


package SGB{
    class Université << (2,red) >>{}

    class CatalogueCours << (2,red)>>{}

    class Enseignant << 1,yellow) >>{
    prenom : String
    nom : String
    courriel : String
    }

    class Etudiant << 1,yellow) >>{
    nom : String
    codePermanent : String
    prenom : String
    courriel : String
    }

    class Cours << (1,blue) >>{
    id : numbers
    nom : String
    }

    class GroupeCours << 1,yellow) >>{
        id : number
        limiteNombreInscription : number
    }
}

package SGA{
    class Devoir << (2,red) >>{
        id: number
        nom: String
        description : String
        note maximale : number
        date de début : String
        date de fin : String
        visible : boolean
    }

    class Remise << (2,red) >>{
        id : number
        etat : String
        dateRemise : String

    }

    class Question << 1,yellow) >>{
        id : number
        nom : String
        tags : String
        texteQuestion : String
        texteBonneReponse : String
        texteMauvaiseReponse : String
    }

    class Questionnaire << (2,red) >>{
        id: number
        description: String
        état : boolean
    }

    class Tentative <<(3, orange) >>{
        id : number
        note : number
        statut : Sring
    }

    class QuestionChoixMultiple <<(3, orange) >> extends Question {
        reponse : String
    }

    class QuestionVraiFaux<<(3, orange) >> extends Question {
        reponse : boolean
    }

    class QuestionMiseEnCorrespondance<<(3, orange) >> extends Question {
        reponse : String
    }

    class QuestionReponseCourte<<(3, orange) >> extends Question {
        reponse : String
    }

    class QuestionNumerique<<(3, orange) >> extends Question {
        reponse : number
    }

    class EspaceCours << (2,red) >>{
        idEspaceGroupeCours : number
    }
    class Reponse << (3,orange) >>{
        reponse : String
        bonnneReponseText: String
        mauvaiseReponseText: String
    }

    class ReponseChoixMultiple << (3,orange) >> extends Reponse {

    }
    class ReponseNumerique << (3,orange) >> extends Reponse {
        ponderation: number
    }
    class ReponseVraiFaux << (3,orange) >> extends Reponse {

    }
    class ReponseMiseEnCorrespondance << (3,orange) >> extends Reponse {

    }
    class ReponseReponseCourte << (3,orange) >> extends Reponse {

    }
}

Université "1" - - "1"CatalogueCours : offre >
CatalogueCours "1"- - "*"Cours : repertorie >
Devoir "1"- -"*" Remise : contient >
EspaceCours "1"- -"*" Devoir: contient >
Université "1"- -"*" Enseignant : emploie >
Questionnaire "1"- -"1..*" Question : contient >
Université "1"- -"*" Etudiant : est-inscrit-à <
Question "*"- -"1" EspaceCours : contient <
Questionnaire "*"- -"1" EspaceCours : contient <
Etudiant "1" - - "1..*"GroupeCours : S'inscrit-dans >
Enseignant "1" - - "*"GroupeCours : Enseigne >
Cours "1" - - "1..*" GroupeCours : décris >
GroupeCours "1"- - "1..0"EspaceCours : Est-un-support-des-activités-du <
Etudiant "1" - - "*" Remise : Crée >
Enseignant "1" - - "*" Question : Crée >
Enseignant "1" - - "*" Questionnaire : Crée >
Enseignant "1" - - "*" Devoir : Crée >
Questionnaire"1" - - "1"Tentative : est effuctuée sur <
Etudiant "1" - - "1" Tentative : effectue >
Tentative "1" - "*" Reponse : contient >
QuestionVraiFaux "1" - "*" ReponseVraiFaux : a >
QuestionReponseCourte "1" - - "*" ReponseReponseCourte : a >
QuestionNumerique "1" - - "*" ReponseNumerique : a >
QuestionChoixMultiple "1" - - "*" ReponseChoixMultiple : a >
QuestionMiseEnCorrespondance "1" - - "*" ReponseMiseEnCorrespondance : a >



legend
|= |= Type |
|<back:blue>_1_</back>| Classe non modifiée première itération |
|<back:yellow>_1_</back>| Classe modifiée première itération |
|<back:red>_2_</back>| Nouvelle classe deuxième itération |
|<back:orange>_3_</back> | Nouvelle classe troisième itération |
endlegend
@enduml

@startuml
skinparam defaultfontname Verdana
skinparam RoundCorner 20

title Modèle du domaine


package SGB{
    class Université << (2,red) >>{}

    class CatalogueCours << (2,red)>>{}

    class Enseignant << 1,yellow) >>{
    prenom : String
    nom : String
    courriel : String
    }

    class Etudiant << 1,yellow) >>{
    nom : String
    codePermanent : String
    prenom : String
    courriel : String
    }

    class Cours << (1,blue) >>{
    id : numbers
    nom : String
    }

    class GroupeCours << 1,yellow) >>{
        id : number
        limiteNombreInscription : number
    }
}

package SGA{
    class Devoir << (2,red) >>{
        id: number
        nom: String
        description : String
        note maximale : number
        date de début : String
        date de fin : String
        visible : boolean
    }

    class Remise << (2,red) >>{
        id : number
        etat : String
        dateRemise : String

    }

    class Question << 1,yellow) >>{
        id : number
        nom : String
        tags : String
        texteQuestion : String
        texteBonneReponse : String
        texteMauvaiseReponse : String
    }

    class Questionnaire << (2,red) >>{
        id: number
        description: String
        état : boolean
    }

    class Tentative <<(3, orange) >>{
        id : number
        note : number
        statut : Sring
    }

    class QuestionChoixMultiple <<(3, orange) >> extends Question {
        reponse : String
    }

    class QuestionVraiFaux<<(3, orange) >> extends Question {
        reponse : boolean
    }

    class QuestionMiseEnCorrespondance<<(3, orange) >> extends Question {
        reponse : String
    }

    class QuestionReponseCourte<<(3, orange) >> extends Question {
        reponse : String
    }

    class QuestionNumerique<<(3, orange) >> extends Question {
        reponse : number
    }

    class EspaceCours << (2,red) >>{
        idEspaceGroupeCours : number
    }
    class Reponse << (3,orange) >>{
        reponse : String
        bonnneReponseText: String
        mauvaiseReponseText: String
    }

    class ReponseChoixMultiple << (3,orange) >> extends Reponse {

    }
    class ReponseNumerique << (3,orange) >> extends Reponse {
        ponderation: number
    }
    class ReponseVraiFaux << (3,orange) >> extends Reponse {

    }
    class ReponseMiseEnCorrespondance << (3,orange) >> extends Reponse {

    }
    class ReponseReponseCourte << (3,orange) >> extends Reponse {

    }
}

Université "1" - - "1"CatalogueCours : offre >
CatalogueCours "1"- - "*"Cours : repertorie >
Devoir "1"- -"*" Remise : contient >
EspaceCours "1"- -"*" Devoir: contient >
Université "1"- -"*" Enseignant : emploie >
Questionnaire "1"- -"1..*" Question : contient >
Université "1"- -"*" Etudiant : est-inscrit-à <
Question "*"- -"1" EspaceCours : contient <
Questionnaire "*"- -"1" EspaceCours : contient <
Etudiant "1" - - "1..*"GroupeCours : S'inscrit-dans >
Enseignant "1" - - "*"GroupeCours : Enseigne >
Cours "1" - - "1..*" GroupeCours : décris >
GroupeCours "1"- - "1..0"EspaceCours : Est-un-support-des-activités-du <
Etudiant "1" - - "*" Remise : Crée >
Enseignant "1" - - "*" Question : Crée >
Enseignant "1" - - "*" Questionnaire : Crée >
Enseignant "1" - - "*" Devoir : Crée >
Questionnaire"1" - - "1"Tentative : est effuctuée sur <
Etudiant "1" - - "1" Tentative : effectue >
Tentative "1" - "*" Reponse : contient >
QuestionVraiFaux "1" - "*" ReponseVraiFaux : a >
QuestionReponseCourte "1" - - "*" ReponseReponseCourte : a >
QuestionNumerique "1" - - "*" ReponseNumerique : a >
QuestionChoixMultiple "1" - - "*" ReponseChoixMultiple : a >
QuestionMiseEnCorrespondance "1" - - "*" ReponseMiseEnCorrespondance : a >



legend
|= |= Type |
|<back:blue>_1_</back>| Classe non modifiée première itération |
|<back:yellow>_1_</back>| Classe modifiée première itération |
|<back:red>_2_</back>| Nouvelle classe deuxième itération |
|<back:orange>_3_</back> | Nouvelle classe troisième itération |
endlegend
@enduml

PlantUML version 1.2021.9beta2(Unknown compile time)
(GPL source distribution)
Java Runtime: Java(TM) SE Runtime Environment
JVM: Java HotSpot(TM) 64-Bit Server VM
Default Encoding: UTF-8
Language: en
Country: US
--></g></svg>