<?xml version="1.0" encoding="UTF-8" standalone="no"?><svg xmlns="http://www.w3.org/2000/svg" xmlns:xlink="http://www.w3.org/1999/xlink" contentScriptType="application/ecmascript" contentStyleType="text/css" height="864px" preserveAspectRatio="none" style="width:453px;height:864px;background:#FFFFFF;" version="1.1" viewBox="0 0 453 864" width="453px" zoomAndPan="magnify"><defs><filter height="300%" id="f14x2zx1qorjh7" width="300%" x="-1" y="-1"><feGaussianBlur result="blurOut" stdDeviation="2.0"/><feColorMatrix in="blurOut" result="blurOut2" type="matrix" values="0 0 0 0 0 0 0 0 0 0 0 0 0 0 0 0 0 0 .4 0"/><feOffset dx="4.0" dy="4.0" in="blurOut2" result="blurOut3"/><feBlend in="SourceGraphic" in2="blurOut3" mode="normal"/></filter></defs><g><text fill="#000000" font-family="Verdana" font-size="18" lengthAdjust="spacing" textLength="438" x="2" y="16.708">Modèle du domaine (adapté au Cas d'utilisation</text><text fill="#000000" font-family="Verdana" font-size="18" lengthAdjust="spacing" textLength="205" x="124.5" y="37.6611">ajouter et récupérer )</text><!--MD5=[2f24e11835cb4dcc66d638dc1c7cb966]
class Opération--><rect codeLine="7" fill="#FEFECE" filter="url(#f14x2zx1qorjh7)" height="48" id="Opération" rx="10" ry="10" style="stroke:#A80036;stroke-width:1.5;" width="92" x="182.75" y="324.9063"/><ellipse cx="197.75" cy="340.9063" fill="#ADD1B2" rx="11" ry="11" style="stroke:#A80036;stroke-width:1.0;"/><path d="M200.0938,336.5781 C199.1563,336.1406 198.5625,336 197.6875,336 C195.0625,336 193.0625,338.0781 193.0625,340.7969 L193.0625,341.9219 C193.0625,344.5 195.1719,346.3906 198.0625,346.3906 C199.2813,346.3906 200.4375,346.0938 201.1875,345.5469 C201.7656,345.1406 202.0938,344.6875 202.0938,344.2969 C202.0938,343.8438 201.7031,343.4531 201.2344,343.4531 C201.0156,343.4531 200.8125,343.5313 200.625,343.7188 C200.1719,344.2031 200.1719,344.2031 199.9844,344.2969 C199.5625,344.5625 198.875,344.6875 198.1094,344.6875 C196.0625,344.6875 194.7656,343.5938 194.7656,341.8906 L194.7656,340.7969 C194.7656,339.0156 196.0156,337.7031 197.75,337.7031 C198.3281,337.7031 198.9375,337.8594 199.4063,338.1094 C199.8906,338.3906 200.0625,338.6094 200.1563,339.0156 C200.2188,339.4219 200.25,339.5469 200.3906,339.6719 C200.5313,339.8125 200.7656,339.9219 200.9844,339.9219 C201.25,339.9219 201.5156,339.7813 201.6875,339.5625 C201.7969,339.4063 201.8281,339.2188 201.8281,338.7969 L201.8281,337.375 C201.8281,336.9375 201.8125,336.8125 201.7188,336.6563 C201.5625,336.3906 201.2813,336.25 200.9844,336.25 C200.6875,336.25 200.4844,336.3438 200.2656,336.6563 L200.0938,336.5781 Z " fill="#000000"/><text fill="#000000" font-family="Verdana" font-size="12" lengthAdjust="spacing" textLength="60" x="211.75" y="345.0605">Opération</text><line style="stroke:#A80036;stroke-width:1.5;" x1="183.75" x2="273.75" y1="356.9063" y2="356.9063"/><line style="stroke:#A80036;stroke-width:1.5;" x1="183.75" x2="273.75" y1="364.9063" y2="364.9063"/><!--MD5=[b3f43a3d95be00c43f914e05c92c17d6]
class OpérationCours--><rect codeLine="11" fill="#FEFECE" filter="url(#f14x2zx1qorjh7)" height="48" id="OpérationCours" rx="10" ry="10" style="stroke:#A80036;stroke-width:1.5;" width="127" x="21.25" y="186.9063"/><ellipse cx="36.25" cy="202.9063" fill="#ADD1B2" rx="11" ry="11" style="stroke:#A80036;stroke-width:1.0;"/><path d="M38.5938,198.5781 C37.6563,198.1406 37.0625,198 36.1875,198 C33.5625,198 31.5625,200.0781 31.5625,202.7969 L31.5625,203.9219 C31.5625,206.5 33.6719,208.3906 36.5625,208.3906 C37.7813,208.3906 38.9375,208.0938 39.6875,207.5469 C40.2656,207.1406 40.5938,206.6875 40.5938,206.2969 C40.5938,205.8438 40.2031,205.4531 39.7344,205.4531 C39.5156,205.4531 39.3125,205.5313 39.125,205.7188 C38.6719,206.2031 38.6719,206.2031 38.4844,206.2969 C38.0625,206.5625 37.375,206.6875 36.6094,206.6875 C34.5625,206.6875 33.2656,205.5938 33.2656,203.8906 L33.2656,202.7969 C33.2656,201.0156 34.5156,199.7031 36.25,199.7031 C36.8281,199.7031 37.4375,199.8594 37.9063,200.1094 C38.3906,200.3906 38.5625,200.6094 38.6563,201.0156 C38.7188,201.4219 38.75,201.5469 38.8906,201.6719 C39.0313,201.8125 39.2656,201.9219 39.4844,201.9219 C39.75,201.9219 40.0156,201.7813 40.1875,201.5625 C40.2969,201.4063 40.3281,201.2188 40.3281,200.7969 L40.3281,199.375 C40.3281,198.9375 40.3125,198.8125 40.2188,198.6563 C40.0625,198.3906 39.7813,198.25 39.4844,198.25 C39.1875,198.25 38.9844,198.3438 38.7656,198.6563 L38.5938,198.5781 Z " fill="#000000"/><text fill="#000000" font-family="Verdana" font-size="12" lengthAdjust="spacing" textLength="95" x="50.25" y="207.0605">OpérationCours</text><line style="stroke:#A80036;stroke-width:1.5;" x1="22.25" x2="147.25" y1="218.9063" y2="218.9063"/><line style="stroke:#A80036;stroke-width:1.5;" x1="22.25" x2="147.25" y1="226.9063" y2="226.9063"/><!--MD5=[f6edf60997924e693a9a5571eb281b8c]
class Cours--><rect codeLine="13" fill="#FEFECE" filter="url(#f14x2zx1qorjh7)" height="73.6094" id="Cours" rx="10" ry="10" style="stroke:#A80036;stroke-width:1.5;" width="81" x="49.25" y="311.9063"/><ellipse cx="70.55" cy="327.9063" fill="#ADD1B2" rx="11" ry="11" style="stroke:#A80036;stroke-width:1.0;"/><path d="M72.8938,323.5781 C71.9563,323.1406 71.3625,323 70.4875,323 C67.8625,323 65.8625,325.0781 65.8625,327.7969 L65.8625,328.9219 C65.8625,331.5 67.9719,333.3906 70.8625,333.3906 C72.0813,333.3906 73.2375,333.0938 73.9875,332.5469 C74.5656,332.1406 74.8938,331.6875 74.8938,331.2969 C74.8938,330.8438 74.5031,330.4531 74.0344,330.4531 C73.8156,330.4531 73.6125,330.5313 73.425,330.7188 C72.9719,331.2031 72.9719,331.2031 72.7844,331.2969 C72.3625,331.5625 71.675,331.6875 70.9094,331.6875 C68.8625,331.6875 67.5656,330.5938 67.5656,328.8906 L67.5656,327.7969 C67.5656,326.0156 68.8156,324.7031 70.55,324.7031 C71.1281,324.7031 71.7375,324.8594 72.2063,325.1094 C72.6906,325.3906 72.8625,325.6094 72.9563,326.0156 C73.0188,326.4219 73.05,326.5469 73.1906,326.6719 C73.3313,326.8125 73.5656,326.9219 73.7844,326.9219 C74.05,326.9219 74.3156,326.7813 74.4875,326.5625 C74.5969,326.4063 74.6281,326.2188 74.6281,325.7969 L74.6281,324.375 C74.6281,323.9375 74.6125,323.8125 74.5188,323.6563 C74.3625,323.3906 74.0813,323.25 73.7844,323.25 C73.4875,323.25 73.2844,323.3438 73.0656,323.6563 L72.8938,323.5781 Z " fill="#000000"/><text fill="#000000" font-family="Verdana" font-size="12" lengthAdjust="spacing" textLength="35" x="85.95" y="332.0605">Cours</text><line style="stroke:#A80036;stroke-width:1.5;" x1="50.25" x2="129.25" y1="343.9063" y2="343.9063"/><text fill="#000000" font-family="Verdana" font-size="11" lengthAdjust="spacing" textLength="54" x="55.25" y="358.1167">id : String</text><text fill="#000000" font-family="Verdana" font-size="11" lengthAdjust="spacing" textLength="69" x="55.25" y="370.9214">nom : String</text><line style="stroke:#A80036;stroke-width:1.5;" x1="50.25" x2="129.25" y1="377.5156" y2="377.5156"/><!--MD5=[b32d763bfdb05d07119f0e8fadbdfdc1]
class GroupeCours--><rect codeLine="18" fill="#FEFECE" filter="url(#f14x2zx1qorjh7)" height="60.8047" id="GroupeCours" rx="10" ry="10" style="stroke:#A80036;stroke-width:1.5;" width="123" x="74.25" y="462.9063"/><ellipse cx="94.2" cy="478.9063" fill="#ADD1B2" rx="11" ry="11" style="stroke:#A80036;stroke-width:1.0;"/><path d="M96.5438,474.5781 C95.6063,474.1406 95.0125,474 94.1375,474 C91.5125,474 89.5125,476.0781 89.5125,478.7969 L89.5125,479.9219 C89.5125,482.5 91.6219,484.3906 94.5125,484.3906 C95.7313,484.3906 96.8875,484.0938 97.6375,483.5469 C98.2156,483.1406 98.5438,482.6875 98.5438,482.2969 C98.5438,481.8438 98.1531,481.4531 97.6844,481.4531 C97.4656,481.4531 97.2625,481.5313 97.075,481.7188 C96.6219,482.2031 96.6219,482.2031 96.4344,482.2969 C96.0125,482.5625 95.325,482.6875 94.5594,482.6875 C92.5125,482.6875 91.2156,481.5938 91.2156,479.8906 L91.2156,478.7969 C91.2156,477.0156 92.4656,475.7031 94.2,475.7031 C94.7781,475.7031 95.3875,475.8594 95.8563,476.1094 C96.3406,476.3906 96.5125,476.6094 96.6063,477.0156 C96.6688,477.4219 96.7,477.5469 96.8406,477.6719 C96.9813,477.8125 97.2156,477.9219 97.4344,477.9219 C97.7,477.9219 97.9656,477.7813 98.1375,477.5625 C98.2469,477.4063 98.2781,477.2188 98.2781,476.7969 L98.2781,475.375 C98.2781,474.9375 98.2625,474.8125 98.1688,474.6563 C98.0125,474.3906 97.7313,474.25 97.4344,474.25 C97.1375,474.25 96.9344,474.3438 96.7156,474.6563 L96.5438,474.5781 Z " fill="#000000"/><text fill="#000000" font-family="Verdana" font-size="12" lengthAdjust="spacing" textLength="80" x="109.3" y="483.0605">GroupeCours</text><line style="stroke:#A80036;stroke-width:1.5;" x1="75.25" x2="196.25" y1="494.9063" y2="494.9063"/><text fill="#000000" font-family="Verdana" font-size="11" lengthAdjust="spacing" textLength="111" x="80.25" y="509.1167">numeroGroupe : int</text><line style="stroke:#A80036;stroke-width:1.5;" x1="75.25" x2="196.25" y1="515.7109" y2="515.7109"/><!--MD5=[0ea76b077f2fe2b0557d144a0cdb3724]
class Enseignant--><rect codeLine="22" fill="#FEFECE" filter="url(#f14x2zx1qorjh7)" height="60.8047" id="Enseignant" rx="10" ry="10" style="stroke:#A80036;stroke-width:1.5;" width="97" x="175.25" y="48.9063"/><ellipse cx="190.25" cy="64.9063" fill="#ADD1B2" rx="11" ry="11" style="stroke:#A80036;stroke-width:1.0;"/><path d="M192.5938,60.5781 C191.6563,60.1406 191.0625,60 190.1875,60 C187.5625,60 185.5625,62.0781 185.5625,64.7969 L185.5625,65.9219 C185.5625,68.5 187.6719,70.3906 190.5625,70.3906 C191.7813,70.3906 192.9375,70.0938 193.6875,69.5469 C194.2656,69.1406 194.5938,68.6875 194.5938,68.2969 C194.5938,67.8438 194.2031,67.4531 193.7344,67.4531 C193.5156,67.4531 193.3125,67.5313 193.125,67.7188 C192.6719,68.2031 192.6719,68.2031 192.4844,68.2969 C192.0625,68.5625 191.375,68.6875 190.6094,68.6875 C188.5625,68.6875 187.2656,67.5938 187.2656,65.8906 L187.2656,64.7969 C187.2656,63.0156 188.5156,61.7031 190.25,61.7031 C190.8281,61.7031 191.4375,61.8594 191.9063,62.1094 C192.3906,62.3906 192.5625,62.6094 192.6563,63.0156 C192.7188,63.4219 192.75,63.5469 192.8906,63.6719 C193.0313,63.8125 193.2656,63.9219 193.4844,63.9219 C193.75,63.9219 194.0156,63.7813 194.1875,63.5625 C194.2969,63.4063 194.3281,63.2188 194.3281,62.7969 L194.3281,61.375 C194.3281,60.9375 194.3125,60.8125 194.2188,60.6563 C194.0625,60.3906 193.7813,60.25 193.4844,60.25 C193.1875,60.25 192.9844,60.3438 192.7656,60.6563 L192.5938,60.5781 Z " fill="#000000"/><text fill="#000000" font-family="Verdana" font-size="12" lengthAdjust="spacing" textLength="65" x="204.25" y="69.0605">Enseignant</text><line style="stroke:#A80036;stroke-width:1.5;" x1="176.25" x2="271.25" y1="80.9063" y2="80.9063"/><text fill="#000000" font-family="Verdana" font-size="11" lengthAdjust="spacing" textLength="76" x="181.25" y="95.1167">token : String</text><line style="stroke:#A80036;stroke-width:1.5;" x1="176.25" x2="271.25" y1="101.7109" y2="101.7109"/><!--MD5=[e3562757a8af6d09f146fd0dfebadf4f]
class Sga--><rect codeLine="26" fill="#FEFECE" filter="url(#f14x2zx1qorjh7)" height="48" id="Sga" rx="10" ry="10" style="stroke:#A80036;stroke-width:1.5;" width="55" x="196.25" y="186.9063"/><ellipse cx="211.25" cy="202.9063" fill="#ADD1B2" rx="11" ry="11" style="stroke:#A80036;stroke-width:1.0;"/><path d="M213.5938,198.5781 C212.6563,198.1406 212.0625,198 211.1875,198 C208.5625,198 206.5625,200.0781 206.5625,202.7969 L206.5625,203.9219 C206.5625,206.5 208.6719,208.3906 211.5625,208.3906 C212.7813,208.3906 213.9375,208.0938 214.6875,207.5469 C215.2656,207.1406 215.5938,206.6875 215.5938,206.2969 C215.5938,205.8438 215.2031,205.4531 214.7344,205.4531 C214.5156,205.4531 214.3125,205.5313 214.125,205.7188 C213.6719,206.2031 213.6719,206.2031 213.4844,206.2969 C213.0625,206.5625 212.375,206.6875 211.6094,206.6875 C209.5625,206.6875 208.2656,205.5938 208.2656,203.8906 L208.2656,202.7969 C208.2656,201.0156 209.5156,199.7031 211.25,199.7031 C211.8281,199.7031 212.4375,199.8594 212.9063,200.1094 C213.3906,200.3906 213.5625,200.6094 213.6563,201.0156 C213.7188,201.4219 213.75,201.5469 213.8906,201.6719 C214.0313,201.8125 214.2656,201.9219 214.4844,201.9219 C214.75,201.9219 215.0156,201.7813 215.1875,201.5625 C215.2969,201.4063 215.3281,201.2188 215.3281,200.7969 L215.3281,199.375 C215.3281,198.9375 215.3125,198.8125 215.2188,198.6563 C215.0625,198.3906 214.7813,198.25 214.4844,198.25 C214.1875,198.25 213.9844,198.3438 213.7656,198.6563 L213.5938,198.5781 Z " fill="#000000"/><text fill="#000000" font-family="Verdana" font-size="12" lengthAdjust="spacing" textLength="23" x="225.25" y="207.0605">Sga</text><line style="stroke:#A80036;stroke-width:1.5;" x1="197.25" x2="250.25" y1="218.9063" y2="218.9063"/><line style="stroke:#A80036;stroke-width:1.5;" x1="197.25" x2="250.25" y1="226.9063" y2="226.9063"/><!--MD5=[f84e857de5a9ca5678aed72e3e98d0a5]
class Etudiant--><rect codeLine="30" fill="#FEFECE" filter="url(#f14x2zx1qorjh7)" height="60.8047" id="Etudiant" rx="10" ry="10" style="stroke:#A80036;stroke-width:1.5;" width="81" x="95.25" y="626.4063"/><ellipse cx="111.15" cy="642.4063" fill="#ADD1B2" rx="11" ry="11" style="stroke:#A80036;stroke-width:1.0;"/><path d="M113.4938,638.0781 C112.5563,637.6406 111.9625,637.5 111.0875,637.5 C108.4625,637.5 106.4625,639.5781 106.4625,642.2969 L106.4625,643.4219 C106.4625,646 108.5719,647.8906 111.4625,647.8906 C112.6813,647.8906 113.8375,647.5938 114.5875,647.0469 C115.1656,646.6406 115.4938,646.1875 115.4938,645.7969 C115.4938,645.3438 115.1031,644.9531 114.6344,644.9531 C114.4156,644.9531 114.2125,645.0313 114.025,645.2188 C113.5719,645.7031 113.5719,645.7031 113.3844,645.7969 C112.9625,646.0625 112.275,646.1875 111.5094,646.1875 C109.4625,646.1875 108.1656,645.0938 108.1656,643.3906 L108.1656,642.2969 C108.1656,640.5156 109.4156,639.2031 111.15,639.2031 C111.7281,639.2031 112.3375,639.3594 112.8063,639.6094 C113.2906,639.8906 113.4625,640.1094 113.5563,640.5156 C113.6188,640.9219 113.65,641.0469 113.7906,641.1719 C113.9313,641.3125 114.1656,641.4219 114.3844,641.4219 C114.65,641.4219 114.9156,641.2813 115.0875,641.0625 C115.1969,640.9063 115.2281,640.7188 115.2281,640.2969 L115.2281,638.875 C115.2281,638.4375 115.2125,638.3125 115.1188,638.1563 C114.9625,637.8906 114.6813,637.75 114.3844,637.75 C114.0875,637.75 113.8844,637.8438 113.6656,638.1563 L113.4938,638.0781 Z " fill="#000000"/><text fill="#000000" font-family="Verdana" font-size="12" lengthAdjust="spacing" textLength="47" x="125.35" y="646.5605">Etudiant</text><line style="stroke:#A80036;stroke-width:1.5;" x1="96.25" x2="175.25" y1="658.4063" y2="658.4063"/><text fill="#000000" font-family="Verdana" font-size="11" lengthAdjust="spacing" textLength="69" x="101.25" y="672.6167">nom : String</text><line style="stroke:#A80036;stroke-width:1.5;" x1="96.25" x2="175.25" y1="679.2109" y2="679.2109"/><!--MD5=[39d6d2ea03de602dbf4d534e70c872a9]
class Tag--><rect codeLine="34" fill="#FEFECE" filter="url(#f14x2zx1qorjh7)" height="60.8047" id="Tag" rx="10" ry="10" style="stroke:#A80036;stroke-width:1.5;" width="81" x="292.25" y="789.9063"/><ellipse cx="319.4" cy="805.9063" fill="#ADD1B2" rx="11" ry="11" style="stroke:#A80036;stroke-width:1.0;"/><path d="M321.7438,801.5781 C320.8063,801.1406 320.2125,801 319.3375,801 C316.7125,801 314.7125,803.0781 314.7125,805.7969 L314.7125,806.9219 C314.7125,809.5 316.8219,811.3906 319.7125,811.3906 C320.9313,811.3906 322.0875,811.0938 322.8375,810.5469 C323.4156,810.1406 323.7438,809.6875 323.7438,809.2969 C323.7438,808.8438 323.3531,808.4531 322.8844,808.4531 C322.6656,808.4531 322.4625,808.5313 322.275,808.7188 C321.8219,809.2031 321.8219,809.2031 321.6344,809.2969 C321.2125,809.5625 320.525,809.6875 319.7594,809.6875 C317.7125,809.6875 316.4156,808.5938 316.4156,806.8906 L316.4156,805.7969 C316.4156,804.0156 317.6656,802.7031 319.4,802.7031 C319.9781,802.7031 320.5875,802.8594 321.0563,803.1094 C321.5406,803.3906 321.7125,803.6094 321.8063,804.0156 C321.8688,804.4219 321.9,804.5469 322.0406,804.6719 C322.1813,804.8125 322.4156,804.9219 322.6344,804.9219 C322.9,804.9219 323.1656,804.7813 323.3375,804.5625 C323.4469,804.4063 323.4781,804.2188 323.4781,803.7969 L323.4781,802.375 C323.4781,801.9375 323.4625,801.8125 323.3688,801.6563 C323.2125,801.3906 322.9313,801.25 322.6344,801.25 C322.3375,801.25 322.1344,801.3438 321.9156,801.6563 L321.7438,801.5781 Z " fill="#000000"/><text fill="#000000" font-family="Verdana" font-size="12" lengthAdjust="spacing" textLength="22" x="336.1" y="810.0605">Tag</text><line style="stroke:#A80036;stroke-width:1.5;" x1="293.25" x2="372.25" y1="821.9063" y2="821.9063"/><text fill="#000000" font-family="Verdana" font-size="11" lengthAdjust="spacing" textLength="69" x="298.25" y="836.1167">nom : String</text><line style="stroke:#A80036;stroke-width:1.5;" x1="293.25" x2="372.25" y1="842.7109" y2="842.7109"/><!--MD5=[fc7123defb831ecdd44b2d9bcef6cceb]
class Question--><rect codeLine="38" fill="#FEFECE" filter="url(#f14x2zx1qorjh7)" height="112.0234" id="Question" rx="10" ry="10" style="stroke:#A80036;stroke-width:1.5;" width="191" x="237.25" y="600.9063"/><ellipse cx="301.5" cy="616.9063" fill="#ADD1B2" rx="11" ry="11" style="stroke:#A80036;stroke-width:1.0;"/><path d="M303.8438,612.5781 C302.9063,612.1406 302.3125,612 301.4375,612 C298.8125,612 296.8125,614.0781 296.8125,616.7969 L296.8125,617.9219 C296.8125,620.5 298.9219,622.3906 301.8125,622.3906 C303.0313,622.3906 304.1875,622.0938 304.9375,621.5469 C305.5156,621.1406 305.8438,620.6875 305.8438,620.2969 C305.8438,619.8438 305.4531,619.4531 304.9844,619.4531 C304.7656,619.4531 304.5625,619.5313 304.375,619.7188 C303.9219,620.2031 303.9219,620.2031 303.7344,620.2969 C303.3125,620.5625 302.625,620.6875 301.8594,620.6875 C299.8125,620.6875 298.5156,619.5938 298.5156,617.8906 L298.5156,616.7969 C298.5156,615.0156 299.7656,613.7031 301.5,613.7031 C302.0781,613.7031 302.6875,613.8594 303.1563,614.1094 C303.6406,614.3906 303.8125,614.6094 303.9063,615.0156 C303.9688,615.4219 304,615.5469 304.1406,615.6719 C304.2813,615.8125 304.5156,615.9219 304.7344,615.9219 C305,615.9219 305.2656,615.7813 305.4375,615.5625 C305.5469,615.4063 305.5781,615.2188 305.5781,614.7969 L305.5781,613.375 C305.5781,612.9375 305.5625,612.8125 305.4688,612.6563 C305.3125,612.3906 305.0313,612.25 304.7344,612.25 C304.4375,612.25 304.2344,612.3438 304.0156,612.6563 L303.8438,612.5781 Z " fill="#000000"/><text fill="#000000" font-family="Verdana" font-size="12" lengthAdjust="spacing" textLength="54" x="322" y="621.0605">Question</text><line style="stroke:#A80036;stroke-width:1.5;" x1="238.25" x2="427.25" y1="632.9063" y2="632.9063"/><text fill="#000000" font-family="Verdana" font-size="11" lengthAdjust="spacing" textLength="69" x="243.25" y="647.1167">nom : String</text><text fill="#000000" font-family="Verdana" font-size="11" lengthAdjust="spacing" textLength="126" x="243.25" y="659.9214">texteQuestion : String</text><text fill="#000000" font-family="Verdana" font-size="11" lengthAdjust="spacing" textLength="104" x="243.25" y="672.7261">reponse : boolean</text><text fill="#000000" font-family="Verdana" font-size="11" lengthAdjust="spacing" textLength="162" x="243.25" y="685.5308">texteBonneReponse : String</text><text fill="#000000" font-family="Verdana" font-size="11" lengthAdjust="spacing" textLength="179" x="243.25" y="698.3354">texteMauvaiseReponse : String</text><line style="stroke:#A80036;stroke-width:1.5;" x1="238.25" x2="427.25" y1="704.9297" y2="704.9297"/><!--MD5=[15a8274efa94a9967ed633bab6315c30]
class OpérationQuestion--><rect fill="#FEFECE" filter="url(#f14x2zx1qorjh7)" height="48" id="OpérationQuestion" rx="10" ry="10" style="stroke:#A80036;stroke-width:1.5;" width="146" x="286.75" y="186.9063"/><ellipse cx="301.75" cy="202.9063" fill="#ADD1B2" rx="11" ry="11" style="stroke:#A80036;stroke-width:1.0;"/><path d="M304.0938,198.5781 C303.1563,198.1406 302.5625,198 301.6875,198 C299.0625,198 297.0625,200.0781 297.0625,202.7969 L297.0625,203.9219 C297.0625,206.5 299.1719,208.3906 302.0625,208.3906 C303.2813,208.3906 304.4375,208.0938 305.1875,207.5469 C305.7656,207.1406 306.0938,206.6875 306.0938,206.2969 C306.0938,205.8438 305.7031,205.4531 305.2344,205.4531 C305.0156,205.4531 304.8125,205.5313 304.625,205.7188 C304.1719,206.2031 304.1719,206.2031 303.9844,206.2969 C303.5625,206.5625 302.875,206.6875 302.1094,206.6875 C300.0625,206.6875 298.7656,205.5938 298.7656,203.8906 L298.7656,202.7969 C298.7656,201.0156 300.0156,199.7031 301.75,199.7031 C302.3281,199.7031 302.9375,199.8594 303.4063,200.1094 C303.8906,200.3906 304.0625,200.6094 304.1563,201.0156 C304.2188,201.4219 304.25,201.5469 304.3906,201.6719 C304.5313,201.8125 304.7656,201.9219 304.9844,201.9219 C305.25,201.9219 305.5156,201.7813 305.6875,201.5625 C305.7969,201.4063 305.8281,201.2188 305.8281,200.7969 L305.8281,199.375 C305.8281,198.9375 305.8125,198.8125 305.7188,198.6563 C305.5625,198.3906 305.2813,198.25 304.9844,198.25 C304.6875,198.25 304.4844,198.3438 304.2656,198.6563 L304.0938,198.5781 Z " fill="#000000"/><text fill="#000000" font-family="Verdana" font-size="12" lengthAdjust="spacing" textLength="114" x="315.75" y="207.0605">OpérationQuestion</text><line style="stroke:#A80036;stroke-width:1.5;" x1="287.75" x2="431.75" y1="218.9063" y2="218.9063"/><line style="stroke:#A80036;stroke-width:1.5;" x1="287.75" x2="431.75" y1="226.9063" y2="226.9063"/><!--MD5=[804b554c8b3be5cfc85b4a094c79c3f6]
link Enseignant to Sga--><path codeLine="46" d="M223.75,110.2373 C223.75,133.6183 223.75,165.2993 223.75,186.8323 " fill="none" id="Enseignant-Sga" style="stroke:#A80036;stroke-width:1.0;"/><polygon fill="#000000" points="228.75,153.4727,231.6889,144.4276,225.8111,144.4276,228.75,153.4727" style="stroke:#000000;stroke-width:1.0;"/><text fill="#000000" font-family="Verdana" font-size="13" lengthAdjust="spacing" textLength="37" x="237.75" y="152.9731">utilise</text><text fill="#000000" font-family="Verdana" font-size="13" lengthAdjust="spacing" textLength="7" x="216.0609" y="129.8829">*</text><text fill="#000000" font-family="Verdana" font-size="13" lengthAdjust="spacing" textLength="8" x="214.725" y="175.8253">1</text><!--MD5=[ada5d851159f39726d381cf34f3b2d09]
link Sga to Opération--><path codeLine="48" d="M223.75,234.9443 C223.75,260.1183 223.75,299.4363 223.75,324.6813 " fill="none" id="Sga-Opération" style="stroke:#A80036;stroke-width:1.0;"/><polygon fill="#000000" points="233.75,278.4727,236.6889,269.4276,230.8111,269.4276,233.75,278.4727" style="stroke:#000000;stroke-width:1.0;"/><text fill="#000000" font-family="Verdana" font-size="13" lengthAdjust="spacing" textLength="52" x="242.75" y="277.9731">execute</text><text fill="#000000" font-family="Verdana" font-size="13" lengthAdjust="spacing" textLength="8" x="214.725" y="255.1098">1</text><text fill="#000000" font-family="Verdana" font-size="13" lengthAdjust="spacing" textLength="7" x="214.6781" y="314.0314">*</text><!--MD5=[256db775b026855b6ec046b300952270]
link OpérationQuestion to Opération--><path codeLine="49" d="M286.733,210.9063 C272.427,210.9063 261.75,210.9063 261.75,210.9063 C261.75,210.9063 261.75,304.8683 261.75,304.8683 " fill="none" id="OpérationQuestion-to-Opération" style="stroke:#A80036;stroke-width:1.0;"/><polygon fill="none" points="268.75,304.8683,261.75,324.8683,254.75,304.8683,268.75,304.8683" style="stroke:#A80036;stroke-width:1.0;"/><!--MD5=[18a5954c9bf1a8e6483a1dfb565bcb59]
link OpérationCours to Opération--><path codeLine="50" d="M148.401,210.9063 C170.335,210.9063 189.5,210.9063 189.5,210.9063 C189.5,210.9063 189.5,304.8683 189.5,304.8683 " fill="none" id="OpérationCours-to-Opération" style="stroke:#A80036;stroke-width:1.0;"/><polygon fill="none" points="196.5,304.8683,189.5,324.8683,182.5,304.8683,196.5,304.8683" style="stroke:#A80036;stroke-width:1.0;"/><!--MD5=[95cede3e34d1120bc3017fcfcab3a4fd]
link OpérationCours to Cours--><path codeLine="52" d="M89.75,234.9443 C89.75,256.1033 89.75,287.2533 89.75,311.6413 " fill="none" id="OpérationCours-Cours" style="stroke:#A80036;stroke-width:1.0;"/><polygon fill="#000000" points="76.75,278.4727,79.6889,269.4276,73.8111,269.4276,76.75,278.4727" style="stroke:#000000;stroke-width:1.0;"/><text fill="#000000" font-family="Verdana" font-size="13" lengthAdjust="spacing" textLength="61" x="85.75" y="277.9731">opere sur</text><text fill="#000000" font-family="Verdana" font-size="13" lengthAdjust="spacing" textLength="8" x="82.0063" y="255.1098">1</text><text fill="#000000" font-family="Verdana" font-size="13" lengthAdjust="spacing" textLength="8" x="81.0375" y="300.781">1</text><!--MD5=[dd19a10ffb7e2e1829c46178384b5825]
link Cours to GroupeCours--><path codeLine="53" d="M102.25,386.1183 C102.25,409.8673 102.25,440.2793 102.25,462.6563 " fill="none" id="Cours-GroupeCours" style="stroke:#A80036;stroke-width:1.0;"/><polygon fill="#000000" points="104.75,429.4727,107.6889,420.4276,101.8111,420.4276,104.75,429.4727" style="stroke:#000000;stroke-width:1.0;"/><text fill="#000000" font-family="Verdana" font-size="13" lengthAdjust="spacing" textLength="52" x="113.75" y="428.9731">contient</text><text fill="#000000" font-family="Verdana" font-size="13" lengthAdjust="spacing" textLength="8" x="95.6578" y="405.6339">1</text><text fill="#000000" font-family="Verdana" font-size="13" lengthAdjust="spacing" textLength="7" x="87.6188" y="451.8679">*</text><!--MD5=[625dbc544eb865b1eb2408f81c3a0035]
link GroupeCours to Question--><path codeLine="54" d="M186.75,524.1253 C186.75,559.8263 186.75,613.9063 186.75,613.9063 C186.75,613.9063 209.476,613.9063 236.995,613.9063 " fill="none" id="GroupeCours-Question" style="stroke:#A80036;stroke-width:1.0;"/><polygon fill="#000000" points="268.1918,566.8359,266.3392,557.5075,261.2099,560.378,268.1918,566.8359" style="stroke:#000000;stroke-width:1.0;"/><text fill="#000000" font-family="Verdana" font-size="13" lengthAdjust="spacing" textLength="52" x="274.75" y="566.9731">contient</text><text fill="#000000" font-family="Verdana" font-size="13" lengthAdjust="spacing" textLength="8" x="188.0031" y="543.7488">1</text><text fill="#000000" font-family="Verdana" font-size="13" lengthAdjust="spacing" textLength="7" x="222.3958" y="607.1109">*</text><!--MD5=[e363e365dd100d39586a4214bb707f5e]
link OpérationQuestion to Question--><path codeLine="56" d="M357.5,235.2023 C357.5,304.1863 357.5,502.5883 357.5,600.6573 " fill="none" id="OpérationQuestion-Question" style="stroke:#A80036;stroke-width:1.0;"/><polygon fill="#000000" points="364.75,429.4727,367.6889,420.4276,361.8111,420.4276,364.75,429.4727" style="stroke:#000000;stroke-width:1.0;"/><text fill="#000000" font-family="Verdana" font-size="13" lengthAdjust="spacing" textLength="61" x="373.75" y="428.9731">opere sur</text><text fill="#000000" font-family="Verdana" font-size="13" lengthAdjust="spacing" textLength="8" x="347.9766" y="255.0356">1</text><text fill="#000000" font-family="Verdana" font-size="13" lengthAdjust="spacing" textLength="8" x="352.0289" y="589.9614">1</text><!--MD5=[5b028c9722f2ce4b8d1edb416a259790]
link GroupeCours to Etudiant--><path codeLine="57" d="M135.75,524.1592 C135.75,553.3902 135.75,597.1053 135.75,626.2913 " fill="none" id="GroupeCours-Etudiant" style="stroke:#A80036;stroke-width:1.0;"/><polygon fill="#000000" points="140.75,567.4727,143.6889,558.4276,137.8111,558.4276,140.75,567.4727" style="stroke:#000000;stroke-width:1.0;"/><text fill="#000000" font-family="Verdana" font-size="13" lengthAdjust="spacing" textLength="52" x="149.75" y="566.9731">contient</text><text fill="#000000" font-family="Verdana" font-size="13" lengthAdjust="spacing" textLength="8" x="126.9625" y="543.7895">1</text><text fill="#000000" font-family="Verdana" font-size="13" lengthAdjust="spacing" textLength="7" x="128.0281" y="615.5308">*</text><!--MD5=[e54c705208b6e33fdf6605af36c39147]
link Question to Tag--><path codeLine="59" d="M332.75,713.1733 C332.75,738.8533 332.75,768.2602 332.75,789.776 " fill="none" id="Question-Tag" style="stroke:#A80036;stroke-width:1.0;"/><polygon fill="#000000" points="337.75,746.4727,334.8111,755.5177,340.6889,755.5177,337.75,746.4727" style="stroke:#000000;stroke-width:1.0;"/><text fill="#000000" font-family="Verdana" font-size="13" lengthAdjust="spacing" textLength="67" x="346.75" y="755.9731">categorise</text><text fill="#000000" font-family="Verdana" font-size="13" lengthAdjust="spacing" textLength="8" x="324.2625" y="733.0184">1</text><text fill="#000000" font-family="Verdana" font-size="13" lengthAdjust="spacing" textLength="7" x="325.0281" y="779.0124">*</text><!--MD5=[f3e7a0a8f6e2df3f3b8ae0a40799527f]
@startuml
skinparam defaultfontname Verdana
skinparam RoundCorner 20
skinparam linetype ortho

title Modèle du domaine (adapté au Cas d'utilisation \n ajouter et récupérer )

class Opération {

}

class OpérationCours

class Cours {
    id : String
    nom : String
}

class GroupeCours {
    numeroGroupe : int
}

class Enseignant {
    token : String
}

class Sga {

}

class Etudiant {
    nom : String
}

class Tag{
    nom : String
}

class Question{
    nom : String
    texteQuestion : String
    reponse : boolean
    texteBonneReponse : String
    texteMauvaiseReponse : String
}

Enseignant "*"- - "1" Sga : utilise >

Sga "1" - - "*" Opération : execute >
OpérationQuestion - -|> Opération
OpérationCours - -|> Opération

OpérationCours "1"- - "1"Cours : opere sur >
Cours "1"- - "*"GroupeCours : contient >
GroupeCours"1" - - "*"Question : contient >

OpérationQuestion "1"- - "1"Question : opere sur >
GroupeCours "1"- - "*"Etudiant : contient >

Question "1" - - "*"Tag : < categorise
@enduml

PlantUML version 1.2021.7(Sun May 23 12:40:07 UTC 2021)
(GPL source distribution)
Java Runtime: Java(TM) SE Runtime Environment
JVM: Java HotSpot(TM) 64-Bit Server VM
Default Encoding: UTF-8
Language: en
Country: US
--></g></svg>