<?xml version="1.0" encoding="UTF-8" standalone="no"?><svg xmlns="http://www.w3.org/2000/svg" xmlns:xlink="http://www.w3.org/1999/xlink" contentScriptType="application/ecmascript" contentStyleType="text/css" height="864px" preserveAspectRatio="none" style="width:524px;height:864px;background:#FFFFFF;" version="1.1" viewBox="0 0 524 864" width="524px" zoomAndPan="magnify"><defs><filter height="300%" id="f6il1rhmxjq5l" width="300%" x="-1" y="-1"><feGaussianBlur result="blurOut" stdDeviation="2.0"/><feColorMatrix in="blurOut" result="blurOut2" type="matrix" values="0 0 0 0 0 0 0 0 0 0 0 0 0 0 0 0 0 0 .4 0"/><feOffset dx="4.0" dy="4.0" in="blurOut2" result="blurOut3"/><feBlend in="SourceGraphic" in2="blurOut3" mode="normal"/></filter></defs><g><text fill="#000000" font-family="Verdana" font-size="18" lengthAdjust="spacing" textLength="438" x="33.75" y="16.708">Modèle du domaine (adapté au Cas d'utilisation</text><text fill="#000000" font-family="Verdana" font-size="18" lengthAdjust="spacing" textLength="205" x="156.25" y="37.6611">ajouter et récupérer )</text><!--MD5=[2f24e11835cb4dcc66d638dc1c7cb966]
class Opération--><rect codeLine="7" fill="#FEFECE" filter="url(#f6il1rhmxjq5l)" height="48" id="Opération" rx="10" ry="10" style="stroke:#A80036;stroke-width:1.5;" width="92" x="203.5" y="324.9063"/><ellipse cx="218.5" cy="340.9063" fill="#ADD1B2" rx="11" ry="11" style="stroke:#A80036;stroke-width:1.0;"/><path d="M220.8438,336.5781 C219.9063,336.1406 219.3125,336 218.4375,336 C215.8125,336 213.8125,338.0781 213.8125,340.7969 L213.8125,341.9219 C213.8125,344.5 215.9219,346.3906 218.8125,346.3906 C220.0313,346.3906 221.1875,346.0938 221.9375,345.5469 C222.5156,345.1406 222.8438,344.6875 222.8438,344.2969 C222.8438,343.8438 222.4531,343.4531 221.9844,343.4531 C221.7656,343.4531 221.5625,343.5313 221.375,343.7188 C220.9219,344.2031 220.9219,344.2031 220.7344,344.2969 C220.3125,344.5625 219.625,344.6875 218.8594,344.6875 C216.8125,344.6875 215.5156,343.5938 215.5156,341.8906 L215.5156,340.7969 C215.5156,339.0156 216.7656,337.7031 218.5,337.7031 C219.0781,337.7031 219.6875,337.8594 220.1563,338.1094 C220.6406,338.3906 220.8125,338.6094 220.9063,339.0156 C220.9688,339.4219 221,339.5469 221.1406,339.6719 C221.2813,339.8125 221.5156,339.9219 221.7344,339.9219 C222,339.9219 222.2656,339.7813 222.4375,339.5625 C222.5469,339.4063 222.5781,339.2188 222.5781,338.7969 L222.5781,337.375 C222.5781,336.9375 222.5625,336.8125 222.4688,336.6563 C222.3125,336.3906 222.0313,336.25 221.7344,336.25 C221.4375,336.25 221.2344,336.3438 221.0156,336.6563 L220.8438,336.5781 Z " fill="#000000"/><text fill="#000000" font-family="Verdana" font-size="12" lengthAdjust="spacing" textLength="60" x="232.5" y="345.0605">Opération</text><line style="stroke:#A80036;stroke-width:1.5;" x1="204.5" x2="294.5" y1="356.9063" y2="356.9063"/><line style="stroke:#A80036;stroke-width:1.5;" x1="204.5" x2="294.5" y1="364.9063" y2="364.9063"/><!--MD5=[b3f43a3d95be00c43f914e05c92c17d6]
class OpérationCours--><rect codeLine="11" fill="#FEFECE" filter="url(#f6il1rhmxjq5l)" height="48" id="OpérationCours" rx="10" ry="10" style="stroke:#A80036;stroke-width:1.5;" width="127" x="7" y="186.9063"/><ellipse cx="22" cy="202.9063" fill="#ADD1B2" rx="11" ry="11" style="stroke:#A80036;stroke-width:1.0;"/><path d="M24.3438,198.5781 C23.4063,198.1406 22.8125,198 21.9375,198 C19.3125,198 17.3125,200.0781 17.3125,202.7969 L17.3125,203.9219 C17.3125,206.5 19.4219,208.3906 22.3125,208.3906 C23.5313,208.3906 24.6875,208.0938 25.4375,207.5469 C26.0156,207.1406 26.3438,206.6875 26.3438,206.2969 C26.3438,205.8438 25.9531,205.4531 25.4844,205.4531 C25.2656,205.4531 25.0625,205.5313 24.875,205.7188 C24.4219,206.2031 24.4219,206.2031 24.2344,206.2969 C23.8125,206.5625 23.125,206.6875 22.3594,206.6875 C20.3125,206.6875 19.0156,205.5938 19.0156,203.8906 L19.0156,202.7969 C19.0156,201.0156 20.2656,199.7031 22,199.7031 C22.5781,199.7031 23.1875,199.8594 23.6563,200.1094 C24.1406,200.3906 24.3125,200.6094 24.4063,201.0156 C24.4688,201.4219 24.5,201.5469 24.6406,201.6719 C24.7813,201.8125 25.0156,201.9219 25.2344,201.9219 C25.5,201.9219 25.7656,201.7813 25.9375,201.5625 C26.0469,201.4063 26.0781,201.2188 26.0781,200.7969 L26.0781,199.375 C26.0781,198.9375 26.0625,198.8125 25.9688,198.6563 C25.8125,198.3906 25.5313,198.25 25.2344,198.25 C24.9375,198.25 24.7344,198.3438 24.5156,198.6563 L24.3438,198.5781 Z " fill="#000000"/><text fill="#000000" font-family="Verdana" font-size="12" lengthAdjust="spacing" textLength="95" x="36" y="207.0605">OpérationCours</text><line style="stroke:#A80036;stroke-width:1.5;" x1="8" x2="133" y1="218.9063" y2="218.9063"/><line style="stroke:#A80036;stroke-width:1.5;" x1="8" x2="133" y1="226.9063" y2="226.9063"/><!--MD5=[f6edf60997924e693a9a5571eb281b8c]
class Cours--><rect codeLine="13" fill="#FEFECE" filter="url(#f6il1rhmxjq5l)" height="73.6094" id="Cours" rx="10" ry="10" style="stroke:#A80036;stroke-width:1.5;" width="81" x="62" y="311.9063"/><ellipse cx="83.3" cy="327.9063" fill="#ADD1B2" rx="11" ry="11" style="stroke:#A80036;stroke-width:1.0;"/><path d="M85.6438,323.5781 C84.7063,323.1406 84.1125,323 83.2375,323 C80.6125,323 78.6125,325.0781 78.6125,327.7969 L78.6125,328.9219 C78.6125,331.5 80.7219,333.3906 83.6125,333.3906 C84.8313,333.3906 85.9875,333.0938 86.7375,332.5469 C87.3156,332.1406 87.6438,331.6875 87.6438,331.2969 C87.6438,330.8438 87.2531,330.4531 86.7844,330.4531 C86.5656,330.4531 86.3625,330.5313 86.175,330.7188 C85.7219,331.2031 85.7219,331.2031 85.5344,331.2969 C85.1125,331.5625 84.425,331.6875 83.6594,331.6875 C81.6125,331.6875 80.3156,330.5938 80.3156,328.8906 L80.3156,327.7969 C80.3156,326.0156 81.5656,324.7031 83.3,324.7031 C83.8781,324.7031 84.4875,324.8594 84.9563,325.1094 C85.4406,325.3906 85.6125,325.6094 85.7063,326.0156 C85.7688,326.4219 85.8,326.5469 85.9406,326.6719 C86.0813,326.8125 86.3156,326.9219 86.5344,326.9219 C86.8,326.9219 87.0656,326.7813 87.2375,326.5625 C87.3469,326.4063 87.3781,326.2188 87.3781,325.7969 L87.3781,324.375 C87.3781,323.9375 87.3625,323.8125 87.2688,323.6563 C87.1125,323.3906 86.8313,323.25 86.5344,323.25 C86.2375,323.25 86.0344,323.3438 85.8156,323.6563 L85.6438,323.5781 Z " fill="#000000"/><text fill="#000000" font-family="Verdana" font-size="12" lengthAdjust="spacing" textLength="35" x="98.7" y="332.0605">Cours</text><line style="stroke:#A80036;stroke-width:1.5;" x1="63" x2="142" y1="343.9063" y2="343.9063"/><text fill="#000000" font-family="Verdana" font-size="11" lengthAdjust="spacing" textLength="54" x="68" y="358.1167">id : String</text><text fill="#000000" font-family="Verdana" font-size="11" lengthAdjust="spacing" textLength="69" x="68" y="370.9214">nom : String</text><line style="stroke:#A80036;stroke-width:1.5;" x1="63" x2="142" y1="377.5156" y2="377.5156"/><!--MD5=[b32d763bfdb05d07119f0e8fadbdfdc1]
class GroupeCours--><rect codeLine="18" fill="#FEFECE" filter="url(#f6il1rhmxjq5l)" height="60.8047" id="GroupeCours" rx="10" ry="10" style="stroke:#A80036;stroke-width:1.5;" width="123" x="118" y="462.9063"/><ellipse cx="137.95" cy="478.9063" fill="#ADD1B2" rx="11" ry="11" style="stroke:#A80036;stroke-width:1.0;"/><path d="M140.2938,474.5781 C139.3563,474.1406 138.7625,474 137.8875,474 C135.2625,474 133.2625,476.0781 133.2625,478.7969 L133.2625,479.9219 C133.2625,482.5 135.3719,484.3906 138.2625,484.3906 C139.4813,484.3906 140.6375,484.0938 141.3875,483.5469 C141.9656,483.1406 142.2938,482.6875 142.2938,482.2969 C142.2938,481.8438 141.9031,481.4531 141.4344,481.4531 C141.2156,481.4531 141.0125,481.5313 140.825,481.7188 C140.3719,482.2031 140.3719,482.2031 140.1844,482.2969 C139.7625,482.5625 139.075,482.6875 138.3094,482.6875 C136.2625,482.6875 134.9656,481.5938 134.9656,479.8906 L134.9656,478.7969 C134.9656,477.0156 136.2156,475.7031 137.95,475.7031 C138.5281,475.7031 139.1375,475.8594 139.6063,476.1094 C140.0906,476.3906 140.2625,476.6094 140.3563,477.0156 C140.4188,477.4219 140.45,477.5469 140.5906,477.6719 C140.7313,477.8125 140.9656,477.9219 141.1844,477.9219 C141.45,477.9219 141.7156,477.7813 141.8875,477.5625 C141.9969,477.4063 142.0281,477.2188 142.0281,476.7969 L142.0281,475.375 C142.0281,474.9375 142.0125,474.8125 141.9188,474.6563 C141.7625,474.3906 141.4813,474.25 141.1844,474.25 C140.8875,474.25 140.6844,474.3438 140.4656,474.6563 L140.2938,474.5781 Z " fill="#000000"/><text fill="#000000" font-family="Verdana" font-size="12" lengthAdjust="spacing" textLength="80" x="153.05" y="483.0605">GroupeCours</text><line style="stroke:#A80036;stroke-width:1.5;" x1="119" x2="240" y1="494.9063" y2="494.9063"/><text fill="#000000" font-family="Verdana" font-size="11" lengthAdjust="spacing" textLength="111" x="124" y="509.1167">numeroGroupe : int</text><line style="stroke:#A80036;stroke-width:1.5;" x1="119" x2="240" y1="515.7109" y2="515.7109"/><!--MD5=[0ea76b077f2fe2b0557d144a0cdb3724]
class Enseignant--><rect codeLine="22" fill="#FEFECE" filter="url(#f6il1rhmxjq5l)" height="60.8047" id="Enseignant" rx="10" ry="10" style="stroke:#A80036;stroke-width:1.5;" width="97" x="201" y="48.9063"/><ellipse cx="216" cy="64.9063" fill="#ADD1B2" rx="11" ry="11" style="stroke:#A80036;stroke-width:1.0;"/><path d="M218.3438,60.5781 C217.4063,60.1406 216.8125,60 215.9375,60 C213.3125,60 211.3125,62.0781 211.3125,64.7969 L211.3125,65.9219 C211.3125,68.5 213.4219,70.3906 216.3125,70.3906 C217.5313,70.3906 218.6875,70.0938 219.4375,69.5469 C220.0156,69.1406 220.3438,68.6875 220.3438,68.2969 C220.3438,67.8438 219.9531,67.4531 219.4844,67.4531 C219.2656,67.4531 219.0625,67.5313 218.875,67.7188 C218.4219,68.2031 218.4219,68.2031 218.2344,68.2969 C217.8125,68.5625 217.125,68.6875 216.3594,68.6875 C214.3125,68.6875 213.0156,67.5938 213.0156,65.8906 L213.0156,64.7969 C213.0156,63.0156 214.2656,61.7031 216,61.7031 C216.5781,61.7031 217.1875,61.8594 217.6563,62.1094 C218.1406,62.3906 218.3125,62.6094 218.4063,63.0156 C218.4688,63.4219 218.5,63.5469 218.6406,63.6719 C218.7813,63.8125 219.0156,63.9219 219.2344,63.9219 C219.5,63.9219 219.7656,63.7813 219.9375,63.5625 C220.0469,63.4063 220.0781,63.2188 220.0781,62.7969 L220.0781,61.375 C220.0781,60.9375 220.0625,60.8125 219.9688,60.6563 C219.8125,60.3906 219.5313,60.25 219.2344,60.25 C218.9375,60.25 218.7344,60.3438 218.5156,60.6563 L218.3438,60.5781 Z " fill="#000000"/><text fill="#000000" font-family="Verdana" font-size="12" lengthAdjust="spacing" textLength="65" x="230" y="69.0605">Enseignant</text><line style="stroke:#A80036;stroke-width:1.5;" x1="202" x2="297" y1="80.9063" y2="80.9063"/><text fill="#000000" font-family="Verdana" font-size="11" lengthAdjust="spacing" textLength="76" x="207" y="95.1167">token : String</text><line style="stroke:#A80036;stroke-width:1.5;" x1="202" x2="297" y1="101.7109" y2="101.7109"/><!--MD5=[1556421839dbfb477c2a93b4c1d0861d]
class EnseignantControleur--><rect codeLine="26" fill="#FEFECE" filter="url(#f6il1rhmxjq5l)" height="48" id="EnseignantControleur" rx="10" ry="10" style="stroke:#A80036;stroke-width:1.5;" width="160" x="169.5" y="186.9063"/><ellipse cx="184.5" cy="202.9063" fill="#ADD1B2" rx="11" ry="11" style="stroke:#A80036;stroke-width:1.0;"/><path d="M186.8438,198.5781 C185.9063,198.1406 185.3125,198 184.4375,198 C181.8125,198 179.8125,200.0781 179.8125,202.7969 L179.8125,203.9219 C179.8125,206.5 181.9219,208.3906 184.8125,208.3906 C186.0313,208.3906 187.1875,208.0938 187.9375,207.5469 C188.5156,207.1406 188.8438,206.6875 188.8438,206.2969 C188.8438,205.8438 188.4531,205.4531 187.9844,205.4531 C187.7656,205.4531 187.5625,205.5313 187.375,205.7188 C186.9219,206.2031 186.9219,206.2031 186.7344,206.2969 C186.3125,206.5625 185.625,206.6875 184.8594,206.6875 C182.8125,206.6875 181.5156,205.5938 181.5156,203.8906 L181.5156,202.7969 C181.5156,201.0156 182.7656,199.7031 184.5,199.7031 C185.0781,199.7031 185.6875,199.8594 186.1563,200.1094 C186.6406,200.3906 186.8125,200.6094 186.9063,201.0156 C186.9688,201.4219 187,201.5469 187.1406,201.6719 C187.2813,201.8125 187.5156,201.9219 187.7344,201.9219 C188,201.9219 188.2656,201.7813 188.4375,201.5625 C188.5469,201.4063 188.5781,201.2188 188.5781,200.7969 L188.5781,199.375 C188.5781,198.9375 188.5625,198.8125 188.4688,198.6563 C188.3125,198.3906 188.0313,198.25 187.7344,198.25 C187.4375,198.25 187.2344,198.3438 187.0156,198.6563 L186.8438,198.5781 Z " fill="#000000"/><text fill="#000000" font-family="Verdana" font-size="12" lengthAdjust="spacing" textLength="128" x="198.5" y="207.0605">EnseignantControleur</text><line style="stroke:#A80036;stroke-width:1.5;" x1="170.5" x2="328.5" y1="218.9063" y2="218.9063"/><line style="stroke:#A80036;stroke-width:1.5;" x1="170.5" x2="328.5" y1="226.9063" y2="226.9063"/><!--MD5=[f84e857de5a9ca5678aed72e3e98d0a5]
class Etudiant--><rect codeLine="30" fill="#FEFECE" filter="url(#f6il1rhmxjq5l)" height="60.8047" id="Etudiant" rx="10" ry="10" style="stroke:#A80036;stroke-width:1.5;" width="81" x="139" y="626.4063"/><ellipse cx="154.9" cy="642.4063" fill="#ADD1B2" rx="11" ry="11" style="stroke:#A80036;stroke-width:1.0;"/><path d="M157.2438,638.0781 C156.3063,637.6406 155.7125,637.5 154.8375,637.5 C152.2125,637.5 150.2125,639.5781 150.2125,642.2969 L150.2125,643.4219 C150.2125,646 152.3219,647.8906 155.2125,647.8906 C156.4313,647.8906 157.5875,647.5938 158.3375,647.0469 C158.9156,646.6406 159.2438,646.1875 159.2438,645.7969 C159.2438,645.3438 158.8531,644.9531 158.3844,644.9531 C158.1656,644.9531 157.9625,645.0313 157.775,645.2188 C157.3219,645.7031 157.3219,645.7031 157.1344,645.7969 C156.7125,646.0625 156.025,646.1875 155.2594,646.1875 C153.2125,646.1875 151.9156,645.0938 151.9156,643.3906 L151.9156,642.2969 C151.9156,640.5156 153.1656,639.2031 154.9,639.2031 C155.4781,639.2031 156.0875,639.3594 156.5563,639.6094 C157.0406,639.8906 157.2125,640.1094 157.3063,640.5156 C157.3688,640.9219 157.4,641.0469 157.5406,641.1719 C157.6813,641.3125 157.9156,641.4219 158.1344,641.4219 C158.4,641.4219 158.6656,641.2813 158.8375,641.0625 C158.9469,640.9063 158.9781,640.7188 158.9781,640.2969 L158.9781,638.875 C158.9781,638.4375 158.9625,638.3125 158.8688,638.1563 C158.7125,637.8906 158.4313,637.75 158.1344,637.75 C157.8375,637.75 157.6344,637.8438 157.4156,638.1563 L157.2438,638.0781 Z " fill="#000000"/><text fill="#000000" font-family="Verdana" font-size="12" lengthAdjust="spacing" textLength="47" x="169.1" y="646.5605">Etudiant</text><line style="stroke:#A80036;stroke-width:1.5;" x1="140" x2="219" y1="658.4063" y2="658.4063"/><text fill="#000000" font-family="Verdana" font-size="11" lengthAdjust="spacing" textLength="69" x="145" y="672.6167">nom : String</text><line style="stroke:#A80036;stroke-width:1.5;" x1="140" x2="219" y1="679.2109" y2="679.2109"/><!--MD5=[39d6d2ea03de602dbf4d534e70c872a9]
class Tag--><rect codeLine="34" fill="#FEFECE" filter="url(#f6il1rhmxjq5l)" height="60.8047" id="Tag" rx="10" ry="10" style="stroke:#A80036;stroke-width:1.5;" width="81" x="346" y="789.9063"/><ellipse cx="373.15" cy="805.9063" fill="#ADD1B2" rx="11" ry="11" style="stroke:#A80036;stroke-width:1.0;"/><path d="M375.4938,801.5781 C374.5563,801.1406 373.9625,801 373.0875,801 C370.4625,801 368.4625,803.0781 368.4625,805.7969 L368.4625,806.9219 C368.4625,809.5 370.5719,811.3906 373.4625,811.3906 C374.6813,811.3906 375.8375,811.0938 376.5875,810.5469 C377.1656,810.1406 377.4938,809.6875 377.4938,809.2969 C377.4938,808.8438 377.1031,808.4531 376.6344,808.4531 C376.4156,808.4531 376.2125,808.5313 376.025,808.7188 C375.5719,809.2031 375.5719,809.2031 375.3844,809.2969 C374.9625,809.5625 374.275,809.6875 373.5094,809.6875 C371.4625,809.6875 370.1656,808.5938 370.1656,806.8906 L370.1656,805.7969 C370.1656,804.0156 371.4156,802.7031 373.15,802.7031 C373.7281,802.7031 374.3375,802.8594 374.8063,803.1094 C375.2906,803.3906 375.4625,803.6094 375.5563,804.0156 C375.6188,804.4219 375.65,804.5469 375.7906,804.6719 C375.9313,804.8125 376.1656,804.9219 376.3844,804.9219 C376.65,804.9219 376.9156,804.7813 377.0875,804.5625 C377.1969,804.4063 377.2281,804.2188 377.2281,803.7969 L377.2281,802.375 C377.2281,801.9375 377.2125,801.8125 377.1188,801.6563 C376.9625,801.3906 376.6813,801.25 376.3844,801.25 C376.0875,801.25 375.8844,801.3438 375.6656,801.6563 L375.4938,801.5781 Z " fill="#000000"/><text fill="#000000" font-family="Verdana" font-size="12" lengthAdjust="spacing" textLength="22" x="389.85" y="810.0605">Tag</text><line style="stroke:#A80036;stroke-width:1.5;" x1="347" x2="426" y1="821.9063" y2="821.9063"/><text fill="#000000" font-family="Verdana" font-size="11" lengthAdjust="spacing" textLength="69" x="352" y="836.1167">nom : String</text><line style="stroke:#A80036;stroke-width:1.5;" x1="347" x2="426" y1="842.7109" y2="842.7109"/><!--MD5=[fc7123defb831ecdd44b2d9bcef6cceb]
class Question--><rect codeLine="38" fill="#FEFECE" filter="url(#f6il1rhmxjq5l)" height="112.0234" id="Question" rx="10" ry="10" style="stroke:#A80036;stroke-width:1.5;" width="191" x="291" y="600.9063"/><ellipse cx="355.25" cy="616.9063" fill="#ADD1B2" rx="11" ry="11" style="stroke:#A80036;stroke-width:1.0;"/><path d="M357.5938,612.5781 C356.6563,612.1406 356.0625,612 355.1875,612 C352.5625,612 350.5625,614.0781 350.5625,616.7969 L350.5625,617.9219 C350.5625,620.5 352.6719,622.3906 355.5625,622.3906 C356.7813,622.3906 357.9375,622.0938 358.6875,621.5469 C359.2656,621.1406 359.5938,620.6875 359.5938,620.2969 C359.5938,619.8438 359.2031,619.4531 358.7344,619.4531 C358.5156,619.4531 358.3125,619.5313 358.125,619.7188 C357.6719,620.2031 357.6719,620.2031 357.4844,620.2969 C357.0625,620.5625 356.375,620.6875 355.6094,620.6875 C353.5625,620.6875 352.2656,619.5938 352.2656,617.8906 L352.2656,616.7969 C352.2656,615.0156 353.5156,613.7031 355.25,613.7031 C355.8281,613.7031 356.4375,613.8594 356.9063,614.1094 C357.3906,614.3906 357.5625,614.6094 357.6563,615.0156 C357.7188,615.4219 357.75,615.5469 357.8906,615.6719 C358.0313,615.8125 358.2656,615.9219 358.4844,615.9219 C358.75,615.9219 359.0156,615.7813 359.1875,615.5625 C359.2969,615.4063 359.3281,615.2188 359.3281,614.7969 L359.3281,613.375 C359.3281,612.9375 359.3125,612.8125 359.2188,612.6563 C359.0625,612.3906 358.7813,612.25 358.4844,612.25 C358.1875,612.25 357.9844,612.3438 357.7656,612.6563 L357.5938,612.5781 Z " fill="#000000"/><text fill="#000000" font-family="Verdana" font-size="12" lengthAdjust="spacing" textLength="54" x="375.75" y="621.0605">Question</text><line style="stroke:#A80036;stroke-width:1.5;" x1="292" x2="481" y1="632.9063" y2="632.9063"/><text fill="#000000" font-family="Verdana" font-size="11" lengthAdjust="spacing" textLength="69" x="297" y="647.1167">nom : String</text><text fill="#000000" font-family="Verdana" font-size="11" lengthAdjust="spacing" textLength="126" x="297" y="659.9214">texteQuestion : String</text><text fill="#000000" font-family="Verdana" font-size="11" lengthAdjust="spacing" textLength="104" x="297" y="672.7261">reponse : boolean</text><text fill="#000000" font-family="Verdana" font-size="11" lengthAdjust="spacing" textLength="162" x="297" y="685.5308">texteBonneReponse : String</text><text fill="#000000" font-family="Verdana" font-size="11" lengthAdjust="spacing" textLength="179" x="297" y="698.3354">texteMauvaiseReponse : String</text><line style="stroke:#A80036;stroke-width:1.5;" x1="292" x2="481" y1="704.9297" y2="704.9297"/><!--MD5=[15a8274efa94a9967ed633bab6315c30]
class OpérationQuestion--><rect fill="#FEFECE" filter="url(#f6il1rhmxjq5l)" height="48" id="OpérationQuestion" rx="10" ry="10" style="stroke:#A80036;stroke-width:1.5;" width="146" x="364.5" y="186.9063"/><ellipse cx="379.5" cy="202.9063" fill="#ADD1B2" rx="11" ry="11" style="stroke:#A80036;stroke-width:1.0;"/><path d="M381.8438,198.5781 C380.9063,198.1406 380.3125,198 379.4375,198 C376.8125,198 374.8125,200.0781 374.8125,202.7969 L374.8125,203.9219 C374.8125,206.5 376.9219,208.3906 379.8125,208.3906 C381.0313,208.3906 382.1875,208.0938 382.9375,207.5469 C383.5156,207.1406 383.8438,206.6875 383.8438,206.2969 C383.8438,205.8438 383.4531,205.4531 382.9844,205.4531 C382.7656,205.4531 382.5625,205.5313 382.375,205.7188 C381.9219,206.2031 381.9219,206.2031 381.7344,206.2969 C381.3125,206.5625 380.625,206.6875 379.8594,206.6875 C377.8125,206.6875 376.5156,205.5938 376.5156,203.8906 L376.5156,202.7969 C376.5156,201.0156 377.7656,199.7031 379.5,199.7031 C380.0781,199.7031 380.6875,199.8594 381.1563,200.1094 C381.6406,200.3906 381.8125,200.6094 381.9063,201.0156 C381.9688,201.4219 382,201.5469 382.1406,201.6719 C382.2813,201.8125 382.5156,201.9219 382.7344,201.9219 C383,201.9219 383.2656,201.7813 383.4375,201.5625 C383.5469,201.4063 383.5781,201.2188 383.5781,200.7969 L383.5781,199.375 C383.5781,198.9375 383.5625,198.8125 383.4688,198.6563 C383.3125,198.3906 383.0313,198.25 382.7344,198.25 C382.4375,198.25 382.2344,198.3438 382.0156,198.6563 L381.8438,198.5781 Z " fill="#000000"/><text fill="#000000" font-family="Verdana" font-size="12" lengthAdjust="spacing" textLength="114" x="393.5" y="207.0605">OpérationQuestion</text><line style="stroke:#A80036;stroke-width:1.5;" x1="365.5" x2="509.5" y1="218.9063" y2="218.9063"/><line style="stroke:#A80036;stroke-width:1.5;" x1="365.5" x2="509.5" y1="226.9063" y2="226.9063"/><!--MD5=[fa7b3b4cd40be218cddf3514714b363b]
link Enseignant to EnseignantControleur--><path codeLine="46" d="M249.5,110.2373 C249.5,133.6183 249.5,165.2993 249.5,186.8323 " fill="none" id="Enseignant-EnseignantControleur" style="stroke:#A80036;stroke-width:1.0;"/><polygon fill="#000000" points="254.5,153.4727,257.4389,144.4276,251.5611,144.4276,254.5,153.4727" style="stroke:#000000;stroke-width:1.0;"/><text fill="#000000" font-family="Verdana" font-size="13" lengthAdjust="spacing" textLength="37" x="263.5" y="152.9731">utilise</text><text fill="#000000" font-family="Verdana" font-size="13" lengthAdjust="spacing" textLength="7" x="241.8109" y="129.8829">*</text><text fill="#000000" font-family="Verdana" font-size="13" lengthAdjust="spacing" textLength="8" x="240.475" y="175.8253">1</text><!--MD5=[3353cdc6dcb0c90a2f9b3de3d308dd8a]
link EnseignantControleur to Opération--><path codeLine="48" d="M249.5,234.9443 C249.5,260.1183 249.5,299.4363 249.5,324.6813 " fill="none" id="EnseignantControleur-Opération" style="stroke:#A80036;stroke-width:1.0;"/><polygon fill="#000000" points="254.5,278.4727,257.4389,269.4276,251.5611,269.4276,254.5,278.4727" style="stroke:#000000;stroke-width:1.0;"/><text fill="#000000" font-family="Verdana" font-size="13" lengthAdjust="spacing" textLength="52" x="263.5" y="277.9731">execute</text><text fill="#000000" font-family="Verdana" font-size="13" lengthAdjust="spacing" textLength="8" x="240.475" y="255.1098">1</text><text fill="#000000" font-family="Verdana" font-size="13" lengthAdjust="spacing" textLength="7" x="241.6469" y="314.0314">*</text><!--MD5=[256db775b026855b6ec046b300952270]
link OpérationQuestion to Opération--><path codeLine="49" d="M403.667,234.9443 C403.667,274.4823 403.667,348.9063 403.667,348.9063 C403.667,348.9063 315.755,348.9063 315.755,348.9063 " fill="none" id="OpérationQuestion-to-Opération" style="stroke:#A80036;stroke-width:1.0;"/><polygon fill="none" points="315.755,355.9063,295.755,348.9063,315.755,341.9063,315.755,355.9063" style="stroke:#A80036;stroke-width:1.0;"/><!--MD5=[18a5954c9bf1a8e6483a1dfb565bcb59]
link OpérationCours to Opération--><path codeLine="50" d="M134.167,210.9063 C146.797,210.9063 156.25,210.9063 156.25,210.9063 C156.25,210.9063 156.25,348.9063 156.25,348.9063 C156.25,348.9063 183.421,348.9063 183.421,348.9063 " fill="none" id="OpérationCours-to-Opération" style="stroke:#A80036;stroke-width:1.0;"/><polygon fill="none" points="183.421,341.9063,203.421,348.9063,183.421,355.9063,183.421,341.9063" style="stroke:#A80036;stroke-width:1.0;"/><!--MD5=[95cede3e34d1120bc3017fcfcab3a4fd]
link OpérationCours to Cours--><path codeLine="52" d="M98,234.9443 C98,256.1033 98,287.2533 98,311.6413 " fill="none" id="OpérationCours-Cours" style="stroke:#A80036;stroke-width:1.0;"/><polygon fill="#000000" points="81.5,278.4727,84.4389,269.4276,78.5611,269.4276,81.5,278.4727" style="stroke:#000000;stroke-width:1.0;"/><text fill="#000000" font-family="Verdana" font-size="13" lengthAdjust="spacing" textLength="61" x="90.5" y="277.9731">opere sur</text><text fill="#000000" font-family="Verdana" font-size="13" lengthAdjust="spacing" textLength="8" x="96.0219" y="255.1098">1</text><text fill="#000000" font-family="Verdana" font-size="13" lengthAdjust="spacing" textLength="8" x="88.4859" y="300.781">1</text><!--MD5=[dd19a10ffb7e2e1829c46178384b5825]
link Cours to GroupeCours--><path codeLine="53" d="M130.5,386.1183 C130.5,409.8673 130.5,440.2793 130.5,462.6563 " fill="none" id="Cours-GroupeCours" style="stroke:#A80036;stroke-width:1.0;"/><polygon fill="#000000" points="123.5,429.4727,126.4389,420.4276,120.5611,420.4276,123.5,429.4727" style="stroke:#000000;stroke-width:1.0;"/><text fill="#000000" font-family="Verdana" font-size="13" lengthAdjust="spacing" textLength="52" x="132.5" y="428.9731">contient</text><text fill="#000000" font-family="Verdana" font-size="13" lengthAdjust="spacing" textLength="8" x="126.475" y="405.6339">1</text><text fill="#000000" font-family="Verdana" font-size="13" lengthAdjust="spacing" textLength="7" x="112.6719" y="451.8679">*</text><!--MD5=[625dbc544eb865b1eb2408f81c3a0035]
link GroupeCours to Question--><path codeLine="54" d="M230.5,524.1253 C230.5,559.8263 230.5,613.9063 230.5,613.9063 C230.5,613.9063 258.522,613.9063 290.814,613.9063 " fill="none" id="GroupeCours-Question" style="stroke:#A80036;stroke-width:1.0;"/><polygon fill="#000000" points="325.2882,566.6231,322.6838,557.476,317.8047,560.7538,325.2882,566.6231" style="stroke:#000000;stroke-width:1.0;"/><text fill="#000000" font-family="Verdana" font-size="13" lengthAdjust="spacing" textLength="52" x="331.5" y="566.9731">contient</text><text fill="#000000" font-family="Verdana" font-size="13" lengthAdjust="spacing" textLength="8" x="231.7531" y="543.7488">1</text><text fill="#000000" font-family="Verdana" font-size="13" lengthAdjust="spacing" textLength="7" x="275.9101" y="606.9533">*</text><!--MD5=[e363e365dd100d39586a4214bb707f5e]
link OpérationQuestion to Question--><path codeLine="56" d="M442.833,235.2023 C442.833,304.1863 442.833,502.5883 442.833,600.6573 " fill="none" id="OpérationQuestion-Question" style="stroke:#A80036;stroke-width:1.0;"/><polygon fill="#000000" points="427.5,429.4727,430.4389,420.4276,424.5611,420.4276,427.5,429.4727" style="stroke:#000000;stroke-width:1.0;"/><text fill="#000000" font-family="Verdana" font-size="13" lengthAdjust="spacing" textLength="61" x="436.5" y="428.9731">opere sur</text><text fill="#000000" font-family="Verdana" font-size="13" lengthAdjust="spacing" textLength="8" x="435.1579" y="255.0356">1</text><text fill="#000000" font-family="Verdana" font-size="13" lengthAdjust="spacing" textLength="8" x="441.2111" y="589.9614">1</text><!--MD5=[5b028c9722f2ce4b8d1edb416a259790]
link GroupeCours to Etudiant--><path codeLine="57" d="M179.5,524.1592 C179.5,553.3902 179.5,597.1053 179.5,626.2913 " fill="none" id="GroupeCours-Etudiant" style="stroke:#A80036;stroke-width:1.0;"/><polygon fill="#000000" points="184.5,567.4727,187.4389,558.4276,181.5611,558.4276,184.5,567.4727" style="stroke:#000000;stroke-width:1.0;"/><text fill="#000000" font-family="Verdana" font-size="13" lengthAdjust="spacing" textLength="52" x="193.5" y="566.9731">contient</text><text fill="#000000" font-family="Verdana" font-size="13" lengthAdjust="spacing" textLength="8" x="170.7125" y="543.7895">1</text><text fill="#000000" font-family="Verdana" font-size="13" lengthAdjust="spacing" textLength="7" x="171.7781" y="615.5308">*</text><!--MD5=[e54c705208b6e33fdf6605af36c39147]
link Question to Tag--><path codeLine="59" d="M386.5,713.1733 C386.5,738.8533 386.5,768.2602 386.5,789.776 " fill="none" id="Question-Tag" style="stroke:#A80036;stroke-width:1.0;"/><polygon fill="#000000" points="391.5,746.4727,388.5611,755.5177,394.4389,755.5177,391.5,746.4727" style="stroke:#000000;stroke-width:1.0;"/><text fill="#000000" font-family="Verdana" font-size="13" lengthAdjust="spacing" textLength="67" x="400.5" y="755.9731">categorise</text><text fill="#000000" font-family="Verdana" font-size="13" lengthAdjust="spacing" textLength="8" x="378.0125" y="733.0184">1</text><text fill="#000000" font-family="Verdana" font-size="13" lengthAdjust="spacing" textLength="7" x="378.7781" y="779.0124">*</text><!--MD5=[22996265d0281edd2a32c856801bc6d1]
@startuml
skinparam defaultfontname Verdana
skinparam RoundCorner 20
skinparam linetype ortho

title Modèle du domaine (adapté au Cas d'utilisation \n ajouter et récupérer )

class Opération {

}

class OpérationCours

class Cours {
    id : String
    nom : String
}

class GroupeCours {
    numeroGroupe : int
}

class Enseignant {
    token : String
}

class EnseignantControleur {

}

class Etudiant {
    nom : String
}

class Tag{
    nom : String
}

class Question{
    nom : String
    texteQuestion : String
    reponse : boolean
    texteBonneReponse : String
    texteMauvaiseReponse : String
}

Enseignant "*"- - "1" EnseignantControleur : utilise >

EnseignantControleur "1" - - "*" Opération : execute >
OpérationQuestion - -|> Opération
OpérationCours - -|> Opération

OpérationCours "1"- - "1"Cours : opere sur >
Cours "1"- - "*"GroupeCours : contient >
GroupeCours"1" - - "*"Question : contient >

OpérationQuestion "1"- - "1"Question : opere sur >
GroupeCours "1"- - "*"Etudiant : contient >

Question "1" - - "*"Tag : < categorise
@enduml

PlantUML version 1.2021.7(Sun May 23 12:40:07 UTC 2021)
(GPL source distribution)
Java Runtime: Java(TM) SE Runtime Environment
JVM: Java HotSpot(TM) 64-Bit Server VM
Default Encoding: UTF-8
Language: en
Country: US
--></g></svg>