<?xml version="1.0" encoding="UTF-8" standalone="no"?><svg xmlns="http://www.w3.org/2000/svg" xmlns:xlink="http://www.w3.org/1999/xlink" contentScriptType="application/ecmascript" contentStyleType="text/css" height="1357px" preserveAspectRatio="none" style="width:956px;height:1357px;background:#FFFFFF;" version="1.1" viewBox="0 0 956 1357" width="956px" zoomAndPan="magnify"><defs><filter height="300%" id="f1as80hdw4ati2" width="300%" x="-1" y="-1"><feGaussianBlur result="blurOut" stdDeviation="2.0"/><feColorMatrix in="blurOut" result="blurOut2" type="matrix" values="0 0 0 0 0 0 0 0 0 0 0 0 0 0 0 0 0 0 .4 0"/><feOffset dx="4.0" dy="4.0" in="blurOut2" result="blurOut3"/><feBlend in="SourceGraphic" in2="blurOut3" mode="normal"/></filter><filter height="1" id="b1as80hdw4ati20" width="1" x="0" y="0"><feFlood flood-color="#0000FF" result="flood"/><feComposite in="SourceGraphic" in2="flood" operator="over"/></filter><filter height="1" id="b1as80hdw4ati21" width="1" x="0" y="0"><feFlood flood-color="#FFFF00" result="flood"/><feComposite in="SourceGraphic" in2="flood" operator="over"/></filter><filter height="1" id="b1as80hdw4ati22" width="1" x="0" y="0"><feFlood flood-color="#FF0000" result="flood"/><feComposite in="SourceGraphic" in2="flood" operator="over"/></filter></defs><g><text fill="#000000" font-family="Verdana" font-size="18" lengthAdjust="spacing" textLength="179" x="382" y="16.708">Modèle du domaine</text><!--MD5=[a7e36d4aa44b43fc8fb02c9c2fa0b819]
cluster SGB--><polygon fill="#FFFFFF" filter="url(#f1as80hdw4ati2)" points="16,26.9531,55,26.9531,62,49.25,445,49.25,445,699.9531,16,699.9531,16,26.9531" style="stroke:#000000;stroke-width:1.5;"/><line style="stroke:#000000;stroke-width:1.5;" x1="16" x2="62" y1="49.25" y2="49.25"/><text fill="#000000" font-family="Verdana" font-size="14" font-weight="bold" lengthAdjust="spacing" textLength="33" x="20" y="41.9482">SGB</text><!--MD5=[b72d85ecf124ab8e7e9b42ea86690e20]
cluster SGA--><polygon fill="#FFFFFF" filter="url(#f1as80hdw4ati2)" points="469,379.9531,508,379.9531,515,402.25,867,402.25,867,1247.9531,469,1247.9531,469,379.9531" style="stroke:#000000;stroke-width:1.5;"/><line style="stroke:#000000;stroke-width:1.5;" x1="469" x2="515" y1="402.25" y2="402.25"/><text fill="#000000" font-family="Verdana" font-size="14" font-weight="bold" lengthAdjust="spacing" textLength="33" x="473" y="394.9482">SGA</text><!--MD5=[10a08b655f733f3f3e8b0ffe69f4343a]
class Université--><rect codeLine="9" fill="#FEFECE" filter="url(#f1as80hdw4ati2)" height="48" id="Université" rx="10" ry="10" style="stroke:#A80036;stroke-width:1.5;" width="93" x="183.5" y="61.9531"/><ellipse cx="198.5" cy="77.9531" fill="#FF0000" rx="11" ry="11" style="stroke:#A80036;stroke-width:1.0;"/><path d="M197.0156,81.25 C198.5156,79.9688 199.5,79.1094 199.9531,78.6875 C201.6406,77.1563 202.0469,76.5156 202.0469,75.4063 C202.0469,73.5156 200.5,72.1094 198.4375,72.1094 C197.4219,72.1094 196.4531,72.4531 195.7813,73.0625 C195.2031,73.5938 194.7656,74.4219 194.7656,74.9688 C194.7656,75.4063 195.1563,75.7813 195.6094,75.7813 C195.9688,75.7813 196.2813,75.5781 196.375,75.2813 C196.5625,74.7344 196.5781,74.7031 196.75,74.5 C197.125,74.0625 197.7188,73.8125 198.3906,73.8125 C199.5,73.8125 200.3438,74.4688 200.3438,75.3438 C200.3438,75.9219 200.0625,76.2969 198.3594,77.8438 C197.5938,78.5313 197.2813,78.8125 194.4219,81.1719 L194.4219,82.9531 L202.1406,82.9531 L202.1406,81.4531 C202.1406,81.0469 202.1094,80.8906 202.0156,80.75 C201.8594,80.4844 201.5781,80.3281 201.2813,80.3281 C200.7656,80.3281 200.4844,80.6406 200.4375,81.25 L197.0156,81.25 Z " fill="#000000"/><text fill="#000000" font-family="Verdana" font-size="12" lengthAdjust="spacing" textLength="61" x="212.5" y="82.1074">Université</text><line style="stroke:#A80036;stroke-width:1.5;" x1="184.5" x2="275.5" y1="93.9531" y2="93.9531"/><line style="stroke:#A80036;stroke-width:1.5;" x1="184.5" x2="275.5" y1="101.9531" y2="101.9531"/><!--MD5=[63c8a86559697f2113f14d70f80cad38]
class CatalogueCours--><rect codeLine="11" fill="#FEFECE" filter="url(#f1as80hdw4ati2)" height="48" id="CatalogueCours" rx="10" ry="10" style="stroke:#A80036;stroke-width:1.5;" width="127" x="49.5" y="186.9531"/><ellipse cx="64.5" cy="202.9531" fill="#FF0000" rx="11" ry="11" style="stroke:#A80036;stroke-width:1.0;"/><path d="M63.0156,206.25 C64.5156,204.9688 65.5,204.1094 65.9531,203.6875 C67.6406,202.1563 68.0469,201.5156 68.0469,200.4063 C68.0469,198.5156 66.5,197.1094 64.4375,197.1094 C63.4219,197.1094 62.4531,197.4531 61.7813,198.0625 C61.2031,198.5938 60.7656,199.4219 60.7656,199.9688 C60.7656,200.4063 61.1563,200.7813 61.6094,200.7813 C61.9688,200.7813 62.2813,200.5781 62.375,200.2813 C62.5625,199.7344 62.5781,199.7031 62.75,199.5 C63.125,199.0625 63.7188,198.8125 64.3906,198.8125 C65.5,198.8125 66.3438,199.4688 66.3438,200.3438 C66.3438,200.9219 66.0625,201.2969 64.3594,202.8438 C63.5938,203.5313 63.2813,203.8125 60.4219,206.1719 L60.4219,207.9531 L68.1406,207.9531 L68.1406,206.4531 C68.1406,206.0469 68.1094,205.8906 68.0156,205.75 C67.8594,205.4844 67.5781,205.3281 67.2813,205.3281 C66.7656,205.3281 66.4844,205.6406 66.4375,206.25 L63.0156,206.25 Z " fill="#000000"/><text fill="#000000" font-family="Verdana" font-size="12" lengthAdjust="spacing" textLength="95" x="78.5" y="207.1074">CatalogueCours</text><line style="stroke:#A80036;stroke-width:1.5;" x1="50.5" x2="175.5" y1="218.9531" y2="218.9531"/><line style="stroke:#A80036;stroke-width:1.5;" x1="50.5" x2="175.5" y1="226.9531" y2="226.9531"/><!--MD5=[0ea76b077f2fe2b0557d144a0cdb3724]
class Enseignant--><rect codeLine="13" fill="#FEFECE" filter="url(#f1as80hdw4ati2)" height="86.4141" id="Enseignant" rx="10" ry="10" style="stroke:#A80036;stroke-width:1.5;" width="100" x="320" y="271.4531"/><ellipse cx="336.35" cy="287.4531" fill="#FFFF00" rx="11" ry="11" style="stroke:#A80036;stroke-width:1.0;"/><path d="M337.3031,281.6094 L333.6938,282.5469 C333.0219,282.7188 332.7875,282.9219 332.7875,283.4063 C332.7875,283.9063 333.1313,284.2969 333.5844,284.2969 C333.7406,284.2969 333.8031,284.2813 334.1156,284.1875 L335.6,283.7969 L335.6,290.75 L333.8813,290.75 C333.4438,290.75 333.3188,290.7656 333.1625,290.875 C332.9125,291.0313 332.7563,291.3125 332.7563,291.6094 C332.7563,291.8594 332.8969,292.125 333.1156,292.2813 C333.2563,292.4063 333.4906,292.4531 333.8813,292.4531 L339.0219,292.4531 C339.35,292.4531 339.6156,292.4063 339.725,292.3281 C339.9906,292.1719 340.1313,291.8906 340.1313,291.6094 C340.1313,291.3281 340.0063,291.0781 339.7875,290.9063 C339.6156,290.7813 339.475,290.75 339.0219,290.75 L337.3031,290.75 L337.3031,281.6094 Z " fill="#000000"/><text fill="#000000" font-family="Verdana" font-size="12" lengthAdjust="spacing" textLength="65" x="350.65" y="291.6074">Enseignant</text><line style="stroke:#A80036;stroke-width:1.5;" x1="321" x2="419" y1="303.4531" y2="303.4531"/><text fill="#000000" font-family="Verdana" font-size="11" lengthAdjust="spacing" textLength="88" x="326" y="317.6636">prenom : String</text><text fill="#000000" font-family="Verdana" font-size="11" lengthAdjust="spacing" textLength="69" x="326" y="330.4683">nom : String</text><text fill="#000000" font-family="Verdana" font-size="11" lengthAdjust="spacing" textLength="86" x="326" y="343.2729">courriel : String</text><line style="stroke:#A80036;stroke-width:1.5;" x1="321" x2="419" y1="349.8672" y2="349.8672"/><!--MD5=[f84e857de5a9ca5678aed72e3e98d0a5]
class Etudiant--><rect codeLine="19" fill="#FEFECE" filter="url(#f1as80hdw4ati2)" height="99.2188" id="Etudiant" rx="10" ry="10" style="stroke:#A80036;stroke-width:1.5;" width="146" x="157" y="264.9531"/><ellipse cx="202.25" cy="280.9531" fill="#FFFF00" rx="11" ry="11" style="stroke:#A80036;stroke-width:1.0;"/><path d="M203.2031,275.1094 L199.5938,276.0469 C198.9219,276.2188 198.6875,276.4219 198.6875,276.9063 C198.6875,277.4063 199.0313,277.7969 199.4844,277.7969 C199.6406,277.7969 199.7031,277.7813 200.0156,277.6875 L201.5,277.2969 L201.5,284.25 L199.7813,284.25 C199.3438,284.25 199.2188,284.2656 199.0625,284.375 C198.8125,284.5313 198.6563,284.8125 198.6563,285.1094 C198.6563,285.3594 198.7969,285.625 199.0156,285.7813 C199.1563,285.9063 199.3906,285.9531 199.7813,285.9531 L204.9219,285.9531 C205.25,285.9531 205.5156,285.9063 205.625,285.8281 C205.8906,285.6719 206.0313,285.3906 206.0313,285.1094 C206.0313,284.8281 205.9063,284.5781 205.6875,284.4063 C205.5156,284.2813 205.375,284.25 204.9219,284.25 L203.2031,284.25 L203.2031,275.1094 Z " fill="#000000"/><text fill="#000000" font-family="Verdana" font-size="12" lengthAdjust="spacing" textLength="47" x="222.75" y="285.1074">Etudiant</text><line style="stroke:#A80036;stroke-width:1.5;" x1="158" x2="302" y1="296.9531" y2="296.9531"/><text fill="#000000" font-family="Verdana" font-size="11" lengthAdjust="spacing" textLength="69" x="163" y="311.1636">nom : String</text><text fill="#000000" font-family="Verdana" font-size="11" lengthAdjust="spacing" textLength="134" x="163" y="323.9683">codePermanent : String</text><text fill="#000000" font-family="Verdana" font-size="11" lengthAdjust="spacing" textLength="88" x="163" y="336.7729">prenom : String</text><text fill="#000000" font-family="Verdana" font-size="11" lengthAdjust="spacing" textLength="86" x="163" y="349.5776">courriel : String</text><line style="stroke:#A80036;stroke-width:1.5;" x1="158" x2="302" y1="356.1719" y2="356.1719"/><!--MD5=[f6edf60997924e693a9a5571eb281b8c]
class Cours--><rect codeLine="26" fill="#FEFECE" filter="url(#f1as80hdw4ati2)" height="73.6094" id="Cours" rx="10" ry="10" style="stroke:#A80036;stroke-width:1.5;" width="83" x="32.5" y="420.9531"/><ellipse cx="54.7" cy="436.9531" fill="#0000FF" rx="11" ry="11" style="stroke:#A80036;stroke-width:1.0;"/><path d="M55.6531,431.1094 L52.0438,432.0469 C51.3719,432.2188 51.1375,432.4219 51.1375,432.9063 C51.1375,433.4063 51.4813,433.7969 51.9344,433.7969 C52.0906,433.7969 52.1531,433.7813 52.4656,433.6875 L53.95,433.2969 L53.95,440.25 L52.2313,440.25 C51.7938,440.25 51.6688,440.2656 51.5125,440.375 C51.2625,440.5313 51.1063,440.8125 51.1063,441.1094 C51.1063,441.3594 51.2469,441.625 51.4656,441.7813 C51.6063,441.9063 51.8406,441.9531 52.2313,441.9531 L57.3719,441.9531 C57.7,441.9531 57.9656,441.9063 58.075,441.8281 C58.3406,441.6719 58.4813,441.3906 58.4813,441.1094 C58.4813,440.8281 58.3563,440.5781 58.1375,440.4063 C57.9656,440.2813 57.825,440.25 57.3719,440.25 L55.6531,440.25 L55.6531,431.1094 Z " fill="#000000"/><text fill="#000000" font-family="Verdana" font-size="12" lengthAdjust="spacing" textLength="35" x="70.3" y="441.1074">Cours</text><line style="stroke:#A80036;stroke-width:1.5;" x1="33.5" x2="114.5" y1="452.9531" y2="452.9531"/><text fill="#000000" font-family="Verdana" font-size="11" lengthAdjust="spacing" textLength="71" x="38.5" y="467.1636">id : numbers</text><text fill="#000000" font-family="Verdana" font-size="11" lengthAdjust="spacing" textLength="69" x="38.5" y="479.9683">nom : String</text><line style="stroke:#A80036;stroke-width:1.5;" x1="33.5" x2="114.5" y1="486.5625" y2="486.5625"/><!--MD5=[b32d763bfdb05d07119f0e8fadbdfdc1]
class GroupeCours--><rect codeLine="31" fill="#FEFECE" filter="url(#f1as80hdw4ati2)" height="73.6094" id="GroupeCours" rx="10" ry="10" style="stroke:#A80036;stroke-width:1.5;" width="201" x="225.5" y="609.9531"/><ellipse cx="281.75" cy="625.9531" fill="#FFFF00" rx="11" ry="11" style="stroke:#A80036;stroke-width:1.0;"/><path d="M282.7031,620.1094 L279.0938,621.0469 C278.4219,621.2188 278.1875,621.4219 278.1875,621.9063 C278.1875,622.4063 278.5313,622.7969 278.9844,622.7969 C279.1406,622.7969 279.2031,622.7813 279.5156,622.6875 L281,622.2969 L281,629.25 L279.2813,629.25 C278.8438,629.25 278.7188,629.2656 278.5625,629.375 C278.3125,629.5313 278.1563,629.8125 278.1563,630.1094 C278.1563,630.3594 278.2969,630.625 278.5156,630.7813 C278.6563,630.9063 278.8906,630.9531 279.2813,630.9531 L284.4219,630.9531 C284.75,630.9531 285.0156,630.9063 285.125,630.8281 C285.3906,630.6719 285.5313,630.3906 285.5313,630.1094 C285.5313,629.8281 285.4063,629.5781 285.1875,629.4063 C285.0156,629.2813 284.875,629.25 284.4219,629.25 L282.7031,629.25 L282.7031,620.1094 Z " fill="#000000"/><text fill="#000000" font-family="Verdana" font-size="12" lengthAdjust="spacing" textLength="80" x="302.25" y="630.1074">GroupeCours</text><line style="stroke:#A80036;stroke-width:1.5;" x1="226.5" x2="425.5" y1="641.9531" y2="641.9531"/><text fill="#000000" font-family="Verdana" font-size="11" lengthAdjust="spacing" textLength="65" x="231.5" y="656.1636">id : number</text><text fill="#000000" font-family="Verdana" font-size="11" lengthAdjust="spacing" textLength="189" x="231.5" y="668.9683">limiteNombreInscription : number</text><line style="stroke:#A80036;stroke-width:1.5;" x1="226.5" x2="425.5" y1="675.5625" y2="675.5625"/><!--MD5=[54a5e0e6ed87cf29c8834e8f40ab0f5d]
class Devoir--><rect codeLine="38" fill="#FEFECE" filter="url(#f1as80hdw4ati2)" height="137.6328" id="Devoir" rx="10" ry="10" style="stroke:#A80036;stroke-width:1.5;" width="154" x="575" y="930.9531"/><ellipse cx="627.75" cy="946.9531" fill="#FF0000" rx="11" ry="11" style="stroke:#A80036;stroke-width:1.0;"/><path d="M626.2656,950.25 C627.7656,948.9688 628.75,948.1094 629.2031,947.6875 C630.8906,946.1563 631.2969,945.5156 631.2969,944.4063 C631.2969,942.5156 629.75,941.1094 627.6875,941.1094 C626.6719,941.1094 625.7031,941.4531 625.0313,942.0625 C624.4531,942.5938 624.0156,943.4219 624.0156,943.9688 C624.0156,944.4063 624.4063,944.7813 624.8594,944.7813 C625.2188,944.7813 625.5313,944.5781 625.625,944.2813 C625.8125,943.7344 625.8281,943.7031 626,943.5 C626.375,943.0625 626.9688,942.8125 627.6406,942.8125 C628.75,942.8125 629.5938,943.4688 629.5938,944.3438 C629.5938,944.9219 629.3125,945.2969 627.6094,946.8438 C626.8438,947.5313 626.5313,947.8125 623.6719,950.1719 L623.6719,951.9531 L631.3906,951.9531 L631.3906,950.4531 C631.3906,950.0469 631.3594,949.8906 631.2656,949.75 C631.1094,949.4844 630.8281,949.3281 630.5313,949.3281 C630.0156,949.3281 629.7344,949.6406 629.6875,950.25 L626.2656,950.25 Z " fill="#000000"/><text fill="#000000" font-family="Verdana" font-size="12" lengthAdjust="spacing" textLength="40" x="648.25" y="951.1074">Devoir</text><line style="stroke:#A80036;stroke-width:1.5;" x1="576" x2="728" y1="962.9531" y2="962.9531"/><text fill="#000000" font-family="Verdana" font-size="11" lengthAdjust="spacing" textLength="61" x="581" y="977.1636">id: number</text><text fill="#000000" font-family="Verdana" font-size="11" lengthAdjust="spacing" textLength="65" x="581" y="989.9683">nom: String</text><text fill="#000000" font-family="Verdana" font-size="11" lengthAdjust="spacing" textLength="106" x="581" y="1002.7729">description : String</text><text fill="#000000" font-family="Verdana" font-size="11" lengthAdjust="spacing" textLength="142" x="581" y="1015.5776">note maximale : number</text><text fill="#000000" font-family="Verdana" font-size="11" lengthAdjust="spacing" textLength="126" x="581" y="1028.3823">date de début : String</text><text fill="#000000" font-family="Verdana" font-size="11" lengthAdjust="spacing" textLength="107" x="581" y="1041.187">date de fin : String</text><text fill="#000000" font-family="Verdana" font-size="11" lengthAdjust="spacing" textLength="94" x="581" y="1053.9917">visible : boolean</text><line style="stroke:#A80036;stroke-width:1.5;" x1="576" x2="728" y1="1060.5859" y2="1060.5859"/><!--MD5=[1d9b9fea38fde0ee3d12b7f249f77478]
class Remise--><rect codeLine="48" fill="#FEFECE" filter="url(#f1as80hdw4ati2)" height="86.4141" id="Remise" rx="10" ry="10" style="stroke:#A80036;stroke-width:1.5;" width="125" x="719.5" y="1145.9531"/><ellipse cx="756.55" cy="1161.9531" fill="#FF0000" rx="11" ry="11" style="stroke:#A80036;stroke-width:1.0;"/><path d="M755.0656,1165.25 C756.5656,1163.9688 757.55,1163.1094 758.0031,1162.6875 C759.6906,1161.1563 760.0969,1160.5156 760.0969,1159.4063 C760.0969,1157.5156 758.55,1156.1094 756.4875,1156.1094 C755.4719,1156.1094 754.5031,1156.4531 753.8313,1157.0625 C753.2531,1157.5938 752.8156,1158.4219 752.8156,1158.9688 C752.8156,1159.4063 753.2063,1159.7813 753.6594,1159.7813 C754.0188,1159.7813 754.3313,1159.5781 754.425,1159.2813 C754.6125,1158.7344 754.6281,1158.7031 754.8,1158.5 C755.175,1158.0625 755.7688,1157.8125 756.4406,1157.8125 C757.55,1157.8125 758.3938,1158.4688 758.3938,1159.3438 C758.3938,1159.9219 758.1125,1160.2969 756.4094,1161.8438 C755.6438,1162.5313 755.3313,1162.8125 752.4719,1165.1719 L752.4719,1166.9531 L760.1906,1166.9531 L760.1906,1165.4531 C760.1906,1165.0469 760.1594,1164.8906 760.0656,1164.75 C759.9094,1164.4844 759.6281,1164.3281 759.3313,1164.3281 C758.8156,1164.3281 758.5344,1164.6406 758.4875,1165.25 L755.0656,1165.25 Z " fill="#000000"/><text fill="#000000" font-family="Verdana" font-size="12" lengthAdjust="spacing" textLength="44" x="775.45" y="1166.1074">Remise</text><line style="stroke:#A80036;stroke-width:1.5;" x1="720.5" x2="843.5" y1="1177.9531" y2="1177.9531"/><text fill="#000000" font-family="Verdana" font-size="11" lengthAdjust="spacing" textLength="65" x="725.5" y="1192.1636">id : number</text><text fill="#000000" font-family="Verdana" font-size="11" lengthAdjust="spacing" textLength="67" x="725.5" y="1204.9683">etat : String</text><text fill="#000000" font-family="Verdana" font-size="11" lengthAdjust="spacing" textLength="113" x="725.5" y="1217.7729">dateRemise : String</text><line style="stroke:#A80036;stroke-width:1.5;" x1="720.5" x2="843.5" y1="1224.3672" y2="1224.3672"/><!--MD5=[fc7123defb831ecdd44b2d9bcef6cceb]
class Question--><rect codeLine="54" fill="#FEFECE" filter="url(#f1as80hdw4ati2)" height="137.6328" id="Question" rx="10" ry="10" style="stroke:#A80036;stroke-width:1.5;" width="191" x="485.5" y="577.9531"/><ellipse cx="549.75" cy="593.9531" fill="#FFFF00" rx="11" ry="11" style="stroke:#A80036;stroke-width:1.0;"/><path d="M550.7031,588.1094 L547.0938,589.0469 C546.4219,589.2188 546.1875,589.4219 546.1875,589.9063 C546.1875,590.4063 546.5313,590.7969 546.9844,590.7969 C547.1406,590.7969 547.2031,590.7813 547.5156,590.6875 L549,590.2969 L549,597.25 L547.2813,597.25 C546.8438,597.25 546.7188,597.2656 546.5625,597.375 C546.3125,597.5313 546.1563,597.8125 546.1563,598.1094 C546.1563,598.3594 546.2969,598.625 546.5156,598.7813 C546.6563,598.9063 546.8906,598.9531 547.2813,598.9531 L552.4219,598.9531 C552.75,598.9531 553.0156,598.9063 553.125,598.8281 C553.3906,598.6719 553.5313,598.3906 553.5313,598.1094 C553.5313,597.8281 553.4063,597.5781 553.1875,597.4063 C553.0156,597.2813 552.875,597.25 552.4219,597.25 L550.7031,597.25 L550.7031,588.1094 Z " fill="#000000"/><text fill="#000000" font-family="Verdana" font-size="12" lengthAdjust="spacing" textLength="54" x="570.25" y="598.1074">Question</text><line style="stroke:#A80036;stroke-width:1.5;" x1="486.5" x2="675.5" y1="609.9531" y2="609.9531"/><text fill="#000000" font-family="Verdana" font-size="11" lengthAdjust="spacing" textLength="65" x="491.5" y="624.1636">id : number</text><text fill="#000000" font-family="Verdana" font-size="11" lengthAdjust="spacing" textLength="69" x="491.5" y="636.9683">nom : String</text><text fill="#000000" font-family="Verdana" font-size="11" lengthAdjust="spacing" textLength="68" x="491.5" y="649.7729">tags : String</text><text fill="#000000" font-family="Verdana" font-size="11" lengthAdjust="spacing" textLength="126" x="491.5" y="662.5776">texteQuestion : String</text><text fill="#000000" font-family="Verdana" font-size="11" lengthAdjust="spacing" textLength="104" x="491.5" y="675.3823">reponse : boolean</text><text fill="#000000" font-family="Verdana" font-size="11" lengthAdjust="spacing" textLength="162" x="491.5" y="688.187">texteBonneReponse : String</text><text fill="#000000" font-family="Verdana" font-size="11" lengthAdjust="spacing" textLength="179" x="491.5" y="700.9917">texteMauvaiseReponse : String</text><line style="stroke:#A80036;stroke-width:1.5;" x1="486.5" x2="675.5" y1="707.5859" y2="707.5859"/><!--MD5=[5a3b85c54cc1c79904e0b827443986bf]
class Questionnaire--><rect codeLine="64" fill="#FEFECE" filter="url(#f1as80hdw4ati2)" height="86.4141" id="Questionnaire" rx="10" ry="10" style="stroke:#A80036;stroke-width:1.5;" width="116" x="634" y="414.9531"/><ellipse cx="649" cy="430.9531" fill="#FF0000" rx="11" ry="11" style="stroke:#A80036;stroke-width:1.0;"/><path d="M647.5156,434.25 C649.0156,432.9688 650,432.1094 650.4531,431.6875 C652.1406,430.1563 652.5469,429.5156 652.5469,428.4063 C652.5469,426.5156 651,425.1094 648.9375,425.1094 C647.9219,425.1094 646.9531,425.4531 646.2813,426.0625 C645.7031,426.5938 645.2656,427.4219 645.2656,427.9688 C645.2656,428.4063 645.6563,428.7813 646.1094,428.7813 C646.4688,428.7813 646.7813,428.5781 646.875,428.2813 C647.0625,427.7344 647.0781,427.7031 647.25,427.5 C647.625,427.0625 648.2188,426.8125 648.8906,426.8125 C650,426.8125 650.8438,427.4688 650.8438,428.3438 C650.8438,428.9219 650.5625,429.2969 648.8594,430.8438 C648.0938,431.5313 647.7813,431.8125 644.9219,434.1719 L644.9219,435.9531 L652.6406,435.9531 L652.6406,434.4531 C652.6406,434.0469 652.6094,433.8906 652.5156,433.75 C652.3594,433.4844 652.0781,433.3281 651.7813,433.3281 C651.2656,433.3281 650.9844,433.6406 650.9375,434.25 L647.5156,434.25 Z " fill="#000000"/><text fill="#000000" font-family="Verdana" font-size="12" lengthAdjust="spacing" textLength="84" x="663" y="435.1074">Questionnaire</text><line style="stroke:#A80036;stroke-width:1.5;" x1="635" x2="749" y1="446.9531" y2="446.9531"/><text fill="#000000" font-family="Verdana" font-size="11" lengthAdjust="spacing" textLength="61" x="640" y="461.1636">id: number</text><text fill="#000000" font-family="Verdana" font-size="11" lengthAdjust="spacing" textLength="102" x="640" y="473.9683">description: String</text><text fill="#000000" font-family="Verdana" font-size="11" lengthAdjust="spacing" textLength="80" x="640" y="486.7729">état : boolean</text><line style="stroke:#A80036;stroke-width:1.5;" x1="635" x2="749" y1="493.3672" y2="493.3672"/><!--MD5=[dabef5714f41dd45c84d2acd22a3f642]
class EspaceCours--><rect codeLine="70" fill="#FEFECE" filter="url(#f1as80hdw4ati2)" height="60.8047" id="EspaceCours" rx="10" ry="10" style="stroke:#A80036;stroke-width:1.5;" width="192" x="504" y="792.9531"/><ellipse cx="556.25" cy="808.9531" fill="#FF0000" rx="11" ry="11" style="stroke:#A80036;stroke-width:1.0;"/><path d="M554.7656,812.25 C556.2656,810.9688 557.25,810.1094 557.7031,809.6875 C559.3906,808.1563 559.7969,807.5156 559.7969,806.4063 C559.7969,804.5156 558.25,803.1094 556.1875,803.1094 C555.1719,803.1094 554.2031,803.4531 553.5313,804.0625 C552.9531,804.5938 552.5156,805.4219 552.5156,805.9688 C552.5156,806.4063 552.9063,806.7813 553.3594,806.7813 C553.7188,806.7813 554.0313,806.5781 554.125,806.2813 C554.3125,805.7344 554.3281,805.7031 554.5,805.5 C554.875,805.0625 555.4688,804.8125 556.1406,804.8125 C557.25,804.8125 558.0938,805.4688 558.0938,806.3438 C558.0938,806.9219 557.8125,807.2969 556.1094,808.8438 C555.3438,809.5313 555.0313,809.8125 552.1719,812.1719 L552.1719,813.9531 L559.8906,813.9531 L559.8906,812.4531 C559.8906,812.0469 559.8594,811.8906 559.7656,811.75 C559.6094,811.4844 559.3281,811.3281 559.0313,811.3281 C558.5156,811.3281 558.2344,811.6406 558.1875,812.25 L554.7656,812.25 Z " fill="#000000"/><text fill="#000000" font-family="Verdana" font-size="12" lengthAdjust="spacing" textLength="79" x="576.75" y="813.1074">EspaceCours</text><line style="stroke:#A80036;stroke-width:1.5;" x1="505" x2="695" y1="824.9531" y2="824.9531"/><text fill="#000000" font-family="Verdana" font-size="11" lengthAdjust="spacing" textLength="180" x="510" y="839.1636">idEspaceGroupeCours : number</text><line style="stroke:#A80036;stroke-width:1.5;" x1="505" x2="695" y1="845.7578" y2="845.7578"/><!--MD5=[843a46382d283828a7d1783d3460c7c7]
link Université to CatalogueCours--><path codeLine="75" d="M183.225,107.2831 C168.175,115.6431 152.449,126.5531 141,139.9531 C129.521,153.3831 122.362,172.1231 118.159,186.8231 " fill="none" id="Université-CatalogueCours" style="stroke:#A80036;stroke-width:1.0;"/><polygon fill="#000000" points="142.8342,152.3896,150.836,147.2494,146.2864,143.5277,142.8342,152.3896" style="stroke:#000000;stroke-width:1.0;"/><text fill="#000000" font-family="Verdana" font-size="13" lengthAdjust="spacing" textLength="31" x="155" y="153.02">offre</text><text fill="#000000" font-family="Verdana" font-size="13" lengthAdjust="spacing" textLength="8" x="167.4501" y="106.4779">1</text><text fill="#000000" font-family="Verdana" font-size="13" lengthAdjust="spacing" textLength="8" x="110.456" y="175.8018">1</text><!--MD5=[caa7d714cd4e4959b4291618de060d69]
link CatalogueCours to Cours--><path codeLine="76" d="M82.6648,235.0231 C73.9877,243.3931 65.6324,253.6131 61,264.9531 C40.147,315.9831 51.5753,380.9931 62.335,420.7631 " fill="none" id="CatalogueCours-Cours" style="stroke:#A80036;stroke-width:1.0;"/><polygon fill="#000000" points="65.456,319.4898,69.3616,310.8182,63.5186,310.1787,65.456,319.4898" style="stroke:#000000;stroke-width:1.0;"/><text fill="#000000" font-family="Verdana" font-size="13" lengthAdjust="spacing" textLength="63" x="75" y="319.02">repertorie</text><text fill="#000000" font-family="Verdana" font-size="13" lengthAdjust="spacing" textLength="8" x="65.8664" y="255.1968">1</text><text fill="#000000" font-family="Verdana" font-size="13" lengthAdjust="spacing" textLength="7" x="52.6337" y="409.9162">*</text><!--MD5=[359da426c3c95d8048c951014945ceb0]
link Devoir to Remise--><path codeLine="77" d="M678.822,1069.0001 C686.517,1085.0571 695.666,1101.6511 706,1115.9531 C713.558,1126.4131 722.769,1136.6091 732.136,1145.8831 " fill="none" id="Devoir-Remise" style="stroke:#A80036;stroke-width:1.0;"/><polygon fill="#000000" points="713.8492,1111.6283,711.11,1102.5207,706.2799,1105.8702,713.8492,1111.6283" style="stroke:#000000;stroke-width:1.0;"/><text fill="#000000" font-family="Verdana" font-size="13" lengthAdjust="spacing" textLength="52" x="720" y="1112.02">contient</text><text fill="#000000" font-family="Verdana" font-size="13" lengthAdjust="spacing" textLength="8" x="673.0685" y="1088.6267">1</text><text fill="#000000" font-family="Verdana" font-size="13" lengthAdjust="spacing" textLength="7" x="716.6311" y="1134.868">*</text><!--MD5=[b8f15a7fbf1e0ac66b43fe2a255415c0]
link EspaceCours to Devoir--><path codeLine="78" d="M608.821,854.0551 C615.08,875.0581 623.743,904.1281 631.667,930.7211 " fill="none" id="EspaceCours-Devoir" style="stroke:#A80036;stroke-width:1.0;"/><polygon fill="#000000" points="628.4279,897.3113,628.6613,887.8036,623.0283,889.4822,628.4279,897.3113" style="stroke:#000000;stroke-width:1.0;"/><text fill="#000000" font-family="Verdana" font-size="13" lengthAdjust="spacing" textLength="52" x="636" y="897.02">contient</text><text fill="#000000" font-family="Verdana" font-size="13" lengthAdjust="spacing" textLength="8" x="601.8153" y="874.0144">1</text><text fill="#000000" font-family="Verdana" font-size="13" lengthAdjust="spacing" textLength="7" x="622.2092" y="919.9008">*</text><!--MD5=[e696a511ab66ff85cf29965a3cb732fe]
link Université to Enseignant--><path codeLine="79" d="M276.914,104.6531 C293.604,113.0531 311.17,124.6731 323,139.9531 C352.511,178.0831 363.52,233.3831 367.611,271.2391 " fill="none" id="Université-Enseignant" style="stroke:#A80036;stroke-width:1.0;"/><polygon fill="#000000" points="340.3908,152.9109,338.6469,143.5616,333.4846,146.3722,340.3908,152.9109" style="stroke:#000000;stroke-width:1.0;"/><text fill="#000000" font-family="Verdana" font-size="13" lengthAdjust="spacing" textLength="51" x="347" y="153.02">emploie</text><text fill="#000000" font-family="Verdana" font-size="13" lengthAdjust="spacing" textLength="8" x="284.392" y="103.3748">1</text><text fill="#000000" font-family="Verdana" font-size="13" lengthAdjust="spacing" textLength="7" x="359.7092" y="260.5235">*</text><!--MD5=[d99a8c8e2f040432a664dac4ac75f7f7]
link Questionnaire to Question--><path codeLine="80" d="M666.812,501.3861 C653.444,523.9081 636.691,552.1321 621.543,577.6501 " fill="none" id="Questionnaire-Question" style="stroke:#A80036;stroke-width:1.0;"/><polygon fill="#000000" points="648.4478,543.8191,655.592,537.5412,650.5375,534.541,648.4478,543.8191" style="stroke:#000000;stroke-width:1.0;"/><text fill="#000000" font-family="Verdana" font-size="13" lengthAdjust="spacing" textLength="52" x="660" y="544.02">contient</text><text fill="#000000" font-family="Verdana" font-size="13" lengthAdjust="spacing" textLength="8" x="654.1602" y="521.5481">1</text><text fill="#000000" font-family="Verdana" font-size="13" lengthAdjust="spacing" textLength="23" x="601.5381" y="566.8225">1..*</text><!--MD5=[325701bbe546bfc91cac5365729ea61d]
link Questionnaire to Remise--><path codeLine="81" d="M750.084,500.3111 C773.699,520.6901 798.366,547.4511 811,577.9531 C834.471,634.6181 812.882,654.6491 811,715.9531 C806.127,874.7401 792.052,1063.1501 785.47,1145.6831 " fill="none" id="Questionnaire-Remise" style="stroke:#A80036;stroke-width:1.0;"/><polygon fill="#000000" points="812.2737,828.512,814.7131,819.3196,808.844,819.6414,812.2737,828.512" style="stroke:#000000;stroke-width:1.0;"/><text fill="#000000" font-family="Verdana" font-size="13" lengthAdjust="spacing" textLength="54" x="821" y="828.02">possède</text><text fill="#000000" font-family="Verdana" font-size="13" lengthAdjust="spacing" textLength="8" x="752.0557" y="521.5447">1</text><text fill="#000000" font-family="Verdana" font-size="13" lengthAdjust="spacing" textLength="7" x="778.4654" y="1134.9543">*</text><!--MD5=[5217f6319e60196188b9b46941152dbc]
link Université to Etudiant--><path codeLine="82" d="M228.934,110.1631 C228.559,119.4331 228.184,130.1931 228,139.9531 C227.205,182.1231 227.877,230.0531 228.65,264.8391 " fill="none" id="Université-Etudiant" style="stroke:#A80036;stroke-width:1.0;"/><polygon fill="#000000" points="233.0092,143.5195,230.0537,152.5592,235.9315,152.57,233.0092,143.5195" style="stroke:#000000;stroke-width:1.0;"/><text fill="#000000" font-family="Verdana" font-size="13" lengthAdjust="spacing" textLength="76" x="242" y="153.02">est-inscrit-à</text><text fill="#000000" font-family="Verdana" font-size="13" lengthAdjust="spacing" textLength="8" x="219.6992" y="129.9755">1</text><text fill="#000000" font-family="Verdana" font-size="13" lengthAdjust="spacing" textLength="7" x="220.968" y="253.8729">*</text><!--MD5=[31ca12531000ae5fbc8b65f0576c1ae5]
link Question to EspaceCours--><path codeLine="83" d="M588.428,716.1691 C591.321,742.7431 594.484,771.7931 596.771,792.7971 " fill="none" id="Question-EspaceCours" style="stroke:#A80036;stroke-width:1.0;"/><polygon fill="#000000" points="598.4588,749.5489,596.5162,758.859,602.3595,758.2228,598.4588,749.5489" style="stroke:#000000;stroke-width:1.0;"/><text fill="#000000" font-family="Verdana" font-size="13" lengthAdjust="spacing" textLength="52" x="608" y="759.02">contient</text><text fill="#000000" font-family="Verdana" font-size="13" lengthAdjust="spacing" textLength="7" x="581.8024" y="735.5718">*</text><text fill="#000000" font-family="Verdana" font-size="13" lengthAdjust="spacing" textLength="8" x="587.28" y="782.0282">1</text><!--MD5=[9658aa9b13a75953075a809ba662f093]
link Questionnaire to EspaceCours--><path codeLine="84" d="M712.107,501.1541 C715.791,510.7431 719.077,521.0311 721,530.9531 C731.599,585.6341 762.883,510.9111 694,715.9531 C686.465,738.3811 683.767,744.4671 669,762.9531 C660.51,773.5821 649.937,783.7841 639.639,792.6471 " fill="none" id="Questionnaire-EspaceCours" style="stroke:#A80036;stroke-width:1.0;"/><polygon fill="#000000" points="742.2063,642.1672,737.172,650.2361,742.8762,651.6542,742.2063,642.1672" style="stroke:#000000;stroke-width:1.0;"/><text fill="#000000" font-family="Verdana" font-size="13" lengthAdjust="spacing" textLength="52" x="750" y="651.52">contient</text><text fill="#000000" font-family="Verdana" font-size="13" lengthAdjust="spacing" textLength="7" x="707.7537" y="521.2791">*</text><text fill="#000000" font-family="Verdana" font-size="13" lengthAdjust="spacing" textLength="8" x="638.9895" y="781.8472">1</text><!--MD5=[4a1dec41fc93cd3e03671729410bb2fc]
link Etudiant to GroupeCours--><path codeLine="85" d="M225.973,364.2071 C224.339,402.2741 225.385,456.0591 239,500.9531 C251.226,541.2681 277.082,581.9471 297.446,609.9141 " fill="none" id="Etudiant-GroupeCours" style="stroke:#A80036;stroke-width:1.0;"/><polygon fill="#000000" points="245.3966,462.8205,245.6921,453.3146,240.0482,454.9563,245.3966,462.8205" style="stroke:#000000;stroke-width:1.0;"/><text fill="#000000" font-family="Verdana" font-size="13" lengthAdjust="spacing" textLength="85" x="253" y="462.52">S'inscrit-dans</text><text fill="#000000" font-family="Verdana" font-size="13" lengthAdjust="spacing" textLength="8" x="216.8442" y="384.3193">1</text><text fill="#000000" font-family="Verdana" font-size="13" lengthAdjust="spacing" textLength="23" x="267.061" y="598.8174">1..*</text><!--MD5=[1b4ecfae8f4f6f2eba21162271229cb8]
link Enseignant to GroupeCours--><path codeLine="86" d="M364.383,357.6471 C355.672,423.0791 339.055,547.8931 330.842,609.5841 " fill="none" id="Enseignant-GroupeCours" style="stroke:#A80036;stroke-width:1.0;"/><polygon fill="#000000" points="367.3402,462.9758,371.447,454.3977,365.6206,453.622,367.3402,462.9758" style="stroke:#000000;stroke-width:1.0;"/><text fill="#000000" font-family="Verdana" font-size="13" lengthAdjust="spacing" textLength="58" x="377" y="462.52">Enseigne</text><text fill="#000000" font-family="Verdana" font-size="13" lengthAdjust="spacing" textLength="8" x="354.7902" y="378.0869">1</text><text fill="#000000" font-family="Verdana" font-size="13" lengthAdjust="spacing" textLength="7" x="324.0727" y="598.9841">*</text><!--MD5=[dd19a10ffb7e2e1829c46178384b5825]
link Cours to GroupeCours--><path codeLine="87" d="M88.2309,495.2761 C96.5622,512.9071 108.516,533.3741 124,547.9531 C152.733,575.0081 190.336,595.9911 225.298,611.4751 " fill="none" id="Cours-GroupeCours" style="stroke:#A80036;stroke-width:1.0;"/><polygon fill="#000000" points="132.8139,542.7528,127.8149,534.662,124.014,539.1455,132.8139,542.7528" style="stroke:#000000;stroke-width:1.0;"/><text fill="#000000" font-family="Verdana" font-size="13" lengthAdjust="spacing" textLength="38" x="138" y="544.02">décris</text><text fill="#000000" font-family="Verdana" font-size="13" lengthAdjust="spacing" textLength="8" x="81.8614" y="514.5284">1</text><text fill="#000000" font-family="Verdana" font-size="13" lengthAdjust="spacing" textLength="23" x="194.4088" y="605.5385">1..*</text><!--MD5=[a7baa54bc84030c0156c8e0cfba0978d]
link GroupeCours to EspaceCours--><path codeLine="88" d="M329.917,683.9941 C334.574,709.5111 344.756,742.6761 367,762.9531 C404.025,796.7041 457.535,811.8871 503.94,818.4941 " fill="none" id="GroupeCours-EspaceCours" style="stroke:#A80036;stroke-width:1.0;"/><polygon fill="#000000" points="368.0439,751.4619,373.4033,759.3186,376.9978,754.6679,368.0439,751.4619" style="stroke:#000000;stroke-width:1.0;"/><text fill="#000000" font-family="Verdana" font-size="13" lengthAdjust="spacing" textLength="203" x="381" y="759.02">Est-un-support-des-activités-du</text><text fill="#000000" font-family="Verdana" font-size="13" lengthAdjust="spacing" textLength="8" x="321.9027" y="703.7615">1</text><text fill="#000000" font-family="Verdana" font-size="13" lengthAdjust="spacing" textLength="24" x="472.0043" y="814.6581">1..0</text><!--MD5=[af2d7541308f58d5363465f4e73c7e54]
link Etudiant to Remise--><path codeLine="89" d="M303.369,362.7971 C304.578,363.2061 305.789,363.5921 307,363.9531 C331.547,371.2711 744.953,360.7741 768,371.9531 C853.969,413.6531 904,442.9041 904,538.4531 C904,538.4531 904,538.4531 904,1000.9531 C904,1057.7421 864.046,1110.7741 829.867,1145.7521 " fill="none" id="Etudiant-Remise" style="stroke:#A80036;stroke-width:1.0;"/><polygon fill="#000000" points="911.7901,758.6687,909.1816,749.5228,904.304,752.8028,911.7901,758.6687" style="stroke:#000000;stroke-width:1.0;"/><text fill="#000000" font-family="Verdana" font-size="13" lengthAdjust="spacing" textLength="30" x="918" y="759.02">Crée</text><text fill="#000000" font-family="Verdana" font-size="13" lengthAdjust="spacing" textLength="8" x="310.985" y="363.8804">1</text><text fill="#000000" font-family="Verdana" font-size="13" lengthAdjust="spacing" textLength="7" x="829.6607" y="1135.0339">*</text><!--MD5=[86d4d92ffa2b487721c11ee456a89a6b]
link Enseignant to Question--><path codeLine="90" d="M420.159,348.7241 C428.738,355.7621 437.097,363.6091 444,371.9531 C495.531,434.2401 534.167,519.1571 557.054,577.8721 " fill="none" id="Enseignant-Question" style="stroke:#A80036;stroke-width:1.0;"/><polygon fill="#000000" points="530.5643,462.3119,528.4484,453.0397,523.4025,456.0542,530.5643,462.3119" style="stroke:#000000;stroke-width:1.0;"/><text fill="#000000" font-family="Verdana" font-size="13" lengthAdjust="spacing" textLength="30" x="537" y="462.52">Crée</text><text fill="#000000" font-family="Verdana" font-size="13" lengthAdjust="spacing" textLength="8" x="428.1136" y="349.7024">1</text><text fill="#000000" font-family="Verdana" font-size="13" lengthAdjust="spacing" textLength="7" x="547.2236" y="567.0674">*</text><!--MD5=[3537acb344145d0ef730434aa393bdc5]
link Enseignant to Questionnaire--><path codeLine="91" d="M420.038,323.4331 C463.611,331.6571 527.667,346.8731 579,371.9531 C602.16,383.2681 625.331,399.6011 644.608,414.9321 " fill="none" id="Enseignant-Questionnaire" style="stroke:#A80036;stroke-width:1.0;"/><polygon fill="#000000" points="502.2854,348.0441,495.0178,341.9095,492.8,347.3529,502.2854,348.0441" style="stroke:#000000;stroke-width:1.0;"/><text fill="#000000" font-family="Verdana" font-size="13" lengthAdjust="spacing" textLength="30" x="506.655" y="350.658">Crée</text><text fill="#000000" font-family="Verdana" font-size="13" lengthAdjust="spacing" textLength="8" x="427.9748" y="320.6967">1</text><text fill="#000000" font-family="Verdana" font-size="13" lengthAdjust="spacing" textLength="7" x="629.4971" y="403.9248">*</text><rect fill="#DDDDDD" height="79.1875" rx="5" ry="5" style="stroke:#000000;stroke-width:1.0;" width="325" x="308.5" y="1261.9531"/><text fill="#000000" font-family="Verdana" font-size="14" font-weight="bold" lengthAdjust="spacing" textLength="0" x="319.5" y="1281.9482"/><text fill="#000000" font-family="Verdana" font-size="14" font-weight="bold" lengthAdjust="spacing" textLength="39" x="342.5" y="1281.9482">Type</text><text fill="#000000" filter="url(#b1as80hdw4ati20)" font-family="Verdana" font-size="14" lengthAdjust="spacing" textLength="23" x="314.5" y="1298.2451">_1_</text><text fill="#000000" font-family="Verdana" font-size="14" lengthAdjust="spacing" textLength="282" x="341.5" y="1298.2451">Classe non modifiée première itération</text><text fill="#000000" filter="url(#b1as80hdw4ati21)" font-family="Verdana" font-size="14" lengthAdjust="spacing" textLength="23" x="314.5" y="1314.542">_1_</text><text fill="#000000" font-family="Verdana" font-size="14" lengthAdjust="spacing" textLength="251" x="341.5" y="1314.542">Classe modifiée première itération</text><text fill="#000000" filter="url(#b1as80hdw4ati22)" font-family="Verdana" font-size="14" lengthAdjust="spacing" textLength="22" x="314.5" y="1330.8389">_2_</text><text fill="#000000" font-family="Verdana" font-size="14" lengthAdjust="spacing" textLength="249" x="341.5" y="1330.8389">Nouvelle classe deuxième itération</text><line style="stroke:#000000;stroke-width:1.0;" x1="314.5" x2="627.5" y1="1268.9531" y2="1268.9531"/><line style="stroke:#000000;stroke-width:1.0;" x1="314.5" x2="627.5" y1="1285.25" y2="1285.25"/><line style="stroke:#000000;stroke-width:1.0;" x1="314.5" x2="627.5" y1="1301.5469" y2="1301.5469"/><line style="stroke:#000000;stroke-width:1.0;" x1="314.5" x2="627.5" y1="1317.8438" y2="1317.8438"/><line style="stroke:#000000;stroke-width:1.0;" x1="314.5" x2="627.5" y1="1334.1406" y2="1334.1406"/><line style="stroke:#000000;stroke-width:1.0;" x1="314.5" x2="314.5" y1="1268.9531" y2="1334.1406"/><line style="stroke:#000000;stroke-width:1.0;" x1="337.5" x2="337.5" y1="1268.9531" y2="1334.1406"/><line style="stroke:#000000;stroke-width:1.0;" x1="627.5" x2="627.5" y1="1268.9531" y2="1334.1406"/><!--MD5=[00b761ea41ceb3c769890d05c4b0d105]
@startuml
skinparam defaultfontname Verdana
skinparam RoundCorner 20
' skinparam linetype ortho

title Modèle du domaine


package SGB{
    class Université << (2,red) >>{}

    class CatalogueCours << (2,red)>>{}

    class Enseignant << 1,yellow) >>{
    prenom : String
    nom : String
    courriel : String
    }

    class Etudiant << 1,yellow) >>{
    nom : String
    codePermanent : String
    prenom : String
    courriel : String
    }

    class Cours << (1,blue) >>{
    id : numbers
    nom : String
    }

    class GroupeCours << 1,yellow) >>{
        id : number
        limiteNombreInscription : number
    }
}

package SGA{
    class Devoir << (2,red) >>{
        id: number
        nom: String
        description : String
        note maximale : number
        date de début : String
        date de fin : String
        visible : boolean
    }

    class Remise << (2,red) >>{
        id : number
        etat : String
        dateRemise : String
    }

    class Question << 1,yellow) >>{
        id : number
        nom : String
        tags : String
        texteQuestion : String
        reponse : boolean
        texteBonneReponse : String
        texteMauvaiseReponse : String
    }

    class Questionnaire << (2,red) >>{
        id: number
        description: String
        état : boolean
    }

    class EspaceCours << (2,red) >>{
        idEspaceGroupeCours : number
    }
}

Université "1" - - "1"CatalogueCours : offre >
CatalogueCours "1"- - "*"Cours : repertorie >
Devoir "1"- -"*" Remise : contient >
EspaceCours "1"- -"*" Devoir: contient >
Université "1"- -"*" Enseignant : emploie >
Questionnaire "1"- -"1..*" Question : contient >
Questionnaire"1"- -"*" Remise : possède >
Université "1"- -"*" Etudiant : est-inscrit-à <
Question "*"- -"1" EspaceCours : contient <
Questionnaire "*"- -"1" EspaceCours : contient <
Etudiant "1" - - "1..*"GroupeCours : S'inscrit-dans >
Enseignant "1" - - "*"GroupeCours : Enseigne >
Cours "1" - - "1..*" GroupeCours : décris >
GroupeCours "1"- - "1..0"EspaceCours : Est-un-support-des-activités-du <
Etudiant "1" - "*" Remise : Crée >
Enseignant "1" - "*" Question : Crée >
Enseignant "1" - "*" Questionnaire : Crée >

legend
|= |= Type |
|<back:blue>_1_</back>| Classe non modifiée première itération |
|<back:yellow>_1_</back>| Classe modifiée première itération |
|<back:red>_2_</back>| Nouvelle classe deuxième itération |
endlegend
@enduml

@startuml
skinparam defaultfontname Verdana
skinparam RoundCorner 20

title Modèle du domaine


package SGB{
    class Université << (2,red) >>{}

    class CatalogueCours << (2,red)>>{}

    class Enseignant << 1,yellow) >>{
    prenom : String
    nom : String
    courriel : String
    }

    class Etudiant << 1,yellow) >>{
    nom : String
    codePermanent : String
    prenom : String
    courriel : String
    }

    class Cours << (1,blue) >>{
    id : numbers
    nom : String
    }

    class GroupeCours << 1,yellow) >>{
        id : number
        limiteNombreInscription : number
    }
}

package SGA{
    class Devoir << (2,red) >>{
        id: number
        nom: String
        description : String
        note maximale : number
        date de début : String
        date de fin : String
        visible : boolean
    }

    class Remise << (2,red) >>{
        id : number
        etat : String
        dateRemise : String
    }

    class Question << 1,yellow) >>{
        id : number
        nom : String
        tags : String
        texteQuestion : String
        reponse : boolean
        texteBonneReponse : String
        texteMauvaiseReponse : String
    }

    class Questionnaire << (2,red) >>{
        id: number
        description: String
        état : boolean
    }

    class EspaceCours << (2,red) >>{
        idEspaceGroupeCours : number
    }
}

Université "1" - - "1"CatalogueCours : offre >
CatalogueCours "1"- - "*"Cours : repertorie >
Devoir "1"- -"*" Remise : contient >
EspaceCours "1"- -"*" Devoir: contient >
Université "1"- -"*" Enseignant : emploie >
Questionnaire "1"- -"1..*" Question : contient >
Questionnaire"1"- -"*" Remise : possède >
Université "1"- -"*" Etudiant : est-inscrit-à <
Question "*"- -"1" EspaceCours : contient <
Questionnaire "*"- -"1" EspaceCours : contient <
Etudiant "1" - - "1..*"GroupeCours : S'inscrit-dans >
Enseignant "1" - - "*"GroupeCours : Enseigne >
Cours "1" - - "1..*" GroupeCours : décris >
GroupeCours "1"- - "1..0"EspaceCours : Est-un-support-des-activités-du <
Etudiant "1" - "*" Remise : Crée >
Enseignant "1" - "*" Question : Crée >
Enseignant "1" - "*" Questionnaire : Crée >

legend
|= |= Type |
|<back:blue>_1_</back>| Classe non modifiée première itération |
|<back:yellow>_1_</back>| Classe modifiée première itération |
|<back:red>_2_</back>| Nouvelle classe deuxième itération |
endlegend
@enduml

PlantUML version 1.2021.9beta2(Unknown compile time)
(GPL source distribution)
Java Runtime: Java(TM) SE Runtime Environment
JVM: Java HotSpot(TM) 64-Bit Server VM
Default Encoding: UTF-8
Language: en
Country: US
--></g></svg>