<?xml version="1.0" encoding="UTF-8" standalone="no"?><svg xmlns="http://www.w3.org/2000/svg" xmlns:xlink="http://www.w3.org/1999/xlink" contentScriptType="application/ecmascript" contentStyleType="text/css" height="942px" preserveAspectRatio="none" style="width:918px;height:942px;background:#FFFFFF;" version="1.1" viewBox="0 0 918 942" width="918px" zoomAndPan="magnify"><defs><filter height="300%" id="f1wxbaq701mlby" width="300%" x="-1" y="-1"><feGaussianBlur result="blurOut" stdDeviation="2.0"/><feColorMatrix in="blurOut" result="blurOut2" type="matrix" values="0 0 0 0 0 0 0 0 0 0 0 0 0 0 0 0 0 0 .4 0"/><feOffset dx="4.0" dy="4.0" in="blurOut2" result="blurOut3"/><feBlend in="SourceGraphic" in2="blurOut3" mode="normal"/></filter></defs><g><text fill="#000000" font-family="Verdana" font-size="18" lengthAdjust="spacing" textLength="438" x="230.7192" y="16.708">Modèle du domaine (adapté au Cas d'utilisation</text><text fill="#000000" font-family="Verdana" font-size="18" lengthAdjust="spacing" textLength="205" x="353.2192" y="37.6611">ajouter et récupérer )</text><!--MD5=[f6edf60997924e693a9a5571eb281b8c]
class Cours--><rect codeLine="7" fill="#FEFECE" filter="url(#f1wxbaq701mlby)" height="73.6094" id="Cours" rx="10" ry="10" style="stroke:#A80036;stroke-width:1.5;" width="81" x="74.9386" y="231.9063"/><ellipse cx="96.2386" cy="247.9063" fill="#ADD1B2" rx="11" ry="11" style="stroke:#A80036;stroke-width:1.0;"/><path d="M98.5824,243.5781 C97.6449,243.1406 97.0511,243 96.1761,243 C93.5511,243 91.5511,245.0781 91.5511,247.7969 L91.5511,248.9219 C91.5511,251.5 93.6605,253.3906 96.5511,253.3906 C97.7699,253.3906 98.9261,253.0938 99.6761,252.5469 C100.2542,252.1406 100.5824,251.6875 100.5824,251.2969 C100.5824,250.8438 100.1917,250.4531 99.723,250.4531 C99.5042,250.4531 99.3011,250.5313 99.1136,250.7188 C98.6605,251.2031 98.6605,251.2031 98.473,251.2969 C98.0511,251.5625 97.3636,251.6875 96.598,251.6875 C94.5511,251.6875 93.2542,250.5938 93.2542,248.8906 L93.2542,247.7969 C93.2542,246.0156 94.5042,244.7031 96.2386,244.7031 C96.8167,244.7031 97.4261,244.8594 97.8949,245.1094 C98.3792,245.3906 98.5511,245.6094 98.6449,246.0156 C98.7074,246.4219 98.7386,246.5469 98.8792,246.6719 C99.0199,246.8125 99.2542,246.9219 99.473,246.9219 C99.7386,246.9219 100.0042,246.7813 100.1761,246.5625 C100.2855,246.4063 100.3167,246.2188 100.3167,245.7969 L100.3167,244.375 C100.3167,243.9375 100.3011,243.8125 100.2074,243.6563 C100.0511,243.3906 99.7699,243.25 99.473,243.25 C99.1761,243.25 98.973,243.3438 98.7542,243.6563 L98.5824,243.5781 Z " fill="#000000"/><text fill="#000000" font-family="Verdana" font-size="12" lengthAdjust="spacing" textLength="35" x="111.6386" y="252.0605">Cours</text><line style="stroke:#A80036;stroke-width:1.5;" x1="75.9386" x2="154.9386" y1="263.9063" y2="263.9063"/><text fill="#000000" font-family="Verdana" font-size="11" lengthAdjust="spacing" textLength="35" x="80.9386" y="278.1167">id : int</text><text fill="#000000" font-family="Verdana" font-size="11" lengthAdjust="spacing" textLength="69" x="80.9386" y="290.9214">nom : String</text><line style="stroke:#A80036;stroke-width:1.5;" x1="75.9386" x2="154.9386" y1="297.5156" y2="297.5156"/><!--MD5=[0ea76b077f2fe2b0557d144a0cdb3724]
class Enseignant--><rect codeLine="13" fill="#FEFECE" filter="url(#f1wxbaq701mlby)" height="60.8047" id="Enseignant" rx="10" ry="10" style="stroke:#A80036;stroke-width:1.5;" width="97" x="190.9384" y="238.4063"/><ellipse cx="205.9384" cy="254.4063" fill="#ADD1B2" rx="11" ry="11" style="stroke:#A80036;stroke-width:1.0;"/><path d="M208.2822,250.0781 C207.3447,249.6406 206.7509,249.5 205.8759,249.5 C203.2509,249.5 201.2509,251.5781 201.2509,254.2969 L201.2509,255.4219 C201.2509,258 203.3603,259.8906 206.2509,259.8906 C207.4697,259.8906 208.6259,259.5938 209.3759,259.0469 C209.954,258.6406 210.2822,258.1875 210.2822,257.7969 C210.2822,257.3438 209.8915,256.9531 209.4228,256.9531 C209.204,256.9531 209.0009,257.0313 208.8134,257.2188 C208.3603,257.7031 208.3603,257.7031 208.1728,257.7969 C207.7509,258.0625 207.0634,258.1875 206.2978,258.1875 C204.2509,258.1875 202.954,257.0938 202.954,255.3906 L202.954,254.2969 C202.954,252.5156 204.204,251.2031 205.9384,251.2031 C206.5165,251.2031 207.1259,251.3594 207.5947,251.6094 C208.079,251.8906 208.2509,252.1094 208.3447,252.5156 C208.4072,252.9219 208.4384,253.0469 208.579,253.1719 C208.7197,253.3125 208.954,253.4219 209.1728,253.4219 C209.4384,253.4219 209.704,253.2813 209.8759,253.0625 C209.9853,252.9063 210.0165,252.7188 210.0165,252.2969 L210.0165,250.875 C210.0165,250.4375 210.0009,250.3125 209.9072,250.1563 C209.7509,249.8906 209.4697,249.75 209.1728,249.75 C208.8759,249.75 208.6728,249.8438 208.454,250.1563 L208.2822,250.0781 Z " fill="#000000"/><text fill="#000000" font-family="Verdana" font-size="12" lengthAdjust="spacing" textLength="65" x="219.9384" y="258.5605">Enseignant</text><line style="stroke:#A80036;stroke-width:1.5;" x1="191.9384" x2="286.9384" y1="270.4063" y2="270.4063"/><text fill="#000000" font-family="Verdana" font-size="11" lengthAdjust="spacing" textLength="76" x="196.9384" y="284.6167">token : String</text><line style="stroke:#A80036;stroke-width:1.5;" x1="191.9384" x2="286.9384" y1="291.2109" y2="291.2109"/><!--MD5=[f84e857de5a9ca5678aed72e3e98d0a5]
class Etudiant--><rect codeLine="17" fill="#FEFECE" filter="url(#f1wxbaq701mlby)" height="60.8047" id="Etudiant" rx="10" ry="10" style="stroke:#A80036;stroke-width:1.5;" width="81" x="65.9386" y="546.4063"/><ellipse cx="81.8386" cy="562.4063" fill="#ADD1B2" rx="11" ry="11" style="stroke:#A80036;stroke-width:1.0;"/><path d="M84.1824,558.0781 C83.2449,557.6406 82.6511,557.5 81.7761,557.5 C79.1511,557.5 77.1511,559.5781 77.1511,562.2969 L77.1511,563.4219 C77.1511,566 79.2605,567.8906 82.1511,567.8906 C83.3699,567.8906 84.5261,567.5938 85.2761,567.0469 C85.8542,566.6406 86.1824,566.1875 86.1824,565.7969 C86.1824,565.3438 85.7917,564.9531 85.323,564.9531 C85.1042,564.9531 84.9011,565.0313 84.7136,565.2188 C84.2605,565.7031 84.2605,565.7031 84.073,565.7969 C83.6511,566.0625 82.9636,566.1875 82.198,566.1875 C80.1511,566.1875 78.8542,565.0938 78.8542,563.3906 L78.8542,562.2969 C78.8542,560.5156 80.1042,559.2031 81.8386,559.2031 C82.4167,559.2031 83.0261,559.3594 83.4949,559.6094 C83.9792,559.8906 84.1511,560.1094 84.2449,560.5156 C84.3074,560.9219 84.3386,561.0469 84.4792,561.1719 C84.6199,561.3125 84.8542,561.4219 85.073,561.4219 C85.3386,561.4219 85.6042,561.2813 85.7761,561.0625 C85.8855,560.9063 85.9167,560.7188 85.9167,560.2969 L85.9167,558.875 C85.9167,558.4375 85.9011,558.3125 85.8074,558.1563 C85.6511,557.8906 85.3699,557.75 85.073,557.75 C84.7761,557.75 84.573,557.8438 84.3542,558.1563 L84.1824,558.0781 Z " fill="#000000"/><text fill="#000000" font-family="Verdana" font-size="12" lengthAdjust="spacing" textLength="47" x="96.0386" y="566.5605">Etudiant</text><line style="stroke:#A80036;stroke-width:1.5;" x1="66.9386" x2="145.9386" y1="578.4063" y2="578.4063"/><text fill="#000000" font-family="Verdana" font-size="11" lengthAdjust="spacing" textLength="69" x="71.9386" y="592.6167">nom : String</text><line style="stroke:#A80036;stroke-width:1.5;" x1="66.9386" x2="145.9386" y1="599.2109" y2="599.2109"/><!--MD5=[54a5e0e6ed87cf29c8834e8f40ab0f5d]
class Devoir--><rect codeLine="21" fill="#FEFECE" filter="url(#f1wxbaq701mlby)" height="73.6094" id="Devoir" rx="10" ry="10" style="stroke:#A80036;stroke-width:1.5;" width="77" x="585.9384" y="539.9063"/><ellipse cx="603.1884" cy="555.9063" fill="#ADD1B2" rx="11" ry="11" style="stroke:#A80036;stroke-width:1.0;"/><path d="M605.5322,551.5781 C604.5947,551.1406 604.0009,551 603.1259,551 C600.5009,551 598.5009,553.0781 598.5009,555.7969 L598.5009,556.9219 C598.5009,559.5 600.6103,561.3906 603.5009,561.3906 C604.7197,561.3906 605.8759,561.0938 606.6259,560.5469 C607.204,560.1406 607.5322,559.6875 607.5322,559.2969 C607.5322,558.8438 607.1415,558.4531 606.6728,558.4531 C606.454,558.4531 606.2509,558.5313 606.0634,558.7188 C605.6103,559.2031 605.6103,559.2031 605.4228,559.2969 C605.0009,559.5625 604.3134,559.6875 603.5478,559.6875 C601.5009,559.6875 600.204,558.5938 600.204,556.8906 L600.204,555.7969 C600.204,554.0156 601.454,552.7031 603.1884,552.7031 C603.7665,552.7031 604.3759,552.8594 604.8447,553.1094 C605.329,553.3906 605.5009,553.6094 605.5947,554.0156 C605.6572,554.4219 605.6884,554.5469 605.829,554.6719 C605.9697,554.8125 606.204,554.9219 606.4228,554.9219 C606.6884,554.9219 606.954,554.7813 607.1259,554.5625 C607.2353,554.4063 607.2665,554.2188 607.2665,553.7969 L607.2665,552.375 C607.2665,551.9375 607.2509,551.8125 607.1572,551.6563 C607.0009,551.3906 606.7197,551.25 606.4228,551.25 C606.1259,551.25 605.9228,551.3438 605.704,551.6563 L605.5322,551.5781 Z " fill="#000000"/><text fill="#000000" font-family="Verdana" font-size="12" lengthAdjust="spacing" textLength="40" x="617.6884" y="560.0605">Devoir</text><line style="stroke:#A80036;stroke-width:1.5;" x1="586.9384" x2="661.9384" y1="571.9063" y2="571.9063"/><text fill="#000000" font-family="Verdana" font-size="11" lengthAdjust="spacing" textLength="31" x="591.9384" y="586.1167">id: int</text><text fill="#000000" font-family="Verdana" font-size="11" lengthAdjust="spacing" textLength="65" x="591.9384" y="598.9214">nom: String</text><line style="stroke:#A80036;stroke-width:1.5;" x1="586.9384" x2="661.9384" y1="605.5156" y2="605.5156"/><!--MD5=[1d9b9fea38fde0ee3d12b7f249f77478]
class Remise--><rect codeLine="26" fill="#FEFECE" filter="url(#f1wxbaq701mlby)" height="73.6094" id="Remise" rx="10" ry="10" style="stroke:#A80036;stroke-width:1.5;" width="85" x="722.9384" y="690.9063"/><ellipse cx="741.9884" cy="706.9063" fill="#ADD1B2" rx="11" ry="11" style="stroke:#A80036;stroke-width:1.0;"/><path d="M744.3322,702.5781 C743.3947,702.1406 742.8009,702 741.9259,702 C739.3009,702 737.3009,704.0781 737.3009,706.7969 L737.3009,707.9219 C737.3009,710.5 739.4103,712.3906 742.3009,712.3906 C743.5197,712.3906 744.6759,712.0938 745.4259,711.5469 C746.004,711.1406 746.3322,710.6875 746.3322,710.2969 C746.3322,709.8438 745.9415,709.4531 745.4728,709.4531 C745.254,709.4531 745.0509,709.5313 744.8634,709.7188 C744.4103,710.2031 744.4103,710.2031 744.2228,710.2969 C743.8009,710.5625 743.1134,710.6875 742.3478,710.6875 C740.3009,710.6875 739.004,709.5938 739.004,707.8906 L739.004,706.7969 C739.004,705.0156 740.254,703.7031 741.9884,703.7031 C742.5665,703.7031 743.1759,703.8594 743.6447,704.1094 C744.129,704.3906 744.3009,704.6094 744.3947,705.0156 C744.4572,705.4219 744.4884,705.5469 744.629,705.6719 C744.7697,705.8125 745.004,705.9219 745.2228,705.9219 C745.4884,705.9219 745.754,705.7813 745.9259,705.5625 C746.0353,705.4063 746.0665,705.2188 746.0665,704.7969 L746.0665,703.375 C746.0665,702.9375 746.0509,702.8125 745.9572,702.6563 C745.8009,702.3906 745.5197,702.25 745.2228,702.25 C744.9259,702.25 744.7228,702.3438 744.504,702.6563 L744.3322,702.5781 Z " fill="#000000"/><text fill="#000000" font-family="Verdana" font-size="12" lengthAdjust="spacing" textLength="44" x="756.8884" y="711.0605">Remise</text><line style="stroke:#A80036;stroke-width:1.5;" x1="723.9384" x2="806.9384" y1="722.9063" y2="722.9063"/><text fill="#000000" font-family="Verdana" font-size="11" lengthAdjust="spacing" textLength="31" x="728.9384" y="737.1167">id: int</text><text fill="#000000" font-family="Verdana" font-size="11" lengthAdjust="spacing" textLength="73" x="728.9384" y="749.9214">idEtudiant:int</text><line style="stroke:#A80036;stroke-width:1.5;" x1="723.9384" x2="806.9384" y1="756.5156" y2="756.5156"/><!--MD5=[d7a86c142fdde356f8ae5a8b885bc91c]
class Etat--><rect codeLine="31" fill="#FEFECE" filter="url(#f1wxbaq701mlby)" height="86.4141" id="Etat" rx="10" ry="10" style="stroke:#A80036;stroke-width:1.5;" width="88" x="721.4384" y="841.9063"/><ellipse cx="751.7384" cy="857.9063" fill="#EB937F" rx="11" ry="11" style="stroke:#A80036;stroke-width:1.0;"/><path d="M750.5353,858.7813 L751.9884,858.7813 L751.9884,858.8906 C751.9884,859.2969 752.0197,859.4531 752.0978,859.6094 C752.254,859.8594 752.5353,860.0156 752.8322,860.0156 C753.0822,860.0156 753.3478,859.875 753.504,859.6563 C753.629,859.5 753.6603,859.3438 753.6603,858.8906 L753.6603,856.9688 C753.6603,856.8125 753.6603,856.7656 753.6447,856.6094 C753.5822,856.1406 753.2697,855.8281 752.8165,855.8281 C752.5665,855.8281 752.3009,855.9688 752.129,856.1875 C752.0197,856.3594 751.9884,856.5156 751.9884,856.9688 L751.9884,857.0938 L750.5353,857.0938 L750.5353,854.6875 L754.5197,854.6875 L754.5197,855.5469 C754.5197,855.9531 754.5509,856.125 754.629,856.2813 C754.8009,856.5313 755.0822,856.6875 755.3634,856.6875 C755.629,856.6875 755.8947,856.5469 756.0665,856.3281 C756.1759,856.1563 756.2072,856.0156 756.2072,855.5469 L756.2072,853 L748.5822,853 C748.1447,853 748.0197,853.0156 747.8634,853.1094 C747.6134,853.2656 747.4572,853.5625 747.4572,853.8438 C747.4572,854.125 747.5978,854.375 747.8165,854.5469 C747.9728,854.6563 748.1603,854.6875 748.5822,854.6875 L748.8322,854.6875 L748.8322,861.2031 L748.5822,861.2031 C748.1759,861.2031 748.0197,861.2188 747.8634,861.3281 C747.6134,861.5 747.4572,861.7656 747.4572,862.0625 C747.4572,862.3281 747.5978,862.5781 747.8165,862.7344 C747.9572,862.8594 748.1915,862.9063 748.5822,862.9063 L756.5822,862.9063 L756.5822,860.3281 C756.5822,859.8906 756.5509,859.75 756.4728,859.5938 C756.3009,859.3438 756.0197,859.1875 755.7384,859.1875 C755.4728,859.1875 755.2072,859.2969 755.0353,859.5469 C754.9259,859.7031 754.8947,859.8438 754.8947,860.3281 L754.8947,861.2031 L750.5353,861.2031 L750.5353,858.7813 Z " fill="#000000"/><text fill="#000000" font-family="Verdana" font-size="12" lengthAdjust="spacing" textLength="22" x="769.1384" y="862.0605">Etat</text><line style="stroke:#A80036;stroke-width:1.5;" x1="722.4384" x2="808.4384" y1="873.9063" y2="873.9063"/><text fill="#000000" font-family="Verdana" font-size="11" lengthAdjust="spacing" textLength="57" x="727.4384" y="888.1167">NonRemis</text><text fill="#000000" font-family="Verdana" font-size="11" lengthAdjust="spacing" textLength="35" x="727.4384" y="900.9214">Remis</text><text fill="#000000" font-family="Verdana" font-size="11" lengthAdjust="spacing" textLength="76" x="727.4384" y="913.7261">RemisCorrige</text><line style="stroke:#A80036;stroke-width:1.5;" x1="722.4384" x2="808.4384" y1="920.3203" y2="920.3203"/><!--MD5=[fc7123defb831ecdd44b2d9bcef6cceb]
class Question--><rect codeLine="37" fill="#FEFECE" filter="url(#f1wxbaq701mlby)" height="137.6328" id="Question" rx="10" ry="10" style="stroke:#A80036;stroke-width:1.5;" width="191" x="597.9384" y="199.9063"/><ellipse cx="662.1884" cy="215.9063" fill="#ADD1B2" rx="11" ry="11" style="stroke:#A80036;stroke-width:1.0;"/><path d="M664.5322,211.5781 C663.5947,211.1406 663.0009,211 662.1259,211 C659.5009,211 657.5009,213.0781 657.5009,215.7969 L657.5009,216.9219 C657.5009,219.5 659.6103,221.3906 662.5009,221.3906 C663.7197,221.3906 664.8759,221.0938 665.6259,220.5469 C666.204,220.1406 666.5322,219.6875 666.5322,219.2969 C666.5322,218.8438 666.1415,218.4531 665.6728,218.4531 C665.454,218.4531 665.2509,218.5313 665.0634,218.7188 C664.6103,219.2031 664.6103,219.2031 664.4228,219.2969 C664.0009,219.5625 663.3134,219.6875 662.5478,219.6875 C660.5009,219.6875 659.204,218.5938 659.204,216.8906 L659.204,215.7969 C659.204,214.0156 660.454,212.7031 662.1884,212.7031 C662.7665,212.7031 663.3759,212.8594 663.8447,213.1094 C664.329,213.3906 664.5009,213.6094 664.5947,214.0156 C664.6572,214.4219 664.6884,214.5469 664.829,214.6719 C664.9697,214.8125 665.204,214.9219 665.4228,214.9219 C665.6884,214.9219 665.954,214.7813 666.1259,214.5625 C666.2353,214.4063 666.2665,214.2188 666.2665,213.7969 L666.2665,212.375 C666.2665,211.9375 666.2509,211.8125 666.1572,211.6563 C666.0009,211.3906 665.7197,211.25 665.4228,211.25 C665.1259,211.25 664.9228,211.3438 664.704,211.6563 L664.5322,211.5781 Z " fill="#000000"/><text fill="#000000" font-family="Verdana" font-size="12" lengthAdjust="spacing" textLength="54" x="682.6884" y="220.0605">Question</text><line style="stroke:#A80036;stroke-width:1.5;" x1="598.9384" x2="787.9384" y1="231.9063" y2="231.9063"/><text fill="#000000" font-family="Verdana" font-size="11" lengthAdjust="spacing" textLength="35" x="603.9384" y="246.1167">id : int</text><text fill="#000000" font-family="Verdana" font-size="11" lengthAdjust="spacing" textLength="69" x="603.9384" y="258.9214">nom : String</text><text fill="#000000" font-family="Verdana" font-size="11" lengthAdjust="spacing" textLength="80" x="603.9384" y="271.7261">tags : String []</text><text fill="#000000" font-family="Verdana" font-size="11" lengthAdjust="spacing" textLength="126" x="603.9384" y="284.5308">texteQuestion : String</text><text fill="#000000" font-family="Verdana" font-size="11" lengthAdjust="spacing" textLength="104" x="603.9384" y="297.3354">reponse : boolean</text><text fill="#000000" font-family="Verdana" font-size="11" lengthAdjust="spacing" textLength="162" x="603.9384" y="310.1401">texteBonneReponse : String</text><text fill="#000000" font-family="Verdana" font-size="11" lengthAdjust="spacing" textLength="179" x="603.9384" y="322.9448">texteMauvaiseReponse : String</text><line style="stroke:#A80036;stroke-width:1.5;" x1="598.9384" x2="787.9384" y1="329.5391" y2="329.5391"/><!--MD5=[5a3b85c54cc1c79904e0b827443986bf]
class Questionnaire--><rect codeLine="47" fill="#FEFECE" filter="url(#f1wxbaq701mlby)" height="73.6094" id="Questionnaire" rx="10" ry="10" style="stroke:#A80036;stroke-width:1.5;" width="116" x="635.4384" y="48.9063"/><ellipse cx="650.4384" cy="64.9063" fill="#ADD1B2" rx="11" ry="11" style="stroke:#A80036;stroke-width:1.0;"/><path d="M652.7822,60.5781 C651.8447,60.1406 651.2509,60 650.3759,60 C647.7509,60 645.7509,62.0781 645.7509,64.7969 L645.7509,65.9219 C645.7509,68.5 647.8603,70.3906 650.7509,70.3906 C651.9697,70.3906 653.1259,70.0938 653.8759,69.5469 C654.454,69.1406 654.7822,68.6875 654.7822,68.2969 C654.7822,67.8438 654.3915,67.4531 653.9228,67.4531 C653.704,67.4531 653.5009,67.5313 653.3134,67.7188 C652.8603,68.2031 652.8603,68.2031 652.6728,68.2969 C652.2509,68.5625 651.5634,68.6875 650.7978,68.6875 C648.7509,68.6875 647.454,67.5938 647.454,65.8906 L647.454,64.7969 C647.454,63.0156 648.704,61.7031 650.4384,61.7031 C651.0165,61.7031 651.6259,61.8594 652.0947,62.1094 C652.579,62.3906 652.7509,62.6094 652.8447,63.0156 C652.9072,63.4219 652.9384,63.5469 653.079,63.6719 C653.2197,63.8125 653.454,63.9219 653.6728,63.9219 C653.9384,63.9219 654.204,63.7813 654.3759,63.5625 C654.4853,63.4063 654.5165,63.2188 654.5165,62.7969 L654.5165,61.375 C654.5165,60.9375 654.5009,60.8125 654.4072,60.6563 C654.2509,60.3906 653.9697,60.25 653.6728,60.25 C653.3759,60.25 653.1728,60.3438 652.954,60.6563 L652.7822,60.5781 Z " fill="#000000"/><text fill="#000000" font-family="Verdana" font-size="12" lengthAdjust="spacing" textLength="84" x="664.4384" y="69.0605">Questionnaire</text><line style="stroke:#A80036;stroke-width:1.5;" x1="636.4384" x2="750.4384" y1="80.9063" y2="80.9063"/><text fill="#000000" font-family="Verdana" font-size="11" lengthAdjust="spacing" textLength="31" x="641.4384" y="95.1167">id: int</text><text fill="#000000" font-family="Verdana" font-size="11" lengthAdjust="spacing" textLength="102" x="641.4384" y="107.9214">description: String</text><line style="stroke:#A80036;stroke-width:1.5;" x1="636.4384" x2="750.4384" y1="114.5156" y2="114.5156"/><!--MD5=[dabef5714f41dd45c84d2acd22a3f642]
class EspaceCours--><rect codeLine="52" fill="#FEFECE" filter="url(#f1wxbaq701mlby)" height="48" id="EspaceCours" rx="10" ry="10" style="stroke:#A80036;stroke-width:1.5;" width="111" x="302.9384" y="414.9063"/><ellipse cx="317.9384" cy="430.9063" fill="#ADD1B2" rx="11" ry="11" style="stroke:#A80036;stroke-width:1.0;"/><path d="M320.2822,426.5781 C319.3447,426.1406 318.7509,426 317.8759,426 C315.2509,426 313.2509,428.0781 313.2509,430.7969 L313.2509,431.9219 C313.2509,434.5 315.3603,436.3906 318.2509,436.3906 C319.4697,436.3906 320.6259,436.0938 321.3759,435.5469 C321.954,435.1406 322.2822,434.6875 322.2822,434.2969 C322.2822,433.8438 321.8915,433.4531 321.4228,433.4531 C321.204,433.4531 321.0009,433.5313 320.8134,433.7188 C320.3603,434.2031 320.3603,434.2031 320.1728,434.2969 C319.7509,434.5625 319.0634,434.6875 318.2978,434.6875 C316.2509,434.6875 314.954,433.5938 314.954,431.8906 L314.954,430.7969 C314.954,429.0156 316.204,427.7031 317.9384,427.7031 C318.5165,427.7031 319.1259,427.8594 319.5947,428.1094 C320.079,428.3906 320.2509,428.6094 320.3447,429.0156 C320.4072,429.4219 320.4384,429.5469 320.579,429.6719 C320.7197,429.8125 320.954,429.9219 321.1728,429.9219 C321.4384,429.9219 321.704,429.7813 321.8759,429.5625 C321.9853,429.4063 322.0165,429.2188 322.0165,428.7969 L322.0165,427.375 C322.0165,426.9375 322.0009,426.8125 321.9072,426.6563 C321.7509,426.3906 321.4697,426.25 321.1728,426.25 C320.8759,426.25 320.6728,426.3438 320.454,426.6563 L320.2822,426.5781 Z " fill="#000000"/><text fill="#000000" font-family="Verdana" font-size="12" lengthAdjust="spacing" textLength="79" x="331.9384" y="435.0605">EspaceCours</text><line style="stroke:#A80036;stroke-width:1.5;" x1="303.9384" x2="412.9384" y1="446.9063" y2="446.9063"/><line style="stroke:#A80036;stroke-width:1.5;" x1="303.9384" x2="412.9384" y1="454.9063" y2="454.9063"/><!--MD5=[10a08b655f733f3f3e8b0ffe69f4343a]
class Université--><rect fill="#FEFECE" filter="url(#f1wxbaq701mlby)" height="48" id="Université" rx="10" ry="10" style="stroke:#A80036;stroke-width:1.5;" width="93" x="128.9386" y="61.9063"/><ellipse cx="143.9386" cy="77.9063" fill="#ADD1B2" rx="11" ry="11" style="stroke:#A80036;stroke-width:1.0;"/><path d="M146.2824,73.5781 C145.3449,73.1406 144.7511,73 143.8761,73 C141.2511,73 139.2511,75.0781 139.2511,77.7969 L139.2511,78.9219 C139.2511,81.5 141.3605,83.3906 144.2511,83.3906 C145.4699,83.3906 146.6261,83.0938 147.3761,82.5469 C147.9542,82.1406 148.2824,81.6875 148.2824,81.2969 C148.2824,80.8438 147.8917,80.4531 147.423,80.4531 C147.2042,80.4531 147.0011,80.5313 146.8136,80.7188 C146.3605,81.2031 146.3605,81.2031 146.173,81.2969 C145.7511,81.5625 145.0636,81.6875 144.298,81.6875 C142.2511,81.6875 140.9542,80.5938 140.9542,78.8906 L140.9542,77.7969 C140.9542,76.0156 142.2042,74.7031 143.9386,74.7031 C144.5167,74.7031 145.1261,74.8594 145.5949,75.1094 C146.0792,75.3906 146.2511,75.6094 146.3449,76.0156 C146.4074,76.4219 146.4386,76.5469 146.5792,76.6719 C146.7199,76.8125 146.9542,76.9219 147.173,76.9219 C147.4386,76.9219 147.7042,76.7813 147.8761,76.5625 C147.9855,76.4063 148.0167,76.2188 148.0167,75.7969 L148.0167,74.375 C148.0167,73.9375 148.0011,73.8125 147.9074,73.6563 C147.7511,73.3906 147.4699,73.25 147.173,73.25 C146.8761,73.25 146.673,73.3438 146.4542,73.6563 L146.2824,73.5781 Z " fill="#000000"/><text fill="#000000" font-family="Verdana" font-size="12" lengthAdjust="spacing" textLength="61" x="157.9386" y="82.0605">Université</text><line style="stroke:#A80036;stroke-width:1.5;" x1="129.9386" x2="220.9386" y1="93.9063" y2="93.9063"/><line style="stroke:#A80036;stroke-width:1.5;" x1="129.9386" x2="220.9386" y1="101.9063" y2="101.9063"/><!--MD5=[359da426c3c95d8048c951014945ceb0]
link Devoir to Remise--><path codeLine="54" d="M658.5704,613.9753 C680.5764,637.2293 709.0924,667.3633 731.1324,690.6533 " fill="none" id="Devoir-Remise" style="stroke:#A80036;stroke-width:1.0;"/><polygon fill="#000000" points="707.8751,656.1043,703.7927,647.5145,699.5234,651.5546,707.8751,656.1043" style="stroke:#000000;stroke-width:1.0;"/><text fill="#000000" font-family="Verdana" font-size="13" lengthAdjust="spacing" textLength="52" x="713.4384" y="656.9731">contient</text><text fill="#000000" font-family="Verdana" font-size="13" lengthAdjust="spacing" textLength="8" x="655.561" y="633.4672">1</text><text fill="#000000" font-family="Verdana" font-size="13" lengthAdjust="spacing" textLength="7" x="717.3982" y="679.7951">*</text><!--MD5=[2ef4b75138d5fcb34fec5f94f6bf7653]
link Remise to Etat--><path codeLine="55" d="M765.4384,765.2473 C765.4384,788.1533 765.4384,817.8183 765.4384,841.7566 " fill="none" id="Remise-Etat" style="stroke:#A80036;stroke-width:1.0;"/><polygon fill="#000000" points="770.4384,808.4727,773.3773,799.4276,767.4995,799.4276,770.4384,808.4727" style="stroke:#000000;stroke-width:1.0;"/><text fill="#000000" font-family="Verdana" font-size="13" lengthAdjust="spacing" textLength="54" x="779.4384" y="807.9731">possède</text><text fill="#000000" font-family="Verdana" font-size="13" lengthAdjust="spacing" textLength="8" x="756.8009" y="784.5024">1</text><text fill="#000000" font-family="Verdana" font-size="13" lengthAdjust="spacing" textLength="8" x="756.8009" y="830.7284">1</text><!--MD5=[b8f15a7fbf1e0ac66b43fe2a255415c0]
link EspaceCours to Devoir--><path codeLine="56" d="M403.5614,462.9773 C454.6994,489.1223 537.2094,531.3073 585.5934,556.0453 " fill="none" id="EspaceCours-Devoir" style="stroke:#A80036;stroke-width:1.0;"/><polygon fill="#000000" points="500.8903,503.7488,494.1746,497.0145,491.4989,502.248,500.8903,503.7488" style="stroke:#000000;stroke-width:1.0;"/><text fill="#000000" font-family="Verdana" font-size="13" lengthAdjust="spacing" textLength="52" x="505.4384" y="505.9731">contient</text><text fill="#000000" font-family="Verdana" font-size="13" lengthAdjust="spacing" textLength="8" x="406.0992" y="483.1512">1</text><text fill="#000000" font-family="Verdana" font-size="13" lengthAdjust="spacing" textLength="23" x="554.8843" y="548.8094">1..*</text><!--MD5=[93dcfdb2a1ddb0d5d28e1d54c7b7b70f]
link Enseignant to EspaceCours--><path codeLine="57" d="M237.7274,299.5572 C237.7784,324.5503 241.5164,360.1043 259.4384,384.9063 C270.2294,399.8393 286.5434,410.9693 302.8324,419.0693 " fill="none" id="Enseignant-EspaceCours" style="stroke:#A80036;stroke-width:1.0;"/><polygon fill="#000000" points="266.8303,380.8634,265.0841,371.5145,259.9225,374.3264,266.8303,380.8634" style="stroke:#000000;stroke-width:1.0;"/><text fill="#000000" font-family="Verdana" font-size="13" lengthAdjust="spacing" textLength="58" x="273.4384" y="380.9731">enseigne</text><text fill="#000000" font-family="Verdana" font-size="13" lengthAdjust="spacing" textLength="8" x="228.603" y="319.1674">1</text><text fill="#000000" font-family="Verdana" font-size="13" lengthAdjust="spacing" textLength="23" x="272.0733" y="412.983">1..*</text><!--MD5=[e696a511ab66ff85cf29965a3cb732fe]
link Université to Enseignant--><path codeLine="58" d="M183.6744,110.1983 C195.2544,142.9473 216.3454,202.5963 229.0074,238.4063 " fill="none" id="Université-Enseignant" style="stroke:#A80036;stroke-width:1.0;"/><polygon fill="#000000" points="211.1052,166.1866,210.8607,156.6792,205.3191,158.6387,211.1052,166.1866" style="stroke:#000000;stroke-width:1.0;"/><text fill="#000000" font-family="Verdana" font-size="13" lengthAdjust="spacing" textLength="51" x="218.4384" y="165.9731">emploie</text><text fill="#000000" font-family="Verdana" font-size="13" lengthAdjust="spacing" textLength="8" x="176.7069" y="130.0306">1</text><text fill="#000000" font-family="Verdana" font-size="13" lengthAdjust="spacing" textLength="7" x="218.96" y="227.1965">*</text><!--MD5=[5f5ea864aa0d8e50d66671c98d7d892f]
link Cours to EspaceCours--><path codeLine="59" d="M131.2348,306.0923 C144.0514,331.5113 164.4214,364.4923 191.4384,384.9063 C223.8384,409.3873 267.8614,422.7483 302.5734,429.9293 " fill="none" id="Cours-EspaceCours" style="stroke:#A80036;stroke-width:1.0;"/><polygon fill="#000000" points="200.4908,379.4015,194.8815,371.7212,191.4384,376.4851,200.4908,379.4015" style="stroke:#000000;stroke-width:1.0;"/><text fill="#000000" font-family="Verdana" font-size="13" lengthAdjust="spacing" textLength="36" x="205.4384" y="380.9731">décrit</text><text fill="#000000" font-family="Verdana" font-size="13" lengthAdjust="spacing" textLength="8" x="125.1885" y="325.6036">1</text><text fill="#000000" font-family="Verdana" font-size="13" lengthAdjust="spacing" textLength="8" x="286.9032" y="424.8935">1</text><!--MD5=[cd0fbe75c199b7105571d279d6d2d771]
link Université to Cours--><path codeLine="60" d="M150.2094,110.1613 C139.2994,121.8352 127.6317,136.8882 121.4386,152.9063 C111.7417,177.9873 110.5779,208.4573 111.6575,231.7313 " fill="none" id="Université-Cours" style="stroke:#A80036;stroke-width:1.0;"/><polygon fill="#000000" points="124.9272,166.2387,130.4628,158.5052,124.8599,156.7284,124.9272,166.2387" style="stroke:#000000;stroke-width:1.0;"/><text fill="#000000" font-family="Verdana" font-size="13" lengthAdjust="spacing" textLength="52" x="135.4386" y="165.9731">contient</text><text fill="#000000" font-family="Verdana" font-size="13" lengthAdjust="spacing" textLength="8" x="135.0848" y="129.9846">1</text><text fill="#000000" font-family="Verdana" font-size="13" lengthAdjust="spacing" textLength="7" x="103.3606" y="220.887">*</text><!--MD5=[a719c3afe478145ef5bffac787162784]
link EspaceCours to Etudiant--><path codeLine="61" d="M315.6904,462.9773 C268.6484,488.3643 193.5834,528.8753 147.3054,553.8512 " fill="none" id="EspaceCours-Etudiant" style="stroke:#A80036;stroke-width:1.0;"/><polygon fill="#000000" points="256.0383,503.8473,265.394,502.1378,262.6024,496.9652,256.0383,503.8473" style="stroke:#000000;stroke-width:1.0;"/><text fill="#000000" font-family="Verdana" font-size="13" lengthAdjust="spacing" textLength="84" x="269.4384" y="505.9731">est_suivi_par</text><text fill="#000000" font-family="Verdana" font-size="13" lengthAdjust="spacing" textLength="8" x="295.7112" y="483.1512">1</text><text fill="#000000" font-family="Verdana" font-size="13" lengthAdjust="spacing" textLength="7" x="154.9309" y="545.6947">*</text><!--MD5=[d99a8c8e2f040432a664dac4ac75f7f7]
link Questionnaire to Question--><path codeLine="62" d="M693.4384,123.0992 C693.4384,144.9702 693.4384,173.5562 693.4384,199.5463 " fill="none" id="Questionnaire-Question" style="stroke:#A80036;stroke-width:1.0;"/><polygon fill="#000000" points="698.4384,166.4727,701.3773,157.4276,695.4995,157.4276,698.4384,166.4727" style="stroke:#000000;stroke-width:1.0;"/><text fill="#000000" font-family="Verdana" font-size="13" lengthAdjust="spacing" textLength="52" x="707.4384" y="165.9731">contient</text><text fill="#000000" font-family="Verdana" font-size="13" lengthAdjust="spacing" textLength="8" x="684.7759" y="142.6118">1</text><text fill="#000000" font-family="Verdana" font-size="13" lengthAdjust="spacing" textLength="23" x="669.2525" y="188.7127">1..*</text><!--MD5=[325701bbe546bfc91cac5365729ea61d]
link Questionnaire to Remise--><path codeLine="63" d="M749.3444,123.2263 C791.6244,155.5503 842.4384,207.0572 842.4384,267.9063 C842.4384,267.9063 842.4384,267.9063 842.4384,577.9063 C842.4384,619.9823 817.9054,662.0303 796.5354,690.6773 " fill="none" id="Questionnaire-Remise" style="stroke:#A80036;stroke-width:1.0;"/><polygon fill="#000000" points="847.8528,443.9555,850.032,434.6979,844.1743,435.1851,847.8528,443.9555" style="stroke:#000000;stroke-width:1.0;"/><text fill="#000000" font-family="Verdana" font-size="13" lengthAdjust="spacing" textLength="54" x="856.4384" y="443.4731">possède</text><text fill="#000000" font-family="Verdana" font-size="13" lengthAdjust="spacing" textLength="8" x="749.6169" y="142.478">1</text><text fill="#000000" font-family="Verdana" font-size="13" lengthAdjust="spacing" textLength="7" x="794.4511" y="679.8234">*</text><!--MD5=[9f636a31fd47673c009bae167edd40f2]
link Université to EspaceCours--><path codeLine="64" d="M221.4874,110.0142 C240.6534,121.1632 262.1774,135.8383 278.4384,152.9063 C349.8684,227.8813 358.4154,361.3982 358.8174,414.8493 " fill="none" id="Université-EspaceCours" style="stroke:#A80036;stroke-width:1.0;"/><polygon fill="#000000" points="360.4921,273.5314,359.4565,264.0774,354.0973,266.4917,360.4921,273.5314" style="stroke:#000000;stroke-width:1.0;"/><text fill="#000000" font-family="Verdana" font-size="13" lengthAdjust="spacing" textLength="52" x="367.4384" y="273.4731">contient</text><text fill="#000000" font-family="Verdana" font-size="13" lengthAdjust="spacing" textLength="8" x="223.7368" y="129.8018">1</text><text fill="#000000" font-family="Verdana" font-size="13" lengthAdjust="spacing" textLength="7" x="351.0176" y="403.8467">*</text><!--MD5=[5217f6319e60196188b9b46941152dbc]
link Université to Etudiant--><path codeLine="65" d="M138.3834,110.0633 C110.2884,129.9923 73.8109,161.5593 57.4386,199.9063 C6,320.3863 64.1412,480.7603 92.5824,546.2043 " fill="none" id="Université-Etudiant" style="stroke:#A80036;stroke-width:1.0;"/><polygon fill="#000000" points="48.9608,371.5,45.0933,380.1887,50.939,380.8026,48.9608,371.5" style="stroke:#000000;stroke-width:1.0;"/><text fill="#000000" font-family="Verdana" font-size="13" lengthAdjust="spacing" textLength="76" x="57.4386" y="380.9731">est-inscrit-à</text><text fill="#000000" font-family="Verdana" font-size="13" lengthAdjust="spacing" textLength="8" x="120.3759" y="129.8627">1</text><text fill="#000000" font-family="Verdana" font-size="13" lengthAdjust="spacing" textLength="7" x="82.0027" y="535.4258">*</text><!--MD5=[31ca12531000ae5fbc8b65f0576c1ae5]
link Question to EspaceCours--><path codeLine="66" d="M601.6024,338.0453 C576.4334,354.8212 548.5834,371.7313 521.4384,384.9063 C487.1724,401.5373 446.4224,414.7873 414.2394,423.8793 " fill="none" id="Question-EspaceCours" style="stroke:#A80036;stroke-width:1.0;"/><polygon fill="#000000" points="560.9841,374.3902,551.5368,375.4855,553.9849,380.8293,560.9841,374.3902" style="stroke:#000000;stroke-width:1.0;"/><text fill="#000000" font-family="Verdana" font-size="13" lengthAdjust="spacing" textLength="52" x="565.4384" y="380.9731">contient</text><text fill="#000000" font-family="Verdana" font-size="13" lengthAdjust="spacing" textLength="7" x="585.2178" y="357.6809">*</text><text fill="#000000" font-family="Verdana" font-size="13" lengthAdjust="spacing" textLength="8" x="421.9014" y="418.0684">1</text><!--MD5=[9658aa9b13a75953075a809ba662f093]
link Questionnaire to EspaceCours--><path codeLine="67" d="M635.1544,114.6273 C597.3624,134.6073 548.7704,164.2722 513.4384,199.9063 C462.7204,251.0593 467.9994,277.7073 428.4384,337.9063 C410.8644,364.6482 389.6684,394.6353 375.2374,414.7343 " fill="none" id="Questionnaire-EspaceCours" style="stroke:#A80036;stroke-width:1.0;"/><polygon fill="#000000" points="515.165,272.7522,523.3082,267.839,518.8651,263.9909,515.165,272.7522" style="stroke:#000000;stroke-width:1.0;"/><text fill="#000000" font-family="Verdana" font-size="13" lengthAdjust="spacing" textLength="52" x="527.4384" y="273.4731">contient</text><text fill="#000000" font-family="Verdana" font-size="13" lengthAdjust="spacing" textLength="7" x="620.6245" y="114.3124">*</text><text fill="#000000" font-family="Verdana" font-size="13" lengthAdjust="spacing" textLength="8" x="370.5171" y="403.7022">1</text><!--MD5=[37a139930759724f7448ac8e2bb396f3]
@startuml
skinparam defaultfontname Verdana
skinparam RoundCorner 20
' skinparam linetype ortho

title Modèle du domaine (adapté au Cas d'utilisation \n ajouter et récupérer )

class Cours {
    id : int
    nom : String
}


class Enseignant {
    token : String
}

class Etudiant {
    nom : String
}

class Devoir{
    id: int
    nom: String
}

class Remise{
    id: int
    idEtudiant:int
}

enum Etat{
    NonRemis
    Remis
    RemisCorrige
}

class Question{
    id : int
    nom : String
    tags : String []
    texteQuestion : String
    reponse : boolean
    texteBonneReponse : String
    texteMauvaiseReponse : String
}

class Questionnaire{
    id: int
    description: String
}

class EspaceCours{
}
Devoir "1"- -"*" Remise : contient >
Remise"1"- -"1" Etat : possède >
EspaceCours "1"- -"1..*" Devoir: contient >
Enseignant "1"- -"1..*" EspaceCours : enseigne >
Université "1"- -"*" Enseignant : emploie >
Cours "1"- - "1" EspaceCours : décrit >
Université "1"- -"*" Cours : contient >
EspaceCours "1"- - "*"Etudiant : est_suivi_par >
Questionnaire "1"- -"1..*" Question : contient >
Questionnaire"1"- -"*" Remise : possède >
Université "1"- -"*" EspaceCours : contient >
Université "1"- -"*" Etudiant : est-inscrit-à <
Question "*"- -"1" EspaceCours : contient <
Questionnaire "*"- -"1" EspaceCours : contient >
@enduml

@startuml
skinparam defaultfontname Verdana
skinparam RoundCorner 20

title Modèle du domaine (adapté au Cas d'utilisation \n ajouter et récupérer )

class Cours {
    id : int
    nom : String
}


class Enseignant {
    token : String
}

class Etudiant {
    nom : String
}

class Devoir{
    id: int
    nom: String
}

class Remise{
    id: int
    idEtudiant:int
}

enum Etat{
    NonRemis
    Remis
    RemisCorrige
}

class Question{
    id : int
    nom : String
    tags : String []
    texteQuestion : String
    reponse : boolean
    texteBonneReponse : String
    texteMauvaiseReponse : String
}

class Questionnaire{
    id: int
    description: String
}

class EspaceCours{
}
Devoir "1"- -"*" Remise : contient >
Remise"1"- -"1" Etat : possède >
EspaceCours "1"- -"1..*" Devoir: contient >
Enseignant "1"- -"1..*" EspaceCours : enseigne >
Université "1"- -"*" Enseignant : emploie >
Cours "1"- - "1" EspaceCours : décrit >
Université "1"- -"*" Cours : contient >
EspaceCours "1"- - "*"Etudiant : est_suivi_par >
Questionnaire "1"- -"1..*" Question : contient >
Questionnaire"1"- -"*" Remise : possède >
Université "1"- -"*" EspaceCours : contient >
Université "1"- -"*" Etudiant : est-inscrit-à <
Question "*"- -"1" EspaceCours : contient <
Questionnaire "*"- -"1" EspaceCours : contient >
@enduml

PlantUML version 1.2021.8beta3(Unknown compile time)
(GPL source distribution)
Java Runtime: Java(TM) SE Runtime Environment
JVM: Java HotSpot(TM) 64-Bit Server VM
Default Encoding: UTF-8
Language: en
Country: US
--></g></svg>