<?xml version="1.0" encoding="UTF-8" standalone="no"?><svg xmlns="http://www.w3.org/2000/svg" xmlns:xlink="http://www.w3.org/1999/xlink" contentScriptType="application/ecmascript" contentStyleType="text/css" height="906px" preserveAspectRatio="none" style="width:920px;height:906px;background:#FFFFFF;" version="1.1" viewBox="0 0 920 906" width="920px" zoomAndPan="magnify"><defs><filter height="300%" id="fh2ipoi9z5vzw" width="300%" x="-1" y="-1"><feGaussianBlur result="blurOut" stdDeviation="2.0"/><feColorMatrix in="blurOut" result="blurOut2" type="matrix" values="0 0 0 0 0 0 0 0 0 0 0 0 0 0 0 0 0 0 .4 0"/><feOffset dx="4.0" dy="4.0" in="blurOut2" result="blurOut3"/><feBlend in="SourceGraphic" in2="blurOut3" mode="normal"/></filter><filter height="1" id="bh2ipoi9z5vzw0" width="1" x="0" y="0"><feFlood flood-color="#0000FF" result="flood"/><feComposite in="SourceGraphic" in2="flood" operator="over"/></filter><filter height="1" id="bh2ipoi9z5vzw1" width="1" x="0" y="0"><feFlood flood-color="#FFFF00" result="flood"/><feComposite in="SourceGraphic" in2="flood" operator="over"/></filter><filter height="1" id="bh2ipoi9z5vzw2" width="1" x="0" y="0"><feFlood flood-color="#FF0000" result="flood"/><feComposite in="SourceGraphic" in2="flood" operator="over"/></filter></defs><g><text fill="#000000" font-family="Verdana" font-size="18" lengthAdjust="spacing" textLength="438" x="231.7277" y="16.708">Modèle du domaine (adapté au Cas d'utilisation</text><text fill="#000000" font-family="Verdana" font-size="18" lengthAdjust="spacing" textLength="205" x="354.2277" y="37.6611">ajouter et récupérer )</text><!--MD5=[f6edf60997924e693a9a5571eb281b8c]
class Cours--><rect codeLine="6" fill="#FEFECE" filter="url(#fh2ipoi9z5vzw)" height="73.6094" id="Cours" rx="10" ry="10" style="stroke:#A80036;stroke-width:1.5;" width="81" x="76.9552" y="231.9063"/><ellipse cx="98.2552" cy="247.9063" fill="#0000FF" rx="11" ry="11" style="stroke:#A80036;stroke-width:1.0;"/><path d="M99.2083,242.0625 L95.599,243 C94.9271,243.1719 94.6927,243.375 94.6927,243.8594 C94.6927,244.3594 95.0365,244.75 95.4896,244.75 C95.6458,244.75 95.7083,244.7344 96.0208,244.6406 L97.5052,244.25 L97.5052,251.2031 L95.7865,251.2031 C95.349,251.2031 95.224,251.2188 95.0677,251.3281 C94.8177,251.4844 94.6615,251.7656 94.6615,252.0625 C94.6615,252.3125 94.8021,252.5781 95.0208,252.7344 C95.1615,252.8594 95.3958,252.9063 95.7865,252.9063 L100.9271,252.9063 C101.2552,252.9063 101.5208,252.8594 101.6302,252.7813 C101.8958,252.625 102.0365,252.3438 102.0365,252.0625 C102.0365,251.7813 101.9115,251.5313 101.6927,251.3594 C101.5208,251.2344 101.3802,251.2031 100.9271,251.2031 L99.2083,251.2031 L99.2083,242.0625 Z " fill="#000000"/><text fill="#000000" font-family="Verdana" font-size="12" lengthAdjust="spacing" textLength="35" x="113.6552" y="252.0605">Cours</text><line style="stroke:#A80036;stroke-width:1.5;" x1="77.9552" x2="156.9552" y1="263.9063" y2="263.9063"/><text fill="#000000" font-family="Verdana" font-size="11" lengthAdjust="spacing" textLength="65" x="82.9552" y="278.1167">id : number</text><text fill="#000000" font-family="Verdana" font-size="11" lengthAdjust="spacing" textLength="69" x="82.9552" y="290.9214">nom : String</text><line style="stroke:#A80036;stroke-width:1.5;" x1="77.9552" x2="156.9552" y1="297.5156" y2="297.5156"/><!--MD5=[0ea76b077f2fe2b0557d144a0cdb3724]
class Enseignant--><rect codeLine="12" fill="#FEFECE" filter="url(#fh2ipoi9z5vzw)" height="60.8047" id="Enseignant" rx="10" ry="10" style="stroke:#A80036;stroke-width:1.5;" width="97" x="192.9554" y="238.4063"/><ellipse cx="207.9554" cy="254.4063" fill="#0000FF" rx="11" ry="11" style="stroke:#A80036;stroke-width:1.0;"/><path d="M208.9085,248.5625 L205.2992,249.5 C204.6273,249.6719 204.3929,249.875 204.3929,250.3594 C204.3929,250.8594 204.7367,251.25 205.1898,251.25 C205.346,251.25 205.4085,251.2344 205.721,251.1406 L207.2054,250.75 L207.2054,257.7031 L205.4867,257.7031 C205.0492,257.7031 204.9242,257.7188 204.7679,257.8281 C204.5179,257.9844 204.3617,258.2656 204.3617,258.5625 C204.3617,258.8125 204.5023,259.0781 204.721,259.2344 C204.8617,259.3594 205.096,259.4063 205.4867,259.4063 L210.6273,259.4063 C210.9554,259.4063 211.221,259.3594 211.3304,259.2813 C211.596,259.125 211.7367,258.8438 211.7367,258.5625 C211.7367,258.2813 211.6117,258.0313 211.3929,257.8594 C211.221,257.7344 211.0804,257.7031 210.6273,257.7031 L208.9085,257.7031 L208.9085,248.5625 Z " fill="#000000"/><text fill="#000000" font-family="Verdana" font-size="12" lengthAdjust="spacing" textLength="65" x="221.9554" y="258.5605">Enseignant</text><line style="stroke:#A80036;stroke-width:1.5;" x1="193.9554" x2="288.9554" y1="270.4063" y2="270.4063"/><text fill="#000000" font-family="Verdana" font-size="11" lengthAdjust="spacing" textLength="76" x="198.9554" y="284.6167">token : String</text><line style="stroke:#A80036;stroke-width:1.5;" x1="193.9554" x2="288.9554" y1="291.2109" y2="291.2109"/><!--MD5=[f84e857de5a9ca5678aed72e3e98d0a5]
class Etudiant--><rect codeLine="16" fill="#FEFECE" filter="url(#fh2ipoi9z5vzw)" height="60.8047" id="Etudiant" rx="10" ry="10" style="stroke:#A80036;stroke-width:1.5;" width="81" x="67.9552" y="559.4063"/><ellipse cx="83.8552" cy="575.4063" fill="#0000FF" rx="11" ry="11" style="stroke:#A80036;stroke-width:1.0;"/><path d="M84.8083,569.5625 L81.199,570.5 C80.5271,570.6719 80.2927,570.875 80.2927,571.3594 C80.2927,571.8594 80.6365,572.25 81.0896,572.25 C81.2458,572.25 81.3083,572.2344 81.6208,572.1406 L83.1052,571.75 L83.1052,578.7031 L81.3865,578.7031 C80.949,578.7031 80.824,578.7188 80.6677,578.8281 C80.4177,578.9844 80.2615,579.2656 80.2615,579.5625 C80.2615,579.8125 80.4021,580.0781 80.6208,580.2344 C80.7615,580.3594 80.9958,580.4063 81.3865,580.4063 L86.5271,580.4063 C86.8552,580.4063 87.1208,580.3594 87.2302,580.2813 C87.4958,580.125 87.6365,579.8438 87.6365,579.5625 C87.6365,579.2813 87.5115,579.0313 87.2927,578.8594 C87.1208,578.7344 86.9802,578.7031 86.5271,578.7031 L84.8083,578.7031 L84.8083,569.5625 Z " fill="#000000"/><text fill="#000000" font-family="Verdana" font-size="12" lengthAdjust="spacing" textLength="47" x="98.0552" y="579.5605">Etudiant</text><line style="stroke:#A80036;stroke-width:1.5;" x1="68.9552" x2="147.9552" y1="591.4063" y2="591.4063"/><text fill="#000000" font-family="Verdana" font-size="11" lengthAdjust="spacing" textLength="69" x="73.9552" y="605.6167">nom : String</text><line style="stroke:#A80036;stroke-width:1.5;" x1="68.9552" x2="147.9552" y1="612.2109" y2="612.2109"/><!--MD5=[54a5e0e6ed87cf29c8834e8f40ab0f5d]
class Devoir--><rect codeLine="20" fill="#FEFECE" filter="url(#fh2ipoi9z5vzw)" height="73.6094" id="Devoir" rx="10" ry="10" style="stroke:#A80036;stroke-width:1.5;" width="77" x="587.9554" y="552.9063"/><ellipse cx="605.2054" cy="568.9063" fill="#FF0000" rx="11" ry="11" style="stroke:#A80036;stroke-width:1.0;"/><path d="M603.721,572.2031 C605.221,570.9219 606.2054,570.0625 606.6585,569.6406 C608.346,568.1094 608.7523,567.4688 608.7523,566.3594 C608.7523,564.4688 607.2054,563.0625 605.1429,563.0625 C604.1273,563.0625 603.1585,563.4063 602.4866,564.0156 C601.9085,564.5469 601.471,565.375 601.471,565.9219 C601.471,566.3594 601.8616,566.7344 602.3148,566.7344 C602.6741,566.7344 602.9866,566.5313 603.0804,566.2344 C603.2679,565.6875 603.2835,565.6563 603.4554,565.4531 C603.8304,565.0156 604.4241,564.7656 605.096,564.7656 C606.2054,564.7656 607.0491,565.4219 607.0491,566.2969 C607.0491,566.875 606.7679,567.25 605.0648,568.7969 C604.2991,569.4844 603.9866,569.7656 601.1273,572.125 L601.1273,573.9063 L608.846,573.9063 L608.846,572.4063 C608.846,572 608.8148,571.8438 608.721,571.7031 C608.5648,571.4375 608.2835,571.2813 607.9866,571.2813 C607.471,571.2813 607.1898,571.5938 607.1429,572.2031 L603.721,572.2031 Z " fill="#000000"/><text fill="#000000" font-family="Verdana" font-size="12" lengthAdjust="spacing" textLength="40" x="619.7054" y="573.0605">Devoir</text><line style="stroke:#A80036;stroke-width:1.5;" x1="588.9554" x2="663.9554" y1="584.9063" y2="584.9063"/><text fill="#000000" font-family="Verdana" font-size="11" lengthAdjust="spacing" textLength="61" x="593.9554" y="599.1167">id: number</text><text fill="#000000" font-family="Verdana" font-size="11" lengthAdjust="spacing" textLength="65" x="593.9554" y="611.9214">nom: String</text><line style="stroke:#A80036;stroke-width:1.5;" x1="588.9554" x2="663.9554" y1="618.5156" y2="618.5156"/><!--MD5=[1d9b9fea38fde0ee3d12b7f249f77478]
class Remise--><rect codeLine="25" fill="#FEFECE" filter="url(#fh2ipoi9z5vzw)" height="86.4141" id="Remise" rx="10" ry="10" style="stroke:#A80036;stroke-width:1.5;" width="123" x="705.9554" y="703.9063"/><ellipse cx="742.1054" cy="719.9063" fill="#FF0000" rx="11" ry="11" style="stroke:#A80036;stroke-width:1.0;"/><path d="M740.621,723.2031 C742.121,721.9219 743.1054,721.0625 743.5585,720.6406 C745.246,719.1094 745.6523,718.4688 745.6523,717.3594 C745.6523,715.4688 744.1054,714.0625 742.0429,714.0625 C741.0273,714.0625 740.0585,714.4063 739.3866,715.0156 C738.8085,715.5469 738.371,716.375 738.371,716.9219 C738.371,717.3594 738.7616,717.7344 739.2148,717.7344 C739.5741,717.7344 739.8866,717.5313 739.9804,717.2344 C740.1679,716.6875 740.1835,716.6563 740.3554,716.4531 C740.7304,716.0156 741.3241,715.7656 741.996,715.7656 C743.1054,715.7656 743.9491,716.4219 743.9491,717.2969 C743.9491,717.875 743.6679,718.25 741.9648,719.7969 C741.1991,720.4844 740.8866,720.7656 738.0273,723.125 L738.0273,724.9063 L745.746,724.9063 L745.746,723.4063 C745.746,723 745.7148,722.8438 745.621,722.7031 C745.4648,722.4375 745.1835,722.2813 744.8866,722.2813 C744.371,722.2813 744.0898,722.5938 744.0429,723.2031 L740.621,723.2031 Z " fill="#000000"/><text fill="#000000" font-family="Verdana" font-size="12" lengthAdjust="spacing" textLength="44" x="760.8054" y="724.0605">Remise</text><line style="stroke:#A80036;stroke-width:1.5;" x1="706.9554" x2="827.9554" y1="735.9063" y2="735.9063"/><text fill="#000000" font-family="Verdana" font-size="11" lengthAdjust="spacing" textLength="65" x="711.9554" y="750.1167">id : number</text><text fill="#000000" font-family="Verdana" font-size="11" lengthAdjust="spacing" textLength="67" x="711.9554" y="762.9214">etat : String</text><text fill="#000000" font-family="Verdana" font-size="11" lengthAdjust="spacing" textLength="111" x="711.9554" y="775.7261">idEtudiant : number</text><line style="stroke:#A80036;stroke-width:1.5;" x1="706.9554" x2="827.9554" y1="782.3203" y2="782.3203"/><!--MD5=[fc7123defb831ecdd44b2d9bcef6cceb]
class Question--><rect codeLine="31" fill="#FEFECE" filter="url(#fh2ipoi9z5vzw)" height="137.6328" id="Question" rx="10" ry="10" style="stroke:#A80036;stroke-width:1.5;" width="191" x="599.9554" y="199.9063"/><ellipse cx="664.2054" cy="215.9063" fill="#FFFF00" rx="11" ry="11" style="stroke:#A80036;stroke-width:1.0;"/><path d="M665.1585,210.0625 L661.5491,211 C660.8773,211.1719 660.6429,211.375 660.6429,211.8594 C660.6429,212.3594 660.9866,212.75 661.4398,212.75 C661.596,212.75 661.6585,212.7344 661.971,212.6406 L663.4554,212.25 L663.4554,219.2031 L661.7366,219.2031 C661.2991,219.2031 661.1741,219.2188 661.0179,219.3281 C660.7679,219.4844 660.6116,219.7656 660.6116,220.0625 C660.6116,220.3125 660.7523,220.5781 660.971,220.7344 C661.1116,220.8594 661.346,220.9063 661.7366,220.9063 L666.8773,220.9063 C667.2054,220.9063 667.471,220.8594 667.5804,220.7813 C667.846,220.625 667.9866,220.3438 667.9866,220.0625 C667.9866,219.7813 667.8616,219.5313 667.6429,219.3594 C667.471,219.2344 667.3304,219.2031 666.8773,219.2031 L665.1585,219.2031 L665.1585,210.0625 Z " fill="#000000"/><text fill="#000000" font-family="Verdana" font-size="12" lengthAdjust="spacing" textLength="54" x="684.7054" y="220.0605">Question</text><line style="stroke:#A80036;stroke-width:1.5;" x1="600.9554" x2="789.9554" y1="231.9063" y2="231.9063"/><text fill="#000000" font-family="Verdana" font-size="11" lengthAdjust="spacing" textLength="65" x="605.9554" y="246.1167">id : number</text><text fill="#000000" font-family="Verdana" font-size="11" lengthAdjust="spacing" textLength="69" x="605.9554" y="258.9214">nom : String</text><text fill="#000000" font-family="Verdana" font-size="11" lengthAdjust="spacing" textLength="80" x="605.9554" y="271.7261">tags : String []</text><text fill="#000000" font-family="Verdana" font-size="11" lengthAdjust="spacing" textLength="126" x="605.9554" y="284.5308">texteQuestion : String</text><text fill="#000000" font-family="Verdana" font-size="11" lengthAdjust="spacing" textLength="104" x="605.9554" y="297.3354">reponse : boolean</text><text fill="#000000" font-family="Verdana" font-size="11" lengthAdjust="spacing" textLength="162" x="605.9554" y="310.1401">texteBonneReponse : String</text><text fill="#000000" font-family="Verdana" font-size="11" lengthAdjust="spacing" textLength="179" x="605.9554" y="322.9448">texteMauvaiseReponse : String</text><line style="stroke:#A80036;stroke-width:1.5;" x1="600.9554" x2="789.9554" y1="329.5391" y2="329.5391"/><!--MD5=[5a3b85c54cc1c79904e0b827443986bf]
class Questionnaire--><rect codeLine="41" fill="#FEFECE" filter="url(#fh2ipoi9z5vzw)" height="73.6094" id="Questionnaire" rx="10" ry="10" style="stroke:#A80036;stroke-width:1.5;" width="116" x="637.4554" y="48.9063"/><ellipse cx="652.4554" cy="64.9063" fill="#FF0000" rx="11" ry="11" style="stroke:#A80036;stroke-width:1.0;"/><path d="M650.971,68.2031 C652.471,66.9219 653.4554,66.0625 653.9085,65.6406 C655.596,64.1094 656.0023,63.4688 656.0023,62.3594 C656.0023,60.4688 654.4554,59.0625 652.3929,59.0625 C651.3773,59.0625 650.4085,59.4063 649.7366,60.0156 C649.1585,60.5469 648.721,61.375 648.721,61.9219 C648.721,62.3594 649.1116,62.7344 649.5648,62.7344 C649.9241,62.7344 650.2366,62.5313 650.3304,62.2344 C650.5179,61.6875 650.5335,61.6563 650.7054,61.4531 C651.0804,61.0156 651.6741,60.7656 652.346,60.7656 C653.4554,60.7656 654.2991,61.4219 654.2991,62.2969 C654.2991,62.875 654.0179,63.25 652.3148,64.7969 C651.5491,65.4844 651.2366,65.7656 648.3773,68.125 L648.3773,69.9063 L656.096,69.9063 L656.096,68.4063 C656.096,68 656.0648,67.8438 655.971,67.7031 C655.8148,67.4375 655.5335,67.2813 655.2366,67.2813 C654.721,67.2813 654.4398,67.5938 654.3929,68.2031 L650.971,68.2031 Z " fill="#000000"/><text fill="#000000" font-family="Verdana" font-size="12" lengthAdjust="spacing" textLength="84" x="666.4554" y="69.0605">Questionnaire</text><line style="stroke:#A80036;stroke-width:1.5;" x1="638.4554" x2="752.4554" y1="80.9063" y2="80.9063"/><text fill="#000000" font-family="Verdana" font-size="11" lengthAdjust="spacing" textLength="61" x="643.4554" y="95.1167">id: number</text><text fill="#000000" font-family="Verdana" font-size="11" lengthAdjust="spacing" textLength="102" x="643.4554" y="107.9214">description: String</text><line style="stroke:#A80036;stroke-width:1.5;" x1="638.4554" x2="752.4554" y1="114.5156" y2="114.5156"/><!--MD5=[dabef5714f41dd45c84d2acd22a3f642]
class EspaceCours--><rect codeLine="46" fill="#FEFECE" filter="url(#fh2ipoi9z5vzw)" height="60.8047" id="EspaceCours" rx="10" ry="10" style="stroke:#A80036;stroke-width:1.5;" width="150" x="285.4554" y="414.9063"/><ellipse cx="318.0054" cy="430.9063" fill="#FF0000" rx="11" ry="11" style="stroke:#A80036;stroke-width:1.0;"/><path d="M316.521,434.2031 C318.021,432.9219 319.0054,432.0625 319.4585,431.6406 C321.146,430.1094 321.5523,429.4688 321.5523,428.3594 C321.5523,426.4688 320.0054,425.0625 317.9429,425.0625 C316.9273,425.0625 315.9585,425.4063 315.2867,426.0156 C314.7085,426.5469 314.271,427.375 314.271,427.9219 C314.271,428.3594 314.6617,428.7344 315.1148,428.7344 C315.4742,428.7344 315.7867,428.5313 315.8804,428.2344 C316.0679,427.6875 316.0835,427.6563 316.2554,427.4531 C316.6304,427.0156 317.2242,426.7656 317.896,426.7656 C319.0054,426.7656 319.8492,427.4219 319.8492,428.2969 C319.8492,428.875 319.5679,429.25 317.8648,430.7969 C317.0992,431.4844 316.7867,431.7656 313.9273,434.125 L313.9273,435.9063 L321.646,435.9063 L321.646,434.4063 C321.646,434 321.6148,433.8438 321.521,433.7031 C321.3648,433.4375 321.0835,433.2813 320.7867,433.2813 C320.271,433.2813 319.9898,433.5938 319.9429,434.2031 L316.521,434.2031 Z " fill="#000000"/><text fill="#000000" font-family="Verdana" font-size="12" lengthAdjust="spacing" textLength="79" x="335.9054" y="435.0605">EspaceCours</text><line style="stroke:#A80036;stroke-width:1.5;" x1="286.4554" x2="434.4554" y1="446.9063" y2="446.9063"/><text fill="#000000" font-family="Verdana" font-size="11" lengthAdjust="spacing" textLength="138" x="291.4554" y="461.1167">idEspaceCours : number</text><line style="stroke:#A80036;stroke-width:1.5;" x1="286.4554" x2="434.4554" y1="467.7109" y2="467.7109"/><!--MD5=[10a08b655f733f3f3e8b0ffe69f4343a]
class Université--><rect codeLine="50" fill="#FEFECE" filter="url(#fh2ipoi9z5vzw)" height="48" id="Université" rx="10" ry="10" style="stroke:#A80036;stroke-width:1.5;" width="93" x="130.9552" y="61.9063"/><ellipse cx="145.9552" cy="77.9063" fill="#FF0000" rx="11" ry="11" style="stroke:#A80036;stroke-width:1.0;"/><path d="M144.4708,81.2031 C145.9708,79.9219 146.9552,79.0625 147.4083,78.6406 C149.0958,77.1094 149.5021,76.4688 149.5021,75.3594 C149.5021,73.4688 147.9552,72.0625 145.8927,72.0625 C144.8771,72.0625 143.9083,72.4063 143.2365,73.0156 C142.6583,73.5469 142.2208,74.375 142.2208,74.9219 C142.2208,75.3594 142.6115,75.7344 143.0646,75.7344 C143.424,75.7344 143.7365,75.5313 143.8302,75.2344 C144.0177,74.6875 144.0333,74.6563 144.2052,74.4531 C144.5802,74.0156 145.174,73.7656 145.8458,73.7656 C146.9552,73.7656 147.799,74.4219 147.799,75.2969 C147.799,75.875 147.5177,76.25 145.8146,77.7969 C145.049,78.4844 144.7365,78.7656 141.8771,81.125 L141.8771,82.9063 L149.5958,82.9063 L149.5958,81.4063 C149.5958,81 149.5646,80.8438 149.4708,80.7031 C149.3146,80.4375 149.0333,80.2813 148.7365,80.2813 C148.2208,80.2813 147.9396,80.5938 147.8927,81.2031 L144.4708,81.2031 Z " fill="#000000"/><text fill="#000000" font-family="Verdana" font-size="12" lengthAdjust="spacing" textLength="61" x="159.9552" y="82.0605">Université</text><line style="stroke:#A80036;stroke-width:1.5;" x1="131.9552" x2="222.9552" y1="93.9063" y2="93.9063"/><line style="stroke:#A80036;stroke-width:1.5;" x1="131.9552" x2="222.9552" y1="101.9063" y2="101.9063"/><!--MD5=[359da426c3c95d8048c951014945ceb0]
link Devoir to Remise--><path codeLine="53" d="M659.5134,627.2473 C680.3514,650.1533 707.3364,679.8183 729.1124,703.7566 " fill="none" id="Devoir-Remise" style="stroke:#A80036;stroke-width:1.0;"/><polygon fill="#000000" points="709.82,669.1713,705.9074,660.5028,701.5594,664.4581,709.82,669.1713" style="stroke:#000000;stroke-width:1.0;"/><text fill="#000000" font-family="Verdana" font-size="13" lengthAdjust="spacing" textLength="52" x="715.4554" y="669.9731">contient</text><text fill="#000000" font-family="Verdana" font-size="13" lengthAdjust="spacing" textLength="8" x="656.1445" y="646.5024">1</text><text fill="#000000" font-family="Verdana" font-size="13" lengthAdjust="spacing" textLength="7" x="715.4437" y="692.7284">*</text><!--MD5=[b8f15a7fbf1e0ac66b43fe2a255415c0]
link EspaceCours to Devoir--><path codeLine="54" d="M415.5704,475.9323 C467.0054,503.4863 542.4354,543.8953 587.7634,568.1782 " fill="none" id="EspaceCours-Devoir" style="stroke:#A80036;stroke-width:1.0;"/><polygon fill="#000000" points="510.8628,516.8338,504.2776,509.9719,501.5019,515.1531,510.8628,516.8338" style="stroke:#000000;stroke-width:1.0;"/><text fill="#000000" font-family="Verdana" font-size="13" lengthAdjust="spacing" textLength="52" x="515.4554" y="518.9731">contient</text><text fill="#000000" font-family="Verdana" font-size="13" lengthAdjust="spacing" textLength="8" x="418.1129" y="495.8758">1</text><text fill="#000000" font-family="Verdana" font-size="13" lengthAdjust="spacing" textLength="23" x="557.0778" y="560.8097">1..*</text><!--MD5=[93dcfdb2a1ddb0d5d28e1d54c7b7b70f]
link Enseignant to EspaceCours--><path codeLine="55" d="M240.0624,299.8323 C240.3564,324.6613 244.2684,359.8343 261.4554,384.9063 C269.6184,396.8153 281.0204,406.7313 293.1944,414.8343 " fill="none" id="Enseignant-EspaceCours" style="stroke:#A80036;stroke-width:1.0;"/><polygon fill="#000000" points="268.5525,381.0116,267.4268,371.5679,262.0909,374.0332,268.5525,381.0116" style="stroke:#000000;stroke-width:1.0;"/><text fill="#000000" font-family="Verdana" font-size="13" lengthAdjust="spacing" textLength="58" x="275.4554" y="380.9731">enseigne</text><text fill="#000000" font-family="Verdana" font-size="13" lengthAdjust="spacing" textLength="8" x="231.0344" y="319.2554">1</text><text fill="#000000" font-family="Verdana" font-size="13" lengthAdjust="spacing" textLength="23" x="280.9967" y="403.6088">1..*</text><!--MD5=[e696a511ab66ff85cf29965a3cb732fe]
link Université to Enseignant--><path codeLine="56" d="M185.6914,110.1983 C197.2714,142.9473 218.3624,202.5963 231.0244,238.4063 " fill="none" id="Université-Enseignant" style="stroke:#A80036;stroke-width:1.0;"/><polygon fill="#000000" points="213.1222,166.1866,212.8777,156.6792,207.3361,158.6387,213.1222,166.1866" style="stroke:#000000;stroke-width:1.0;"/><text fill="#000000" font-family="Verdana" font-size="13" lengthAdjust="spacing" textLength="51" x="220.4554" y="165.9731">emploie</text><text fill="#000000" font-family="Verdana" font-size="13" lengthAdjust="spacing" textLength="8" x="178.724" y="130.0306">1</text><text fill="#000000" font-family="Verdana" font-size="13" lengthAdjust="spacing" textLength="7" x="220.977" y="227.1965">*</text><!--MD5=[5f5ea864aa0d8e50d66671c98d7d892f]
link Cours to EspaceCours--><path codeLine="57" d="M133.9387,306.0613 C147.0974,331.2983 167.7434,364.0683 194.4554,384.9063 C220.7664,405.4313 254.7664,419.2653 285.1374,428.3843 " fill="none" id="Cours-EspaceCours" style="stroke:#A80036;stroke-width:1.0;"/><polygon fill="#000000" points="203.3426,379.6175,198.1591,371.6436,194.4621,376.2133,203.3426,379.6175" style="stroke:#000000;stroke-width:1.0;"/><text fill="#000000" font-family="Verdana" font-size="13" lengthAdjust="spacing" textLength="36" x="208.4554" y="380.9731">décrit</text><text fill="#000000" font-family="Verdana" font-size="13" lengthAdjust="spacing" textLength="8" x="128.0063" y="325.5675">1</text><text fill="#000000" font-family="Verdana" font-size="13" lengthAdjust="spacing" textLength="8" x="269.5774" y="423.1295">1</text><!--MD5=[cd0fbe75c199b7105571d279d6d2d771]
link Université to Cours--><path codeLine="58" d="M152.2264,110.1613 C141.3164,121.8352 129.6483,136.8882 123.4552,152.9063 C113.7583,177.9873 112.5946,208.4573 113.6741,231.7313 " fill="none" id="Université-Cours" style="stroke:#A80036;stroke-width:1.0;"/><polygon fill="#000000" points="126.9438,166.2387,132.4794,158.5052,126.8765,156.7284,126.9438,166.2387" style="stroke:#000000;stroke-width:1.0;"/><text fill="#000000" font-family="Verdana" font-size="13" lengthAdjust="spacing" textLength="52" x="137.4552" y="165.9731">contient</text><text fill="#000000" font-family="Verdana" font-size="13" lengthAdjust="spacing" textLength="8" x="137.1019" y="129.9846">1</text><text fill="#000000" font-family="Verdana" font-size="13" lengthAdjust="spacing" textLength="7" x="105.3772" y="220.887">*</text><!--MD5=[a719c3afe478145ef5bffac787162784]
link EspaceCours to Etudiant--><path codeLine="59" d="M308.2404,475.9323 C260.9544,502.6713 192.2614,541.5153 148.9954,565.9813 " fill="none" id="EspaceCours-Etudiant" style="stroke:#A80036;stroke-width:1.0;"/><polygon fill="#000000" points="251.1031,516.9338,260.4231,515.0398,257.5299,509.9233,251.1031,516.9338" style="stroke:#000000;stroke-width:1.0;"/><text fill="#000000" font-family="Verdana" font-size="13" lengthAdjust="spacing" textLength="84" x="264.4554" y="518.9731">est_suivi_par</text><text fill="#000000" font-family="Verdana" font-size="13" lengthAdjust="spacing" textLength="8" x="288.6461" y="495.8758">1</text><text fill="#000000" font-family="Verdana" font-size="13" lengthAdjust="spacing" textLength="7" x="156.8401" y="557.4798">*</text><!--MD5=[d99a8c8e2f040432a664dac4ac75f7f7]
link Questionnaire to Question--><path codeLine="60" d="M695.4554,123.0992 C695.4554,144.9702 695.4554,173.5562 695.4554,199.5463 " fill="none" id="Questionnaire-Question" style="stroke:#A80036;stroke-width:1.0;"/><polygon fill="#000000" points="700.4554,166.4727,703.3943,157.4276,697.5165,157.4276,700.4554,166.4727" style="stroke:#000000;stroke-width:1.0;"/><text fill="#000000" font-family="Verdana" font-size="13" lengthAdjust="spacing" textLength="52" x="709.4554" y="165.9731">contient</text><text fill="#000000" font-family="Verdana" font-size="13" lengthAdjust="spacing" textLength="8" x="686.7929" y="142.6118">1</text><text fill="#000000" font-family="Verdana" font-size="13" lengthAdjust="spacing" textLength="23" x="671.2695" y="188.7127">1..*</text><!--MD5=[325701bbe546bfc91cac5365729ea61d]
link Questionnaire to Remise--><path codeLine="61" d="M751.3614,123.2263 C793.6404,155.5503 844.4554,207.0572 844.4554,267.9063 C844.4554,267.9063 844.4554,267.9063 844.4554,590.9063 C844.4554,632.3713 822.0804,674.1733 801.4524,703.8994 " fill="none" id="Questionnaire-Remise" style="stroke:#A80036;stroke-width:1.0;"/><polygon fill="#000000" points="849.8851,450.4542,852.0358,441.19,846.1797,441.6951,849.8851,450.4542" style="stroke:#000000;stroke-width:1.0;"/><text fill="#000000" font-family="Verdana" font-size="13" lengthAdjust="spacing" textLength="54" x="858.4554" y="449.9731">possède</text><text fill="#000000" font-family="Verdana" font-size="13" lengthAdjust="spacing" textLength="8" x="751.6339" y="142.478">1</text><text fill="#000000" font-family="Verdana" font-size="13" lengthAdjust="spacing" textLength="7" x="799.3129" y="692.8942">*</text><!--MD5=[9f636a31fd47673c009bae167edd40f2]
link Université to EspaceCours--><path codeLine="62" d="M223.5044,110.0142 C242.6704,121.1632 264.1944,135.8383 280.4554,152.9063 C350.8624,226.8083 360.4634,356.6803 361.0124,414.8153 " fill="none" id="Université-EspaceCours" style="stroke:#A80036;stroke-width:1.0;"/><polygon fill="#000000" points="362.5115,273.5303,361.4709,264.0769,356.113,266.494,362.5115,273.5303" style="stroke:#000000;stroke-width:1.0;"/><text fill="#000000" font-family="Verdana" font-size="13" lengthAdjust="spacing" textLength="52" x="369.4554" y="273.4731">contient</text><text fill="#000000" font-family="Verdana" font-size="13" lengthAdjust="spacing" textLength="8" x="225.7539" y="129.8018">1</text><text fill="#000000" font-family="Verdana" font-size="13" lengthAdjust="spacing" textLength="7" x="353.4054" y="404.0597">*</text><!--MD5=[5217f6319e60196188b9b46941152dbc]
link Université to Etudiant--><path codeLine="63" d="M140.3994,110.0633 C112.305,129.9923 75.8275,161.5593 59.4552,199.9063 C6,325.1093 65.9758,492.1093 94.7731,559.1803 " fill="none" id="Université-Etudiant" style="stroke:#A80036;stroke-width:1.0;"/><polygon fill="#000000" points="48.9606,371.4983,45.1225,380.2,50.9703,380.7941,48.9606,371.4983" style="stroke:#000000;stroke-width:1.0;"/><text fill="#000000" font-family="Verdana" font-size="13" lengthAdjust="spacing" textLength="76" x="57.4552" y="380.9731">est-inscrit-à</text><text fill="#000000" font-family="Verdana" font-size="13" lengthAdjust="spacing" textLength="8" x="122.3925" y="129.8627">1</text><text fill="#000000" font-family="Verdana" font-size="13" lengthAdjust="spacing" textLength="7" x="84.2293" y="548.3969">*</text><!--MD5=[31ca12531000ae5fbc8b65f0576c1ae5]
link Question to EspaceCours--><path codeLine="64" d="M602.3954,337.9923 C577.4674,354.5803 550.0414,371.4123 523.4554,384.9063 C495.6524,399.0183 463.6874,411.4443 435.4704,421.2423 " fill="none" id="Question-EspaceCours" style="stroke:#A80036;stroke-width:1.0;"/><polygon fill="#000000" points="562.9298,374.2411,553.5239,375.648,556.1472,380.908,562.9298,374.2411" style="stroke:#000000;stroke-width:1.0;"/><text fill="#000000" font-family="Verdana" font-size="13" lengthAdjust="spacing" textLength="52" x="567.4554" y="380.9731">contient</text><text fill="#000000" font-family="Verdana" font-size="13" lengthAdjust="spacing" textLength="7" x="585.8903" y="357.6227">*</text><text fill="#000000" font-family="Verdana" font-size="13" lengthAdjust="spacing" textLength="8" x="443.6188" y="415.0607">1</text><!--MD5=[9658aa9b13a75953075a809ba662f093]
link Questionnaire to EspaceCours--><path codeLine="65" d="M637.1714,114.6273 C599.3794,134.6073 550.7864,164.2722 515.4554,199.9063 C464.7374,251.0593 469.1314,277.1353 430.4554,337.9063 C413.8234,364.0393 394.4484,393.4403 380.3034,414.7193 " fill="none" id="Questionnaire-EspaceCours" style="stroke:#A80036;stroke-width:1.0;"/><polygon fill="#000000" points="517.204,272.7712,525.3185,267.8107,520.8531,263.9885,517.204,272.7712" style="stroke:#000000;stroke-width:1.0;"/><text fill="#000000" font-family="Verdana" font-size="13" lengthAdjust="spacing" textLength="52" x="529.4554" y="273.4731">contient</text><text fill="#000000" font-family="Verdana" font-size="13" lengthAdjust="spacing" textLength="7" x="622.6415" y="114.3124">*</text><text fill="#000000" font-family="Verdana" font-size="13" lengthAdjust="spacing" textLength="8" x="375.5721" y="403.9439">1</text><rect fill="#DDDDDD" height="79.1875" rx="5" ry="5" style="stroke:#000000;stroke-width:1.0;" width="325" x="290.7277" y="811.3203"/><text fill="#000000" font-family="Verdana" font-size="14" font-weight="bold" lengthAdjust="spacing" textLength="0" x="301.7277" y="831.3154"/><text fill="#000000" font-family="Verdana" font-size="14" font-weight="bold" lengthAdjust="spacing" textLength="39" x="324.7277" y="831.3154">Type</text><text fill="#000000" filter="url(#bh2ipoi9z5vzw0)" font-family="Verdana" font-size="14" lengthAdjust="spacing" textLength="23" x="296.7277" y="847.6123">_1_</text><text fill="#000000" font-family="Verdana" font-size="14" lengthAdjust="spacing" textLength="282" x="323.7277" y="847.6123">Classe non modifiée première itération</text><text fill="#000000" filter="url(#bh2ipoi9z5vzw1)" font-family="Verdana" font-size="14" lengthAdjust="spacing" textLength="23" x="296.7277" y="863.9092">_1_</text><text fill="#000000" font-family="Verdana" font-size="14" lengthAdjust="spacing" textLength="251" x="323.7277" y="863.9092">Classe modifiée première itération</text><text fill="#000000" filter="url(#bh2ipoi9z5vzw2)" font-family="Verdana" font-size="14" lengthAdjust="spacing" textLength="22" x="296.7277" y="880.2061">_2_</text><text fill="#000000" font-family="Verdana" font-size="14" lengthAdjust="spacing" textLength="249" x="323.7277" y="880.2061">Nouvelle classe deuxième itération</text><line style="stroke:#000000;stroke-width:1.0;" x1="296.7277" x2="609.7277" y1="818.3203" y2="818.3203"/><line style="stroke:#000000;stroke-width:1.0;" x1="296.7277" x2="609.7277" y1="834.6172" y2="834.6172"/><line style="stroke:#000000;stroke-width:1.0;" x1="296.7277" x2="609.7277" y1="850.9141" y2="850.9141"/><line style="stroke:#000000;stroke-width:1.0;" x1="296.7277" x2="609.7277" y1="867.2109" y2="867.2109"/><line style="stroke:#000000;stroke-width:1.0;" x1="296.7277" x2="609.7277" y1="883.5078" y2="883.5078"/><line style="stroke:#000000;stroke-width:1.0;" x1="296.7277" x2="296.7277" y1="818.3203" y2="883.5078"/><line style="stroke:#000000;stroke-width:1.0;" x1="319.7277" x2="319.7277" y1="818.3203" y2="883.5078"/><line style="stroke:#000000;stroke-width:1.0;" x1="609.7277" x2="609.7277" y1="818.3203" y2="883.5078"/><!--MD5=[2c875e05797c184cfc5cff7ea9e817ea]
@startuml
skinparam defaultfontname Verdana
skinparam RoundCorner 20
' skinparam linetype ortho

title Modèle du domaine (adapté au Cas d'utilisation \n ajouter et récupérer )
class Cours << (1,blue) >> {
    id : number
    nom : String
}


class Enseignant << (1,blue) >>{
    token : String
}

class Etudiant << (1,blue) >>{
    nom : String
}

class Devoir << (2,red) >>{
    id: number
    nom: String
}

class Remise << (2,red) >>{
    id : number
    etat : String
    idEtudiant : number
}

class Question << 1,yellow) >>{
    id : number
    nom : String
    tags : String []
    texteQuestion : String
    reponse : boolean
    texteBonneReponse : String
    texteMauvaiseReponse : String
}

class Questionnaire << (2,red) >>{
    id: number
    description: String
}

class EspaceCours << (2,red) >>{
    idEspaceCours : number
}

class Université << (2,red) >>{

}
Devoir "1"- -"*" Remise : contient >
EspaceCours "1"- -"1..*" Devoir: contient >
Enseignant "1"- -"1..*" EspaceCours : enseigne >
Université "1"- -"*" Enseignant : emploie >
Cours "1"- - "1" EspaceCours : décrit >
Université "1"- -"*" Cours : contient >
EspaceCours "1"- - "*"Etudiant : est_suivi_par >
Questionnaire "1"- -"1..*" Question : contient >
Questionnaire"1"- -"*" Remise : possède >
Université "1"- -"*" EspaceCours : contient >
Université "1"- -"*" Etudiant : est-inscrit-à <
Question "*"- -"1" EspaceCours : contient <
Questionnaire "*"- -"1" EspaceCours : contient >

legend
|= |= Type |
|<back:blue>_1_</back>| Classe non modifiée première itération |
|<back:yellow>_1_</back>| Classe modifiée première itération |
|<back:red>_2_</back>| Nouvelle classe deuxième itération |
endlegend
@enduml

@startuml
skinparam defaultfontname Verdana
skinparam RoundCorner 20

title Modèle du domaine (adapté au Cas d'utilisation \n ajouter et récupérer )
class Cours << (1,blue) >> {
    id : number
    nom : String
}


class Enseignant << (1,blue) >>{
    token : String
}

class Etudiant << (1,blue) >>{
    nom : String
}

class Devoir << (2,red) >>{
    id: number
    nom: String
}

class Remise << (2,red) >>{
    id : number
    etat : String
    idEtudiant : number
}

class Question << 1,yellow) >>{
    id : number
    nom : String
    tags : String []
    texteQuestion : String
    reponse : boolean
    texteBonneReponse : String
    texteMauvaiseReponse : String
}

class Questionnaire << (2,red) >>{
    id: number
    description: String
}

class EspaceCours << (2,red) >>{
    idEspaceCours : number
}

class Université << (2,red) >>{

}
Devoir "1"- -"*" Remise : contient >
EspaceCours "1"- -"1..*" Devoir: contient >
Enseignant "1"- -"1..*" EspaceCours : enseigne >
Université "1"- -"*" Enseignant : emploie >
Cours "1"- - "1" EspaceCours : décrit >
Université "1"- -"*" Cours : contient >
EspaceCours "1"- - "*"Etudiant : est_suivi_par >
Questionnaire "1"- -"1..*" Question : contient >
Questionnaire"1"- -"*" Remise : possède >
Université "1"- -"*" EspaceCours : contient >
Université "1"- -"*" Etudiant : est-inscrit-à <
Question "*"- -"1" EspaceCours : contient <
Questionnaire "*"- -"1" EspaceCours : contient >

legend
|= |= Type |
|<back:blue>_1_</back>| Classe non modifiée première itération |
|<back:yellow>_1_</back>| Classe modifiée première itération |
|<back:red>_2_</back>| Nouvelle classe deuxième itération |
endlegend
@enduml

PlantUML version 1.2021.9beta2(Unknown compile time)
(GPL source distribution)
Java Runtime: Java(TM) SE Runtime Environment
JVM: Java HotSpot(TM) 64-Bit Server VM
Default Encoding: UTF-8
Language: en
Country: US
--></g></svg>