<?xml version="1.0" encoding="UTF-8" standalone="no"?><svg xmlns="http://www.w3.org/2000/svg" xmlns:xlink="http://www.w3.org/1999/xlink" contentScriptType="application/ecmascript" contentStyleType="text/css" height="970px" preserveAspectRatio="none" style="width:925px;height:970px;background:#FFFFFF;" version="1.1" viewBox="0 0 925 970" width="925px" zoomAndPan="magnify"><defs><filter height="300%" id="f1d4d514n7kzek" width="300%" x="-1" y="-1"><feGaussianBlur result="blurOut" stdDeviation="2.0"/><feColorMatrix in="blurOut" result="blurOut2" type="matrix" values="0 0 0 0 0 0 0 0 0 0 0 0 0 0 0 0 0 0 .4 0"/><feOffset dx="4.0" dy="4.0" in="blurOut2" result="blurOut3"/><feBlend in="SourceGraphic" in2="blurOut3" mode="normal"/></filter><filter height="1" id="b1d4d514n7kzek0" width="1" x="0" y="0"><feFlood flood-color="#0000FF" result="flood"/><feComposite in="SourceGraphic" in2="flood" operator="over"/></filter><filter height="1" id="b1d4d514n7kzek1" width="1" x="0" y="0"><feFlood flood-color="#FFFF00" result="flood"/><feComposite in="SourceGraphic" in2="flood" operator="over"/></filter><filter height="1" id="b1d4d514n7kzek2" width="1" x="0" y="0"><feFlood flood-color="#FF0000" result="flood"/><feComposite in="SourceGraphic" in2="flood" operator="over"/></filter></defs><g><text fill="#000000" font-family="Verdana" font-size="18" lengthAdjust="spacing" textLength="438" x="234.2546" y="16.708">Modèle du domaine (adapté au Cas d'utilisation</text><text fill="#000000" font-family="Verdana" font-size="18" lengthAdjust="spacing" textLength="205" x="356.7546" y="37.6611">ajouter et récupérer )</text><!--MD5=[f6edf60997924e693a9a5571eb281b8c]
class Cours--><rect codeLine="6" fill="#FEFECE" filter="url(#f1d4d514n7kzek)" height="73.6094" id="Cours" rx="10" ry="10" style="stroke:#A80036;stroke-width:1.5;" width="81" x="82.0088" y="231.9063"/><ellipse cx="103.3088" cy="247.9063" fill="#0000FF" rx="11" ry="11" style="stroke:#A80036;stroke-width:1.0;"/><path d="M104.2619,242.0625 L100.6525,243 C99.9807,243.1719 99.7463,243.375 99.7463,243.8594 C99.7463,244.3594 100.09,244.75 100.5432,244.75 C100.6994,244.75 100.7619,244.7344 101.0744,244.6406 L102.5588,244.25 L102.5588,251.2031 L100.84,251.2031 C100.4025,251.2031 100.2775,251.2188 100.1213,251.3281 C99.8713,251.4844 99.715,251.7656 99.715,252.0625 C99.715,252.3125 99.8557,252.5781 100.0744,252.7344 C100.215,252.8594 100.4494,252.9063 100.84,252.9063 L105.9807,252.9063 C106.3088,252.9063 106.5744,252.8594 106.6838,252.7813 C106.9494,252.625 107.09,252.3438 107.09,252.0625 C107.09,251.7813 106.965,251.5313 106.7463,251.3594 C106.5744,251.2344 106.4338,251.2031 105.9807,251.2031 L104.2619,251.2031 L104.2619,242.0625 Z " fill="#000000"/><text fill="#000000" font-family="Verdana" font-size="12" lengthAdjust="spacing" textLength="35" x="118.7088" y="252.0605">Cours</text><line style="stroke:#A80036;stroke-width:1.5;" x1="83.0088" x2="162.0088" y1="263.9063" y2="263.9063"/><text fill="#000000" font-family="Verdana" font-size="11" lengthAdjust="spacing" textLength="65" x="88.0088" y="278.1167">id : number</text><text fill="#000000" font-family="Verdana" font-size="11" lengthAdjust="spacing" textLength="69" x="88.0088" y="290.9214">nom : String</text><line style="stroke:#A80036;stroke-width:1.5;" x1="83.0088" x2="162.0088" y1="297.5156" y2="297.5156"/><!--MD5=[0ea76b077f2fe2b0557d144a0cdb3724]
class Enseignant--><rect codeLine="12" fill="#FEFECE" filter="url(#f1d4d514n7kzek)" height="60.8047" id="Enseignant" rx="10" ry="10" style="stroke:#A80036;stroke-width:1.5;" width="97" x="198.0093" y="238.4063"/><ellipse cx="213.0093" cy="254.4063" fill="#0000FF" rx="11" ry="11" style="stroke:#A80036;stroke-width:1.0;"/><path d="M213.9624,248.5625 L210.3531,249.5 C209.6812,249.6719 209.4468,249.875 209.4468,250.3594 C209.4468,250.8594 209.7906,251.25 210.2437,251.25 C210.3999,251.25 210.4624,251.2344 210.7749,251.1406 L212.2593,250.75 L212.2593,257.7031 L210.5406,257.7031 C210.1031,257.7031 209.9781,257.7188 209.8218,257.8281 C209.5718,257.9844 209.4156,258.2656 209.4156,258.5625 C209.4156,258.8125 209.5562,259.0781 209.7749,259.2344 C209.9156,259.3594 210.1499,259.4063 210.5406,259.4063 L215.6812,259.4063 C216.0093,259.4063 216.2749,259.3594 216.3843,259.2813 C216.6499,259.125 216.7906,258.8438 216.7906,258.5625 C216.7906,258.2813 216.6656,258.0313 216.4468,257.8594 C216.2749,257.7344 216.1343,257.7031 215.6812,257.7031 L213.9624,257.7031 L213.9624,248.5625 Z " fill="#000000"/><text fill="#000000" font-family="Verdana" font-size="12" lengthAdjust="spacing" textLength="65" x="227.0093" y="258.5605">Enseignant</text><line style="stroke:#A80036;stroke-width:1.5;" x1="199.0093" x2="294.0093" y1="270.4063" y2="270.4063"/><text fill="#000000" font-family="Verdana" font-size="11" lengthAdjust="spacing" textLength="76" x="204.0093" y="284.6167">token : String</text><line style="stroke:#A80036;stroke-width:1.5;" x1="199.0093" x2="294.0093" y1="291.2109" y2="291.2109"/><!--MD5=[f84e857de5a9ca5678aed72e3e98d0a5]
class Etudiant--><rect codeLine="16" fill="#FEFECE" filter="url(#f1d4d514n7kzek)" height="60.8047" id="Etudiant" rx="10" ry="10" style="stroke:#A80036;stroke-width:1.5;" width="81" x="73.0088" y="591.4063"/><ellipse cx="88.9088" cy="607.4063" fill="#0000FF" rx="11" ry="11" style="stroke:#A80036;stroke-width:1.0;"/><path d="M89.8619,601.5625 L86.2526,602.5 C85.5807,602.6719 85.3463,602.875 85.3463,603.3594 C85.3463,603.8594 85.6901,604.25 86.1432,604.25 C86.2994,604.25 86.3619,604.2344 86.6744,604.1406 L88.1588,603.75 L88.1588,610.7031 L86.4401,610.7031 C86.0026,610.7031 85.8776,610.7188 85.7213,610.8281 C85.4713,610.9844 85.3151,611.2656 85.3151,611.5625 C85.3151,611.8125 85.4557,612.0781 85.6744,612.2344 C85.8151,612.3594 86.0494,612.4063 86.4401,612.4063 L91.5807,612.4063 C91.9088,612.4063 92.1744,612.3594 92.2838,612.2813 C92.5494,612.125 92.6901,611.8438 92.6901,611.5625 C92.6901,611.2813 92.5651,611.0313 92.3463,610.8594 C92.1744,610.7344 92.0338,610.7031 91.5807,610.7031 L89.8619,610.7031 L89.8619,601.5625 Z " fill="#000000"/><text fill="#000000" font-family="Verdana" font-size="12" lengthAdjust="spacing" textLength="47" x="103.1088" y="611.5605">Etudiant</text><line style="stroke:#A80036;stroke-width:1.5;" x1="74.0088" x2="153.0088" y1="623.4063" y2="623.4063"/><text fill="#000000" font-family="Verdana" font-size="11" lengthAdjust="spacing" textLength="69" x="79.0088" y="637.6167">nom : String</text><line style="stroke:#A80036;stroke-width:1.5;" x1="74.0088" x2="153.0088" y1="644.2109" y2="644.2109"/><!--MD5=[54a5e0e6ed87cf29c8834e8f40ab0f5d]
class Devoir--><rect codeLine="20" fill="#FEFECE" filter="url(#f1d4d514n7kzek)" height="137.6328" id="Devoir" rx="10" ry="10" style="stroke:#A80036;stroke-width:1.5;" width="154" x="535.5093" y="552.9063"/><ellipse cx="588.2593" cy="568.9063" fill="#FF0000" rx="11" ry="11" style="stroke:#A80036;stroke-width:1.0;"/><path d="M586.7749,572.2031 C588.2749,570.9219 589.2593,570.0625 589.7124,569.6406 C591.3999,568.1094 591.8062,567.4688 591.8062,566.3594 C591.8062,564.4688 590.2593,563.0625 588.1968,563.0625 C587.1812,563.0625 586.2124,563.4063 585.5405,564.0156 C584.9624,564.5469 584.5249,565.375 584.5249,565.9219 C584.5249,566.3594 584.9155,566.7344 585.3687,566.7344 C585.728,566.7344 586.0405,566.5313 586.1343,566.2344 C586.3218,565.6875 586.3374,565.6563 586.5093,565.4531 C586.8843,565.0156 587.478,564.7656 588.1499,564.7656 C589.2593,564.7656 590.103,565.4219 590.103,566.2969 C590.103,566.875 589.8218,567.25 588.1187,568.7969 C587.353,569.4844 587.0405,569.7656 584.1812,572.125 L584.1812,573.9063 L591.8999,573.9063 L591.8999,572.4063 C591.8999,572 591.8687,571.8438 591.7749,571.7031 C591.6187,571.4375 591.3374,571.2813 591.0405,571.2813 C590.5249,571.2813 590.2437,571.5938 590.1968,572.2031 L586.7749,572.2031 Z " fill="#000000"/><text fill="#000000" font-family="Verdana" font-size="12" lengthAdjust="spacing" textLength="40" x="608.7593" y="573.0605">Devoir</text><line style="stroke:#A80036;stroke-width:1.5;" x1="536.5093" x2="688.5093" y1="584.9063" y2="584.9063"/><text fill="#000000" font-family="Verdana" font-size="11" lengthAdjust="spacing" textLength="61" x="541.5093" y="599.1167">id: number</text><text fill="#000000" font-family="Verdana" font-size="11" lengthAdjust="spacing" textLength="65" x="541.5093" y="611.9214">nom: String</text><text fill="#000000" font-family="Verdana" font-size="11" lengthAdjust="spacing" textLength="106" x="541.5093" y="624.7261">description : String</text><text fill="#000000" font-family="Verdana" font-size="11" lengthAdjust="spacing" textLength="142" x="541.5093" y="637.5308">note maximale : number</text><text fill="#000000" font-family="Verdana" font-size="11" lengthAdjust="spacing" textLength="126" x="541.5093" y="650.3354">date de début : String</text><text fill="#000000" font-family="Verdana" font-size="11" lengthAdjust="spacing" textLength="107" x="541.5093" y="663.1401">date de fin : String</text><text fill="#000000" font-family="Verdana" font-size="11" lengthAdjust="spacing" textLength="94" x="541.5093" y="675.9448">visible : boolean</text><line style="stroke:#A80036;stroke-width:1.5;" x1="536.5093" x2="688.5093" y1="682.5391" y2="682.5391"/><!--MD5=[1d9b9fea38fde0ee3d12b7f249f77478]
class Remise--><rect codeLine="30" fill="#FEFECE" filter="url(#f1d4d514n7kzek)" height="86.4141" id="Remise" rx="10" ry="10" style="stroke:#A80036;stroke-width:1.5;" width="123" x="706.0093" y="767.9063"/><ellipse cx="742.1593" cy="783.9063" fill="#FF0000" rx="11" ry="11" style="stroke:#A80036;stroke-width:1.0;"/><path d="M740.6749,787.2031 C742.1749,785.9219 743.1593,785.0625 743.6124,784.6406 C745.2999,783.1094 745.7062,782.4688 745.7062,781.3594 C745.7062,779.4688 744.1593,778.0625 742.0968,778.0625 C741.0812,778.0625 740.1124,778.4063 739.4405,779.0156 C738.8624,779.5469 738.4249,780.375 738.4249,780.9219 C738.4249,781.3594 738.8155,781.7344 739.2687,781.7344 C739.628,781.7344 739.9405,781.5313 740.0343,781.2344 C740.2218,780.6875 740.2374,780.6563 740.4093,780.4531 C740.7843,780.0156 741.378,779.7656 742.0499,779.7656 C743.1593,779.7656 744.003,780.4219 744.003,781.2969 C744.003,781.875 743.7218,782.25 742.0187,783.7969 C741.253,784.4844 740.9405,784.7656 738.0812,787.125 L738.0812,788.9063 L745.7999,788.9063 L745.7999,787.4063 C745.7999,787 745.7687,786.8438 745.6749,786.7031 C745.5187,786.4375 745.2374,786.2813 744.9405,786.2813 C744.4249,786.2813 744.1437,786.5938 744.0968,787.2031 L740.6749,787.2031 Z " fill="#000000"/><text fill="#000000" font-family="Verdana" font-size="12" lengthAdjust="spacing" textLength="44" x="760.8593" y="788.0605">Remise</text><line style="stroke:#A80036;stroke-width:1.5;" x1="707.0093" x2="828.0093" y1="799.9063" y2="799.9063"/><text fill="#000000" font-family="Verdana" font-size="11" lengthAdjust="spacing" textLength="65" x="712.0093" y="814.1167">id : number</text><text fill="#000000" font-family="Verdana" font-size="11" lengthAdjust="spacing" textLength="67" x="712.0093" y="826.9214">etat : String</text><text fill="#000000" font-family="Verdana" font-size="11" lengthAdjust="spacing" textLength="111" x="712.0093" y="839.7261">idEtudiant : number</text><line style="stroke:#A80036;stroke-width:1.5;" x1="707.0093" x2="828.0093" y1="846.3203" y2="846.3203"/><!--MD5=[fc7123defb831ecdd44b2d9bcef6cceb]
class Question--><rect codeLine="36" fill="#FEFECE" filter="url(#f1d4d514n7kzek)" height="137.6328" id="Question" rx="10" ry="10" style="stroke:#A80036;stroke-width:1.5;" width="191" x="605.0093" y="199.9063"/><ellipse cx="669.2593" cy="215.9063" fill="#FFFF00" rx="11" ry="11" style="stroke:#A80036;stroke-width:1.0;"/><path d="M670.2124,210.0625 L666.603,211 C665.9312,211.1719 665.6968,211.375 665.6968,211.8594 C665.6968,212.3594 666.0405,212.75 666.4937,212.75 C666.6499,212.75 666.7124,212.7344 667.0249,212.6406 L668.5093,212.25 L668.5093,219.2031 L666.7905,219.2031 C666.353,219.2031 666.228,219.2188 666.0718,219.3281 C665.8218,219.4844 665.6655,219.7656 665.6655,220.0625 C665.6655,220.3125 665.8062,220.5781 666.0249,220.7344 C666.1655,220.8594 666.3999,220.9063 666.7905,220.9063 L671.9312,220.9063 C672.2593,220.9063 672.5249,220.8594 672.6343,220.7813 C672.8999,220.625 673.0405,220.3438 673.0405,220.0625 C673.0405,219.7813 672.9155,219.5313 672.6968,219.3594 C672.5249,219.2344 672.3843,219.2031 671.9312,219.2031 L670.2124,219.2031 L670.2124,210.0625 Z " fill="#000000"/><text fill="#000000" font-family="Verdana" font-size="12" lengthAdjust="spacing" textLength="54" x="689.7593" y="220.0605">Question</text><line style="stroke:#A80036;stroke-width:1.5;" x1="606.0093" x2="795.0093" y1="231.9063" y2="231.9063"/><text fill="#000000" font-family="Verdana" font-size="11" lengthAdjust="spacing" textLength="65" x="611.0093" y="246.1167">id : number</text><text fill="#000000" font-family="Verdana" font-size="11" lengthAdjust="spacing" textLength="69" x="611.0093" y="258.9214">nom : String</text><text fill="#000000" font-family="Verdana" font-size="11" lengthAdjust="spacing" textLength="80" x="611.0093" y="271.7261">tags : String []</text><text fill="#000000" font-family="Verdana" font-size="11" lengthAdjust="spacing" textLength="126" x="611.0093" y="284.5308">texteQuestion : String</text><text fill="#000000" font-family="Verdana" font-size="11" lengthAdjust="spacing" textLength="104" x="611.0093" y="297.3354">reponse : boolean</text><text fill="#000000" font-family="Verdana" font-size="11" lengthAdjust="spacing" textLength="162" x="611.0093" y="310.1401">texteBonneReponse : String</text><text fill="#000000" font-family="Verdana" font-size="11" lengthAdjust="spacing" textLength="179" x="611.0093" y="322.9448">texteMauvaiseReponse : String</text><line style="stroke:#A80036;stroke-width:1.5;" x1="606.0093" x2="795.0093" y1="329.5391" y2="329.5391"/><!--MD5=[5a3b85c54cc1c79904e0b827443986bf]
class Questionnaire--><rect codeLine="46" fill="#FEFECE" filter="url(#f1d4d514n7kzek)" height="73.6094" id="Questionnaire" rx="10" ry="10" style="stroke:#A80036;stroke-width:1.5;" width="116" x="642.5093" y="48.9063"/><ellipse cx="657.5093" cy="64.9063" fill="#FF0000" rx="11" ry="11" style="stroke:#A80036;stroke-width:1.0;"/><path d="M656.0249,68.2031 C657.5249,66.9219 658.5093,66.0625 658.9624,65.6406 C660.6499,64.1094 661.0562,63.4688 661.0562,62.3594 C661.0562,60.4688 659.5093,59.0625 657.4468,59.0625 C656.4312,59.0625 655.4624,59.4063 654.7905,60.0156 C654.2124,60.5469 653.7749,61.375 653.7749,61.9219 C653.7749,62.3594 654.1655,62.7344 654.6187,62.7344 C654.978,62.7344 655.2905,62.5313 655.3843,62.2344 C655.5718,61.6875 655.5874,61.6563 655.7593,61.4531 C656.1343,61.0156 656.728,60.7656 657.3999,60.7656 C658.5093,60.7656 659.353,61.4219 659.353,62.2969 C659.353,62.875 659.0718,63.25 657.3687,64.7969 C656.603,65.4844 656.2905,65.7656 653.4312,68.125 L653.4312,69.9063 L661.1499,69.9063 L661.1499,68.4063 C661.1499,68 661.1187,67.8438 661.0249,67.7031 C660.8687,67.4375 660.5874,67.2813 660.2905,67.2813 C659.7749,67.2813 659.4937,67.5938 659.4468,68.2031 L656.0249,68.2031 Z " fill="#000000"/><text fill="#000000" font-family="Verdana" font-size="12" lengthAdjust="spacing" textLength="84" x="671.5093" y="69.0605">Questionnaire</text><line style="stroke:#A80036;stroke-width:1.5;" x1="643.5093" x2="757.5093" y1="80.9063" y2="80.9063"/><text fill="#000000" font-family="Verdana" font-size="11" lengthAdjust="spacing" textLength="61" x="648.5093" y="95.1167">id: number</text><text fill="#000000" font-family="Verdana" font-size="11" lengthAdjust="spacing" textLength="102" x="648.5093" y="107.9214">description: String</text><line style="stroke:#A80036;stroke-width:1.5;" x1="643.5093" x2="757.5093" y1="114.5156" y2="114.5156"/><!--MD5=[dabef5714f41dd45c84d2acd22a3f642]
class EspaceCours--><rect codeLine="51" fill="#FEFECE" filter="url(#f1d4d514n7kzek)" height="60.8047" id="EspaceCours" rx="10" ry="10" style="stroke:#A80036;stroke-width:1.5;" width="150" x="290.5093" y="414.9063"/><ellipse cx="323.0593" cy="430.9063" fill="#FF0000" rx="11" ry="11" style="stroke:#A80036;stroke-width:1.0;"/><path d="M321.5749,434.2031 C323.0749,432.9219 324.0593,432.0625 324.5124,431.6406 C326.1999,430.1094 326.6062,429.4688 326.6062,428.3594 C326.6062,426.4688 325.0593,425.0625 322.9968,425.0625 C321.9812,425.0625 321.0124,425.4063 320.3406,426.0156 C319.7624,426.5469 319.3249,427.375 319.3249,427.9219 C319.3249,428.3594 319.7156,428.7344 320.1687,428.7344 C320.5281,428.7344 320.8406,428.5313 320.9343,428.2344 C321.1218,427.6875 321.1374,427.6563 321.3093,427.4531 C321.6843,427.0156 322.2781,426.7656 322.9499,426.7656 C324.0593,426.7656 324.9031,427.4219 324.9031,428.2969 C324.9031,428.875 324.6218,429.25 322.9187,430.7969 C322.1531,431.4844 321.8406,431.7656 318.9812,434.125 L318.9812,435.9063 L326.6999,435.9063 L326.6999,434.4063 C326.6999,434 326.6687,433.8438 326.5749,433.7031 C326.4187,433.4375 326.1374,433.2813 325.8406,433.2813 C325.3249,433.2813 325.0437,433.5938 324.9968,434.2031 L321.5749,434.2031 Z " fill="#000000"/><text fill="#000000" font-family="Verdana" font-size="12" lengthAdjust="spacing" textLength="79" x="340.9593" y="435.0605">EspaceCours</text><line style="stroke:#A80036;stroke-width:1.5;" x1="291.5093" x2="439.5093" y1="446.9063" y2="446.9063"/><text fill="#000000" font-family="Verdana" font-size="11" lengthAdjust="spacing" textLength="138" x="296.5093" y="461.1167">idEspaceCours : number</text><line style="stroke:#A80036;stroke-width:1.5;" x1="291.5093" x2="439.5093" y1="467.7109" y2="467.7109"/><!--MD5=[10a08b655f733f3f3e8b0ffe69f4343a]
class Université--><rect codeLine="55" fill="#FEFECE" filter="url(#f1d4d514n7kzek)" height="48" id="Université" rx="10" ry="10" style="stroke:#A80036;stroke-width:1.5;" width="93" x="136.0088" y="61.9063"/><ellipse cx="151.0088" cy="77.9063" fill="#FF0000" rx="11" ry="11" style="stroke:#A80036;stroke-width:1.0;"/><path d="M149.5244,81.2031 C151.0244,79.9219 152.0088,79.0625 152.4619,78.6406 C154.1494,77.1094 154.5557,76.4688 154.5557,75.3594 C154.5557,73.4688 153.0088,72.0625 150.9463,72.0625 C149.9307,72.0625 148.9619,72.4063 148.2901,73.0156 C147.7119,73.5469 147.2744,74.375 147.2744,74.9219 C147.2744,75.3594 147.6651,75.7344 148.1182,75.7344 C148.4776,75.7344 148.7901,75.5313 148.8838,75.2344 C149.0713,74.6875 149.0869,74.6563 149.2588,74.4531 C149.6338,74.0156 150.2276,73.7656 150.8994,73.7656 C152.0088,73.7656 152.8526,74.4219 152.8526,75.2969 C152.8526,75.875 152.5713,76.25 150.8682,77.7969 C150.1026,78.4844 149.7901,78.7656 146.9307,81.125 L146.9307,82.9063 L154.6494,82.9063 L154.6494,81.4063 C154.6494,81 154.6182,80.8438 154.5244,80.7031 C154.3682,80.4375 154.0869,80.2813 153.7901,80.2813 C153.2744,80.2813 152.9932,80.5938 152.9463,81.2031 L149.5244,81.2031 Z " fill="#000000"/><text fill="#000000" font-family="Verdana" font-size="12" lengthAdjust="spacing" textLength="61" x="165.0088" y="82.0605">Université</text><line style="stroke:#A80036;stroke-width:1.5;" x1="137.0088" x2="228.0088" y1="93.9063" y2="93.9063"/><line style="stroke:#A80036;stroke-width:1.5;" x1="137.0088" x2="228.0088" y1="101.9063" y2="101.9063"/><!--MD5=[359da426c3c95d8048c951014945ceb0]
link Devoir to Remise--><path codeLine="58" d="M668.9063,690.9463 C690.1993,716.6363 713.7933,745.1012 732.5623,767.745 " fill="none" id="Devoir-Remise" style="stroke:#A80036;stroke-width:1.0;"/><polygon fill="#000000" points="712.7001,733.3222,709.1906,724.4828,704.6652,728.2338,712.7001,733.3222" style="stroke:#000000;stroke-width:1.0;"/><text fill="#000000" font-family="Verdana" font-size="13" lengthAdjust="spacing" textLength="52" x="718.5093" y="733.9731">contient</text><text fill="#000000" font-family="Verdana" font-size="13" lengthAdjust="spacing" textLength="8" x="666.0641" y="710.5722">1</text><text fill="#000000" font-family="Verdana" font-size="13" lengthAdjust="spacing" textLength="7" x="719.4348" y="756.7156">*</text><!--MD5=[b8f15a7fbf1e0ac66b43fe2a255415c0]
link EspaceCours to Devoir--><path codeLine="59" d="M407.4093,476.0083 C442.3693,500.7063 493.1193,536.5603 535.3883,566.4223 " fill="none" id="EspaceCours-Devoir" style="stroke:#A80036;stroke-width:1.0;"/><polygon fill="#000000" points="476.593,517.3577,470.9013,509.7383,467.5097,514.539,476.593,517.3577" style="stroke:#000000;stroke-width:1.0;"/><text fill="#000000" font-family="Verdana" font-size="13" lengthAdjust="spacing" textLength="52" x="481.5093" y="518.9731">contient</text><text fill="#000000" font-family="Verdana" font-size="13" lengthAdjust="spacing" textLength="8" x="407.2262" y="495.9675">1</text><text fill="#000000" font-family="Verdana" font-size="13" lengthAdjust="spacing" textLength="23" x="504.4955" y="557.9019">1..*</text><!--MD5=[93dcfdb2a1ddb0d5d28e1d54c7b7b70f]
link Enseignant to EspaceCours--><path codeLine="60" d="M245.1163,299.8323 C245.4093,324.6613 249.3223,359.8343 266.5093,384.9063 C274.6723,396.8153 286.0743,406.7313 298.2483,414.8343 " fill="none" id="Enseignant-EspaceCours" style="stroke:#A80036;stroke-width:1.0;"/><polygon fill="#000000" points="273.6064,381.0116,272.4807,371.5679,267.1448,374.0332,273.6064,381.0116" style="stroke:#000000;stroke-width:1.0;"/><text fill="#000000" font-family="Verdana" font-size="13" lengthAdjust="spacing" textLength="58" x="280.5093" y="380.9731">enseigne</text><text fill="#000000" font-family="Verdana" font-size="13" lengthAdjust="spacing" textLength="8" x="236.0883" y="319.2554">1</text><text fill="#000000" font-family="Verdana" font-size="13" lengthAdjust="spacing" textLength="23" x="286.0506" y="403.6088">1..*</text><!--MD5=[e696a511ab66ff85cf29965a3cb732fe]
link Université to Enseignant--><path codeLine="61" d="M190.7443,110.1983 C202.3243,142.9473 223.4163,202.5963 236.0783,238.4063 " fill="none" id="Université-Enseignant" style="stroke:#A80036;stroke-width:1.0;"/><polygon fill="#000000" points="218.1762,166.1866,217.9316,156.6792,212.39,158.6387,218.1762,166.1866" style="stroke:#000000;stroke-width:1.0;"/><text fill="#000000" font-family="Verdana" font-size="13" lengthAdjust="spacing" textLength="51" x="225.5093" y="165.9731">emploie</text><text fill="#000000" font-family="Verdana" font-size="13" lengthAdjust="spacing" textLength="8" x="183.7767" y="130.0306">1</text><text fill="#000000" font-family="Verdana" font-size="13" lengthAdjust="spacing" textLength="7" x="226.0309" y="227.1965">*</text><!--MD5=[5f5ea864aa0d8e50d66671c98d7d892f]
link Cours to EspaceCours--><path codeLine="62" d="M138.9923,306.0613 C152.1503,331.2983 172.7963,364.0683 199.5093,384.9063 C225.8203,405.4313 259.8203,419.2653 290.1903,428.3843 " fill="none" id="Cours-EspaceCours" style="stroke:#A80036;stroke-width:1.0;"/><polygon fill="#000000" points="208.3965,379.6175,203.213,371.6436,199.516,376.2133,208.3965,379.6175" style="stroke:#000000;stroke-width:1.0;"/><text fill="#000000" font-family="Verdana" font-size="13" lengthAdjust="spacing" textLength="36" x="213.5093" y="380.9731">décrit</text><text fill="#000000" font-family="Verdana" font-size="13" lengthAdjust="spacing" textLength="8" x="133.0599" y="325.5675">1</text><text fill="#000000" font-family="Verdana" font-size="13" lengthAdjust="spacing" textLength="8" x="274.6302" y="423.1295">1</text><!--MD5=[cd0fbe75c199b7105571d279d6d2d771]
link Université to Cours--><path codeLine="63" d="M157.2793,110.1613 C146.3703,121.8352 134.7019,136.8882 128.5088,152.9063 C118.8119,177.9873 117.6481,208.4573 118.7277,231.7313 " fill="none" id="Université-Cours" style="stroke:#A80036;stroke-width:1.0;"/><polygon fill="#000000" points="131.9974,166.2388,137.533,158.5052,131.9301,156.7284,131.9974,166.2388" style="stroke:#000000;stroke-width:1.0;"/><text fill="#000000" font-family="Verdana" font-size="13" lengthAdjust="spacing" textLength="52" x="142.5088" y="165.9731">contient</text><text fill="#000000" font-family="Verdana" font-size="13" lengthAdjust="spacing" textLength="8" x="142.1546" y="129.9846">1</text><text fill="#000000" font-family="Verdana" font-size="13" lengthAdjust="spacing" textLength="7" x="110.4308" y="220.887">*</text><!--MD5=[a719c3afe478145ef5bffac787162784]
link EspaceCours to Etudiant--><path codeLine="64" d="M322.7603,476.0083 C275.7183,508.5823 200.6543,560.5613 154.3753,592.6073 " fill="none" id="EspaceCours-Etudiant" style="stroke:#A80036;stroke-width:1.0;"/><polygon fill="#000000" points="278.3986,517.3191,287.508,514.586,284.1618,509.7536,278.3986,517.3191" style="stroke:#000000;stroke-width:1.0;"/><text fill="#000000" font-family="Verdana" font-size="13" lengthAdjust="spacing" textLength="84" x="291.5093" y="518.9731">est_suivi_par</text><text fill="#000000" font-family="Verdana" font-size="13" lengthAdjust="spacing" textLength="8" x="305.1183" y="495.9675">1</text><text fill="#000000" font-family="Verdana" font-size="13" lengthAdjust="spacing" textLength="7" x="162.0008" y="583.3775">*</text><!--MD5=[d99a8c8e2f040432a664dac4ac75f7f7]
link Questionnaire to Question--><path codeLine="65" d="M700.5093,123.0992 C700.5093,144.9702 700.5093,173.5562 700.5093,199.5463 " fill="none" id="Questionnaire-Question" style="stroke:#A80036;stroke-width:1.0;"/><polygon fill="#000000" points="705.5093,166.4727,708.4482,157.4276,702.5704,157.4276,705.5093,166.4727" style="stroke:#000000;stroke-width:1.0;"/><text fill="#000000" font-family="Verdana" font-size="13" lengthAdjust="spacing" textLength="52" x="714.5093" y="165.9731">contient</text><text fill="#000000" font-family="Verdana" font-size="13" lengthAdjust="spacing" textLength="8" x="691.8468" y="142.6118">1</text><text fill="#000000" font-family="Verdana" font-size="13" lengthAdjust="spacing" textLength="23" x="676.3234" y="188.7127">1..*</text><!--MD5=[325701bbe546bfc91cac5365729ea61d]
link Questionnaire to Remise--><path codeLine="66" d="M756.4153,123.2263 C798.6943,155.5503 849.5093,207.0572 849.5093,267.9063 C849.5093,267.9063 849.5093,267.9063 849.5093,622.9063 C849.5093,676.0803 821.3563,731.1423 798.0423,767.6242 " fill="none" id="Questionnaire-Remise" style="stroke:#A80036;stroke-width:1.0;"/><polygon fill="#000000" points="854.8316,450.4623,857.1814,441.2465,851.3157,441.6254,854.8316,450.4623" style="stroke:#000000;stroke-width:1.0;"/><text fill="#000000" font-family="Verdana" font-size="13" lengthAdjust="spacing" textLength="54" x="863.5093" y="449.9731">possède</text><text fill="#000000" font-family="Verdana" font-size="13" lengthAdjust="spacing" textLength="8" x="756.6878" y="142.478">1</text><text fill="#000000" font-family="Verdana" font-size="13" lengthAdjust="spacing" textLength="7" x="795.1817" y="756.8936">*</text><!--MD5=[9f636a31fd47673c009bae167edd40f2]
link Université to EspaceCours--><path codeLine="67" d="M228.5583,110.0142 C247.7233,121.1632 269.2473,135.8383 285.5093,152.9063 C355.9153,226.8083 365.5163,356.6803 366.0663,414.8153 " fill="none" id="Université-EspaceCours" style="stroke:#A80036;stroke-width:1.0;"/><polygon fill="#000000" points="367.5654,273.5303,366.5248,264.0769,361.1669,266.494,367.5654,273.5303" style="stroke:#000000;stroke-width:1.0;"/><text fill="#000000" font-family="Verdana" font-size="13" lengthAdjust="spacing" textLength="52" x="374.5093" y="273.4731">contient</text><text fill="#000000" font-family="Verdana" font-size="13" lengthAdjust="spacing" textLength="8" x="230.8079" y="129.8018">1</text><text fill="#000000" font-family="Verdana" font-size="13" lengthAdjust="spacing" textLength="7" x="358.4593" y="404.0597">*</text><!--MD5=[5217f6319e60196188b9b46941152dbc]
link Université to Etudiant--><path codeLine="68" d="M145.4533,110.0633 C117.3586,129.9923 80.881,161.5593 64.5088,199.9063 C6,336.9453 70.7136,520.6063 100.3171,591.3863 " fill="none" id="Université-Etudiant" style="stroke:#A80036;stroke-width:1.0;"/><polygon fill="#000000" points="49.9756,371.4945,46.205,380.2257,52.0572,380.7745,49.9756,371.4945" style="stroke:#000000;stroke-width:1.0;"/><text fill="#000000" font-family="Verdana" font-size="13" lengthAdjust="spacing" textLength="76" x="58.5088" y="380.9731">est-inscrit-à</text><text fill="#000000" font-family="Verdana" font-size="13" lengthAdjust="spacing" textLength="8" x="127.4461" y="129.8627">1</text><text fill="#000000" font-family="Verdana" font-size="13" lengthAdjust="spacing" textLength="7" x="89.6658" y="580.1722">*</text><!--MD5=[31ca12531000ae5fbc8b65f0576c1ae5]
link Question to EspaceCours--><path codeLine="69" d="M607.4493,337.9923 C582.5213,354.5803 555.0943,371.4123 528.5093,384.9063 C500.7053,399.0183 468.7403,411.4443 440.5233,421.2423 " fill="none" id="Question-EspaceCours" style="stroke:#A80036;stroke-width:1.0;"/><polygon fill="#000000" points="567.9837,374.2412,558.5778,375.648,561.2011,380.908,567.9837,374.2412" style="stroke:#000000;stroke-width:1.0;"/><text fill="#000000" font-family="Verdana" font-size="13" lengthAdjust="spacing" textLength="52" x="572.5093" y="380.9731">contient</text><text fill="#000000" font-family="Verdana" font-size="13" lengthAdjust="spacing" textLength="7" x="590.9442" y="357.6227">*</text><text fill="#000000" font-family="Verdana" font-size="13" lengthAdjust="spacing" textLength="8" x="448.6716" y="415.0607">1</text><!--MD5=[9658aa9b13a75953075a809ba662f093]
link Questionnaire to EspaceCours--><path codeLine="70" d="M642.2253,114.6273 C604.4323,134.6073 555.8403,164.2722 520.5093,199.9063 C469.7903,251.0593 474.1843,277.1353 435.5093,337.9063 C418.8773,364.0393 399.5013,393.4403 385.3573,414.7193 " fill="none" id="Questionnaire-EspaceCours" style="stroke:#A80036;stroke-width:1.0;"/><polygon fill="#000000" points="522.2579,272.7712,530.3724,267.8107,525.907,263.9885,522.2579,272.7712" style="stroke:#000000;stroke-width:1.0;"/><text fill="#000000" font-family="Verdana" font-size="13" lengthAdjust="spacing" textLength="52" x="534.5093" y="273.4731">contient</text><text fill="#000000" font-family="Verdana" font-size="13" lengthAdjust="spacing" textLength="7" x="627.6954" y="114.3124">*</text><text fill="#000000" font-family="Verdana" font-size="13" lengthAdjust="spacing" textLength="8" x="380.626" y="403.9439">1</text><rect fill="#DDDDDD" height="79.1875" rx="5" ry="5" style="stroke:#000000;stroke-width:1.0;" width="325" x="293.2546" y="875.3203"/><text fill="#000000" font-family="Verdana" font-size="14" font-weight="bold" lengthAdjust="spacing" textLength="0" x="304.2546" y="895.3154"/><text fill="#000000" font-family="Verdana" font-size="14" font-weight="bold" lengthAdjust="spacing" textLength="39" x="327.2546" y="895.3154">Type</text><text fill="#000000" filter="url(#b1d4d514n7kzek0)" font-family="Verdana" font-size="14" lengthAdjust="spacing" textLength="23" x="299.2546" y="911.6123">_1_</text><text fill="#000000" font-family="Verdana" font-size="14" lengthAdjust="spacing" textLength="282" x="326.2546" y="911.6123">Classe non modifiée première itération</text><text fill="#000000" filter="url(#b1d4d514n7kzek1)" font-family="Verdana" font-size="14" lengthAdjust="spacing" textLength="23" x="299.2546" y="927.9092">_1_</text><text fill="#000000" font-family="Verdana" font-size="14" lengthAdjust="spacing" textLength="251" x="326.2546" y="927.9092">Classe modifiée première itération</text><text fill="#000000" filter="url(#b1d4d514n7kzek2)" font-family="Verdana" font-size="14" lengthAdjust="spacing" textLength="22" x="299.2546" y="944.2061">_2_</text><text fill="#000000" font-family="Verdana" font-size="14" lengthAdjust="spacing" textLength="249" x="326.2546" y="944.2061">Nouvelle classe deuxième itération</text><line style="stroke:#000000;stroke-width:1.0;" x1="299.2546" x2="612.2547" y1="882.3203" y2="882.3203"/><line style="stroke:#000000;stroke-width:1.0;" x1="299.2546" x2="612.2547" y1="898.6172" y2="898.6172"/><line style="stroke:#000000;stroke-width:1.0;" x1="299.2546" x2="612.2547" y1="914.9141" y2="914.9141"/><line style="stroke:#000000;stroke-width:1.0;" x1="299.2546" x2="612.2547" y1="931.2109" y2="931.2109"/><line style="stroke:#000000;stroke-width:1.0;" x1="299.2546" x2="612.2547" y1="947.5078" y2="947.5078"/><line style="stroke:#000000;stroke-width:1.0;" x1="299.2546" x2="299.2546" y1="882.3203" y2="947.5078"/><line style="stroke:#000000;stroke-width:1.0;" x1="322.2546" x2="322.2546" y1="882.3203" y2="947.5078"/><line style="stroke:#000000;stroke-width:1.0;" x1="612.2547" x2="612.2547" y1="882.3203" y2="947.5078"/><!--MD5=[96914028aaeba6cb130274c2d8d32223]
@startuml
skinparam defaultfontname Verdana
skinparam RoundCorner 20
' skinparam linetype ortho

title Modèle du domaine (adapté au Cas d'utilisation \n ajouter et récupérer )
class Cours << (1,blue) >> {
    id : number
    nom : String
}


class Enseignant << (1,blue) >>{
    token : String
}

class Etudiant << (1,blue) >>{
    nom : String
}

class Devoir << (2,red) >>{
    id: number
    nom: String
    description : String
    note maximale : number
    date de début : String
    date de fin : String
    visible : boolean
}

class Remise << (2,red) >>{
    id : number
    etat : String
    idEtudiant : number
}

class Question << 1,yellow) >>{
    id : number
    nom : String
    tags : String []
    texteQuestion : String
    reponse : boolean
    texteBonneReponse : String
    texteMauvaiseReponse : String
}

class Questionnaire << (2,red) >>{
    id: number
    description: String
}

class EspaceCours << (2,red) >>{
    idEspaceCours : number
}

class Université << (2,red) >>{

}
Devoir "1"- -"*" Remise : contient >
EspaceCours "1"- -"1..*" Devoir: contient >
Enseignant "1"- -"1..*" EspaceCours : enseigne >
Université "1"- -"*" Enseignant : emploie >
Cours "1"- - "1" EspaceCours : décrit >
Université "1"- -"*" Cours : contient >
EspaceCours "1"- - "*"Etudiant : est_suivi_par >
Questionnaire "1"- -"1..*" Question : contient >
Questionnaire"1"- -"*" Remise : possède >
Université "1"- -"*" EspaceCours : contient >
Université "1"- -"*" Etudiant : est-inscrit-à <
Question "*"- -"1" EspaceCours : contient <
Questionnaire "*"- -"1" EspaceCours : contient >

legend
|= |= Type |
|<back:blue>_1_</back>| Classe non modifiée première itération |
|<back:yellow>_1_</back>| Classe modifiée première itération |
|<back:red>_2_</back>| Nouvelle classe deuxième itération |
endlegend
@enduml

@startuml
skinparam defaultfontname Verdana
skinparam RoundCorner 20

title Modèle du domaine (adapté au Cas d'utilisation \n ajouter et récupérer )
class Cours << (1,blue) >> {
    id : number
    nom : String
}


class Enseignant << (1,blue) >>{
    token : String
}

class Etudiant << (1,blue) >>{
    nom : String
}

class Devoir << (2,red) >>{
    id: number
    nom: String
    description : String
    note maximale : number
    date de début : String
    date de fin : String
    visible : boolean
}

class Remise << (2,red) >>{
    id : number
    etat : String
    idEtudiant : number
}

class Question << 1,yellow) >>{
    id : number
    nom : String
    tags : String []
    texteQuestion : String
    reponse : boolean
    texteBonneReponse : String
    texteMauvaiseReponse : String
}

class Questionnaire << (2,red) >>{
    id: number
    description: String
}

class EspaceCours << (2,red) >>{
    idEspaceCours : number
}

class Université << (2,red) >>{

}
Devoir "1"- -"*" Remise : contient >
EspaceCours "1"- -"1..*" Devoir: contient >
Enseignant "1"- -"1..*" EspaceCours : enseigne >
Université "1"- -"*" Enseignant : emploie >
Cours "1"- - "1" EspaceCours : décrit >
Université "1"- -"*" Cours : contient >
EspaceCours "1"- - "*"Etudiant : est_suivi_par >
Questionnaire "1"- -"1..*" Question : contient >
Questionnaire"1"- -"*" Remise : possède >
Université "1"- -"*" EspaceCours : contient >
Université "1"- -"*" Etudiant : est-inscrit-à <
Question "*"- -"1" EspaceCours : contient <
Questionnaire "*"- -"1" EspaceCours : contient >

legend
|= |= Type |
|<back:blue>_1_</back>| Classe non modifiée première itération |
|<back:yellow>_1_</back>| Classe modifiée première itération |
|<back:red>_2_</back>| Nouvelle classe deuxième itération |
endlegend
@enduml

PlantUML version 1.2021.9beta2(Unknown compile time)
(GPL source distribution)
Java Runtime: Java(TM) SE Runtime Environment
JVM: Java HotSpot(TM) 64-Bit Server VM
Default Encoding: UTF-8
Language: en
Country: US
--></g></svg>