<?xml version="1.0" encoding="UTF-8" standalone="no"?><svg xmlns="http://www.w3.org/2000/svg" xmlns:xlink="http://www.w3.org/1999/xlink" contentScriptType="application/ecmascript" contentStyleType="text/css" height="864px" preserveAspectRatio="none" style="width:453px;height:864px;background:#FFFFFF;" version="1.1" viewBox="0 0 453 864" width="453px" zoomAndPan="magnify"><defs><filter height="300%" id="f129fzpizevpx4" width="300%" x="-1" y="-1"><feGaussianBlur result="blurOut" stdDeviation="2.0"/><feColorMatrix in="blurOut" result="blurOut2" type="matrix" values="0 0 0 0 0 0 0 0 0 0 0 0 0 0 0 0 0 0 .4 0"/><feOffset dx="4.0" dy="4.0" in="blurOut2" result="blurOut3"/><feBlend in="SourceGraphic" in2="blurOut3" mode="normal"/></filter></defs><g><text fill="#000000" font-family="Verdana" font-size="18" lengthAdjust="spacing" textLength="438" x="2" y="16.708">Modèle du domaine (adapté au Cas d'utilisation</text><text fill="#000000" font-family="Verdana" font-size="18" lengthAdjust="spacing" textLength="205" x="124.5" y="37.6611">ajouter et récupérer )</text><!--MD5=[f6edf60997924e693a9a5571eb281b8c]
class Cours--><rect codeLine="7" fill="#FEFECE" filter="url(#f129fzpizevpx4)" height="73.6094" id="Cours" rx="10" ry="10" style="stroke:#A80036;stroke-width:1.5;" width="81" x="285.75" y="48.9063"/><ellipse cx="307.05" cy="64.9063" fill="#ADD1B2" rx="11" ry="11" style="stroke:#A80036;stroke-width:1.0;"/><path d="M309.3938,60.5781 C308.4563,60.1406 307.8625,60 306.9875,60 C304.3625,60 302.3625,62.0781 302.3625,64.7969 L302.3625,65.9219 C302.3625,68.5 304.4719,70.3906 307.3625,70.3906 C308.5813,70.3906 309.7375,70.0938 310.4875,69.5469 C311.0656,69.1406 311.3938,68.6875 311.3938,68.2969 C311.3938,67.8438 311.0031,67.4531 310.5344,67.4531 C310.3156,67.4531 310.1125,67.5313 309.925,67.7188 C309.4719,68.2031 309.4719,68.2031 309.2844,68.2969 C308.8625,68.5625 308.175,68.6875 307.4094,68.6875 C305.3625,68.6875 304.0656,67.5938 304.0656,65.8906 L304.0656,64.7969 C304.0656,63.0156 305.3156,61.7031 307.05,61.7031 C307.6281,61.7031 308.2375,61.8594 308.7063,62.1094 C309.1906,62.3906 309.3625,62.6094 309.4563,63.0156 C309.5188,63.4219 309.55,63.5469 309.6906,63.6719 C309.8313,63.8125 310.0656,63.9219 310.2844,63.9219 C310.55,63.9219 310.8156,63.7813 310.9875,63.5625 C311.0969,63.4063 311.1281,63.2188 311.1281,62.7969 L311.1281,61.375 C311.1281,60.9375 311.1125,60.8125 311.0188,60.6563 C310.8625,60.3906 310.5813,60.25 310.2844,60.25 C309.9875,60.25 309.7844,60.3438 309.5656,60.6563 L309.3938,60.5781 Z " fill="#000000"/><text fill="#000000" font-family="Verdana" font-size="12" lengthAdjust="spacing" textLength="35" x="322.45" y="69.0605">Cours</text><line style="stroke:#A80036;stroke-width:1.5;" x1="286.75" x2="365.75" y1="80.9063" y2="80.9063"/><text fill="#000000" font-family="Verdana" font-size="11" lengthAdjust="spacing" textLength="35" x="291.75" y="95.1167">id : int</text><text fill="#000000" font-family="Verdana" font-size="11" lengthAdjust="spacing" textLength="69" x="291.75" y="107.9214">nom : String</text><line style="stroke:#A80036;stroke-width:1.5;" x1="286.75" x2="365.75" y1="114.5156" y2="114.5156"/><!--MD5=[0ea76b077f2fe2b0557d144a0cdb3724]
class Enseignant--><rect codeLine="13" fill="#FEFECE" filter="url(#f129fzpizevpx4)" height="60.8047" id="Enseignant" rx="10" ry="10" style="stroke:#A80036;stroke-width:1.5;" width="97" x="104.75" y="324.9063"/><ellipse cx="119.75" cy="340.9063" fill="#ADD1B2" rx="11" ry="11" style="stroke:#A80036;stroke-width:1.0;"/><path d="M122.0938,336.5781 C121.1563,336.1406 120.5625,336 119.6875,336 C117.0625,336 115.0625,338.0781 115.0625,340.7969 L115.0625,341.9219 C115.0625,344.5 117.1719,346.3906 120.0625,346.3906 C121.2813,346.3906 122.4375,346.0938 123.1875,345.5469 C123.7656,345.1406 124.0938,344.6875 124.0938,344.2969 C124.0938,343.8438 123.7031,343.4531 123.2344,343.4531 C123.0156,343.4531 122.8125,343.5313 122.625,343.7188 C122.1719,344.2031 122.1719,344.2031 121.9844,344.2969 C121.5625,344.5625 120.875,344.6875 120.1094,344.6875 C118.0625,344.6875 116.7656,343.5938 116.7656,341.8906 L116.7656,340.7969 C116.7656,339.0156 118.0156,337.7031 119.75,337.7031 C120.3281,337.7031 120.9375,337.8594 121.4063,338.1094 C121.8906,338.3906 122.0625,338.6094 122.1563,339.0156 C122.2188,339.4219 122.25,339.5469 122.3906,339.6719 C122.5313,339.8125 122.7656,339.9219 122.9844,339.9219 C123.25,339.9219 123.5156,339.7813 123.6875,339.5625 C123.7969,339.4063 123.8281,339.2188 123.8281,338.7969 L123.8281,337.375 C123.8281,336.9375 123.8125,336.8125 123.7188,336.6563 C123.5625,336.3906 123.2813,336.25 122.9844,336.25 C122.6875,336.25 122.4844,336.3438 122.2656,336.6563 L122.0938,336.5781 Z " fill="#000000"/><text fill="#000000" font-family="Verdana" font-size="12" lengthAdjust="spacing" textLength="65" x="133.75" y="345.0605">Enseignant</text><line style="stroke:#A80036;stroke-width:1.5;" x1="105.75" x2="200.75" y1="356.9063" y2="356.9063"/><text fill="#000000" font-family="Verdana" font-size="11" lengthAdjust="spacing" textLength="76" x="110.75" y="371.1167">token : String</text><line style="stroke:#A80036;stroke-width:1.5;" x1="105.75" x2="200.75" y1="377.7109" y2="377.7109"/><!--MD5=[f84e857de5a9ca5678aed72e3e98d0a5]
class Etudiant--><rect codeLine="17" fill="#FEFECE" filter="url(#f129fzpizevpx4)" height="60.8047" id="Etudiant" rx="10" ry="10" style="stroke:#A80036;stroke-width:1.5;" width="81" x="17.75" y="619.9063"/><ellipse cx="33.65" cy="635.9063" fill="#ADD1B2" rx="11" ry="11" style="stroke:#A80036;stroke-width:1.0;"/><path d="M35.9938,631.5781 C35.0563,631.1406 34.4625,631 33.5875,631 C30.9625,631 28.9625,633.0781 28.9625,635.7969 L28.9625,636.9219 C28.9625,639.5 31.0719,641.3906 33.9625,641.3906 C35.1813,641.3906 36.3375,641.0938 37.0875,640.5469 C37.6656,640.1406 37.9938,639.6875 37.9938,639.2969 C37.9938,638.8438 37.6031,638.4531 37.1344,638.4531 C36.9156,638.4531 36.7125,638.5313 36.525,638.7188 C36.0719,639.2031 36.0719,639.2031 35.8844,639.2969 C35.4625,639.5625 34.775,639.6875 34.0094,639.6875 C31.9625,639.6875 30.6656,638.5938 30.6656,636.8906 L30.6656,635.7969 C30.6656,634.0156 31.9156,632.7031 33.65,632.7031 C34.2281,632.7031 34.8375,632.8594 35.3063,633.1094 C35.7906,633.3906 35.9625,633.6094 36.0563,634.0156 C36.1188,634.4219 36.15,634.5469 36.2906,634.6719 C36.4313,634.8125 36.6656,634.9219 36.8844,634.9219 C37.15,634.9219 37.4156,634.7813 37.5875,634.5625 C37.6969,634.4063 37.7281,634.2188 37.7281,633.7969 L37.7281,632.375 C37.7281,631.9375 37.7125,631.8125 37.6188,631.6563 C37.4625,631.3906 37.1813,631.25 36.8844,631.25 C36.5875,631.25 36.3844,631.3438 36.1656,631.6563 L35.9938,631.5781 Z " fill="#000000"/><text fill="#000000" font-family="Verdana" font-size="12" lengthAdjust="spacing" textLength="47" x="47.85" y="640.0605">Etudiant</text><line style="stroke:#A80036;stroke-width:1.5;" x1="18.75" x2="97.75" y1="651.9063" y2="651.9063"/><text fill="#000000" font-family="Verdana" font-size="11" lengthAdjust="spacing" textLength="69" x="23.75" y="666.1167">nom : String</text><line style="stroke:#A80036;stroke-width:1.5;" x1="18.75" x2="97.75" y1="672.7109" y2="672.7109"/><!--MD5=[39d6d2ea03de602dbf4d534e70c872a9]
class Tag--><rect codeLine="21" fill="#FEFECE" filter="url(#f129fzpizevpx4)" height="60.8047" id="Tag" rx="10" ry="10" style="stroke:#A80036;stroke-width:1.5;" width="81" x="223.75" y="789.9063"/><ellipse cx="250.9" cy="805.9063" fill="#ADD1B2" rx="11" ry="11" style="stroke:#A80036;stroke-width:1.0;"/><path d="M253.2438,801.5781 C252.3063,801.1406 251.7125,801 250.8375,801 C248.2125,801 246.2125,803.0781 246.2125,805.7969 L246.2125,806.9219 C246.2125,809.5 248.3219,811.3906 251.2125,811.3906 C252.4313,811.3906 253.5875,811.0938 254.3375,810.5469 C254.9156,810.1406 255.2438,809.6875 255.2438,809.2969 C255.2438,808.8438 254.8531,808.4531 254.3844,808.4531 C254.1656,808.4531 253.9625,808.5313 253.775,808.7188 C253.3219,809.2031 253.3219,809.2031 253.1344,809.2969 C252.7125,809.5625 252.025,809.6875 251.2594,809.6875 C249.2125,809.6875 247.9156,808.5938 247.9156,806.8906 L247.9156,805.7969 C247.9156,804.0156 249.1656,802.7031 250.9,802.7031 C251.4781,802.7031 252.0875,802.8594 252.5563,803.1094 C253.0406,803.3906 253.2125,803.6094 253.3063,804.0156 C253.3688,804.4219 253.4,804.5469 253.5406,804.6719 C253.6813,804.8125 253.9156,804.9219 254.1344,804.9219 C254.4,804.9219 254.6656,804.7813 254.8375,804.5625 C254.9469,804.4063 254.9781,804.2188 254.9781,803.7969 L254.9781,802.375 C254.9781,801.9375 254.9625,801.8125 254.8688,801.6563 C254.7125,801.3906 254.4313,801.25 254.1344,801.25 C253.8375,801.25 253.6344,801.3438 253.4156,801.6563 L253.2438,801.5781 Z " fill="#000000"/><text fill="#000000" font-family="Verdana" font-size="12" lengthAdjust="spacing" textLength="22" x="267.6" y="810.0605">Tag</text><line style="stroke:#A80036;stroke-width:1.5;" x1="224.75" x2="303.75" y1="821.9063" y2="821.9063"/><text fill="#000000" font-family="Verdana" font-size="11" lengthAdjust="spacing" textLength="69" x="229.75" y="836.1167">nom : String</text><line style="stroke:#A80036;stroke-width:1.5;" x1="224.75" x2="303.75" y1="842.7109" y2="842.7109"/><!--MD5=[fc7123defb831ecdd44b2d9bcef6cceb]
class Question--><rect codeLine="25" fill="#FEFECE" filter="url(#f129fzpizevpx4)" height="124.8281" id="Question" rx="10" ry="10" style="stroke:#A80036;stroke-width:1.5;" width="191" x="168.75" y="587.9063"/><ellipse cx="233" cy="603.9063" fill="#ADD1B2" rx="11" ry="11" style="stroke:#A80036;stroke-width:1.0;"/><path d="M235.3438,599.5781 C234.4063,599.1406 233.8125,599 232.9375,599 C230.3125,599 228.3125,601.0781 228.3125,603.7969 L228.3125,604.9219 C228.3125,607.5 230.4219,609.3906 233.3125,609.3906 C234.5313,609.3906 235.6875,609.0938 236.4375,608.5469 C237.0156,608.1406 237.3438,607.6875 237.3438,607.2969 C237.3438,606.8438 236.9531,606.4531 236.4844,606.4531 C236.2656,606.4531 236.0625,606.5313 235.875,606.7188 C235.4219,607.2031 235.4219,607.2031 235.2344,607.2969 C234.8125,607.5625 234.125,607.6875 233.3594,607.6875 C231.3125,607.6875 230.0156,606.5938 230.0156,604.8906 L230.0156,603.7969 C230.0156,602.0156 231.2656,600.7031 233,600.7031 C233.5781,600.7031 234.1875,600.8594 234.6563,601.1094 C235.1406,601.3906 235.3125,601.6094 235.4063,602.0156 C235.4688,602.4219 235.5,602.5469 235.6406,602.6719 C235.7813,602.8125 236.0156,602.9219 236.2344,602.9219 C236.5,602.9219 236.7656,602.7813 236.9375,602.5625 C237.0469,602.4063 237.0781,602.2188 237.0781,601.7969 L237.0781,600.375 C237.0781,599.9375 237.0625,599.8125 236.9688,599.6563 C236.8125,599.3906 236.5313,599.25 236.2344,599.25 C235.9375,599.25 235.7344,599.3438 235.5156,599.6563 L235.3438,599.5781 Z " fill="#000000"/><text fill="#000000" font-family="Verdana" font-size="12" lengthAdjust="spacing" textLength="54" x="253.5" y="608.0605">Question</text><line style="stroke:#A80036;stroke-width:1.5;" x1="169.75" x2="358.75" y1="619.9063" y2="619.9063"/><text fill="#000000" font-family="Verdana" font-size="11" lengthAdjust="spacing" textLength="35" x="174.75" y="634.1167">id : int</text><text fill="#000000" font-family="Verdana" font-size="11" lengthAdjust="spacing" textLength="69" x="174.75" y="646.9214">nom : String</text><text fill="#000000" font-family="Verdana" font-size="11" lengthAdjust="spacing" textLength="126" x="174.75" y="659.7261">texteQuestion : String</text><text fill="#000000" font-family="Verdana" font-size="11" lengthAdjust="spacing" textLength="104" x="174.75" y="672.5308">reponse : boolean</text><text fill="#000000" font-family="Verdana" font-size="11" lengthAdjust="spacing" textLength="162" x="174.75" y="685.3354">texteBonneReponse : String</text><text fill="#000000" font-family="Verdana" font-size="11" lengthAdjust="spacing" textLength="179" x="174.75" y="698.1401">texteMauvaiseReponse : String</text><line style="stroke:#A80036;stroke-width:1.5;" x1="169.75" x2="358.75" y1="704.7344" y2="704.7344"/><!--MD5=[dabef5714f41dd45c84d2acd22a3f642]
class EspaceCours--><rect codeLine="34" fill="#FEFECE" filter="url(#f129fzpizevpx4)" height="48" id="EspaceCours" rx="10" ry="10" style="stroke:#A80036;stroke-width:1.5;" width="111" x="208.75" y="462.9063"/><ellipse cx="223.75" cy="478.9063" fill="#ADD1B2" rx="11" ry="11" style="stroke:#A80036;stroke-width:1.0;"/><path d="M226.0938,474.5781 C225.1563,474.1406 224.5625,474 223.6875,474 C221.0625,474 219.0625,476.0781 219.0625,478.7969 L219.0625,479.9219 C219.0625,482.5 221.1719,484.3906 224.0625,484.3906 C225.2813,484.3906 226.4375,484.0938 227.1875,483.5469 C227.7656,483.1406 228.0938,482.6875 228.0938,482.2969 C228.0938,481.8438 227.7031,481.4531 227.2344,481.4531 C227.0156,481.4531 226.8125,481.5313 226.625,481.7188 C226.1719,482.2031 226.1719,482.2031 225.9844,482.2969 C225.5625,482.5625 224.875,482.6875 224.1094,482.6875 C222.0625,482.6875 220.7656,481.5938 220.7656,479.8906 L220.7656,478.7969 C220.7656,477.0156 222.0156,475.7031 223.75,475.7031 C224.3281,475.7031 224.9375,475.8594 225.4063,476.1094 C225.8906,476.3906 226.0625,476.6094 226.1563,477.0156 C226.2188,477.4219 226.25,477.5469 226.3906,477.6719 C226.5313,477.8125 226.7656,477.9219 226.9844,477.9219 C227.25,477.9219 227.5156,477.7813 227.6875,477.5625 C227.7969,477.4063 227.8281,477.2188 227.8281,476.7969 L227.8281,475.375 C227.8281,474.9375 227.8125,474.8125 227.7188,474.6563 C227.5625,474.3906 227.2813,474.25 226.9844,474.25 C226.6875,474.25 226.4844,474.3438 226.2656,474.6563 L226.0938,474.5781 Z " fill="#000000"/><text fill="#000000" font-family="Verdana" font-size="12" lengthAdjust="spacing" textLength="79" x="237.75" y="483.0605">EspaceCours</text><line style="stroke:#A80036;stroke-width:1.5;" x1="209.75" x2="318.75" y1="494.9063" y2="494.9063"/><line style="stroke:#A80036;stroke-width:1.5;" x1="209.75" x2="318.75" y1="502.9063" y2="502.9063"/><!--MD5=[10a08b655f733f3f3e8b0ffe69f4343a]
class Université--><rect fill="#FEFECE" filter="url(#f129fzpizevpx4)" height="48" id="Université" rx="10" ry="10" style="stroke:#A80036;stroke-width:1.5;" width="93" x="173.75" y="199.9063"/><ellipse cx="188.75" cy="215.9063" fill="#ADD1B2" rx="11" ry="11" style="stroke:#A80036;stroke-width:1.0;"/><path d="M191.0938,211.5781 C190.1563,211.1406 189.5625,211 188.6875,211 C186.0625,211 184.0625,213.0781 184.0625,215.7969 L184.0625,216.9219 C184.0625,219.5 186.1719,221.3906 189.0625,221.3906 C190.2813,221.3906 191.4375,221.0938 192.1875,220.5469 C192.7656,220.1406 193.0938,219.6875 193.0938,219.2969 C193.0938,218.8438 192.7031,218.4531 192.2344,218.4531 C192.0156,218.4531 191.8125,218.5313 191.625,218.7188 C191.1719,219.2031 191.1719,219.2031 190.9844,219.2969 C190.5625,219.5625 189.875,219.6875 189.1094,219.6875 C187.0625,219.6875 185.7656,218.5938 185.7656,216.8906 L185.7656,215.7969 C185.7656,214.0156 187.0156,212.7031 188.75,212.7031 C189.3281,212.7031 189.9375,212.8594 190.4063,213.1094 C190.8906,213.3906 191.0625,213.6094 191.1563,214.0156 C191.2188,214.4219 191.25,214.5469 191.3906,214.6719 C191.5313,214.8125 191.7656,214.9219 191.9844,214.9219 C192.25,214.9219 192.5156,214.7813 192.6875,214.5625 C192.7969,214.4063 192.8281,214.2188 192.8281,213.7969 L192.8281,212.375 C192.8281,211.9375 192.8125,211.8125 192.7188,211.6563 C192.5625,211.3906 192.2813,211.25 191.9844,211.25 C191.6875,211.25 191.4844,211.3438 191.2656,211.6563 L191.0938,211.5781 Z " fill="#000000"/><text fill="#000000" font-family="Verdana" font-size="12" lengthAdjust="spacing" textLength="61" x="202.75" y="220.0605">Université</text><line style="stroke:#A80036;stroke-width:1.5;" x1="174.75" x2="265.75" y1="231.9063" y2="231.9063"/><line style="stroke:#A80036;stroke-width:1.5;" x1="174.75" x2="265.75" y1="239.9063" y2="239.9063"/><!--MD5=[93dcfdb2a1ddb0d5d28e1d54c7b7b70f]
link Enseignant to EspaceCours--><path codeLine="37" d="M185.25,385.9343 C185.25,422.5063 185.25,478.9063 185.25,478.9063 C185.25,478.9063 195.453,478.9063 208.525,478.9063 " fill="none" id="Enseignant-EspaceCours" style="stroke:#A80036;stroke-width:1.0;"/><polygon fill="#000000" points="182.4642,429.323,183.1186,419.8349,177.4167,421.2624,182.4642,429.323" style="stroke:#000000;stroke-width:1.0;"/><text fill="#000000" font-family="Verdana" font-size="13" lengthAdjust="spacing" textLength="58" x="190.25" y="428.9731">enseigne</text><text fill="#000000" font-family="Verdana" font-size="13" lengthAdjust="spacing" textLength="8" x="183.025" y="405.8783">1</text><text fill="#000000" font-family="Verdana" font-size="13" lengthAdjust="spacing" textLength="23" x="177.7521" y="474.1886">1..*</text><!--MD5=[e696a511ab66ff85cf29965a3cb732fe]
link Université to Enseignant--><path codeLine="38" d="M187.75,248.0253 C187.75,269.5282 187.75,301.1213 187.75,324.4763 " fill="none" id="Université-Enseignant" style="stroke:#A80036;stroke-width:1.0;"/><polygon fill="#000000" points="173.25,291.4727,176.1889,282.4276,170.3111,282.4276,173.25,291.4727" style="stroke:#000000;stroke-width:1.0;"/><text fill="#000000" font-family="Verdana" font-size="13" lengthAdjust="spacing" textLength="51" x="182.25" y="290.9731">emploie</text><text fill="#000000" font-family="Verdana" font-size="13" lengthAdjust="spacing" textLength="8" x="170.8531" y="267.8155">1</text><text fill="#000000" font-family="Verdana" font-size="13" lengthAdjust="spacing" textLength="7" x="187.1438" y="313.6508">*</text><!--MD5=[5f5ea864aa0d8e50d66671c98d7d892f]
link Cours to EspaceCours--><path codeLine="39" d="M308.417,122.9122 C308.417,203.9583 308.417,395.2803 308.417,462.7993 " fill="none" id="Cours-EspaceCours" style="stroke:#A80036;stroke-width:1.0;"/><polygon fill="#000000" points="397.25,291.4727,400.1889,282.4276,394.3111,282.4276,397.25,291.4727" style="stroke:#000000;stroke-width:1.0;"/><text fill="#000000" font-family="Verdana" font-size="13" lengthAdjust="spacing" textLength="36" x="406.25" y="290.9731">décrit</text><text fill="#000000" font-family="Verdana" font-size="13" lengthAdjust="spacing" textLength="8" x="296.6645" y="142.6736">1</text><text fill="#000000" font-family="Verdana" font-size="13" lengthAdjust="spacing" textLength="8" x="310.7098" y="451.7839">1</text><!--MD5=[aa5134b4f2129c424b12133225881902]
link Cours to Université--><path codeLine="40" d="M297.083,123.2513 C297.083,164.1203 297.083,223.9063 297.083,223.9063 C297.083,223.9063 283.154,223.9063 267.158,223.9063 " fill="none" id="Cours-Université" style="stroke:#A80036;stroke-width:1.0;"/><polygon fill="#000000" points="267.6749,156.68,262.2802,164.5125,267.9143,166.1875,267.6749,156.68" style="stroke:#000000;stroke-width:1.0;"/><text fill="#000000" font-family="Verdana" font-size="13" lengthAdjust="spacing" textLength="52" x="275.25" y="165.9731">contient</text><text fill="#000000" font-family="Verdana" font-size="13" lengthAdjust="spacing" textLength="7" x="284.8767" y="142.507">*</text><text fill="#000000" font-family="Verdana" font-size="13" lengthAdjust="spacing" textLength="8" x="274.6351" y="219.8813">1</text><!--MD5=[a719c3afe478145ef5bffac787162784]
link EspaceCours to Etudiant--><path codeLine="41" d="M208.571,494.9063 C151.718,494.9063 71.75,494.9063 71.75,494.9063 C71.75,494.9063 71.75,574.3673 71.75,619.6843 " fill="none" id="EspaceCours-Etudiant" style="stroke:#A80036;stroke-width:1.0;"/><polygon fill="#000000" points="119.5556,552.8419,128.2192,548.9184,124.2585,544.5754,119.5556,552.8419" style="stroke:#000000;stroke-width:1.0;"/><text fill="#000000" font-family="Verdana" font-size="13" lengthAdjust="spacing" textLength="84" x="132.25" y="553.9731">est_suivi_par</text><text fill="#000000" font-family="Verdana" font-size="13" lengthAdjust="spacing" textLength="8" x="192.9246" y="492.0457">1</text><text fill="#000000" font-family="Verdana" font-size="13" lengthAdjust="spacing" textLength="7" x="66.8125" y="608.9017">*</text><!--MD5=[e54c705208b6e33fdf6605af36c39147]
link Question to Tag--><path codeLine="42" d="M264.25,713.2253 C264.25,739.3303 264.25,768.4362 264.25,789.7221 " fill="none" id="Question-Tag" style="stroke:#A80036;stroke-width:1.0;"/><polygon fill="#000000" points="269.25,746.4727,266.3111,755.5177,272.1889,755.5177,269.25,746.4727" style="stroke:#000000;stroke-width:1.0;"/><text fill="#000000" font-family="Verdana" font-size="13" lengthAdjust="spacing" textLength="67" x="278.25" y="755.9731">catégorise</text><text fill="#000000" font-family="Verdana" font-size="13" lengthAdjust="spacing" textLength="8" x="255.8125" y="732.9999">1</text><text fill="#000000" font-family="Verdana" font-size="13" lengthAdjust="spacing" textLength="7" x="256.5281" y="778.9473">*</text><!--MD5=[9f636a31fd47673c009bae167edd40f2]
link Université to EspaceCours--><path codeLine="43" d="M237.75,248.1772 C237.75,298.2803 237.75,412.6413 237.75,462.6943 " fill="none" id="Université-EspaceCours" style="stroke:#A80036;stroke-width:1.0;"/><polygon fill="#000000" points="277.25,360.4727,280.1889,351.4276,274.3111,351.4276,277.25,360.4727" style="stroke:#000000;stroke-width:1.0;"/><text fill="#000000" font-family="Verdana" font-size="13" lengthAdjust="spacing" textLength="52" x="286.25" y="359.9731">contient</text><text fill="#000000" font-family="Verdana" font-size="13" lengthAdjust="spacing" textLength="8" x="233.0406" y="268.0045">1</text><text fill="#000000" font-family="Verdana" font-size="13" lengthAdjust="spacing" textLength="7" x="223.0625" y="451.652">*</text><!--MD5=[5217f6319e60196188b9b46941152dbc]
link Université to Etudiant--><path codeLine="44" d="M173.68,223.9063 C121.687,223.9063 44.75,223.9063 44.75,223.9063 C44.75,223.9063 44.75,521.9413 44.75,619.7333 " fill="none" id="Université-Etudiant" style="stroke:#A80036;stroke-width:1.0;"/><polygon fill="#000000" points="51.7985,419.7185,46.2028,427.4086,51.7916,429.2291,51.7985,419.7185" style="stroke:#000000;stroke-width:1.0;"/><text fill="#000000" font-family="Verdana" font-size="13" lengthAdjust="spacing" textLength="76" x="59.25" y="428.9731">est-inscrit-à</text><text fill="#000000" font-family="Verdana" font-size="13" lengthAdjust="spacing" textLength="8" x="157.6204" y="219.7884">1</text><text fill="#000000" font-family="Verdana" font-size="13" lengthAdjust="spacing" textLength="7" x="34.2438" y="608.9608">*</text><!--MD5=[ca285e123a8c443ea1cb9ea22ca9c0f7]
link EspaceCours to Question--><path codeLine="45" d="M264.25,511.0313 C264.25,531.1953 264.25,560.8763 264.25,587.6713 " fill="none" id="EspaceCours-Question" style="stroke:#A80036;stroke-width:1.0;"/><polygon fill="#000000" points="269.25,554.4727,272.1889,545.4276,266.3111,545.4276,269.25,554.4727" style="stroke:#000000;stroke-width:1.0;"/><text fill="#000000" font-family="Verdana" font-size="13" lengthAdjust="spacing" textLength="52" x="278.25" y="553.9731">contient</text><text fill="#000000" font-family="Verdana" font-size="13" lengthAdjust="spacing" textLength="8" x="255.275" y="530.8229">1</text><text fill="#000000" font-family="Verdana" font-size="13" lengthAdjust="spacing" textLength="7" x="256.8453" y="576.6348">*</text><!--MD5=[a2274432d12e96a0eca49e9a693a8035]
@startuml
skinparam defaultfontname Verdana
skinparam RoundCorner 20
skinparam linetype ortho

title Modèle du domaine (adapté au Cas d'utilisation \n ajouter et récupérer )

class Cours {
    id : int
    nom : String
}


class Enseignant {
    token : String
}

class Etudiant {
    nom : String
}

class Tag{
    nom : String
}

class Question{
    id : int
    nom : String
    texteQuestion : String
    reponse : boolean
    texteBonneReponse : String
    texteMauvaiseReponse : String
}

class EspaceCours{
}

Enseignant "1"- -"1..*" EspaceCours : enseigne >
Université "1"- -"*" Enseignant : emploie >
Cours "1"- - "1" EspaceCours : décrit >
Université "1"-up-"*" Cours : contient >
EspaceCours "1"- - "*"Etudiant : est_suivi_par >
Question "1" - - "*"Tag : < catégorise
Université "1"- -"*" EspaceCours : contient >
Université "1"-right-"*" Etudiant : est-inscrit-à <
Question "*"-up-"1" EspaceCours : contient <
@enduml

PlantUML version 1.2021.7(Sun May 23 12:40:07 UTC 2021)
(GPL source distribution)
Java Runtime: Java(TM) SE Runtime Environment
JVM: Java HotSpot(TM) 64-Bit Server VM
Default Encoding: UTF-8
Language: en
Country: US
--></g></svg>