<?xml version="1.0" encoding="UTF-8" standalone="no"?><svg xmlns="http://www.w3.org/2000/svg" xmlns:xlink="http://www.w3.org/1999/xlink" contentScriptType="application/ecmascript" contentStyleType="text/css" height="283px" preserveAspectRatio="none" style="width:1188px;height:283px;background:#FFFFFF;" version="1.1" viewBox="0 0 1188 283" width="1188px" zoomAndPan="magnify"><defs/><g><text fill="#000000" font-family="Verdana" font-size="18" lengthAdjust="spacing" textLength="272" x="457.75" y="28.708">RDCU pour traitementErreur</text><line style="stroke:#A80036;stroke-width:1.0;stroke-dasharray:5.0,5.0;" x1="264" x2="264" y1="71.25" y2="276.0469"/><line style="stroke:#A80036;stroke-width:1.0;stroke-dasharray:5.0,5.0;" x1="559.5" x2="559.5" y1="71.25" y2="276.0469"/><line style="stroke:#A80036;stroke-width:1.0;stroke-dasharray:5.0,5.0;" x1="851.5" x2="851.5" y1="71.25" y2="276.0469"/><line style="stroke:#A80036;stroke-width:1.0;stroke-dasharray:5.0,5.0;" x1="977.5" x2="977.5" y1="71.25" y2="276.0469"/><line style="stroke:#A80036;stroke-width:1.0;stroke-dasharray:5.0,5.0;" x1="1135.5" x2="1135.5" y1="71.25" y2="276.0469"/><rect fill="#FEFECE" height="30.2969" style="stroke:#A80036;stroke-width:1.5;" width="102" x="213" y="39.9531"/><text fill="#000000" font-family="Verdana" font-size="14" lengthAdjust="spacing" textLength="88" x="220" y="59.9482">:SgaRouteur</text><rect fill="#FEFECE" height="30.2969" style="stroke:#A80036;stroke-width:1.5;" width="151" x="484.5" y="39.9531"/><text fill="#000000" font-family="Verdana" font-size="14" lengthAdjust="spacing" textLength="137" x="491.5" y="59.9482">:GestionnaireCours</text><rect fill="#FEFECE" height="30.2969" style="stroke:#A80036;stroke-width:1.5;" width="91" x="806.5" y="39.9531"/><text fill="#000000" font-family="Verdana" font-size="14" lengthAdjust="spacing" textLength="77" x="813.5" y="59.9482">:Universite</text><rect fill="#FEFECE" height="30.2969" style="stroke:#A80036;stroke-width:1.5;" width="141" x="907.5" y="39.9531"/><text fill="#000000" font-family="Verdana" font-size="14" lengthAdjust="spacing" textLength="127" x="914.5" y="59.9482">:Error.Middleware</text><rect fill="#FEFECE" height="30.2969" style="stroke:#A80036;stroke-width:1.5;" width="93" x="1089.5" y="39.9531"/><text fill="#000000" font-family="Verdana" font-size="14" lengthAdjust="spacing" textLength="79" x="1096.5" y="59.9482">:LogHelper</text><polygon fill="#A80036" points="548,101.3828,558,105.3828,548,109.3828" style="stroke:#A80036;stroke-width:1.0;"/><line style="stroke:#A80036;stroke-width:1.0;" x1="264" x2="554" y1="105.3828" y2="105.3828"/><text fill="#000000" font-family="Verdana" font-size="13" lengthAdjust="spacing" textLength="272" x="271" y="100.3169">recupererTousEspaceCours(req, res, next)</text><path d="M153,86.25 L153,111.25 L259,111.25 L259,96.25 L249,86.25 L153,86.25 " fill="#FBFB77" style="stroke:#A80036;stroke-width:1.0;"/><path d="M249,86.25 L249,96.25 L259,96.25 L249,86.25 " fill="#FBFB77" style="stroke:#A80036;stroke-width:1.0;"/><text fill="#000000" font-family="Verdana" font-size="13" lengthAdjust="spacing" textLength="85" x="159" y="103.3169">Selon expert.</text><polygon fill="#A80036" points="840,136.5156,850,140.5156,840,144.5156" style="stroke:#A80036;stroke-width:1.0;"/><line style="stroke:#A80036;stroke-width:1.0;" x1="560" x2="846" y1="140.5156" y2="140.5156"/><text fill="#000000" font-family="Verdana" font-size="13" lengthAdjust="spacing" textLength="268" x="567" y="135.4497">recupererTousEspaceCours(idEnseignant)</text><path d="M449,121.3828 L449,146.3828 L555,146.3828 L555,131.3828 L545,121.3828 L449,121.3828 " fill="#FBFB77" style="stroke:#A80036;stroke-width:1.0;"/><path d="M545,121.3828 L545,131.3828 L555,131.3828 L545,121.3828 " fill="#FBFB77" style="stroke:#A80036;stroke-width:1.0;"/><text fill="#000000" font-family="Verdana" font-size="13" lengthAdjust="spacing" textLength="85" x="455" y="138.4497">Selon expert.</text><polygon fill="#A80036" points="275,183.7813,265,187.7813,275,191.7813" style="stroke:#A80036;stroke-width:1.0;"/><line style="stroke:#A80036;stroke-width:1.0;stroke-dasharray:2.0,2.0;" x1="269" x2="851" y1="187.7813" y2="187.7813"/><text fill="#000000" font-family="Verdana" font-size="13" lengthAdjust="spacing" textLength="103" x="281" y="167.5825">&lt;&lt;exception&gt;&gt;</text><text fill="#000000" font-family="Verdana" font-size="13" lengthAdjust="spacing" textLength="68" x="281" y="182.7153">HttpError()</text><path d="M5,161.082 L5,186.082 L259,186.082 L259,171.082 L249,161.082 L5,161.082 " fill="#FBFB77" style="stroke:#A80036;stroke-width:1.0;"/><path d="M249,161.082 L249,171.082 L259,171.082 L249,161.082 " fill="#FBFB77" style="stroke:#A80036;stroke-width:1.0;"/><text fill="#000000" font-family="Verdana" font-size="13" lengthAdjust="spacing" textLength="233" x="11" y="178.1489">Peut être n'importe quelle exception</text><polygon fill="#A80036" points="966,215.9141,976,219.9141,966,223.9141" style="stroke:#A80036;stroke-width:1.0;"/><line style="stroke:#A80036;stroke-width:1.0;" x1="264" x2="972" y1="219.9141" y2="219.9141"/><text fill="#000000" font-family="Verdana" font-size="13" lengthAdjust="spacing" textLength="238" x="271" y="214.8481">errorMiddleware(error, req, res, next)</text><path d="M153,200.7813 L153,225.7813 L259,225.7813 L259,210.7813 L249,200.7813 L153,200.7813 " fill="#FBFB77" style="stroke:#A80036;stroke-width:1.0;"/><path d="M249,200.7813 L249,210.7813 L259,210.7813 L249,200.7813 " fill="#FBFB77" style="stroke:#A80036;stroke-width:1.0;"/><text fill="#000000" font-family="Verdana" font-size="13" lengthAdjust="spacing" textLength="85" x="159" y="217.8481">Selon expert.</text><polygon fill="#A80036" points="1124,251.0469,1134,255.0469,1124,259.0469" style="stroke:#A80036;stroke-width:1.0;"/><line style="stroke:#A80036;stroke-width:1.0;" x1="978" x2="1130" y1="255.0469" y2="255.0469"/><text fill="#000000" font-family="Verdana" font-size="13" lengthAdjust="spacing" textLength="134" x="985" y="249.981">logErreur(error.code)</text><path d="M867,235.9141 L867,260.9141 L973,260.9141 L973,245.9141 L963,235.9141 L867,235.9141 " fill="#FBFB77" style="stroke:#A80036;stroke-width:1.0;"/><path d="M963,235.9141 L963,245.9141 L973,245.9141 L963,235.9141 " fill="#FBFB77" style="stroke:#A80036;stroke-width:1.0;"/><text fill="#000000" font-family="Verdana" font-size="13" lengthAdjust="spacing" textLength="85" x="873" y="252.981">Selon expert.</text><!--MD5=[b008b5667ed2b41f84cdf55271dbc702]
@startuml
skinparam style strictuml
skinparam defaultfontname Verdana
title RDCU pour traitementErreur
participant ":SgaRouteur" as routeur
participant ":GestionnaireCours" as gestionnaire
participant ":Universite" as universite
participant ":Error.Middleware" as erreur
participant ":LogHelper" as helper

routeur -> gestionnaire : recupererTousEspaceCours(req, res, next)
note left : Selon expert.
gestionnaire -> universite : recupererTousEspaceCours(idEnseignant)
note left : Selon expert.
universite - -> routeur : <<exception>>\nHttpError()
note left : Peut être n'importe quelle exception
routeur -> erreur : errorMiddleware(error, req, res, next)
note left : Selon expert.
erreur -> helper : logErreur(error.code)
note left : Selon expert.
@enduml

PlantUML version 1.2021.9beta2(Unknown compile time)
(GPL source distribution)
Java Runtime: Java(TM) SE Runtime Environment
JVM: Java HotSpot(TM) 64-Bit Server VM
Default Encoding: UTF-8
Language: en
Country: US
--></g></svg>