<?xml version="1.0" encoding="UTF-8" standalone="no"?><svg xmlns="http://www.w3.org/2000/svg" xmlns:xlink="http://www.w3.org/1999/xlink" contentScriptType="application/ecmascript" contentStyleType="text/css" height="475px" preserveAspectRatio="none" style="width:1486px;height:475px;background:#FFFFFF;" version="1.1" viewBox="0 0 1486 475" width="1486px" zoomAndPan="magnify"><defs/><g><text fill="#000000" font-family="Verdana" font-size="18" lengthAdjust="spacing" textLength="240" x="625" y="28.708">RDCU pour ajouter devoir</text><rect fill="#FFFFFF" height="327.8594" style="stroke:#000000;stroke-width:2.0;" width="1470" x="10" y="88.25"/><line style="stroke:#A80036;stroke-width:1.0;stroke-dasharray:5.0,5.0;" x1="381" x2="381" y1="71.25" y2="468.2422"/><line style="stroke:#A80036;stroke-width:1.0;stroke-dasharray:5.0,5.0;" x1="771.5" x2="771.5" y1="71.25" y2="468.2422"/><line style="stroke:#A80036;stroke-width:1.0;stroke-dasharray:5.0,5.0;" x1="931.5" x2="931.5" y1="71.25" y2="468.2422"/><line style="stroke:#A80036;stroke-width:1.0;stroke-dasharray:5.0,5.0;" x1="1275" x2="1275" y1="308.0117" y2="468.2422"/><line style="stroke:#A80036;stroke-width:1.0;stroke-dasharray:5.0,5.0;" x1="1398" x2="1398" y1="71.25" y2="468.2422"/><rect fill="#FEFECE" height="30.2969" style="stroke:#A80036;stroke-width:1.5;" width="158" x="302" y="39.9531"/><text fill="#000000" font-family="Verdana" font-size="14" lengthAdjust="spacing" textLength="144" x="309" y="59.9482">:GestionnaireDevoir</text><rect fill="#FEFECE" height="30.2969" style="stroke:#A80036;stroke-width:1.5;" width="91" x="726.5" y="39.9531"/><text fill="#000000" font-family="Verdana" font-size="14" lengthAdjust="spacing" textLength="77" x="733.5" y="59.9482">:Universite</text><rect fill="#FEFECE" height="30.2969" style="stroke:#A80036;stroke-width:1.5;" width="209" x="827.5" y="39.9531"/><text fill="#000000" font-family="Verdana" font-size="14" lengthAdjust="spacing" textLength="195" x="834.5" y="59.9482">espaceCours : EspaceCours</text><rect fill="#FEFECE" height="30.2969" style="stroke:#A80036;stroke-width:1.5;" width="143" x="1327" y="39.9531"/><text fill="#000000" font-family="Verdana" font-size="14" lengthAdjust="spacing" textLength="129" x="1334" y="59.9482">devoirs : Devoirs[]</text><path d="M10,88.25 L88,88.25 L88,95.25 L78,105.25 L10,105.25 L10,88.25 " fill="#EEEEEE" style="stroke:#000000;stroke-width:1.0;"/><rect fill="none" height="327.8594" style="stroke:#000000;stroke-width:2.0;" width="1470" x="10" y="88.25"/><text fill="#000000" font-family="Verdana" font-size="13" font-weight="bold" lengthAdjust="spacing" textLength="33" x="25" y="101.3169">loop</text><a href="!terminerDevoir" target="_top" title="!terminerDevoir" xlink:actuate="onRequest" xlink:href="!terminerDevoir" xlink:show="new" xlink:title="!terminerDevoir" xlink:type="simple"><text fill="#0000FF" font-family="Verdana" font-size="11" font-weight="bold" lengthAdjust="spacing" text-decoration="underline" textLength="108" x="103" y="100.4604">!terminerDevoir</text></a><polygon fill="#A80036" points="369,152.7813,379,156.7813,369,160.7813" style="stroke:#A80036;stroke-width:1.0;"/><line style="stroke:#A80036;stroke-width:1.0;" x1="0" x2="375" y1="156.7813" y2="156.7813"/><text fill="#000000" font-family="Verdana" font-size="13" lengthAdjust="spacing" textLength="267" x="7" y="121.4497">devoir = ajouterDevoir(idEspaceCours, id,</text><text fill="#000000" font-family="Verdana" font-size="13" lengthAdjust="spacing" textLength="209" x="7" y="136.5825">nom, description, noteMaximale,</text><text fill="#000000" font-family="Verdana" font-size="13" lengthAdjust="spacing" textLength="176" x="7" y="151.7153">dateDebut, dateFin, visible)</text><path d="M386,114.9492 L386,154.9492 L539,154.9492 L539,124.9492 L529,114.9492 L386,114.9492 " fill="#FBFB77" style="stroke:#A80036;stroke-width:1.0;"/><path d="M529,114.9492 L529,124.9492 L539,124.9492 L529,114.9492 " fill="#FBFB77" style="stroke:#A80036;stroke-width:1.0;"/><text fill="#000000" font-family="Verdana" font-size="13" lengthAdjust="spacing" textLength="108" x="392" y="132.0161">Selon contrôleur,</text><text fill="#000000" font-family="Verdana" font-size="13" lengthAdjust="spacing" textLength="132" x="392" y="147.1489">contôleur de session</text><polygon fill="#A80036" points="760,192.4805,770,196.4805,760,200.4805" style="stroke:#A80036;stroke-width:1.0;"/><line style="stroke:#A80036;stroke-width:1.0;" x1="381" x2="766" y1="196.4805" y2="196.4805"/><text fill="#000000" font-family="Verdana" font-size="13" lengthAdjust="spacing" textLength="367" x="388" y="191.4146">espaceCours = recupererUnEspaceCours(idEspaceCours)</text><path d="M75,169.7813 L75,209.7813 L376,209.7813 L376,179.7813 L366,169.7813 L75,169.7813 " fill="#FBFB77" style="stroke:#A80036;stroke-width:1.0;"/><path d="M366,169.7813 L366,179.7813 L376,179.7813 L366,169.7813 " fill="#FBFB77" style="stroke:#A80036;stroke-width:1.0;"/><text fill="#000000" font-family="Verdana" font-size="13" lengthAdjust="spacing" textLength="231" x="81" y="186.8481">Selon expert, universite a toutes les</text><text fill="#000000" font-family="Verdana" font-size="13" lengthAdjust="spacing" textLength="280" x="81" y="201.981">informations pour recupererUnEspaceCours</text><polygon fill="#A80036" points="920,250.3125,930,254.3125,920,258.3125" style="stroke:#A80036;stroke-width:1.0;"/><line style="stroke:#A80036;stroke-width:1.0;" x1="381" x2="926" y1="254.3125" y2="254.3125"/><text fill="#000000" font-family="Verdana" font-size="13" lengthAdjust="spacing" textLength="320" x="388" y="234.1138">ajouterDevoir(id, nom, description, noteMaximale,</text><text fill="#000000" font-family="Verdana" font-size="13" lengthAdjust="spacing" textLength="172" x="388" y="249.2466">dateDebut, dateFin,visible)</text><path d="M20,220.0469 L20,260.0469 L376,260.0469 L376,230.0469 L366,220.0469 L20,220.0469 " fill="#FBFB77" style="stroke:#A80036;stroke-width:1.0;"/><path d="M366,220.0469 L366,230.0469 L376,230.0469 L366,220.0469 " fill="#FBFB77" style="stroke:#A80036;stroke-width:1.0;"/><text fill="#000000" font-family="Verdana" font-size="13" lengthAdjust="spacing" textLength="335" x="26" y="237.1138">Selon forte cohésion, espaceCours a la reponsabilité</text><text fill="#000000" font-family="Verdana" font-size="13" lengthAdjust="spacing" textLength="178" x="26" y="252.2466">de gérer l'ajout des devoirs.</text><polygon fill="#A80036" points="1222,297.5781,1232,301.5781,1222,305.5781" style="stroke:#A80036;stroke-width:1.0;"/><line style="stroke:#A80036;stroke-width:1.0;stroke-dasharray:2.0,2.0;" x1="932" x2="1228" y1="301.5781" y2="301.5781"/><text fill="#000000" font-family="Verdana" font-size="13" lengthAdjust="spacing" textLength="274" x="939" y="281.3794">create(id, nom, description, noteMaximale,</text><text fill="#000000" font-family="Verdana" font-size="13" lengthAdjust="spacing" textLength="172" x="939" y="296.5122">dateDebut, dateFin,visible)</text><rect fill="#FEFECE" height="30.2969" style="stroke:#A80036;stroke-width:1.5;" width="83" x="1234" y="278.8477"/><text fill="#000000" font-family="Verdana" font-size="14" lengthAdjust="spacing" textLength="69" x="1241" y="298.8428">d : Devoir</text><path d="M722,270.3125 L722,325.3125 L927,325.3125 L927,280.3125 L917,270.3125 L722,270.3125 " fill="#FBFB77" style="stroke:#A80036;stroke-width:1.0;"/><path d="M917,270.3125 L917,280.3125 L927,280.3125 L917,270.3125 " fill="#FBFB77" style="stroke:#A80036;stroke-width:1.0;"/><text fill="#000000" font-family="Verdana" font-size="13" lengthAdjust="spacing" textLength="184" x="728" y="287.3794">Selon créateur, espaceCours</text><text fill="#000000" font-family="Verdana" font-size="13" lengthAdjust="spacing" textLength="148" x="728" y="302.5122">contient les devoirs qui</text><text fill="#000000" font-family="Verdana" font-size="13" lengthAdjust="spacing" textLength="105" x="728" y="317.645">lui sont associés</text><polygon fill="#A80036" points="1386.5,358.4102,1396.5,362.4102,1386.5,366.4102" style="stroke:#A80036;stroke-width:1.0;"/><line style="stroke:#A80036;stroke-width:1.0;" x1="932" x2="1392.5" y1="362.4102" y2="362.4102"/><text fill="#000000" font-family="Verdana" font-size="13" lengthAdjust="spacing" textLength="49" x="939" y="357.3442">push(d)</text><path d="M670,335.7109 L670,375.7109 L927,375.7109 L927,345.7109 L917,335.7109 L670,335.7109 " fill="#FBFB77" style="stroke:#A80036;stroke-width:1.0;"/><path d="M917,335.7109 L917,345.7109 L927,345.7109 L917,335.7109 " fill="#FBFB77" style="stroke:#A80036;stroke-width:1.0;"/><text fill="#000000" font-family="Verdana" font-size="13" lengthAdjust="spacing" textLength="217" x="676" y="352.7778">Selon expert, devoirs est l'attribut</text><text fill="#000000" font-family="Verdana" font-size="13" lengthAdjust="spacing" textLength="236" x="676" y="367.9106">d'espaceCours qui stocke les devoirs</text><polygon fill="#A80036" points="920,401.1094,930,405.1094,920,409.1094" style="stroke:#A80036;stroke-width:1.0;"/><line style="stroke:#A80036;stroke-width:1.0;" x1="381" x2="926" y1="405.1094" y2="405.1094"/><text fill="#000000" font-family="Verdana" font-size="13" lengthAdjust="spacing" textLength="210" x="388" y="400.0435">devoir = recupererTousDevoirs()</text><path d="M274,385.9766 L274,410.9766 L376,410.9766 L376,395.9766 L366,385.9766 L274,385.9766 " fill="#FBFB77" style="stroke:#A80036;stroke-width:1.0;"/><path d="M366,385.9766 L366,395.9766 L376,395.9766 L366,385.9766 " fill="#FBFB77" style="stroke:#A80036;stroke-width:1.0;"/><text fill="#000000" font-family="Verdana" font-size="13" lengthAdjust="spacing" textLength="81" x="280" y="403.0435">Selon expert</text><polygon fill="#A80036" points="369,443.2422,379,447.2422,369,451.2422" style="stroke:#A80036;stroke-width:1.0;"/><line style="stroke:#A80036;stroke-width:1.0;" x1="0" x2="375" y1="447.2422" y2="447.2422"/><text fill="#000000" font-family="Verdana" font-size="13" lengthAdjust="spacing" textLength="153" x="7" y="442.1763">terminerAjouterDevoir()</text><path d="M386,428.1094 L386,453.1094 L572,453.1094 L572,438.1094 L562,428.1094 L386,428.1094 " fill="#FBFB77" style="stroke:#A80036;stroke-width:1.0;"/><path d="M562,428.1094 L562,438.1094 L572,438.1094 L562,428.1094 " fill="#FBFB77" style="stroke:#A80036;stroke-width:1.0;"/><text fill="#000000" font-family="Verdana" font-size="13" lengthAdjust="spacing" textLength="165" x="392" y="445.1763">Permet sortir de la boucle</text><!--MD5=[f6a571a7e944d48765523fef0e9320b8]
@startuml
skinparam style strictuml
skinparam defaultfontname Verdana
title RDCU pour ajouter devoir
participant ":GestionnaireDevoir" as gestionnaireDevoir
participant ":Universite" as universite
participant "espaceCours : EspaceCours" as cours
participant "d : Devoir" as devoir
participant "devoirs : Devoirs[]" as devoirs

loop [!terminerDevoir]
  ->gestionnaireDevoir : devoir = ajouterDevoir(idEspaceCours, id, \nnom, description, noteMaximale,\ndateDebut, dateFin, visible)
  note left : Selon contrôleur,\ncontôleur de session
  gestionnaireDevoir -> universite : espaceCours = recupererUnEspaceCours(idEspaceCours)
  note left : Selon expert, universite a toutes les\ninformations pour recupererUnEspaceCours
  gestionnaireDevoir -> cours : ajouterDevoir(id, nom, description, noteMaximale, \ndateDebut, dateFin,visible)
  note left : Selon forte cohésion, espaceCours a la reponsabilité\nde gérer l'ajout des devoirs.
  cours- ->devoir** : create(id, nom, description, noteMaximale, \ndateDebut, dateFin,visible)
  note left : Selon créateur, espaceCours\ncontient les devoirs qui\nlui sont associés
  cours->devoirs : push(d)
  note left : Selon expert, devoirs est l'attribut\nd'espaceCours qui stocke les devoirs
  gestionnaireDevoir -> cours : devoir = recupererTousDevoirs()
  note left : Selon expert
end
-> gestionnaireDevoir : terminerAjouterDevoir()
note left : Permet sortir de la boucle
@enduml

PlantUML version 1.2021.9beta2(Unknown compile time)
(GPL source distribution)
Java Runtime: Java(TM) SE Runtime Environment
JVM: Java HotSpot(TM) 64-Bit Server VM
Default Encoding: UTF-8
Language: en
Country: US
--></g></svg>