<?xml version="1.0" encoding="UTF-8" standalone="no"?><svg xmlns="http://www.w3.org/2000/svg" xmlns:xlink="http://www.w3.org/1999/xlink" contentScriptType="application/ecmascript" contentStyleType="text/css" height="249px" preserveAspectRatio="none" style="width:1079px;height:249px;background:#FFFFFF;" version="1.1" viewBox="0 0 1079 249" width="1079px" zoomAndPan="magnify"><defs/><g><text fill="#000000" font-family="Verdana" font-size="18" lengthAdjust="spacing" textLength="438" x="320.25" y="28.708">RDCU pour recupererTousDevoirsEspaceCours</text><line style="stroke:#A80036;stroke-width:1.0;stroke-dasharray:5.0,5.0;" x1="418" x2="418" y1="71.25" y2="242.0469"/><line style="stroke:#A80036;stroke-width:1.0;stroke-dasharray:5.0,5.0;" x1="808.5" x2="808.5" y1="71.25" y2="242.0469"/><line style="stroke:#A80036;stroke-width:1.0;stroke-dasharray:5.0,5.0;" x1="968.5" x2="968.5" y1="71.25" y2="242.0469"/><rect fill="#FEFECE" height="30.2969" style="stroke:#A80036;stroke-width:1.5;" width="158" x="339" y="39.9531"/><text fill="#000000" font-family="Verdana" font-size="14" lengthAdjust="spacing" textLength="144" x="346" y="59.9482">:GestionnaireDevoir</text><rect fill="#FEFECE" height="30.2969" style="stroke:#A80036;stroke-width:1.5;" width="91" x="763.5" y="39.9531"/><text fill="#000000" font-family="Verdana" font-size="14" lengthAdjust="spacing" textLength="77" x="770.5" y="59.9482">:Universite</text><rect fill="#FEFECE" height="30.2969" style="stroke:#A80036;stroke-width:1.5;" width="209" x="864.5" y="39.9531"/><text fill="#000000" font-family="Verdana" font-size="14" lengthAdjust="spacing" textLength="195" x="871.5" y="59.9482">espaceCours : EspaceCours</text><polygon fill="#A80036" points="406,108.9492,416,112.9492,406,116.9492" style="stroke:#A80036;stroke-width:1.0;"/><line style="stroke:#A80036;stroke-width:1.0;" x1="0" x2="412" y1="112.9492" y2="112.9492"/><text fill="#000000" font-family="Verdana" font-size="13" lengthAdjust="spacing" textLength="394" x="7" y="107.8833">devoirs = recupererTousDevoirsEspaceCours(idEspaceCours)</text><path d="M423,86.25 L423,126.25 L611,126.25 L611,96.25 L601,86.25 L423,86.25 " fill="#FBFB77" style="stroke:#A80036;stroke-width:1.0;"/><path d="M601,86.25 L601,96.25 L611,96.25 L601,86.25 " fill="#FBFB77" style="stroke:#A80036;stroke-width:1.0;"/><text fill="#000000" font-family="Verdana" font-size="13" lengthAdjust="spacing" textLength="105" x="429" y="103.3169">Selon Contôleur,</text><text fill="#000000" font-family="Verdana" font-size="13" lengthAdjust="spacing" textLength="167" x="429" y="118.4497">reçoit l'opération système</text><polygon fill="#A80036" points="797,159.2148,807,163.2148,797,167.2148" style="stroke:#A80036;stroke-width:1.0;"/><line style="stroke:#A80036;stroke-width:1.0;" x1="418" x2="803" y1="163.2148" y2="163.2148"/><text fill="#000000" font-family="Verdana" font-size="13" lengthAdjust="spacing" textLength="367" x="425" y="158.1489">espaceCours = recupererUnEspaceCours(idEspaceCours)</text><path d="M231,136.5156 L231,176.5156 L413,176.5156 L413,146.5156 L403,136.5156 L231,136.5156 " fill="#FBFB77" style="stroke:#A80036;stroke-width:1.0;"/><path d="M403,136.5156 L403,146.5156 L413,146.5156 L403,136.5156 " fill="#FBFB77" style="stroke:#A80036;stroke-width:1.0;"/><text fill="#000000" font-family="Verdana" font-size="13" lengthAdjust="spacing" textLength="152" x="237" y="153.5825">Selon expert, universite</text><text fill="#000000" font-family="Verdana" font-size="13" lengthAdjust="spacing" textLength="161" x="237" y="168.7153">contient les espaceCours</text><polygon fill="#A80036" points="957,209.4805,967,213.4805,957,217.4805" style="stroke:#A80036;stroke-width:1.0;"/><line style="stroke:#A80036;stroke-width:1.0;" x1="418" x2="963" y1="213.4805" y2="213.4805"/><text fill="#000000" font-family="Verdana" font-size="13" lengthAdjust="spacing" textLength="217" x="425" y="208.4146">devoirs = recupererTousDevoirs()</text><path d="M220,186.7813 L220,226.7813 L413,226.7813 L413,196.7813 L403,186.7813 L220,186.7813 " fill="#FBFB77" style="stroke:#A80036;stroke-width:1.0;"/><path d="M403,186.7813 L403,196.7813 L413,196.7813 L403,186.7813 " fill="#FBFB77" style="stroke:#A80036;stroke-width:1.0;"/><text fill="#000000" font-family="Verdana" font-size="13" lengthAdjust="spacing" textLength="172" x="226" y="203.8481">Selon expert, espaceCours</text><text fill="#000000" font-family="Verdana" font-size="13" lengthAdjust="spacing" textLength="125" x="226" y="218.981">contient les devoirs</text><!--MD5=[4785ea0fe0a3a0966569460db89f1ad9]
@startuml
skinparam style strictuml
skinparam defaultfontname Verdana
title RDCU pour recupererTousDevoirsEspaceCours
participant ":GestionnaireDevoir" as gestionnaireDevoir
participant ":Universite" as universite
participant "espaceCours : EspaceCours" as cours

-> gestionnaireDevoir : devoirs = recupererTousDevoirsEspaceCours(idEspaceCours)
note left : Selon Contôleur,\nreçoit l'opération système
gestionnaireDevoir -> universite : espaceCours = recupererUnEspaceCours(idEspaceCours)
note left : Selon expert, universite\ncontient les espaceCours
gestionnaireDevoir -> cours : devoirs = recupererTousDevoirs()
note left : Selon expert, espaceCours\ncontient les devoirs
@enduml

PlantUML version 1.2021.9beta2(Unknown compile time)
(GPL source distribution)
Java Runtime: Java(TM) SE Runtime Environment
JVM: Java HotSpot(TM) 64-Bit Server VM
Default Encoding: UTF-8
Language: en
Country: US
--></g></svg>