<?xml version="1.0" encoding="UTF-8" standalone="no"?><svg xmlns="http://www.w3.org/2000/svg" xmlns:xlink="http://www.w3.org/1999/xlink" contentScriptType="application/ecmascript" contentStyleType="text/css" height="249px" preserveAspectRatio="none" style="width:1137px;height:249px;background:#FFFFFF;" version="1.1" viewBox="0 0 1137 249" width="1137px" zoomAndPan="magnify"><defs/><g><text fill="#000000" font-family="Verdana" font-size="18" lengthAdjust="spacing" textLength="438" x="349.25" y="28.708">RDCU pour recupererTousDevoirsEspaceCours</text><line style="stroke:#A80036;stroke-width:1.0;stroke-dasharray:5.0,5.0;" x1="447" x2="447" y1="71.25" y2="242.0469"/><line style="stroke:#A80036;stroke-width:1.0;stroke-dasharray:5.0,5.0;" x1="866.5" x2="866.5" y1="71.25" y2="242.0469"/><line style="stroke:#A80036;stroke-width:1.0;stroke-dasharray:5.0,5.0;" x1="1026.5" x2="1026.5" y1="71.25" y2="242.0469"/><rect fill="#FEFECE" height="30.2969" style="stroke:#A80036;stroke-width:1.5;" width="158" x="368" y="39.9531"/><text fill="#000000" font-family="Verdana" font-size="14" lengthAdjust="spacing" textLength="144" x="375" y="59.9482">:GestionnaireDevoir</text><rect fill="#FEFECE" height="30.2969" style="stroke:#A80036;stroke-width:1.5;" width="91" x="821.5" y="39.9531"/><text fill="#000000" font-family="Verdana" font-size="14" lengthAdjust="spacing" textLength="77" x="828.5" y="59.9482">:Universite</text><rect fill="#FEFECE" height="30.2969" style="stroke:#A80036;stroke-width:1.5;" width="209" x="922.5" y="39.9531"/><text fill="#000000" font-family="Verdana" font-size="14" lengthAdjust="spacing" textLength="195" x="929.5" y="59.9482">espaceCours : EspaceCours</text><polygon fill="#A80036" points="435,108.9492,445,112.9492,435,116.9492" style="stroke:#A80036;stroke-width:1.0;"/><line style="stroke:#A80036;stroke-width:1.0;" x1="0" x2="441" y1="112.9492" y2="112.9492"/><text fill="#000000" font-family="Verdana" font-size="13" lengthAdjust="spacing" textLength="423" x="7" y="107.8833">devoirs = recupererTousDevoirsEspaceCours(idEspaceCours : int)</text><path d="M452,86.25 L452,126.25 L640,126.25 L640,96.25 L630,86.25 L452,86.25 " fill="#FBFB77" style="stroke:#A80036;stroke-width:1.0;"/><path d="M630,86.25 L630,96.25 L640,96.25 L630,86.25 " fill="#FBFB77" style="stroke:#A80036;stroke-width:1.0;"/><text fill="#000000" font-family="Verdana" font-size="13" lengthAdjust="spacing" textLength="105" x="458" y="103.3169">Selon Contôleur,</text><text fill="#000000" font-family="Verdana" font-size="13" lengthAdjust="spacing" textLength="167" x="458" y="118.4497">reçoit l'opération système</text><polygon fill="#A80036" points="855,159.2148,865,163.2148,855,167.2148" style="stroke:#A80036;stroke-width:1.0;"/><line style="stroke:#A80036;stroke-width:1.0;" x1="447" x2="861" y1="163.2148" y2="163.2148"/><text fill="#000000" font-family="Verdana" font-size="13" lengthAdjust="spacing" textLength="396" x="454" y="158.1489">espaceCours = recupererUnEspaceCours(idEspaceCours : int)</text><path d="M260,136.5156 L260,176.5156 L442,176.5156 L442,146.5156 L432,136.5156 L260,136.5156 " fill="#FBFB77" style="stroke:#A80036;stroke-width:1.0;"/><path d="M432,136.5156 L432,146.5156 L442,146.5156 L432,136.5156 " fill="#FBFB77" style="stroke:#A80036;stroke-width:1.0;"/><text fill="#000000" font-family="Verdana" font-size="13" lengthAdjust="spacing" textLength="152" x="266" y="153.5825">Selon expert, universite</text><text fill="#000000" font-family="Verdana" font-size="13" lengthAdjust="spacing" textLength="161" x="266" y="168.7153">contient les espaceCours</text><polygon fill="#A80036" points="1015,209.4805,1025,213.4805,1015,217.4805" style="stroke:#A80036;stroke-width:1.0;"/><line style="stroke:#A80036;stroke-width:1.0;" x1="447" x2="1021" y1="213.4805" y2="213.4805"/><text fill="#000000" font-family="Verdana" font-size="13" lengthAdjust="spacing" textLength="217" x="454" y="208.4146">devoirs = recupererTousDevoirs()</text><path d="M249,186.7813 L249,226.7813 L442,226.7813 L442,196.7813 L432,186.7813 L249,186.7813 " fill="#FBFB77" style="stroke:#A80036;stroke-width:1.0;"/><path d="M432,186.7813 L432,196.7813 L442,196.7813 L432,186.7813 " fill="#FBFB77" style="stroke:#A80036;stroke-width:1.0;"/><text fill="#000000" font-family="Verdana" font-size="13" lengthAdjust="spacing" textLength="172" x="255" y="203.8481">Selon expert, espaceCours</text><text fill="#000000" font-family="Verdana" font-size="13" lengthAdjust="spacing" textLength="125" x="255" y="218.981">contient les devoirs</text><!--MD5=[d4dae6c7c1ebdb33f87f7e4ea817c374]
@startuml
skinparam style strictuml
skinparam defaultfontname Verdana
title RDCU pour recupererTousDevoirsEspaceCours
participant ":GestionnaireDevoir" as gestionnaireDevoir
participant ":Universite" as universite
participant "espaceCours : EspaceCours" as cours

-> gestionnaireDevoir : devoirs = recupererTousDevoirsEspaceCours(idEspaceCours : int)
note left : Selon Contôleur,\nreçoit l'opération système
gestionnaireDevoir -> universite : espaceCours = recupererUnEspaceCours(idEspaceCours : int)
note left : Selon expert, universite\ncontient les espaceCours
gestionnaireDevoir -> cours : devoirs = recupererTousDevoirs()
note left : Selon expert, espaceCours\ncontient les devoirs
@enduml

PlantUML version 1.2021.9beta2(Unknown compile time)
(GPL source distribution)
Java Runtime: Java(TM) SE Runtime Environment
JVM: Java HotSpot(TM) 64-Bit Server VM
Default Encoding: UTF-8
Language: en
Country: US
--></g></svg>