<?xml version="1.0" encoding="UTF-8" standalone="no"?><svg xmlns="http://www.w3.org/2000/svg" xmlns:xlink="http://www.w3.org/1999/xlink" contentScriptType="application/ecmascript" contentStyleType="text/css" height="596px" preserveAspectRatio="none" style="width:1865px;height:596px;background:#FFFFFF;" version="1.1" viewBox="0 0 1865 596" width="1865px" zoomAndPan="magnify"><defs/><g><text fill="#000000" font-family="Verdana" font-size="18" lengthAdjust="spacing" textLength="344" x="762.75" y="28.708">RDCU pour ajouterReponseTentative</text><rect fill="#FFFFFF" height="137.6641" style="stroke:#000000;stroke-width:2.0;" width="1002.5" x="857" y="435.2422"/><line style="stroke:#A80036;stroke-width:1.0;stroke-dasharray:5.0,5.0;" x1="310.5" x2="310.5" y1="71.25" y2="589.9063"/><line style="stroke:#A80036;stroke-width:1.0;stroke-dasharray:5.0,5.0;" x1="702" x2="702" y1="71.25" y2="589.9063"/><line style="stroke:#A80036;stroke-width:1.0;stroke-dasharray:5.0,5.0;" x1="901" x2="901" y1="71.25" y2="589.9063"/><line style="stroke:#A80036;stroke-width:1.0;stroke-dasharray:5.0,5.0;" x1="1128" x2="1128" y1="71.25" y2="589.9063"/><line style="stroke:#A80036;stroke-width:1.0;stroke-dasharray:5.0,5.0;" x1="1348" x2="1348" y1="347.7109" y2="589.9063"/><line style="stroke:#A80036;stroke-width:1.0;stroke-dasharray:5.0,5.0;" x1="1601.5" x2="1601.5" y1="413.1094" y2="589.9063"/><line style="stroke:#A80036;stroke-width:1.0;stroke-dasharray:5.0,5.0;" x1="1772.5" x2="1772.5" y1="71.25" y2="589.9063"/><rect fill="#FEFECE" height="30.2969" style="stroke:#A80036;stroke-width:1.5;" width="215" x="203.5" y="39.9531"/><text fill="#000000" font-family="Verdana" font-size="14" lengthAdjust="spacing" textLength="201" x="210.5" y="59.9482">: GestionnaireQuestionnaire</text><rect fill="#FEFECE" height="30.2969" style="stroke:#A80036;stroke-width:1.5;" width="170" x="617" y="39.9531"/><text fill="#000000" font-family="Verdana" font-size="14" lengthAdjust="spacing" textLength="156" x="624" y="59.9482">universite : Universite</text><rect fill="#FEFECE" height="30.2969" style="stroke:#A80036;stroke-width:1.5;" width="209" x="797" y="39.9531"/><text fill="#000000" font-family="Verdana" font-size="14" lengthAdjust="spacing" textLength="195" x="804" y="59.9482">espaceCours : EspaceCours</text><rect fill="#FEFECE" height="30.2969" style="stroke:#A80036;stroke-width:1.5;" width="225" x="1016" y="39.9531"/><text fill="#000000" font-family="Verdana" font-size="14" lengthAdjust="spacing" textLength="211" x="1023" y="59.9482">questionnaire : Questionnaire</text><rect fill="#FEFECE" height="30.2969" style="stroke:#A80036;stroke-width:1.5;" width="153" x="1696.5" y="39.9531"/><text fill="#000000" font-family="Verdana" font-size="14" lengthAdjust="spacing" textLength="139" x="1703.5" y="59.9482">question : Question</text><polygon fill="#A80036" points="299,116.5156,309,120.5156,299,124.5156" style="stroke:#A80036;stroke-width:1.0;"/><line style="stroke:#A80036;stroke-width:1.0;" x1="0" x2="305" y1="120.5156" y2="120.5156"/><text fill="#000000" font-family="Verdana" font-size="13" lengthAdjust="spacing" textLength="265" x="7" y="100.3169">ajouterReponseTentative(idEspaceCours,</text><text fill="#000000" font-family="Verdana" font-size="13" lengthAdjust="spacing" textLength="241" x="7" y="115.4497">idQuestionnaire, idQuestion, reponse)</text><path d="M316,86.25 L316,126.25 L474,126.25 L474,96.25 L464,86.25 L316,86.25 " fill="#FBFB77" style="stroke:#A80036;stroke-width:1.0;"/><path d="M464,86.25 L464,96.25 L474,96.25 L464,86.25 " fill="#FBFB77" style="stroke:#A80036;stroke-width:1.0;"/><text fill="#000000" font-family="Verdana" font-size="13" lengthAdjust="spacing" textLength="108" x="322" y="103.3169">Selon contrôleur,</text><text fill="#000000" font-family="Verdana" font-size="13" lengthAdjust="spacing" textLength="137" x="322" y="118.4497">contrôleur de session</text><polygon fill="#A80036" points="690,159.2148,700,163.2148,690,167.2148" style="stroke:#A80036;stroke-width:1.0;"/><line style="stroke:#A80036;stroke-width:1.0;" x1="311" x2="696" y1="163.2148" y2="163.2148"/><text fill="#000000" font-family="Verdana" font-size="13" lengthAdjust="spacing" textLength="367" x="318" y="158.1489">espaceCours = recupererUnEspaceCours(idEspaceCours)</text><path d="M5,136.5156 L5,176.5156 L306,176.5156 L306,146.5156 L296,136.5156 L5,136.5156 " fill="#FBFB77" style="stroke:#A80036;stroke-width:1.0;"/><path d="M296,136.5156 L296,146.5156 L306,146.5156 L296,136.5156 " fill="#FBFB77" style="stroke:#A80036;stroke-width:1.0;"/><text fill="#000000" font-family="Verdana" font-size="13" lengthAdjust="spacing" textLength="231" x="11" y="153.5825">Selon expert, universite a toutes les</text><text fill="#000000" font-family="Verdana" font-size="13" lengthAdjust="spacing" textLength="280" x="11" y="168.7153">informations pour recupererUnEspaceCours</text><polygon fill="#A80036" points="889.5,217.0469,899.5,221.0469,889.5,225.0469" style="stroke:#A80036;stroke-width:1.0;"/><line style="stroke:#A80036;stroke-width:1.0;" x1="311" x2="895.5" y1="221.0469" y2="221.0469"/><text fill="#000000" font-family="Verdana" font-size="13" lengthAdjust="spacing" textLength="101" x="318" y="200.8481">questionnaire =</text><text fill="#000000" font-family="Verdana" font-size="13" lengthAdjust="spacing" textLength="278" x="318" y="215.981">recupererUnQuestionnaire(idQuestionnaire)</text><path d="M57,186.7813 L57,226.7813 L306,226.7813 L306,196.7813 L296,186.7813 L57,186.7813 " fill="#FBFB77" style="stroke:#A80036;stroke-width:1.0;"/><path d="M296,186.7813 L296,196.7813 L306,196.7813 L296,186.7813 " fill="#FBFB77" style="stroke:#A80036;stroke-width:1.0;"/><text fill="#000000" font-family="Verdana" font-size="13" lengthAdjust="spacing" textLength="228" x="63" y="203.8481">Selon expert, espaceCours contient</text><text fill="#000000" font-family="Verdana" font-size="13" lengthAdjust="spacing" textLength="152" x="63" y="218.981">tous ses questionnaires</text><polygon fill="#A80036" points="1116.5,267.3125,1126.5,271.3125,1116.5,275.3125" style="stroke:#A80036;stroke-width:1.0;"/><line style="stroke:#A80036;stroke-width:1.0;" x1="311" x2="1122.5" y1="271.3125" y2="271.3125"/><text fill="#000000" font-family="Verdana" font-size="13" lengthAdjust="spacing" textLength="300" x="318" y="266.2466">ajouterReponseTentative(idQuestion, reponse)</text><path d="M90,237.0469 L90,292.0469 L306,292.0469 L306,247.0469 L296,237.0469 L90,237.0469 " fill="#FBFB77" style="stroke:#A80036;stroke-width:1.0;"/><path d="M296,237.0469 L296,247.0469 L306,247.0469 L296,237.0469 " fill="#FBFB77" style="stroke:#A80036;stroke-width:1.0;"/><text fill="#000000" font-family="Verdana" font-size="13" lengthAdjust="spacing" textLength="178" x="96" y="254.1138">Selon expert, Quesitonnaire</text><text fill="#000000" font-family="Verdana" font-size="13" lengthAdjust="spacing" textLength="159" x="96" y="269.2466">contient les informations</text><text fill="#000000" font-family="Verdana" font-size="13" lengthAdjust="spacing" textLength="195" x="96" y="284.3794">pour ajouterReponseTentative</text><polygon fill="#A80036" points="1254,314.5781,1264,318.5781,1254,322.5781" style="stroke:#A80036;stroke-width:1.0;"/><line style="stroke:#A80036;stroke-width:1.0;stroke-dasharray:2.0,2.0;" x1="1128.5" x2="1260" y1="318.5781" y2="318.5781"/><text fill="#000000" font-family="Verdana" font-size="13" lengthAdjust="spacing" textLength="113" x="1135.5" y="313.5122">create(questions)</text><rect fill="#FEFECE" height="30.2969" style="stroke:#A80036;stroke-width:1.5;" width="165" x="1266" y="317.0625"/><text fill="#000000" font-family="Verdana" font-size="14" lengthAdjust="spacing" textLength="151" x="1273" y="337.0576">tentative : Tentative</text><path d="M865,302.4453 L865,372.4453 L1123,372.4453 L1123,312.4453 L1113,302.4453 L865,302.4453 " fill="#FBFB77" style="stroke:#A80036;stroke-width:1.0;"/><path d="M1113,302.4453 L1113,312.4453 L1123,312.4453 L1113,302.4453 " fill="#FBFB77" style="stroke:#A80036;stroke-width:1.0;"/><text fill="#000000" font-family="Verdana" font-size="13" lengthAdjust="spacing" textLength="237" x="871" y="319.5122">Selon createur, gestionnaireQuestion</text><text fill="#000000" font-family="Verdana" font-size="13" lengthAdjust="spacing" textLength="117" x="875" y="334.645">contient Tentative</text><text fill="#000000" font-family="Verdana" font-size="13" lengthAdjust="spacing" textLength="232" x="871" y="349.7778">questions est le tableau de question</text><text fill="#000000" font-family="Verdana" font-size="13" lengthAdjust="spacing" textLength="224" x="871" y="364.9106">du questionnaire stocké en attribut</text><polygon fill="#A80036" points="1504.5,395.1094,1514.5,399.1094,1504.5,403.1094" style="stroke:#A80036;stroke-width:1.0;"/><line style="stroke:#A80036;stroke-width:1.0;stroke-dasharray:2.0,2.0;" x1="1348.5" x2="1510.5" y1="399.1094" y2="399.1094"/><text fill="#000000" font-family="Verdana" font-size="13" lengthAdjust="spacing" textLength="113" x="1355.5" y="394.0435">create(questions)</text><rect fill="#FEFECE" height="30.2969" style="stroke:#A80036;stroke-width:1.5;" width="170" x="1516.5" y="382.4609"/><text fill="#000000" font-family="Verdana" font-size="14" lengthAdjust="spacing" textLength="156" x="1523.5" y="402.4561">questions : Question[]</text><path d="M1160,382.9766 L1160,422.9766 L1343,422.9766 L1343,392.9766 L1333,382.9766 L1160,382.9766 " fill="#FBFB77" style="stroke:#A80036;stroke-width:1.0;"/><path d="M1333,382.9766 L1333,392.9766 L1343,392.9766 L1333,382.9766 " fill="#FBFB77" style="stroke:#A80036;stroke-width:1.0;"/><text fill="#000000" font-family="Verdana" font-size="13" lengthAdjust="spacing" textLength="162" x="1166" y="400.0435">Selon createur, Tentative</text><text fill="#000000" font-family="Verdana" font-size="13" lengthAdjust="spacing" textLength="140" x="1166" y="415.1763">contient les questions</text><path d="M857,435.2422 L935,435.2422 L935,442.2422 L925,452.2422 L857,452.2422 L857,435.2422 " fill="#EEEEEE" style="stroke:#000000;stroke-width:1.0;"/><rect fill="none" height="137.6641" style="stroke:#000000;stroke-width:2.0;" width="1002.5" x="857" y="435.2422"/><text fill="#000000" font-family="Verdana" font-size="13" font-weight="bold" lengthAdjust="spacing" textLength="33" x="872" y="448.3091">loop</text><text fill="#000000" font-family="Verdana" font-size="11" font-weight="bold" lengthAdjust="spacing" textLength="248" x="950" y="447.4526">[!terminerAjouterReponseTentative]</text><polygon fill="#A80036" points="1336.5,480.0742,1346.5,484.0742,1336.5,488.0742" style="stroke:#A80036;stroke-width:1.0;"/><line style="stroke:#A80036;stroke-width:1.0;" x1="1128.5" x2="1342.5" y1="484.0742" y2="484.0742"/><text fill="#000000" font-family="Verdana" font-size="13" lengthAdjust="spacing" textLength="196" x="1135.5" y="479.0083">repondre(idQuestion, reponse)</text><path d="M867,457.375 L867,497.375 L1123,497.375 L1123,467.375 L1113,457.375 L867,457.375 " fill="#FBFB77" style="stroke:#A80036;stroke-width:1.0;"/><path d="M1113,457.375 L1113,467.375 L1123,467.375 L1113,457.375 " fill="#FBFB77" style="stroke:#A80036;stroke-width:1.0;"/><text fill="#000000" font-family="Verdana" font-size="13" lengthAdjust="spacing" textLength="235" x="873" y="474.4419">Selon expert, tentative doit initialiser</text><text fill="#000000" font-family="Verdana" font-size="13" lengthAdjust="spacing" textLength="178" x="873" y="489.5747">les reponse à ses questions</text><polygon fill="#A80036" points="1589.5,522.7734,1599.5,526.7734,1589.5,530.7734" style="stroke:#A80036;stroke-width:1.0;"/><line style="stroke:#A80036;stroke-width:1.0;" x1="1348.5" x2="1595.5" y1="526.7734" y2="526.7734"/><text fill="#000000" font-family="Verdana" font-size="13" lengthAdjust="spacing" textLength="229" x="1355.5" y="521.7075">question = getQuestion(idQuestion)</text><path d="M1241,507.6406 L1241,532.6406 L1343,532.6406 L1343,517.6406 L1333,507.6406 L1241,507.6406 " fill="#FBFB77" style="stroke:#A80036;stroke-width:1.0;"/><path d="M1333,507.6406 L1333,517.6406 L1343,517.6406 L1333,507.6406 " fill="#FBFB77" style="stroke:#A80036;stroke-width:1.0;"/><text fill="#000000" font-family="Verdana" font-size="13" lengthAdjust="spacing" textLength="81" x="1247" y="524.7075">Selon expert</text><polygon fill="#A80036" points="1761,557.9063,1771,561.9063,1761,565.9063" style="stroke:#A80036;stroke-width:1.0;"/><line style="stroke:#A80036;stroke-width:1.0;" x1="1348.5" x2="1767" y1="561.9063" y2="561.9063"/><text fill="#000000" font-family="Verdana" font-size="13" lengthAdjust="spacing" textLength="138" x="1355.5" y="556.8403">setReponse(reponse)</text><path d="M1241,542.7734 L1241,567.7734 L1343,567.7734 L1343,552.7734 L1333,542.7734 L1241,542.7734 " fill="#FBFB77" style="stroke:#A80036;stroke-width:1.0;"/><path d="M1333,542.7734 L1333,552.7734 L1343,552.7734 L1333,542.7734 " fill="#FBFB77" style="stroke:#A80036;stroke-width:1.0;"/><text fill="#000000" font-family="Verdana" font-size="13" lengthAdjust="spacing" textLength="81" x="1247" y="559.8403">Selon expert</text><!--MD5=[4fe32e8167a1a794ea0012cda8146510]
@startuml
skinparam style strictuml
skinparam defaultfontname Verdana
title RDCU pour ajouterReponseTentative
participant ": GestionnaireQuestionnaire" as gestionnaireQuestion
participant "universite : Universite" as universite
participant "espaceCours : EspaceCours" as cours
participant "questionnaire : Questionnaire" as questionnaire
participant "tentative : Tentative" as tentative
participant "questions : Question[]" as questions
participant "question : Question" as question
-> gestionnaireQuestion : ajouterReponseTentative(idEspaceCours,\nidQuestionnaire, idQuestion, reponse)
note left : Selon contrôleur,\ncontrôleur de session
gestionnaireQuestion -> universite : espaceCours = recupererUnEspaceCours(idEspaceCours)
note left : Selon expert, universite a toutes les\ninformations pour recupererUnEspaceCours
gestionnaireQuestion -> cours : questionnaire =\nrecupererUnQuestionnaire(idQuestionnaire)
note left : Selon expert, espaceCours contient\ntous ses questionnaires
gestionnaireQuestion -> questionnaire : ajouterReponseTentative(idQuestion, reponse)
note left : Selon expert, Quesitonnaire\ncontient les informations\npour ajouterReponseTentative
questionnaire - -> tentative** : create(questions)
note left : Selon createur, gestionnaireQuestion\n contient Tentative\nquestions est le tableau de question\ndu questionnaire stocké en attribut
tentative - -> questions** : create(questions)
note left : Selon createur, Tentative\ncontient les questions
loop !terminerAjouterReponseTentative
questionnaire -> tentative : repondre(idQuestion, reponse)
note left : Selon expert, tentative doit initialiser\nles reponse à ses questions
tentative -> questions : question = getQuestion(idQuestion)
note left : Selon expert
tentative -> question : setReponse(reponse)
note left : Selon expert
end
@enduml

PlantUML version 1.2021.9beta2(Unknown compile time)
(GPL source distribution)
Java Runtime: Java(TM) SE Runtime Environment
JVM: Java HotSpot(TM) 64-Bit Server VM
Default Encoding: UTF-8
Language: en
Country: US
--></g></svg>