<?xml version="1.0" encoding="UTF-8" standalone="no"?><svg xmlns="http://www.w3.org/2000/svg" xmlns:xlink="http://www.w3.org/1999/xlink" contentScriptType="application/ecmascript" contentStyleType="text/css" height="299px" preserveAspectRatio="none" style="width:1255px;height:299px;background:#FFFFFF;" version="1.1" viewBox="0 0 1255 299" width="1255px" zoomAndPan="magnify"><defs/><g><text fill="#000000" font-family="Verdana" font-size="18" lengthAdjust="spacing" textLength="427" x="413.5" y="28.708">RDCU pour recupererQuestionsQuestionnaire</text><line style="stroke:#A80036;stroke-width:1.0;stroke-dasharray:5.0,5.0;" x1="318.5" x2="318.5" y1="71.25" y2="292.3125"/><line style="stroke:#A80036;stroke-width:1.0;stroke-dasharray:5.0,5.0;" x1="710" x2="710" y1="71.25" y2="292.3125"/><line style="stroke:#A80036;stroke-width:1.0;stroke-dasharray:5.0,5.0;" x1="909" x2="909" y1="71.25" y2="292.3125"/><line style="stroke:#A80036;stroke-width:1.0;stroke-dasharray:5.0,5.0;" x1="1136" x2="1136" y1="71.25" y2="292.3125"/><rect fill="#FEFECE" height="30.2969" style="stroke:#A80036;stroke-width:1.5;" width="215" x="211.5" y="39.9531"/><text fill="#000000" font-family="Verdana" font-size="14" lengthAdjust="spacing" textLength="201" x="218.5" y="59.9482">: GestionnaireQuestionnaire</text><rect fill="#FEFECE" height="30.2969" style="stroke:#A80036;stroke-width:1.5;" width="170" x="625" y="39.9531"/><text fill="#000000" font-family="Verdana" font-size="14" lengthAdjust="spacing" textLength="156" x="632" y="59.9482">universite : Universite</text><rect fill="#FEFECE" height="30.2969" style="stroke:#A80036;stroke-width:1.5;" width="209" x="805" y="39.9531"/><text fill="#000000" font-family="Verdana" font-size="14" lengthAdjust="spacing" textLength="195" x="812" y="59.9482">espaceCours : EspaceCours</text><rect fill="#FEFECE" height="30.2969" style="stroke:#A80036;stroke-width:1.5;" width="225" x="1024" y="39.9531"/><text fill="#000000" font-family="Verdana" font-size="14" lengthAdjust="spacing" textLength="211" x="1031" y="59.9482">questionnaire : Questionnaire</text><polygon fill="#A80036" points="307,116.5156,317,120.5156,307,124.5156" style="stroke:#A80036;stroke-width:1.0;"/><line style="stroke:#A80036;stroke-width:1.0;" x1="0" x2="313" y1="120.5156" y2="120.5156"/><text fill="#000000" font-family="Verdana" font-size="13" lengthAdjust="spacing" textLength="295" x="7" y="100.3169">questions = recupererQuestionsQuestionnaire</text><text fill="#000000" font-family="Verdana" font-size="13" lengthAdjust="spacing" textLength="212" x="7" y="115.4497">(idEspaceCours, idQuestionnaire)</text><path d="M324,86.25 L324,126.25 L482,126.25 L482,96.25 L472,86.25 L324,86.25 " fill="#FBFB77" style="stroke:#A80036;stroke-width:1.0;"/><path d="M472,86.25 L472,96.25 L482,96.25 L472,86.25 " fill="#FBFB77" style="stroke:#A80036;stroke-width:1.0;"/><text fill="#000000" font-family="Verdana" font-size="13" lengthAdjust="spacing" textLength="108" x="330" y="103.3169">Selon contr么leur,</text><text fill="#000000" font-family="Verdana" font-size="13" lengthAdjust="spacing" textLength="137" x="330" y="118.4497">contr么leur de session</text><polygon fill="#A80036" points="698,159.2148,708,163.2148,698,167.2148" style="stroke:#A80036;stroke-width:1.0;"/><line style="stroke:#A80036;stroke-width:1.0;" x1="319" x2="704" y1="163.2148" y2="163.2148"/><text fill="#000000" font-family="Verdana" font-size="13" lengthAdjust="spacing" textLength="367" x="326" y="158.1489">espaceCours = recupererUnEspaceCours(idEspaceCours)</text><path d="M13,136.5156 L13,176.5156 L314,176.5156 L314,146.5156 L304,136.5156 L13,136.5156 " fill="#FBFB77" style="stroke:#A80036;stroke-width:1.0;"/><path d="M304,136.5156 L304,146.5156 L314,146.5156 L304,136.5156 " fill="#FBFB77" style="stroke:#A80036;stroke-width:1.0;"/><text fill="#000000" font-family="Verdana" font-size="13" lengthAdjust="spacing" textLength="231" x="19" y="153.5825">Selon expert, universite a toutes les</text><text fill="#000000" font-family="Verdana" font-size="13" lengthAdjust="spacing" textLength="280" x="19" y="168.7153">informations pour recupererUnEspaceCours</text><polygon fill="#A80036" points="897.5,217.0469,907.5,221.0469,897.5,225.0469" style="stroke:#A80036;stroke-width:1.0;"/><line style="stroke:#A80036;stroke-width:1.0;" x1="319" x2="903.5" y1="221.0469" y2="221.0469"/><text fill="#000000" font-family="Verdana" font-size="13" lengthAdjust="spacing" textLength="101" x="326" y="200.8481">questionnaire =</text><text fill="#000000" font-family="Verdana" font-size="13" lengthAdjust="spacing" textLength="278" x="326" y="215.981">recupererUnQuestionnaire(idQuestionnaire)</text><path d="M65,186.7813 L65,226.7813 L314,226.7813 L314,196.7813 L304,186.7813 L65,186.7813 " fill="#FBFB77" style="stroke:#A80036;stroke-width:1.0;"/><path d="M304,186.7813 L304,196.7813 L314,196.7813 L304,186.7813 " fill="#FBFB77" style="stroke:#A80036;stroke-width:1.0;"/><text fill="#000000" font-family="Verdana" font-size="13" lengthAdjust="spacing" textLength="228" x="71" y="203.8481">Selon expert, espaceCours contient</text><text fill="#000000" font-family="Verdana" font-size="13" lengthAdjust="spacing" textLength="152" x="71" y="218.981">tous ses questionnaires</text><polygon fill="#A80036" points="1124.5,259.7461,1134.5,263.7461,1124.5,267.7461" style="stroke:#A80036;stroke-width:1.0;"/><line style="stroke:#A80036;stroke-width:1.0;" x1="319" x2="1130.5" y1="263.7461" y2="263.7461"/><text fill="#000000" font-family="Verdana" font-size="13" lengthAdjust="spacing" textLength="216" x="326" y="258.6802">questions = recupererQuestions()</text><path d="M61,237.0469 L61,277.0469 L314,277.0469 L314,247.0469 L304,237.0469 L61,237.0469 " fill="#FBFB77" style="stroke:#A80036;stroke-width:1.0;"/><path d="M304,237.0469 L304,247.0469 L314,247.0469 L304,237.0469 " fill="#FBFB77" style="stroke:#A80036;stroke-width:1.0;"/><text fill="#000000" font-family="Verdana" font-size="13" lengthAdjust="spacing" textLength="232" x="67" y="254.1138">Selon expert, questionnaire contient</text><text fill="#000000" font-family="Verdana" font-size="13" lengthAdjust="spacing" textLength="133" x="67" y="269.2466">toutes ses questions</text><!--MD5=[844c8212051579bb48785cdc92e46982]
@startuml
skinparam style strictuml
skinparam defaultfontname Verdana
title RDCU pour recupererQuestionsQuestionnaire
participant ": GestionnaireQuestionnaire" as gestionnaireQuestion
participant "universite : Universite" as universite
participant "espaceCours : EspaceCours" as cours
participant "questionnaire : Questionnaire" as questionnaire
-> gestionnaireQuestion : questions = recupererQuestionsQuestionnaire\n(idEspaceCours, idQuestionnaire)
note left : Selon contr么leur,\ncontr么leur de session
gestionnaireQuestion -> universite : espaceCours = recupererUnEspaceCours(idEspaceCours)
note left : Selon expert, universite a toutes les\ninformations pour recupererUnEspaceCours
gestionnaireQuestion -> cours : questionnaire =\nrecupererUnQuestionnaire(idQuestionnaire)
note left : Selon expert, espaceCours contient\ntous ses questionnaires
gestionnaireQuestion -> questionnaire : questions = recupererQuestions()
note left : Selon expert, questionnaire contient\ntoutes ses questions
@enduml

PlantUML version 1.2021.9beta2(Unknown compile time)
(GPL source distribution)
Java Runtime: Java(TM) SE Runtime Environment
JVM: Java HotSpot(TM) 64-Bit Server VM
Default Encoding: UTF-8
Language: en
Country: US
--></g></svg>