<?xml version="1.0" encoding="UTF-8" standalone="no"?><svg xmlns="http://www.w3.org/2000/svg" xmlns:xlink="http://www.w3.org/1999/xlink" contentScriptType="application/ecmascript" contentStyleType="text/css" height="626px" preserveAspectRatio="none" style="width:1895px;height:626px;background:#FFFFFF;" version="1.1" viewBox="0 0 1895 626" width="1895px" zoomAndPan="magnify"><defs/><g><text fill="#000000" font-family="Verdana" font-size="18" lengthAdjust="spacing" textLength="428" x="735.75" y="28.708">RDCU pour terminerAjouterReponseTentative</text><rect fill="#FFFFFF" height="160.6641" style="stroke:#000000;stroke-width:2.0;" width="573.5" x="1316" y="400.1094"/><rect fill="#FFFFFF" height="59.2656" style="stroke:#000000;stroke-width:2.0;" width="280" x="1326" y="494.5078"/><line style="stroke:#A80036;stroke-width:1.0;stroke-dasharray:5.0,5.0;" x1="420.5" x2="420.5" y1="71.25" y2="619.9063"/><line style="stroke:#A80036;stroke-width:1.0;stroke-dasharray:5.0,5.0;" x1="812" x2="812" y1="71.25" y2="619.9063"/><line style="stroke:#A80036;stroke-width:1.0;stroke-dasharray:5.0,5.0;" x1="1011" x2="1011" y1="71.25" y2="619.9063"/><line style="stroke:#A80036;stroke-width:1.0;stroke-dasharray:5.0,5.0;" x1="1238" x2="1238" y1="71.25" y2="619.9063"/><line style="stroke:#A80036;stroke-width:1.0;stroke-dasharray:5.0,5.0;" x1="1443" x2="1443" y1="71.25" y2="619.9063"/><line style="stroke:#A80036;stroke-width:1.0;stroke-dasharray:5.0,5.0;" x1="1631.5" x2="1631.5" y1="71.25" y2="619.9063"/><line style="stroke:#A80036;stroke-width:1.0;stroke-dasharray:5.0,5.0;" x1="1802.5" x2="1802.5" y1="71.25" y2="619.9063"/><rect fill="#FEFECE" height="30.2969" style="stroke:#A80036;stroke-width:1.5;" width="215" x="313.5" y="39.9531"/><text fill="#000000" font-family="Verdana" font-size="14" lengthAdjust="spacing" textLength="201" x="320.5" y="59.9482">: GestionnaireQuestionnaire</text><rect fill="#FEFECE" height="30.2969" style="stroke:#A80036;stroke-width:1.5;" width="170" x="727" y="39.9531"/><text fill="#000000" font-family="Verdana" font-size="14" lengthAdjust="spacing" textLength="156" x="734" y="59.9482">universite : Universite</text><rect fill="#FEFECE" height="30.2969" style="stroke:#A80036;stroke-width:1.5;" width="209" x="907" y="39.9531"/><text fill="#000000" font-family="Verdana" font-size="14" lengthAdjust="spacing" textLength="195" x="914" y="59.9482">espaceCours : EspaceCours</text><rect fill="#FEFECE" height="30.2969" style="stroke:#A80036;stroke-width:1.5;" width="225" x="1126" y="39.9531"/><text fill="#000000" font-family="Verdana" font-size="14" lengthAdjust="spacing" textLength="211" x="1133" y="59.9482">questionnaire : Questionnaire</text><rect fill="#FEFECE" height="30.2969" style="stroke:#A80036;stroke-width:1.5;" width="165" x="1361" y="39.9531"/><text fill="#000000" font-family="Verdana" font-size="14" lengthAdjust="spacing" textLength="151" x="1368" y="59.9482">tentative : Tentative</text><rect fill="#FEFECE" height="30.2969" style="stroke:#A80036;stroke-width:1.5;" width="170" x="1546.5" y="39.9531"/><text fill="#000000" font-family="Verdana" font-size="14" lengthAdjust="spacing" textLength="156" x="1553.5" y="59.9482">questions : Question[]</text><rect fill="#FEFECE" height="30.2969" style="stroke:#A80036;stroke-width:1.5;" width="153" x="1726.5" y="39.9531"/><text fill="#000000" font-family="Verdana" font-size="14" lengthAdjust="spacing" textLength="139" x="1733.5" y="59.9482">question : Question</text><polygon fill="#A80036" points="409,116.5156,419,120.5156,409,124.5156" style="stroke:#A80036;stroke-width:1.0;"/><line style="stroke:#A80036;stroke-width:1.0;" x1="0" x2="415" y1="120.5156" y2="120.5156"/><text fill="#000000" font-family="Verdana" font-size="13" lengthAdjust="spacing" textLength="397" x="7" y="100.3169">tentative = terminerAjouterReponseTentative(idEspaceCours,</text><text fill="#000000" font-family="Verdana" font-size="13" lengthAdjust="spacing" textLength="105" x="7" y="115.4497">idQuestionnaire)</text><path d="M426,86.25 L426,126.25 L584,126.25 L584,96.25 L574,86.25 L426,86.25 " fill="#FBFB77" style="stroke:#A80036;stroke-width:1.0;"/><path d="M574,86.25 L574,96.25 L584,96.25 L574,86.25 " fill="#FBFB77" style="stroke:#A80036;stroke-width:1.0;"/><text fill="#000000" font-family="Verdana" font-size="13" lengthAdjust="spacing" textLength="108" x="432" y="103.3169">Selon contrôleur,</text><text fill="#000000" font-family="Verdana" font-size="13" lengthAdjust="spacing" textLength="137" x="432" y="118.4497">contrôleur de session</text><polygon fill="#A80036" points="800,159.2148,810,163.2148,800,167.2148" style="stroke:#A80036;stroke-width:1.0;"/><line style="stroke:#A80036;stroke-width:1.0;" x1="421" x2="806" y1="163.2148" y2="163.2148"/><text fill="#000000" font-family="Verdana" font-size="13" lengthAdjust="spacing" textLength="367" x="428" y="158.1489">espaceCours = recupererUnEspaceCours(idEspaceCours)</text><path d="M115,136.5156 L115,176.5156 L416,176.5156 L416,146.5156 L406,136.5156 L115,136.5156 " fill="#FBFB77" style="stroke:#A80036;stroke-width:1.0;"/><path d="M406,136.5156 L406,146.5156 L416,146.5156 L406,136.5156 " fill="#FBFB77" style="stroke:#A80036;stroke-width:1.0;"/><text fill="#000000" font-family="Verdana" font-size="13" lengthAdjust="spacing" textLength="231" x="121" y="153.5825">Selon expert, universite a toutes les</text><text fill="#000000" font-family="Verdana" font-size="13" lengthAdjust="spacing" textLength="280" x="121" y="168.7153">informations pour recupererUnEspaceCours</text><polygon fill="#A80036" points="999.5,217.0469,1009.5,221.0469,999.5,225.0469" style="stroke:#A80036;stroke-width:1.0;"/><line style="stroke:#A80036;stroke-width:1.0;" x1="421" x2="1005.5" y1="221.0469" y2="221.0469"/><text fill="#000000" font-family="Verdana" font-size="13" lengthAdjust="spacing" textLength="101" x="428" y="200.8481">questionnaire =</text><text fill="#000000" font-family="Verdana" font-size="13" lengthAdjust="spacing" textLength="278" x="428" y="215.981">recupererUnQuestionnaire(idQuestionnaire)</text><path d="M167,186.7813 L167,226.7813 L416,226.7813 L416,196.7813 L406,186.7813 L167,186.7813 " fill="#FBFB77" style="stroke:#A80036;stroke-width:1.0;"/><path d="M406,186.7813 L406,196.7813 L416,196.7813 L406,186.7813 " fill="#FBFB77" style="stroke:#A80036;stroke-width:1.0;"/><text fill="#000000" font-family="Verdana" font-size="13" lengthAdjust="spacing" textLength="228" x="173" y="203.8481">Selon expert, espaceCours contient</text><text fill="#000000" font-family="Verdana" font-size="13" lengthAdjust="spacing" textLength="152" x="173" y="218.981">tous ses questionnaires</text><polygon fill="#A80036" points="1226.5,282.4453,1236.5,286.4453,1226.5,290.4453" style="stroke:#A80036;stroke-width:1.0;"/><line style="stroke:#A80036;stroke-width:1.0;" x1="421" x2="1232.5" y1="286.4453" y2="286.4453"/><text fill="#000000" font-family="Verdana" font-size="13" lengthAdjust="spacing" textLength="228" x="428" y="281.3794">solutionnaire = recupererReponse()</text><path d="M207,237.0469 L207,322.0469 L416,322.0469 L416,247.0469 L406,237.0469 L207,237.0469 " fill="#FBFB77" style="stroke:#A80036;stroke-width:1.0;"/><path d="M406,237.0469 L406,247.0469 L416,247.0469 L406,237.0469 " fill="#FBFB77" style="stroke:#A80036;stroke-width:1.0;"/><text fill="#000000" font-family="Verdana" font-size="13" lengthAdjust="spacing" textLength="178" x="213" y="254.1138">Selon expert, Questionnaire</text><text fill="#000000" font-family="Verdana" font-size="13" lengthAdjust="spacing" textLength="169" x="213" y="269.2466">contient ces Questions qui</text><text fill="#000000" font-family="Verdana" font-size="13" lengthAdjust="spacing" textLength="178" x="213" y="284.3794">contiennent leurs réponses.</text><text fill="#000000" font-family="Verdana" font-size="13" lengthAdjust="spacing" textLength="178" x="213" y="299.5122">solutionnaire est un tableau</text><text fill="#000000" font-family="Verdana" font-size="13" lengthAdjust="spacing" textLength="188" x="213" y="314.645">avec seulement les réponses</text><polygon fill="#A80036" points="1431.5,362.9766,1441.5,366.9766,1431.5,370.9766" style="stroke:#A80036;stroke-width:1.0;"/><line style="stroke:#A80036;stroke-width:1.0;" x1="421" x2="1437.5" y1="366.9766" y2="366.9766"/><text fill="#000000" font-family="Verdana" font-size="13" lengthAdjust="spacing" textLength="217" x="428" y="361.9106">tentative = corriger(solutionnaire)</text><path d="M161,332.7109 L161,387.7109 L416,387.7109 L416,342.7109 L406,332.7109 L161,332.7109 " fill="#FBFB77" style="stroke:#A80036;stroke-width:1.0;"/><path d="M406,332.7109 L406,342.7109 L416,342.7109 L406,332.7109 " fill="#FBFB77" style="stroke:#A80036;stroke-width:1.0;"/><text fill="#000000" font-family="Verdana" font-size="13" lengthAdjust="spacing" textLength="234" x="167" y="349.7778">Selon faire soi-même, Questionnaire</text><text fill="#000000" font-family="Verdana" font-size="13" lengthAdjust="spacing" textLength="224" x="167" y="364.9106">se corrige lui même afin de réduire</text><text fill="#000000" font-family="Verdana" font-size="13" lengthAdjust="spacing" textLength="205" x="167" y="380.0435">le décalage des représentations</text><path d="M1316,400.1094 L1394,400.1094 L1394,407.1094 L1384,417.1094 L1316,417.1094 L1316,400.1094 " fill="#EEEEEE" style="stroke:#000000;stroke-width:1.0;"/><rect fill="none" height="160.6641" style="stroke:#000000;stroke-width:2.0;" width="573.5" x="1316" y="400.1094"/><text fill="#000000" font-family="Verdana" font-size="13" font-weight="bold" lengthAdjust="spacing" textLength="33" x="1331" y="413.1763">loop</text><text fill="#000000" font-family="Verdana" font-size="11" font-weight="bold" lengthAdjust="spacing" textLength="123" x="1409" y="412.3198">[questions.length]</text><polygon fill="#A80036" points="1619.5,437.375,1629.5,441.375,1619.5,445.375" style="stroke:#A80036;stroke-width:1.0;"/><line style="stroke:#A80036;stroke-width:1.0;" x1="1443.5" x2="1625.5" y1="441.375" y2="441.375"/><text fill="#000000" font-family="Verdana" font-size="13" lengthAdjust="spacing" textLength="164" x="1450.5" y="436.3091">question = getQuestion(i)</text><path d="M1336,422.2422 L1336,447.2422 L1438,447.2422 L1438,432.2422 L1428,422.2422 L1336,422.2422 " fill="#FBFB77" style="stroke:#A80036;stroke-width:1.0;"/><path d="M1428,422.2422 L1428,432.2422 L1438,432.2422 L1428,422.2422 " fill="#FBFB77" style="stroke:#A80036;stroke-width:1.0;"/><text fill="#000000" font-family="Verdana" font-size="13" lengthAdjust="spacing" textLength="81" x="1342" y="439.3091">Selon expert</text><polygon fill="#A80036" points="1791,472.5078,1801,476.5078,1791,480.5078" style="stroke:#A80036;stroke-width:1.0;"/><line style="stroke:#A80036;stroke-width:1.0;" x1="1443.5" x2="1797" y1="476.5078" y2="476.5078"/><text fill="#000000" font-family="Verdana" font-size="13" lengthAdjust="spacing" textLength="157" x="1450.5" y="471.4419">reponse = getReponse()</text><path d="M1336,457.375 L1336,482.375 L1438,482.375 L1438,467.375 L1428,457.375 L1336,457.375 " fill="#FBFB77" style="stroke:#A80036;stroke-width:1.0;"/><path d="M1428,457.375 L1428,467.375 L1438,467.375 L1428,457.375 " fill="#FBFB77" style="stroke:#A80036;stroke-width:1.0;"/><text fill="#000000" font-family="Verdana" font-size="13" lengthAdjust="spacing" textLength="81" x="1342" y="474.4419">Selon expert</text><path d="M1326,494.5078 L1392,494.5078 L1392,501.5078 L1382,511.5078 L1326,511.5078 L1326,494.5078 " fill="#EEEEEE" style="stroke:#000000;stroke-width:1.0;"/><rect fill="none" height="59.2656" style="stroke:#000000;stroke-width:2.0;" width="280" x="1326" y="494.5078"/><text fill="#000000" font-family="Verdana" font-size="13" font-weight="bold" lengthAdjust="spacing" textLength="21" x="1341" y="507.5747">alt</text><text fill="#000000" font-family="Verdana" font-size="11" font-weight="bold" lengthAdjust="spacing" textLength="194" x="1407" y="506.7183">[reponse == solutionnaire[i]]</text><line style="stroke:#A80036;stroke-width:1.0;" x1="1443.5" x2="1485.5" y1="532.7734" y2="532.7734"/><line style="stroke:#A80036;stroke-width:1.0;" x1="1485.5" x2="1485.5" y1="532.7734" y2="545.7734"/><line style="stroke:#A80036;stroke-width:1.0;" x1="1444.5" x2="1485.5" y1="545.7734" y2="545.7734"/><polygon fill="#A80036" points="1454.5,541.7734,1444.5,545.7734,1454.5,549.7734" style="stroke:#A80036;stroke-width:1.0;"/><text fill="#000000" font-family="Verdana" font-size="13" lengthAdjust="spacing" textLength="49" x="1450.5" y="527.7075">note++</text><path d="M1336,520.1406 L1336,545.1406 L1438,545.1406 L1438,530.1406 L1428,520.1406 L1336,520.1406 " fill="#FBFB77" style="stroke:#A80036;stroke-width:1.0;"/><path d="M1428,520.1406 L1428,530.1406 L1438,530.1406 L1428,520.1406 " fill="#FBFB77" style="stroke:#A80036;stroke-width:1.0;"/><text fill="#000000" font-family="Verdana" font-size="13" lengthAdjust="spacing" textLength="81" x="1342" y="537.2075">Selon expert</text><line style="stroke:#A80036;stroke-width:1.0;" x1="1443.5" x2="1485.5" y1="588.9063" y2="588.9063"/><line style="stroke:#A80036;stroke-width:1.0;" x1="1485.5" x2="1485.5" y1="588.9063" y2="601.9063"/><line style="stroke:#A80036;stroke-width:1.0;" x1="1444.5" x2="1485.5" y1="601.9063" y2="601.9063"/><polygon fill="#A80036" points="1454.5,597.9063,1444.5,601.9063,1454.5,605.9063" style="stroke:#A80036;stroke-width:1.0;"/><text fill="#000000" font-family="Verdana" font-size="13" lengthAdjust="spacing" textLength="122" x="1450.5" y="583.8403">setStatut("évalué")</text><path d="M1336,576.2734 L1336,601.2734 L1438,601.2734 L1438,586.2734 L1428,576.2734 L1336,576.2734 " fill="#FBFB77" style="stroke:#A80036;stroke-width:1.0;"/><path d="M1428,576.2734 L1428,586.2734 L1438,586.2734 L1428,576.2734 " fill="#FBFB77" style="stroke:#A80036;stroke-width:1.0;"/><text fill="#000000" font-family="Verdana" font-size="13" lengthAdjust="spacing" textLength="81" x="1342" y="593.3403">Selon expert</text><!--MD5=[2e919e48171b0c7907a7e0f820b5e70b]
@startuml
skinparam style strictuml
skinparam defaultfontname Verdana
title RDCU pour terminerAjouterReponseTentative
participant ": GestionnaireQuestionnaire" as gestionnaireQuestion
participant "universite : Universite" as universite
participant "espaceCours : EspaceCours" as cours
participant "questionnaire : Questionnaire" as questionnaire
participant "tentative : Tentative" as tentative
participant "questions : Question[]" as questions
participant "question : Question" as question
-> gestionnaireQuestion : tentative = terminerAjouterReponseTentative(idEspaceCours,\nidQuestionnaire)
note left : Selon contrôleur,\ncontrôleur de session
gestionnaireQuestion -> universite : espaceCours = recupererUnEspaceCours(idEspaceCours)
note left : Selon expert, universite a toutes les\ninformations pour recupererUnEspaceCours
gestionnaireQuestion -> cours : questionnaire =\nrecupererUnQuestionnaire(idQuestionnaire)
note left : Selon expert, espaceCours contient\ntous ses questionnaires
gestionnaireQuestion -> questionnaire : solutionnaire = recupererReponse()
note left : Selon expert, Questionnaire\ncontient ces Questions qui\ncontiennent leurs réponses.\nsolutionnaire est un tableau\navec seulement les réponses
gestionnaireQuestion -> tentative : tentative = corriger(solutionnaire)
note left : Selon faire soi-même, Questionnaire\nse corrige lui même afin de réduire\nle décalage des représentations
loop questions.length
tentative -> questions : question = getQuestion(i)
note left : Selon expert
tentative -> question : reponse = getReponse()
note left : Selon expert
alt reponse == solutionnaire[i]
tentative -> tentative : note++
note left : Selon expert
end
end
tentative -> tentative : setStatut("évalué")
note left : Selon expert
@enduml

PlantUML version 1.2021.9beta2(Unknown compile time)
(GPL source distribution)
Java Runtime: Java(TM) SE Runtime Environment
JVM: Java HotSpot(TM) 64-Bit Server VM
Default Encoding: UTF-8
Language: en
Country: US
--></g></svg>