<?xml version="1.0" encoding="UTF-8" standalone="no"?><svg xmlns="http://www.w3.org/2000/svg" xmlns:xlink="http://www.w3.org/1999/xlink" contentScriptType="application/ecmascript" contentStyleType="text/css" height="800px" preserveAspectRatio="none" style="width:1665px;height:800px;background:#FFFFFF;" version="1.1" viewBox="0 0 1665 800" width="1665px" zoomAndPan="magnify"><defs/><g><text fill="#000000" font-family="Verdana" font-size="18" lengthAdjust="spacing" textLength="262" x="703.5" y="28.708">RDCU pour ajouter question</text><rect fill="#FFFFFF" height="427.7891" style="stroke:#000000;stroke-width:2.0;" width="1659" x="0" y="203.9141"/><line style="stroke:#A80036;stroke-width:1.0;stroke-dasharray:5.0,5.0;" x1="359" x2="359" y1="71.25" y2="793.5"/><line style="stroke:#A80036;stroke-width:1.0;stroke-dasharray:5.0,5.0;" x1="582" x2="582" y1="71.25" y2="793.5"/><line style="stroke:#A80036;stroke-width:1.0;stroke-dasharray:5.0,5.0;" x1="867" x2="867" y1="71.25" y2="793.5"/><line style="stroke:#A80036;stroke-width:1.0;stroke-dasharray:5.0,5.0;" x1="1073" x2="1073" y1="543.6055" y2="793.5"/><line style="stroke:#A80036;stroke-width:1.0;stroke-dasharray:5.0,5.0;" x1="1213" x2="1213" y1="71.25" y2="793.5"/><line style="stroke:#A80036;stroke-width:1.0;stroke-dasharray:5.0,5.0;" x1="1441.5" x2="1441.5" y1="71.25" y2="793.5"/><line style="stroke:#A80036;stroke-width:1.0;stroke-dasharray:5.0,5.0;" x1="1520.5" x2="1520.5" y1="71.25" y2="793.5"/><rect fill="#FEFECE" height="30.2969" style="stroke:#A80036;stroke-width:1.5;" width="176" x="271" y="39.9531"/><text fill="#000000" font-family="Verdana" font-size="14" lengthAdjust="spacing" textLength="162" x="278" y="59.9482">:EnseignantControleur</text><rect fill="#FEFECE" height="30.2969" style="stroke:#A80036;stroke-width:1.5;" width="251" x="457" y="39.9531"/><text fill="#000000" font-family="Verdana" font-size="14" lengthAdjust="spacing" textLength="237" x="464" y="59.9482">operationCours : OperationCours</text><rect fill="#FEFECE" height="30.2969" style="stroke:#A80036;stroke-width:1.5;" width="299" x="718" y="39.9531"/><text fill="#000000" font-family="Verdana" font-size="14" lengthAdjust="spacing" textLength="285" x="725" y="59.9482">operationQuestion : OperationQuestion</text><rect fill="#FEFECE" height="30.2969" style="stroke:#A80036;stroke-width:1.5;" width="168" x="1129" y="39.9531"/><text fill="#000000" font-family="Verdana" font-size="14" lengthAdjust="spacing" textLength="154" x="1136" y="59.9482">gestionnaireQuestion</text><rect fill="#FEFECE" height="30.2969" style="stroke:#A80036;stroke-width:1.5;" width="85" x="1399.5" y="39.9531"/><text fill="#000000" font-family="Verdana" font-size="14" lengthAdjust="spacing" textLength="71" x="1406.5" y="59.9482">universite</text><rect fill="#FEFECE" height="30.2969" style="stroke:#A80036;stroke-width:1.5;" width="52" x="1494.5" y="39.9531"/><text fill="#000000" font-family="Verdana" font-size="14" lengthAdjust="spacing" textLength="38" x="1501.5" y="59.9482">cours</text><polygon fill="#A80036" points="347,108.9492,357,112.9492,347,116.9492" style="stroke:#A80036;stroke-width:1.0;"/><line style="stroke:#A80036;stroke-width:1.0;" x1="0" x2="353" y1="112.9492" y2="112.9492"/><text fill="#000000" font-family="Verdana" font-size="13" lengthAdjust="spacing" textLength="222" x="7" y="107.8833">cours = recupererCoursSga(token)</text><path d="M364,86.25 L364,126.25 L623,126.25 L623,96.25 L613,86.25 L364,86.25 " fill="#FBFB77" style="stroke:#A80036;stroke-width:1.0;"/><path d="M613,86.25 L613,96.25 L623,96.25 L613,86.25 " fill="#FBFB77" style="stroke:#A80036;stroke-width:1.0;"/><text fill="#000000" font-family="Verdana" font-size="13" lengthAdjust="spacing" textLength="105" x="370" y="103.3169">Selon Contôleur,</text><text fill="#000000" font-family="Verdana" font-size="13" lengthAdjust="spacing" textLength="238" x="370" y="118.4497">reçoit la première opération système</text><polygon fill="#A80036" points="570.5,166.7813,580.5,170.7813,570.5,174.7813" style="stroke:#A80036;stroke-width:1.0;"/><line style="stroke:#A80036;stroke-width:1.0;" x1="359" x2="576.5" y1="170.7813" y2="170.7813"/><text fill="#000000" font-family="Verdana" font-size="13" lengthAdjust="spacing" textLength="198" x="366" y="165.7153">cours = recupererCours(token)</text><path d="M56,136.5156 L56,191.5156 L354,191.5156 L354,146.5156 L344,136.5156 L56,136.5156 " fill="#FBFB77" style="stroke:#A80036;stroke-width:1.0;"/><path d="M344,136.5156 L344,146.5156 L354,146.5156 L344,136.5156 " fill="#FBFB77" style="stroke:#A80036;stroke-width:1.0;"/><text fill="#000000" font-family="Verdana" font-size="13" lengthAdjust="spacing" textLength="277" x="62" y="153.5825">Selon expert, l'information Sgb est l'expert,</text><text fill="#000000" font-family="Verdana" font-size="13" lengthAdjust="spacing" textLength="238" x="62" y="168.7153">car il contient toutes les informations</text><text fill="#000000" font-family="Verdana" font-size="13" lengthAdjust="spacing" textLength="128" x="62" y="183.8481">utiles pour les cours</text><rect fill="none" height="427.7891" style="stroke:#000000;stroke-width:2.0;" width="1659" x="0" y="203.9141"/><text fill="#000000" font-family="Verdana" font-size="13" font-weight="bold" lengthAdjust="spacing" textLength="33" x="10" y="216.981">loop</text><a href="!terminerQuestion" target="_top" title="!terminerQuestion" xlink:actuate="onRequest" xlink:href="!terminerQuestion" xlink:show="new" xlink:title="!terminerQuestion" xlink:type="simple"><text fill="#0000FF" font-family="Verdana" font-size="11" font-weight="bold" lengthAdjust="spacing" text-decoration="underline" textLength="126" x="88" y="216.1245">!terminerQuestion</text></a><polygon fill="#A80036" points="1201,283.5781,1211,287.5781,1201,291.5781" style="stroke:#A80036;stroke-width:1.0;"/><line style="stroke:#A80036;stroke-width:1.0;" x1="0" x2="1207" y1="287.5781" y2="287.5781"/><text fill="#000000" font-family="Verdana" font-size="13" lengthAdjust="spacing" textLength="205" x="7" y="237.1138">ajouterQuestion(idEspaceCours,</text><text fill="#000000" font-family="Verdana" font-size="13" lengthAdjust="spacing" textLength="160" x="7" y="252.2466">tags,nom,texteQuestion,</text><text fill="#000000" font-family="Verdana" font-size="13" lengthAdjust="spacing" textLength="190" x="7" y="267.3794">reponse,texteBonneReponse,</text><text fill="#000000" font-family="Verdana" font-size="13" lengthAdjust="spacing" textLength="155" x="7" y="282.5122">texteMauvaiseReponse)</text><path d="M1218,238.1797 L1218,278.1797 L1483,278.1797 L1483,248.1797 L1473,238.1797 L1218,238.1797 " fill="#FBFB77" style="stroke:#A80036;stroke-width:1.0;"/><path d="M1473,238.1797 L1473,248.1797 L1483,248.1797 L1473,238.1797 " fill="#FBFB77" style="stroke:#A80036;stroke-width:1.0;"/><text fill="#000000" font-family="Verdana" font-size="13" lengthAdjust="spacing" textLength="178" x="1224" y="255.2466">Selon contôlleur de session,</text><text fill="#000000" font-family="Verdana" font-size="13" lengthAdjust="spacing" textLength="244" x="1224" y="270.3794">reçoit la deuxième opération système</text><polygon fill="#A80036" points="1430,358.1094,1440,362.1094,1430,366.1094" style="stroke:#A80036;stroke-width:1.0;"/><line style="stroke:#A80036;stroke-width:1.0;" x1="1213" x2="1436" y1="362.1094" y2="362.1094"/><text fill="#000000" font-family="Verdana" font-size="13" lengthAdjust="spacing" textLength="205" x="1220" y="311.645">ajouterQuestion(idEspaceCours,</text><text fill="#000000" font-family="Verdana" font-size="13" lengthAdjust="spacing" textLength="160" x="1220" y="326.7778">tags,nom,texteQuestion,</text><text fill="#000000" font-family="Verdana" font-size="13" lengthAdjust="spacing" textLength="190" x="1220" y="341.9106">reponse,texteBonneReponse,</text><text fill="#000000" font-family="Verdana" font-size="13" lengthAdjust="spacing" textLength="155" x="1220" y="357.0435">texteMauvaiseReponse)</text><polygon fill="#A80036" points="1430,405.375,1440,409.375,1430,413.375" style="stroke:#A80036;stroke-width:1.0;"/><line style="stroke:#A80036;stroke-width:1.0;" x1="1213" x2="1436" y1="409.375" y2="409.375"/><text fill="#000000" font-family="Verdana" font-size="13" lengthAdjust="spacing" textLength="162" x="1220" y="404.3091">c = recupererUnCours(id)</text><path d="M949,375.1094 L949,430.1094 L1208,430.1094 L1208,385.1094 L1198,375.1094 L949,375.1094 " fill="#FBFB77" style="stroke:#A80036;stroke-width:1.0;"/><path d="M1198,375.1094 L1198,385.1094 L1208,385.1094 L1198,375.1094 " fill="#FBFB77" style="stroke:#A80036;stroke-width:1.0;"/><text fill="#000000" font-family="Verdana" font-size="13" lengthAdjust="spacing" textLength="232" x="955" y="392.1763">Selon expert, universite est l'expert,</text><text fill="#000000" font-family="Verdana" font-size="13" lengthAdjust="spacing" textLength="238" x="955" y="407.3091">car il contient toutes les informations</text><text fill="#000000" font-family="Verdana" font-size="13" lengthAdjust="spacing" textLength="176" x="955" y="422.4419">utiles pour les EspaceCours</text><polygon fill="#A80036" points="1508.5,485.9063,1518.5,489.9063,1508.5,493.9063" style="stroke:#A80036;stroke-width:1.0;"/><line style="stroke:#A80036;stroke-width:1.0;" x1="1213" x2="1514.5" y1="489.9063" y2="489.9063"/><text fill="#000000" font-family="Verdana" font-size="13" lengthAdjust="spacing" textLength="267" x="1220" y="454.5747">ajouterQuestion(tags,nom,texteQuestion,</text><text fill="#000000" font-family="Verdana" font-size="13" lengthAdjust="spacing" textLength="190" x="1220" y="469.7075">reponse,texteBonneReponse,</text><text fill="#000000" font-family="Verdana" font-size="13" lengthAdjust="spacing" textLength="155" x="1220" y="484.8403">texteMauvaiseReponse)</text><path d="M935,440.5078 L935,495.5078 L1208,495.5078 L1208,450.5078 L1198,440.5078 L935,440.5078 " fill="#FBFB77" style="stroke:#A80036;stroke-width:1.0;"/><path d="M1198,440.5078 L1198,450.5078 L1208,450.5078 L1198,440.5078 " fill="#FBFB77" style="stroke:#A80036;stroke-width:1.0;"/><text fill="#000000" font-family="Verdana" font-size="13" lengthAdjust="spacing" textLength="252" x="941" y="457.5747">Selon expert, espaceCours est l'expert,</text><text fill="#000000" font-family="Verdana" font-size="13" lengthAdjust="spacing" textLength="238" x="941" y="472.7075">car il contient toutes les informations</text><text fill="#000000" font-family="Verdana" font-size="13" lengthAdjust="spacing" textLength="155" x="941" y="487.8403">utiles pour les questions</text><polygon fill="#A80036" points="1130,518.0391,1120,522.0391,1130,526.0391" style="stroke:#A80036;stroke-width:1.0;"/><line style="stroke:#A80036;stroke-width:1.0;" x1="1124" x2="1519.5" y1="522.0391" y2="522.0391"/><text fill="#000000" font-family="Verdana" font-size="13" lengthAdjust="spacing" textLength="77" x="1136" y="516.9731">q = create()</text><rect fill="#FEFECE" height="30.2969" style="stroke:#A80036;stroke-width:1.5;" width="92" x="1027" y="512.957"/><text fill="#000000" font-family="Verdana" font-size="14" lengthAdjust="spacing" textLength="78" x="1034" y="532.9521">q:Question</text><path d="M925,505.9063 L925,560.9063 L1068,560.9063 L1068,515.9063 L1058,505.9063 L925,505.9063 " fill="#FBFB77" style="stroke:#A80036;stroke-width:1.0;"/><path d="M1058,505.9063 L1058,515.9063 L1068,515.9063 L1058,505.9063 " fill="#FBFB77" style="stroke:#A80036;stroke-width:1.0;"/><text fill="#000000" font-family="Verdana" font-size="13" lengthAdjust="spacing" textLength="94" x="931" y="522.9731">selon Créateur</text><text fill="#000000" font-family="Verdana" font-size="13" lengthAdjust="spacing" textLength="88" x="931" y="538.106">(EspaceCours</text><text fill="#000000" font-family="Verdana" font-size="13" lengthAdjust="spacing" textLength="118" x="935" y="553.2388">contient Question)</text><line style="stroke:#A80036;stroke-width:1.0;" x1="1520.5" x2="1562.5" y1="599.0703" y2="599.0703"/><line style="stroke:#A80036;stroke-width:1.0;" x1="1562.5" x2="1562.5" y1="599.0703" y2="612.0703"/><line style="stroke:#A80036;stroke-width:1.0;" x1="1521.5" x2="1562.5" y1="612.0703" y2="612.0703"/><polygon fill="#A80036" points="1531.5,608.0703,1521.5,612.0703,1531.5,616.0703" style="stroke:#A80036;stroke-width:1.0;"/><text fill="#000000" font-family="Verdana" font-size="13" lengthAdjust="spacing" textLength="120" x="1527.5" y="594.0044">ajouterQuestion(q)</text><path d="M1242,571.3047 L1242,626.3047 L1515,626.3047 L1515,581.3047 L1505,571.3047 L1242,571.3047 " fill="#FBFB77" style="stroke:#A80036;stroke-width:1.0;"/><path d="M1505,571.3047 L1505,581.3047 L1515,581.3047 L1505,571.3047 " fill="#FBFB77" style="stroke:#A80036;stroke-width:1.0;"/><text fill="#000000" font-family="Verdana" font-size="13" lengthAdjust="spacing" textLength="252" x="1248" y="588.3716">Selon expert, espaceCours est l'expert,</text><text fill="#000000" font-family="Verdana" font-size="13" lengthAdjust="spacing" textLength="238" x="1248" y="603.5044">car il contient toutes les informations</text><text fill="#000000" font-family="Verdana" font-size="13" lengthAdjust="spacing" textLength="155" x="1248" y="618.6372">utiles pour les questions</text><polygon fill="#A80036" points="347,666.4023,357,670.4023,347,674.4023" style="stroke:#A80036;stroke-width:1.0;"/><line style="stroke:#A80036;stroke-width:1.0;" x1="0" x2="353" y1="670.4023" y2="670.4023"/><text fill="#000000" font-family="Verdana" font-size="13" lengthAdjust="spacing" textLength="168" x="7" y="665.3364">terminerAjouterQuestion()</text><path d="M364,643.7031 L364,683.7031 L685,683.7031 L685,653.7031 L675,643.7031 L364,643.7031 " fill="#FBFB77" style="stroke:#A80036;stroke-width:1.0;"/><path d="M675,643.7031 L675,653.7031 L685,653.7031 L675,643.7031 " fill="#FBFB77" style="stroke:#A80036;stroke-width:1.0;"/><text fill="#000000" font-family="Verdana" font-size="13" lengthAdjust="spacing" textLength="236" x="370" y="660.77">Ce n'est pas une opération système,</text><text fill="#000000" font-family="Verdana" font-size="13" lengthAdjust="spacing" textLength="300" x="370" y="675.9028">mais nous aide à déterminer la fin de la boucle</text><polygon fill="#A80036" points="347,724.2344,357,728.2344,347,732.2344" style="stroke:#A80036;stroke-width:1.0;"/><line style="stroke:#A80036;stroke-width:1.0;" x1="0" x2="353" y1="728.2344" y2="728.2344"/><text fill="#000000" font-family="Verdana" font-size="13" lengthAdjust="spacing" textLength="320" x="7" y="723.1685">information = recupererCoursSga(idGroupeCours)</text><path d="M364,693.9688 L364,748.9688 L664,748.9688 L664,703.9688 L654,693.9688 L364,693.9688 " fill="#FBFB77" style="stroke:#A80036;stroke-width:1.0;"/><path d="M654,693.9688 L654,703.9688 L664,703.9688 L654,693.9688 " fill="#FBFB77" style="stroke:#A80036;stroke-width:1.0;"/><text fill="#000000" font-family="Verdana" font-size="13" lengthAdjust="spacing" textLength="254" x="370" y="711.0356">EnseignantControlleur est l'objet racine.</text><text fill="#000000" font-family="Verdana" font-size="13" lengthAdjust="spacing" textLength="203" x="370" y="726.1685">Contrôleur ne s'applique pas ici,</text><text fill="#000000" font-family="Verdana" font-size="13" lengthAdjust="spacing" textLength="279" x="370" y="741.3013">car il ne s'agit pas d'une opération système</text><polygon fill="#A80036" points="855.5,771.5,865.5,775.5,855.5,779.5" style="stroke:#A80036;stroke-width:1.0;"/><line style="stroke:#A80036;stroke-width:1.0;" x1="359" x2="861.5" y1="775.5" y2="775.5"/><text fill="#000000" font-family="Verdana" font-size="13" lengthAdjust="spacing" textLength="232" x="366" y="770.4341">information = recupereCours(token)</text><!--MD5=[8d57e07539635e519cedf54b00aca0c0]
@startuml
skinparam style strictuml
skinparam defaultfontname Verdana
title RDCU pour ajouter question
participant ":EnseignantControleur" as sga
participant "operationCours : OperationCours" as opCours
participant "operationQuestion : OperationQuestion" as opQuestion
participant "q:Question" as question

->sga : cours = recupererCoursSga(token)
note left : Selon Contôleur,\nreçoit la première opération système
sga->opCours: cours = recupererCours(token)
note left : Selon expert, l'information Sgb est l'expert,\ncar il contient toutes les informations\nutiles pour les cours
loop [!terminerQuestion]
->gestionnaireQuestion : ajouterQuestion(idEspaceCours,\ntags,nom,texteQuestion,\nreponse,texteBonneReponse,\ntexteMauvaiseReponse)
 note left : Selon contôlleur de session,\nreçoit la deuxième opération système 
gestionnaireQuestion->universite : ajouterQuestion(idEspaceCours,\ntags,nom,texteQuestion,\nreponse,texteBonneReponse,\ntexteMauvaiseReponse)
gestionnaireQuestion -> universite: c = recupererUnCours(id)
  note left : Selon expert, universite est l'expert,\ncar il contient toutes les informations\nutiles pour les EspaceCours
gestionnaireQuestion-> cours : ajouterQuestion(tags,nom,texteQuestion,\nreponse,texteBonneReponse,\ntexteMauvaiseReponse)
  note left : Selon expert, espaceCours est l'expert,\ncar il contient toutes les informations\nutiles pour les questions
create question
  cours->question : q = create()
    note left : selon Créateur\n(EspaceCours \n contient Question)
cours->cours : ajouterQuestion(q)
  note left : Selon expert, espaceCours est l'expert,\ncar il contient toutes les informations\nutiles pour les questions
end
-> sga : terminerAjouterQuestion()
note left : Ce n'est pas une opération système, \nmais nous aide à déterminer la fin de la boucle
  -> sga : information = recupererCoursSga(idGroupeCours)
  note left : EnseignantControlleur est l'objet racine.\nContrôleur ne s'applique pas ici,\ncar il ne s'agit pas d'une opération système
  sga -> opQuestion : information = recupereCours(token)
@enduml

PlantUML version 1.2021.9beta2(Unknown compile time)
(GPL source distribution)
Java Runtime: Java(TM) SE Runtime Environment
JVM: Java HotSpot(TM) 64-Bit Server VM
Default Encoding: UTF-8
Language: en
Country: US
--></g></svg>