<?xml version="1.0" encoding="UTF-8" standalone="no"?><svg xmlns="http://www.w3.org/2000/svg" xmlns:xlink="http://www.w3.org/1999/xlink" contentScriptType="application/ecmascript" contentStyleType="text/css" height="705px" preserveAspectRatio="none" style="width:1229px;height:705px;background:#FFFFFF;" version="1.1" viewBox="0 0 1229 705" width="1229px" zoomAndPan="magnify"><defs/><g><text fill="#000000" font-family="Verdana" font-size="18" lengthAdjust="spacing" textLength="262" x="485.5" y="28.708">RDCU pour ajouter question</text><rect fill="#FFFFFF" height="296.9922" style="stroke:#000000;stroke-width:2.0;" width="1213" x="10" y="203.9141"/><line style="stroke:#A80036;stroke-width:1.0;stroke-dasharray:5.0,5.0;" x1="453" x2="453" y1="71.25" y2="698.9688"/><line style="stroke:#A80036;stroke-width:1.0;stroke-dasharray:5.0,5.0;" x1="676" x2="676" y1="71.25" y2="698.9688"/><line style="stroke:#A80036;stroke-width:1.0;stroke-dasharray:5.0,5.0;" x1="961" x2="961" y1="71.25" y2="698.9688"/><line style="stroke:#A80036;stroke-width:1.0;stroke-dasharray:5.0,5.0;" x1="1167" x2="1167" y1="412.8086" y2="698.9688"/><rect fill="#FEFECE" height="30.2969" style="stroke:#A80036;stroke-width:1.5;" width="176" x="365" y="39.9531"/><text fill="#000000" font-family="Verdana" font-size="14" lengthAdjust="spacing" textLength="162" x="372" y="59.9482">:EnseignantControleur</text><rect fill="#FEFECE" height="30.2969" style="stroke:#A80036;stroke-width:1.5;" width="251" x="551" y="39.9531"/><text fill="#000000" font-family="Verdana" font-size="14" lengthAdjust="spacing" textLength="237" x="558" y="59.9482">operationCours : OperationCours</text><rect fill="#FEFECE" height="30.2969" style="stroke:#A80036;stroke-width:1.5;" width="299" x="812" y="39.9531"/><text fill="#000000" font-family="Verdana" font-size="14" lengthAdjust="spacing" textLength="285" x="819" y="59.9482">operationQuestion : OperationQuestion</text><polygon fill="#A80036" points="441,108.9492,451,112.9492,441,116.9492" style="stroke:#A80036;stroke-width:1.0;"/><line style="stroke:#A80036;stroke-width:1.0;" x1="0" x2="447" y1="112.9492" y2="112.9492"/><text fill="#000000" font-family="Verdana" font-size="13" lengthAdjust="spacing" textLength="222" x="7" y="107.8833">cours = recupererCoursSga(token)</text><path d="M458,86.25 L458,126.25 L717,126.25 L717,96.25 L707,86.25 L458,86.25 " fill="#FBFB77" style="stroke:#A80036;stroke-width:1.0;"/><path d="M707,86.25 L707,96.25 L717,96.25 L707,86.25 " fill="#FBFB77" style="stroke:#A80036;stroke-width:1.0;"/><text fill="#000000" font-family="Verdana" font-size="13" lengthAdjust="spacing" textLength="105" x="464" y="103.3169">Selon Contôleur,</text><text fill="#000000" font-family="Verdana" font-size="13" lengthAdjust="spacing" textLength="238" x="464" y="118.4497">reçoit la première opération système</text><polygon fill="#A80036" points="664.5,166.7813,674.5,170.7813,664.5,174.7813" style="stroke:#A80036;stroke-width:1.0;"/><line style="stroke:#A80036;stroke-width:1.0;" x1="453" x2="670.5" y1="170.7813" y2="170.7813"/><text fill="#000000" font-family="Verdana" font-size="13" lengthAdjust="spacing" textLength="198" x="460" y="165.7153">cours = recupererCours(token)</text><path d="M160,136.5156 L160,191.5156 L448,191.5156 L448,146.5156 L438,136.5156 L160,136.5156 " fill="#FBFB77" style="stroke:#A80036;stroke-width:1.0;"/><path d="M438,136.5156 L438,146.5156 L448,146.5156 L438,136.5156 " fill="#FBFB77" style="stroke:#A80036;stroke-width:1.0;"/><text fill="#000000" font-family="Verdana" font-size="13" lengthAdjust="spacing" textLength="267" x="166" y="153.5825">Selon expert, operationCours est l'expert,</text><text fill="#000000" font-family="Verdana" font-size="13" lengthAdjust="spacing" textLength="238" x="166" y="168.7153">car il contient toutes les informations</text><text fill="#000000" font-family="Verdana" font-size="13" lengthAdjust="spacing" textLength="128" x="166" y="183.8481">utiles pour les cours</text><path d="M10,203.9141 L88,203.9141 L88,210.9141 L78,220.9141 L10,220.9141 L10,203.9141 " fill="#EEEEEE" style="stroke:#000000;stroke-width:1.0;"/><rect fill="none" height="296.9922" style="stroke:#000000;stroke-width:2.0;" width="1213" x="10" y="203.9141"/><text fill="#000000" font-family="Verdana" font-size="13" font-weight="bold" lengthAdjust="spacing" textLength="33" x="25" y="216.981">loop</text><a href="!terminerQuestion" target="_top" title="!terminerQuestion" xlink:actuate="onRequest" xlink:href="!terminerQuestion" xlink:show="new" xlink:title="!terminerQuestion" xlink:type="simple"><text fill="#0000FF" font-family="Verdana" font-size="11" font-weight="bold" lengthAdjust="spacing" text-decoration="underline" textLength="126" x="103" y="216.1245">!terminerQuestion</text></a><polygon fill="#A80036" points="441,283.5781,451,287.5781,441,291.5781" style="stroke:#A80036;stroke-width:1.0;"/><line style="stroke:#A80036;stroke-width:1.0;" x1="0" x2="447" y1="287.5781" y2="287.5781"/><text fill="#000000" font-family="Verdana" font-size="13" lengthAdjust="spacing" textLength="208" x="7" y="237.1138">ajouterQuestion(numeroGroupe,</text><text fill="#000000" font-family="Verdana" font-size="13" lengthAdjust="spacing" textLength="160" x="7" y="252.2466">tags,nom,texteQuestion,</text><text fill="#000000" font-family="Verdana" font-size="13" lengthAdjust="spacing" textLength="190" x="7" y="267.3794">reponse,texteBonneReponse,</text><text fill="#000000" font-family="Verdana" font-size="13" lengthAdjust="spacing" textLength="155" x="7" y="282.5122">texteMauvaiseReponse)</text><path d="M458,238.1797 L458,278.1797 L723,278.1797 L723,248.1797 L713,238.1797 L458,238.1797 " fill="#FBFB77" style="stroke:#A80036;stroke-width:1.0;"/><path d="M713,238.1797 L713,248.1797 L723,248.1797 L713,238.1797 " fill="#FBFB77" style="stroke:#A80036;stroke-width:1.0;"/><text fill="#000000" font-family="Verdana" font-size="13" lengthAdjust="spacing" textLength="105" x="464" y="255.2466">Selon Contôleur,</text><text fill="#000000" font-family="Verdana" font-size="13" lengthAdjust="spacing" textLength="244" x="464" y="270.3794">reçoit la deuxième opération système</text><polygon fill="#A80036" points="949.5,358.1094,959.5,362.1094,949.5,366.1094" style="stroke:#A80036;stroke-width:1.0;"/><line style="stroke:#A80036;stroke-width:1.0;" x1="453" x2="955.5" y1="362.1094" y2="362.1094"/><text fill="#000000" font-family="Verdana" font-size="13" lengthAdjust="spacing" textLength="204" x="460" y="311.645">ajouterElement(numeroGroupe,</text><text fill="#000000" font-family="Verdana" font-size="13" lengthAdjust="spacing" textLength="160" x="460" y="326.7778">tags,nom,texteQuestion,</text><text fill="#000000" font-family="Verdana" font-size="13" lengthAdjust="spacing" textLength="190" x="460" y="341.9106">reponse,texteBonneReponse,</text><text fill="#000000" font-family="Verdana" font-size="13" lengthAdjust="spacing" textLength="155" x="460" y="357.0435">texteMauvaiseReponse)</text><path d="M20,305.1445 L20,360.1445 L448,360.1445 L448,315.1445 L438,305.1445 L20,305.1445 " fill="#FBFB77" style="stroke:#A80036;stroke-width:1.0;"/><path d="M438,305.1445 L438,315.1445 L448,315.1445 L438,305.1445 " fill="#FBFB77" style="stroke:#A80036;stroke-width:1.0;"/><text fill="#000000" font-family="Verdana" font-size="13" lengthAdjust="spacing" textLength="271" x="26" y="322.2114">Selon fabrication pure : operationQuestion</text><text fill="#000000" font-family="Verdana" font-size="13" lengthAdjust="spacing" textLength="286" x="26" y="337.3442">ne represente pas un problème du domaine,</text><text fill="#000000" font-family="Verdana" font-size="13" lengthAdjust="spacing" textLength="407" x="26" y="352.4771">mais permet de réduire le couplage et d'augmenter la cohésion</text><polygon fill="#A80036" points="1109,387.2422,1119,391.2422,1109,395.2422" style="stroke:#A80036;stroke-width:1.0;"/><line style="stroke:#A80036;stroke-width:1.0;" x1="961.5" x2="1115" y1="391.2422" y2="391.2422"/><text fill="#000000" font-family="Verdana" font-size="13" lengthAdjust="spacing" textLength="77" x="968.5" y="386.1763">q = create()</text><rect fill="#FEFECE" height="30.2969" style="stroke:#A80036;stroke-width:1.5;" width="92" x="1121" y="382.1602"/><text fill="#000000" font-family="Verdana" font-size="14" lengthAdjust="spacing" textLength="78" x="1128" y="402.1553">q:Question</text><path d="M789,375.1094 L789,430.1094 L956,430.1094 L956,385.1094 L946,375.1094 L789,375.1094 " fill="#FBFB77" style="stroke:#A80036;stroke-width:1.0;"/><path d="M946,375.1094 L946,385.1094 L956,385.1094 L946,375.1094 " fill="#FBFB77" style="stroke:#A80036;stroke-width:1.0;"/><text fill="#000000" font-family="Verdana" font-size="13" lengthAdjust="spacing" textLength="94" x="795" y="392.1763">selon Créateur</text><text fill="#000000" font-family="Verdana" font-size="13" lengthAdjust="spacing" textLength="146" x="795" y="407.3091">(EnseignantControlleur</text><text fill="#000000" font-family="Verdana" font-size="13" lengthAdjust="spacing" textLength="128" x="795" y="422.4419">utilise groupeCours)</text><line style="stroke:#A80036;stroke-width:1.0;" x1="961.5" x2="1003.5" y1="468.2734" y2="468.2734"/><line style="stroke:#A80036;stroke-width:1.0;" x1="1003.5" x2="1003.5" y1="468.2734" y2="481.2734"/><line style="stroke:#A80036;stroke-width:1.0;" x1="962.5" x2="1003.5" y1="481.2734" y2="481.2734"/><polygon fill="#A80036" points="972.5,477.2734,962.5,481.2734,972.5,485.2734" style="stroke:#A80036;stroke-width:1.0;"/><text fill="#000000" font-family="Verdana" font-size="13" lengthAdjust="spacing" textLength="120" x="968.5" y="463.2075">ajouterQuestion(q)</text><path d="M648,440.5078 L648,495.5078 L956,495.5078 L956,450.5078 L946,440.5078 L648,440.5078 " fill="#FBFB77" style="stroke:#A80036;stroke-width:1.0;"/><path d="M946,440.5078 L946,450.5078 L956,450.5078 L946,440.5078 " fill="#FBFB77" style="stroke:#A80036;stroke-width:1.0;"/><text fill="#000000" font-family="Verdana" font-size="13" lengthAdjust="spacing" textLength="287" x="654" y="457.5747">Selon expert, operationQuestion est l'expert,</text><text fill="#000000" font-family="Verdana" font-size="13" lengthAdjust="spacing" textLength="238" x="654" y="472.7075">car il contient toutes les informations</text><text fill="#000000" font-family="Verdana" font-size="13" lengthAdjust="spacing" textLength="155" x="654" y="487.8403">utiles pour les questions</text><polygon fill="#A80036" points="441,535.6055,451,539.6055,441,543.6055" style="stroke:#A80036;stroke-width:1.0;"/><line style="stroke:#A80036;stroke-width:1.0;" x1="0" x2="447" y1="539.6055" y2="539.6055"/><text fill="#000000" font-family="Verdana" font-size="13" lengthAdjust="spacing" textLength="168" x="7" y="534.5396">terminerAjouterQuestion()</text><path d="M458,512.9063 L458,552.9063 L779,552.9063 L779,522.9063 L769,512.9063 L458,512.9063 " fill="#FBFB77" style="stroke:#A80036;stroke-width:1.0;"/><path d="M769,512.9063 L769,522.9063 L779,522.9063 L769,512.9063 " fill="#FBFB77" style="stroke:#A80036;stroke-width:1.0;"/><text fill="#000000" font-family="Verdana" font-size="13" lengthAdjust="spacing" textLength="236" x="464" y="529.9731">Ce n'est pas une opération système,</text><text fill="#000000" font-family="Verdana" font-size="13" lengthAdjust="spacing" textLength="300" x="464" y="545.106">mais nous aide à déterminer la fin de la boucle</text><polygon fill="#A80036" points="441,593.4375,451,597.4375,441,601.4375" style="stroke:#A80036;stroke-width:1.0;"/><line style="stroke:#A80036;stroke-width:1.0;" x1="0" x2="447" y1="597.4375" y2="597.4375"/><text fill="#000000" font-family="Verdana" font-size="13" lengthAdjust="spacing" textLength="320" x="7" y="592.3716">information = recupererCoursSga(idGroupeCours)</text><path d="M458,563.1719 L458,618.1719 L758,618.1719 L758,573.1719 L748,563.1719 L458,563.1719 " fill="#FBFB77" style="stroke:#A80036;stroke-width:1.0;"/><path d="M748,563.1719 L748,573.1719 L758,573.1719 L748,563.1719 " fill="#FBFB77" style="stroke:#A80036;stroke-width:1.0;"/><text fill="#000000" font-family="Verdana" font-size="13" lengthAdjust="spacing" textLength="254" x="464" y="580.2388">EnseignantControlleur est l'objet racine.</text><text fill="#000000" font-family="Verdana" font-size="13" lengthAdjust="spacing" textLength="203" x="464" y="595.3716">Contrôleur ne s'applique pas ici,</text><text fill="#000000" font-family="Verdana" font-size="13" lengthAdjust="spacing" textLength="279" x="464" y="610.5044">car il ne s'agit pas d'une opération système</text><polygon fill="#A80036" points="949.5,658.8359,959.5,662.8359,949.5,666.8359" style="stroke:#A80036;stroke-width:1.0;"/><line style="stroke:#A80036;stroke-width:1.0;" x1="453" x2="955.5" y1="662.8359" y2="662.8359"/><text fill="#000000" font-family="Verdana" font-size="13" lengthAdjust="spacing" textLength="232" x="460" y="657.77">information = recupereCours(token)</text><path d="M73,628.5703 L73,683.5703 L448,683.5703 L448,638.5703 L438,628.5703 L73,628.5703 " fill="#FBFB77" style="stroke:#A80036;stroke-width:1.0;"/><path d="M438,628.5703 L438,638.5703 L448,638.5703 L438,628.5703 " fill="#FBFB77" style="stroke:#A80036;stroke-width:1.0;"/><text fill="#000000" font-family="Verdana" font-size="13" lengthAdjust="spacing" textLength="354" x="79" y="645.6372">note left : Selon expert, operationQuestion est l'expert,</text><text fill="#000000" font-family="Verdana" font-size="13" lengthAdjust="spacing" textLength="238" x="79" y="660.77">car il contient toutes les informations</text><text fill="#000000" font-family="Verdana" font-size="13" lengthAdjust="spacing" textLength="155" x="79" y="675.9028">utiles pour les questions</text><!--MD5=[9a88cfbc9eb6a65247cae49dea77dd9b]
@startuml
skinparam style strictuml
skinparam defaultfontname Verdana
title RDCU pour ajouter question
participant ":EnseignantControleur" as sga
participant "operationCours : OperationCours" as opCours
participant "operationQuestion : OperationQuestion" as opQuestion
participant "q:Question" as question

->sga : cours = recupererCoursSga(token)
note left : Selon Contôleur,\nreçoit la première opération système
sga->opCours: cours = recupererCours(token)
note left : Selon expert, operationCours est l'expert,\ncar il contient toutes les informations\nutiles pour les cours
loop [!terminerQuestion]
-> sga : ajouterQuestion(numeroGroupe,\ntags,nom,texteQuestion,\nreponse,texteBonneReponse,\ntexteMauvaiseReponse)
 note left : Selon Contôleur,\nreçoit la deuxième opération système 
  sga->opQuestion : ajouterElement(numeroGroupe,\ntags,nom,texteQuestion,\nreponse,texteBonneReponse,\ntexteMauvaiseReponse)
  note left : Selon fabrication pure : operationQuestion\nne represente pas un problème du domaine,\nmais permet de réduire le couplage et d'augmenter la cohésion
  create question
  opQuestion->question : q = create()
  note left : selon Créateur\n(EnseignantControlleur\nutilise groupeCours)
  opQuestion->opQuestion : ajouterQuestion(q)
  note left : Selon expert, operationQuestion est l'expert,\ncar il contient toutes les informations\nutiles pour les questions
end
-> sga : terminerAjouterQuestion()
note left : Ce n'est pas une opération système, \nmais nous aide à déterminer la fin de la boucle
  -> sga : information = recupererCoursSga(idGroupeCours)
  note left : EnseignantControlleur est l'objet racine.\nContrôleur ne s'applique pas ici,\ncar il ne s'agit pas d'une opération système
  sga -> opQuestion : information = recupereCours(token)
  note left :   note left : Selon expert, operationQuestion est l'expert,\ncar il contient toutes les informations\nutiles pour les questions
@enduml

PlantUML version 1.2021.7(Sun May 23 12:40:07 UTC 2021)
(GPL source distribution)
Java Runtime: Java(TM) SE Runtime Environment
JVM: Java HotSpot(TM) 64-Bit Server VM
Default Encoding: UTF-8
Language: en
Country: US
--></g></svg>