<?xml version="1.0" encoding="UTF-8" standalone="no"?><svg xmlns="http://www.w3.org/2000/svg" xmlns:xlink="http://www.w3.org/1999/xlink" contentScriptType="application/ecmascript" contentStyleType="text/css" height="459px" preserveAspectRatio="none" style="width:1117px;height:459px;background:#FFFFFF;" version="1.1" viewBox="0 0 1117 459" width="1117px" zoomAndPan="magnify"><defs/><g><text fill="#000000" font-family="Verdana" font-size="18" lengthAdjust="spacing" textLength="259" x="431" y="28.708">RDCU pour ajouterQuestion</text><rect fill="#FFFFFF" height="296.9922" style="stroke:#000000;stroke-width:2.0;" width="1101" x="10" y="88.25"/><line style="stroke:#A80036;stroke-width:1.0;stroke-dasharray:5.0,5.0;" x1="341" x2="341" y1="71.25" y2="452.5078"/><line style="stroke:#A80036;stroke-width:1.0;stroke-dasharray:5.0,5.0;" x1="564" x2="564" y1="71.25" y2="452.5078"/><line style="stroke:#A80036;stroke-width:1.0;stroke-dasharray:5.0,5.0;" x1="849" x2="849" y1="71.25" y2="452.5078"/><line style="stroke:#A80036;stroke-width:1.0;stroke-dasharray:5.0,5.0;" x1="1055" x2="1055" y1="297.1445" y2="452.5078"/><rect fill="#FEFECE" height="30.2969" style="stroke:#A80036;stroke-width:1.5;" width="176" x="253" y="39.9531"/><text fill="#000000" font-family="Verdana" font-size="14" lengthAdjust="spacing" textLength="162" x="260" y="59.9482">:EnseignantControleur</text><rect fill="#FEFECE" height="30.2969" style="stroke:#A80036;stroke-width:1.5;" width="251" x="439" y="39.9531"/><text fill="#000000" font-family="Verdana" font-size="14" lengthAdjust="spacing" textLength="237" x="446" y="59.9482">operationCours : OperationCours</text><rect fill="#FEFECE" height="30.2969" style="stroke:#A80036;stroke-width:1.5;" width="299" x="700" y="39.9531"/><text fill="#000000" font-family="Verdana" font-size="14" lengthAdjust="spacing" textLength="285" x="707" y="59.9482">operationQuestion : OperationQuestion</text><path d="M10,88.25 L88,88.25 L88,95.25 L78,105.25 L10,105.25 L10,88.25 " fill="#EEEEEE" style="stroke:#000000;stroke-width:1.0;"/><rect fill="none" height="296.9922" style="stroke:#000000;stroke-width:2.0;" width="1101" x="10" y="88.25"/><text fill="#000000" font-family="Verdana" font-size="13" font-weight="bold" lengthAdjust="spacing" textLength="33" x="25" y="101.3169">loop</text><a href="!terminerQuestion" target="_top" title="!terminerQuestion" xlink:actuate="onRequest" xlink:href="!terminerQuestion" xlink:show="new" xlink:title="!terminerQuestion" xlink:type="simple"><text fill="#0000FF" font-family="Verdana" font-size="11" font-weight="bold" lengthAdjust="spacing" text-decoration="underline" textLength="126" x="103" y="100.4604">!terminerQuestion</text></a><polygon fill="#A80036" points="329,167.9141,339,171.9141,329,175.9141" style="stroke:#A80036;stroke-width:1.0;"/><line style="stroke:#A80036;stroke-width:1.0;" x1="0" x2="335" y1="171.9141" y2="171.9141"/><text fill="#000000" font-family="Verdana" font-size="13" lengthAdjust="spacing" textLength="208" x="7" y="121.4497">ajouterQuestion(numeroGroupe,</text><text fill="#000000" font-family="Verdana" font-size="13" lengthAdjust="spacing" textLength="160" x="7" y="136.5825">tags,nom,texteQuestion,</text><text fill="#000000" font-family="Verdana" font-size="13" lengthAdjust="spacing" textLength="190" x="7" y="151.7153">reponse,texteBonneReponse,</text><text fill="#000000" font-family="Verdana" font-size="13" lengthAdjust="spacing" textLength="155" x="7" y="166.8481">texteMauvaiseReponse)</text><path d="M346,122.5156 L346,162.5156 L611,162.5156 L611,132.5156 L601,122.5156 L346,122.5156 " fill="#FBFB77" style="stroke:#A80036;stroke-width:1.0;"/><path d="M601,122.5156 L601,132.5156 L611,132.5156 L601,122.5156 " fill="#FBFB77" style="stroke:#A80036;stroke-width:1.0;"/><text fill="#000000" font-family="Verdana" font-size="13" lengthAdjust="spacing" textLength="105" x="352" y="139.5825">Selon Contôleur,</text><text fill="#000000" font-family="Verdana" font-size="13" lengthAdjust="spacing" textLength="244" x="352" y="154.7153">reçoit la deuxième opération système</text><polygon fill="#A80036" points="837.5,242.4453,847.5,246.4453,837.5,250.4453" style="stroke:#A80036;stroke-width:1.0;"/><line style="stroke:#A80036;stroke-width:1.0;" x1="341" x2="843.5" y1="246.4453" y2="246.4453"/><text fill="#000000" font-family="Verdana" font-size="13" lengthAdjust="spacing" textLength="204" x="348" y="195.981">ajouterElement(numeroGroupe,</text><text fill="#000000" font-family="Verdana" font-size="13" lengthAdjust="spacing" textLength="160" x="348" y="211.1138">tags,nom,texteQuestion,</text><text fill="#000000" font-family="Verdana" font-size="13" lengthAdjust="spacing" textLength="190" x="348" y="226.2466">reponse,texteBonneReponse,</text><text fill="#000000" font-family="Verdana" font-size="13" lengthAdjust="spacing" textLength="155" x="348" y="241.3794">texteMauvaiseReponse)</text><path d="M20,197.0469 L20,237.0469 L336,237.0469 L336,207.0469 L326,197.0469 L20,197.0469 " fill="#FBFB77" style="stroke:#A80036;stroke-width:1.0;"/><path d="M326,197.0469 L326,207.0469 L336,207.0469 L326,197.0469 " fill="#FBFB77" style="stroke:#A80036;stroke-width:1.0;"/><text fill="#000000" font-family="Verdana" font-size="13" lengthAdjust="spacing" textLength="243" x="26" y="214.1138">Selon expert, operationCours contient</text><text fill="#000000" font-family="Verdana" font-size="13" lengthAdjust="spacing" textLength="295" x="26" y="229.2466">toutes les informations par rapport aux cours.</text><polygon fill="#A80036" points="997,271.5781,1007,275.5781,997,279.5781" style="stroke:#A80036;stroke-width:1.0;"/><line style="stroke:#A80036;stroke-width:1.0;" x1="849.5" x2="1003" y1="275.5781" y2="275.5781"/><text fill="#000000" font-family="Verdana" font-size="13" lengthAdjust="spacing" textLength="77" x="856.5" y="270.5122">q = create()</text><rect fill="#FEFECE" height="30.2969" style="stroke:#A80036;stroke-width:1.5;" width="92" x="1009" y="266.4961"/><text fill="#000000" font-family="Verdana" font-size="14" lengthAdjust="spacing" textLength="78" x="1016" y="286.4912">q:Question</text><path d="M677,259.4453 L677,314.4453 L844,314.4453 L844,269.4453 L834,259.4453 L677,259.4453 " fill="#FBFB77" style="stroke:#A80036;stroke-width:1.0;"/><path d="M834,259.4453 L834,269.4453 L844,269.4453 L834,259.4453 " fill="#FBFB77" style="stroke:#A80036;stroke-width:1.0;"/><text fill="#000000" font-family="Verdana" font-size="13" lengthAdjust="spacing" textLength="94" x="683" y="276.5122">selon Créateur</text><text fill="#000000" font-family="Verdana" font-size="13" lengthAdjust="spacing" textLength="146" x="683" y="291.645">(EnseignantControlleur</text><text fill="#000000" font-family="Verdana" font-size="13" lengthAdjust="spacing" textLength="128" x="683" y="306.7778">utilise groupeCours)</text><line style="stroke:#A80036;stroke-width:1.0;" x1="849.5" x2="891.5" y1="352.6094" y2="352.6094"/><line style="stroke:#A80036;stroke-width:1.0;" x1="891.5" x2="891.5" y1="352.6094" y2="365.6094"/><line style="stroke:#A80036;stroke-width:1.0;" x1="850.5" x2="891.5" y1="365.6094" y2="365.6094"/><polygon fill="#A80036" points="860.5,361.6094,850.5,365.6094,860.5,369.6094" style="stroke:#A80036;stroke-width:1.0;"/><text fill="#000000" font-family="Verdana" font-size="13" lengthAdjust="spacing" textLength="120" x="856.5" y="347.5435">ajouterQuestion(q)</text><path d="M536,324.8438 L536,379.8438 L844,379.8438 L844,334.8438 L834,324.8438 L536,324.8438 " fill="#FBFB77" style="stroke:#A80036;stroke-width:1.0;"/><path d="M834,324.8438 L834,334.8438 L844,334.8438 L834,324.8438 " fill="#FBFB77" style="stroke:#A80036;stroke-width:1.0;"/><text fill="#000000" font-family="Verdana" font-size="13" lengthAdjust="spacing" textLength="287" x="542" y="341.9106">Selon expert, operationQuestion est l'expert,</text><text fill="#000000" font-family="Verdana" font-size="13" lengthAdjust="spacing" textLength="238" x="542" y="357.0435">car il contient toutes les informations</text><text fill="#000000" font-family="Verdana" font-size="13" lengthAdjust="spacing" textLength="155" x="542" y="372.1763">utiles pour les questions</text><polygon fill="#A80036" points="329,419.9414,339,423.9414,329,427.9414" style="stroke:#A80036;stroke-width:1.0;"/><line style="stroke:#A80036;stroke-width:1.0;" x1="0" x2="335" y1="423.9414" y2="423.9414"/><text fill="#000000" font-family="Verdana" font-size="13" lengthAdjust="spacing" textLength="168" x="7" y="418.8755">terminerAjouterQuestion()</text><path d="M346,397.2422 L346,437.2422 L667,437.2422 L667,407.2422 L657,397.2422 L346,397.2422 " fill="#FBFB77" style="stroke:#A80036;stroke-width:1.0;"/><path d="M657,397.2422 L657,407.2422 L667,407.2422 L657,397.2422 " fill="#FBFB77" style="stroke:#A80036;stroke-width:1.0;"/><text fill="#000000" font-family="Verdana" font-size="13" lengthAdjust="spacing" textLength="236" x="352" y="414.3091">Ce n'est pas une opération système,</text><text fill="#000000" font-family="Verdana" font-size="13" lengthAdjust="spacing" textLength="300" x="352" y="429.4419">mais nous aide à déterminer la fin de la boucle</text><!--MD5=[cd6044b0674086812be514bb5deb9f0c]
@startuml
skinparam style strictuml
skinparam defaultfontname Verdana
title RDCU pour ajouterQuestion
participant ":EnseignantControleur" as sga
participant "operationCours : OperationCours" as opCours
participant "operationQuestion : OperationQuestion" as opQuestion
participant "q:Question" as question
loop [!terminerQuestion]
-> sga : ajouterQuestion(numeroGroupe,\ntags,nom,texteQuestion,\nreponse,texteBonneReponse,\ntexteMauvaiseReponse)
 note left : Selon Contôleur,\nreçoit la deuxième opération système 
  sga->opQuestion : ajouterElement(numeroGroupe,\ntags,nom,texteQuestion,\nreponse,texteBonneReponse,\ntexteMauvaiseReponse)
  note left :Selon expert, operationCours contient\ntoutes les informations par rapport aux cours.
  create question
  opQuestion->question : q = create()
  note left : selon Créateur\n(EnseignantControlleur\nutilise groupeCours)
  opQuestion->opQuestion : ajouterQuestion(q)
  note left : Selon expert, operationQuestion est l'expert,\ncar il contient toutes les informations\nutiles pour les questions
end
-> sga : terminerAjouterQuestion()
note left : Ce n'est pas une opération système, \nmais nous aide à déterminer la fin de la boucle
@enduml

PlantUML version 1.2021.7(Sun May 23 12:40:07 UTC 2021)
(GPL source distribution)
Java Runtime: Java(TM) SE Runtime Environment
JVM: Java HotSpot(TM) 64-Bit Server VM
Default Encoding: UTF-8
Language: en
Country: US
--></g></svg>