<?xml version="1.0" encoding="UTF-8" standalone="no"?><svg xmlns="http://www.w3.org/2000/svg" xmlns:xlink="http://www.w3.org/1999/xlink" contentScriptType="application/ecmascript" contentStyleType="text/css" height="544px" preserveAspectRatio="none" style="width:1309px;height:544px;background:#FFFFFF;" version="1.1" viewBox="0 0 1309 544" width="1309px" zoomAndPan="magnify"><defs/><g><text fill="#000000" font-family="Verdana" font-size="18" lengthAdjust="spacing" textLength="259" x="527.25" y="28.708">RDCU pour ajouterQuestion</text><rect fill="#FFFFFF" height="397.5234" style="stroke:#000000;stroke-width:2.0;" width="1293.5" x="10" y="88.25"/><line style="stroke:#A80036;stroke-width:1.0;stroke-dasharray:5.0,5.0;" x1="380.5" x2="380.5" y1="71.25" y2="537.9063"/><line style="stroke:#A80036;stroke-width:1.0;stroke-dasharray:5.0,5.0;" x1="772" x2="772" y1="71.25" y2="537.9063"/><line style="stroke:#A80036;stroke-width:1.0;stroke-dasharray:5.0,5.0;" x1="971" x2="971" y1="71.25" y2="537.9063"/><line style="stroke:#A80036;stroke-width:1.0;stroke-dasharray:5.0,5.0;" x1="1247.5" x2="1247.5" y1="332.2773" y2="537.9063"/><rect fill="#FEFECE" height="30.2969" style="stroke:#A80036;stroke-width:1.5;" width="179" x="291.5" y="39.9531"/><text fill="#000000" font-family="Verdana" font-size="14" lengthAdjust="spacing" textLength="165" x="298.5" y="59.9482">: GestionnaireQuestion</text><rect fill="#FEFECE" height="30.2969" style="stroke:#A80036;stroke-width:1.5;" width="170" x="687" y="39.9531"/><text fill="#000000" font-family="Verdana" font-size="14" lengthAdjust="spacing" textLength="156" x="694" y="59.9482">universite : Universite</text><rect fill="#FEFECE" height="30.2969" style="stroke:#A80036;stroke-width:1.5;" width="209" x="867" y="39.9531"/><text fill="#000000" font-family="Verdana" font-size="14" lengthAdjust="spacing" textLength="195" x="874" y="59.9482">espaceCours : EspaceCours</text><path d="M10,88.25 L88,88.25 L88,95.25 L78,105.25 L10,105.25 L10,88.25 " fill="#EEEEEE" style="stroke:#000000;stroke-width:1.0;"/><rect fill="none" height="397.5234" style="stroke:#000000;stroke-width:2.0;" width="1293.5" x="10" y="88.25"/><text fill="#000000" font-family="Verdana" font-size="13" font-weight="bold" lengthAdjust="spacing" textLength="33" x="25" y="101.3169">loop</text><a href="!terminerQuestion" target="_top" title="!terminerQuestion" xlink:actuate="onRequest" xlink:href="!terminerQuestion" xlink:show="new" xlink:title="!terminerQuestion" xlink:type="simple"><text fill="#0000FF" font-family="Verdana" font-size="11" font-weight="bold" lengthAdjust="spacing" text-decoration="underline" textLength="126" x="103" y="100.4604">!terminerQuestion</text></a><polygon fill="#A80036" points="369,167.9141,379,171.9141,369,175.9141" style="stroke:#A80036;stroke-width:1.0;"/><line style="stroke:#A80036;stroke-width:1.0;" x1="0" x2="375" y1="171.9141" y2="171.9141"/><text fill="#000000" font-family="Verdana" font-size="13" lengthAdjust="spacing" textLength="285" x="7" y="121.4497">questions = ajouterQuestion(idEspaceCours,</text><text fill="#000000" font-family="Verdana" font-size="13" lengthAdjust="spacing" textLength="160" x="7" y="136.5825">tags,nom,texteQuestion,</text><text fill="#000000" font-family="Verdana" font-size="13" lengthAdjust="spacing" textLength="190" x="7" y="151.7153">reponse,texteBonneReponse,</text><text fill="#000000" font-family="Verdana" font-size="13" lengthAdjust="spacing" textLength="155" x="7" y="166.8481">texteMauvaiseReponse)</text><path d="M386,122.5156 L386,162.5156 L574,162.5156 L574,132.5156 L564,122.5156 L386,122.5156 " fill="#FBFB77" style="stroke:#A80036;stroke-width:1.0;"/><path d="M564,122.5156 L564,132.5156 L574,132.5156 L564,122.5156 " fill="#FBFB77" style="stroke:#A80036;stroke-width:1.0;"/><text fill="#000000" font-family="Verdana" font-size="13" lengthAdjust="spacing" textLength="106" x="392" y="139.5825">Selon contôlleur,</text><text fill="#000000" font-family="Verdana" font-size="13" lengthAdjust="spacing" textLength="167" x="392" y="154.7153">reçoit l'opération système</text><polygon fill="#A80036" points="760,207.6133,770,211.6133,760,215.6133" style="stroke:#A80036;stroke-width:1.0;"/><line style="stroke:#A80036;stroke-width:1.0;" x1="381" x2="766" y1="211.6133" y2="211.6133"/><text fill="#000000" font-family="Verdana" font-size="13" lengthAdjust="spacing" textLength="367" x="388" y="206.5474">espaceCours = recupererUnEspaceCours(idEspaceCours)</text><path d="M75,184.9141 L75,224.9141 L376,224.9141 L376,194.9141 L366,184.9141 L75,184.9141 " fill="#FBFB77" style="stroke:#A80036;stroke-width:1.0;"/><path d="M366,184.9141 L366,194.9141 L376,194.9141 L366,184.9141 " fill="#FBFB77" style="stroke:#A80036;stroke-width:1.0;"/><text fill="#000000" font-family="Verdana" font-size="13" lengthAdjust="spacing" textLength="231" x="81" y="201.981">Selon expert, universite a toutes les</text><text fill="#000000" font-family="Verdana" font-size="13" lengthAdjust="spacing" textLength="280" x="81" y="217.1138">informations pour recupererUnEspaceCours</text><polygon fill="#A80036" points="959.5,277.5781,969.5,281.5781,959.5,285.5781" style="stroke:#A80036;stroke-width:1.0;"/><line style="stroke:#A80036;stroke-width:1.0;" x1="381" x2="965.5" y1="281.5781" y2="281.5781"/><text fill="#000000" font-family="Verdana" font-size="13" lengthAdjust="spacing" textLength="267" x="388" y="246.2466">ajouterQuestion(tags,nom,texteQuestion,</text><text fill="#000000" font-family="Verdana" font-size="13" lengthAdjust="spacing" textLength="190" x="388" y="261.3794">reponse,texteBonneReponse,</text><text fill="#000000" font-family="Verdana" font-size="13" lengthAdjust="spacing" textLength="155" x="388" y="276.5122">texteMauvaiseReponse)</text><path d="M20,239.7461 L20,279.7461 L376,279.7461 L376,249.7461 L366,239.7461 L20,239.7461 " fill="#FBFB77" style="stroke:#A80036;stroke-width:1.0;"/><path d="M366,239.7461 L366,249.7461 L376,249.7461 L366,239.7461 " fill="#FBFB77" style="stroke:#A80036;stroke-width:1.0;"/><text fill="#000000" font-family="Verdana" font-size="13" lengthAdjust="spacing" textLength="335" x="26" y="256.813">Selon forte cohésion, espaceCours a la reponsabilité</text><text fill="#000000" font-family="Verdana" font-size="13" lengthAdjust="spacing" textLength="193" x="26" y="271.9458">de gérer l'ajout des questions.</text><polygon fill="#A80036" points="1189.5,336.9766,1199.5,340.9766,1189.5,344.9766" style="stroke:#A80036;stroke-width:1.0;"/><line style="stroke:#A80036;stroke-width:1.0;stroke-dasharray:2.0,2.0;" x1="971.5" x2="1195.5" y1="340.9766" y2="340.9766"/><text fill="#000000" font-family="Verdana" font-size="13" lengthAdjust="spacing" textLength="206" x="978.5" y="305.645">create(tags,nom,texteQuestion,</text><text fill="#000000" font-family="Verdana" font-size="13" lengthAdjust="spacing" textLength="190" x="978.5" y="320.7778">reponse,texteBonneReponse,</text><text fill="#000000" font-family="Verdana" font-size="13" lengthAdjust="spacing" textLength="155" x="978.5" y="335.9106">texteMauvaiseReponse)</text><rect fill="#FEFECE" height="30.2969" style="stroke:#A80036;stroke-width:1.5;" width="92" x="1201.5" y="310.6797"/><text fill="#000000" font-family="Verdana" font-size="14" lengthAdjust="spacing" textLength="78" x="1208.5" y="330.6748">q:Question</text><path d="M823,294.5781 L823,349.5781 L966,349.5781 L966,304.5781 L956,294.5781 L823,294.5781 " fill="#FBFB77" style="stroke:#A80036;stroke-width:1.0;"/><path d="M956,294.5781 L956,304.5781 L966,304.5781 L956,294.5781 " fill="#FBFB77" style="stroke:#A80036;stroke-width:1.0;"/><text fill="#000000" font-family="Verdana" font-size="13" lengthAdjust="spacing" textLength="94" x="829" y="311.645">selon Créateur</text><text fill="#000000" font-family="Verdana" font-size="13" lengthAdjust="spacing" textLength="88" x="829" y="326.7778">(EspaceCours</text><text fill="#000000" font-family="Verdana" font-size="13" lengthAdjust="spacing" textLength="118" x="833" y="341.9106">contient Question)</text><line style="stroke:#A80036;stroke-width:1.0;" x1="971.5" x2="1013.5" y1="387.7422" y2="387.7422"/><line style="stroke:#A80036;stroke-width:1.0;" x1="1013.5" x2="1013.5" y1="387.7422" y2="400.7422"/><line style="stroke:#A80036;stroke-width:1.0;" x1="972.5" x2="1013.5" y1="400.7422" y2="400.7422"/><polygon fill="#A80036" points="982.5,396.7422,972.5,400.7422,982.5,404.7422" style="stroke:#A80036;stroke-width:1.0;"/><text fill="#000000" font-family="Verdana" font-size="13" lengthAdjust="spacing" textLength="120" x="978.5" y="382.6763">ajouterQuestion(q)</text><path d="M693,359.9766 L693,414.9766 L966,414.9766 L966,369.9766 L956,359.9766 L693,359.9766 " fill="#FBFB77" style="stroke:#A80036;stroke-width:1.0;"/><path d="M956,359.9766 L956,369.9766 L966,369.9766 L956,359.9766 " fill="#FBFB77" style="stroke:#A80036;stroke-width:1.0;"/><text fill="#000000" font-family="Verdana" font-size="13" lengthAdjust="spacing" textLength="252" x="699" y="377.0435">Selon expert, espaceCours est l'expert,</text><text fill="#000000" font-family="Verdana" font-size="13" lengthAdjust="spacing" textLength="238" x="699" y="392.1763">car il contient toutes les informations</text><text fill="#000000" font-family="Verdana" font-size="13" lengthAdjust="spacing" textLength="155" x="699" y="407.3091">utiles pour les questions</text><polygon fill="#A80036" points="959.5,455.6406,969.5,459.6406,959.5,463.6406" style="stroke:#A80036;stroke-width:1.0;"/><line style="stroke:#A80036;stroke-width:1.0;" x1="381" x2="965.5" y1="459.6406" y2="459.6406"/><text fill="#000000" font-family="Verdana" font-size="13" lengthAdjust="spacing" textLength="260" x="388" y="454.5747">questions = recupererToutesQuestions()</text><path d="M103,425.375 L103,480.375 L376,480.375 L376,435.375 L366,425.375 L103,425.375 " fill="#FBFB77" style="stroke:#A80036;stroke-width:1.0;"/><path d="M366,425.375 L366,435.375 L376,435.375 L366,425.375 " fill="#FBFB77" style="stroke:#A80036;stroke-width:1.0;"/><text fill="#000000" font-family="Verdana" font-size="13" lengthAdjust="spacing" textLength="252" x="109" y="442.4419">Selon expert, espaceCours est l'expert,</text><text fill="#000000" font-family="Verdana" font-size="13" lengthAdjust="spacing" textLength="238" x="109" y="457.5747">car il contient toutes les informations</text><text fill="#000000" font-family="Verdana" font-size="13" lengthAdjust="spacing" textLength="155" x="109" y="472.7075">utiles pour les questions</text><polygon fill="#A80036" points="369,512.9063,379,516.9063,369,520.9063" style="stroke:#A80036;stroke-width:1.0;"/><line style="stroke:#A80036;stroke-width:1.0;" x1="0" x2="375" y1="516.9063" y2="516.9063"/><text fill="#000000" font-family="Verdana" font-size="13" lengthAdjust="spacing" textLength="168" x="7" y="511.8403">terminerAjouterQuestion()</text><path d="M386,497.7734 L386,522.7734 L703,522.7734 L703,507.7734 L693,497.7734 L386,497.7734 " fill="#FBFB77" style="stroke:#A80036;stroke-width:1.0;"/><path d="M693,497.7734 L693,507.7734 L703,507.7734 L693,497.7734 " fill="#FBFB77" style="stroke:#A80036;stroke-width:1.0;"/><text fill="#000000" font-family="Verdana" font-size="13" lengthAdjust="spacing" textLength="296" x="392" y="514.8403">selon controleur, permet de sortir de la boucle</text><!--MD5=[a0c34065e4de416be353d062111a88e6]
@startuml
skinparam style strictuml
skinparam defaultfontname Verdana
title RDCU pour ajouterQuestion
participant ": GestionnaireQuestion" as gestionnaireQuestion
participant "universite : Universite" as universite
participant "espaceCours : EspaceCours" as cours
participant "q:Question" as question

loop [!terminerQuestion]
  ->gestionnaireQuestion : questions = ajouterQuestion(idEspaceCours,\ntags,nom,texteQuestion,\nreponse,texteBonneReponse,\ntexteMauvaiseReponse)
  note left : Selon contôlleur,\nreçoit l'opération système 
  gestionnaireQuestion -> universite : espaceCours = recupererUnEspaceCours(idEspaceCours)
  note left : Selon expert, universite a toutes les\ninformations pour recupererUnEspaceCours
  gestionnaireQuestion -> cours : ajouterQuestion(tags,nom,texteQuestion,\nreponse,texteBonneReponse,\ntexteMauvaiseReponse)
  note left : Selon forte cohésion, espaceCours a la reponsabilité\nde gérer l'ajout des questions.
  cours- ->question** : create(tags,nom,texteQuestion,\nreponse,texteBonneReponse,\ntexteMauvaiseReponse)
  note left : selon Créateur\n(EspaceCours \n contient Question)
  cours->cours : ajouterQuestion(q)
  note left : Selon expert, espaceCours est l'expert,\ncar il contient toutes les informations\nutiles pour les questions
  gestionnaireQuestion -> cours : questions = recupererToutesQuestions()
  note left : Selon expert, espaceCours est l'expert,\ncar il contient toutes les informations\nutiles pour les questions
end
-> gestionnaireQuestion : terminerAjouterQuestion()
note left : selon controleur, permet de sortir de la boucle
@enduml

PlantUML version 1.2021.7(Sun May 23 12:40:07 UTC 2021)
(GPL source distribution)
Java Runtime: Java(TM) SE Runtime Environment
JVM: Java HotSpot(TM) 64-Bit Server VM
Default Encoding: UTF-8
Language: en
Country: US
--></g></svg>