<?xml version="1.0" encoding="UTF-8" standalone="no"?><svg xmlns="http://www.w3.org/2000/svg" xmlns:xlink="http://www.w3.org/1999/xlink" contentScriptType="application/ecmascript" contentStyleType="text/css" height="249px" preserveAspectRatio="none" style="width:1162px;height:249px;background:#FFFFFF;" version="1.1" viewBox="0 0 1162 249" width="1162px" zoomAndPan="magnify"><defs/><g><text fill="#000000" font-family="Verdana" font-size="18" lengthAdjust="spacing" textLength="429" x="366" y="28.708">RDCU recupererToutesQuestionsEspaceCours</text><line style="stroke:#A80036;stroke-width:1.0;stroke-dasharray:5.0,5.0;" x1="460.5" x2="460.5" y1="71.25" y2="242.0469"/><line style="stroke:#A80036;stroke-width:1.0;stroke-dasharray:5.0,5.0;" x1="852" x2="852" y1="71.25" y2="242.0469"/><line style="stroke:#A80036;stroke-width:1.0;stroke-dasharray:5.0,5.0;" x1="1051" x2="1051" y1="71.25" y2="242.0469"/><rect fill="#FEFECE" height="30.2969" style="stroke:#A80036;stroke-width:1.5;" width="175" x="373.5" y="39.9531"/><text fill="#000000" font-family="Verdana" font-size="14" lengthAdjust="spacing" textLength="161" x="380.5" y="59.9482">:GestionnaireQuestion</text><rect fill="#FEFECE" height="30.2969" style="stroke:#A80036;stroke-width:1.5;" width="170" x="767" y="39.9531"/><text fill="#000000" font-family="Verdana" font-size="14" lengthAdjust="spacing" textLength="156" x="774" y="59.9482">universite : Universite</text><rect fill="#FEFECE" height="30.2969" style="stroke:#A80036;stroke-width:1.5;" width="209" x="947" y="39.9531"/><text fill="#000000" font-family="Verdana" font-size="14" lengthAdjust="spacing" textLength="195" x="954" y="59.9482">espaceCours : EspaceCours</text><polygon fill="#A80036" points="449,108.9492,459,112.9492,449,116.9492" style="stroke:#A80036;stroke-width:1.0;"/><line style="stroke:#A80036;stroke-width:1.0;" x1="0" x2="455" y1="112.9492" y2="112.9492"/><text fill="#000000" font-family="Verdana" font-size="13" lengthAdjust="spacing" textLength="437" x="7" y="107.8833">questions = recupererToutesQuestionsEspaceCours(idEspaceCours)</text><path d="M466,86.25 L466,126.25 L648,126.25 L648,96.25 L638,86.25 L466,86.25 " fill="#FBFB77" style="stroke:#A80036;stroke-width:1.0;"/><path d="M638,86.25 L638,96.25 L648,96.25 L638,86.25 " fill="#FBFB77" style="stroke:#A80036;stroke-width:1.0;"/><text fill="#000000" font-family="Verdana" font-size="13" lengthAdjust="spacing" textLength="105" x="472" y="103.3169">Selon Contôleur,</text><text fill="#000000" font-family="Verdana" font-size="13" lengthAdjust="spacing" textLength="161" x="472" y="118.4497">reçoit opération système</text><polygon fill="#A80036" points="840,159.2148,850,163.2148,840,167.2148" style="stroke:#A80036;stroke-width:1.0;"/><line style="stroke:#A80036;stroke-width:1.0;" x1="461" x2="846" y1="163.2148" y2="163.2148"/><text fill="#000000" font-family="Verdana" font-size="13" lengthAdjust="spacing" textLength="367" x="468" y="158.1489">espaceCours = recupererUnEspaceCours(idEspaceCours)</text><path d="M155,136.5156 L155,176.5156 L456,176.5156 L456,146.5156 L446,136.5156 L155,136.5156 " fill="#FBFB77" style="stroke:#A80036;stroke-width:1.0;"/><path d="M446,136.5156 L446,146.5156 L456,146.5156 L446,136.5156 " fill="#FBFB77" style="stroke:#A80036;stroke-width:1.0;"/><text fill="#000000" font-family="Verdana" font-size="13" lengthAdjust="spacing" textLength="231" x="161" y="153.5825">Selon expert, universite a toutes les</text><text fill="#000000" font-family="Verdana" font-size="13" lengthAdjust="spacing" textLength="280" x="161" y="168.7153">informations pour recupererUnEspaceCours</text><polygon fill="#A80036" points="1039.5,209.4805,1049.5,213.4805,1039.5,217.4805" style="stroke:#A80036;stroke-width:1.0;"/><line style="stroke:#A80036;stroke-width:1.0;" x1="461" x2="1045.5" y1="213.4805" y2="213.4805"/><text fill="#000000" font-family="Verdana" font-size="13" lengthAdjust="spacing" textLength="260" x="468" y="208.4146">questions = recupererToutesQuestions()</text><path d="M147,186.7813 L147,226.7813 L456,226.7813 L456,196.7813 L446,186.7813 L147,186.7813 " fill="#FBFB77" style="stroke:#A80036;stroke-width:1.0;"/><path d="M446,186.7813 L446,196.7813 L456,196.7813 L446,186.7813 " fill="#FBFB77" style="stroke:#A80036;stroke-width:1.0;"/><text fill="#000000" font-family="Verdana" font-size="13" lengthAdjust="spacing" textLength="251" x="153" y="203.8481">Selon expert, espaceCours a toutes les</text><text fill="#000000" font-family="Verdana" font-size="13" lengthAdjust="spacing" textLength="288" x="153" y="218.981">informations pour recupererToutesQuestions</text><!--MD5=[18c83f644a9306382eaee4c843681bd6]
@startuml
skinparam style strictuml
skinparam defaultfontname Verdana
title RDCU recupererToutesQuestionsEspaceCours
participant ":GestionnaireQuestion" as gestionnaireQuestion
participant "universite : Universite" as universite
participant "espaceCours : EspaceCours" as cours
->gestionnaireQuestion : questions = recupererToutesQuestionsEspaceCours(idEspaceCours)
note left : Selon Contôleur,\nreçoit opération système
gestionnaireQuestion -> universite : espaceCours = recupererUnEspaceCours(idEspaceCours)
note left : Selon expert, universite a toutes les\ninformations pour recupererUnEspaceCours
gestionnaireQuestion -> cours : questions = recupererToutesQuestions()
note left : Selon expert, espaceCours a toutes les\ninformations pour recupererToutesQuestions
@enduml

PlantUML version 1.2021.9beta2(Unknown compile time)
(GPL source distribution)
Java Runtime: Java(TM) SE Runtime Environment
JVM: Java HotSpot(TM) 64-Bit Server VM
Default Encoding: UTF-8
Language: en
Country: US
--></g></svg>