<?xml version="1.0" encoding="UTF-8" standalone="no"?><svg xmlns="http://www.w3.org/2000/svg" xmlns:xlink="http://www.w3.org/1999/xlink" contentScriptType="application/ecmascript" contentStyleType="text/css" height="359px" preserveAspectRatio="none" style="width:1322px;height:359px;background:#FFFFFF;" version="1.1" viewBox="0 0 1322 359" width="1322px" zoomAndPan="magnify"><defs/><g><text fill="#000000" font-family="Verdana" font-size="18" lengthAdjust="spacing" textLength="323" x="499.25" y="28.708">RDCU. recupererEspacesCoursSgb</text><line style="stroke:#A80036;stroke-width:1.0;stroke-dasharray:5.0,5.0;" x1="353.5" x2="353.5" y1="71.25" y2="352.8438"/><line style="stroke:#A80036;stroke-width:1.0;stroke-dasharray:5.0,5.0;" x1="708" x2="708" y1="71.25" y2="352.8438"/><line style="stroke:#A80036;stroke-width:1.0;stroke-dasharray:5.0,5.0;" x1="1000" x2="1000" y1="71.25" y2="352.8438"/><line style="stroke:#A80036;stroke-width:1.0;stroke-dasharray:5.0,5.0;" x1="1291.5" x2="1291.5" y1="71.25" y2="352.8438"/><rect fill="#FEFECE" height="30.2969" style="stroke:#A80036;stroke-width:1.5;" width="151" x="278.5" y="39.9531"/><text fill="#000000" font-family="Verdana" font-size="14" lengthAdjust="spacing" textLength="137" x="285.5" y="59.9482">:GestionnaireCours</text><rect fill="#FEFECE" height="30.2969" style="stroke:#A80036;stroke-width:1.5;" width="170" x="623" y="39.9531"/><text fill="#000000" font-family="Verdana" font-size="14" lengthAdjust="spacing" textLength="156" x="630" y="59.9482">universite : Universite</text><rect fill="#FEFECE" height="30.2969" style="stroke:#A80036;stroke-width:1.5;" width="102" x="949" y="39.9531"/><text fill="#000000" font-family="Verdana" font-size="14" lengthAdjust="spacing" textLength="88" x="956" y="59.9482">:SGBService</text><rect fill="#FEFECE" height="30.2969" style="stroke:#A80036;stroke-width:1.5;" width="49" x="1267.5" y="39.9531"/><text fill="#000000" font-family="Verdana" font-size="14" lengthAdjust="spacing" textLength="35" x="1274.5" y="59.9482">:SGB</text><polygon fill="#A80036" points="342,108.9492,352,112.9492,342,116.9492" style="stroke:#A80036;stroke-width:1.0;"/><line style="stroke:#A80036;stroke-width:1.0;" x1="0" x2="348" y1="112.9492" y2="112.9492"/><text fill="#000000" font-family="Verdana" font-size="13" lengthAdjust="spacing" textLength="330" x="7" y="107.8833">espacesCours = recupererEspacesCoursSgb(token)</text><path d="M359,86.25 L359,126.25 L547,126.25 L547,96.25 L537,86.25 L359,86.25 " fill="#FBFB77" style="stroke:#A80036;stroke-width:1.0;"/><path d="M537,86.25 L537,96.25 L547,96.25 L537,86.25 " fill="#FBFB77" style="stroke:#A80036;stroke-width:1.0;"/><text fill="#000000" font-family="Verdana" font-size="13" lengthAdjust="spacing" textLength="105" x="365" y="103.3169">Selon Contôleur,</text><text fill="#000000" font-family="Verdana" font-size="13" lengthAdjust="spacing" textLength="167" x="365" y="118.4497">reçoit l'opération système</text><polygon fill="#A80036" points="696,166.7813,706,170.7813,696,174.7813" style="stroke:#A80036;stroke-width:1.0;"/><line style="stroke:#A80036;stroke-width:1.0;" x1="354" x2="702" y1="170.7813" y2="170.7813"/><text fill="#000000" font-family="Verdana" font-size="13" lengthAdjust="spacing" textLength="330" x="361" y="165.7153">espacesCours = recupererEspacesCoursSgb(token)</text><path d="M57,136.5156 L57,191.5156 L349,191.5156 L349,146.5156 L339,136.5156 L57,136.5156 " fill="#FBFB77" style="stroke:#A80036;stroke-width:1.0;"/><path d="M339,136.5156 L339,146.5156 L349,146.5156 L339,136.5156 " fill="#FBFB77" style="stroke:#A80036;stroke-width:1.0;"/><text fill="#000000" font-family="Verdana" font-size="13" lengthAdjust="spacing" textLength="231" x="63" y="153.5825">Selon expert, universite doit stocker</text><text fill="#000000" font-family="Verdana" font-size="13" lengthAdjust="spacing" textLength="271" x="63" y="168.7153">toutes les informations pour qu'elle puisse</text><text fill="#000000" font-family="Verdana" font-size="13" lengthAdjust="spacing" textLength="261" x="63" y="183.8481">devenir expert pour les prochains appels</text><polygon fill="#A80036" points="988,239.7461,998,243.7461,988,247.7461" style="stroke:#A80036;stroke-width:1.0;"/><line style="stroke:#A80036;stroke-width:1.0;" x1="708" x2="994" y1="243.7461" y2="243.7461"/><text fill="#000000" font-family="Verdana" font-size="13" lengthAdjust="spacing" textLength="268" x="715" y="238.6802">cours = recupererEspaceCoursSgb(token)</text><path d="M1005,201.9141 L1005,271.9141 L1248,271.9141 L1248,211.9141 L1238,201.9141 L1005,201.9141 " fill="#FBFB77" style="stroke:#A80036;stroke-width:1.0;"/><path d="M1238,201.9141 L1238,211.9141 L1248,211.9141 L1238,201.9141 " fill="#FBFB77" style="stroke:#A80036;stroke-width:1.0;"/><text fill="#000000" font-family="Verdana" font-size="13" lengthAdjust="spacing" textLength="222" x="1011" y="218.981">Selon indirection, évite le couplage</text><text fill="#000000" font-family="Verdana" font-size="13" lengthAdjust="spacing" textLength="202" x="1011" y="234.1138">entre universite et le SGB. Tous</text><text fill="#000000" font-family="Verdana" font-size="13" lengthAdjust="spacing" textLength="183" x="1011" y="249.2466">les appels vers SGB sont fait</text><text fill="#000000" font-family="Verdana" font-size="13" lengthAdjust="spacing" textLength="98" x="1011" y="264.3794">par SGBService</text><polygon fill="#A80036" points="1280,312.7109,1290,316.7109,1280,320.7109" style="stroke:#A80036;stroke-width:1.0;"/><line style="stroke:#A80036;stroke-width:1.0;" x1="1000" x2="1286" y1="316.7109" y2="316.7109"/><text fill="#000000" font-family="Verdana" font-size="13" lengthAdjust="spacing" textLength="268" x="1007" y="311.645">cours = recupererEspaceCoursSgb(token)</text><path d="M697,282.4453 L697,337.4453 L995,337.4453 L995,292.4453 L985,282.4453 L697,282.4453 " fill="#FBFB77" style="stroke:#A80036;stroke-width:1.0;"/><path d="M985,282.4453 L985,292.4453 L995,292.4453 L985,282.4453 " fill="#FBFB77" style="stroke:#A80036;stroke-width:1.0;"/><text fill="#000000" font-family="Verdana" font-size="13" lengthAdjust="spacing" textLength="277" x="703" y="299.5122">Selon expert, l'information Sgb est l'expert,</text><text fill="#000000" font-family="Verdana" font-size="13" lengthAdjust="spacing" textLength="238" x="703" y="314.645">car il contient toutes les informations</text><text fill="#000000" font-family="Verdana" font-size="13" lengthAdjust="spacing" textLength="185" x="703" y="329.7778">utiles pour les espaces cours</text><!--MD5=[3004ad09c72eaadcb5419aecb024b7a2]
@startuml
skinparam style strictuml
skinparam defaultfontname Verdana
title RDCU. recupererEspacesCoursSgb
participant ":GestionnaireCours" as gesCours
participant "universite : Universite" as uni
participant ":SGBService" as service
participant ":SGB" as sgb


->gesCours : espacesCours = recupererEspacesCoursSgb(token)
note left : Selon Contôleur,\nreçoit l'opération système
gesCours -> uni  : espacesCours = recupererEspacesCoursSgb(token)
note left : Selon expert, universite doit stocker\ntoutes les informations pour qu'elle puisse\ndevenir expert pour les prochains appels
uni->service: cours = recupererEspaceCoursSgb(token)
note right : Selon indirection, évite le couplage\nentre universite et le SGB. Tous\nles appels vers SGB sont fait\npar SGBService
service -> sgb : cours = recupererEspaceCoursSgb(token)
note left : Selon expert, l'information Sgb est l'expert,\ncar il contient toutes les informations\nutiles pour les espaces cours
@enduml

PlantUML version 1.2021.7(Sun May 23 12:40:07 UTC 2021)
(GPL source distribution)
Java Runtime: Java(TM) SE Runtime Environment
JVM: Java HotSpot(TM) 64-Bit Server VM
Default Encoding: UTF-8
Language: en
Country: US
--></g></svg>