<?xml version="1.0" encoding="UTF-8" standalone="no"?><svg xmlns="http://www.w3.org/2000/svg" xmlns:xlink="http://www.w3.org/1999/xlink" contentScriptType="application/ecmascript" contentStyleType="text/css" height="432px" preserveAspectRatio="none" style="width:1082px;height:432px;background:#FFFFFF;" version="1.1" viewBox="0 0 1082 432" width="1082px" zoomAndPan="magnify"><defs/><g><text fill="#000000" font-family="Verdana" font-size="18" lengthAdjust="spacing" textLength="245" x="418.5" y="28.708">RDCU pour corrigerDevoir</text><line style="stroke:#A80036;stroke-width:1.0;stroke-dasharray:5.0,5.0;" x1="279" x2="279" y1="71.25" y2="425.7109"/><line style="stroke:#A80036;stroke-width:1.0;stroke-dasharray:5.0,5.0;" x1="765.5" x2="765.5" y1="71.25" y2="425.7109"/><rect fill="#FEFECE" height="30.2969" style="stroke:#A80036;stroke-width:1.5;" width="158" x="200" y="39.9531"/><text fill="#000000" font-family="Verdana" font-size="14" lengthAdjust="spacing" textLength="144" x="207" y="59.9482">:GestionnaireDevoir</text><rect fill="#FEFECE" height="30.2969" style="stroke:#A80036;stroke-width:1.5;" width="129" x="701.5" y="39.9531"/><text fill="#000000" font-family="Verdana" font-size="14" lengthAdjust="spacing" textLength="115" x="708.5" y="59.9482">remise : Remise</text><polygon fill="#A80036" points="267,116.5156,277,120.5156,267,124.5156" style="stroke:#A80036;stroke-width:1.0;"/><line style="stroke:#A80036;stroke-width:1.0;" x1="0" x2="273" y1="120.5156" y2="120.5156"/><text fill="#000000" font-family="Verdana" font-size="13" lengthAdjust="spacing" textLength="255" x="7" y="100.3169">corrigerDevoir(idEspaceCours, idDevoir,</text><text fill="#000000" font-family="Verdana" font-size="13" lengthAdjust="spacing" textLength="250" x="7" y="115.4497">idEtudiant, note, pathFichierCorrection)</text><path d="M284,86.25 L284,126.25 L437,126.25 L437,96.25 L427,86.25 L284,86.25 " fill="#FBFB77" style="stroke:#A80036;stroke-width:1.0;"/><path d="M427,86.25 L427,96.25 L437,96.25 L427,86.25 " fill="#FBFB77" style="stroke:#A80036;stroke-width:1.0;"/><text fill="#000000" font-family="Verdana" font-size="13" lengthAdjust="spacing" textLength="108" x="290" y="103.3169">Selon contrôleur,</text><text fill="#000000" font-family="Verdana" font-size="13" lengthAdjust="spacing" textLength="132" x="290" y="118.4497">contôleur de session</text><line style="stroke:#A80036;stroke-width:1.0;" x1="279" x2="321" y1="164.2813" y2="164.2813"/><line style="stroke:#A80036;stroke-width:1.0;" x1="321" x2="321" y1="164.2813" y2="177.2813"/><line style="stroke:#A80036;stroke-width:1.0;" x1="280" x2="321" y1="177.2813" y2="177.2813"/><polygon fill="#A80036" points="290,173.2813,280,177.2813,290,181.2813" style="stroke:#A80036;stroke-width:1.0;"/><text fill="#000000" font-family="Verdana" font-size="13" lengthAdjust="spacing" textLength="473" x="286" y="159.2153">remise = recupererUnDevoirEtudiant(idEspaceCours, idDevoir, idEtudiant)</text><path d="M29,136.5156 L29,191.5156 L274,191.5156 L274,146.5156 L264,136.5156 L29,136.5156 " fill="#FBFB77" style="stroke:#A80036;stroke-width:1.0;"/><path d="M264,136.5156 L264,146.5156 L274,146.5156 L264,136.5156 " fill="#FBFB77" style="stroke:#A80036;stroke-width:1.0;"/><text fill="#000000" font-family="Verdana" font-size="13" lengthAdjust="spacing" textLength="224" x="35" y="153.5825">Selon expert, operation représenté</text><text fill="#000000" font-family="Verdana" font-size="13" lengthAdjust="spacing" textLength="208" x="35" y="168.7153">dans un des RDCU précédent du</text><text fill="#000000" font-family="Verdana" font-size="13" lengthAdjust="spacing" textLength="144" x="35" y="183.8481">même cas d'utilisation</text><polygon fill="#A80036" points="754,224.6133,764,228.6133,754,232.6133" style="stroke:#A80036;stroke-width:1.0;"/><line style="stroke:#A80036;stroke-width:1.0;" x1="279" x2="760" y1="228.6133" y2="228.6133"/><text fill="#000000" font-family="Verdana" font-size="13" lengthAdjust="spacing" textLength="274" x="286" y="223.5474">corrigerDevoir(note, pathFichierCorrection)</text><path d="M52,201.9141 L52,241.9141 L274,241.9141 L274,211.9141 L264,201.9141 L52,201.9141 " fill="#FBFB77" style="stroke:#A80036;stroke-width:1.0;"/><path d="M264,201.9141 L264,211.9141 L274,211.9141 L264,201.9141 " fill="#FBFB77" style="stroke:#A80036;stroke-width:1.0;"/><text fill="#000000" font-family="Verdana" font-size="13" lengthAdjust="spacing" textLength="197" x="58" y="218.981">Selon expert, l'oppération veut</text><text fill="#000000" font-family="Verdana" font-size="13" lengthAdjust="spacing" textLength="201" x="58" y="234.1138">modifier les attributs de remise</text><line style="stroke:#A80036;stroke-width:1.0;" x1="766" x2="808" y1="268.3125" y2="268.3125"/><line style="stroke:#A80036;stroke-width:1.0;" x1="808" x2="808" y1="268.3125" y2="281.3125"/><line style="stroke:#A80036;stroke-width:1.0;" x1="767" x2="808" y1="281.3125" y2="281.3125"/><polygon fill="#A80036" points="777,277.3125,767,281.3125,777,285.3125" style="stroke:#A80036;stroke-width:1.0;"/><text fill="#000000" font-family="Verdana" font-size="13" lengthAdjust="spacing" textLength="89" x="773" y="263.2466">setNote(note)</text><path d="M659,255.6797 L659,280.6797 L761,280.6797 L761,265.6797 L751,255.6797 L659,255.6797 " fill="#FBFB77" style="stroke:#A80036;stroke-width:1.0;"/><path d="M751,255.6797 L751,265.6797 L761,265.6797 L751,255.6797 " fill="#FBFB77" style="stroke:#A80036;stroke-width:1.0;"/><text fill="#000000" font-family="Verdana" font-size="13" lengthAdjust="spacing" textLength="81" x="665" y="272.7466">Selon expert</text><line style="stroke:#A80036;stroke-width:1.0;" x1="766" x2="808" y1="310.4453" y2="310.4453"/><line style="stroke:#A80036;stroke-width:1.0;" x1="808" x2="808" y1="310.4453" y2="323.4453"/><line style="stroke:#A80036;stroke-width:1.0;" x1="767" x2="808" y1="323.4453" y2="323.4453"/><polygon fill="#A80036" points="777,319.4453,767,323.4453,777,327.4453" style="stroke:#A80036;stroke-width:1.0;"/><text fill="#000000" font-family="Verdana" font-size="13" lengthAdjust="spacing" textLength="302" x="773" y="305.3794">setPathFichierCorrection(pathFichierCorrection)</text><path d="M659,297.8125 L659,322.8125 L761,322.8125 L761,307.8125 L751,297.8125 L659,297.8125 " fill="#FBFB77" style="stroke:#A80036;stroke-width:1.0;"/><path d="M751,297.8125 L751,307.8125 L761,307.8125 L751,297.8125 " fill="#FBFB77" style="stroke:#A80036;stroke-width:1.0;"/><text fill="#000000" font-family="Verdana" font-size="13" lengthAdjust="spacing" textLength="81" x="665" y="314.8794">Selon expert</text><line style="stroke:#A80036;stroke-width:1.0;" x1="766" x2="808" y1="352.5781" y2="352.5781"/><line style="stroke:#A80036;stroke-width:1.0;" x1="808" x2="808" y1="352.5781" y2="365.5781"/><line style="stroke:#A80036;stroke-width:1.0;" x1="767" x2="808" y1="365.5781" y2="365.5781"/><polygon fill="#A80036" points="777,361.5781,767,365.5781,777,369.5781" style="stroke:#A80036;stroke-width:1.0;"/><text fill="#000000" font-family="Verdana" font-size="13" lengthAdjust="spacing" textLength="136" x="773" y="347.5122">setdate(currentDate)</text><path d="M659,339.9453 L659,364.9453 L761,364.9453 L761,349.9453 L751,339.9453 L659,339.9453 " fill="#FBFB77" style="stroke:#A80036;stroke-width:1.0;"/><path d="M751,339.9453 L751,349.9453 L761,349.9453 L751,339.9453 " fill="#FBFB77" style="stroke:#A80036;stroke-width:1.0;"/><text fill="#000000" font-family="Verdana" font-size="13" lengthAdjust="spacing" textLength="81" x="665" y="357.0122">Selon expert</text><line style="stroke:#A80036;stroke-width:1.0;" x1="766" x2="808" y1="394.7109" y2="394.7109"/><line style="stroke:#A80036;stroke-width:1.0;" x1="808" x2="808" y1="394.7109" y2="407.7109"/><line style="stroke:#A80036;stroke-width:1.0;" x1="767" x2="808" y1="407.7109" y2="407.7109"/><polygon fill="#A80036" points="777,403.7109,767,407.7109,777,411.7109" style="stroke:#A80036;stroke-width:1.0;"/><text fill="#000000" font-family="Verdana" font-size="13" lengthAdjust="spacing" textLength="152" x="773" y="389.645">setEtat("RemisCorrige")</text><path d="M659,382.0781 L659,407.0781 L761,407.0781 L761,392.0781 L751,382.0781 L659,382.0781 " fill="#FBFB77" style="stroke:#A80036;stroke-width:1.0;"/><path d="M751,382.0781 L751,392.0781 L761,392.0781 L751,382.0781 " fill="#FBFB77" style="stroke:#A80036;stroke-width:1.0;"/><text fill="#000000" font-family="Verdana" font-size="13" lengthAdjust="spacing" textLength="81" x="665" y="399.145">Selon expert</text><!--MD5=[b3e58868195cb7eb618ae777610affc6]
@startuml
skinparam style strictuml
skinparam defaultfontname Verdana
title RDCU pour corrigerDevoir
participant ":GestionnaireDevoir" as gestionnaireDevoir
participant "remise : Remise" as remise

-> gestionnaireDevoir : corrigerDevoir(idEspaceCours, idDevoir,\nidEtudiant, note, pathFichierCorrection)
note left : Selon contrôleur,\ncontôleur de session
gestionnaireDevoir -> gestionnaireDevoir : remise = recupererUnDevoirEtudiant(idEspaceCours, idDevoir, idEtudiant)
note left : Selon expert, operation représenté\ndans un des RDCU précédent du\nmême cas d'utilisation
gestionnaireDevoir -> remise : corrigerDevoir(note, pathFichierCorrection)
note left : Selon expert, l'oppération veut\nmodifier les attributs de remise
remise -> remise : setNote(note)
note left : Selon expert
remise -> remise : setPathFichierCorrection(pathFichierCorrection)
note left : Selon expert
remise -> remise : setdate(currentDate)
note left : Selon expert
remise -> remise : setEtat("RemisCorrige")
note left : Selon expert
@enduml

PlantUML version 1.2021.9beta2(Unknown compile time)
(GPL source distribution)
Java Runtime: Java(TM) SE Runtime Environment
JVM: Java HotSpot(TM) 64-Bit Server VM
Default Encoding: UTF-8
Language: en
Country: US
--></g></svg>