<?xml version="1.0" encoding="UTF-8" standalone="no"?><svg xmlns="http://www.w3.org/2000/svg" xmlns:xlink="http://www.w3.org/1999/xlink" contentScriptType="application/ecmascript" contentStyleType="text/css" height="642px" preserveAspectRatio="none" style="width:1165px;height:642px;background:#FFFFFF;" version="1.1" viewBox="0 0 1165 642" width="1165px" zoomAndPan="magnify"><defs/><g><text fill="#000000" font-family="Verdana" font-size="18" lengthAdjust="spacing" textLength="329" x="420.25" y="28.708">RDCU pour corrigerTousDevoirsZip</text><rect fill="#FFFFFF" height="187.9297" style="stroke:#000000;stroke-width:2.0;" width="981.5" x="178" y="430.375"/><line style="stroke:#A80036;stroke-width:1.0;stroke-dasharray:5.0,5.0;" x1="438" x2="438" y1="71.25" y2="635.3047"/><line style="stroke:#A80036;stroke-width:1.0;stroke-dasharray:5.0,5.0;" x1="921.5" x2="921.5" y1="166.6484" y2="635.3047"/><line style="stroke:#A80036;stroke-width:1.0;stroke-dasharray:5.0,5.0;" x1="1073.5" x2="1073.5" y1="71.25" y2="635.3047"/><rect fill="#FEFECE" height="30.2969" style="stroke:#A80036;stroke-width:1.5;" width="158" x="359" y="39.9531"/><text fill="#000000" font-family="Verdana" font-size="14" lengthAdjust="spacing" textLength="144" x="366" y="59.9482">:GestionnaireDevoir</text><rect fill="#FEFECE" height="30.2969" style="stroke:#A80036;stroke-width:1.5;" width="152" x="997.5" y="39.9531"/><text fill="#000000" font-family="Verdana" font-size="14" lengthAdjust="spacing" textLength="138" x="1004.5" y="59.9482">fichierCsv : String[]</text><polygon fill="#A80036" points="426,108.9492,436,112.9492,426,116.9492" style="stroke:#A80036;stroke-width:1.0;"/><line style="stroke:#A80036;stroke-width:1.0;" x1="0" x2="432" y1="112.9492" y2="112.9492"/><text fill="#000000" font-family="Verdana" font-size="13" lengthAdjust="spacing" textLength="414" x="7" y="107.8833">corrigerTousDevoirsZip(idEspaceCours, idDevoir, pathFichierZip)</text><path d="M443,86.25 L443,126.25 L596,126.25 L596,96.25 L586,86.25 L443,86.25 " fill="#FBFB77" style="stroke:#A80036;stroke-width:1.0;"/><path d="M586,86.25 L586,96.25 L596,96.25 L586,86.25 " fill="#FBFB77" style="stroke:#A80036;stroke-width:1.0;"/><text fill="#000000" font-family="Verdana" font-size="13" lengthAdjust="spacing" textLength="108" x="449" y="103.3169">Selon contrôleur,</text><text fill="#000000" font-family="Verdana" font-size="13" lengthAdjust="spacing" textLength="132" x="449" y="118.4497">contôleur de session</text><polygon fill="#A80036" points="844.5,148.6484,854.5,152.6484,844.5,156.6484" style="stroke:#A80036;stroke-width:1.0;"/><line style="stroke:#A80036;stroke-width:1.0;stroke-dasharray:2.0,2.0;" x1="438" x2="850.5" y1="152.6484" y2="152.6484"/><text fill="#000000" font-family="Verdana" font-size="13" lengthAdjust="spacing" textLength="142" x="445" y="147.5825">create(pathFichierZip)</text><rect fill="#FEFECE" height="30.2969" style="stroke:#A80036;stroke-width:1.5;" width="131" x="856.5" y="136"/><text fill="#000000" font-family="Verdana" font-size="14" lengthAdjust="spacing" textLength="117" x="863.5" y="155.9951">zipper : AdmZip</text><path d="M190,136.5156 L190,176.5156 L433,176.5156 L433,146.5156 L423,136.5156 L190,136.5156 " fill="#FBFB77" style="stroke:#A80036;stroke-width:1.0;"/><path d="M423,136.5156 L423,146.5156 L433,146.5156 L423,136.5156 " fill="#FBFB77" style="stroke:#A80036;stroke-width:1.0;"/><text fill="#000000" font-family="Verdana" font-size="13" lengthAdjust="spacing" textLength="222" x="196" y="153.5825">Selon createur, gestionniareDevoir</text><text fill="#000000" font-family="Verdana" font-size="13" lengthAdjust="spacing" textLength="160" x="196" y="168.7153">utilise étroitement zipper</text><polygon fill="#A80036" points="910,232.1797,920,236.1797,910,240.1797" style="stroke:#A80036;stroke-width:1.0;"/><line style="stroke:#A80036;stroke-width:1.0;" x1="438" x2="916" y1="236.1797" y2="236.1797"/><text fill="#000000" font-family="Verdana" font-size="13" lengthAdjust="spacing" textLength="239" x="445" y="231.1138">fichierCSV = getEntries().find("*.csv")</text><path d="M257,186.7813 L257,271.7813 L433,271.7813 L433,196.7813 L423,186.7813 L257,186.7813 " fill="#FBFB77" style="stroke:#A80036;stroke-width:1.0;"/><path d="M423,186.7813 L423,196.7813 L433,196.7813 L423,186.7813 " fill="#FBFB77" style="stroke:#A80036;stroke-width:1.0;"/><text fill="#000000" font-family="Verdana" font-size="13" lengthAdjust="spacing" textLength="154" x="263" y="203.8481">Selon expert, fichierCSV</text><text fill="#000000" font-family="Verdana" font-size="13" lengthAdjust="spacing" textLength="153" x="263" y="218.981">est un tableau de String</text><text fill="#000000" font-family="Verdana" font-size="13" lengthAdjust="spacing" textLength="153" x="263" y="234.1138">représentatif du CSV où</text><text fill="#000000" font-family="Verdana" font-size="13" lengthAdjust="spacing" textLength="155" x="263" y="249.2466">chaque case représente</text><text fill="#000000" font-family="Verdana" font-size="13" lengthAdjust="spacing" textLength="72" x="263" y="264.3794">une remise</text><line style="stroke:#A80036;stroke-width:1.0;" x1="438" x2="480" y1="332.9102" y2="332.9102"/><line style="stroke:#A80036;stroke-width:1.0;" x1="480" x2="480" y1="332.9102" y2="345.9102"/><line style="stroke:#A80036;stroke-width:1.0;" x1="439" x2="480" y1="345.9102" y2="345.9102"/><polygon fill="#A80036" points="449,341.9102,439,345.9102,449,349.9102" style="stroke:#A80036;stroke-width:1.0;"/><text fill="#000000" font-family="Verdana" font-size="13" lengthAdjust="spacing" textLength="470" x="445" y="327.8442">pathContenuZip = "./uploads/devoirs/idEspaceCours/idDevoir/retroaction"</text><path d="M144,282.4453 L144,382.4453 L433,382.4453 L433,292.4453 L423,282.4453 L144,282.4453 " fill="#FBFB77" style="stroke:#A80036;stroke-width:1.0;"/><path d="M423,282.4453 L423,292.4453 L433,292.4453 L423,282.4453 " fill="#FBFB77" style="stroke:#A80036;stroke-width:1.0;"/><text fill="#000000" font-family="Verdana" font-size="13" lengthAdjust="spacing" textLength="222" x="150" y="299.5122">Selon créateur, gestionniareDevoir</text><text fill="#000000" font-family="Verdana" font-size="13" lengthAdjust="spacing" textLength="229" x="150" y="314.645">utilise étroitement pathContenuZip.</text><text fill="#000000" font-family="Verdana" font-size="13" lengthAdjust="spacing" textLength="174" x="150" y="329.7778">Ici la création de la variable</text><text fill="#000000" font-family="Verdana" font-size="13" lengthAdjust="spacing" textLength="210" x="150" y="344.9106">pathContenuZip est utilisée pour</text><text fill="#000000" font-family="Verdana" font-size="13" lengthAdjust="spacing" textLength="234" x="150" y="360.0435">être plus rapide que d'écrire la string</text><text fill="#000000" font-family="Verdana" font-size="13" lengthAdjust="spacing" textLength="268" x="150" y="375.1763">complète à chaque fois qu'elle est utilisée</text><polygon fill="#A80036" points="910,408.375,920,412.375,910,416.375" style="stroke:#A80036;stroke-width:1.0;"/><line style="stroke:#A80036;stroke-width:1.0;" x1="438" x2="916" y1="412.375" y2="412.375"/><text fill="#000000" font-family="Verdana" font-size="13" lengthAdjust="spacing" textLength="191" x="445" y="407.3091">extractAllTo(pathContenuZip)</text><path d="M331,393.2422 L331,418.2422 L433,418.2422 L433,403.2422 L423,393.2422 L331,393.2422 " fill="#FBFB77" style="stroke:#A80036;stroke-width:1.0;"/><path d="M423,393.2422 L423,403.2422 L433,403.2422 L423,393.2422 " fill="#FBFB77" style="stroke:#A80036;stroke-width:1.0;"/><text fill="#000000" font-family="Verdana" font-size="13" lengthAdjust="spacing" textLength="81" x="337" y="410.3091">Selon expert</text><path d="M178,430.375 L256,430.375 L256,437.375 L246,447.375 L178,447.375 L178,430.375 " fill="#EEEEEE" style="stroke:#000000;stroke-width:1.0;"/><rect fill="none" height="187.9297" style="stroke:#000000;stroke-width:2.0;" width="981.5" x="178" y="430.375"/><text fill="#000000" font-family="Verdana" font-size="13" font-weight="bold" lengthAdjust="spacing" textLength="33" x="193" y="443.4419">loop</text><text fill="#000000" font-family="Verdana" font-size="11" font-weight="bold" lengthAdjust="spacing" textLength="127" x="271" y="442.5854">[fichierCSV.length]</text><polygon fill="#A80036" points="1061.5,467.6406,1071.5,471.6406,1061.5,475.6406" style="stroke:#A80036;stroke-width:1.0;"/><line style="stroke:#A80036;stroke-width:1.0;" x1="438" x2="1067.5" y1="471.6406" y2="471.6406"/><text fill="#000000" font-family="Verdana" font-size="13" lengthAdjust="spacing" textLength="167" x="445" y="466.5747">idRemise = getIdRemise()</text><path d="M331,452.5078 L331,477.5078 L433,477.5078 L433,462.5078 L423,452.5078 L331,452.5078 " fill="#FBFB77" style="stroke:#A80036;stroke-width:1.0;"/><path d="M423,452.5078 L423,462.5078 L433,462.5078 L423,452.5078 " fill="#FBFB77" style="stroke:#A80036;stroke-width:1.0;"/><text fill="#000000" font-family="Verdana" font-size="13" lengthAdjust="spacing" textLength="81" x="337" y="469.5747">Selon expert</text><polygon fill="#A80036" points="1061.5,502.7734,1071.5,506.7734,1061.5,510.7734" style="stroke:#A80036;stroke-width:1.0;"/><line style="stroke:#A80036;stroke-width:1.0;" x1="438" x2="1067.5" y1="506.7734" y2="506.7734"/><text fill="#000000" font-family="Verdana" font-size="13" lengthAdjust="spacing" textLength="260" x="445" y="501.7075">nomFichierRetro = getNomFichierRetro()</text><path d="M331,487.6406 L331,512.6406 L433,512.6406 L433,497.6406 L423,487.6406 L331,487.6406 " fill="#FBFB77" style="stroke:#A80036;stroke-width:1.0;"/><path d="M423,487.6406 L423,497.6406 L433,497.6406 L423,487.6406 " fill="#FBFB77" style="stroke:#A80036;stroke-width:1.0;"/><text fill="#000000" font-family="Verdana" font-size="13" lengthAdjust="spacing" textLength="81" x="337" y="504.7075">Selon expert</text><polygon fill="#A80036" points="1061.5,537.9063,1071.5,541.9063,1061.5,545.9063" style="stroke:#A80036;stroke-width:1.0;"/><line style="stroke:#A80036;stroke-width:1.0;" x1="438" x2="1067.5" y1="541.9063" y2="541.9063"/><text fill="#000000" font-family="Verdana" font-size="13" lengthAdjust="spacing" textLength="108" x="445" y="536.8403">note = getNote()</text><path d="M331,522.7734 L331,547.7734 L433,547.7734 L433,532.7734 L423,522.7734 L331,522.7734 " fill="#FBFB77" style="stroke:#A80036;stroke-width:1.0;"/><path d="M423,522.7734 L423,532.7734 L433,532.7734 L423,522.7734 " fill="#FBFB77" style="stroke:#A80036;stroke-width:1.0;"/><text fill="#000000" font-family="Verdana" font-size="13" lengthAdjust="spacing" textLength="81" x="337" y="539.8403">Selon expert</text><line style="stroke:#A80036;stroke-width:1.0;" x1="438" x2="480" y1="593.2383" y2="593.2383"/><line style="stroke:#A80036;stroke-width:1.0;" x1="480" x2="480" y1="593.2383" y2="606.2383"/><line style="stroke:#A80036;stroke-width:1.0;" x1="439" x2="480" y1="606.2383" y2="606.2383"/><polygon fill="#A80036" points="449,602.2383,439,606.2383,449,610.2383" style="stroke:#A80036;stroke-width:1.0;"/><text fill="#000000" font-family="Verdana" font-size="13" lengthAdjust="spacing" textLength="255" x="445" y="573.0396">corrigerDevoir(idEspaceCours, idDevoir,</text><text fill="#000000" font-family="Verdana" font-size="13" lengthAdjust="spacing" textLength="336" x="445" y="588.1724">idRemise, note, pathContenuZip + nomFichierRetro)</text><path d="M188,557.9063 L188,612.9063 L433,612.9063 L433,567.9063 L423,557.9063 L188,557.9063 " fill="#FBFB77" style="stroke:#A80036;stroke-width:1.0;"/><path d="M423,557.9063 L423,567.9063 L433,567.9063 L423,557.9063 " fill="#FBFB77" style="stroke:#A80036;stroke-width:1.0;"/><text fill="#000000" font-family="Verdana" font-size="13" lengthAdjust="spacing" textLength="224" x="194" y="574.9731">Selon expert, operation représenté</text><text fill="#000000" font-family="Verdana" font-size="13" lengthAdjust="spacing" textLength="208" x="194" y="590.106">dans un des RDCU précédent du</text><text fill="#000000" font-family="Verdana" font-size="13" lengthAdjust="spacing" textLength="144" x="194" y="605.2388">même cas d'utilisation</text><!--MD5=[9b1df72b55a7cd5f5eb1d4fcc43fd6b6]
@startuml
skinparam style strictuml
skinparam defaultfontname Verdana
title RDCU pour corrigerTousDevoirsZip
participant ":GestionnaireDevoir" as gestionnaireDevoir
participant "zipper : AdmZip" as zip
participant "fichierCsv : String[]" as csv

-> gestionnaireDevoir : corrigerTousDevoirsZip(idEspaceCours, idDevoir, pathFichierZip)
note left : Selon contrôleur,\ncontôleur de session
gestionnaireDevoir - -> zip** : create(pathFichierZip)
note left : Selon createur, gestionniareDevoir\nutilise étroitement zipper
gestionnaireDevoir -> zip : fichierCSV = getEntries().find("*.csv")
note left : Selon expert, fichierCSV\nest un tableau de String\nreprésentatif du CSV où\nchaque case représente\nune remise
gestionnaireDevoir -> gestionnaireDevoir : pathContenuZip = "./uploads/devoirs/idEspaceCours/idDevoir/retroaction"
note left : Selon créateur, gestionniareDevoir\nutilise étroitement pathContenuZip.\nIci la création de la variable\npathContenuZip est utilisée pour\nêtre plus rapide que d'écrire la string\ncomplète à chaque fois qu'elle est utilisée
gestionnaireDevoir -> zip : extractAllTo(pathContenuZip)
note left : Selon expert
loop fichierCSV.length
gestionnaireDevoir -> csv : idRemise = getIdRemise()
note left : Selon expert
gestionnaireDevoir -> csv : nomFichierRetro = getNomFichierRetro()
note left : Selon expert
gestionnaireDevoir -> csv : note = getNote()
note left : Selon expert
gestionnaireDevoir -> gestionnaireDevoir : corrigerDevoir(idEspaceCours, idDevoir,\nidRemise, note, pathContenuZip + nomFichierRetro)
note left : Selon expert, operation représenté\ndans un des RDCU précédent du\nmême cas d'utilisation
end
@enduml

PlantUML version 1.2021.9beta2(Unknown compile time)
(GPL source distribution)
Java Runtime: Java(TM) SE Runtime Environment
JVM: Java HotSpot(TM) 64-Bit Server VM
Default Encoding: UTF-8
Language: en
Country: US
--></g></svg>