<?xml version="1.0" encoding="UTF-8" standalone="no"?><svg xmlns="http://www.w3.org/2000/svg" xmlns:xlink="http://www.w3.org/1999/xlink" contentScriptType="application/ecmascript" contentStyleType="text/css" height="548px" preserveAspectRatio="none" style="width:1517px;height:548px;background:#FFFFFF;" version="1.1" viewBox="0 0 1517 548" width="1517px" zoomAndPan="magnify"><defs/><g><text fill="#000000" font-family="Verdana" font-size="18" lengthAdjust="spacing" textLength="245" x="635.75" y="28.708">RDCU pour corrigerDevoir</text><line style="stroke:#A80036;stroke-width:1.0;stroke-dasharray:5.0,5.0;" x1="293" x2="293" y1="71.25" y2="541.375"/><line style="stroke:#A80036;stroke-width:1.0;stroke-dasharray:5.0,5.0;" x1="779.5" x2="779.5" y1="71.25" y2="541.375"/><line style="stroke:#A80036;stroke-width:1.0;stroke-dasharray:5.0,5.0;" x1="1096" x2="1096" y1="71.25" y2="541.375"/><line style="stroke:#A80036;stroke-width:1.0;stroke-dasharray:5.0,5.0;" x1="1487.5" x2="1487.5" y1="71.25" y2="541.375"/><rect fill="#FEFECE" height="30.2969" style="stroke:#A80036;stroke-width:1.5;" width="158" x="214" y="39.9531"/><text fill="#000000" font-family="Verdana" font-size="14" lengthAdjust="spacing" textLength="144" x="221" y="59.9482">:GestionnaireDevoir</text><rect fill="#FEFECE" height="30.2969" style="stroke:#A80036;stroke-width:1.5;" width="129" x="715.5" y="39.9531"/><text fill="#000000" font-family="Verdana" font-size="14" lengthAdjust="spacing" textLength="115" x="722.5" y="59.9482">remise : Remise</text><rect fill="#FEFECE" height="30.2969" style="stroke:#A80036;stroke-width:1.5;" width="102" x="1045" y="39.9531"/><text fill="#000000" font-family="Verdana" font-size="14" lengthAdjust="spacing" textLength="88" x="1052" y="59.9482">:SGBService</text><rect fill="#FEFECE" height="30.2969" style="stroke:#A80036;stroke-width:1.5;" width="47" x="1464.5" y="39.9531"/><text fill="#000000" font-family="Verdana" font-size="14" lengthAdjust="spacing" textLength="33" x="1471.5" y="59.9482">:Sgb</text><polygon fill="#A80036" points="281,116.5156,291,120.5156,281,124.5156" style="stroke:#A80036;stroke-width:1.0;"/><line style="stroke:#A80036;stroke-width:1.0;" x1="0" x2="287" y1="120.5156" y2="120.5156"/><text fill="#000000" font-family="Verdana" font-size="13" lengthAdjust="spacing" textLength="255" x="7" y="100.3169">corrigerDevoir(idEspaceCours, idDevoir,</text><text fill="#000000" font-family="Verdana" font-size="13" lengthAdjust="spacing" textLength="250" x="7" y="115.4497">idEtudiant, note, pathFichierCorrection)</text><path d="M298,86.25 L298,126.25 L451,126.25 L451,96.25 L441,86.25 L298,86.25 " fill="#FBFB77" style="stroke:#A80036;stroke-width:1.0;"/><path d="M441,86.25 L441,96.25 L451,96.25 L441,86.25 " fill="#FBFB77" style="stroke:#A80036;stroke-width:1.0;"/><text fill="#000000" font-family="Verdana" font-size="13" lengthAdjust="spacing" textLength="108" x="304" y="103.3169">Selon contrôleur,</text><text fill="#000000" font-family="Verdana" font-size="13" lengthAdjust="spacing" textLength="132" x="304" y="118.4497">contôleur de session</text><line style="stroke:#A80036;stroke-width:1.0;" x1="293" x2="335" y1="164.2813" y2="164.2813"/><line style="stroke:#A80036;stroke-width:1.0;" x1="335" x2="335" y1="164.2813" y2="177.2813"/><line style="stroke:#A80036;stroke-width:1.0;" x1="294" x2="335" y1="177.2813" y2="177.2813"/><polygon fill="#A80036" points="304,173.2813,294,177.2813,304,181.2813" style="stroke:#A80036;stroke-width:1.0;"/><text fill="#000000" font-family="Verdana" font-size="13" lengthAdjust="spacing" textLength="473" x="300" y="159.2153">remise = recupererUnDevoirEtudiant(idEspaceCours, idDevoir, idEtudiant)</text><path d="M43,136.5156 L43,191.5156 L288,191.5156 L288,146.5156 L278,136.5156 L43,136.5156 " fill="#FBFB77" style="stroke:#A80036;stroke-width:1.0;"/><path d="M278,136.5156 L278,146.5156 L288,146.5156 L278,136.5156 " fill="#FBFB77" style="stroke:#A80036;stroke-width:1.0;"/><text fill="#000000" font-family="Verdana" font-size="13" lengthAdjust="spacing" textLength="224" x="49" y="153.5825">Selon expert, operation représenté</text><text fill="#000000" font-family="Verdana" font-size="13" lengthAdjust="spacing" textLength="208" x="49" y="168.7153">dans un des RDCU précédent du</text><text fill="#000000" font-family="Verdana" font-size="13" lengthAdjust="spacing" textLength="144" x="49" y="183.8481">même cas d'utilisation</text><polygon fill="#A80036" points="768,224.6133,778,228.6133,768,232.6133" style="stroke:#A80036;stroke-width:1.0;"/><line style="stroke:#A80036;stroke-width:1.0;" x1="293" x2="774" y1="228.6133" y2="228.6133"/><text fill="#000000" font-family="Verdana" font-size="13" lengthAdjust="spacing" textLength="274" x="300" y="223.5474">corrigerDevoir(note, pathFichierCorrection)</text><path d="M66,201.9141 L66,241.9141 L288,241.9141 L288,211.9141 L278,201.9141 L66,201.9141 " fill="#FBFB77" style="stroke:#A80036;stroke-width:1.0;"/><path d="M278,201.9141 L278,211.9141 L288,211.9141 L278,201.9141 " fill="#FBFB77" style="stroke:#A80036;stroke-width:1.0;"/><text fill="#000000" font-family="Verdana" font-size="13" lengthAdjust="spacing" textLength="197" x="72" y="218.981">Selon expert, l'oppération veut</text><text fill="#000000" font-family="Verdana" font-size="13" lengthAdjust="spacing" textLength="201" x="72" y="234.1138">modifier les attributs de remise</text><line style="stroke:#A80036;stroke-width:1.0;" x1="780" x2="822" y1="268.3125" y2="268.3125"/><line style="stroke:#A80036;stroke-width:1.0;" x1="822" x2="822" y1="268.3125" y2="281.3125"/><line style="stroke:#A80036;stroke-width:1.0;" x1="781" x2="822" y1="281.3125" y2="281.3125"/><polygon fill="#A80036" points="791,277.3125,781,281.3125,791,285.3125" style="stroke:#A80036;stroke-width:1.0;"/><text fill="#000000" font-family="Verdana" font-size="13" lengthAdjust="spacing" textLength="89" x="787" y="263.2466">setNote(note)</text><path d="M673,255.6797 L673,280.6797 L775,280.6797 L775,265.6797 L765,255.6797 L673,255.6797 " fill="#FBFB77" style="stroke:#A80036;stroke-width:1.0;"/><path d="M765,255.6797 L765,265.6797 L775,265.6797 L765,255.6797 " fill="#FBFB77" style="stroke:#A80036;stroke-width:1.0;"/><text fill="#000000" font-family="Verdana" font-size="13" lengthAdjust="spacing" textLength="81" x="679" y="272.7466">Selon expert</text><line style="stroke:#A80036;stroke-width:1.0;" x1="780" x2="822" y1="310.4453" y2="310.4453"/><line style="stroke:#A80036;stroke-width:1.0;" x1="822" x2="822" y1="310.4453" y2="323.4453"/><line style="stroke:#A80036;stroke-width:1.0;" x1="781" x2="822" y1="323.4453" y2="323.4453"/><polygon fill="#A80036" points="791,319.4453,781,323.4453,791,327.4453" style="stroke:#A80036;stroke-width:1.0;"/><text fill="#000000" font-family="Verdana" font-size="13" lengthAdjust="spacing" textLength="302" x="787" y="305.3794">setPathFichierCorrection(pathFichierCorrection)</text><path d="M673,297.8125 L673,322.8125 L775,322.8125 L775,307.8125 L765,297.8125 L673,297.8125 " fill="#FBFB77" style="stroke:#A80036;stroke-width:1.0;"/><path d="M765,297.8125 L765,307.8125 L775,307.8125 L765,297.8125 " fill="#FBFB77" style="stroke:#A80036;stroke-width:1.0;"/><text fill="#000000" font-family="Verdana" font-size="13" lengthAdjust="spacing" textLength="81" x="679" y="314.8794">Selon expert</text><line style="stroke:#A80036;stroke-width:1.0;" x1="780" x2="822" y1="352.5781" y2="352.5781"/><line style="stroke:#A80036;stroke-width:1.0;" x1="822" x2="822" y1="352.5781" y2="365.5781"/><line style="stroke:#A80036;stroke-width:1.0;" x1="781" x2="822" y1="365.5781" y2="365.5781"/><polygon fill="#A80036" points="791,361.5781,781,365.5781,791,369.5781" style="stroke:#A80036;stroke-width:1.0;"/><text fill="#000000" font-family="Verdana" font-size="13" lengthAdjust="spacing" textLength="136" x="787" y="347.5122">setdate(currentDate)</text><path d="M673,339.9453 L673,364.9453 L775,364.9453 L775,349.9453 L765,339.9453 L673,339.9453 " fill="#FBFB77" style="stroke:#A80036;stroke-width:1.0;"/><path d="M765,339.9453 L765,349.9453 L775,349.9453 L765,339.9453 " fill="#FBFB77" style="stroke:#A80036;stroke-width:1.0;"/><text fill="#000000" font-family="Verdana" font-size="13" lengthAdjust="spacing" textLength="81" x="679" y="357.0122">Selon expert</text><line style="stroke:#A80036;stroke-width:1.0;" x1="780" x2="822" y1="394.7109" y2="394.7109"/><line style="stroke:#A80036;stroke-width:1.0;" x1="822" x2="822" y1="394.7109" y2="407.7109"/><line style="stroke:#A80036;stroke-width:1.0;" x1="781" x2="822" y1="407.7109" y2="407.7109"/><polygon fill="#A80036" points="791,403.7109,781,407.7109,791,411.7109" style="stroke:#A80036;stroke-width:1.0;"/><text fill="#000000" font-family="Verdana" font-size="13" lengthAdjust="spacing" textLength="152" x="787" y="389.645">setEtat("RemisCorrige")</text><path d="M673,382.0781 L673,407.0781 L775,407.0781 L775,392.0781 L765,382.0781 L673,382.0781 " fill="#FBFB77" style="stroke:#A80036;stroke-width:1.0;"/><path d="M765,382.0781 L765,392.0781 L775,392.0781 L765,382.0781 " fill="#FBFB77" style="stroke:#A80036;stroke-width:1.0;"/><text fill="#000000" font-family="Verdana" font-size="13" lengthAdjust="spacing" textLength="81" x="679" y="399.145">Selon expert</text><polygon fill="#A80036" points="1084,458.543,1094,462.543,1084,466.543" style="stroke:#A80036;stroke-width:1.0;"/><line style="stroke:#A80036;stroke-width:1.0;" x1="293" x2="1090" y1="462.543" y2="462.543"/><text fill="#000000" font-family="Verdana" font-size="13" lengthAdjust="spacing" textLength="468" x="300" y="457.4771">ajouterNoteEtudiant(idEspaceCours, idEtudiant, typeDevoir, typeId, note)</text><path d="M5,420.7109 L5,490.7109 L288,490.7109 L288,430.7109 L278,420.7109 L5,420.7109 " fill="#FBFB77" style="stroke:#A80036;stroke-width:1.0;"/><path d="M278,420.7109 L278,430.7109 L288,430.7109 L278,420.7109 " fill="#FBFB77" style="stroke:#A80036;stroke-width:1.0;"/><text fill="#000000" font-family="Verdana" font-size="13" lengthAdjust="spacing" textLength="222" x="11" y="437.7778">Selon indirection, évite le couplage</text><text fill="#000000" font-family="Verdana" font-size="13" lengthAdjust="spacing" textLength="262" x="11" y="452.9106">entre GestionnaireDevoir et le SGB. Tous</text><text fill="#000000" font-family="Verdana" font-size="13" lengthAdjust="spacing" textLength="183" x="11" y="468.0435">les appels vers SGB sont fait</text><text fill="#000000" font-family="Verdana" font-size="13" lengthAdjust="spacing" textLength="98" x="11" y="483.1763">par SGBService</text><polygon fill="#A80036" points="1476,516.375,1486,520.375,1476,524.375" style="stroke:#A80036;stroke-width:1.0;"/><line style="stroke:#A80036;stroke-width:1.0;" x1="1096" x2="1482" y1="520.375" y2="520.375"/><text fill="#000000" font-family="Verdana" font-size="13" lengthAdjust="spacing" textLength="368" x="1103" y="515.3091">post(idEspaceCours, idEtudiant, typeDevoir, typeId, note)</text><path d="M985,501.2422 L985,526.2422 L1091,526.2422 L1091,511.2422 L1081,501.2422 L985,501.2422 " fill="#FBFB77" style="stroke:#A80036;stroke-width:1.0;"/><path d="M1081,501.2422 L1081,511.2422 L1091,511.2422 L1081,501.2422 " fill="#FBFB77" style="stroke:#A80036;stroke-width:1.0;"/><text fill="#000000" font-family="Verdana" font-size="13" lengthAdjust="spacing" textLength="85" x="991" y="518.3091">Selon expert.</text><!--MD5=[6e98003ba5b1de95d7416f7ac0756bab]
@startuml
skinparam style strictuml
skinparam defaultfontname Verdana
title RDCU pour corrigerDevoir
participant ":GestionnaireDevoir" as gestionnaireDevoir
participant "remise : Remise" as remise
participant ":SGBService" as service
participant ":Sgb" as sgb

-> gestionnaireDevoir : corrigerDevoir(idEspaceCours, idDevoir,\nidEtudiant, note, pathFichierCorrection)
note left : Selon contrôleur,\ncontôleur de session
gestionnaireDevoir -> gestionnaireDevoir : remise = recupererUnDevoirEtudiant(idEspaceCours, idDevoir, idEtudiant)
note left : Selon expert, operation représenté\ndans un des RDCU précédent du\nmême cas d'utilisation
gestionnaireDevoir -> remise : corrigerDevoir(note, pathFichierCorrection)
note left : Selon expert, l'oppération veut\nmodifier les attributs de remise
remise -> remise : setNote(note)
note left : Selon expert
remise -> remise : setPathFichierCorrection(pathFichierCorrection)
note left : Selon expert
remise -> remise : setdate(currentDate)
note left : Selon expert
remise -> remise : setEtat("RemisCorrige")
note left : Selon expert

gestionnaireDevoir -> service : ajouterNoteEtudiant(idEspaceCours, idEtudiant, typeDevoir, typeId, note)
note left : Selon indirection, évite le couplage\nentre GestionnaireDevoir et le SGB. Tous\nles appels vers SGB sont fait\npar SGBService
service -> sgb : post(idEspaceCours, idEtudiant, typeDevoir, typeId, note)
note left : Selon expert.
@enduml

PlantUML version 1.2021.9beta2(Unknown compile time)
(GPL source distribution)
Java Runtime: Java(TM) SE Runtime Environment
JVM: Java HotSpot(TM) 64-Bit Server VM
Default Encoding: UTF-8
Language: en
Country: US
--></g></svg>