<?xml version="1.0" encoding="UTF-8" standalone="no"?><svg xmlns="http://www.w3.org/2000/svg" xmlns:xlink="http://www.w3.org/1999/xlink" contentScriptType="application/ecmascript" contentStyleType="text/css" height="959px" preserveAspectRatio="none" style="width:2122px;height:959px;background:#FFFFFF;" version="1.1" viewBox="0 0 2122 959" width="2122px" zoomAndPan="magnify"><defs/><g><text fill="#000000" font-family="Verdana" font-size="18" lengthAdjust="spacing" textLength="348" x="889.25" y="28.708">RDCU pour creerZipCorrectionDevoir</text><rect fill="#FFFFFF" height="309.3281" style="stroke:#000000;stroke-width:2.0;" width="1522.5" x="594" y="431.9766"/><rect fill="#FFFFFF" height="207.9297" style="stroke:#000000;stroke-width:2.0;" width="1502.5" x="604" y="526.375"/><line style="stroke:#A80036;stroke-width:1.0;stroke-dasharray:5.0,5.0;" x1="363" x2="363" y1="71.25" y2="952.2344"/><line style="stroke:#A80036;stroke-width:1.0;stroke-dasharray:5.0,5.0;" x1="720.5" x2="720.5" y1="71.25" y2="952.2344"/><line style="stroke:#A80036;stroke-width:1.0;stroke-dasharray:5.0,5.0;" x1="942.5" x2="942.5" y1="282.3125" y2="952.2344"/><line style="stroke:#A80036;stroke-width:1.0;stroke-dasharray:5.0,5.0;" x1="1255.5" x2="1255.5" y1="332.5781" y2="952.2344"/><line style="stroke:#A80036;stroke-width:1.0;stroke-dasharray:5.0,5.0;" x1="1442.5" x2="1442.5" y1="71.25" y2="952.2344"/><line style="stroke:#A80036;stroke-width:1.0;stroke-dasharray:5.0,5.0;" x1="1617.5" x2="1617.5" y1="71.25" y2="952.2344"/><line style="stroke:#A80036;stroke-width:1.0;stroke-dasharray:5.0,5.0;" x1="2000.5" x2="2000.5" y1="684.0391" y2="952.2344"/><rect fill="#FEFECE" height="30.2969" style="stroke:#A80036;stroke-width:1.5;" width="158" x="284" y="39.9531"/><text fill="#000000" font-family="Verdana" font-size="14" lengthAdjust="spacing" textLength="144" x="291" y="59.9482">:GestionnaireDevoir</text><rect fill="#FEFECE" height="30.2969" style="stroke:#A80036;stroke-width:1.5;" width="119" x="661.5" y="39.9531"/><text fill="#000000" font-family="Verdana" font-size="14" lengthAdjust="spacing" textLength="105" x="668.5" y="59.9482">devoir : Devoir</text><rect fill="#FEFECE" height="30.2969" style="stroke:#A80036;stroke-width:1.5;" width="143" x="1371.5" y="39.9531"/><text fill="#000000" font-family="Verdana" font-size="14" lengthAdjust="spacing" textLength="129" x="1378.5" y="59.9482">remises : Remises</text><rect fill="#FEFECE" height="30.2969" style="stroke:#A80036;stroke-width:1.5;" width="186" x="1524.5" y="39.9531"/><text fill="#000000" font-family="Verdana" font-size="14" lengthAdjust="spacing" textLength="172" x="1531.5" y="59.9482">currentRemise : Remise</text><polygon fill="#A80036" points="351,116.5156,361,120.5156,351,124.5156" style="stroke:#A80036;stroke-width:1.0;"/><line style="stroke:#A80036;stroke-width:1.0;" x1="0" x2="357" y1="120.5156" y2="120.5156"/><text fill="#000000" font-family="Verdana" font-size="13" lengthAdjust="spacing" textLength="339" x="7" y="100.3169">zipName = creerZipCorrectionDevoir(idEspaceCours,</text><text fill="#000000" font-family="Verdana" font-size="13" lengthAdjust="spacing" textLength="58" x="7" y="115.4497">idDevoir)</text><path d="M368,86.25 L368,126.25 L521,126.25 L521,96.25 L511,86.25 L368,86.25 " fill="#FBFB77" style="stroke:#A80036;stroke-width:1.0;"/><path d="M511,86.25 L511,96.25 L521,96.25 L511,86.25 " fill="#FBFB77" style="stroke:#A80036;stroke-width:1.0;"/><text fill="#000000" font-family="Verdana" font-size="13" lengthAdjust="spacing" textLength="108" x="374" y="103.3169">Selon contrôleur,</text><text fill="#000000" font-family="Verdana" font-size="13" lengthAdjust="spacing" textLength="132" x="374" y="118.4497">contôleur de session</text><line style="stroke:#A80036;stroke-width:1.0;" x1="363" x2="405" y1="164.2813" y2="164.2813"/><line style="stroke:#A80036;stroke-width:1.0;" x1="405" x2="405" y1="164.2813" y2="177.2813"/><line style="stroke:#A80036;stroke-width:1.0;" x1="364" x2="405" y1="177.2813" y2="177.2813"/><polygon fill="#A80036" points="374,173.2813,364,177.2813,374,181.2813" style="stroke:#A80036;stroke-width:1.0;"/><text fill="#000000" font-family="Verdana" font-size="13" lengthAdjust="spacing" textLength="344" x="370" y="159.2153">devoir = recupererUnDevoir(idEspaceCours, IdDevoir)</text><path d="M113,136.5156 L113,191.5156 L358,191.5156 L358,146.5156 L348,136.5156 L113,136.5156 " fill="#FBFB77" style="stroke:#A80036;stroke-width:1.0;"/><path d="M348,136.5156 L348,146.5156 L358,146.5156 L348,136.5156 " fill="#FBFB77" style="stroke:#A80036;stroke-width:1.0;"/><text fill="#000000" font-family="Verdana" font-size="13" lengthAdjust="spacing" textLength="224" x="119" y="153.5825">Selon expert, operation représenté</text><text fill="#000000" font-family="Verdana" font-size="13" lengthAdjust="spacing" textLength="208" x="119" y="168.7153">dans un des RDCU précédent du</text><text fill="#000000" font-family="Verdana" font-size="13" lengthAdjust="spacing" textLength="144" x="119" y="183.8481">même cas d'utilisation</text><polygon fill="#A80036" points="709,224.6133,719,228.6133,709,232.6133" style="stroke:#A80036;stroke-width:1.0;"/><line style="stroke:#A80036;stroke-width:1.0;" x1="363" x2="715" y1="228.6133" y2="228.6133"/><text fill="#000000" font-family="Verdana" font-size="13" lengthAdjust="spacing" textLength="172" x="370" y="223.5474">creerZipCorrectionDevoir()</text><path d="M79,201.9141 L79,241.9141 L358,241.9141 L358,211.9141 L348,201.9141 L79,201.9141 " fill="#FBFB77" style="stroke:#A80036;stroke-width:1.0;"/><path d="M348,201.9141 L348,211.9141 L358,211.9141 L348,201.9141 " fill="#FBFB77" style="stroke:#A80036;stroke-width:1.0;"/><text fill="#000000" font-family="Verdana" font-size="13" lengthAdjust="spacing" textLength="258" x="85" y="218.981">Selon expert, l'on veut créer un zip avec</text><text fill="#000000" font-family="Verdana" font-size="13" lengthAdjust="spacing" textLength="186" x="85" y="234.1138">toutes les remise d'un devoir</text><polygon fill="#A80036" points="865.5,264.3125,875.5,268.3125,865.5,272.3125" style="stroke:#A80036;stroke-width:1.0;"/><line style="stroke:#A80036;stroke-width:1.0;stroke-dasharray:2.0,2.0;" x1="721" x2="871.5" y1="268.3125" y2="268.3125"/><text fill="#000000" font-family="Verdana" font-size="13" lengthAdjust="spacing" textLength="51" x="728" y="263.2466">create()</text><rect fill="#FEFECE" height="30.2969" style="stroke:#A80036;stroke-width:1.5;" width="131" x="877.5" y="251.6641"/><text fill="#000000" font-family="Verdana" font-size="14" lengthAdjust="spacing" textLength="117" x="884.5" y="271.6592">zipper : AdmZip</text><path d="M511,252.1797 L511,292.1797 L716,292.1797 L716,262.1797 L706,252.1797 L511,252.1797 " fill="#FBFB77" style="stroke:#A80036;stroke-width:1.0;"/><path d="M706,252.1797 L706,262.1797 L716,262.1797 L706,252.1797 " fill="#FBFB77" style="stroke:#A80036;stroke-width:1.0;"/><text fill="#000000" font-family="Verdana" font-size="13" lengthAdjust="spacing" textLength="184" x="517" y="269.2466">Selon createur, Devoir utilise</text><text fill="#000000" font-family="Verdana" font-size="13" lengthAdjust="spacing" textLength="119" x="517" y="284.3794">étroitement zipper</text><polygon fill="#A80036" points="1138.5,314.5781,1148.5,318.5781,1138.5,322.5781" style="stroke:#A80036;stroke-width:1.0;"/><line style="stroke:#A80036;stroke-width:1.0;stroke-dasharray:2.0,2.0;" x1="721" x2="1144.5" y1="318.5781" y2="318.5781"/><text fill="#000000" font-family="Verdana" font-size="13" lengthAdjust="spacing" textLength="51" x="728" y="313.5122">create()</text><rect fill="#FEFECE" height="30.2969" style="stroke:#A80036;stroke-width:1.5;" width="211" x="1150.5" y="301.9297"/><text fill="#000000" font-family="Verdana" font-size="14" lengthAdjust="spacing" textLength="197" x="1157.5" y="321.9248">contentBufferCSV : string[]</text><path d="M501,302.4453 L501,342.4453 L716,342.4453 L716,312.4453 L706,302.4453 L501,302.4453 " fill="#FBFB77" style="stroke:#A80036;stroke-width:1.0;"/><path d="M706,302.4453 L706,312.4453 L716,312.4453 L706,302.4453 " fill="#FBFB77" style="stroke:#A80036;stroke-width:1.0;"/><text fill="#000000" font-family="Verdana" font-size="13" lengthAdjust="spacing" textLength="184" x="507" y="319.5122">Selon createur, Devoir utilise</text><text fill="#000000" font-family="Verdana" font-size="13" lengthAdjust="spacing" textLength="194" x="507" y="334.645">étroitement contentBufferCSV</text><polygon fill="#A80036" points="1244,367.8438,1254,371.8438,1244,375.8438" style="stroke:#A80036;stroke-width:1.0;"/><line style="stroke:#A80036;stroke-width:1.0;" x1="721" x2="1250" y1="371.8438" y2="371.8438"/><text fill="#000000" font-family="Verdana" font-size="13" lengthAdjust="spacing" textLength="511" x="728" y="366.7778">push("ID; Code permanent; Nom complet; Nom du fichier de retroaction; Note")</text><path d="M614,352.7109 L614,377.7109 L716,377.7109 L716,362.7109 L706,352.7109 L614,352.7109 " fill="#FBFB77" style="stroke:#A80036;stroke-width:1.0;"/><path d="M706,352.7109 L706,362.7109 L716,362.7109 L706,352.7109 " fill="#FBFB77" style="stroke:#A80036;stroke-width:1.0;"/><text fill="#000000" font-family="Verdana" font-size="13" lengthAdjust="spacing" textLength="81" x="620" y="369.7778">Selon expert</text><line style="stroke:#A80036;stroke-width:1.0;" x1="721" x2="763" y1="403.9766" y2="403.9766"/><line style="stroke:#A80036;stroke-width:1.0;" x1="763" x2="763" y1="403.9766" y2="416.9766"/><line style="stroke:#A80036;stroke-width:1.0;" x1="722" x2="763" y1="416.9766" y2="416.9766"/><polygon fill="#A80036" points="732,412.9766,722,416.9766,732,420.9766" style="stroke:#A80036;stroke-width:1.0;"/><text fill="#000000" font-family="Verdana" font-size="13" lengthAdjust="spacing" textLength="155" x="728" y="398.9106">remises = getRemises()</text><path d="M614,391.3438 L614,416.3438 L716,416.3438 L716,401.3438 L706,391.3438 L614,391.3438 " fill="#FBFB77" style="stroke:#A80036;stroke-width:1.0;"/><path d="M706,391.3438 L706,401.3438 L716,401.3438 L706,391.3438 " fill="#FBFB77" style="stroke:#A80036;stroke-width:1.0;"/><text fill="#000000" font-family="Verdana" font-size="13" lengthAdjust="spacing" textLength="81" x="620" y="408.4106">Selon expert</text><path d="M594,431.9766 L672,431.9766 L672,438.9766 L662,448.9766 L594,448.9766 L594,431.9766 " fill="#EEEEEE" style="stroke:#000000;stroke-width:1.0;"/><rect fill="none" height="309.3281" style="stroke:#000000;stroke-width:2.0;" width="1522.5" x="594" y="431.9766"/><text fill="#000000" font-family="Verdana" font-size="13" font-weight="bold" lengthAdjust="spacing" textLength="33" x="609" y="445.0435">loop</text><text fill="#000000" font-family="Verdana" font-size="11" font-weight="bold" lengthAdjust="spacing" textLength="109" x="687" y="444.187">[remises.length]</text><polygon fill="#A80036" points="1431,469.2422,1441,473.2422,1431,477.2422" style="stroke:#A80036;stroke-width:1.0;"/><line style="stroke:#A80036;stroke-width:1.0;" x1="721" x2="1437" y1="473.2422" y2="473.2422"/><text fill="#000000" font-family="Verdana" font-size="13" lengthAdjust="spacing" textLength="146" x="728" y="468.1763">currentRemise = get(i)</text><path d="M614,454.1094 L614,479.1094 L716,479.1094 L716,464.1094 L706,454.1094 L614,454.1094 " fill="#FBFB77" style="stroke:#A80036;stroke-width:1.0;"/><path d="M706,454.1094 L706,464.1094 L716,464.1094 L706,454.1094 " fill="#FBFB77" style="stroke:#A80036;stroke-width:1.0;"/><text fill="#000000" font-family="Verdana" font-size="13" lengthAdjust="spacing" textLength="81" x="620" y="471.1763">Selon expert</text><polygon fill="#A80036" points="1605.5,504.375,1615.5,508.375,1605.5,512.375" style="stroke:#A80036;stroke-width:1.0;"/><line style="stroke:#A80036;stroke-width:1.0;" x1="721" x2="1611.5" y1="508.375" y2="508.375"/><text fill="#000000" font-family="Verdana" font-size="13" lengthAdjust="spacing" textLength="101" x="728" y="503.3091">etat = getEtat()</text><path d="M614,489.2422 L614,514.2422 L716,514.2422 L716,499.2422 L706,489.2422 L614,489.2422 " fill="#FBFB77" style="stroke:#A80036;stroke-width:1.0;"/><path d="M706,489.2422 L706,499.2422 L716,499.2422 L706,489.2422 " fill="#FBFB77" style="stroke:#A80036;stroke-width:1.0;"/><text fill="#000000" font-family="Verdana" font-size="13" lengthAdjust="spacing" textLength="81" x="620" y="506.3091">Selon expert</text><path d="M604,526.375 L670,526.375 L670,533.375 L660,543.375 L604,543.375 L604,526.375 " fill="#EEEEEE" style="stroke:#000000;stroke-width:1.0;"/><rect fill="none" height="207.9297" style="stroke:#000000;stroke-width:2.0;" width="1502.5" x="604" y="526.375"/><text fill="#000000" font-family="Verdana" font-size="13" font-weight="bold" lengthAdjust="spacing" textLength="21" x="619" y="539.4419">alt</text><text fill="#000000" font-family="Verdana" font-size="11" font-weight="bold" lengthAdjust="spacing" textLength="115" x="685" y="538.5854">[etat == "Remis"]</text><polygon fill="#A80036" points="1605.5,563.6406,1615.5,567.6406,1605.5,571.6406" style="stroke:#A80036;stroke-width:1.0;"/><line style="stroke:#A80036;stroke-width:1.0;" x1="721" x2="1611.5" y1="567.6406" y2="567.6406"/><text fill="#000000" font-family="Verdana" font-size="13" lengthAdjust="spacing" textLength="148" x="728" y="562.5747">path = getPathFichier()</text><path d="M614,548.5078 L614,573.5078 L716,573.5078 L716,558.5078 L706,548.5078 L614,548.5078 " fill="#FBFB77" style="stroke:#A80036;stroke-width:1.0;"/><path d="M706,548.5078 L706,558.5078 L716,558.5078 L706,548.5078 " fill="#FBFB77" style="stroke:#A80036;stroke-width:1.0;"/><text fill="#000000" font-family="Verdana" font-size="13" lengthAdjust="spacing" textLength="81" x="620" y="565.5747">Selon expert</text><polygon fill="#A80036" points="931,598.7734,941,602.7734,931,606.7734" style="stroke:#A80036;stroke-width:1.0;"/><line style="stroke:#A80036;stroke-width:1.0;" x1="721" x2="937" y1="602.7734" y2="602.7734"/><text fill="#000000" font-family="Verdana" font-size="13" lengthAdjust="spacing" textLength="84" x="728" y="597.7075">addFile(path)</text><path d="M614,583.6406 L614,608.6406 L716,608.6406 L716,593.6406 L706,583.6406 L614,583.6406 " fill="#FBFB77" style="stroke:#A80036;stroke-width:1.0;"/><path d="M706,583.6406 L706,593.6406 L716,593.6406 L706,583.6406 " fill="#FBFB77" style="stroke:#A80036;stroke-width:1.0;"/><text fill="#000000" font-family="Verdana" font-size="13" lengthAdjust="spacing" textLength="81" x="620" y="600.7075">Selon expert</text><polygon fill="#A80036" points="1605.5,633.9063,1615.5,637.9063,1605.5,641.9063" style="stroke:#A80036;stroke-width:1.0;"/><line style="stroke:#A80036;stroke-width:1.0;" x1="721" x2="1611.5" y1="637.9063" y2="637.9063"/><text fill="#000000" font-family="Verdana" font-size="13" lengthAdjust="spacing" textLength="227" x="728" y="632.8403">contentRowCsv = getcontentRow()</text><path d="M614,618.7734 L614,643.7734 L716,643.7734 L716,628.7734 L706,618.7734 L614,618.7734 " fill="#FBFB77" style="stroke:#A80036;stroke-width:1.0;"/><path d="M706,618.7734 L706,628.7734 L716,628.7734 L706,618.7734 " fill="#FBFB77" style="stroke:#A80036;stroke-width:1.0;"/><text fill="#000000" font-family="Verdana" font-size="13" lengthAdjust="spacing" textLength="81" x="620" y="635.8403">Selon expert</text><polygon fill="#A80036" points="1892.5,666.0391,1902.5,670.0391,1892.5,674.0391" style="stroke:#A80036;stroke-width:1.0;"/><line style="stroke:#A80036;stroke-width:1.0;stroke-dasharray:2.0,2.0;" x1="1617.5" x2="1898.5" y1="670.0391" y2="670.0391"/><text fill="#000000" font-family="Verdana" font-size="13" lengthAdjust="spacing" textLength="263" x="1624.5" y="664.9731">create(id, codePermanent, nomComplet)</text><rect fill="#FEFECE" height="30.2969" style="stroke:#A80036;stroke-width:1.5;" width="192" x="1904.5" y="653.3906"/><text fill="#000000" font-family="Verdana" font-size="14" lengthAdjust="spacing" textLength="178" x="1911.5" y="673.3857">contentRowCsv : string[]</text><path d="M1308,653.9063 L1308,693.9063 L1612,693.9063 L1612,663.9063 L1602,653.9063 L1308,653.9063 " fill="#FBFB77" style="stroke:#A80036;stroke-width:1.0;"/><path d="M1602,653.9063 L1602,663.9063 L1612,663.9063 L1602,653.9063 " fill="#FBFB77" style="stroke:#A80036;stroke-width:1.0;"/><text fill="#000000" font-family="Verdana" font-size="13" lengthAdjust="spacing" textLength="283" x="1314" y="670.9731">Selon createur, . Remise a les données pour</text><text fill="#000000" font-family="Verdana" font-size="13" lengthAdjust="spacing" textLength="188" x="1314" y="686.106">initialiser son contentRowCsv</text><polygon fill="#A80036" points="1244,719.3047,1254,723.3047,1244,727.3047" style="stroke:#A80036;stroke-width:1.0;"/><line style="stroke:#A80036;stroke-width:1.0;" x1="721" x2="1250" y1="723.3047" y2="723.3047"/><text fill="#000000" font-family="Verdana" font-size="13" lengthAdjust="spacing" textLength="142" x="728" y="718.2388">push(contentRowCsv)</text><path d="M614,704.1719 L614,729.1719 L716,729.1719 L716,714.1719 L706,704.1719 L614,704.1719 " fill="#FBFB77" style="stroke:#A80036;stroke-width:1.0;"/><path d="M706,704.1719 L706,714.1719 L716,714.1719 L706,704.1719 " fill="#FBFB77" style="stroke:#A80036;stroke-width:1.0;"/><text fill="#000000" font-family="Verdana" font-size="13" lengthAdjust="spacing" textLength="81" x="620" y="721.2388">Selon expert</text><polygon fill="#A80036" points="931,765.4375,941,769.4375,931,773.4375" style="stroke:#A80036;stroke-width:1.0;"/><line style="stroke:#A80036;stroke-width:1.0;" x1="721" x2="937" y1="769.4375" y2="769.4375"/><text fill="#000000" font-family="Verdana" font-size="13" lengthAdjust="spacing" textLength="169" x="728" y="764.3716">addFile(contentBufferCSV)</text><line style="stroke:#A80036;stroke-width:1.0;" x1="721" x2="763" y1="802.6367" y2="802.6367"/><line style="stroke:#A80036;stroke-width:1.0;" x1="763" x2="763" y1="802.6367" y2="815.6367"/><line style="stroke:#A80036;stroke-width:1.0;" x1="722" x2="763" y1="815.6367" y2="815.6367"/><polygon fill="#A80036" points="732,811.6367,722,815.6367,732,819.6367" style="stroke:#A80036;stroke-width:1.0;"/><text fill="#000000" font-family="Verdana" font-size="13" lengthAdjust="spacing" textLength="146" x="728" y="797.5708">zipPath = getZipPath()</text><path d="M432,782.4375 L432,822.4375 L716,822.4375 L716,792.4375 L706,782.4375 L432,782.4375 " fill="#FBFB77" style="stroke:#A80036;stroke-width:1.0;"/><path d="M706,782.4375 L706,792.4375 L716,792.4375 L706,782.4375 " fill="#FBFB77" style="stroke:#A80036;stroke-width:1.0;"/><text fill="#000000" font-family="Verdana" font-size="13" lengthAdjust="spacing" textLength="263" x="438" y="799.5044">Selon expert, retourne "uploads/devoirs/"</text><text fill="#000000" font-family="Verdana" font-size="13" lengthAdjust="spacing" textLength="218" x="438" y="814.6372">+ idEspaceCours + "/" + idDevoir`</text><line style="stroke:#A80036;stroke-width:1.0;" x1="721" x2="763" y1="852.9023" y2="852.9023"/><line style="stroke:#A80036;stroke-width:1.0;" x1="763" x2="763" y1="852.9023" y2="865.9023"/><line style="stroke:#A80036;stroke-width:1.0;" x1="722" x2="763" y1="865.9023" y2="865.9023"/><polygon fill="#A80036" points="732,861.9023,722,865.9023,732,869.9023" style="stroke:#A80036;stroke-width:1.0;"/><text fill="#000000" font-family="Verdana" font-size="13" lengthAdjust="spacing" textLength="190" x="728" y="847.8364">nomFichier = getNomFichier()</text><path d="M427,832.7031 L427,872.7031 L716,872.7031 L716,842.7031 L706,832.7031 L427,832.7031 " fill="#FBFB77" style="stroke:#A80036;stroke-width:1.0;"/><path d="M706,832.7031 L706,842.7031 L716,842.7031 L706,832.7031 " fill="#FBFB77" style="stroke:#A80036;stroke-width:1.0;"/><text fill="#000000" font-family="Verdana" font-size="13" lengthAdjust="spacing" textLength="268" x="433" y="849.77">Selon expert, retourn "/correction-devoir-"</text><text fill="#000000" font-family="Verdana" font-size="13" lengthAdjust="spacing" textLength="117" x="433" y="864.9028">+ idDevoir + ".zip"</text><polygon fill="#A80036" points="931,898.1016,941,902.1016,931,906.1016" style="stroke:#A80036;stroke-width:1.0;"/><line style="stroke:#A80036;stroke-width:1.0;" x1="721" x2="937" y1="902.1016" y2="902.1016"/><text fill="#000000" font-family="Verdana" font-size="13" lengthAdjust="spacing" textLength="198" x="728" y="897.0356">writeZip(zipPath + nomFichier)</text><path d="M614,882.9688 L614,907.9688 L716,907.9688 L716,892.9688 L706,882.9688 L614,882.9688 " fill="#FBFB77" style="stroke:#A80036;stroke-width:1.0;"/><path d="M706,882.9688 L706,892.9688 L716,892.9688 L706,882.9688 " fill="#FBFB77" style="stroke:#A80036;stroke-width:1.0;"/><text fill="#000000" font-family="Verdana" font-size="13" lengthAdjust="spacing" textLength="81" x="620" y="900.0356">Selon expert</text><polygon fill="#A80036" points="374,930.2344,364,934.2344,374,938.2344" style="stroke:#A80036;stroke-width:1.0;"/><line style="stroke:#A80036;stroke-width:1.0;stroke-dasharray:2.0,2.0;" x1="368" x2="720" y1="934.2344" y2="934.2344"/><text fill="#000000" font-family="Verdana" font-size="13" lengthAdjust="spacing" textLength="135" x="380" y="929.1685">zipPath + nomFichier</text><!--MD5=[fc42fee2a69126e857460417161b8333]
@startuml
skinparam style strictuml
skinparam defaultfontname Verdana
title RDCU pour creerZipCorrectionDevoir
participant ":GestionnaireDevoir" as gestionnaireDevoir
participant "devoir : Devoir" as devoir
participant "zipper : AdmZip" as zip
participant "contentBufferCSV : string[]" as content
participant "remises : Remises" as remises
participant "currentRemise : Remise" as remise
participant "contentRowCsv : string[]" as contentRow

-> gestionnaireDevoir : zipName = creerZipCorrectionDevoir(idEspaceCours,\nidDevoir)
note left : Selon contrôleur,\ncontôleur de session
gestionnaireDevoir -> gestionnaireDevoir : devoir = recupererUnDevoir(idEspaceCours, IdDevoir)
note left : Selon expert, operation représenté\ndans un des RDCU précédent du\nmême cas d'utilisation
gestionnaireDevoir -> devoir : creerZipCorrectionDevoir()
note left : Selon expert, l'on veut créer un zip avec\ntoutes les remise d'un devoir
devoir - -> zip**: create() 
note left : Selon createur, Devoir utilise\nétroitement zipper
devoir - -> content**: create()
note left : Selon createur, Devoir utilise\nétroitement contentBufferCSV
devoir -> content : push("ID; Code permanent; Nom complet; Nom du fichier de retroaction; Note")
note left : Selon expert
devoir -> devoir : remises = getRemises()
note left : Selon expert
loop remises.length
devoir -> remises : currentRemise = get(i)
note left : Selon expert
devoir -> remise : etat = getEtat()
note left : Selon expert
alt etat == "Remis"
devoir -> remise : path = getPathFichier()
note left : Selon expert
devoir -> zip : addFile(path)
note left : Selon expert
devoir -> remise : contentRowCsv = getcontentRow()
note left : Selon expert
remise - -> contentRow** : create(id, codePermanent, nomComplet)
note left : Selon createur, . Remise a les données pour\ninitialiser son contentRowCsv
devoir -> content : push(contentRowCsv)
note left : Selon expert
end
end
devoir -> zip : addFile(contentBufferCSV)
devoir -> devoir : zipPath = getZipPath()
note left : Selon expert, retourne "uploads/devoirs/"\n+ idEspaceCours + "/" + idDevoir`
devoir -> devoir : nomFichier = getNomFichier()
note left : Selon expert, retourn "/correction-devoir-"\n+ idDevoir + ".zip"
devoir -> zip : writeZip(zipPath + nomFichier)
note left : Selon expert
devoir - -> gestionnaireDevoir : zipPath + nomFichier
@enduml

PlantUML version 1.2021.9beta2(Unknown compile time)
(GPL source distribution)
Java Runtime: Java(TM) SE Runtime Environment
JVM: Java HotSpot(TM) 64-Bit Server VM
Default Encoding: UTF-8
Language: en
Country: US
--></g></svg>