<?xml version="1.0" encoding="UTF-8" standalone="no"?><svg xmlns="http://www.w3.org/2000/svg" xmlns:xlink="http://www.w3.org/1999/xlink" contentScriptType="application/ecmascript" contentStyleType="text/css" height="467px" preserveAspectRatio="none" style="width:1507px;height:467px;background:#FFFFFF;" version="1.1" viewBox="0 0 1507 467" width="1507px" zoomAndPan="magnify"><defs/><g><text fill="#000000" font-family="Verdana" font-size="18" lengthAdjust="spacing" textLength="369" x="571" y="28.708">RDCU pour recupererUnDevoirEtudiant</text><rect fill="#FFFFFF" height="160.6641" style="stroke:#000000;stroke-width:2.0;" width="648" x="853" y="283.3125"/><rect fill="#FFFFFF" height="59.2656" style="stroke:#000000;stroke-width:2.0;" width="370" x="863" y="377.7109"/><line style="stroke:#A80036;stroke-width:1.0;stroke-dasharray:5.0,5.0;" x1="261" x2="261" y1="71.25" y2="460.9766"/><line style="stroke:#A80036;stroke-width:1.0;stroke-dasharray:5.0,5.0;" x1="651.5" x2="651.5" y1="71.25" y2="460.9766"/><line style="stroke:#A80036;stroke-width:1.0;stroke-dasharray:5.0,5.0;" x1="811.5" x2="811.5" y1="71.25" y2="460.9766"/><line style="stroke:#A80036;stroke-width:1.0;stroke-dasharray:5.0,5.0;" x1="985.5" x2="985.5" y1="71.25" y2="460.9766"/><line style="stroke:#A80036;stroke-width:1.0;stroke-dasharray:5.0,5.0;" x1="1213" x2="1213" y1="71.25" y2="460.9766"/><line style="stroke:#A80036;stroke-width:1.0;stroke-dasharray:5.0,5.0;" x1="1393" x2="1393" y1="71.25" y2="460.9766"/><rect fill="#FEFECE" height="30.2969" style="stroke:#A80036;stroke-width:1.5;" width="158" x="182" y="39.9531"/><text fill="#000000" font-family="Verdana" font-size="14" lengthAdjust="spacing" textLength="144" x="189" y="59.9482">:GestionnaireDevoir</text><rect fill="#FEFECE" height="30.2969" style="stroke:#A80036;stroke-width:1.5;" width="91" x="606.5" y="39.9531"/><text fill="#000000" font-family="Verdana" font-size="14" lengthAdjust="spacing" textLength="77" x="613.5" y="59.9482">:Universite</text><rect fill="#FEFECE" height="30.2969" style="stroke:#A80036;stroke-width:1.5;" width="209" x="707.5" y="39.9531"/><text fill="#000000" font-family="Verdana" font-size="14" lengthAdjust="spacing" textLength="195" x="714.5" y="59.9482">espaceCours : EspaceCours</text><rect fill="#FEFECE" height="30.2969" style="stroke:#A80036;stroke-width:1.5;" width="119" x="926.5" y="39.9531"/><text fill="#000000" font-family="Verdana" font-size="14" lengthAdjust="spacing" textLength="105" x="933.5" y="59.9482">devoir : Devoir</text><rect fill="#FEFECE" height="30.2969" style="stroke:#A80036;stroke-width:1.5;" width="146" x="1140" y="39.9531"/><text fill="#000000" font-family="Verdana" font-size="14" lengthAdjust="spacing" textLength="132" x="1147" y="59.9482">remises : Remise[]</text><rect fill="#FEFECE" height="30.2969" style="stroke:#A80036;stroke-width:1.5;" width="195" x="1296" y="39.9531"/><text fill="#000000" font-family="Verdana" font-size="14" lengthAdjust="spacing" textLength="181" x="1303" y="59.9482">remiseCourante : Remise</text><polygon fill="#A80036" points="249,128.6484,259,132.6484,249,136.6484" style="stroke:#A80036;stroke-width:1.0;"/><line style="stroke:#A80036;stroke-width:1.0;" x1="0" x2="255" y1="132.6484" y2="132.6484"/><text fill="#000000" font-family="Verdana" font-size="13" lengthAdjust="spacing" textLength="58" x="7" y="97.3169">remise =</text><text fill="#000000" font-family="Verdana" font-size="13" lengthAdjust="spacing" textLength="174" x="7" y="112.4497">recupererUnDevoirEtudiant</text><text fill="#000000" font-family="Verdana" font-size="13" lengthAdjust="spacing" textLength="237" x="7" y="127.5825">(idEspaceCours, IdDevoir, idEtudiant)</text><path d="M266,90.8164 L266,130.8164 L419,130.8164 L419,100.8164 L409,90.8164 L266,90.8164 " fill="#FBFB77" style="stroke:#A80036;stroke-width:1.0;"/><path d="M409,90.8164 L409,100.8164 L419,100.8164 L409,90.8164 " fill="#FBFB77" style="stroke:#A80036;stroke-width:1.0;"/><text fill="#000000" font-family="Verdana" font-size="13" lengthAdjust="spacing" textLength="108" x="272" y="107.8833">Selon contr么leur,</text><text fill="#000000" font-family="Verdana" font-size="13" lengthAdjust="spacing" textLength="132" x="272" y="123.0161">cont么leur de session</text><polygon fill="#A80036" points="640,168.3477,650,172.3477,640,176.3477" style="stroke:#A80036;stroke-width:1.0;"/><line style="stroke:#A80036;stroke-width:1.0;" x1="261" x2="646" y1="172.3477" y2="172.3477"/><text fill="#000000" font-family="Verdana" font-size="13" lengthAdjust="spacing" textLength="367" x="268" y="167.2817">espaceCours = recupererUnEspaceCours(idEspaceCours)</text><path d="M74,145.6484 L74,185.6484 L256,185.6484 L256,155.6484 L246,145.6484 L74,145.6484 " fill="#FBFB77" style="stroke:#A80036;stroke-width:1.0;"/><path d="M246,145.6484 L246,155.6484 L256,155.6484 L246,145.6484 " fill="#FBFB77" style="stroke:#A80036;stroke-width:1.0;"/><text fill="#000000" font-family="Verdana" font-size="13" lengthAdjust="spacing" textLength="152" x="80" y="162.7153">Selon expert, universite</text><text fill="#000000" font-family="Verdana" font-size="13" lengthAdjust="spacing" textLength="161" x="80" y="177.8481">contient les espaceCours</text><polygon fill="#A80036" points="800,218.6133,810,222.6133,800,226.6133" style="stroke:#A80036;stroke-width:1.0;"/><line style="stroke:#A80036;stroke-width:1.0;" x1="261" x2="806" y1="222.6133" y2="222.6133"/><text fill="#000000" font-family="Verdana" font-size="13" lengthAdjust="spacing" textLength="242" x="268" y="217.5474">devoir = recupererUnDevoir(idDevoir)</text><path d="M63,195.9141 L63,235.9141 L256,235.9141 L256,205.9141 L246,195.9141 L63,195.9141 " fill="#FBFB77" style="stroke:#A80036;stroke-width:1.0;"/><path d="M246,195.9141 L246,205.9141 L256,205.9141 L246,195.9141 " fill="#FBFB77" style="stroke:#A80036;stroke-width:1.0;"/><text fill="#000000" font-family="Verdana" font-size="13" lengthAdjust="spacing" textLength="172" x="69" y="212.981">Selon expert, espaceCours</text><text fill="#000000" font-family="Verdana" font-size="13" lengthAdjust="spacing" textLength="125" x="69" y="228.1138">contient les devoirs</text><polygon fill="#A80036" points="974,261.3125,984,265.3125,974,269.3125" style="stroke:#A80036;stroke-width:1.0;"/><line style="stroke:#A80036;stroke-width:1.0;" x1="261" x2="980" y1="265.3125" y2="265.3125"/><text fill="#000000" font-family="Verdana" font-size="13" lengthAdjust="spacing" textLength="258" x="268" y="260.2466">remise = getRemiseEtudiant(idEtudiant)</text><path d="M154,246.1797 L154,271.1797 L256,271.1797 L256,256.1797 L246,246.1797 L154,246.1797 " fill="#FBFB77" style="stroke:#A80036;stroke-width:1.0;"/><path d="M246,246.1797 L246,256.1797 L256,256.1797 L246,246.1797 " fill="#FBFB77" style="stroke:#A80036;stroke-width:1.0;"/><text fill="#000000" font-family="Verdana" font-size="13" lengthAdjust="spacing" textLength="81" x="160" y="263.2466">Selon expert</text><path d="M853,283.3125 L931,283.3125 L931,290.3125 L921,300.3125 L853,300.3125 L853,283.3125 " fill="#EEEEEE" style="stroke:#000000;stroke-width:1.0;"/><rect fill="none" height="160.6641" style="stroke:#000000;stroke-width:2.0;" width="648" x="853" y="283.3125"/><text fill="#000000" font-family="Verdana" font-size="13" font-weight="bold" lengthAdjust="spacing" textLength="33" x="868" y="296.3794">loop</text><text fill="#000000" font-family="Verdana" font-size="11" font-weight="bold" lengthAdjust="spacing" textLength="109" x="946" y="295.5229">[remises.length]</text><polygon fill="#A80036" points="1201,320.5781,1211,324.5781,1201,328.5781" style="stroke:#A80036;stroke-width:1.0;"/><line style="stroke:#A80036;stroke-width:1.0;" x1="986" x2="1207" y1="324.5781" y2="324.5781"/><text fill="#000000" font-family="Verdana" font-size="13" lengthAdjust="spacing" textLength="203" x="993" y="319.5122">remiseCourante = getRemise(i)</text><path d="M879,305.4453 L879,330.4453 L981,330.4453 L981,315.4453 L971,305.4453 L879,305.4453 " fill="#FBFB77" style="stroke:#A80036;stroke-width:1.0;"/><path d="M971,305.4453 L971,315.4453 L981,315.4453 L971,305.4453 " fill="#FBFB77" style="stroke:#A80036;stroke-width:1.0;"/><text fill="#000000" font-family="Verdana" font-size="13" lengthAdjust="spacing" textLength="81" x="885" y="322.5122">Selon expert</text><polygon fill="#A80036" points="1381.5,355.7109,1391.5,359.7109,1381.5,363.7109" style="stroke:#A80036;stroke-width:1.0;"/><line style="stroke:#A80036;stroke-width:1.0;" x1="986" x2="1387.5" y1="359.7109" y2="359.7109"/><text fill="#000000" font-family="Verdana" font-size="13" lengthAdjust="spacing" textLength="284" x="993" y="354.645">idEtudiantRemiseCourante = getIdEtudiant()</text><path d="M879,340.5781 L879,365.5781 L981,365.5781 L981,350.5781 L971,340.5781 L879,340.5781 " fill="#FBFB77" style="stroke:#A80036;stroke-width:1.0;"/><path d="M971,340.5781 L971,350.5781 L981,350.5781 L971,340.5781 " fill="#FBFB77" style="stroke:#A80036;stroke-width:1.0;"/><text fill="#000000" font-family="Verdana" font-size="13" lengthAdjust="spacing" textLength="81" x="885" y="357.645">Selon expert</text><path d="M863,377.7109 L929,377.7109 L929,384.7109 L919,394.7109 L863,394.7109 L863,377.7109 " fill="#EEEEEE" style="stroke:#000000;stroke-width:1.0;"/><rect fill="none" height="59.2656" style="stroke:#000000;stroke-width:2.0;" width="370" x="863" y="377.7109"/><text fill="#000000" font-family="Verdana" font-size="13" font-weight="bold" lengthAdjust="spacing" textLength="21" x="878" y="390.7778">alt</text><text fill="#000000" font-family="Verdana" font-size="11" font-weight="bold" lengthAdjust="spacing" textLength="284" x="944" y="389.9214">[idEtudiantRemiseCourante == idEtudiant]</text><line style="stroke:#A80036;stroke-width:1.0;" x1="986" x2="1028" y1="415.9766" y2="415.9766"/><line style="stroke:#A80036;stroke-width:1.0;" x1="1028" x2="1028" y1="415.9766" y2="428.9766"/><line style="stroke:#A80036;stroke-width:1.0;" x1="987" x2="1028" y1="428.9766" y2="428.9766"/><polygon fill="#A80036" points="997,424.9766,987,428.9766,997,432.9766" style="stroke:#A80036;stroke-width:1.0;"/><text fill="#000000" font-family="Verdana" font-size="13" lengthAdjust="spacing" textLength="165" x="993" y="410.9106">remise = remiseCourante</text><path d="M873,403.3438 L873,428.3438 L981,428.3438 L981,413.3438 L971,403.3438 L873,403.3438 " fill="#FBFB77" style="stroke:#A80036;stroke-width:1.0;"/><path d="M971,403.3438 L971,413.3438 L981,413.3438 L971,403.3438 " fill="#FBFB77" style="stroke:#A80036;stroke-width:1.0;"/><text fill="#000000" font-family="Verdana" font-size="13" lengthAdjust="spacing" textLength="87" x="879" y="420.4106">return remise</text><!--MD5=[65e945f2f55c6c3d614a685ceaeaed2e]
@startuml
skinparam style strictuml
skinparam defaultfontname Verdana
title RDCU pour recupererUnDevoirEtudiant
participant ":GestionnaireDevoir" as gestionnaireDevoir
participant ":Universite" as universite
participant "espaceCours : EspaceCours" as cours
participant "devoir : Devoir" as devoir
participant "remises : Remise[]" as remises
participant "remiseCourante : Remise" as remise

-> gestionnaireDevoir : remise = \nrecupererUnDevoirEtudiant\n(idEspaceCours, IdDevoir, idEtudiant)
note left : Selon contr么leur,\ncont么leur de session
gestionnaireDevoir -> universite : espaceCours = recupererUnEspaceCours(idEspaceCours)
note left : Selon expert, universite\ncontient les espaceCours
gestionnaireDevoir -> cours : devoir = recupererUnDevoir(idDevoir)
note left : Selon expert, espaceCours\ncontient les devoirs
gestionnaireDevoir -> devoir : remise = getRemiseEtudiant(idEtudiant)
note left : Selon expert
loop remises.length
devoir -> remises : remiseCourante = getRemise(i)
note left : Selon expert
devoir -> remise : idEtudiantRemiseCourante = getIdEtudiant()
note left : Selon expert
alt idEtudiantRemiseCourante == idEtudiant
devoir -> devoir : remise = remiseCourante
note left : return remise
end
end
@enduml

PlantUML version 1.2021.9beta2(Unknown compile time)
(GPL source distribution)
Java Runtime: Java(TM) SE Runtime Environment
JVM: Java HotSpot(TM) 64-Bit Server VM
Default Encoding: UTF-8
Language: en
Country: US
--></g></svg>