<?xml version="1.0" encoding="UTF-8" standalone="no"?><svg xmlns="http://www.w3.org/2000/svg" xmlns:xlink="http://www.w3.org/1999/xlink" contentScriptType="application/ecmascript" contentStyleType="text/css" height="299px" preserveAspectRatio="none" style="width:1110px;height:299px;background:#FFFFFF;" version="1.1" viewBox="0 0 1110 299" width="1110px" zoomAndPan="magnify"><defs/><g><text fill="#000000" font-family="Verdana" font-size="18" lengthAdjust="spacing" textLength="489" x="310" y="28.708">RDCU pour supprimer une question d'un enseignant</text><line style="stroke:#A80036;stroke-width:1.0;stroke-dasharray:5.0,5.0;" x1="408.5" x2="408.5" y1="71.25" y2="292.3125"/><line style="stroke:#A80036;stroke-width:1.0;stroke-dasharray:5.0,5.0;" x1="800" x2="800" y1="71.25" y2="292.3125"/><line style="stroke:#A80036;stroke-width:1.0;stroke-dasharray:5.0,5.0;" x1="999" x2="999" y1="71.25" y2="292.3125"/><rect fill="#FEFECE" height="30.2969" style="stroke:#A80036;stroke-width:1.5;" width="175" x="321.5" y="39.9531"/><text fill="#000000" font-family="Verdana" font-size="14" lengthAdjust="spacing" textLength="161" x="328.5" y="59.9482">:GestionnaireQuestion</text><rect fill="#FEFECE" height="30.2969" style="stroke:#A80036;stroke-width:1.5;" width="170" x="715" y="39.9531"/><text fill="#000000" font-family="Verdana" font-size="14" lengthAdjust="spacing" textLength="156" x="722" y="59.9482">universite : Universite</text><rect fill="#FEFECE" height="30.2969" style="stroke:#A80036;stroke-width:1.5;" width="209" x="895" y="39.9531"/><text fill="#000000" font-family="Verdana" font-size="14" lengthAdjust="spacing" textLength="195" x="902" y="59.9482">espaceCours : EspaceCours</text><polygon fill="#A80036" points="397,108.9492,407,112.9492,397,116.9492" style="stroke:#A80036;stroke-width:1.0;"/><line style="stroke:#A80036;stroke-width:1.0;" x1="0" x2="403" y1="112.9492" y2="112.9492"/><text fill="#000000" font-family="Verdana" font-size="13" lengthAdjust="spacing" textLength="382" x="7" y="107.8833">questions = supprimerQuestion(idEspaceCours, IdQuestion)</text><path d="M414,86.25 L414,126.25 L586,126.25 L586,96.25 L576,86.25 L414,86.25 " fill="#FBFB77" style="stroke:#A80036;stroke-width:1.0;"/><path d="M576,86.25 L576,96.25 L586,96.25 L576,86.25 " fill="#FBFB77" style="stroke:#A80036;stroke-width:1.0;"/><text fill="#000000" font-family="Verdana" font-size="13" lengthAdjust="spacing" textLength="151" x="420" y="103.3169">Selon controlleur, reçoit</text><text fill="#000000" font-family="Verdana" font-size="13" lengthAdjust="spacing" textLength="127" x="420" y="118.4497">l'opération système</text><polygon fill="#A80036" points="788,159.2148,798,163.2148,788,167.2148" style="stroke:#A80036;stroke-width:1.0;"/><line style="stroke:#A80036;stroke-width:1.0;" x1="409" x2="794" y1="163.2148" y2="163.2148"/><text fill="#000000" font-family="Verdana" font-size="13" lengthAdjust="spacing" textLength="367" x="416" y="158.1489">espaceCours = recupererUnEspaceCours(idEspaceCours)</text><path d="M103,136.5156 L103,176.5156 L404,176.5156 L404,146.5156 L394,136.5156 L103,136.5156 " fill="#FBFB77" style="stroke:#A80036;stroke-width:1.0;"/><path d="M394,136.5156 L394,146.5156 L404,146.5156 L394,136.5156 " fill="#FBFB77" style="stroke:#A80036;stroke-width:1.0;"/><text fill="#000000" font-family="Verdana" font-size="13" lengthAdjust="spacing" textLength="231" x="109" y="153.5825">Selon expert, universite a toutes les</text><text fill="#000000" font-family="Verdana" font-size="13" lengthAdjust="spacing" textLength="280" x="109" y="168.7153">informations pour recupererUnEspaceCours</text><polygon fill="#A80036" points="987.5,209.4805,997.5,213.4805,987.5,217.4805" style="stroke:#A80036;stroke-width:1.0;"/><line style="stroke:#A80036;stroke-width:1.0;" x1="409" x2="993.5" y1="213.4805" y2="213.4805"/><text fill="#000000" font-family="Verdana" font-size="13" lengthAdjust="spacing" textLength="200" x="416" y="208.4146">supprimerQuestion(IdQuestion)</text><path d="M132,186.7813 L132,226.7813 L404,226.7813 L404,196.7813 L394,186.7813 L132,186.7813 " fill="#FBFB77" style="stroke:#A80036;stroke-width:1.0;"/><path d="M394,186.7813 L394,196.7813 L404,196.7813 L394,186.7813 " fill="#FBFB77" style="stroke:#A80036;stroke-width:1.0;"/><text fill="#000000" font-family="Verdana" font-size="13" lengthAdjust="spacing" textLength="251" x="138" y="203.8481">Selon expert, espaceCours a toutes les</text><text fill="#000000" font-family="Verdana" font-size="13" lengthAdjust="spacing" textLength="240" x="138" y="218.981">informations pour supprimerQuestion</text><polygon fill="#A80036" points="987.5,259.7461,997.5,263.7461,987.5,267.7461" style="stroke:#A80036;stroke-width:1.0;"/><line style="stroke:#A80036;stroke-width:1.0;" x1="409" x2="993.5" y1="263.7461" y2="263.7461"/><text fill="#000000" font-family="Verdana" font-size="13" lengthAdjust="spacing" textLength="437" x="416" y="258.6802">questions = recupererToutesQuestionsEspaceCours(idEspaceCours)</text><path d="M5,237.0469 L5,277.0469 L404,277.0469 L404,247.0469 L394,237.0469 L5,237.0469 " fill="#FBFB77" style="stroke:#A80036;stroke-width:1.0;"/><path d="M394,237.0469 L394,247.0469 L404,247.0469 L394,237.0469 " fill="#FBFB77" style="stroke:#A80036;stroke-width:1.0;"/><text fill="#000000" font-family="Verdana" font-size="13" lengthAdjust="spacing" textLength="251" x="11" y="254.1138">Selon expert, espaceCours a toutes les</text><text fill="#000000" font-family="Verdana" font-size="13" lengthAdjust="spacing" textLength="378" x="11" y="269.2466">informations pour recupererToutesQuestionsEspacesCours</text><!--MD5=[e1a62d228cd7c588fb07158b45765bff]
@startuml
skinparam style strictuml
skinparam defaultfontname Verdana
title RDCU pour supprimer une question d'un enseignant
participant ":GestionnaireQuestion" as gestionQ
participant "universite : Universite" as universite
participant "espaceCours : EspaceCours" as cours
-> gestionQ : questions = supprimerQuestion(idEspaceCours, IdQuestion)
note left : Selon controlleur, reçoit\nl'opération système
gestionQ -> universite : espaceCours = recupererUnEspaceCours(idEspaceCours)
note left : Selon expert, universite a toutes les\ninformations pour recupererUnEspaceCours
gestionQ -> cours : supprimerQuestion(IdQuestion)
note left : Selon expert, espaceCours a toutes les\ninformations pour supprimerQuestion
gestionQ -> cours : questions = recupererToutesQuestionsEspaceCours(idEspaceCours)
note left : Selon expert, espaceCours a toutes les\ninformations pour recupererToutesQuestionsEspacesCours
@enduml

PlantUML version 1.2021.9beta2(Unknown compile time)
(GPL source distribution)
Java Runtime: Java(TM) SE Runtime Environment
JVM: Java HotSpot(TM) 64-Bit Server VM
Default Encoding: UTF-8
Language: en
Country: US
--></g></svg>